  0
SECTION
  2
HEADER
  9
$ACADVER
  1
AC1006
  9
$EXTMIN
 10
0.000000
 20
0.000000
 30
0.000000
  9
$EXTMAX
 10
200.000000
 20
200.000000
 30
0.000000
  0
ENDSEC
  0
SECTION
  2
ENTITIES
  0
POLYLINE
  8
0
 66
1
 70
1
  0
VERTEX
  8
0
 10
88.347877
 20
198.580192
 42
0.073842
  0
VERTEX
  8
0
 10
75.556718
 20
193.391216
 42
0.067007
  0
VERTEX
  8
0
 10
64.344999
 20
184.570316
 42
0.067085
  0
VERTEX
  8
0
 10
55.875942
 20
173.109604
 42
0.074347
  0
VERTEX
  8
0
 10
51.105084
 20
160.200779
 42
0.022340
  0
VERTEX
  8
0
 10
50.679922
 20
157.581525
 42
0.009012
  0
VERTEX
  8
0
 10
50.324618
 20
153.975788
 42
0.008897
  0
VERTEX
  8
0
 10
50.080843
 20
150.074473
 42
0.011153
  0
VERTEX
  8
0
 10
50.000000
 20
146.450779
 42
-0.004926
  0
VERTEX
  8
0
 10
49.949736
 20
141.349464
 42
-0.053221
  0
VERTEX
  8
0
 10
49.690834
 20
139.306347
 42
-0.173099
  0
VERTEX
  8
0
 10
49.081189
 20
138.365994
 42
-0.164666
  0
VERTEX
  8
0
 10
48.000000
 20
138.000000
 42
-0.072254
  0
VERTEX
  8
0
 10
47.126841
 20
138.126841
 42
-0.124864
  0
VERTEX
  8
0
 10
46.500000
 20
138.500000
 42
-0.124864
  0
VERTEX
  8
0
 10
46.126841
 20
139.126841
 42
-0.072254
  0
VERTEX
  8
0
 10
46.000000
 20
140.000000
 42
0.200111
  0
VERTEX
  8
0
 10
45.543078
 20
141.095955
 42
0.151374
  0
VERTEX
  8
0
 10
44.375000
 20
141.704545
 42
0.041619
  0
VERTEX
  8
0
 10
41.800382
 20
141.954193
 42
0.003368
  0
VERTEX
  8
0
 10
35.000000
 20
142.000000
 42
0.000000
  0
VERTEX
  8
0
 10
24.000000
 20
142.000000
 42
0.000000
  0
VERTEX
  8
0
 10
24.000000
 20
118.000000
 42
0.001241
  0
VERTEX
  8
0
 10
24.038431
 20
102.522046
 42
0.019546
  0
VERTEX
  8
0
 10
24.270833
 20
97.250000
 42
0.071480
  0
VERTEX
  8
0
 10
24.833864
 20
94.799697
 42
0.309944
  0
VERTEX
  8
0
 10
26.000000
 20
94.000000
 42
-0.235138
  0
VERTEX
  8
0
 10
27.112199
 20
93.446349
 42
-0.126958
  0
VERTEX
  8
0
 10
27.714286
 20
92.000000
 42
-0.033055
  0
VERTEX
  8
0
 10
27.957207
 20
88.801805
 42
-0.002431
  0
VERTEX
  8
0
 10
28.000000
 20
80.000000
 42
-0.002431
  0
VERTEX
  8
0
 10
27.957207
 20
71.198195
 42
-0.033055
  0
VERTEX
  8
0
 10
27.714286
 20
68.000000
 42
-0.126958
  0
VERTEX
  8
0
 10
27.112199
 20
66.553651
 42
-0.235138
  0
VERTEX
  8
0
 10
26.000000
 20
66.000000
 42
0.127119
  0
VERTEX
  8
0
 10
24.938870
 20
65.725789
 42
0.188502
  0
VERTEX
  8
0
 10
24.332784
 20
64.995020
 42
0.071703
  0
VERTEX
  8
0
 10
24.058510
 20
63.458207
 42
0.008363
  0
VERTEX
  8
0
 10
24.000000
 20
59.960162
 42
0.021212
  0
VERTEX
  8
0
 10
24.123577
 20
57.048628
 42
0.028536
  0
VERTEX
  8
0
 10
24.496702
 20
54.436681
 42
0.031211
  0
VERTEX
  8
0
 10
25.124536
 20
52.089381
 42
0.037014
  0
VERTEX
  8
0
 10
26.013458
 20
49.973620
 42
0.000000
  0
VERTEX
  8
0
 10
28.026916
 20
46.026916
 42
0.000000
  0
VERTEX
  8
0
 10
26.013458
 20
44.013458
 42
0.082072
  0
VERTEX
  8
0
 10
24.538212
 20
41.954096
 42
0.129600
  0
VERTEX
  8
0
 10
24.108820
 20
39.836741
 42
0.122770
  0
VERTEX
  8
0
 10
24.774299
 20
37.700554
 42
0.069379
  0
VERTEX
  8
0
 10
26.500000
 20
35.587580
 42
-0.031866
  0
VERTEX
  8
0
 10
27.456726
 20
34.580328
 42
-0.033001
  0
VERTEX
  8
0
 10
28.265625
 20
33.470876
 42
-0.034964
  0
VERTEX
  8
0
 10
28.830568
 20
32.422123
 42
-0.106452
  0
VERTEX
  8
0
 10
29.000000
 20
31.635329
 42
0.090559
  0
VERTEX
  8
0
 10
29.114012
 20
31.011004
 42
0.095542
  0
VERTEX
  8
0
 10
29.440625
 20
30.480378
 42
0.099663
  0
VERTEX
  8
0
 10
29.927722
 20
30.125329
 42
0.108218
  0
VERTEX
  8
0
 10
30.500000
 20
30.000000
 42
-0.064853
  0
VERTEX
  8
0
 10
31.073457
 20
29.925306
 42
-0.082425
  0
VERTEX
  8
0
 10
31.559375
 20
29.706250
 42
-0.098894
  0
VERTEX
  8
0
 10
31.884432
 20
29.381354
 42
-0.148195
  0
VERTEX
  8
0
 10
32.000000
 20
29.000000
 42
-0.293524
  0
VERTEX
  8
0
 10
31.751441
 20
28.613074
 42
-0.044918
  0
VERTEX
  8
0
 10
30.845844
 20
28.293750
 42
-0.038299
  0
VERTEX
  8
0
 10
29.576680
 20
28.072408
 42
-0.024030
  0
VERTEX
  8
0
 10
28.070958
 20
28.000000
 42
0.030060
  0
VERTEX
  8
0
 10
25.590999
 20
27.850772
 42
0.170192
  0
VERTEX
  8
0
 10
24.420858
 20
27.274876
 42
0.112152
  0
VERTEX
  8
0
 10
23.616223
 20
25.971034
 42
0.009837
  0
VERTEX
  8
0
 10
22.424792
 20
22.250000
 42
0.014131
  0
VERTEX
  8
0
 10
21.732143
 20
19.666452
 42
0.009186
  0
VERTEX
  8
0
 10
21.071759
 20
16.646875
 42
0.009238
  0
VERTEX
  8
0
 10
20.535437
 20
13.673643
 42
0.017316
  0
VERTEX
  8
0
 10
20.230004
 20
11.250000
 42
0.000000
  0
VERTEX
  8
0
 10
19.752340
 20
6.000000
 42
0.000000
  0
VERTEX
  8
0
 10
38.821284
 20
6.000000
 42
0.000000
  0
VERTEX
  8
0
 10
57.890228
 20
6.000000
 42
0.000000
  0
VERTEX
  8
0
 10
57.948737
 20
23.541832
 42
0.002020
  0
VERTEX
  8
0
 10
57.940565
 20
35.139856
 42
0.029783
  0
VERTEX
  8
0
 10
57.678821
 20
39.205325
 42
0.087126
  0
VERTEX
  8
0
 10
56.953003
 20
41.571331
 42
0.078644
  0
VERTEX
  8
0
 10
55.446357
 20
43.644552
 42
0.035960
  0
VERTEX
  8
0
 10
54.008827
 20
44.888947
 42
0.074238
  0
VERTEX
  8
0
 10
52.702695
 20
45.591363
 42
0.076093
  0
VERTEX
  8
0
 10
51.269766
 20
45.871877
 42
0.039431
  0
VERTEX
  8
0
 10
49.442734
 20
45.803521
 42
0.000000
  0
VERTEX
  8
0
 10
46.000000
 20
45.401601
 42
0.000000
  0
VERTEX
  8
0
 10
46.000000
 20
75.700801
 42
-0.000945
  0
VERTEX
  8
0
 10
46.037216
 20
95.385461
 42
-0.015534
  0
VERTEX
  8
0
 10
46.266502
 20
101.962600
 42
-0.051947
  0
VERTEX
  8
0
 10
46.802848
 20
105.092485
 42
-0.336191
  0
VERTEX
  8
0
 10
48.000000
 20
106.000000
 42
-0.327857
  0
VERTEX
  8
0
 10
49.186233
 20
105.128493
 42
-0.058124
  0
VERTEX
  8
0
 10
49.732143
 20
102.250000
 42
-0.016793
  0
VERTEX
  8
0
 10
49.962407
 20
96.149164
 42
-0.001036
  0
VERTEX
  8
0
 10
50.000000
 20
78.000000
 42
0.000000
  0
VERTEX
  8
0
 10
50.000000
 20
50.000000
 42
0.000000
  0
VERTEX
  8
0
 10
52.862961
 20
50.000000
 42
-0.102327
  0
VERTEX
  8
0
 10
54.597775
 20
49.641205
 42
-0.132641
  0
VERTEX
  8
0
 10
55.864155
 20
48.634540
 42
-0.053868
  0
VERTEX
  8
0
 10
57.147806
 20
46.432544
 42
-0.005772
  0
VERTEX
  8
0
 10
59.500000
 20
41.000000
 42
0.000000
  0
VERTEX
  8
0
 10
63.274078
 20
32.000000
 42
0.000000
  0
VERTEX
  8
0
 10
73.637039
 20
32.000000
 42
-0.003662
  0
VERTEX
  8
0
 10
80.012636
 20
31.953305
 42
-0.044029
  0
VERTEX
  8
0
 10
82.454630
 20
31.701751
 42
-0.156864
  0
VERTEX
  8
0
 10
83.565081
 20
31.092447
 42
-0.191739
  0
VERTEX
  8
0
 10
84.000000
 20
30.000000
 42
0.130087
  0
VERTEX
  8
0
 10
84.542184
 20
27.951331
 42
0.077136
  0
VERTEX
  8
0
 10
86.123946
 20
25.960566
 42
0.075423
  0
VERTEX
  8
0
 10
88.280662
 20
24.501298
 42
0.111534
  0
VERTEX
  8
0
 10
90.500000
 20
24.000000
 42
-0.038131
  0
VERTEX
  8
0
 10
91.457356
 20
23.926884
 42
-0.057076
  0
VERTEX
  8
0
 10
92.265625
 20
23.706250
 42
-0.074992
  0
VERTEX
  8
0
 10
92.817169
 20
23.382936
 42
-0.226478
  0
VERTEX
  8
0
 10
93.000000
 20
23.000000
 42
-0.308623
  0
VERTEX
  8
0
 10
92.735078
 20
22.611680
 42
-0.037853
  0
VERTEX
  8
0
 10
91.698969
 20
22.293750
 42
-0.034247
  0
VERTEX
  8
0
 10
90.268495
 20
22.072296
 42
-0.021285
  0
VERTEX
  8
0
 10
88.570958
 20
22.000000
 42
0.000000
  0
VERTEX
  8
0
 10
84.141917
 20
22.000000
 42
0.000000
  0
VERTEX
  8
0
 10
82.424792
 20
16.250000
 42
0.014131
  0
VERTEX
  8
0
 10
81.732143
 20
13.666452
 42
0.009186
  0
VERTEX
  8
0
 10
81.071759
 20
10.646875
 42
0.009238
  0
VERTEX
  8
0
 10
80.535437
 20
7.673643
 42
0.017316
  0
VERTEX
  8
0
 10
80.230004
 20
5.250000
 42
0.000000
  0
VERTEX
  8
0
 10
79.752340
 20
0.000000
 42
0.000000
  0
VERTEX
  8
0
 10
99.876170
 20
0.000000
 42
0.000000
  0
VERTEX
  8
0
 10
120.000000
 20
0.000000
 42
0.000000
  0
VERTEX
  8
0
 10
120.000000
 20
4.142187
 42
0.033566
  0
VERTEX
  8
0
 10
119.861551
 20
6.202213
 42
0.012342
  0
VERTEX
  8
0
 10
119.400061
 20
9.082089
 42
0.012169
  0
VERTEX
  8
0
 10
118.739579
 20
12.212886
 42
0.014300
  0
VERTEX
  8
0
 10
117.957655
 20
15.142187
 42
0.000000
  0
VERTEX
  8
0
 10
115.915310
 20
22.000000
 42
0.000000
  0
VERTEX
  8
0
 10
111.457655
 20
22.000000
 42
-0.021146
  0
VERTEX
  8
0
 10
109.749142
 20
22.072290
 42
-0.034040
  0
VERTEX
  8
0
 10
108.309436
 20
22.293750
 42
-0.037494
  0
VERTEX
  8
0
 10
107.265777
 20
22.611603
 42
-0.309395
  0
VERTEX
  8
0
 10
107.000000
 20
23.000000
 42
-0.226478
  0
VERTEX
  8
0
 10
107.182831
 20
23.382936
 42
-0.074992
  0
VERTEX
  8
0
 10
107.734375
 20
23.706250
 42
-0.057076
  0
VERTEX
  8
0
 10
108.542644
 20
23.926884
 42
-0.038131
  0
VERTEX
  8
0
 10
109.500000
 20
24.000000
 42
0.111534
  0
VERTEX
  8
0
 10
111.719338
 20
24.501298
 42
0.075423
  0
VERTEX
  8
0
 10
113.876054
 20
25.960566
 42
0.077136
  0
VERTEX
  8
0
 10
115.457816
 20
27.951331
 42
0.130087
  0
VERTEX
  8
0
 10
116.000000
 20
30.000000
 42
-0.191739
  0
VERTEX
  8
0
 10
116.434919
 20
31.092447
 42
-0.156864
  0
VERTEX
  8
0
 10
117.545370
 20
31.701751
 42
-0.044029
  0
VERTEX
  8
0
 10
119.987364
 20
31.953305
 42
-0.003662
  0
VERTEX
  8
0
 10
126.362961
 20
32.000000
 42
0.000000
  0
VERTEX
  8
0
 10
136.725922
 20
32.000000
 42
0.000000
  0
VERTEX
  8
0
 10
140.500000
 20
41.000000
 42
-0.005772
  0
VERTEX
  8
0
 10
142.852194
 20
46.432544
 42
-0.053868
  0
VERTEX
  8
0
 10
144.135845
 20
48.634540
 42
-0.132641
  0
VERTEX
  8
0
 10
145.402225
 20
49.641205
 42
-0.102327
  0
VERTEX
  8
0
 10
147.137039
 20
50.000000
 42
0.000000
  0
VERTEX
  8
0
 10
150.000000
 20
50.000000
 42
0.000000
  0
VERTEX
  8
0
 10
150.000000
 20
78.000000
 42
-0.001036
  0
VERTEX
  8
0
 10
150.037593
 20
96.149164
 42
-0.016793
  0
VERTEX
  8
0
 10
150.267857
 20
102.250000
 42
-0.058124
  0
VERTEX
  8
0
 10
150.813767
 20
105.128493
 42
-0.327857
  0
VERTEX
  8
0
 10
152.000000
 20
106.000000
 42
-0.336191
  0
VERTEX
  8
0
 10
153.197152
 20
105.092485
 42
-0.051947
  0
VERTEX
  8
0
 10
153.733498
 20
101.962600
 42
-0.015534
  0
VERTEX
  8
0
 10
153.962784
 20
95.385461
 42
-0.000945
  0
VERTEX
  8
0
 10
154.000000
 20
75.700801
 42
0.000000
  0
VERTEX
  8
0
 10
154.000000
 20
45.401601
 42
0.000000
  0
VERTEX
  8
0
 10
150.557266
 20
45.803521
 42
0.039461
  0
VERTEX
  8
0
 10
148.729434
 20
45.871799
 42
0.076179
  0
VERTEX
  8
0
 10
147.296163
 20
45.590786
 42
0.074240
  0
VERTEX
  8
0
 10
145.989082
 20
44.887074
 42
0.035842
  0
VERTEX
  8
0
 10
144.548754
 20
43.639663
 42
0.000000
  0
VERTEX
  8
0
 10
141.982976
 20
41.073885
 42
0.000000
  0
VERTEX
  8
0
 10
142.076642
 20
23.536942
 42
0.000000
  0
VERTEX
  8
0
 10
142.170308
 20
6.000000
 42
0.000000
  0
VERTEX
  8
0
 10
161.085154
 20
6.000000
 42
0.000000
  0
VERTEX
  8
0
 10
180.000000
 20
6.000000
 42
0.000000
  0
VERTEX
  8
0
 10
180.000000
 20
10.142187
 42
0.033566
  0
VERTEX
  8
0
 10
179.861551
 20
12.202213
 42
0.012342
  0
VERTEX
  8
0
 10
179.400061
 20
15.082089
 42
0.012169
  0
VERTEX
  8
0
 10
178.739579
 20
18.212886
 42
0.014300
  0
VERTEX
  8
0
 10
177.957655
 20
21.142187
 42
0.000000
  0
VERTEX
  8
0
 10
175.915310
 20
28.000000
 42
0.000000
  0
VERTEX
  8
0
 10
171.957655
 20
28.000000
 42
-0.023854
  0
VERTEX
  8
0
 10
170.440956
 20
28.072400
 42
-0.038042
  0
VERTEX
  8
0
 10
169.162561
 20
28.293750
 42
-0.044471
  0
VERTEX
  8
0
 10
168.249573
 20
28.612993
 42
-0.294478
  0
VERTEX
  8
0
 10
168.000000
 20
29.000000
 42
-0.148195
  0
VERTEX
  8
0
 10
168.115568
 20
29.381354
 42
-0.098894
  0
VERTEX
  8
0
 10
168.440625
 20
29.706250
 42
-0.082425
  0
VERTEX
  8
0
 10
168.926543
 20
29.925306
 42
-0.064853
  0
VERTEX
  8
0
 10
169.500000
 20
30.000000
 42
0.108218
  0
VERTEX
  8
0
 10
170.072278
 20
30.125329
 42
0.099663
  0
VERTEX
  8
0
 10
170.559375
 20
30.480378
 42
0.095542
  0
VERTEX
  8
0
 10
170.885988
 20
31.011004
 42
0.090559
  0
VERTEX
  8
0
 10
171.000000
 20
31.635329
 42
-0.106452
  0
VERTEX
  8
0
 10
171.169432
 20
32.422123
 42
-0.034964
  0
VERTEX
  8
0
 10
171.734375
 20
33.470876
 42
-0.033001
  0
VERTEX
  8
0
 10
172.543274
 20
34.580328
 42
-0.031866
  0
VERTEX
  8
0
 10
173.500000
 20
35.587580
 42
0.069379
  0
VERTEX
  8
0
 10
175.225701
 20
37.700554
 42
0.122770
  0
VERTEX
  8
0
 10
175.891180
 20
39.836741
 42
0.129600
  0
VERTEX
  8
0
 10
175.461788
 20
41.954096
 42
0.082072
  0
VERTEX
  8
0
 10
173.986542
 20
44.013458
 42
0.000000
  0
VERTEX
  8
0
 10
171.973084
 20
46.026916
 42
0.000000
  0
VERTEX
  8
0
 10
173.986542
 20
49.973620
 42
0.037014
  0
VERTEX
  8
0
 10
174.875464
 20
52.089381
 42
0.031211
  0
VERTEX
  8
0
 10
175.503298
 20
54.436681
 42
0.028536
  0
VERTEX
  8
0
 10
175.876423
 20
57.048628
 42
0.021212
  0
VERTEX
  8
0
 10
176.000000
 20
59.960162
 42
0.008363
  0
VERTEX
  8
0
 10
175.941490
 20
63.458207
 42
0.071703
  0
VERTEX
  8
0
 10
175.667216
 20
64.995020
 42
0.188502
  0
VERTEX
  8
0
 10
175.061130
 20
65.725789
 42
0.127119
  0
VERTEX
  8
0
 10
174.000000
 20
66.000000
 42
-0.235138
  0
VERTEX
  8
0
 10
172.887801
 20
66.553651
 42
-0.126958
  0
VERTEX
  8
0
 10
172.285714
 20
68.000000
 42
-0.033055
  0
VERTEX
  8
0
 10
172.042793
 20
71.198195
 42
-0.002431
  0
VERTEX
  8
0
 10
172.000000
 20
80.000000
 42
-0.002431
  0
VERTEX
  8
0
 10
172.042793
 20
88.801805
 42
-0.033055
  0
VERTEX
  8
0
 10
172.285714
 20
92.000000
 42
-0.126958
  0
VERTEX
  8
0
 10
172.887801
 20
93.446349
 42
-0.235138
  0
VERTEX
  8
0
 10
174.000000
 20
94.000000
 42
0.309944
  0
VERTEX
  8
0
 10
175.166136
 20
94.799697
 42
0.071480
  0
VERTEX
  8
0
 10
175.729167
 20
97.250000
 42
0.019546
  0
VERTEX
  8
0
 10
175.961569
 20
102.522046
 42
0.001241
  0
VERTEX
  8
0
 10
176.000000
 20
118.000000
 42
0.000000
  0
VERTEX
  8
0
 10
176.000000
 20
142.000000
 42
0.000000
  0
VERTEX
  8
0
 10
165.000000
 20
142.000000
 42
0.003368
  0
VERTEX
  8
0
 10
158.199618
 20
141.954193
 42
0.041619
  0
VERTEX
  8
0
 10
155.625000
 20
141.704545
 42
0.151374
  0
VERTEX
  8
0
 10
154.456922
 20
141.095955
 42
0.200111
  0
VERTEX
  8
0
 10
154.000000
 20
140.000000
 42
-0.072254
  0
VERTEX
  8
0
 10
153.873159
 20
139.126841
 42
-0.124864
  0
VERTEX
  8
0
 10
153.500000
 20
138.500000
 42
-0.124864
  0
VERTEX
  8
0
 10
152.873159
 20
138.126841
 42
-0.072254
  0
VERTEX
  8
0
 10
152.000000
 20
138.000000
 42
-0.164666
  0
VERTEX
  8
0
 10
150.918811
 20
138.365994
 42
-0.173099
  0
VERTEX
  8
0
 10
150.309166
 20
139.306347
 42
-0.053221
  0
VERTEX
  8
0
 10
150.050264
 20
141.349464
 42
-0.004926
  0
VERTEX
  8
0
 10
150.000000
 20
146.450779
 42
0.037144
  0
VERTEX
  8
0
 10
149.128716
 20
158.163030
 42
0.055007
  0
VERTEX
  8
0
 10
146.499993
 20
168.108222
 42
0.057740
  0
VERTEX
  8
0
 10
141.889285
 20
176.885838
 42
0.046628
  0
VERTEX
  8
0
 10
135.088674
 20
185.088674
 42
0.061388
  0
VERTEX
  8
0
 10
124.922248
 20
193.024222
 42
0.064878
  0
VERTEX
  8
0
 10
113.316132
 20
198.076630
 42
0.065470
  0
VERTEX
  8
0
 10
100.898372
 20
199.956611
 42
0.064456
  0
SEQEND
  0
POLYLINE
  8
0
 66
1
 70
1
  0
VERTEX
  8
0
 10
93.693800
 20
188.360467
 42
-0.192195
  0
VERTEX
  8
0
 10
93.297643
 20
188.190335
 42
-0.002658
  0
VERTEX
  8
0
 10
90.629206
 20
188.135456
 42
-0.007015
  0
VERTEX
  8
0
 10
87.503439
 20
188.131650
 42
-0.004505
  0
VERTEX
  8
0
 10
83.877454
 20
188.210788
 42
0.000000
  0
VERTEX
  8
0
 10
74.500000
 20
188.500000
 42
0.000000
  0
VERTEX
  8
0
 10
78.750674
 20
190.770668
 42
-0.020527
  0
VERTEX
  8
0
 10
80.755625
 20
191.738122
 42
-0.011093
  0
VERTEX
  8
0
 10
83.294702
 20
192.770984
 42
-0.011033
  0
VERTEX
  8
0
 10
85.931336
 20
193.709873
 42
-0.017064
  0
VERTEX
  8
0
 10
88.250674
 20
194.391660
 42
0.000000
  0
VERTEX
  8
0
 10
93.500000
 20
195.741984
 42
0.000000
  0
VERTEX
  8
0
 10
93.816346
 20
192.270671
 42
-0.012726
  0
VERTEX
  8
0
 10
93.905569
 20
190.908977
 42
-0.017829
  0
VERTEX
  8
0
 10
93.910841
 20
189.690132
 42
-0.014258
  0
VERTEX
  8
0
 10
93.851393
 20
188.697944
 42
-0.176045
  0
SEQEND
  0
POLYLINE
  8
0
 66
1
 70
1
  0
VERTEX
  8
0
 10
102.000000
 20
190.000000
 42
0.000000
  0
VERTEX
  8
0
 10
102.000000
 20
184.000000
 42
0.000000
  0
VERTEX
  8
0
 10
116.475749
 20
184.000000
 42
0.000000
  0
VERTEX
  8
0
 10
130.951498
 20
184.000000
 42
0.000000
  0
VERTEX
  8
0
 10
134.225749
 20
180.442936
 42
-0.030078
  0
VERTEX
  8
0
 10
136.793791
 20
177.292381
 42
-0.013576
  0
VERTEX
  8
0
 10
139.789620
 20
172.881266
 42
-0.008616
  0
VERTEX
  8
0
 10
142.512634
 20
168.461941
 42
-0.131782
  0
VERTEX
  8
0
 10
142.991839
 20
166.750000
 42
-0.365202
  0
VERTEX
  8
0
 10
142.747128
 20
166.453154
 42
-0.014136
  0
VERTEX
  8
0
 10
141.235103
 20
166.220313
 42
-0.019398
  0
VERTEX
  8
0
 10
139.299812
 20
166.053988
 42
-0.011736
  0
VERTEX
  8
0
 10
137.000000
 20
166.000000
 42
0.000000
  0
VERTEX
  8
0
 10
131.000000
 20
166.000000
 42
0.000000
  0
VERTEX
  8
0
 10
131.000000
 20
159.000000
 42
0.000000
  0
VERTEX
  8
0
 10
131.000000
 20
152.000000
 42
0.000000
  0
VERTEX
  8
0
 10
138.500000
 20
152.000000
 42
-0.011522
  0
VERTEX
  8
0
 10
141.477527
 20
151.931377
 42
-0.021620
  0
VERTEX
  8
0
 10
143.875000
 20
151.716667
 42
-0.018508
  0
VERTEX
  8
0
 10
145.667147
 20
151.409838
 42
-0.354925
  0
VERTEX
  8
0
 10
146.000000
 20
151.000000
 42
-0.406856
  0
VERTEX
  8
0
 10
145.532111
 20
150.520175
 42
-0.000863
  0
VERTEX
  8
0
 10
134.250000
 20
150.255435
 42
-0.003963
  0
VERTEX
  8
0
 10
120.020723
 20
150.058911
 42
-0.001471
  0
VERTEX
  8
0
 10
100.000000
 20
150.000000
 42
-0.001471
  0
VERTEX
  8
0
 10
79.979277
 20
150.058911
 42
-0.003963
  0
VERTEX
  8
0
 10
65.750000
 20
150.255435
 42
-0.000863
  0
VERTEX
  8
0
 10
54.467889
 20
150.520175
 42
-0.406856
  0
VERTEX
  8
0
 10
54.000000
 20
151.000000
 42
-0.386182
  0
VERTEX
  8
0
 10
54.403813
 20
151.444855
 42
-0.006948
  0
VERTEX
  8
0
 10
57.875000
 20
151.732759
 42
-0.012022
  0
VERTEX
  8
0
 10
62.428351
 20
151.936945
 42
-0.005192
  0
VERTEX
  8
0
 10
68.500000
 20
152.000000
 42
0.000000
  0
VERTEX
  8
0
 10
83.000000
 20
152.000000
 42
0.000000
  0
VERTEX
  8
0
 10
83.000000
 20
159.000000
 42
0.000000
  0
VERTEX
  8
0
 10
83.000000
 20
166.000000
 42
0.000000
  0
VERTEX
  8
0
 10
70.000000
 20
166.000000
 42
-0.005408
  0
VERTEX
  8
0
 10
65.015934
 20
166.053911
 42
-0.009010
  0
VERTEX
  8
0
 10
60.821507
 20
166.220313
 42
-0.003228
  0
VERTEX
  8
0
 10
57.288003
 20
166.447211
 42
-0.397306
  0
VERTEX
  8
0
 10
57.009384
 20
166.750000
 42
-0.130880
  0
VERTEX
  8
0
 10
57.490248
 20
168.468812
 42
-0.007697
  0
VERTEX
  8
0
 10
60.342590
 20
173.137173
 42
-0.012491
  0
VERTEX
  8
0
 10
63.403418
 20
177.720116
 42
-0.033954
  0
VERTEX
  8
0
 10
65.862101
 20
180.750000
 42
0.000000
  0
VERTEX
  8
0
 10
68.887258
 20
184.000000
 42
0.000000
  0
VERTEX
  8
0
 10
83.443629
 20
184.000000
 42
0.000000
  0
VERTEX
  8
0
 10
98.000000
 20
184.000000
 42
0.000000
  0
VERTEX
  8
0
 10
98.000000
 20
190.000000
 42
-0.008455
  0
VERTEX
  8
0
 10
98.058710
 20
193.471613
 42
-0.072107
  0
VERTEX
  8
0
 10
98.333333
 20
195.000000
 42
-0.188641
  0
VERTEX
  8
0
 10
98.939334
 20
195.727332
 42
-0.126480
  0
VERTEX
  8
0
 10
100.000000
 20
196.000000
 42
-0.126480
  0
VERTEX
  8
0
 10
101.060666
 20
195.727332
 42
-0.188641
  0
VERTEX
  8
0
 10
101.666667
 20
195.000000
 42
-0.072107
  0
VERTEX
  8
0
 10
101.941290
 20
193.471613
 42
-0.008455
  0
SEQEND
  0
POLYLINE
  8
0
 66
1
 70
1
  0
VERTEX
  8
0
 10
119.750000
 20
191.503440
 42
-0.008194
  0
VERTEX
  8
0
 10
121.762265
 20
190.546182
 42
-0.012813
  0
VERTEX
  8
0
 10
123.457813
 20
189.650404
 42
-0.006920
  0
VERTEX
  8
0
 10
124.830440
 20
188.854425
 42
-0.263734
  0
VERTEX
  8
0
 10
125.000000
 20
188.555324
 42
-0.393393
  0
VERTEX
  8
0
 10
124.791360
 20
188.331183
 42
-0.003304
  0
VERTEX
  8
0
 10
122.209375
 20
188.163126
 42
-0.009118
  0
VERTEX
  8
0
 10
119.142666
 20
188.039922
 42
-0.005480
  0
VERTEX
  8
0
 10
115.500000
 20
188.000000
 42
0.000000
  0
VERTEX
  8
0
 10
106.000000
 20
188.000000
 42
0.000000
  0
VERTEX
  8
0
 10
106.000000
 20
191.893703
 42
0.000000
  0
VERTEX
  8
0
 10
106.000000
 20
195.787405
 42
0.000000
  0
VERTEX
  8
0
 10
110.250000
 20
194.841819
 42
-0.020252
  0
VERTEX
  8
0
 10
112.250732
 20
194.310814
 42
-0.009502
  0
VERTEX
  8
0
 10
114.793750
 20
193.471115
 42
-0.009398
  0
VERTEX
  8
0
 10
117.429430
 20
192.488885
 42
-0.013032
  0
SEQEND
  0
POLYLINE
  8
0
 66
1
 70
1
  0
VERTEX
  8
0
 10
79.000000
 20
159.000000
 42
0.000000
  0
VERTEX
  8
0
 10
79.000000
 20
156.000000
 42
0.000000
  0
VERTEX
  8
0
 10
66.673193
 20
156.000000
 42
0.000000
  0
VERTEX
  8
0
 10
54.346386
 20
156.000000
 42
0.000000
  0
VERTEX
  8
0
 10
54.786692
 20
159.000000
 42
0.000000
  0
VERTEX
  8
0
 10
55.226999
 20
162.000000
 42
0.000000
  0
VERTEX
  8
0
 10
67.113499
 20
162.000000
 42
0.000000
  0
VERTEX
  8
0
 10
79.000000
 20
162.000000
 42
0.000000
  0
SEQEND
  0
POLYLINE
  8
0
 66
1
 70
1
  0
VERTEX
  8
0
 10
145.213308
 20
159.000000
 42
0.000000
  0
VERTEX
  8
0
 10
145.653614
 20
156.000000
 42
0.000000
  0
VERTEX
  8
0
 10
140.326807
 20
156.000000
 42
-0.008536
  0
VERTEX
  8
0
 10
136.876888
 20
156.058899
 42
-0.120268
  0
VERTEX
  8
0
 10
135.693901
 20
156.390797
 42
-0.227854
  0
VERTEX
  8
0
 10
135.148186
 20
157.171888
 42
-0.040463
  0
VERTEX
  8
0
 10
135.000000
 20
159.000000
 42
-0.038109
  0
VERTEX
  8
0
 10
135.138587
 20
160.815667
 42
-0.220427
  0
VERTEX
  8
0
 10
135.657208
 20
161.596516
 42
-0.128147
  0
VERTEX
  8
0
 10
136.773231
 20
161.936490
 42
-0.010199
  0
VERTEX
  8
0
 10
139.886501
 20
162.000000
 42
-0.012029
  0
VERTEX
  8
0
 10
142.915986
 20
161.927108
 42
-0.116726
  0
VERTEX
  8
0
 10
144.141626
 20
161.573989
 42
-0.188438
  0
VERTEX
  8
0
 10
144.800675
 20
160.767901
 42
-0.041809
  0
SEQEND
  0
POLYLINE
  8
0
 66
1
 70
1
  0
VERTEX
  8
0
 10
146.000000
 20
144.000000
 42
-0.370579
  0
VERTEX
  8
0
 10
144.918489
 20
142.741176
 42
-0.026953
  0
VERTEX
  8
0
 10
140.000000
 20
142.260870
 42
-0.010272
  0
VERTEX
  8
0
 10
130.171137
 20
142.035673
 42
-0.000591
  0
VERTEX
  8
0
 10
100.000000
 20
142.000000
 42
-0.000591
  0
VERTEX
  8
0
 10
69.828863
 20
142.035673
 42
-0.010272
  0
VERTEX
  8
0
 10
60.000000
 20
142.260870
 42
-0.026953
  0
VERTEX
  8
0
 10
55.081511
 20
142.741176
 42
-0.370579
  0
VERTEX
  8
0
 10
54.000000
 20
144.000000
 42
-0.370579
  0
VERTEX
  8
0
 10
55.081511
 20
145.258824
 42
-0.026953
  0
VERTEX
  8
0
 10
60.000000
 20
145.739130
 42
-0.010272
  0
VERTEX
  8
0
 10
69.828863
 20
145.964327
 42
-0.000591
  0
VERTEX
  8
0
 10
100.000000
 20
146.000000
 42
-0.000591
  0
VERTEX
  8
0
 10
130.171137
 20
145.964327
 42
-0.010272
  0
VERTEX
  8
0
 10
140.000000
 20
145.739130
 42
-0.026953
  0
VERTEX
  8
0
 10
144.918489
 20
145.258824
 42
-0.370579
  0
SEQEND
  0
POLYLINE
  8
0
 66
1
 70
1
  0
VERTEX
  8
0
 10
42.000000
 20
118.000000
 42
0.000000
  0
VERTEX
  8
0
 10
42.000000
 20
98.000000
 42
0.000000
  0
VERTEX
  8
0
 10
35.000000
 20
98.000000
 42
0.000000
  0
VERTEX
  8
0
 10
28.000000
 20
98.000000
 42
0.000000
  0
VERTEX
  8
0
 10
28.000000
 20
118.000000
 42
0.000000
  0
VERTEX
  8
0
 10
28.000000
 20
138.000000
 42
0.000000
  0
VERTEX
  8
0
 10
35.000000
 20
138.000000
 42
0.000000
  0
VERTEX
  8
0
 10
42.000000
 20
138.000000
 42
0.000000
  0
SEQEND
  0
POLYLINE
  8
0
 66
1
 70
1
  0
VERTEX
  8
0
 10
146.000000
 20
96.000000
 42
0.000000
  0
VERTEX
  8
0
 10
146.000000
 20
54.000000
 42
0.000000
  0
VERTEX
  8
0
 10
100.000000
 20
54.000000
 42
0.000000
  0
VERTEX
  8
0
 10
54.000000
 20
54.000000
 42
0.000000
  0
VERTEX
  8
0
 10
54.000000
 20
96.000000
 42
0.000000
  0
VERTEX
  8
0
 10
54.000000
 20
138.000000
 42
0.000000
  0
VERTEX
  8
0
 10
100.000000
 20
138.000000
 42
0.000000
  0
VERTEX
  8
0
 10
146.000000
 20
138.000000
 42
0.000000
  0
SEQEND
  0
POLYLINE
  8
0
 66
1
 70
1
  0
VERTEX
  8
0
 10
172.000000
 20
118.000000
 42
0.000000
  0
VERTEX
  8
0
 10
172.000000
 20
98.000000
 42
0.000000
  0
VERTEX
  8
0
 10
165.000000
 20
98.000000
 42
0.000000
  0
VERTEX
  8
0
 10
158.000000
 20
98.000000
 42
0.000000
  0
VERTEX
  8
0
 10
158.000000
 20
118.000000
 42
0.000000
  0
VERTEX
  8
0
 10
158.000000
 20
138.000000
 42
0.000000
  0
VERTEX
  8
0
 10
165.000000
 20
138.000000
 42
0.000000
  0
VERTEX
  8
0
 10
172.000000
 20
138.000000
 42
0.000000
  0
SEQEND
  0
POLYLINE
  8
0
 66
1
 70
1
  0
VERTEX
  8
0
 10
50.000000
 20
122.000000
 42
-0.002988
  0
VERTEX
  8
0
 10
49.955380
 20
114.532631
 42
-0.038318
  0
VERTEX
  8
0
 10
49.708333
 20
111.750000
 42
-0.142907
  0
VERTEX
  8
0
 10
49.101385
 20
110.490438
 42
-0.212584
  0
VERTEX
  8
0
 10
48.000000
 20
110.000000
 42
-0.212584
  0
VERTEX
  8
0
 10
46.898615
 20
110.490438
 42
-0.142907
  0
VERTEX
  8
0
 10
46.291667
 20
111.750000
 42
-0.038318
  0
VERTEX
  8
0
 10
46.044620
 20
114.532631
 42
-0.002988
  0
VERTEX
  8
0
 10
46.000000
 20
122.000000
 42
-0.002988
  0
VERTEX
  8
0
 10
46.044620
 20
129.467369
 42
-0.038318
  0
VERTEX
  8
0
 10
46.291667
 20
132.250000
 42
-0.142907
  0
VERTEX
  8
0
 10
46.898615
 20
133.509562
 42
-0.212584
  0
VERTEX
  8
0
 10
48.000000
 20
134.000000
 42
-0.212584
  0
VERTEX
  8
0
 10
49.101385
 20
133.509562
 42
-0.142907
  0
VERTEX
  8
0
 10
49.708333
 20
132.250000
 42
-0.038318
  0
VERTEX
  8
0
 10
49.955380
 20
129.467369
 42
-0.002988
  0
SEQEND
  0
POLYLINE
  8
0
 66
1
 70
1
  0
VERTEX
  8
0
 10
154.000000
 20
122.000000
 42
-0.002988
  0
VERTEX
  8
0
 10
153.955380
 20
114.532631
 42
-0.038318
  0
VERTEX
  8
0
 10
153.708333
 20
111.750000
 42
-0.142907
  0
VERTEX
  8
0
 10
153.101385
 20
110.490438
 42
-0.212584
  0
VERTEX
  8
0
 10
152.000000
 20
110.000000
 42
-0.212584
  0
VERTEX
  8
0
 10
150.898615
 20
110.490438
 42
-0.142907
  0
VERTEX
  8
0
 10
150.291667
 20
111.750000
 42
-0.038318
  0
VERTEX
  8
0
 10
150.044620
 20
114.532631
 42
-0.002988
  0
VERTEX
  8
0
 10
150.000000
 20
122.000000
 42
-0.002988
  0
VERTEX
  8
0
 10
150.044620
 20
129.467369
 42
-0.038318
  0
VERTEX
  8
0
 10
150.291667
 20
132.250000
 42
-0.142907
  0
VERTEX
  8
0
 10
150.898615
 20
133.509562
 42
-0.212584
  0
VERTEX
  8
0
 10
152.000000
 20
134.000000
 42
-0.212584
  0
VERTEX
  8
0
 10
153.101385
 20
133.509562
 42
-0.142907
  0
VERTEX
  8
0
 10
153.708333
 20
132.250000
 42
-0.038318
  0
VERTEX
  8
0
 10
153.955380
 20
129.467369
 42
-0.002988
  0
SEQEND
  0
POLYLINE
  8
0
 66
1
 70
1
  0
VERTEX
  8
0
 10
42.000000
 20
80.000000
 42
0.000000
  0
VERTEX
  8
0
 10
42.000000
 20
66.000000
 42
0.000000
  0
VERTEX
  8
0
 10
37.000000
 20
66.000000
 42
0.000000
  0
VERTEX
  8
0
 10
32.000000
 20
66.000000
 42
0.000000
  0
VERTEX
  8
0
 10
32.000000
 20
80.000000
 42
0.000000
  0
VERTEX
  8
0
 10
32.000000
 20
94.000000
 42
0.000000
  0
VERTEX
  8
0
 10
37.000000
 20
94.000000
 42
0.000000
  0
VERTEX
  8
0
 10
42.000000
 20
94.000000
 42
0.000000
  0
SEQEND
  0
POLYLINE
  8
0
 66
1
 70
1
  0
VERTEX
  8
0
 10
168.000000
 20
80.000000
 42
0.000000
  0
VERTEX
  8
0
 10
168.000000
 20
66.000000
 42
0.000000
  0
VERTEX
  8
0
 10
163.000000
 20
66.000000
 42
0.000000
  0
VERTEX
  8
0
 10
158.000000
 20
66.000000
 42
0.000000
  0
VERTEX
  8
0
 10
158.000000
 20
80.000000
 42
0.000000
  0
VERTEX
  8
0
 10
158.000000
 20
94.000000
 42
0.000000
  0
VERTEX
  8
0
 10
163.000000
 20
94.000000
 42
0.000000
  0
VERTEX
  8
0
 10
168.000000
 20
94.000000
 42
0.000000
  0
SEQEND
  0
POLYLINE
  8
0
 66
1
 70
1
  0
VERTEX
  8
0
 10
42.000000
 20
54.000000
 42
0.000000
  0
VERTEX
  8
0
 10
42.000000
 20
46.000000
 42
0.000000
  0
VERTEX
  8
0
 10
37.199266
 20
46.000000
 42
-0.019271
  0
VERTEX
  8
0
 10
34.176419
 20
46.116551
 42
-0.124884
  0
VERTEX
  8
0
 10
32.743493
 20
46.600260
 42
-0.119622
  0
VERTEX
  8
0
 10
31.684961
 20
47.716999
 42
-0.017071
  0
VERTEX
  8
0
 10
30.199266
 20
50.526751
 42
-0.025764
  0
VERTEX
  8
0
 10
29.357181
 20
52.514386
 42
-0.020237
  0
VERTEX
  8
0
 10
28.646034
 20
54.744036
 42
-0.020658
  0
VERTEX
  8
0
 10
28.153701
 20
56.875801
 42
-0.046449
  0
VERTEX
  8
0
 10
28.000000
 20
58.526751
 42
0.000000
  0
VERTEX
  8
0
 10
28.000000
 20
62.000000
 42
0.000000
  0
VERTEX
  8
0
 10
35.000000
 20
62.000000
 42
0.000000
  0
VERTEX
  8
0
 10
42.000000
 20
62.000000
 42
0.000000
  0
SEQEND
  0
POLYLINE
  8
0
 66
1
 70
1
  0
VERTEX
  8
0
 10
172.000000
 20
58.526751
 42
-0.046449
  0
VERTEX
  8
0
 10
171.846299
 20
56.875801
 42
-0.020658
  0
VERTEX
  8
0
 10
171.353966
 20
54.744036
 42
-0.020237
  0
VERTEX
  8
0
 10
170.642819
 20
52.514386
 42
-0.025764
  0
VERTEX
  8
0
 10
169.800734
 20
50.526751
 42
-0.017071
  0
VERTEX
  8
0
 10
168.315039
 20
47.716999
 42
-0.119622
  0
VERTEX
  8
0
 10
167.256507
 20
46.600260
 42
-0.124884
  0
VERTEX
  8
0
 10
165.823581
 20
46.116551
 42
-0.019271
  0
VERTEX
  8
0
 10
162.800734
 20
46.000000
 42
0.000000
  0
VERTEX
  8
0
 10
158.000000
 20
46.000000
 42
0.000000
  0
VERTEX
  8
0
 10
158.000000
 20
54.000000
 42
0.000000
  0
VERTEX
  8
0
 10
158.000000
 20
62.000000
 42
0.000000
  0
VERTEX
  8
0
 10
165.000000
 20
62.000000
 42
0.000000
  0
VERTEX
  8
0
 10
172.000000
 20
62.000000
 42
0.000000
  0
SEQEND
  0
POLYLINE
  8
0
 66
1
 70
1
  0
VERTEX
  8
0
 10
67.446196
 20
44.537085
 42
0.002191
  0
VERTEX
  8
0
 10
68.097466
 20
42.332865
 42
0.002492
  0
VERTEX
  8
0
 10
68.741064
 20
40.227382
 42
0.002261
  0
VERTEX
  8
0
 10
69.304588
 20
38.444650
 42
0.013932
  0
VERTEX
  8
0
 10
69.624143
 20
37.537085
 42
-0.084663
  0
VERTEX
  8
0
 10
69.764124
 20
36.837506
 42
-0.207663
  0
VERTEX
  8
0
 10
69.573091
 20
36.360530
 42
-0.153613
  0
VERTEX
  8
0
 10
69.032573
 20
36.082212
 42
-0.042691
  0
VERTEX
  8
0
 10
68.071451
 20
36.000000
 42
-0.118820
  0
VERTEX
  8
0
 10
66.943129
 20
36.271974
 42
-0.093608
  0
VERTEX
  8
0
 10
65.946948
 20
37.044691
 42
-0.059583
  0
VERTEX
  8
0
 10
64.970442
 20
38.455743
 42
-0.019261
  0
VERTEX
  8
0
 10
63.868344
 20
40.750000
 42
-0.002343
  0
VERTEX
  8
0
 10
61.058486
 20
47.311269
 42
-0.075489
  0
VERTEX
  8
0
 10
60.630760
 20
48.991696
 42
-0.363987
  0
VERTEX
  8
0
 10
61.150692
 20
49.752313
 42
-0.068363
  0
VERTEX
  8
0
 10
62.953792
 20
50.000000
 42
-0.062219
  0
VERTEX
  8
0
 10
64.631760
 20
49.790387
 42
-0.159847
  0
VERTEX
  8
0
 10
65.651619
 20
49.143051
 42
-0.089656
  0
VERTEX
  8
0
 10
66.427102
 20
47.754666
 42
-0.011911
  0
SEQEND
  0
POLYLINE
  8
0
 66
1
 70
1
  0
VERTEX
  8
0
 10
90.000000
 20
43.000000
 42
0.000000
  0
VERTEX
  8
0
 10
90.000000
 20
36.000000
 42
0.000000
  0
VERTEX
  8
0
 10
82.070958
 20
36.000000
 42
0.000000
  0
VERTEX
  8
0
 10
74.141917
 20
36.000000
 42
0.000000
  0
VERTEX
  8
0
 10
72.553804
 20
41.462915
 42
0.002191
  0
VERTEX
  8
0
 10
71.902534
 20
43.667135
 42
0.002492
  0
VERTEX
  8
0
 10
71.258936
 20
45.772618
 42
0.002261
  0
VERTEX
  8
0
 10
70.695412
 20
47.555350
 42
0.013932
  0
VERTEX
  8
0
 10
70.375857
 20
48.462915
 42
-0.329253
  0
VERTEX
  8
0
 10
70.592587
 20
49.246808
 42
-0.126870
  0
VERTEX
  8
0
 10
71.688871
 20
49.726569
 42
-0.035808
  0
VERTEX
  8
0
 10
74.228077
 20
49.951977
 42
-0.004238
  0
VERTEX
  8
0
 10
79.893011
 20
50.000000
 42
0.000000
  0
VERTEX
  8
0
 10
90.000000
 20
50.000000
 42
0.000000
  0
SEQEND
  0
POLYLINE
  8
0
 66
1
 70
1
  0
VERTEX
  8
0
 10
106.000000
 20
43.000000
 42
0.000000
  0
VERTEX
  8
0
 10
106.000000
 20
36.000000
 42
0.000000
  0
VERTEX
  8
0
 10
100.000000
 20
36.000000
 42
0.000000
  0
VERTEX
  8
0
 10
94.000000
 20
36.000000
 42
0.000000
  0
VERTEX
  8
0
 10
94.000000
 20
43.000000
 42
0.000000
  0
VERTEX
  8
0
 10
94.000000
 20
50.000000
 42
0.000000
  0
VERTEX
  8
0
 10
100.000000
 20
50.000000
 42
0.000000
  0
VERTEX
  8
0
 10
106.000000
 20
50.000000
 42
0.000000
  0
SEQEND
  0
POLYLINE
  8
0
 66
1
 70
1
  0
VERTEX
  8
0
 10
129.624143
 20
48.462915
 42
0.013932
  0
VERTEX
  8
0
 10
129.304588
 20
47.555350
 42
0.002261
  0
VERTEX
  8
0
 10
128.741064
 20
45.772618
 42
0.002492
  0
VERTEX
  8
0
 10
128.097466
 20
43.667135
 42
0.002191
  0
VERTEX
  8
0
 10
127.446196
 20
41.462915
 42
0.000000
  0
VERTEX
  8
0
 10
125.858083
 20
36.000000
 42
0.000000
  0
VERTEX
  8
0
 10
117.929042
 20
36.000000
 42
0.000000
  0
VERTEX
  8
0
 10
110.000000
 20
36.000000
 42
0.000000
  0
VERTEX
  8
0
 10
110.000000
 20
43.000000
 42
0.000000
  0
VERTEX
  8
0
 10
110.000000
 20
50.000000
 42
0.000000
  0
VERTEX
  8
0
 10
120.106989
 20
50.000000
 42
-0.004238
  0
VERTEX
  8
0
 10
125.771923
 20
49.951977
 42
-0.035808
  0
VERTEX
  8
0
 10
128.311129
 20
49.726569
 42
-0.126870
  0
VERTEX
  8
0
 10
129.407413
 20
49.246808
 42
-0.329253
  0
SEQEND
  0
POLYLINE
  8
0
 66
1
 70
1
  0
VERTEX
  8
0
 10
137.043059
 20
43.250000
 42
-0.012682
  0
VERTEX
  8
0
 10
135.532000
 20
39.935153
 42
-0.042653
  0
VERTEX
  8
0
 10
134.310687
 20
37.889917
 42
-0.069736
  0
VERTEX
  8
0
 10
133.166215
 20
36.692566
 42
-0.130239
  0
VERTEX
  8
0
 10
131.944520
 20
36.162004
 42
-0.029854
  0
VERTEX
  8
0
 10
130.854313
 20
36.062523
 42
-0.178872
  0
VERTEX
  8
0
 10
130.322741
 20
36.240270
 42
-0.259536
  0
VERTEX
  8
0
 10
130.148064
 20
36.669810
 42
-0.061270
  0
VERTEX
  8
0
 10
130.342090
 20
37.449088
 42
0.013611
  0
VERTEX
  8
0
 10
130.676308
 20
38.396358
 42
0.002376
  0
VERTEX
  8
0
 10
131.249017
 20
40.201533
 42
0.002578
  0
VERTEX
  8
0
 10
131.900058
 20
42.326428
 42
0.002310
  0
VERTEX
  8
0
 10
132.553804
 20
44.537085
 42
-0.011942
  0
VERTEX
  8
0
 10
133.571037
 20
47.748091
 42
-0.089143
  0
VERTEX
  8
0
 10
134.346515
 20
49.139378
 42
-0.159402
  0
VERTEX
  8
0
 10
135.363563
 20
49.788901
 42
-0.063134
  0
VERTEX
  8
0
 10
137.028741
 20
50.000000
 42
0.000000
  0
VERTEX
  8
0
 10
139.915566
 20
50.000000
 42
0.000000
  0
SEQEND
  0
POLYLINE
  8
0
 66
1
 70
1
  0
VERTEX
  8
0
 10
31.553851
 20
40.912868
 42
-0.190717
  0
VERTEX
  8
0
 10
31.763962
 20
39.735958
 42
-0.171854
  0
VERTEX
  8
0
 10
31.124253
 20
38.670270
 42
-0.175934
  0
VERTEX
  8
0
 10
29.969950
 20
38.260019
 42
-0.197141
  0
VERTEX
  8
0
 10
28.887132
 20
38.712868
 42
-0.144911
  0
VERTEX
  8
0
 10
28.366354
 20
39.671654
 42
-0.134859
  0
VERTEX
  8
0
 10
28.431624
 20
40.789156
 42
-0.143758
  0
VERTEX
  8
0
 10
29.047584
 20
41.666716
 42
-0.169916
  0
VERTEX
  8
0
 10
30.000000
 20
42.000000
 42
-0.100929
  0
VERTEX
  8
0
 10
30.386686
 20
41.921141
 42
-0.052079
  0
VERTEX
  8
0
 10
30.820255
 20
41.680655
 42
-0.048757
  0
VERTEX
  8
0
 10
31.231435
 20
41.328718
 42
-0.053016
  0
SEQEND
  0
POLYLINE
  8
0
 66
1
 70
1
  0
VERTEX
  8
0
 10
42.000000
 20
38.000000
 42
0.000000
  0
VERTEX
  8
0
 10
42.000000
 20
34.000000
 42
0.000000
  0
VERTEX
  8
0
 10
37.443296
 20
34.000000
 42
-0.005552
  0
VERTEX
  8
0
 10
34.413238
 20
34.033650
 42
-0.155076
  0
VERTEX
  8
0
 10
33.674741
 20
34.286529
 42
-0.376873
  0
VERTEX
  8
0
 10
33.560944
 20
34.814311
 42
-0.025643
  0
VERTEX
  8
0
 10
34.443296
 20
36.222506
 42
0.032678
  0
VERTEX
  8
0
 10
35.039179
 20
37.203904
 42
0.027309
  0
VERTEX
  8
0
 10
35.542718
 20
38.314290
 42
0.028182
  0
VERTEX
  8
0
 10
35.891044
 20
39.384027
 42
0.064700
  0
VERTEX
  8
0
 10
36.000000
 20
40.222506
 42
-0.106296
  0
VERTEX
  8
0
 10
36.177810
 20
41.049446
 42
-0.154287
  0
VERTEX
  8
0
 10
36.671942
 20
41.601876
 42
-0.102484
  0
VERTEX
  8
0
 10
37.567881
 20
41.909387
 42
-0.031604
  0
VERTEX
  8
0
 10
39.000000
 20
42.000000
 42
-0.033956
  0
VERTEX
  8
0
 10
40.775737
 20
41.879267
 42
-0.200505
  0
VERTEX
  8
0
 10
41.562500
 20
41.416667
 42
-0.146160
  0
VERTEX
  8
0
 10
41.923201
 20
40.438365
 42
-0.015744
  0
SEQEND
  0
POLYLINE
  8
0
 66
1
 70
1
  0
VERTEX
  8
0
 10
52.912457
 20
40.605483
 42
-0.137740
  0
VERTEX
  8
0
 10
53.417734
 20
39.470879
 42
-0.018374
  0
VERTEX
  8
0
 10
53.704232
 20
36.839858
 42
-0.017059
  0
VERTEX
  8
0
 10
53.839821
 20
33.236164
 42
-0.007498
  0
VERTEX
  8
0
 10
53.784902
 20
28.461976
 42
-0.005485
  0
VERTEX
  8
0
 10
53.566542
 20
22.636976
 42
-0.030414
  0
VERTEX
  8
0
 10
53.225045
 20
19.523551
 42
-0.061294
  0
VERTEX
  8
0
 10
52.668757
 20
17.676207
 42
-0.149638
  0
VERTEX
  8
0
 10
51.750000
 20
16.611608
 42
-0.051734
  0
VERTEX
  8
0
 10
50.834557
 20
16.159929
 42
-0.088978
  0
VERTEX
  8
0
 10
50.000000
 20
16.010230
 42
-0.088978
  0
VERTEX
  8
0
 10
49.165443
 20
16.159929
 42
-0.051734
  0
VERTEX
  8
0
 10
48.250000
 20
16.611608
 42
-0.149638
  0
VERTEX
  8
0
 10
47.331243
 20
17.676207
 42
-0.061294
  0
VERTEX
  8
0
 10
46.774955
 20
19.523551
 42
-0.030414
  0
VERTEX
  8
0
 10
46.433458
 20
22.636976
 42
-0.005485
  0
VERTEX
  8
0
 10
46.215098
 20
28.461976
 42
-0.010671
  0
VERTEX
  8
0
 10
46.177787
 20
35.696037
 42
-0.064196
  0
VERTEX
  8
0
 10
46.717788
 20
39.409644
 42
-0.156668
  0
VERTEX
  8
0
 10
47.952044
 20
41.279520
 42
-0.170772
  0
VERTEX
  8
0
 10
50.000000
 20
42.000000
 42
-0.067249
  0
VERTEX
  8
0
 10
50.756820
 20
41.897747
 42
-0.044520
  0
VERTEX
  8
0
 10
51.579517
 20
41.590361
 42
-0.044304
  0
VERTEX
  8
0
 10
52.340445
 20
41.139289
 42
-0.063691
  0
SEQEND
  0
POLYLINE
  8
0
 66
1
 70
1
  0
VERTEX
  8
0
 10
152.912457
 20
40.605483
 42
-0.137740
  0
VERTEX
  8
0
 10
153.417734
 20
39.470879
 42
-0.018374
  0
VERTEX
  8
0
 10
153.704232
 20
36.839858
 42
-0.017059
  0
VERTEX
  8
0
 10
153.839821
 20
33.236164
 42
-0.007498
  0
VERTEX
  8
0
 10
153.784902
 20
28.461976
 42
-0.005485
  0
VERTEX
  8
0
 10
153.566542
 20
22.636976
 42
-0.030414
  0
VERTEX
  8
0
 10
153.225045
 20
19.523551
 42
-0.061294
  0
VERTEX
  8
0
 10
152.668757
 20
17.676207
 42
-0.149638
  0
VERTEX
  8
0
 10
151.750000
 20
16.611608
 42
-0.051734
  0
VERTEX
  8
0
 10
150.834557
 20
16.159929
 42
-0.088978
  0
VERTEX
  8
0
 10
150.000000
 20
16.010230
 42
-0.088978
  0
VERTEX
  8
0
 10
149.165443
 20
16.159929
 42
-0.051734
  0
VERTEX
  8
0
 10
148.250000
 20
16.611608
 42
-0.149638
  0
VERTEX
  8
0
 10
147.331243
 20
17.676207
 42
-0.061294
  0
VERTEX
  8
0
 10
146.774955
 20
19.523551
 42
-0.030414
  0
VERTEX
  8
0
 10
146.433458
 20
22.636976
 42
-0.005485
  0
VERTEX
  8
0
 10
146.215098
 20
28.461976
 42
-0.010671
  0
VERTEX
  8
0
 10
146.177787
 20
35.696037
 42
-0.064196
  0
VERTEX
  8
0
 10
146.717788
 20
39.409644
 42
-0.156668
  0
VERTEX
  8
0
 10
147.952044
 20
41.279520
 42
-0.170772
  0
VERTEX
  8
0
 10
150.000000
 20
42.000000
 42
-0.067249
  0
VERTEX
  8
0
 10
150.756820
 20
41.897747
 42
-0.044520
  0
VERTEX
  8
0
 10
151.579517
 20
41.590361
 42
-0.044304
  0
VERTEX
  8
0
 10
152.340445
 20
41.139289
 42
-0.063691
  0
SEQEND
  0
POLYLINE
  8
0
 66
1
 70
1
  0
VERTEX
  8
0
 10
164.000000
 20
40.222506
 42
0.064700
  0
VERTEX
  8
0
 10
164.108956
 20
39.384027
 42
0.028182
  0
VERTEX
  8
0
 10
164.457282
 20
38.314290
 42
0.027309
  0
VERTEX
  8
0
 10
164.960821
 20
37.203904
 42
0.032678
  0
VERTEX
  8
0
 10
165.556704
 20
36.222506
 42
-0.025643
  0
VERTEX
  8
0
 10
166.439056
 20
34.814311
 42
-0.376873
  0
VERTEX
  8
0
 10
166.325259
 20
34.286529
 42
-0.155076
  0
VERTEX
  8
0
 10
165.586762
 20
34.033650
 42
-0.005552
  0
VERTEX
  8
0
 10
162.556704
 20
34.000000
 42
0.000000
  0
VERTEX
  8
0
 10
158.000000
 20
34.000000
 42
0.000000
  0
VERTEX
  8
0
 10
158.000000
 20
38.000000
 42
-0.015744
  0
VERTEX
  8
0
 10
158.076799
 20
40.438365
 42
-0.146160
  0
VERTEX
  8
0
 10
158.437500
 20
41.416667
 42
-0.200505
  0
VERTEX
  8
0
 10
159.224263
 20
41.879267
 42
-0.033956
  0
VERTEX
  8
0
 10
161.000000
 20
42.000000
 42
-0.031604
  0
VERTEX
  8
0
 10
162.432119
 20
41.909387
 42
-0.102484
  0
VERTEX
  8
0
 10
163.328058
 20
41.601876
 42
-0.154287
  0
VERTEX
  8
0
 10
163.822190
 20
41.049446
 42
-0.106296
  0
SEQEND
  0
POLYLINE
  8
0
 66
1
 70
1
  0
VERTEX
  8
0
 10
171.553851
 20
40.912868
 42
-0.190717
  0
VERTEX
  8
0
 10
171.763962
 20
39.735958
 42
-0.171854
  0
VERTEX
  8
0
 10
171.124253
 20
38.670270
 42
-0.175934
  0
VERTEX
  8
0
 10
169.969950
 20
38.260019
 42
-0.197141
  0
VERTEX
  8
0
 10
168.887132
 20
38.712868
 42
-0.144911
  0
VERTEX
  8
0
 10
168.366354
 20
39.671654
 42
-0.134859
  0
VERTEX
  8
0
 10
168.431624
 20
40.789156
 42
-0.143758
  0
VERTEX
  8
0
 10
169.047584
 20
41.666716
 42
-0.169916
  0
VERTEX
  8
0
 10
170.000000
 20
42.000000
 42
-0.100929
  0
VERTEX
  8
0
 10
170.386686
 20
41.921141
 42
-0.052079
  0
VERTEX
  8
0
 10
170.820255
 20
41.680655
 42
-0.048757
  0
VERTEX
  8
0
 10
171.231435
 20
41.328718
 42
-0.053016
  0
SEQEND
  0
POLYLINE
  8
0
 66
1
 70
1
  0
VERTEX
  8
0
 10
91.553851
 20
30.912868
 42
-0.190717
  0
VERTEX
  8
0
 10
91.763962
 20
29.735958
 42
-0.171854
  0
VERTEX
  8
0
 10
91.124253
 20
28.670270
 42
-0.175934
  0
VERTEX
  8
0
 10
89.969950
 20
28.260019
 42
-0.197141
  0
VERTEX
  8
0
 10
88.887132
 20
28.712868
 42
-0.144911
  0
VERTEX
  8
0
 10
88.366354
 20
29.671654
 42
-0.134859
  0
VERTEX
  8
0
 10
88.431624
 20
30.789156
 42
-0.143758
  0
VERTEX
  8
0
 10
89.047584
 20
31.666716
 42
-0.169916
  0
VERTEX
  8
0
 10
90.000000
 20
32.000000
 42
-0.100929
  0
VERTEX
  8
0
 10
90.386686
 20
31.921141
 42
-0.052079
  0
VERTEX
  8
0
 10
90.820255
 20
31.680655
 42
-0.048757
  0
VERTEX
  8
0
 10
91.231435
 20
31.328718
 42
-0.053016
  0
SEQEND
  0
POLYLINE
  8
0
 66
1
 70
1
  0
VERTEX
  8
0
 10
104.000000
 20
30.000000
 42
-0.094959
  0
VERTEX
  8
0
 10
103.804216
 20
28.978414
 42
-0.184152
  0
VERTEX
  8
0
 10
103.250000
 20
28.375000
 42
-0.098846
  0
VERTEX
  8
0
 10
102.150836
 20
28.074821
 42
-0.017388
  0
VERTEX
  8
0
 10
100.000000
 20
28.000000
 42
-0.017388
  0
VERTEX
  8
0
 10
97.849164
 20
28.074821
 42
-0.098846
  0
VERTEX
  8
0
 10
96.750000
 20
28.375000
 42
-0.184152
  0
VERTEX
  8
0
 10
96.195784
 20
28.978414
 42
-0.094959
  0
VERTEX
  8
0
 10
96.000000
 20
30.000000
 42
-0.094959
  0
VERTEX
  8
0
 10
96.195784
 20
31.021586
 42
-0.184152
  0
VERTEX
  8
0
 10
96.750000
 20
31.625000
 42
-0.098846
  0
VERTEX
  8
0
 10
97.849164
 20
31.925179
 42
-0.017388
  0
VERTEX
  8
0
 10
100.000000
 20
32.000000
 42
-0.017388
  0
VERTEX
  8
0
 10
102.150836
 20
31.925179
 42
-0.098846
  0
VERTEX
  8
0
 10
103.250000
 20
31.625000
 42
-0.184152
  0
VERTEX
  8
0
 10
103.804216
 20
31.021586
 42
-0.094959
  0
SEQEND
  0
POLYLINE
  8
0
 66
1
 70
1
  0
VERTEX
  8
0
 10
111.553851
 20
30.912868
 42
-0.190717
  0
VERTEX
  8
0
 10
111.763962
 20
29.735958
 42
-0.171854
  0
VERTEX
  8
0
 10
111.124253
 20
28.670270
 42
-0.175934
  0
VERTEX
  8
0
 10
109.969950
 20
28.260019
 42
-0.197141
  0
VERTEX
  8
0
 10
108.887132
 20
28.712868
 42
-0.144911
  0
VERTEX
  8
0
 10
108.366354
 20
29.671654
 42
-0.134859
  0
VERTEX
  8
0
 10
108.431624
 20
30.789156
 42
-0.143758
  0
VERTEX
  8
0
 10
109.047584
 20
31.666716
 42
-0.169916
  0
VERTEX
  8
0
 10
110.000000
 20
32.000000
 42
-0.100929
  0
VERTEX
  8
0
 10
110.386686
 20
31.921141
 42
-0.052079
  0
VERTEX
  8
0
 10
110.820255
 20
31.680655
 42
-0.048757
  0
VERTEX
  8
0
 10
111.231435
 20
31.328718
 42
-0.053016
  0
SEQEND
  0
POLYLINE
  8
0
 66
1
 70
1
  0
VERTEX
  8
0
 10
42.000000
 20
25.000000
 42
-0.009722
  0
VERTEX
  8
0
 10
41.937776
 20
21.800013
 42
-0.126045
  0
VERTEX
  8
0
 10
41.600000
 20
20.666667
 42
-0.222479
  0
VERTEX
  8
0
 10
40.819245
 20
20.141020
 42
-0.038700
  0
VERTEX
  8
0
 10
39.000000
 20
20.000000
 42
-0.038700
  0
VERTEX
  8
0
 10
37.180755
 20
20.141020
 42
-0.222479
  0
VERTEX
  8
0
 10
36.400000
 20
20.666667
 42
-0.126045
  0
VERTEX
  8
0
 10
36.062224
 20
21.800013
 42
-0.009722
  0
VERTEX
  8
0
 10
36.000000
 20
25.000000
 42
-0.009722
  0
VERTEX
  8
0
 10
36.062224
 20
28.199987
 42
-0.126045
  0
VERTEX
  8
0
 10
36.400000
 20
29.333333
 42
-0.222479
  0
VERTEX
  8
0
 10
37.180755
 20
29.858980
 42
-0.038700
  0
VERTEX
  8
0
 10
39.000000
 20
30.000000
 42
-0.038700
  0
VERTEX
  8
0
 10
40.819245
 20
29.858980
 42
-0.222479
  0
VERTEX
  8
0
 10
41.600000
 20
29.333333
 42
-0.126045
  0
VERTEX
  8
0
 10
41.937776
 20
28.199987
 42
-0.009722
  0
SEQEND
  0
POLYLINE
  8
0
 66
1
 70
1
  0
VERTEX
  8
0
 10
164.000000
 20
25.000000
 42
-0.009722
  0
VERTEX
  8
0
 10
163.937776
 20
21.800013
 42
-0.126045
  0
VERTEX
  8
0
 10
163.600000
 20
20.666667
 42
-0.222479
  0
VERTEX
  8
0
 10
162.819245
 20
20.141020
 42
-0.038700
  0
VERTEX
  8
0
 10
161.000000
 20
20.000000
 42
-0.038700
  0
VERTEX
  8
0
 10
159.180755
 20
20.141020
 42
-0.222479
  0
VERTEX
  8
0
 10
158.400000
 20
20.666667
 42
-0.126045
  0
VERTEX
  8
0
 10
158.062224
 20
21.800013
 42
-0.009722
  0
VERTEX
  8
0
 10
158.000000
 20
25.000000
 42
-0.009722
  0
VERTEX
  8
0
 10
158.062224
 20
28.199987
 42
-0.126045
  0
VERTEX
  8
0
 10
158.400000
 20
29.333333
 42
-0.222479
  0
VERTEX
  8
0
 10
159.180755
 20
29.858980
 42
-0.038700
  0
VERTEX
  8
0
 10
161.000000
 20
30.000000
 42
-0.038700
  0
VERTEX
  8
0
 10
162.819245
 20
29.858980
 42
-0.222479
  0
VERTEX
  8
0
 10
163.600000
 20
29.333333
 42
-0.126045
  0
VERTEX
  8
0
 10
163.937776
 20
28.199987
 42
-0.009722
  0
SEQEND
  0
POLYLINE
  8
0
 66
1
 70
1
  0
VERTEX
  8
0
 10
32.000000
 20
20.000000
 42
0.000000
  0
VERTEX
  8
0
 10
32.000000
 20
16.000000
 42
0.000000
  0
VERTEX
  8
0
 10
37.040493
 20
16.000000
 42
-0.024711
  0
VERTEX
  8
0
 10
39.516562
 20
15.877553
 42
-0.040908
  0
VERTEX
  8
0
 10
41.573731
 20
15.501948
 42
-0.046448
  0
VERTEX
  8
0
 10
43.345947
 20
14.844586
 42
-0.047188
  0
VERTEX
  8
0
 10
44.956350
 20
13.874151
 42
0.038504
  0
VERTEX
  8
0
 10
46.427310
 20
12.952611
 42
0.052294
  0
VERTEX
  8
0
 10
47.882412
 20
12.374448
 42
0.055049
  0
VERTEX
  8
0
 10
49.364713
 20
12.129564
 42
0.049908
  0
VERTEX
  8
0
 10
50.915857
 20
12.200958
 42
-0.025730
  0
VERTEX
  8
0
 10
52.315519
 20
12.333311
 42
-0.079925
  0
VERTEX
  8
0
 10
53.254169
 20
12.223291
 42
-0.146044
  0
VERTEX
  8
0
 10
53.793277
 20
11.880602
 42
-0.180557
  0
VERTEX
  8
0
 10
54.000000
 20
11.326807
 42
-0.357188
  0
VERTEX
  8
0
 10
53.435135
 20
10.636979
 42
-0.027767
  0
VERTEX
  8
0
 10
50.900113
 20
10.271931
 42
-0.018349
  0
VERTEX
  8
0
 10
46.628242
 20
10.054709
 42
-0.003528
  0
VERTEX
  8
0
 10
38.875000
 20
10.000000
 42
0.000000
  0
VERTEX
  8
0
 10
23.750000
 20
10.000000
 42
0.000000
  0
VERTEX
  8
0
 10
24.389104
 20
13.195520
 42
-0.008504
  0
VERTEX
  8
0
 10
25.677253
 20
19.111242
 42
-0.053387
  0
VERTEX
  8
0
 10
26.701359
 20
22.024099
 42
-0.124907
  0
VERTEX
  8
0
 10
27.900304
 20
23.467099
 42
-0.158556
  0
VERTEX
  8
0
 10
29.538544
 20
24.000000
 42
-0.056705
  0
VERTEX
  8
0
 10
30.897771
 20
23.845351
 42
-0.200779
  0
VERTEX
  8
0
 10
31.596159
 20
23.343736
 42
-0.122308
  0
VERTEX
  8
0
 10
31.925078
 20
22.310636
 42
-0.016208
  0
SEQEND
  0
POLYLINE
  8
0
 66
1
 70
1
  0
VERTEX
  8
0
 10
103.000000
 20
19.000000
 42
-0.009722
  0
VERTEX
  8
0
 10
102.937776
 20
15.800013
 42
-0.126045
  0
VERTEX
  8
0
 10
102.600000
 20
14.666667
 42
-0.222479
  0
VERTEX
  8
0
 10
101.819245
 20
14.141020
 42
-0.038700
  0
VERTEX
  8
0
 10
100.000000
 20
14.000000
 42
-0.038700
  0
VERTEX
  8
0
 10
98.180755
 20
14.141020
 42
-0.222479
  0
VERTEX
  8
0
 10
97.400000
 20
14.666667
 42
-0.126045
  0
VERTEX
  8
0
 10
97.062224
 20
15.800013
 42
-0.009722
  0
VERTEX
  8
0
 10
97.000000
 20
19.000000
 42
-0.009722
  0
VERTEX
  8
0
 10
97.062224
 20
22.199987
 42
-0.126045
  0
VERTEX
  8
0
 10
97.400000
 20
23.333333
 42
-0.222479
  0
VERTEX
  8
0
 10
98.180755
 20
23.858980
 42
-0.038700
  0
VERTEX
  8
0
 10
100.000000
 20
24.000000
 42
-0.038700
  0
VERTEX
  8
0
 10
101.819245
 20
23.858980
 42
-0.222479
  0
VERTEX
  8
0
 10
102.600000
 20
23.333333
 42
-0.126045
  0
VERTEX
  8
0
 10
102.937776
 20
22.199987
 42
-0.009722
  0
SEQEND
  0
POLYLINE
  8
0
 66
1
 70
1
  0
VERTEX
  8
0
 10
174.461259
 20
18.818499
 42
-0.021322
  0
VERTEX
  8
0
 10
175.966343
 20
12.825113
 42
-0.307760
  0
VERTEX
  8
0
 10
175.167459
 20
10.901999
 42
-0.141694
  0
VERTEX
  8
0
 10
172.553221
 20
10.097785
 42
-0.004232
  0
VERTEX
  8
0
 10
161.000000
 20
10.000000
 42
-0.003563
  0
VERTEX
  8
0
 10
153.314320
 20
10.054774
 42
-0.018495
  0
VERTEX
  8
0
 10
149.076334
 20
10.272113
 42
-0.028114
  0
VERTEX
  8
0
 10
146.563092
 20
10.637663
 42
-0.356594
  0
VERTEX
  8
0
 10
146.000000
 20
11.326807
 42
-0.180557
  0
VERTEX
  8
0
 10
146.206723
 20
11.880602
 42
-0.146044
  0
VERTEX
  8
0
 10
146.745831
 20
12.223291
 42
-0.079925
  0
VERTEX
  8
0
 10
147.684481
 20
12.333311
 42
-0.025730
  0
VERTEX
  8
0
 10
149.084143
 20
12.200958
 42
0.049908
  0
VERTEX
  8
0
 10
150.635287
 20
12.129564
 42
0.055049
  0
VERTEX
  8
0
 10
152.117588
 20
12.374448
 42
0.052294
  0
VERTEX
  8
0
 10
153.572690
 20
12.952611
 42
0.038504
  0
VERTEX
  8
0
 10
155.043650
 20
13.874151
 42
-0.047188
  0
VERTEX
  8
0
 10
156.654053
 20
14.844586
 42
-0.046448
  0
VERTEX
  8
0
 10
158.426269
 20
15.501948
 42
-0.040908
  0
VERTEX
  8
0
 10
160.483438
 20
15.877553
 42
-0.024711
  0
VERTEX
  8
0
 10
162.959507
 20
16.000000
 42
0.000000
  0
VERTEX
  8
0
 10
168.000000
 20
16.000000
 42
0.000000
  0
VERTEX
  8
0
 10
168.000000
 20
20.000000
 42
-0.016208
  0
VERTEX
  8
0
 10
168.074921
 20
22.310580
 42
-0.122298
  0
VERTEX
  8
0
 10
168.403829
 20
23.343704
 42
-0.200776
  0
VERTEX
  8
0
 10
169.102180
 20
23.845337
 42
-0.056717
  0
VERTEX
  8
0
 10
170.461259
 20
24.000000
 42
-0.088501
  0
VERTEX
  8
0
 10
171.815032
 20
23.758489
 42
-0.140997
  0
VERTEX
  8
0
 10
172.756478
 20
23.067398
 42
-0.078114
  0
VERTEX
  8
0
 10
173.529463
 20
21.657511
 42
-0.014231
  0
SEQEND
  0
POLYLINE
  8
0
 66
1
 70
1
  0
VERTEX
  8
0
 10
93.000000
 20
14.000000
 42
0.000000
  0
VERTEX
  8
0
 10
93.000000
 20
10.000000
 42
0.000000
  0
VERTEX
  8
0
 10
100.000000
 20
10.000000
 42
0.000000
  0
VERTEX
  8
0
 10
107.000000
 20
10.000000
 42
0.000000
  0
VERTEX
  8
0
 10
107.000000
 20
14.000000
 42
-0.015755
  0
VERTEX
  8
0
 10
107.076611
 20
16.430721
 42
-0.144559
  0
VERTEX
  8
0
 10
107.435079
 20
17.412306
 42
-0.200910
  0
VERTEX
  8
0
 10
108.216053
 20
17.877248
 42
-0.035125
  0
VERTEX
  8
0
 10
109.961259
 20
18.000000
 42
-0.057539
  0
VERTEX
  8
0
 10
111.670286
 20
17.802674
 42
-0.157732
  0
VERTEX
  8
0
 10
112.698126
 20
17.182653
 42
-0.093802
  0
VERTEX
  8
0
 10
113.472074
 20
15.855857
 42
-0.013085
  0
VERTEX
  8
0
 10
114.461259
 20
12.818499
 42
-0.023048
  0
VERTEX
  8
0
 10
115.943422
 20
6.828978
 42
-0.315790
  0
VERTEX
  8
0
 10
115.087025
 20
4.886591
 42
-0.132958
  0
VERTEX
  8
0
 10
112.323404
 20
4.093659
 42
-0.003762
  0
VERTEX
  8
0
 10
99.875000
 20
4.000000
 42
0.000000
  0
VERTEX
  8
0
 10
83.750000
 20
4.000000
 42
0.000000
  0
VERTEX
  8
0
 10
84.389104
 20
7.195520
 42
-0.008077
  0
VERTEX
  8
0
 10
85.739711
 20
13.423668
 42
-0.063104
  0
VERTEX
  8
0
 10
86.771201
 20
16.199850
 42
-0.152218
  0
VERTEX
  8
0
 10
88.084192
 20
17.516783
 42
-0.121792
  0
VERTEX
  8
0
 10
90.038544
 20
18.000000
 42
-0.035119
  0
VERTEX
  8
0
 10
91.783905
 20
17.877258
 42
-0.200908
  0
VERTEX
  8
0
 10
92.564909
 20
17.412328
 42
-0.144567
  0
VERTEX
  8
0
 10
92.923388
 20
16.430760
 42
-0.015755
  0
SEQEND
  0
POLYLINE
  8
0
 66
1
 70
1
  0
VERTEX
  8
0
 10
88.000000
 20
170.000000
 42
0.000000
  0
VERTEX
  8
0
 10
88.000000
 20
158.000000
 42
0.000000
  0
VERTEX
  8
0
 10
100.000000
 20
158.000000
 42
0.000000
  0
VERTEX
  8
0
 10
112.000000
 20
158.000000
 42
0.000000
  0
VERTEX
  8
0
 10
112.000000
 20
170.000000
 42
0.000000
  0
VERTEX
  8
0
 10
112.000000
 20
182.000000
 42
0.000000
  0
VERTEX
  8
0
 10
100.000000
 20
182.000000
 42
0.000000
  0
VERTEX
  8
0
 10
88.000000
 20
182.000000
 42
0.000000
  0
SEQEND
  0
POLYLINE
  8
0
 66
1
 70
1
  0
VERTEX
  8
0
 10
108.000000
 20
170.000000
 42
0.000000
  0
VERTEX
  8
0
 10
108.000000
 20
162.000000
 42
0.000000
  0
VERTEX
  8
0
 10
100.000000
 20
162.000000
 42
0.000000
  0
VERTEX
  8
0
 10
92.000000
 20
162.000000
 42
0.000000
  0
VERTEX
  8
0
 10
92.000000
 20
170.000000
 42
0.000000
  0
VERTEX
  8
0
 10
92.000000
 20
178.000000
 42
0.000000
  0
VERTEX
  8
0
 10
100.000000
 20
178.000000
 42
0.000000
  0
VERTEX
  8
0
 10
108.000000
 20
178.000000
 42
0.000000
  0
SEQEND
  0
POLYLINE
  8
0
 66
1
 70
1
  0
VERTEX
  8
0
 10
118.000000
 20
164.000000
 42
0.153696
  0
VERTEX
  8
0
 10
116.190204
 20
160.527031
 42
0.135183
  0
VERTEX
  8
0
 10
116.572427
 20
156.444460
 42
0.139159
  0
VERTEX
  8
0
 10
118.969090
 20
153.216261
 42
0.165390
  0
VERTEX
  8
0
 10
122.545455
 20
152.000000
 42
0.125165
  0
VERTEX
  8
0
 10
124.919654
 20
152.603791
 42
0.064061
  0
VERTEX
  8
0
 10
127.426660
 20
154.416429
 42
0.064663
  0
VERTEX
  8
0
 10
129.360783
 20
156.770935
 42
0.140550
  0
VERTEX
  8
0
 10
130.000000
 20
159.000000
 42
0.140550
  0
VERTEX
  8
0
 10
129.360783
 20
161.229065
 42
0.064663
  0
VERTEX
  8
0
 10
127.426660
 20
163.583571
 42
0.064061
  0
VERTEX
  8
0
 10
124.919654
 20
165.396209
 42
0.125165
  0
VERTEX
  8
0
 10
122.545455
 20
166.000000
 42
0.064612
  0
VERTEX
  8
0
 10
121.424857
 20
165.854585
 42
0.039124
  0
VERTEX
  8
0
 10
120.160227
 20
165.412500
 42
0.038604
  0
VERTEX
  8
0
 10
118.952441
 20
164.765679
 42
0.054191
  0
SEQEND
  0
POLYLINE
  8
0
 66
1
 70
1
  0
VERTEX
  8
0
 10
125.000000
 20
160.500000
 42
-0.045289
  0
VERTEX
  8
0
 10
125.569081
 20
159.672106
 42
-0.128626
  0
VERTEX
  8
0
 10
125.744889
 20
159.000000
 42
-0.128626
  0
VERTEX
  8
0
 10
125.569081
 20
158.327894
 42
-0.045289
  0
VERTEX
  8
0
 10
125.000000
 20
157.500000
 42
-0.143144
  0
VERTEX
  8
0
 10
123.114133
 20
156.227130
 42
-0.224530
  0
VERTEX
  8
0
 10
121.210228
 20
156.480638
 42
-0.211727
  0
VERTEX
  8
0
 10
120.120357
 20
158.146323
 42
-0.132903
  0
VERTEX
  8
0
 10
120.361626
 20
160.500000
 42
-0.074982
  0
VERTEX
  8
0
 10
120.686979
 20
161.073427
 42
-0.064538
  0
VERTEX
  8
0
 10
121.182023
 20
161.559375
 42
-0.066847
  0
VERTEX
  8
0
 10
121.764533
 20
161.888068
 42
-0.095347
  0
VERTEX
  8
0
 10
122.346170
 20
162.000000
 42
-0.085120
  0
VERTEX
  8
0
 10
122.975982
 20
161.891999
 42
-0.043726
  0
VERTEX
  8
0
 10
123.706921
 20
161.559375
 42
-0.041783
  0
VERTEX
  8
0
 10
124.419567
 20
161.073948
 42
-0.049186
  0
SEQEND
  0
POLYLINE
  8
0
 66
1
 70
1
  0
VERTEX
  8
0
 10
76.000000
 20
131.000000
 42
0.000000
  0
VERTEX
  8
0
 10
76.000000
 20
126.000000
 42
0.000000
  0
VERTEX
  8
0
 10
100.000000
 20
126.000000
 42
0.000000
  0
VERTEX
  8
0
 10
124.000000
 20
126.000000
 42
0.000000
  0
VERTEX
  8
0
 10
124.000000
 20
131.000000
 42
0.000000
  0
VERTEX
  8
0
 10
124.000000
 20
136.000000
 42
0.000000
  0
VERTEX
  8
0
 10
100.000000
 20
136.000000
 42
0.000000
  0
VERTEX
  8
0
 10
76.000000
 20
136.000000
 42
0.000000
  0
SEQEND
  0
POLYLINE
  8
0
 66
1
 70
1
  0
VERTEX
  8
0
 10
120.000000
 20
131.000000
 42
-0.395015
  0
VERTEX
  8
0
 10
119.571587
 20
130.542341
 42
-0.004008
  0
VERTEX
  8
0
 10
114.750000
 20
130.262500
 42
-0.008881
  0
VERTEX
  8
0
 10
108.506004
 20
130.061394
 42
-0.003609
  0
VERTEX
  8
0
 10
100.000000
 20
130.000000
 42
-0.003609
  0
VERTEX
  8
0
 10
91.493996
 20
130.061394
 42
-0.008881
  0
VERTEX
  8
0
 10
85.250000
 20
130.262500
 42
-0.004008
  0
VERTEX
  8
0
 10
80.428413
 20
130.542341
 42
-0.395015
  0
VERTEX
  8
0
 10
80.000000
 20
131.000000
 42
-0.395015
  0
VERTEX
  8
0
 10
80.428413
 20
131.457659
 42
-0.004008
  0
VERTEX
  8
0
 10
85.250000
 20
131.737500
 42
-0.008881
  0
VERTEX
  8
0
 10
91.493996
 20
131.938606
 42
-0.003609
  0
VERTEX
  8
0
 10
100.000000
 20
132.000000
 42
-0.003609
  0
VERTEX
  8
0
 10
108.506004
 20
131.938606
 42
-0.008881
  0
VERTEX
  8
0
 10
114.750000
 20
131.737500
 42
-0.004008
  0
VERTEX
  8
0
 10
119.571587
 20
131.457659
 42
-0.395015
  0
SEQEND
  0
POLYLINE
  8
0
 66
1
 70
1
  0
VERTEX
  8
0
 10
78.250000
 20
123.223186
 42
0.073395
  0
VERTEX
  8
0
 10
77.090406
 20
122.856621
 42
0.157390
  0
VERTEX
  8
0
 10
76.420999
 20
122.214081
 42
0.102392
  0
VERTEX
  8
0
 10
76.087887
 20
121.096097
 42
0.021381
  0
VERTEX
  8
0
 10
76.000000
 20
119.041740
 42
0.021303
  0
VERTEX
  8
0
 10
76.096555
 20
116.776515
 42
0.140413
  0
VERTEX
  8
0
 10
76.496579
 20
115.727146
 42
0.162623
  0
VERTEX
  8
0
 10
77.362285
 20
115.128287
 42
0.031267
  0
VERTEX
  8
0
 10
79.250000
 20
114.705688
 42
0.035138
  0
VERTEX
  8
0
 10
84.923477
 20
114.208126
 42
0.003481
  0
VERTEX
  8
0
 10
98.602998
 20
114.067671
 42
0.003883
  0
VERTEX
  8
0
 10
112.210515
 20
114.128363
 42
0.027997
  0
VERTEX
  8
0
 10
118.750000
 20
114.575093
 42
0.000000
  0
VERTEX
  8
0
 10
124.000000
 20
115.230447
 42
0.000000
  0
VERTEX
  8
0
 10
124.000000
 20
119.000000
 42
0.000000
  0
VERTEX
  8
0
 10
124.000000
 20
122.769553
 42
0.000000
  0
VERTEX
  8
0
 10
118.750000
 20
123.409990
 42
0.028677
  0
VERTEX
  8
0
 10
112.701617
 20
123.797919
 42
0.002831
  0
VERTEX
  8
0
 10
98.124935
 20
123.813219
 42
0.002463
  0
VERTEX
  8
0
 10
83.401399
 20
123.672779
 42
0.036312
  0
SEQEND
  0
POLYLINE
  8
0
 66
1
 70
1
  0
VERTEX
  8
0
 10
88.000000
 20
119.000000
 42
-0.295869
  0
VERTEX
  8
0
 10
87.748945
 20
118.612873
 42
-0.043820
  0
VERTEX
  8
0
 10
86.825000
 20
118.293750
 42
-0.037669
  0
VERTEX
  8
0
 10
85.532944
 20
118.072390
 42
-0.023598
  0
VERTEX
  8
0
 10
84.000000
 20
118.000000
 42
-0.023598
  0
VERTEX
  8
0
 10
82.467056
 20
118.072390
 42
-0.037669
  0
VERTEX
  8
0
 10
81.175000
 20
118.293750
 42
-0.043820
  0
VERTEX
  8
0
 10
80.251055
 20
118.612873
 42
-0.295869
  0
VERTEX
  8
0
 10
80.000000
 20
119.000000
 42
-0.295869
  0
VERTEX
  8
0
 10
80.251055
 20
119.387127
 42
-0.043820
  0
VERTEX
  8
0
 10
81.175000
 20
119.706250
 42
-0.037669
  0
VERTEX
  8
0
 10
82.467056
 20
119.927610
 42
-0.023598
  0
VERTEX
  8
0
 10
84.000000
 20
120.000000
 42
-0.023598
  0
VERTEX
  8
0
 10
85.532944
 20
119.927610
 42
-0.037669
  0
VERTEX
  8
0
 10
86.825000
 20
119.706250
 42
-0.043820
  0
VERTEX
  8
0
 10
87.748945
 20
119.387127
 42
-0.295869
  0
SEQEND
  0
POLYLINE
  8
0
 66
1
 70
1
  0
VERTEX
  8
0
 10
117.500000
 20
119.000000
 42
-0.226705
  0
VERTEX
  8
0
 10
116.869017
 20
118.594359
 42
-0.008824
  0
VERTEX
  8
0
 10
114.045664
 20
118.288742
 42
-0.013933
  0
VERTEX
  8
0
 10
110.553533
 20
118.070848
 42
-0.008613
  0
VERTEX
  8
0
 10
106.440983
 20
118.000000
 42
-0.007645
  0
VERTEX
  8
0
 10
102.164535
 20
118.065391
 42
-0.016228
  0
VERTEX
  8
0
 10
98.860246
 20
118.273944
 42
-0.011677
  0
VERTEX
  8
0
 10
96.371911
 20
118.571055
 42
-0.373154
  0
VERTEX
  8
0
 10
96.000000
 20
119.000000
 42
-0.375776
  0
VERTEX
  8
0
 10
96.378007
 20
119.431945
 42
-0.010704
  0
VERTEX
  8
0
 10
99.014754
 20
119.727394
 42
-0.015411
  0
VERTEX
  8
0
 10
102.509359
 20
119.935074
 42
-0.007135
  0
VERTEX
  8
0
 10
107.059017
 20
120.000000
 42
-0.006258
  0
VERTEX
  8
0
 10
111.793150
 20
119.940747
 42
-0.017615
  0
VERTEX
  8
0
 10
115.097943
 20
119.741365
 42
-0.019060
  0
VERTEX
  8
0
 10
117.299598
 20
119.445459
 42
-0.531031
  0
SEQEND
  0
POLYLINE
  8
0
 66
1
 70
1
  0
VERTEX
  8
0
 10
79.250000
 20
111.297009
 42
0.030666
  0
VERTEX
  8
0
 10
77.349711
 20
110.929655
 42
0.167831
  0
VERTEX
  8
0
 10
76.490338
 20
110.360662
 42
0.143753
  0
VERTEX
  8
0
 10
76.093878
 20
109.331941
 42
0.020578
  0
VERTEX
  8
0
 10
76.000000
 20
107.051865
 42
0.000000
  0
VERTEX
  8
0
 10
76.000000
 20
103.230447
 42
0.000000
  0
VERTEX
  8
0
 10
81.250000
 20
102.575093
 42
0.027997
  0
VERTEX
  8
0
 10
87.789485
 20
102.128363
 42
0.003883
  0
VERTEX
  8
0
 10
101.397002
 20
102.067671
 42
0.003481
  0
VERTEX
  8
0
 10
115.076523
 20
102.208126
 42
0.035138
  0
VERTEX
  8
0
 10
120.750000
 20
102.705688
 42
0.031174
  0
VERTEX
  8
0
 10
122.633822
 20
103.127047
 42
0.161526
  0
VERTEX
  8
0
 10
123.500697
 20
103.723502
 42
0.141030
  0
VERTEX
  8
0
 10
123.902292
 20
104.766209
 42
0.021860
  0
VERTEX
  8
0
 10
124.000000
 20
107.000000
 42
0.021908
  0
VERTEX
  8
0
 10
123.902113
 20
109.232927
 42
0.140800
  0
VERTEX
  8
0
 10
123.500279
 20
110.277049
 42
0.161182
  0
VERTEX
  8
0
 10
122.632990
 20
110.875550
 42
0.031212
  0
VERTEX
  8
0
 10
120.750000
 20
111.300619
 42
0.038014
  0
VERTEX
  8
0
 10
115.965721
 20
111.701637
 42
0.001930
  0
VERTEX
  8
0
 10
100.338645
 20
111.760602
 42
0.002252
  0
VERTEX
  8
0
 10
84.902139
 20
111.689732
 42
0.030147
  0
SEQEND
  0
POLYLINE
  8
0
 66
1
 70
1
  0
VERTEX
  8
0
 10
104.000000
 20
107.000000
 42
-0.373154
  0
VERTEX
  8
0
 10
103.628089
 20
106.571055
 42
-0.011677
  0
VERTEX
  8
0
 10
101.139754
 20
106.273944
 42
-0.016228
  0
VERTEX
  8
0
 10
97.835465
 20
106.065391
 42
-0.007645
  0
VERTEX
  8
0
 10
93.559017
 20
106.000000
 42
-0.008613
  0
VERTEX
  8
0
 10
89.446467
 20
106.070848
 42
-0.013933
  0
VERTEX
  8
0
 10
85.954336
 20
106.288742
 42
-0.008824
  0
VERTEX
  8
0
 10
83.130983
 20
106.594359
 42
-0.226705
  0
VERTEX
  8
0
 10
82.500000
 20
107.000000
 42
-0.531031
  0
VERTEX
  8
0
 10
82.700402
 20
107.445459
 42
-0.019060
  0
VERTEX
  8
0
 10
84.902057
 20
107.741365
 42
-0.017615
  0
VERTEX
  8
0
 10
88.206850
 20
107.940747
 42
-0.006258
  0
VERTEX
  8
0
 10
92.940983
 20
108.000000
 42
-0.007135
  0
VERTEX
  8
0
 10
97.490641
 20
107.935074
 42
-0.015411
  0
VERTEX
  8
0
 10
100.985246
 20
107.727394
 42
-0.010704
  0
VERTEX
  8
0
 10
103.621993
 20
107.431945
 42
-0.375776
  0
SEQEND
  0
POLYLINE
  8
0
 66
1
 70
1
  0
VERTEX
  8
0
 10
120.000000
 20
107.000000
 42
-0.295869
  0
VERTEX
  8
0
 10
119.748945
 20
106.612873
 42
-0.043820
  0
VERTEX
  8
0
 10
118.825000
 20
106.293750
 42
-0.037669
  0
VERTEX
  8
0
 10
117.532944
 20
106.072390
 42
-0.023598
  0
VERTEX
  8
0
 10
116.000000
 20
106.000000
 42
-0.023598
  0
VERTEX
  8
0
 10
114.467056
 20
106.072390
 42
-0.037669
  0
VERTEX
  8
0
 10
113.175000
 20
106.293750
 42
-0.043820
  0
VERTEX
  8
0
 10
112.251055
 20
106.612873
 42
-0.295869
  0
VERTEX
  8
0
 10
112.000000
 20
107.000000
 42
-0.295869
  0
VERTEX
  8
0
 10
112.251055
 20
107.387127
 42
-0.043820
  0
VERTEX
  8
0
 10
113.175000
 20
107.706250
 42
-0.037669
  0
VERTEX
  8
0
 10
114.467056
 20
107.927610
 42
-0.023598
  0
VERTEX
  8
0
 10
116.000000
 20
108.000000
 42
-0.023598
  0
VERTEX
  8
0
 10
117.532944
 20
107.927610
 42
-0.037669
  0
VERTEX
  8
0
 10
118.825000
 20
107.706250
 42
-0.043820
  0
VERTEX
  8
0
 10
119.748945
 20
107.387127
 42
-0.295869
  0
SEQEND
  0
POLYLINE
  8
0
 66
1
 70
1
  0
VERTEX
  8
0
 10
92.000000
 20
87.000000
 42
0.000000
  0
VERTEX
  8
0
 10
92.000000
 20
74.000000
 42
0.000000
  0
VERTEX
  8
0
 10
100.000000
 20
74.000000
 42
0.000000
  0
VERTEX
  8
0
 10
108.000000
 20
74.000000
 42
0.000000
  0
VERTEX
  8
0
 10
108.000000
 20
87.000000
 42
0.000000
  0
VERTEX
  8
0
 10
108.000000
 20
100.000000
 42
0.000000
  0
VERTEX
  8
0
 10
100.000000
 20
100.000000
 42
0.000000
  0
VERTEX
  8
0
 10
92.000000
 20
100.000000
 42
0.000000
  0
SEQEND
  0
POLYLINE
  8
0
 66
1
 70
1
  0
VERTEX
  8
0
 10
104.000000
 20
87.000000
 42
0.000000
  0
VERTEX
  8
0
 10
104.000000
 20
78.000000
 42
0.000000
  0
VERTEX
  8
0
 10
100.000000
 20
78.000000
 42
0.000000
  0
VERTEX
  8
0
 10
96.000000
 20
78.000000
 42
0.000000
  0
VERTEX
  8
0
 10
96.000000
 20
87.000000
 42
0.000000
  0
VERTEX
  8
0
 10
96.000000
 20
96.000000
 42
0.000000
  0
VERTEX
  8
0
 10
100.000000
 20
96.000000
 42
0.000000
  0
VERTEX
  8
0
 10
104.000000
 20
96.000000
 42
0.000000
  0
SEQEND
  0
POLYLINE
  8
0
 66
1
 70
1
  0
VERTEX
  8
0
 10
66.000000
 20
94.000000
 42
0.104131
  0
VERTEX
  8
0
 10
66.238868
 20
92.865474
 42
0.216387
  0
VERTEX
  8
0
 10
66.898880
 20
92.275332
 42
0.081138
  0
VERTEX
  8
0
 10
68.305533
 20
92.075031
 42
0.007909
  0
VERTEX
  8
0
 10
71.750000
 20
92.200096
 42
0.012470
  0
VERTEX
  8
0
 10
74.559933
 20
92.417030
 42
0.050386
  0
VERTEX
  8
0
 10
76.241683
 20
92.762626
 42
0.101747
  0
VERTEX
  8
0
 10
77.166932
 20
93.275519
 42
0.218857
  0
VERTEX
  8
0
 10
77.500000
 20
94.000000
 42
0.218857
  0
VERTEX
  8
0
 10
77.166932
 20
94.724481
 42
0.101747
  0
VERTEX
  8
0
 10
76.241683
 20
95.237374
 42
0.050386
  0
VERTEX
  8
0
 10
74.559933
 20
95.582970
 42
0.012470
  0
VERTEX
  8
0
 10
71.750000
 20
95.799904
 42
0.007909
  0
VERTEX
  8
0
 10
68.305533
 20
95.924969
 42
0.081138
  0
VERTEX
  8
0
 10
66.898880
 20
95.724668
 42
0.216387
  0
VERTEX
  8
0
 10
66.238868
 20
95.134526
 42
0.104131
  0
SEQEND
  0
POLYLINE
  8
0
 66
1
 70
1
  0
VERTEX
  8
0
 10
66.000000
 20
88.000000
 42
0.104131
  0
VERTEX
  8
0
 10
66.238868
 20
86.865474
 42
0.216387
  0
VERTEX
  8
0
 10
66.898880
 20
86.275332
 42
0.081138
  0
VERTEX
  8
0
 10
68.305533
 20
86.075031
 42
0.007909
  0
VERTEX
  8
0
 10
71.750000
 20
86.200096
 42
0.012470
  0
VERTEX
  8
0
 10
74.559933
 20
86.417030
 42
0.050386
  0
VERTEX
  8
0
 10
76.241683
 20
86.762626
 42
0.101747
  0
VERTEX
  8
0
 10
77.166932
 20
87.275519
 42
0.218857
  0
VERTEX
  8
0
 10
77.500000
 20
88.000000
 42
0.218857
  0
VERTEX
  8
0
 10
77.166932
 20
88.724481
 42
0.101747
  0
VERTEX
  8
0
 10
76.241683
 20
89.237374
 42
0.050386
  0
VERTEX
  8
0
 10
74.559933
 20
89.582970
 42
0.012470
  0
VERTEX
  8
0
 10
71.750000
 20
89.799904
 42
0.007909
  0
VERTEX
  8
0
 10
68.305533
 20
89.924969
 42
0.081138
  0
VERTEX
  8
0
 10
66.898880
 20
89.724668
 42
0.216387
  0
VERTEX
  8
0
 10
66.238868
 20
89.134526
 42
0.104131
  0
SEQEND
  0
POLYLINE
  8
0
 66
1
 70
1
  0
VERTEX
  8
0
 10
66.000000
 20
82.000000
 42
0.104131
  0
VERTEX
  8
0
 10
66.238868
 20
80.865474
 42
0.216387
  0
VERTEX
  8
0
 10
66.898880
 20
80.275332
 42
0.081138
  0
VERTEX
  8
0
 10
68.305533
 20
80.075031
 42
0.007909
  0
VERTEX
  8
0
 10
71.750000
 20
80.200096
 42
0.012470
  0
VERTEX
  8
0
 10
74.559933
 20
80.417030
 42
0.050386
  0
VERTEX
  8
0
 10
76.241683
 20
80.762626
 42
0.101747
  0
VERTEX
  8
0
 10
77.166932
 20
81.275519
 42
0.218857
  0
VERTEX
  8
0
 10
77.500000
 20
82.000000
 42
0.218857
  0
VERTEX
  8
0
 10
77.166932
 20
82.724481
 42
0.101747
  0
VERTEX
  8
0
 10
76.241683
 20
83.237374
 42
0.050386
  0
VERTEX
  8
0
 10
74.559933
 20
83.582970
 42
0.012470
  0
VERTEX
  8
0
 10
71.750000
 20
83.799904
 42
0.007909
  0
VERTEX
  8
0
 10
68.305533
 20
83.924969
 42
0.081138
  0
VERTEX
  8
0
 10
66.898880
 20
83.724668
 42
0.216387
  0
VERTEX
  8
0
 10
66.238868
 20
83.134526
 42
0.104131
  0
SEQEND
  0
POLYLINE
  8
0
 66
1
 70
1
  0
VERTEX
  8
0
 10
66.000000
 20
76.000000
 42
0.104131
  0
VERTEX
  8
0
 10
66.238868
 20
74.865474
 42
0.216387
  0
VERTEX
  8
0
 10
66.898880
 20
74.275332
 42
0.081138
  0
VERTEX
  8
0
 10
68.305533
 20
74.075031
 42
0.007909
  0
VERTEX
  8
0
 10
71.750000
 20
74.200096
 42
0.012470
  0
VERTEX
  8
0
 10
74.559933
 20
74.417030
 42
0.050386
  0
VERTEX
  8
0
 10
76.241683
 20
74.762626
 42
0.101747
  0
VERTEX
  8
0
 10
77.166932
 20
75.275519
 42
0.218857
  0
VERTEX
  8
0
 10
77.500000
 20
76.000000
 42
0.218857
  0
VERTEX
  8
0
 10
77.166932
 20
76.724481
 42
0.101747
  0
VERTEX
  8
0
 10
76.241683
 20
77.237374
 42
0.050386
  0
VERTEX
  8
0
 10
74.559933
 20
77.582970
 42
0.012470
  0
VERTEX
  8
0
 10
71.750000
 20
77.799904
 42
0.007909
  0
VERTEX
  8
0
 10
68.305533
 20
77.924969
 42
0.081138
  0
VERTEX
  8
0
 10
66.898880
 20
77.724668
 42
0.216387
  0
VERTEX
  8
0
 10
66.238868
 20
77.134526
 42
0.104131
  0
SEQEND
  0
POLYLINE
  8
0
 66
1
 70
1
  0
VERTEX
  8
0
 10
94.454545
 20
69.545455
 42
0.045205
  0
VERTEX
  8
0
 10
93.423540
 20
68.309031
 42
0.047034
  0
VERTEX
  8
0
 10
92.647059
 20
66.923153
 42
0.048581
  0
VERTEX
  8
0
 10
92.163281
 20
65.461429
 42
0.055690
  0
VERTEX
  8
0
 10
92.000000
 20
64.000000
 42
0.055690
  0
VERTEX
  8
0
 10
92.163281
 20
62.538571
 42
0.048581
  0
VERTEX
  8
0
 10
92.647059
 20
61.076847
 42
0.047034
  0
VERTEX
  8
0
 10
93.423540
 20
59.690969
 42
0.045205
  0
VERTEX
  8
0
 10
94.454545
 20
58.454545
 42
0.148917
  0
VERTEX
  8
0
 10
98.500042
 20
56.298089
 42
0.146703
  0
VERTEX
  8
0
 10
103.087345
 20
56.745623
 42
0.147321
  0
VERTEX
  8
0
 10
106.658027
 20
59.639701
 42
0.150404
  0
VERTEX
  8
0
 10
108.000000
 20
64.000000
 42
0.055690
  0
VERTEX
  8
0
 10
107.836719
 20
65.461429
 42
0.048581
  0
VERTEX
  8
0
 10
107.352941
 20
66.923153
 42
0.047034
  0
VERTEX
  8
0
 10
106.576460
 20
68.309031
 42
0.045205
  0
VERTEX
  8
0
 10
105.545455
 20
69.545455
 42
0.045205
  0
VERTEX
  8
0
 10
104.309031
 20
70.576460
 42
0.047034
  0
VERTEX
  8
0
 10
102.923153
 20
71.352941
 42
0.048581
  0
VERTEX
  8
0
 10
101.461429
 20
71.836719
 42
0.055690
  0
VERTEX
  8
0
 10
100.000000
 20
72.000000
 42
0.055690
  0
VERTEX
  8
0
 10
98.538571
 20
71.836719
 42
0.048581
  0
VERTEX
  8
0
 10
97.076847
 20
71.352941
 42
0.047034
  0
VERTEX
  8
0
 10
95.690969
 20
70.576460
 42
0.045205
  0
SEQEND
  0
POLYLINE
  8
0
 66
1
 70
1
  0
VERTEX
  8
0
 10
102.960131
 20
66.548039
 42
-0.180595
  0
VERTEX
  8
0
 10
103.815034
 20
64.095328
 42
-0.163644
  0
VERTEX
  8
0
 10
102.900573
 20
61.561594
 42
-0.172911
  0
VERTEX
  8
0
 10
100.692155
 20
60.184453
 42
-0.196771
  0
VERTEX
  8
0
 10
98.250000
 20
60.612298
 42
-0.151460
  0
VERTEX
  8
0
 10
96.556775
 20
62.589630
 42
-0.161407
  0
VERTEX
  8
0
 10
96.334566
 20
65.123804
 42
-0.170250
  0
VERTEX
  8
0
 10
97.661135
 20
67.194079
 42
-0.167457
  0
VERTEX
  8
0
 10
100.000000
 20
68.000000
 42
-0.069560
  0
VERTEX
  8
0
 10
100.760253
 20
67.893720
 42
-0.044587
  0
VERTEX
  8
0
 10
101.593522
 20
67.573487
 42
-0.044100
  0
VERTEX
  8
0
 10
102.369757
 20
67.103782
 42
-0.061518
  0
SEQEND
  0
POLYLINE
  8
0
 66
1
 70
1
  0
VERTEX
  8
0
 10
133.556704
 20
69.777494
 42
0.124956
  0
VERTEX
  8
0
 10
132.009832
 20
65.697481
 42
0.100921
  0
VERTEX
  8
0
 10
132.420117
 20
61.014769
 42
0.116522
  0
VERTEX
  8
0
 10
134.517220
 20
57.356786
 42
0.207464
  0
VERTEX
  8
0
 10
137.646411
 20
56.000000
 42
0.129200
  0
VERTEX
  8
0
 10
140.015892
 20
56.622666
 42
0.098005
  0
VERTEX
  8
0
 10
142.063105
 20
58.379948
 42
0.087853
  0
VERTEX
  8
0
 10
143.453101
 20
60.980808
 42
0.079054
  0
VERTEX
  8
0
 10
143.933461
 20
64.000000
 42
0.118053
  0
VERTEX
  8
0
 10
142.892709
 20
68.346544
 42
0.149277
  0
VERTEX
  8
0
 10
140.040564
 20
71.309154
 42
0.187813
  0
VERTEX
  8
0
 10
136.521219
 20
71.793369
 42
0.183316
  0
SEQEND
  0
POLYLINE
  8
0
 66
1
 70
1
  0
VERTEX
  8
0
 10
139.500000
 20
66.000000
 42
-0.081191
  0
VERTEX
  8
0
 10
139.789646
 20
64.020675
 42
-0.073468
  0
VERTEX
  8
0
 10
139.452986
 20
61.978643
 42
-0.098066
  0
VERTEX
  8
0
 10
138.665799
 20
60.556607
 42
-0.305941
  0
VERTEX
  8
0
 10
137.665141
 20
60.273281
 42
-0.130940
  0
VERTEX
  8
0
 10
137.194639
 20
60.580382
 42
-0.053824
  0
VERTEX
  8
0
 10
136.745593
 20
61.203331
 42
-0.048307
  0
VERTEX
  8
0
 10
136.383078
 20
62.014030
 42
-0.044622
  0
VERTEX
  8
0
 10
136.170919
 20
62.901054
 42
-0.069797
  0
VERTEX
  8
0
 10
136.152920
 20
65.795187
 42
-0.173726
  0
VERTEX
  8
0
 10
137.111283
 20
67.648836
 42
-0.383502
  0
VERTEX
  8
0
 10
138.401692
 20
67.671039
 42
-0.137930
  0
SEQEND
  0
POLYLINE
  8
0
 66
1
 70
1
  0
VERTEX
  8
0
 10
48.197607
 20
29.333414
 42
0.012197
  0
VERTEX
  8
0
 10
48.415699
 20
26.476308
 42
0.049815
  0
VERTEX
  8
0
 10
48.761273
 20
24.772634
 42
0.101084
  0
VERTEX
  8
0
 10
49.274085
 20
23.836511
 42
0.220513
  0
VERTEX
  8
0
 10
50.000000
 20
23.500000
 42
0.211144
  0
VERTEX
  8
0
 10
50.715326
 20
23.816169
 42
0.118439
  0
VERTEX
  8
0
 10
51.181648
 20
24.664384
 42
0.054610
  0
VERTEX
  8
0
 10
51.433318
 20
26.246255
 42
0.012166
  0
VERTEX
  8
0
 10
51.500000
 20
28.986305
 42
0.012068
  0
VERTEX
  8
0
 10
51.429641
 20
31.901022
 42
0.062934
  0
VERTEX
  8
0
 10
51.152051
 20
33.480498
 42
0.130921
  0
VERTEX
  8
0
 10
50.600004
 20
34.360961
 42
0.140960
  0
VERTEX
  8
0
 10
49.697607
 20
34.819719
 42
0.148001
  0
VERTEX
  8
0
 10
48.768906
 20
34.723146
 42
0.230567
  0
VERTEX
  8
0
 10
48.248382
 20
34.129782
 42
0.072297
  0
VERTEX
  8
0
 10
48.073356
 20
32.708654
 42
0.007498
  0
SEQEND
  0
POLYLINE
  8
0
 66
1
 70
1
  0
VERTEX
  8
0
 10
148.197607
 20
29.333414
 42
0.012197
  0
VERTEX
  8
0
 10
148.415699
 20
26.476308
 42
0.049815
  0
VERTEX
  8
0
 10
148.761273
 20
24.772634
 42
0.101084
  0
VERTEX
  8
0
 10
149.274085
 20
23.836511
 42
0.220513
  0
VERTEX
  8
0
 10
150.000000
 20
23.500000
 42
0.211144
  0
VERTEX
  8
0
 10
150.715326
 20
23.816169
 42
0.118439
  0
VERTEX
  8
0
 10
151.181648
 20
24.664384
 42
0.054610
  0
VERTEX
  8
0
 10
151.433318
 20
26.246255
 42
0.012166
  0
VERTEX
  8
0
 10
151.500000
 20
28.986305
 42
0.012068
  0
VERTEX
  8
0
 10
151.429641
 20
31.901022
 42
0.062934
  0
VERTEX
  8
0
 10
151.152051
 20
33.480498
 42
0.130921
  0
VERTEX
  8
0
 10
150.600004
 20
34.360961
 42
0.140960
  0
VERTEX
  8
0
 10
149.697607
 20
34.819719
 42
0.148001
  0
VERTEX
  8
0
 10
148.768906
 20
34.723146
 42
0.230567
  0
VERTEX
  8
0
 10
148.248382
 20
34.129782
 42
0.072297
  0
VERTEX
  8
0
 10
148.073356
 20
32.708654
 42
0.007498
  0
SEQEND
  0
POLYLINE
  8
0
 66
1
 70
1
  0
VERTEX
  8
0
 10
96.000000
 20
174.000000
 42
0.043841
  0
VERTEX
  8
0
 10
95.234602
 20
173.087166
 42
0.036641
  0
VERTEX
  8
0
 10
94.587500
 20
172.000000
 42
0.038133
  0
VERTEX
  8
0
 10
94.142753
 20
170.910044
 42
0.077955
  0
VERTEX
  8
0
 10
94.000000
 20
170.000000
 42
0.077955
  0
VERTEX
  8
0
 10
94.142753
 20
169.089956
 42
0.038133
  0
VERTEX
  8
0
 10
94.587500
 20
168.000000
 42
0.036641
  0
VERTEX
  8
0
 10
95.234602
 20
166.912834
 42
0.043841
  0
VERTEX
  8
0
 10
96.000000
 20
166.000000
 42
0.043841
  0
VERTEX
  8
0
 10
96.912834
 20
165.234602
 42
0.036641
  0
VERTEX
  8
0
 10
98.000000
 20
164.587500
 42
0.038133
  0
VERTEX
  8
0
 10
99.089956
 20
164.142753
 42
0.077955
  0
VERTEX
  8
0
 10
100.000000
 20
164.000000
 42
0.077955
  0
VERTEX
  8
0
 10
100.910044
 20
164.142753
 42
0.038133
  0
VERTEX
  8
0
 10
102.000000
 20
164.587500
 42
0.036641
  0
VERTEX
  8
0
 10
103.087166
 20
165.234602
 42
0.043841
  0
VERTEX
  8
0
 10
104.000000
 20
166.000000
 42
0.043841
  0
VERTEX
  8
0
 10
104.765398
 20
166.912834
 42
0.036641
  0
VERTEX
  8
0
 10
105.412500
 20
168.000000
 42
0.038133
  0
VERTEX
  8
0
 10
105.857247
 20
169.089956
 42
0.077955
  0
VERTEX
  8
0
 10
106.000000
 20
170.000000
 42
0.077955
  0
VERTEX
  8
0
 10
105.857247
 20
170.910044
 42
0.038133
  0
VERTEX
  8
0
 10
105.412500
 20
172.000000
 42
0.036641
  0
VERTEX
  8
0
 10
104.765398
 20
173.087166
 42
0.043841
  0
VERTEX
  8
0
 10
104.000000
 20
174.000000
 42
0.043841
  0
VERTEX
  8
0
 10
103.087166
 20
174.765398
 42
0.036641
  0
VERTEX
  8
0
 10
102.000000
 20
175.412500
 42
0.038133
  0
VERTEX
  8
0
 10
100.910044
 20
175.857247
 42
0.077955
  0
VERTEX
  8
0
 10
100.000000
 20
176.000000
 42
0.077955
  0
VERTEX
  8
0
 10
99.089956
 20
175.857247
 42
0.038133
  0
VERTEX
  8
0
 10
98.000000
 20
175.412500
 42
0.036641
  0
VERTEX
  8
0
 10
96.912834
 20
174.765398
 42
0.043841
  0
SEQEND
  0
POLYLINE
  8
0
 66
1
 70
1
  0
VERTEX
  8
0
 10
101.553851
 20
170.912868
 42
-0.190717
  0
VERTEX
  8
0
 10
101.763962
 20
169.735958
 42
-0.171854
  0
VERTEX
  8
0
 10
101.124253
 20
168.670270
 42
-0.175934
  0
VERTEX
  8
0
 10
99.969950
 20
168.260019
 42
-0.197141
  0
VERTEX
  8
0
 10
98.887132
 20
168.712868
 42
-0.144911
  0
VERTEX
  8
0
 10
98.366354
 20
169.671654
 42
-0.134859
  0
VERTEX
  8
0
 10
98.431624
 20
170.789156
 42
-0.143758
  0
VERTEX
  8
0
 10
99.047584
 20
171.666716
 42
-0.169916
  0
VERTEX
  8
0
 10
100.000000
 20
172.000000
 42
-0.100929
  0
VERTEX
  8
0
 10
100.386686
 20
171.921141
 42
-0.052079
  0
VERTEX
  8
0
 10
100.820255
 20
171.680655
 42
-0.048757
  0
VERTEX
  8
0
 10
101.231435
 20
171.328718
 42
-0.053016
  0
SEQEND
  0
ENDSEC
  0
EOF
