%TF.GenerationSoftware,KiCad,Pcbnew,(5.1.7)-1*%
%TF.CreationDate,2021-01-30T20:15:53-05:00*%
%TF.ProjectId,STM32F4_Eval,53544d33-3246-4345-9f45-76616c2e6b69,rev?*%
%TF.SameCoordinates,Original*%
%TF.FileFunction,Soldermask,Top*%
%TF.FilePolarity,Negative*%
%FSLAX46Y46*%
G04 Gerber Fmt 4.6, Leading zero omitted, Abs format (unit mm)*
G04 Created by KiCad (PCBNEW (5.1.7)-1) date 2021-01-30 20:15:53*
%MOMM*%
%LPD*%
G01*
G04 APERTURE LIST*
%ADD10R,1.060000X0.650000*%
%ADD11R,1.900000X1.500000*%
%ADD12C,1.450000*%
%ADD13R,1.350000X0.400000*%
%ADD14O,1.900000X1.200000*%
%ADD15R,1.900000X1.200000*%
%ADD16R,1.200000X0.900000*%
%ADD17C,8.600000*%
%ADD18C,0.900000*%
%ADD19C,2.400000*%
%ADD20R,2.400000X2.400000*%
%ADD21R,2.500000X1.900000*%
%ADD22R,0.800000X0.900000*%
%ADD23R,1.200000X1.400000*%
%ADD24C,0.100000*%
%ADD25R,1.500000X0.700000*%
%ADD26R,0.800000X1.000000*%
%ADD27R,2.600000X2.600000*%
%ADD28C,2.600000*%
%ADD29R,0.740000X2.400000*%
G04 APERTURE END LIST*
D10*
%TO.C,U2*%
X154140000Y-110740000D03*
X154140000Y-111690000D03*
X154140000Y-112640000D03*
X156340000Y-112640000D03*
X156340000Y-110740000D03*
X156340000Y-111690000D03*
%TD*%
%TO.C,C14*%
G36*
G01*
X155910000Y-109470000D02*
X155910000Y-109130000D01*
G75*
G02*
X156050000Y-108990000I140000J0D01*
G01*
X156330000Y-108990000D01*
G75*
G02*
X156470000Y-109130000I0J-140000D01*
G01*
X156470000Y-109470000D01*
G75*
G02*
X156330000Y-109610000I-140000J0D01*
G01*
X156050000Y-109610000D01*
G75*
G02*
X155910000Y-109470000I0J140000D01*
G01*
G37*
G36*
G01*
X154950000Y-109470000D02*
X154950000Y-109130000D01*
G75*
G02*
X155090000Y-108990000I140000J0D01*
G01*
X155370000Y-108990000D01*
G75*
G02*
X155510000Y-109130000I0J-140000D01*
G01*
X155510000Y-109470000D01*
G75*
G02*
X155370000Y-109610000I-140000J0D01*
G01*
X155090000Y-109610000D01*
G75*
G02*
X154950000Y-109470000I0J140000D01*
G01*
G37*
%TD*%
D11*
%TO.C,J2*%
X174487500Y-91500000D03*
D12*
X171787500Y-95000000D03*
D13*
X171787500Y-93150000D03*
X171787500Y-93800000D03*
X171787500Y-91200000D03*
X171787500Y-91850000D03*
X171787500Y-92500000D03*
D12*
X171787500Y-90000000D03*
D11*
X174487500Y-93500000D03*
D14*
X174487500Y-96000000D03*
X174487500Y-89000000D03*
D15*
X174487500Y-89600000D03*
X174487500Y-95400000D03*
%TD*%
%TO.C,R1*%
G36*
G01*
X109680000Y-88925000D02*
X109680000Y-88555000D01*
G75*
G02*
X109815000Y-88420000I135000J0D01*
G01*
X110085000Y-88420000D01*
G75*
G02*
X110220000Y-88555000I0J-135000D01*
G01*
X110220000Y-88925000D01*
G75*
G02*
X110085000Y-89060000I-135000J0D01*
G01*
X109815000Y-89060000D01*
G75*
G02*
X109680000Y-88925000I0J135000D01*
G01*
G37*
G36*
G01*
X108660000Y-88925000D02*
X108660000Y-88555000D01*
G75*
G02*
X108795000Y-88420000I135000J0D01*
G01*
X109065000Y-88420000D01*
G75*
G02*
X109200000Y-88555000I0J-135000D01*
G01*
X109200000Y-88925000D01*
G75*
G02*
X109065000Y-89060000I-135000J0D01*
G01*
X108795000Y-89060000D01*
G75*
G02*
X108660000Y-88925000I0J135000D01*
G01*
G37*
%TD*%
%TO.C,D2*%
G36*
G01*
X159162500Y-73956250D02*
X159162500Y-73443750D01*
G75*
G02*
X159381250Y-73225000I218750J0D01*
G01*
X159818750Y-73225000D01*
G75*
G02*
X160037500Y-73443750I0J-218750D01*
G01*
X160037500Y-73956250D01*
G75*
G02*
X159818750Y-74175000I-218750J0D01*
G01*
X159381250Y-74175000D01*
G75*
G02*
X159162500Y-73956250I0J218750D01*
G01*
G37*
G36*
G01*
X160737500Y-73956250D02*
X160737500Y-73443750D01*
G75*
G02*
X160956250Y-73225000I218750J0D01*
G01*
X161393750Y-73225000D01*
G75*
G02*
X161612500Y-73443750I0J-218750D01*
G01*
X161612500Y-73956250D01*
G75*
G02*
X161393750Y-74175000I-218750J0D01*
G01*
X160956250Y-74175000D01*
G75*
G02*
X160737500Y-73956250I0J218750D01*
G01*
G37*
%TD*%
%TO.C,L1*%
G36*
G01*
X115665000Y-103572500D02*
X115665000Y-103227500D01*
G75*
G02*
X115812500Y-103080000I147500J0D01*
G01*
X116107500Y-103080000D01*
G75*
G02*
X116255000Y-103227500I0J-147500D01*
G01*
X116255000Y-103572500D01*
G75*
G02*
X116107500Y-103720000I-147500J0D01*
G01*
X115812500Y-103720000D01*
G75*
G02*
X115665000Y-103572500I0J147500D01*
G01*
G37*
G36*
G01*
X116635000Y-103572500D02*
X116635000Y-103227500D01*
G75*
G02*
X116782500Y-103080000I147500J0D01*
G01*
X117077500Y-103080000D01*
G75*
G02*
X117225000Y-103227500I0J-147500D01*
G01*
X117225000Y-103572500D01*
G75*
G02*
X117077500Y-103720000I-147500J0D01*
G01*
X116782500Y-103720000D01*
G75*
G02*
X116635000Y-103572500I0J147500D01*
G01*
G37*
%TD*%
D16*
%TO.C,D3*%
X169150000Y-99150000D03*
X169150000Y-95850000D03*
%TD*%
D17*
%TO.C,H2*%
X106250000Y-121250000D03*
D18*
X109475000Y-121250000D03*
X108530419Y-123530419D03*
X106250000Y-124475000D03*
X103969581Y-123530419D03*
X103025000Y-121250000D03*
X103969581Y-118969581D03*
X106250000Y-118025000D03*
X108530419Y-118969581D03*
%TD*%
D19*
%TO.C,J1*%
X170800000Y-106900000D03*
D20*
X170800000Y-110400000D03*
%TD*%
D21*
%TO.C,L2*%
X149760000Y-112270000D03*
X149760000Y-116370000D03*
%TD*%
D22*
%TO.C,Q1*%
X165230000Y-110190000D03*
X164280000Y-108190000D03*
X166180000Y-108190000D03*
%TD*%
D18*
%TO.C,H3*%
X173280419Y-118969581D03*
X171000000Y-118025000D03*
X168719581Y-118969581D03*
X167775000Y-121250000D03*
X168719581Y-123530419D03*
X171000000Y-124475000D03*
X173280419Y-123530419D03*
X174225000Y-121250000D03*
D17*
X171000000Y-121250000D03*
%TD*%
D18*
%TO.C,H1*%
X108530419Y-73469581D03*
X106250000Y-72525000D03*
X103969581Y-73469581D03*
X103025000Y-75750000D03*
X103969581Y-78030419D03*
X106250000Y-78975000D03*
X108530419Y-78030419D03*
X109475000Y-75750000D03*
D17*
X106250000Y-75750000D03*
%TD*%
%TO.C,H4*%
X170750000Y-75750000D03*
D18*
X173975000Y-75750000D03*
X173030419Y-78030419D03*
X170750000Y-78975000D03*
X168469581Y-78030419D03*
X167525000Y-75750000D03*
X168469581Y-73469581D03*
X170750000Y-72525000D03*
X173030419Y-73469581D03*
%TD*%
%TO.C,F1*%
G36*
G01*
X160875000Y-104765000D02*
X162125000Y-104765000D01*
G75*
G02*
X162375000Y-105015000I0J-250000D01*
G01*
X162375000Y-105765000D01*
G75*
G02*
X162125000Y-106015000I-250000J0D01*
G01*
X160875000Y-106015000D01*
G75*
G02*
X160625000Y-105765000I0J250000D01*
G01*
X160625000Y-105015000D01*
G75*
G02*
X160875000Y-104765000I250000J0D01*
G01*
G37*
G36*
G01*
X160875000Y-107565000D02*
X162125000Y-107565000D01*
G75*
G02*
X162375000Y-107815000I0J-250000D01*
G01*
X162375000Y-108565000D01*
G75*
G02*
X162125000Y-108815000I-250000J0D01*
G01*
X160875000Y-108815000D01*
G75*
G02*
X160625000Y-108565000I0J250000D01*
G01*
X160625000Y-107815000D01*
G75*
G02*
X160875000Y-107565000I250000J0D01*
G01*
G37*
%TD*%
%TO.C,C1*%
G36*
G01*
X120725000Y-91925000D02*
X120725000Y-92425000D01*
G75*
G02*
X120500000Y-92650000I-225000J0D01*
G01*
X120050000Y-92650000D01*
G75*
G02*
X119825000Y-92425000I0J225000D01*
G01*
X119825000Y-91925000D01*
G75*
G02*
X120050000Y-91700000I225000J0D01*
G01*
X120500000Y-91700000D01*
G75*
G02*
X120725000Y-91925000I0J-225000D01*
G01*
G37*
G36*
G01*
X119175000Y-91925000D02*
X119175000Y-92425000D01*
G75*
G02*
X118950000Y-92650000I-225000J0D01*
G01*
X118500000Y-92650000D01*
G75*
G02*
X118275000Y-92425000I0J225000D01*
G01*
X118275000Y-91925000D01*
G75*
G02*
X118500000Y-91700000I225000J0D01*
G01*
X118950000Y-91700000D01*
G75*
G02*
X119175000Y-91925000I0J-225000D01*
G01*
G37*
%TD*%
%TO.C,C5*%
G36*
G01*
X131870000Y-94990000D02*
X131870000Y-94650000D01*
G75*
G02*
X132010000Y-94510000I140000J0D01*
G01*
X132290000Y-94510000D01*
G75*
G02*
X132430000Y-94650000I0J-140000D01*
G01*
X132430000Y-94990000D01*
G75*
G02*
X132290000Y-95130000I-140000J0D01*
G01*
X132010000Y-95130000D01*
G75*
G02*
X131870000Y-94990000I0J140000D01*
G01*
G37*
G36*
G01*
X132830000Y-94990000D02*
X132830000Y-94650000D01*
G75*
G02*
X132970000Y-94510000I140000J0D01*
G01*
X133250000Y-94510000D01*
G75*
G02*
X133390000Y-94650000I0J-140000D01*
G01*
X133390000Y-94990000D01*
G75*
G02*
X133250000Y-95130000I-140000J0D01*
G01*
X132970000Y-95130000D01*
G75*
G02*
X132830000Y-94990000I0J140000D01*
G01*
G37*
%TD*%
%TO.C,C7*%
G36*
G01*
X117280000Y-102148000D02*
X116940000Y-102148000D01*
G75*
G02*
X116800000Y-102008000I0J140000D01*
G01*
X116800000Y-101728000D01*
G75*
G02*
X116940000Y-101588000I140000J0D01*
G01*
X117280000Y-101588000D01*
G75*
G02*
X117420000Y-101728000I0J-140000D01*
G01*
X117420000Y-102008000D01*
G75*
G02*
X117280000Y-102148000I-140000J0D01*
G01*
G37*
G36*
G01*
X117280000Y-101188000D02*
X116940000Y-101188000D01*
G75*
G02*
X116800000Y-101048000I0J140000D01*
G01*
X116800000Y-100768000D01*
G75*
G02*
X116940000Y-100628000I140000J0D01*
G01*
X117280000Y-100628000D01*
G75*
G02*
X117420000Y-100768000I0J-140000D01*
G01*
X117420000Y-101048000D01*
G75*
G02*
X117280000Y-101188000I-140000J0D01*
G01*
G37*
%TD*%
%TO.C,C2*%
G36*
G01*
X120100000Y-94620000D02*
X120100000Y-94960000D01*
G75*
G02*
X119960000Y-95100000I-140000J0D01*
G01*
X119680000Y-95100000D01*
G75*
G02*
X119540000Y-94960000I0J140000D01*
G01*
X119540000Y-94620000D01*
G75*
G02*
X119680000Y-94480000I140000J0D01*
G01*
X119960000Y-94480000D01*
G75*
G02*
X120100000Y-94620000I0J-140000D01*
G01*
G37*
G36*
G01*
X119140000Y-94620000D02*
X119140000Y-94960000D01*
G75*
G02*
X119000000Y-95100000I-140000J0D01*
G01*
X118720000Y-95100000D01*
G75*
G02*
X118580000Y-94960000I0J140000D01*
G01*
X118580000Y-94620000D01*
G75*
G02*
X118720000Y-94480000I140000J0D01*
G01*
X119000000Y-94480000D01*
G75*
G02*
X119140000Y-94620000I0J-140000D01*
G01*
G37*
%TD*%
%TO.C,C3*%
G36*
G01*
X122770000Y-107050000D02*
X122770000Y-107390000D01*
G75*
G02*
X122630000Y-107530000I-140000J0D01*
G01*
X122350000Y-107530000D01*
G75*
G02*
X122210000Y-107390000I0J140000D01*
G01*
X122210000Y-107050000D01*
G75*
G02*
X122350000Y-106910000I140000J0D01*
G01*
X122630000Y-106910000D01*
G75*
G02*
X122770000Y-107050000I0J-140000D01*
G01*
G37*
G36*
G01*
X123730000Y-107050000D02*
X123730000Y-107390000D01*
G75*
G02*
X123590000Y-107530000I-140000J0D01*
G01*
X123310000Y-107530000D01*
G75*
G02*
X123170000Y-107390000I0J140000D01*
G01*
X123170000Y-107050000D01*
G75*
G02*
X123310000Y-106910000I140000J0D01*
G01*
X123590000Y-106910000D01*
G75*
G02*
X123730000Y-107050000I0J-140000D01*
G01*
G37*
%TD*%
%TO.C,C6*%
G36*
G01*
X122650000Y-92290000D02*
X122650000Y-91950000D01*
G75*
G02*
X122790000Y-91810000I140000J0D01*
G01*
X123070000Y-91810000D01*
G75*
G02*
X123210000Y-91950000I0J-140000D01*
G01*
X123210000Y-92290000D01*
G75*
G02*
X123070000Y-92430000I-140000J0D01*
G01*
X122790000Y-92430000D01*
G75*
G02*
X122650000Y-92290000I0J140000D01*
G01*
G37*
G36*
G01*
X121690000Y-92290000D02*
X121690000Y-91950000D01*
G75*
G02*
X121830000Y-91810000I140000J0D01*
G01*
X122110000Y-91810000D01*
G75*
G02*
X122250000Y-91950000I0J-140000D01*
G01*
X122250000Y-92290000D01*
G75*
G02*
X122110000Y-92430000I-140000J0D01*
G01*
X121830000Y-92430000D01*
G75*
G02*
X121690000Y-92290000I0J140000D01*
G01*
G37*
%TD*%
%TO.C,C4*%
G36*
G01*
X131610000Y-105890000D02*
X131610000Y-105550000D01*
G75*
G02*
X131750000Y-105410000I140000J0D01*
G01*
X132030000Y-105410000D01*
G75*
G02*
X132170000Y-105550000I0J-140000D01*
G01*
X132170000Y-105890000D01*
G75*
G02*
X132030000Y-106030000I-140000J0D01*
G01*
X131750000Y-106030000D01*
G75*
G02*
X131610000Y-105890000I0J140000D01*
G01*
G37*
G36*
G01*
X130650000Y-105890000D02*
X130650000Y-105550000D01*
G75*
G02*
X130790000Y-105410000I140000J0D01*
G01*
X131070000Y-105410000D01*
G75*
G02*
X131210000Y-105550000I0J-140000D01*
G01*
X131210000Y-105890000D01*
G75*
G02*
X131070000Y-106030000I-140000J0D01*
G01*
X130790000Y-106030000D01*
G75*
G02*
X130650000Y-105890000I0J140000D01*
G01*
G37*
%TD*%
%TO.C,C8*%
G36*
G01*
X118570000Y-101188000D02*
X118230000Y-101188000D01*
G75*
G02*
X118090000Y-101048000I0J140000D01*
G01*
X118090000Y-100768000D01*
G75*
G02*
X118230000Y-100628000I140000J0D01*
G01*
X118570000Y-100628000D01*
G75*
G02*
X118710000Y-100768000I0J-140000D01*
G01*
X118710000Y-101048000D01*
G75*
G02*
X118570000Y-101188000I-140000J0D01*
G01*
G37*
G36*
G01*
X118570000Y-102148000D02*
X118230000Y-102148000D01*
G75*
G02*
X118090000Y-102008000I0J140000D01*
G01*
X118090000Y-101728000D01*
G75*
G02*
X118230000Y-101588000I140000J0D01*
G01*
X118570000Y-101588000D01*
G75*
G02*
X118710000Y-101728000I0J-140000D01*
G01*
X118710000Y-102008000D01*
G75*
G02*
X118570000Y-102148000I-140000J0D01*
G01*
G37*
%TD*%
%TO.C,R2*%
G36*
G01*
X158325000Y-73425000D02*
X158325000Y-73975000D01*
G75*
G02*
X158125000Y-74175000I-200000J0D01*
G01*
X157725000Y-74175000D01*
G75*
G02*
X157525000Y-73975000I0J200000D01*
G01*
X157525000Y-73425000D01*
G75*
G02*
X157725000Y-73225000I200000J0D01*
G01*
X158125000Y-73225000D01*
G75*
G02*
X158325000Y-73425000I0J-200000D01*
G01*
G37*
G36*
G01*
X156675000Y-73425000D02*
X156675000Y-73975000D01*
G75*
G02*
X156475000Y-74175000I-200000J0D01*
G01*
X156075000Y-74175000D01*
G75*
G02*
X155875000Y-73975000I0J200000D01*
G01*
X155875000Y-73425000D01*
G75*
G02*
X156075000Y-73225000I200000J0D01*
G01*
X156475000Y-73225000D01*
G75*
G02*
X156675000Y-73425000I0J-200000D01*
G01*
G37*
%TD*%
%TO.C,R11*%
G36*
G01*
X173865000Y-102005000D02*
X173865000Y-101455000D01*
G75*
G02*
X174065000Y-101255000I200000J0D01*
G01*
X174465000Y-101255000D01*
G75*
G02*
X174665000Y-101455000I0J-200000D01*
G01*
X174665000Y-102005000D01*
G75*
G02*
X174465000Y-102205000I-200000J0D01*
G01*
X174065000Y-102205000D01*
G75*
G02*
X173865000Y-102005000I0J200000D01*
G01*
G37*
G36*
G01*
X172215000Y-102005000D02*
X172215000Y-101455000D01*
G75*
G02*
X172415000Y-101255000I200000J0D01*
G01*
X172815000Y-101255000D01*
G75*
G02*
X173015000Y-101455000I0J-200000D01*
G01*
X173015000Y-102005000D01*
G75*
G02*
X172815000Y-102205000I-200000J0D01*
G01*
X172415000Y-102205000D01*
G75*
G02*
X172215000Y-102005000I0J200000D01*
G01*
G37*
%TD*%
D23*
%TO.C,Y1*%
X115575000Y-96775000D03*
X115575000Y-98975000D03*
X113875000Y-98975000D03*
X113875000Y-96775000D03*
%TD*%
%TO.C,R9*%
G36*
G01*
X160065000Y-112420000D02*
X160615000Y-112420000D01*
G75*
G02*
X160815000Y-112620000I0J-200000D01*
G01*
X160815000Y-113020000D01*
G75*
G02*
X160615000Y-113220000I-200000J0D01*
G01*
X160065000Y-113220000D01*
G75*
G02*
X159865000Y-113020000I0J200000D01*
G01*
X159865000Y-112620000D01*
G75*
G02*
X160065000Y-112420000I200000J0D01*
G01*
G37*
G36*
G01*
X160065000Y-114070000D02*
X160615000Y-114070000D01*
G75*
G02*
X160815000Y-114270000I0J-200000D01*
G01*
X160815000Y-114670000D01*
G75*
G02*
X160615000Y-114870000I-200000J0D01*
G01*
X160065000Y-114870000D01*
G75*
G02*
X159865000Y-114670000I0J200000D01*
G01*
X159865000Y-114270000D01*
G75*
G02*
X160065000Y-114070000I200000J0D01*
G01*
G37*
%TD*%
%TO.C,U1*%
G36*
G01*
X119500000Y-95963000D02*
X119500000Y-95813000D01*
G75*
G02*
X119575000Y-95738000I75000J0D01*
G01*
X120975000Y-95738000D01*
G75*
G02*
X121050000Y-95813000I0J-75000D01*
G01*
X121050000Y-95963000D01*
G75*
G02*
X120975000Y-96038000I-75000J0D01*
G01*
X119575000Y-96038000D01*
G75*
G02*
X119500000Y-95963000I0J75000D01*
G01*
G37*
G36*
G01*
X119500000Y-96463000D02*
X119500000Y-96313000D01*
G75*
G02*
X119575000Y-96238000I75000J0D01*
G01*
X120975000Y-96238000D01*
G75*
G02*
X121050000Y-96313000I0J-75000D01*
G01*
X121050000Y-96463000D01*
G75*
G02*
X120975000Y-96538000I-75000J0D01*
G01*
X119575000Y-96538000D01*
G75*
G02*
X119500000Y-96463000I0J75000D01*
G01*
G37*
G36*
G01*
X119500000Y-96963000D02*
X119500000Y-96813000D01*
G75*
G02*
X119575000Y-96738000I75000J0D01*
G01*
X120975000Y-96738000D01*
G75*
G02*
X121050000Y-96813000I0J-75000D01*
G01*
X121050000Y-96963000D01*
G75*
G02*
X120975000Y-97038000I-75000J0D01*
G01*
X119575000Y-97038000D01*
G75*
G02*
X119500000Y-96963000I0J75000D01*
G01*
G37*
G36*
G01*
X119500000Y-97463000D02*
X119500000Y-97313000D01*
G75*
G02*
X119575000Y-97238000I75000J0D01*
G01*
X120975000Y-97238000D01*
G75*
G02*
X121050000Y-97313000I0J-75000D01*
G01*
X121050000Y-97463000D01*
G75*
G02*
X120975000Y-97538000I-75000J0D01*
G01*
X119575000Y-97538000D01*
G75*
G02*
X119500000Y-97463000I0J75000D01*
G01*
G37*
G36*
G01*
X119500000Y-97963000D02*
X119500000Y-97813000D01*
G75*
G02*
X119575000Y-97738000I75000J0D01*
G01*
X120975000Y-97738000D01*
G75*
G02*
X121050000Y-97813000I0J-75000D01*
G01*
X121050000Y-97963000D01*
G75*
G02*
X120975000Y-98038000I-75000J0D01*
G01*
X119575000Y-98038000D01*
G75*
G02*
X119500000Y-97963000I0J75000D01*
G01*
G37*
G36*
G01*
X119500000Y-98463000D02*
X119500000Y-98313000D01*
G75*
G02*
X119575000Y-98238000I75000J0D01*
G01*
X120975000Y-98238000D01*
G75*
G02*
X121050000Y-98313000I0J-75000D01*
G01*
X121050000Y-98463000D01*
G75*
G02*
X120975000Y-98538000I-75000J0D01*
G01*
X119575000Y-98538000D01*
G75*
G02*
X119500000Y-98463000I0J75000D01*
G01*
G37*
G36*
G01*
X119500000Y-98963000D02*
X119500000Y-98813000D01*
G75*
G02*
X119575000Y-98738000I75000J0D01*
G01*
X120975000Y-98738000D01*
G75*
G02*
X121050000Y-98813000I0J-75000D01*
G01*
X121050000Y-98963000D01*
G75*
G02*
X120975000Y-99038000I-75000J0D01*
G01*
X119575000Y-99038000D01*
G75*
G02*
X119500000Y-98963000I0J75000D01*
G01*
G37*
G36*
G01*
X119500000Y-99463000D02*
X119500000Y-99313000D01*
G75*
G02*
X119575000Y-99238000I75000J0D01*
G01*
X120975000Y-99238000D01*
G75*
G02*
X121050000Y-99313000I0J-75000D01*
G01*
X121050000Y-99463000D01*
G75*
G02*
X120975000Y-99538000I-75000J0D01*
G01*
X119575000Y-99538000D01*
G75*
G02*
X119500000Y-99463000I0J75000D01*
G01*
G37*
G36*
G01*
X119500000Y-99963000D02*
X119500000Y-99813000D01*
G75*
G02*
X119575000Y-99738000I75000J0D01*
G01*
X120975000Y-99738000D01*
G75*
G02*
X121050000Y-99813000I0J-75000D01*
G01*
X121050000Y-99963000D01*
G75*
G02*
X120975000Y-100038000I-75000J0D01*
G01*
X119575000Y-100038000D01*
G75*
G02*
X119500000Y-99963000I0J75000D01*
G01*
G37*
G36*
G01*
X119500000Y-100463000D02*
X119500000Y-100313000D01*
G75*
G02*
X119575000Y-100238000I75000J0D01*
G01*
X120975000Y-100238000D01*
G75*
G02*
X121050000Y-100313000I0J-75000D01*
G01*
X121050000Y-100463000D01*
G75*
G02*
X120975000Y-100538000I-75000J0D01*
G01*
X119575000Y-100538000D01*
G75*
G02*
X119500000Y-100463000I0J75000D01*
G01*
G37*
G36*
G01*
X119500000Y-100963000D02*
X119500000Y-100813000D01*
G75*
G02*
X119575000Y-100738000I75000J0D01*
G01*
X120975000Y-100738000D01*
G75*
G02*
X121050000Y-100813000I0J-75000D01*
G01*
X121050000Y-100963000D01*
G75*
G02*
X120975000Y-101038000I-75000J0D01*
G01*
X119575000Y-101038000D01*
G75*
G02*
X119500000Y-100963000I0J75000D01*
G01*
G37*
G36*
G01*
X119500000Y-101463000D02*
X119500000Y-101313000D01*
G75*
G02*
X119575000Y-101238000I75000J0D01*
G01*
X120975000Y-101238000D01*
G75*
G02*
X121050000Y-101313000I0J-75000D01*
G01*
X121050000Y-101463000D01*
G75*
G02*
X120975000Y-101538000I-75000J0D01*
G01*
X119575000Y-101538000D01*
G75*
G02*
X119500000Y-101463000I0J75000D01*
G01*
G37*
G36*
G01*
X119500000Y-101963000D02*
X119500000Y-101813000D01*
G75*
G02*
X119575000Y-101738000I75000J0D01*
G01*
X120975000Y-101738000D01*
G75*
G02*
X121050000Y-101813000I0J-75000D01*
G01*
X121050000Y-101963000D01*
G75*
G02*
X120975000Y-102038000I-75000J0D01*
G01*
X119575000Y-102038000D01*
G75*
G02*
X119500000Y-101963000I0J75000D01*
G01*
G37*
G36*
G01*
X119500000Y-102463000D02*
X119500000Y-102313000D01*
G75*
G02*
X119575000Y-102238000I75000J0D01*
G01*
X120975000Y-102238000D01*
G75*
G02*
X121050000Y-102313000I0J-75000D01*
G01*
X121050000Y-102463000D01*
G75*
G02*
X120975000Y-102538000I-75000J0D01*
G01*
X119575000Y-102538000D01*
G75*
G02*
X119500000Y-102463000I0J75000D01*
G01*
G37*
G36*
G01*
X119500000Y-102963000D02*
X119500000Y-102813000D01*
G75*
G02*
X119575000Y-102738000I75000J0D01*
G01*
X120975000Y-102738000D01*
G75*
G02*
X121050000Y-102813000I0J-75000D01*
G01*
X121050000Y-102963000D01*
G75*
G02*
X120975000Y-103038000I-75000J0D01*
G01*
X119575000Y-103038000D01*
G75*
G02*
X119500000Y-102963000I0J75000D01*
G01*
G37*
G36*
G01*
X119500000Y-103463000D02*
X119500000Y-103313000D01*
G75*
G02*
X119575000Y-103238000I75000J0D01*
G01*
X120975000Y-103238000D01*
G75*
G02*
X121050000Y-103313000I0J-75000D01*
G01*
X121050000Y-103463000D01*
G75*
G02*
X120975000Y-103538000I-75000J0D01*
G01*
X119575000Y-103538000D01*
G75*
G02*
X119500000Y-103463000I0J75000D01*
G01*
G37*
G36*
G01*
X122050000Y-106013000D02*
X122050000Y-104613000D01*
G75*
G02*
X122125000Y-104538000I75000J0D01*
G01*
X122275000Y-104538000D01*
G75*
G02*
X122350000Y-104613000I0J-75000D01*
G01*
X122350000Y-106013000D01*
G75*
G02*
X122275000Y-106088000I-75000J0D01*
G01*
X122125000Y-106088000D01*
G75*
G02*
X122050000Y-106013000I0J75000D01*
G01*
G37*
G36*
G01*
X122550000Y-106013000D02*
X122550000Y-104613000D01*
G75*
G02*
X122625000Y-104538000I75000J0D01*
G01*
X122775000Y-104538000D01*
G75*
G02*
X122850000Y-104613000I0J-75000D01*
G01*
X122850000Y-106013000D01*
G75*
G02*
X122775000Y-106088000I-75000J0D01*
G01*
X122625000Y-106088000D01*
G75*
G02*
X122550000Y-106013000I0J75000D01*
G01*
G37*
G36*
G01*
X123050000Y-106013000D02*
X123050000Y-104613000D01*
G75*
G02*
X123125000Y-104538000I75000J0D01*
G01*
X123275000Y-104538000D01*
G75*
G02*
X123350000Y-104613000I0J-75000D01*
G01*
X123350000Y-106013000D01*
G75*
G02*
X123275000Y-106088000I-75000J0D01*
G01*
X123125000Y-106088000D01*
G75*
G02*
X123050000Y-106013000I0J75000D01*
G01*
G37*
G36*
G01*
X123550000Y-106013000D02*
X123550000Y-104613000D01*
G75*
G02*
X123625000Y-104538000I75000J0D01*
G01*
X123775000Y-104538000D01*
G75*
G02*
X123850000Y-104613000I0J-75000D01*
G01*
X123850000Y-106013000D01*
G75*
G02*
X123775000Y-106088000I-75000J0D01*
G01*
X123625000Y-106088000D01*
G75*
G02*
X123550000Y-106013000I0J75000D01*
G01*
G37*
G36*
G01*
X124050000Y-106013000D02*
X124050000Y-104613000D01*
G75*
G02*
X124125000Y-104538000I75000J0D01*
G01*
X124275000Y-104538000D01*
G75*
G02*
X124350000Y-104613000I0J-75000D01*
G01*
X124350000Y-106013000D01*
G75*
G02*
X124275000Y-106088000I-75000J0D01*
G01*
X124125000Y-106088000D01*
G75*
G02*
X124050000Y-106013000I0J75000D01*
G01*
G37*
G36*
G01*
X124550000Y-106013000D02*
X124550000Y-104613000D01*
G75*
G02*
X124625000Y-104538000I75000J0D01*
G01*
X124775000Y-104538000D01*
G75*
G02*
X124850000Y-104613000I0J-75000D01*
G01*
X124850000Y-106013000D01*
G75*
G02*
X124775000Y-106088000I-75000J0D01*
G01*
X124625000Y-106088000D01*
G75*
G02*
X124550000Y-106013000I0J75000D01*
G01*
G37*
G36*
G01*
X125050000Y-106013000D02*
X125050000Y-104613000D01*
G75*
G02*
X125125000Y-104538000I75000J0D01*
G01*
X125275000Y-104538000D01*
G75*
G02*
X125350000Y-104613000I0J-75000D01*
G01*
X125350000Y-106013000D01*
G75*
G02*
X125275000Y-106088000I-75000J0D01*
G01*
X125125000Y-106088000D01*
G75*
G02*
X125050000Y-106013000I0J75000D01*
G01*
G37*
G36*
G01*
X125550000Y-106013000D02*
X125550000Y-104613000D01*
G75*
G02*
X125625000Y-104538000I75000J0D01*
G01*
X125775000Y-104538000D01*
G75*
G02*
X125850000Y-104613000I0J-75000D01*
G01*
X125850000Y-106013000D01*
G75*
G02*
X125775000Y-106088000I-75000J0D01*
G01*
X125625000Y-106088000D01*
G75*
G02*
X125550000Y-106013000I0J75000D01*
G01*
G37*
G36*
G01*
X126050000Y-106013000D02*
X126050000Y-104613000D01*
G75*
G02*
X126125000Y-104538000I75000J0D01*
G01*
X126275000Y-104538000D01*
G75*
G02*
X126350000Y-104613000I0J-75000D01*
G01*
X126350000Y-106013000D01*
G75*
G02*
X126275000Y-106088000I-75000J0D01*
G01*
X126125000Y-106088000D01*
G75*
G02*
X126050000Y-106013000I0J75000D01*
G01*
G37*
G36*
G01*
X126550000Y-106013000D02*
X126550000Y-104613000D01*
G75*
G02*
X126625000Y-104538000I75000J0D01*
G01*
X126775000Y-104538000D01*
G75*
G02*
X126850000Y-104613000I0J-75000D01*
G01*
X126850000Y-106013000D01*
G75*
G02*
X126775000Y-106088000I-75000J0D01*
G01*
X126625000Y-106088000D01*
G75*
G02*
X126550000Y-106013000I0J75000D01*
G01*
G37*
G36*
G01*
X127050000Y-106013000D02*
X127050000Y-104613000D01*
G75*
G02*
X127125000Y-104538000I75000J0D01*
G01*
X127275000Y-104538000D01*
G75*
G02*
X127350000Y-104613000I0J-75000D01*
G01*
X127350000Y-106013000D01*
G75*
G02*
X127275000Y-106088000I-75000J0D01*
G01*
X127125000Y-106088000D01*
G75*
G02*
X127050000Y-106013000I0J75000D01*
G01*
G37*
G36*
G01*
X127550000Y-106013000D02*
X127550000Y-104613000D01*
G75*
G02*
X127625000Y-104538000I75000J0D01*
G01*
X127775000Y-104538000D01*
G75*
G02*
X127850000Y-104613000I0J-75000D01*
G01*
X127850000Y-106013000D01*
G75*
G02*
X127775000Y-106088000I-75000J0D01*
G01*
X127625000Y-106088000D01*
G75*
G02*
X127550000Y-106013000I0J75000D01*
G01*
G37*
G36*
G01*
X128050000Y-106013000D02*
X128050000Y-104613000D01*
G75*
G02*
X128125000Y-104538000I75000J0D01*
G01*
X128275000Y-104538000D01*
G75*
G02*
X128350000Y-104613000I0J-75000D01*
G01*
X128350000Y-106013000D01*
G75*
G02*
X128275000Y-106088000I-75000J0D01*
G01*
X128125000Y-106088000D01*
G75*
G02*
X128050000Y-106013000I0J75000D01*
G01*
G37*
G36*
G01*
X128550000Y-106013000D02*
X128550000Y-104613000D01*
G75*
G02*
X128625000Y-104538000I75000J0D01*
G01*
X128775000Y-104538000D01*
G75*
G02*
X128850000Y-104613000I0J-75000D01*
G01*
X128850000Y-106013000D01*
G75*
G02*
X128775000Y-106088000I-75000J0D01*
G01*
X128625000Y-106088000D01*
G75*
G02*
X128550000Y-106013000I0J75000D01*
G01*
G37*
G36*
G01*
X129050000Y-106013000D02*
X129050000Y-104613000D01*
G75*
G02*
X129125000Y-104538000I75000J0D01*
G01*
X129275000Y-104538000D01*
G75*
G02*
X129350000Y-104613000I0J-75000D01*
G01*
X129350000Y-106013000D01*
G75*
G02*
X129275000Y-106088000I-75000J0D01*
G01*
X129125000Y-106088000D01*
G75*
G02*
X129050000Y-106013000I0J75000D01*
G01*
G37*
G36*
G01*
X129550000Y-106013000D02*
X129550000Y-104613000D01*
G75*
G02*
X129625000Y-104538000I75000J0D01*
G01*
X129775000Y-104538000D01*
G75*
G02*
X129850000Y-104613000I0J-75000D01*
G01*
X129850000Y-106013000D01*
G75*
G02*
X129775000Y-106088000I-75000J0D01*
G01*
X129625000Y-106088000D01*
G75*
G02*
X129550000Y-106013000I0J75000D01*
G01*
G37*
G36*
G01*
X130850000Y-103463000D02*
X130850000Y-103313000D01*
G75*
G02*
X130925000Y-103238000I75000J0D01*
G01*
X132325000Y-103238000D01*
G75*
G02*
X132400000Y-103313000I0J-75000D01*
G01*
X132400000Y-103463000D01*
G75*
G02*
X132325000Y-103538000I-75000J0D01*
G01*
X130925000Y-103538000D01*
G75*
G02*
X130850000Y-103463000I0J75000D01*
G01*
G37*
G36*
G01*
X130850000Y-102963000D02*
X130850000Y-102813000D01*
G75*
G02*
X130925000Y-102738000I75000J0D01*
G01*
X132325000Y-102738000D01*
G75*
G02*
X132400000Y-102813000I0J-75000D01*
G01*
X132400000Y-102963000D01*
G75*
G02*
X132325000Y-103038000I-75000J0D01*
G01*
X130925000Y-103038000D01*
G75*
G02*
X130850000Y-102963000I0J75000D01*
G01*
G37*
G36*
G01*
X130850000Y-102463000D02*
X130850000Y-102313000D01*
G75*
G02*
X130925000Y-102238000I75000J0D01*
G01*
X132325000Y-102238000D01*
G75*
G02*
X132400000Y-102313000I0J-75000D01*
G01*
X132400000Y-102463000D01*
G75*
G02*
X132325000Y-102538000I-75000J0D01*
G01*
X130925000Y-102538000D01*
G75*
G02*
X130850000Y-102463000I0J75000D01*
G01*
G37*
G36*
G01*
X130850000Y-101963000D02*
X130850000Y-101813000D01*
G75*
G02*
X130925000Y-101738000I75000J0D01*
G01*
X132325000Y-101738000D01*
G75*
G02*
X132400000Y-101813000I0J-75000D01*
G01*
X132400000Y-101963000D01*
G75*
G02*
X132325000Y-102038000I-75000J0D01*
G01*
X130925000Y-102038000D01*
G75*
G02*
X130850000Y-101963000I0J75000D01*
G01*
G37*
G36*
G01*
X130850000Y-101463000D02*
X130850000Y-101313000D01*
G75*
G02*
X130925000Y-101238000I75000J0D01*
G01*
X132325000Y-101238000D01*
G75*
G02*
X132400000Y-101313000I0J-75000D01*
G01*
X132400000Y-101463000D01*
G75*
G02*
X132325000Y-101538000I-75000J0D01*
G01*
X130925000Y-101538000D01*
G75*
G02*
X130850000Y-101463000I0J75000D01*
G01*
G37*
G36*
G01*
X130850000Y-100963000D02*
X130850000Y-100813000D01*
G75*
G02*
X130925000Y-100738000I75000J0D01*
G01*
X132325000Y-100738000D01*
G75*
G02*
X132400000Y-100813000I0J-75000D01*
G01*
X132400000Y-100963000D01*
G75*
G02*
X132325000Y-101038000I-75000J0D01*
G01*
X130925000Y-101038000D01*
G75*
G02*
X130850000Y-100963000I0J75000D01*
G01*
G37*
G36*
G01*
X130850000Y-100463000D02*
X130850000Y-100313000D01*
G75*
G02*
X130925000Y-100238000I75000J0D01*
G01*
X132325000Y-100238000D01*
G75*
G02*
X132400000Y-100313000I0J-75000D01*
G01*
X132400000Y-100463000D01*
G75*
G02*
X132325000Y-100538000I-75000J0D01*
G01*
X130925000Y-100538000D01*
G75*
G02*
X130850000Y-100463000I0J75000D01*
G01*
G37*
G36*
G01*
X130850000Y-99963000D02*
X130850000Y-99813000D01*
G75*
G02*
X130925000Y-99738000I75000J0D01*
G01*
X132325000Y-99738000D01*
G75*
G02*
X132400000Y-99813000I0J-75000D01*
G01*
X132400000Y-99963000D01*
G75*
G02*
X132325000Y-100038000I-75000J0D01*
G01*
X130925000Y-100038000D01*
G75*
G02*
X130850000Y-99963000I0J75000D01*
G01*
G37*
G36*
G01*
X130850000Y-99463000D02*
X130850000Y-99313000D01*
G75*
G02*
X130925000Y-99238000I75000J0D01*
G01*
X132325000Y-99238000D01*
G75*
G02*
X132400000Y-99313000I0J-75000D01*
G01*
X132400000Y-99463000D01*
G75*
G02*
X132325000Y-99538000I-75000J0D01*
G01*
X130925000Y-99538000D01*
G75*
G02*
X130850000Y-99463000I0J75000D01*
G01*
G37*
G36*
G01*
X130850000Y-98963000D02*
X130850000Y-98813000D01*
G75*
G02*
X130925000Y-98738000I75000J0D01*
G01*
X132325000Y-98738000D01*
G75*
G02*
X132400000Y-98813000I0J-75000D01*
G01*
X132400000Y-98963000D01*
G75*
G02*
X132325000Y-99038000I-75000J0D01*
G01*
X130925000Y-99038000D01*
G75*
G02*
X130850000Y-98963000I0J75000D01*
G01*
G37*
G36*
G01*
X130850000Y-98463000D02*
X130850000Y-98313000D01*
G75*
G02*
X130925000Y-98238000I75000J0D01*
G01*
X132325000Y-98238000D01*
G75*
G02*
X132400000Y-98313000I0J-75000D01*
G01*
X132400000Y-98463000D01*
G75*
G02*
X132325000Y-98538000I-75000J0D01*
G01*
X130925000Y-98538000D01*
G75*
G02*
X130850000Y-98463000I0J75000D01*
G01*
G37*
G36*
G01*
X130850000Y-97963000D02*
X130850000Y-97813000D01*
G75*
G02*
X130925000Y-97738000I75000J0D01*
G01*
X132325000Y-97738000D01*
G75*
G02*
X132400000Y-97813000I0J-75000D01*
G01*
X132400000Y-97963000D01*
G75*
G02*
X132325000Y-98038000I-75000J0D01*
G01*
X130925000Y-98038000D01*
G75*
G02*
X130850000Y-97963000I0J75000D01*
G01*
G37*
G36*
G01*
X130850000Y-97463000D02*
X130850000Y-97313000D01*
G75*
G02*
X130925000Y-97238000I75000J0D01*
G01*
X132325000Y-97238000D01*
G75*
G02*
X132400000Y-97313000I0J-75000D01*
G01*
X132400000Y-97463000D01*
G75*
G02*
X132325000Y-97538000I-75000J0D01*
G01*
X130925000Y-97538000D01*
G75*
G02*
X130850000Y-97463000I0J75000D01*
G01*
G37*
G36*
G01*
X130850000Y-96963000D02*
X130850000Y-96813000D01*
G75*
G02*
X130925000Y-96738000I75000J0D01*
G01*
X132325000Y-96738000D01*
G75*
G02*
X132400000Y-96813000I0J-75000D01*
G01*
X132400000Y-96963000D01*
G75*
G02*
X132325000Y-97038000I-75000J0D01*
G01*
X130925000Y-97038000D01*
G75*
G02*
X130850000Y-96963000I0J75000D01*
G01*
G37*
G36*
G01*
X130850000Y-96463000D02*
X130850000Y-96313000D01*
G75*
G02*
X130925000Y-96238000I75000J0D01*
G01*
X132325000Y-96238000D01*
G75*
G02*
X132400000Y-96313000I0J-75000D01*
G01*
X132400000Y-96463000D01*
G75*
G02*
X132325000Y-96538000I-75000J0D01*
G01*
X130925000Y-96538000D01*
G75*
G02*
X130850000Y-96463000I0J75000D01*
G01*
G37*
G36*
G01*
X130850000Y-95963000D02*
X130850000Y-95813000D01*
G75*
G02*
X130925000Y-95738000I75000J0D01*
G01*
X132325000Y-95738000D01*
G75*
G02*
X132400000Y-95813000I0J-75000D01*
G01*
X132400000Y-95963000D01*
G75*
G02*
X132325000Y-96038000I-75000J0D01*
G01*
X130925000Y-96038000D01*
G75*
G02*
X130850000Y-95963000I0J75000D01*
G01*
G37*
G36*
G01*
X129550000Y-94663000D02*
X129550000Y-93263000D01*
G75*
G02*
X129625000Y-93188000I75000J0D01*
G01*
X129775000Y-93188000D01*
G75*
G02*
X129850000Y-93263000I0J-75000D01*
G01*
X129850000Y-94663000D01*
G75*
G02*
X129775000Y-94738000I-75000J0D01*
G01*
X129625000Y-94738000D01*
G75*
G02*
X129550000Y-94663000I0J75000D01*
G01*
G37*
G36*
G01*
X129050000Y-94663000D02*
X129050000Y-93263000D01*
G75*
G02*
X129125000Y-93188000I75000J0D01*
G01*
X129275000Y-93188000D01*
G75*
G02*
X129350000Y-93263000I0J-75000D01*
G01*
X129350000Y-94663000D01*
G75*
G02*
X129275000Y-94738000I-75000J0D01*
G01*
X129125000Y-94738000D01*
G75*
G02*
X129050000Y-94663000I0J75000D01*
G01*
G37*
G36*
G01*
X128550000Y-94663000D02*
X128550000Y-93263000D01*
G75*
G02*
X128625000Y-93188000I75000J0D01*
G01*
X128775000Y-93188000D01*
G75*
G02*
X128850000Y-93263000I0J-75000D01*
G01*
X128850000Y-94663000D01*
G75*
G02*
X128775000Y-94738000I-75000J0D01*
G01*
X128625000Y-94738000D01*
G75*
G02*
X128550000Y-94663000I0J75000D01*
G01*
G37*
G36*
G01*
X128050000Y-94663000D02*
X128050000Y-93263000D01*
G75*
G02*
X128125000Y-93188000I75000J0D01*
G01*
X128275000Y-93188000D01*
G75*
G02*
X128350000Y-93263000I0J-75000D01*
G01*
X128350000Y-94663000D01*
G75*
G02*
X128275000Y-94738000I-75000J0D01*
G01*
X128125000Y-94738000D01*
G75*
G02*
X128050000Y-94663000I0J75000D01*
G01*
G37*
G36*
G01*
X127550000Y-94663000D02*
X127550000Y-93263000D01*
G75*
G02*
X127625000Y-93188000I75000J0D01*
G01*
X127775000Y-93188000D01*
G75*
G02*
X127850000Y-93263000I0J-75000D01*
G01*
X127850000Y-94663000D01*
G75*
G02*
X127775000Y-94738000I-75000J0D01*
G01*
X127625000Y-94738000D01*
G75*
G02*
X127550000Y-94663000I0J75000D01*
G01*
G37*
G36*
G01*
X127050000Y-94663000D02*
X127050000Y-93263000D01*
G75*
G02*
X127125000Y-93188000I75000J0D01*
G01*
X127275000Y-93188000D01*
G75*
G02*
X127350000Y-93263000I0J-75000D01*
G01*
X127350000Y-94663000D01*
G75*
G02*
X127275000Y-94738000I-75000J0D01*
G01*
X127125000Y-94738000D01*
G75*
G02*
X127050000Y-94663000I0J75000D01*
G01*
G37*
G36*
G01*
X126550000Y-94663000D02*
X126550000Y-93263000D01*
G75*
G02*
X126625000Y-93188000I75000J0D01*
G01*
X126775000Y-93188000D01*
G75*
G02*
X126850000Y-93263000I0J-75000D01*
G01*
X126850000Y-94663000D01*
G75*
G02*
X126775000Y-94738000I-75000J0D01*
G01*
X126625000Y-94738000D01*
G75*
G02*
X126550000Y-94663000I0J75000D01*
G01*
G37*
G36*
G01*
X126050000Y-94663000D02*
X126050000Y-93263000D01*
G75*
G02*
X126125000Y-93188000I75000J0D01*
G01*
X126275000Y-93188000D01*
G75*
G02*
X126350000Y-93263000I0J-75000D01*
G01*
X126350000Y-94663000D01*
G75*
G02*
X126275000Y-94738000I-75000J0D01*
G01*
X126125000Y-94738000D01*
G75*
G02*
X126050000Y-94663000I0J75000D01*
G01*
G37*
G36*
G01*
X125550000Y-94663000D02*
X125550000Y-93263000D01*
G75*
G02*
X125625000Y-93188000I75000J0D01*
G01*
X125775000Y-93188000D01*
G75*
G02*
X125850000Y-93263000I0J-75000D01*
G01*
X125850000Y-94663000D01*
G75*
G02*
X125775000Y-94738000I-75000J0D01*
G01*
X125625000Y-94738000D01*
G75*
G02*
X125550000Y-94663000I0J75000D01*
G01*
G37*
G36*
G01*
X125050000Y-94663000D02*
X125050000Y-93263000D01*
G75*
G02*
X125125000Y-93188000I75000J0D01*
G01*
X125275000Y-93188000D01*
G75*
G02*
X125350000Y-93263000I0J-75000D01*
G01*
X125350000Y-94663000D01*
G75*
G02*
X125275000Y-94738000I-75000J0D01*
G01*
X125125000Y-94738000D01*
G75*
G02*
X125050000Y-94663000I0J75000D01*
G01*
G37*
G36*
G01*
X124550000Y-94663000D02*
X124550000Y-93263000D01*
G75*
G02*
X124625000Y-93188000I75000J0D01*
G01*
X124775000Y-93188000D01*
G75*
G02*
X124850000Y-93263000I0J-75000D01*
G01*
X124850000Y-94663000D01*
G75*
G02*
X124775000Y-94738000I-75000J0D01*
G01*
X124625000Y-94738000D01*
G75*
G02*
X124550000Y-94663000I0J75000D01*
G01*
G37*
G36*
G01*
X124050000Y-94663000D02*
X124050000Y-93263000D01*
G75*
G02*
X124125000Y-93188000I75000J0D01*
G01*
X124275000Y-93188000D01*
G75*
G02*
X124350000Y-93263000I0J-75000D01*
G01*
X124350000Y-94663000D01*
G75*
G02*
X124275000Y-94738000I-75000J0D01*
G01*
X124125000Y-94738000D01*
G75*
G02*
X124050000Y-94663000I0J75000D01*
G01*
G37*
G36*
G01*
X123550000Y-94663000D02*
X123550000Y-93263000D01*
G75*
G02*
X123625000Y-93188000I75000J0D01*
G01*
X123775000Y-93188000D01*
G75*
G02*
X123850000Y-93263000I0J-75000D01*
G01*
X123850000Y-94663000D01*
G75*
G02*
X123775000Y-94738000I-75000J0D01*
G01*
X123625000Y-94738000D01*
G75*
G02*
X123550000Y-94663000I0J75000D01*
G01*
G37*
G36*
G01*
X123050000Y-94663000D02*
X123050000Y-93263000D01*
G75*
G02*
X123125000Y-93188000I75000J0D01*
G01*
X123275000Y-93188000D01*
G75*
G02*
X123350000Y-93263000I0J-75000D01*
G01*
X123350000Y-94663000D01*
G75*
G02*
X123275000Y-94738000I-75000J0D01*
G01*
X123125000Y-94738000D01*
G75*
G02*
X123050000Y-94663000I0J75000D01*
G01*
G37*
G36*
G01*
X122550000Y-94663000D02*
X122550000Y-93263000D01*
G75*
G02*
X122625000Y-93188000I75000J0D01*
G01*
X122775000Y-93188000D01*
G75*
G02*
X122850000Y-93263000I0J-75000D01*
G01*
X122850000Y-94663000D01*
G75*
G02*
X122775000Y-94738000I-75000J0D01*
G01*
X122625000Y-94738000D01*
G75*
G02*
X122550000Y-94663000I0J75000D01*
G01*
G37*
G36*
G01*
X122050000Y-94663000D02*
X122050000Y-93263000D01*
G75*
G02*
X122125000Y-93188000I75000J0D01*
G01*
X122275000Y-93188000D01*
G75*
G02*
X122350000Y-93263000I0J-75000D01*
G01*
X122350000Y-94663000D01*
G75*
G02*
X122275000Y-94738000I-75000J0D01*
G01*
X122125000Y-94738000D01*
G75*
G02*
X122050000Y-94663000I0J75000D01*
G01*
G37*
%TD*%
%TO.C,R3*%
G36*
G01*
X117120000Y-98785000D02*
X117120000Y-98415000D01*
G75*
G02*
X117255000Y-98280000I135000J0D01*
G01*
X117525000Y-98280000D01*
G75*
G02*
X117660000Y-98415000I0J-135000D01*
G01*
X117660000Y-98785000D01*
G75*
G02*
X117525000Y-98920000I-135000J0D01*
G01*
X117255000Y-98920000D01*
G75*
G02*
X117120000Y-98785000I0J135000D01*
G01*
G37*
G36*
G01*
X118140000Y-98785000D02*
X118140000Y-98415000D01*
G75*
G02*
X118275000Y-98280000I135000J0D01*
G01*
X118545000Y-98280000D01*
G75*
G02*
X118680000Y-98415000I0J-135000D01*
G01*
X118680000Y-98785000D01*
G75*
G02*
X118545000Y-98920000I-135000J0D01*
G01*
X118275000Y-98920000D01*
G75*
G02*
X118140000Y-98785000I0J135000D01*
G01*
G37*
%TD*%
%TO.C,R5*%
G36*
G01*
X124980000Y-89515000D02*
X124980000Y-89885000D01*
G75*
G02*
X124845000Y-90020000I-135000J0D01*
G01*
X124575000Y-90020000D01*
G75*
G02*
X124440000Y-89885000I0J135000D01*
G01*
X124440000Y-89515000D01*
G75*
G02*
X124575000Y-89380000I135000J0D01*
G01*
X124845000Y-89380000D01*
G75*
G02*
X124980000Y-89515000I0J-135000D01*
G01*
G37*
G36*
G01*
X123960000Y-89515000D02*
X123960000Y-89885000D01*
G75*
G02*
X123825000Y-90020000I-135000J0D01*
G01*
X123555000Y-90020000D01*
G75*
G02*
X123420000Y-89885000I0J135000D01*
G01*
X123420000Y-89515000D01*
G75*
G02*
X123555000Y-89380000I135000J0D01*
G01*
X123825000Y-89380000D01*
G75*
G02*
X123960000Y-89515000I0J-135000D01*
G01*
G37*
%TD*%
%TO.C,R4*%
G36*
G01*
X126790000Y-89885000D02*
X126790000Y-89515000D01*
G75*
G02*
X126925000Y-89380000I135000J0D01*
G01*
X127195000Y-89380000D01*
G75*
G02*
X127330000Y-89515000I0J-135000D01*
G01*
X127330000Y-89885000D01*
G75*
G02*
X127195000Y-90020000I-135000J0D01*
G01*
X126925000Y-90020000D01*
G75*
G02*
X126790000Y-89885000I0J135000D01*
G01*
G37*
G36*
G01*
X125770000Y-89885000D02*
X125770000Y-89515000D01*
G75*
G02*
X125905000Y-89380000I135000J0D01*
G01*
X126175000Y-89380000D01*
G75*
G02*
X126310000Y-89515000I0J-135000D01*
G01*
X126310000Y-89885000D01*
G75*
G02*
X126175000Y-90020000I-135000J0D01*
G01*
X125905000Y-90020000D01*
G75*
G02*
X125770000Y-89885000I0J135000D01*
G01*
G37*
%TD*%
D10*
%TO.C,U3*%
X168130000Y-93840000D03*
X168130000Y-92890000D03*
X168130000Y-91940000D03*
X165930000Y-91940000D03*
X165930000Y-93840000D03*
X165930000Y-92890000D03*
%TD*%
%TO.C,R8*%
G36*
G01*
X158765000Y-113220000D02*
X158215000Y-113220000D01*
G75*
G02*
X158015000Y-113020000I0J200000D01*
G01*
X158015000Y-112620000D01*
G75*
G02*
X158215000Y-112420000I200000J0D01*
G01*
X158765000Y-112420000D01*
G75*
G02*
X158965000Y-112620000I0J-200000D01*
G01*
X158965000Y-113020000D01*
G75*
G02*
X158765000Y-113220000I-200000J0D01*
G01*
G37*
G36*
G01*
X158765000Y-114870000D02*
X158215000Y-114870000D01*
G75*
G02*
X158015000Y-114670000I0J200000D01*
G01*
X158015000Y-114270000D01*
G75*
G02*
X158215000Y-114070000I200000J0D01*
G01*
X158765000Y-114070000D01*
G75*
G02*
X158965000Y-114270000I0J-200000D01*
G01*
X158965000Y-114670000D01*
G75*
G02*
X158765000Y-114870000I-200000J0D01*
G01*
G37*
%TD*%
%TO.C,C13*%
G36*
G01*
X157990000Y-111445001D02*
X157990000Y-110144999D01*
G75*
G02*
X158239999Y-109895000I249999J0D01*
G01*
X158890001Y-109895000D01*
G75*
G02*
X159140000Y-110144999I0J-249999D01*
G01*
X159140000Y-111445001D01*
G75*
G02*
X158890001Y-111695000I-249999J0D01*
G01*
X158239999Y-111695000D01*
G75*
G02*
X157990000Y-111445001I0J249999D01*
G01*
G37*
G36*
G01*
X160940000Y-111445001D02*
X160940000Y-110144999D01*
G75*
G02*
X161189999Y-109895000I249999J0D01*
G01*
X161840001Y-109895000D01*
G75*
G02*
X162090000Y-110144999I0J-249999D01*
G01*
X162090000Y-111445001D01*
G75*
G02*
X161840001Y-111695000I-249999J0D01*
G01*
X161189999Y-111695000D01*
G75*
G02*
X160940000Y-111445001I0J249999D01*
G01*
G37*
%TD*%
%TO.C,D1*%
G36*
G01*
X173782500Y-100386250D02*
X173782500Y-99873750D01*
G75*
G02*
X174001250Y-99655000I218750J0D01*
G01*
X174438750Y-99655000D01*
G75*
G02*
X174657500Y-99873750I0J-218750D01*
G01*
X174657500Y-100386250D01*
G75*
G02*
X174438750Y-100605000I-218750J0D01*
G01*
X174001250Y-100605000D01*
G75*
G02*
X173782500Y-100386250I0J218750D01*
G01*
G37*
G36*
G01*
X172207500Y-100386250D02*
X172207500Y-99873750D01*
G75*
G02*
X172426250Y-99655000I218750J0D01*
G01*
X172863750Y-99655000D01*
G75*
G02*
X173082500Y-99873750I0J-218750D01*
G01*
X173082500Y-100386250D01*
G75*
G02*
X172863750Y-100605000I-218750J0D01*
G01*
X172426250Y-100605000D01*
G75*
G02*
X172207500Y-100386250I0J218750D01*
G01*
G37*
%TD*%
%TO.C,C9*%
G36*
G01*
X130750000Y-107975000D02*
X130750000Y-107475000D01*
G75*
G02*
X130975000Y-107250000I225000J0D01*
G01*
X131425000Y-107250000D01*
G75*
G02*
X131650000Y-107475000I0J-225000D01*
G01*
X131650000Y-107975000D01*
G75*
G02*
X131425000Y-108200000I-225000J0D01*
G01*
X130975000Y-108200000D01*
G75*
G02*
X130750000Y-107975000I0J225000D01*
G01*
G37*
G36*
G01*
X129200000Y-107975000D02*
X129200000Y-107475000D01*
G75*
G02*
X129425000Y-107250000I225000J0D01*
G01*
X129875000Y-107250000D01*
G75*
G02*
X130100000Y-107475000I0J-225000D01*
G01*
X130100000Y-107975000D01*
G75*
G02*
X129875000Y-108200000I-225000J0D01*
G01*
X129425000Y-108200000D01*
G75*
G02*
X129200000Y-107975000I0J225000D01*
G01*
G37*
%TD*%
%TO.C,C10*%
G36*
G01*
X134905000Y-96630000D02*
X134905000Y-96130000D01*
G75*
G02*
X135130000Y-95905000I225000J0D01*
G01*
X135580000Y-95905000D01*
G75*
G02*
X135805000Y-96130000I0J-225000D01*
G01*
X135805000Y-96630000D01*
G75*
G02*
X135580000Y-96855000I-225000J0D01*
G01*
X135130000Y-96855000D01*
G75*
G02*
X134905000Y-96630000I0J225000D01*
G01*
G37*
G36*
G01*
X133355000Y-96630000D02*
X133355000Y-96130000D01*
G75*
G02*
X133580000Y-95905000I225000J0D01*
G01*
X134030000Y-95905000D01*
G75*
G02*
X134255000Y-96130000I0J-225000D01*
G01*
X134255000Y-96630000D01*
G75*
G02*
X134030000Y-96855000I-225000J0D01*
G01*
X133580000Y-96855000D01*
G75*
G02*
X133355000Y-96630000I0J225000D01*
G01*
G37*
%TD*%
%TO.C,C11*%
G36*
G01*
X114120000Y-94908000D02*
X114120000Y-94568000D01*
G75*
G02*
X114260000Y-94428000I140000J0D01*
G01*
X114540000Y-94428000D01*
G75*
G02*
X114680000Y-94568000I0J-140000D01*
G01*
X114680000Y-94908000D01*
G75*
G02*
X114540000Y-95048000I-140000J0D01*
G01*
X114260000Y-95048000D01*
G75*
G02*
X114120000Y-94908000I0J140000D01*
G01*
G37*
G36*
G01*
X115080000Y-94908000D02*
X115080000Y-94568000D01*
G75*
G02*
X115220000Y-94428000I140000J0D01*
G01*
X115500000Y-94428000D01*
G75*
G02*
X115640000Y-94568000I0J-140000D01*
G01*
X115640000Y-94908000D01*
G75*
G02*
X115500000Y-95048000I-140000J0D01*
G01*
X115220000Y-95048000D01*
G75*
G02*
X115080000Y-94908000I0J140000D01*
G01*
G37*
%TD*%
%TO.C,C16*%
G36*
G01*
X153160001Y-119670000D02*
X151859999Y-119670000D01*
G75*
G02*
X151610000Y-119420001I0J249999D01*
G01*
X151610000Y-118769999D01*
G75*
G02*
X151859999Y-118520000I249999J0D01*
G01*
X153160001Y-118520000D01*
G75*
G02*
X153410000Y-118769999I0J-249999D01*
G01*
X153410000Y-119420001D01*
G75*
G02*
X153160001Y-119670000I-249999J0D01*
G01*
G37*
G36*
G01*
X153160001Y-122620000D02*
X151859999Y-122620000D01*
G75*
G02*
X151610000Y-122370001I0J249999D01*
G01*
X151610000Y-121719999D01*
G75*
G02*
X151859999Y-121470000I249999J0D01*
G01*
X153160001Y-121470000D01*
G75*
G02*
X153410000Y-121719999I0J-249999D01*
G01*
X153410000Y-122370001D01*
G75*
G02*
X153160001Y-122620000I-249999J0D01*
G01*
G37*
%TD*%
%TO.C,C12*%
G36*
G01*
X115640000Y-100818000D02*
X115640000Y-101158000D01*
G75*
G02*
X115500000Y-101298000I-140000J0D01*
G01*
X115220000Y-101298000D01*
G75*
G02*
X115080000Y-101158000I0J140000D01*
G01*
X115080000Y-100818000D01*
G75*
G02*
X115220000Y-100678000I140000J0D01*
G01*
X115500000Y-100678000D01*
G75*
G02*
X115640000Y-100818000I0J-140000D01*
G01*
G37*
G36*
G01*
X114680000Y-100818000D02*
X114680000Y-101158000D01*
G75*
G02*
X114540000Y-101298000I-140000J0D01*
G01*
X114260000Y-101298000D01*
G75*
G02*
X114120000Y-101158000I0J140000D01*
G01*
X114120000Y-100818000D01*
G75*
G02*
X114260000Y-100678000I140000J0D01*
G01*
X114540000Y-100678000D01*
G75*
G02*
X114680000Y-100818000I0J-140000D01*
G01*
G37*
%TD*%
%TO.C,C17*%
G36*
G01*
X143436000Y-96411000D02*
X143096000Y-96411000D01*
G75*
G02*
X142956000Y-96271000I0J140000D01*
G01*
X142956000Y-95991000D01*
G75*
G02*
X143096000Y-95851000I140000J0D01*
G01*
X143436000Y-95851000D01*
G75*
G02*
X143576000Y-95991000I0J-140000D01*
G01*
X143576000Y-96271000D01*
G75*
G02*
X143436000Y-96411000I-140000J0D01*
G01*
G37*
G36*
G01*
X143436000Y-95451000D02*
X143096000Y-95451000D01*
G75*
G02*
X142956000Y-95311000I0J140000D01*
G01*
X142956000Y-95031000D01*
G75*
G02*
X143096000Y-94891000I140000J0D01*
G01*
X143436000Y-94891000D01*
G75*
G02*
X143576000Y-95031000I0J-140000D01*
G01*
X143576000Y-95311000D01*
G75*
G02*
X143436000Y-95451000I-140000J0D01*
G01*
G37*
%TD*%
%TO.C,C18*%
G36*
G01*
X140966000Y-96351000D02*
X140966000Y-96011000D01*
G75*
G02*
X141106000Y-95871000I140000J0D01*
G01*
X141386000Y-95871000D01*
G75*
G02*
X141526000Y-96011000I0J-140000D01*
G01*
X141526000Y-96351000D01*
G75*
G02*
X141386000Y-96491000I-140000J0D01*
G01*
X141106000Y-96491000D01*
G75*
G02*
X140966000Y-96351000I0J140000D01*
G01*
G37*
G36*
G01*
X140006000Y-96351000D02*
X140006000Y-96011000D01*
G75*
G02*
X140146000Y-95871000I140000J0D01*
G01*
X140426000Y-95871000D01*
G75*
G02*
X140566000Y-96011000I0J-140000D01*
G01*
X140566000Y-96351000D01*
G75*
G02*
X140426000Y-96491000I-140000J0D01*
G01*
X140146000Y-96491000D01*
G75*
G02*
X140006000Y-96351000I0J140000D01*
G01*
G37*
%TD*%
%TO.C,R12*%
G36*
G01*
X139765000Y-106590000D02*
X140135000Y-106590000D01*
G75*
G02*
X140270000Y-106725000I0J-135000D01*
G01*
X140270000Y-106995000D01*
G75*
G02*
X140135000Y-107130000I-135000J0D01*
G01*
X139765000Y-107130000D01*
G75*
G02*
X139630000Y-106995000I0J135000D01*
G01*
X139630000Y-106725000D01*
G75*
G02*
X139765000Y-106590000I135000J0D01*
G01*
G37*
G36*
G01*
X139765000Y-105570000D02*
X140135000Y-105570000D01*
G75*
G02*
X140270000Y-105705000I0J-135000D01*
G01*
X140270000Y-105975000D01*
G75*
G02*
X140135000Y-106110000I-135000J0D01*
G01*
X139765000Y-106110000D01*
G75*
G02*
X139630000Y-105975000I0J135000D01*
G01*
X139630000Y-105705000D01*
G75*
G02*
X139765000Y-105570000I135000J0D01*
G01*
G37*
%TD*%
D24*
%TO.C,U4*%
G36*
X139649566Y-92982441D02*
G01*
X139663635Y-92986709D01*
X139676602Y-92993640D01*
X139687967Y-93002967D01*
X139894033Y-93209033D01*
X139903360Y-93220398D01*
X139910291Y-93233365D01*
X139914559Y-93247434D01*
X139916000Y-93262066D01*
X139916000Y-93306000D01*
X139914559Y-93320632D01*
X139910291Y-93334701D01*
X139903360Y-93347668D01*
X139894033Y-93359033D01*
X139882668Y-93368360D01*
X139869701Y-93375291D01*
X139855632Y-93379559D01*
X139841000Y-93381000D01*
X139366000Y-93381000D01*
X139351368Y-93379559D01*
X139337299Y-93375291D01*
X139324332Y-93368360D01*
X139312967Y-93359033D01*
X139303640Y-93347668D01*
X139296709Y-93334701D01*
X139292441Y-93320632D01*
X139291000Y-93306000D01*
X139291000Y-93056000D01*
X139292441Y-93041368D01*
X139296709Y-93027299D01*
X139303640Y-93014332D01*
X139312967Y-93002967D01*
X139324332Y-92993640D01*
X139337299Y-92986709D01*
X139351368Y-92982441D01*
X139366000Y-92981000D01*
X139634934Y-92981000D01*
X139649566Y-92982441D01*
G37*
G36*
G01*
X139291000Y-93781000D02*
X139291000Y-93581000D01*
G75*
G02*
X139391000Y-93481000I100000J0D01*
G01*
X139816000Y-93481000D01*
G75*
G02*
X139916000Y-93581000I0J-100000D01*
G01*
X139916000Y-93781000D01*
G75*
G02*
X139816000Y-93881000I-100000J0D01*
G01*
X139391000Y-93881000D01*
G75*
G02*
X139291000Y-93781000I0J100000D01*
G01*
G37*
G36*
G01*
X139291000Y-94281000D02*
X139291000Y-94081000D01*
G75*
G02*
X139391000Y-93981000I100000J0D01*
G01*
X139816000Y-93981000D01*
G75*
G02*
X139916000Y-94081000I0J-100000D01*
G01*
X139916000Y-94281000D01*
G75*
G02*
X139816000Y-94381000I-100000J0D01*
G01*
X139391000Y-94381000D01*
G75*
G02*
X139291000Y-94281000I0J100000D01*
G01*
G37*
G36*
X139855632Y-94482441D02*
G01*
X139869701Y-94486709D01*
X139882668Y-94493640D01*
X139894033Y-94502967D01*
X139903360Y-94514332D01*
X139910291Y-94527299D01*
X139914559Y-94541368D01*
X139916000Y-94556000D01*
X139916000Y-94599934D01*
X139914559Y-94614566D01*
X139910291Y-94628635D01*
X139903360Y-94641602D01*
X139894033Y-94652967D01*
X139687967Y-94859033D01*
X139676602Y-94868360D01*
X139663635Y-94875291D01*
X139649566Y-94879559D01*
X139634934Y-94881000D01*
X139366000Y-94881000D01*
X139351368Y-94879559D01*
X139337299Y-94875291D01*
X139324332Y-94868360D01*
X139312967Y-94859033D01*
X139303640Y-94847668D01*
X139296709Y-94834701D01*
X139292441Y-94820632D01*
X139291000Y-94806000D01*
X139291000Y-94556000D01*
X139292441Y-94541368D01*
X139296709Y-94527299D01*
X139303640Y-94514332D01*
X139312967Y-94502967D01*
X139324332Y-94493640D01*
X139337299Y-94486709D01*
X139351368Y-94482441D01*
X139366000Y-94481000D01*
X139841000Y-94481000D01*
X139855632Y-94482441D01*
G37*
G36*
X140405632Y-94532441D02*
G01*
X140419701Y-94536709D01*
X140432668Y-94543640D01*
X140444033Y-94552967D01*
X140453360Y-94564332D01*
X140460291Y-94577299D01*
X140464559Y-94591368D01*
X140466000Y-94606000D01*
X140466000Y-95081000D01*
X140464559Y-95095632D01*
X140460291Y-95109701D01*
X140453360Y-95122668D01*
X140444033Y-95134033D01*
X140432668Y-95143360D01*
X140419701Y-95150291D01*
X140405632Y-95154559D01*
X140391000Y-95156000D01*
X140141000Y-95156000D01*
X140126368Y-95154559D01*
X140112299Y-95150291D01*
X140099332Y-95143360D01*
X140087967Y-95134033D01*
X140078640Y-95122668D01*
X140071709Y-95109701D01*
X140067441Y-95095632D01*
X140066000Y-95081000D01*
X140066000Y-94812066D01*
X140067441Y-94797434D01*
X140071709Y-94783365D01*
X140078640Y-94770398D01*
X140087967Y-94759033D01*
X140294033Y-94552967D01*
X140305398Y-94543640D01*
X140318365Y-94536709D01*
X140332434Y-94532441D01*
X140347066Y-94531000D01*
X140391000Y-94531000D01*
X140405632Y-94532441D01*
G37*
G36*
G01*
X140566000Y-95056000D02*
X140566000Y-94631000D01*
G75*
G02*
X140666000Y-94531000I100000J0D01*
G01*
X140866000Y-94531000D01*
G75*
G02*
X140966000Y-94631000I0J-100000D01*
G01*
X140966000Y-95056000D01*
G75*
G02*
X140866000Y-95156000I-100000J0D01*
G01*
X140666000Y-95156000D01*
G75*
G02*
X140566000Y-95056000I0J100000D01*
G01*
G37*
G36*
X141199566Y-94532441D02*
G01*
X141213635Y-94536709D01*
X141226602Y-94543640D01*
X141237967Y-94552967D01*
X141444033Y-94759033D01*
X141453360Y-94770398D01*
X141460291Y-94783365D01*
X141464559Y-94797434D01*
X141466000Y-94812066D01*
X141466000Y-95081000D01*
X141464559Y-95095632D01*
X141460291Y-95109701D01*
X141453360Y-95122668D01*
X141444033Y-95134033D01*
X141432668Y-95143360D01*
X141419701Y-95150291D01*
X141405632Y-95154559D01*
X141391000Y-95156000D01*
X141141000Y-95156000D01*
X141126368Y-95154559D01*
X141112299Y-95150291D01*
X141099332Y-95143360D01*
X141087967Y-95134033D01*
X141078640Y-95122668D01*
X141071709Y-95109701D01*
X141067441Y-95095632D01*
X141066000Y-95081000D01*
X141066000Y-94606000D01*
X141067441Y-94591368D01*
X141071709Y-94577299D01*
X141078640Y-94564332D01*
X141087967Y-94552967D01*
X141099332Y-94543640D01*
X141112299Y-94536709D01*
X141126368Y-94532441D01*
X141141000Y-94531000D01*
X141184934Y-94531000D01*
X141199566Y-94532441D01*
G37*
G36*
X142180632Y-94482441D02*
G01*
X142194701Y-94486709D01*
X142207668Y-94493640D01*
X142219033Y-94502967D01*
X142228360Y-94514332D01*
X142235291Y-94527299D01*
X142239559Y-94541368D01*
X142241000Y-94556000D01*
X142241000Y-94806000D01*
X142239559Y-94820632D01*
X142235291Y-94834701D01*
X142228360Y-94847668D01*
X142219033Y-94859033D01*
X142207668Y-94868360D01*
X142194701Y-94875291D01*
X142180632Y-94879559D01*
X142166000Y-94881000D01*
X141897066Y-94881000D01*
X141882434Y-94879559D01*
X141868365Y-94875291D01*
X141855398Y-94868360D01*
X141844033Y-94859033D01*
X141637967Y-94652967D01*
X141628640Y-94641602D01*
X141621709Y-94628635D01*
X141617441Y-94614566D01*
X141616000Y-94599934D01*
X141616000Y-94556000D01*
X141617441Y-94541368D01*
X141621709Y-94527299D01*
X141628640Y-94514332D01*
X141637967Y-94502967D01*
X141649332Y-94493640D01*
X141662299Y-94486709D01*
X141676368Y-94482441D01*
X141691000Y-94481000D01*
X142166000Y-94481000D01*
X142180632Y-94482441D01*
G37*
G36*
G01*
X141616000Y-94281000D02*
X141616000Y-94081000D01*
G75*
G02*
X141716000Y-93981000I100000J0D01*
G01*
X142141000Y-93981000D01*
G75*
G02*
X142241000Y-94081000I0J-100000D01*
G01*
X142241000Y-94281000D01*
G75*
G02*
X142141000Y-94381000I-100000J0D01*
G01*
X141716000Y-94381000D01*
G75*
G02*
X141616000Y-94281000I0J100000D01*
G01*
G37*
G36*
G01*
X141616000Y-93781000D02*
X141616000Y-93581000D01*
G75*
G02*
X141716000Y-93481000I100000J0D01*
G01*
X142141000Y-93481000D01*
G75*
G02*
X142241000Y-93581000I0J-100000D01*
G01*
X142241000Y-93781000D01*
G75*
G02*
X142141000Y-93881000I-100000J0D01*
G01*
X141716000Y-93881000D01*
G75*
G02*
X141616000Y-93781000I0J100000D01*
G01*
G37*
G36*
X142180632Y-92982441D02*
G01*
X142194701Y-92986709D01*
X142207668Y-92993640D01*
X142219033Y-93002967D01*
X142228360Y-93014332D01*
X142235291Y-93027299D01*
X142239559Y-93041368D01*
X142241000Y-93056000D01*
X142241000Y-93306000D01*
X142239559Y-93320632D01*
X142235291Y-93334701D01*
X142228360Y-93347668D01*
X142219033Y-93359033D01*
X142207668Y-93368360D01*
X142194701Y-93375291D01*
X142180632Y-93379559D01*
X142166000Y-93381000D01*
X141691000Y-93381000D01*
X141676368Y-93379559D01*
X141662299Y-93375291D01*
X141649332Y-93368360D01*
X141637967Y-93359033D01*
X141628640Y-93347668D01*
X141621709Y-93334701D01*
X141617441Y-93320632D01*
X141616000Y-93306000D01*
X141616000Y-93262066D01*
X141617441Y-93247434D01*
X141621709Y-93233365D01*
X141628640Y-93220398D01*
X141637967Y-93209033D01*
X141844033Y-93002967D01*
X141855398Y-92993640D01*
X141868365Y-92986709D01*
X141882434Y-92982441D01*
X141897066Y-92981000D01*
X142166000Y-92981000D01*
X142180632Y-92982441D01*
G37*
G36*
X141405632Y-92707441D02*
G01*
X141419701Y-92711709D01*
X141432668Y-92718640D01*
X141444033Y-92727967D01*
X141453360Y-92739332D01*
X141460291Y-92752299D01*
X141464559Y-92766368D01*
X141466000Y-92781000D01*
X141466000Y-93049934D01*
X141464559Y-93064566D01*
X141460291Y-93078635D01*
X141453360Y-93091602D01*
X141444033Y-93102967D01*
X141237967Y-93309033D01*
X141226602Y-93318360D01*
X141213635Y-93325291D01*
X141199566Y-93329559D01*
X141184934Y-93331000D01*
X141141000Y-93331000D01*
X141126368Y-93329559D01*
X141112299Y-93325291D01*
X141099332Y-93318360D01*
X141087967Y-93309033D01*
X141078640Y-93297668D01*
X141071709Y-93284701D01*
X141067441Y-93270632D01*
X141066000Y-93256000D01*
X141066000Y-92781000D01*
X141067441Y-92766368D01*
X141071709Y-92752299D01*
X141078640Y-92739332D01*
X141087967Y-92727967D01*
X141099332Y-92718640D01*
X141112299Y-92711709D01*
X141126368Y-92707441D01*
X141141000Y-92706000D01*
X141391000Y-92706000D01*
X141405632Y-92707441D01*
G37*
G36*
G01*
X140566000Y-93231000D02*
X140566000Y-92806000D01*
G75*
G02*
X140666000Y-92706000I100000J0D01*
G01*
X140866000Y-92706000D01*
G75*
G02*
X140966000Y-92806000I0J-100000D01*
G01*
X140966000Y-93231000D01*
G75*
G02*
X140866000Y-93331000I-100000J0D01*
G01*
X140666000Y-93331000D01*
G75*
G02*
X140566000Y-93231000I0J100000D01*
G01*
G37*
G36*
X140405632Y-92707441D02*
G01*
X140419701Y-92711709D01*
X140432668Y-92718640D01*
X140444033Y-92727967D01*
X140453360Y-92739332D01*
X140460291Y-92752299D01*
X140464559Y-92766368D01*
X140466000Y-92781000D01*
X140466000Y-93256000D01*
X140464559Y-93270632D01*
X140460291Y-93284701D01*
X140453360Y-93297668D01*
X140444033Y-93309033D01*
X140432668Y-93318360D01*
X140419701Y-93325291D01*
X140405632Y-93329559D01*
X140391000Y-93331000D01*
X140347066Y-93331000D01*
X140332434Y-93329559D01*
X140318365Y-93325291D01*
X140305398Y-93318360D01*
X140294033Y-93309033D01*
X140087967Y-93102967D01*
X140078640Y-93091602D01*
X140071709Y-93078635D01*
X140067441Y-93064566D01*
X140066000Y-93049934D01*
X140066000Y-92781000D01*
X140067441Y-92766368D01*
X140071709Y-92752299D01*
X140078640Y-92739332D01*
X140087967Y-92727967D01*
X140099332Y-92718640D01*
X140112299Y-92711709D01*
X140126368Y-92707441D01*
X140141000Y-92706000D01*
X140391000Y-92706000D01*
X140405632Y-92707441D01*
G37*
%TD*%
%TO.C,U5*%
G36*
G01*
X134805000Y-109776000D02*
X134505000Y-109776000D01*
G75*
G02*
X134355000Y-109626000I0J150000D01*
G01*
X134355000Y-107976000D01*
G75*
G02*
X134505000Y-107826000I150000J0D01*
G01*
X134805000Y-107826000D01*
G75*
G02*
X134955000Y-107976000I0J-150000D01*
G01*
X134955000Y-109626000D01*
G75*
G02*
X134805000Y-109776000I-150000J0D01*
G01*
G37*
G36*
G01*
X136075000Y-109776000D02*
X135775000Y-109776000D01*
G75*
G02*
X135625000Y-109626000I0J150000D01*
G01*
X135625000Y-107976000D01*
G75*
G02*
X135775000Y-107826000I150000J0D01*
G01*
X136075000Y-107826000D01*
G75*
G02*
X136225000Y-107976000I0J-150000D01*
G01*
X136225000Y-109626000D01*
G75*
G02*
X136075000Y-109776000I-150000J0D01*
G01*
G37*
G36*
G01*
X137345000Y-109776000D02*
X137045000Y-109776000D01*
G75*
G02*
X136895000Y-109626000I0J150000D01*
G01*
X136895000Y-107976000D01*
G75*
G02*
X137045000Y-107826000I150000J0D01*
G01*
X137345000Y-107826000D01*
G75*
G02*
X137495000Y-107976000I0J-150000D01*
G01*
X137495000Y-109626000D01*
G75*
G02*
X137345000Y-109776000I-150000J0D01*
G01*
G37*
G36*
G01*
X138615000Y-109776000D02*
X138315000Y-109776000D01*
G75*
G02*
X138165000Y-109626000I0J150000D01*
G01*
X138165000Y-107976000D01*
G75*
G02*
X138315000Y-107826000I150000J0D01*
G01*
X138615000Y-107826000D01*
G75*
G02*
X138765000Y-107976000I0J-150000D01*
G01*
X138765000Y-109626000D01*
G75*
G02*
X138615000Y-109776000I-150000J0D01*
G01*
G37*
G36*
G01*
X138615000Y-104826000D02*
X138315000Y-104826000D01*
G75*
G02*
X138165000Y-104676000I0J150000D01*
G01*
X138165000Y-103026000D01*
G75*
G02*
X138315000Y-102876000I150000J0D01*
G01*
X138615000Y-102876000D01*
G75*
G02*
X138765000Y-103026000I0J-150000D01*
G01*
X138765000Y-104676000D01*
G75*
G02*
X138615000Y-104826000I-150000J0D01*
G01*
G37*
G36*
G01*
X137345000Y-104826000D02*
X137045000Y-104826000D01*
G75*
G02*
X136895000Y-104676000I0J150000D01*
G01*
X136895000Y-103026000D01*
G75*
G02*
X137045000Y-102876000I150000J0D01*
G01*
X137345000Y-102876000D01*
G75*
G02*
X137495000Y-103026000I0J-150000D01*
G01*
X137495000Y-104676000D01*
G75*
G02*
X137345000Y-104826000I-150000J0D01*
G01*
G37*
G36*
G01*
X136075000Y-104826000D02*
X135775000Y-104826000D01*
G75*
G02*
X135625000Y-104676000I0J150000D01*
G01*
X135625000Y-103026000D01*
G75*
G02*
X135775000Y-102876000I150000J0D01*
G01*
X136075000Y-102876000D01*
G75*
G02*
X136225000Y-103026000I0J-150000D01*
G01*
X136225000Y-104676000D01*
G75*
G02*
X136075000Y-104826000I-150000J0D01*
G01*
G37*
G36*
G01*
X134805000Y-104826000D02*
X134505000Y-104826000D01*
G75*
G02*
X134355000Y-104676000I0J150000D01*
G01*
X134355000Y-103026000D01*
G75*
G02*
X134505000Y-102876000I150000J0D01*
G01*
X134805000Y-102876000D01*
G75*
G02*
X134955000Y-103026000I0J-150000D01*
G01*
X134955000Y-104676000D01*
G75*
G02*
X134805000Y-104826000I-150000J0D01*
G01*
G37*
%TD*%
D18*
%TO.C,SW1*%
X102800000Y-86470000D03*
X102800000Y-89470000D03*
D25*
X104560000Y-85720000D03*
X104560000Y-88720000D03*
X104560000Y-90220000D03*
D26*
X101700000Y-84320000D03*
X101700000Y-91620000D03*
X103910000Y-91620000D03*
X103910000Y-84320000D03*
%TD*%
D27*
%TO.C,J4*%
X132900000Y-76100000D03*
D28*
X127820000Y-76100000D03*
X122740000Y-76100000D03*
X117660000Y-76100000D03*
%TD*%
%TO.C,J5*%
X132840000Y-120800000D03*
X127760000Y-120800000D03*
X122680000Y-120800000D03*
D27*
X117600000Y-120800000D03*
%TD*%
D29*
%TO.C,J3*%
X146340000Y-76710000D03*
X146340000Y-80610000D03*
X145070000Y-76710000D03*
X145070000Y-80610000D03*
X143800000Y-76710000D03*
X143800000Y-80610000D03*
X142530000Y-76710000D03*
X142530000Y-80610000D03*
X141260000Y-76710000D03*
X141260000Y-80610000D03*
%TD*%
%TO.C,FB1*%
G36*
G01*
X158981250Y-108350000D02*
X158218750Y-108350000D01*
G75*
G02*
X158000000Y-108131250I0J218750D01*
G01*
X158000000Y-107693750D01*
G75*
G02*
X158218750Y-107475000I218750J0D01*
G01*
X158981250Y-107475000D01*
G75*
G02*
X159200000Y-107693750I0J-218750D01*
G01*
X159200000Y-108131250D01*
G75*
G02*
X158981250Y-108350000I-218750J0D01*
G01*
G37*
G36*
G01*
X158981250Y-106225000D02*
X158218750Y-106225000D01*
G75*
G02*
X158000000Y-106006250I0J218750D01*
G01*
X158000000Y-105568750D01*
G75*
G02*
X158218750Y-105350000I218750J0D01*
G01*
X158981250Y-105350000D01*
G75*
G02*
X159200000Y-105568750I0J-218750D01*
G01*
X159200000Y-106006250D01*
G75*
G02*
X158981250Y-106225000I-218750J0D01*
G01*
G37*
%TD*%
%TO.C,C15*%
G36*
G01*
X150235000Y-122020000D02*
X149285000Y-122020000D01*
G75*
G02*
X149035000Y-121770000I0J250000D01*
G01*
X149035000Y-121270000D01*
G75*
G02*
X149285000Y-121020000I250000J0D01*
G01*
X150235000Y-121020000D01*
G75*
G02*
X150485000Y-121270000I0J-250000D01*
G01*
X150485000Y-121770000D01*
G75*
G02*
X150235000Y-122020000I-250000J0D01*
G01*
G37*
G36*
G01*
X150235000Y-120120000D02*
X149285000Y-120120000D01*
G75*
G02*
X149035000Y-119870000I0J250000D01*
G01*
X149035000Y-119370000D01*
G75*
G02*
X149285000Y-119120000I250000J0D01*
G01*
X150235000Y-119120000D01*
G75*
G02*
X150485000Y-119370000I0J-250000D01*
G01*
X150485000Y-119870000D01*
G75*
G02*
X150235000Y-120120000I-250000J0D01*
G01*
G37*
%TD*%
M02*
