%TF.GenerationSoftware,KiCad,Pcbnew,(5.1.7)-1*%
%TF.CreationDate,2021-01-30T20:15:53-05:00*%
%TF.ProjectId,STM32F4_Eval,53544d33-3246-4345-9f45-76616c2e6b69,rev?*%
%TF.SameCoordinates,Original*%
%TF.FileFunction,Copper,L1,Top*%
%TF.FilePolarity,Positive*%
%FSLAX46Y46*%
G04 Gerber Fmt 4.6, Leading zero omitted, Abs format (unit mm)*
G04 Created by KiCad (PCBNEW (5.1.7)-1) date 2021-01-30 20:15:53*
%MOMM*%
%LPD*%
G01*
G04 APERTURE LIST*
%TA.AperFunction,SMDPad,CuDef*%
%ADD10R,1.060000X0.650000*%
%TD*%
%TA.AperFunction,SMDPad,CuDef*%
%ADD11R,1.900000X1.500000*%
%TD*%
%TA.AperFunction,ComponentPad*%
%ADD12C,1.450000*%
%TD*%
%TA.AperFunction,SMDPad,CuDef*%
%ADD13R,1.350000X0.400000*%
%TD*%
%TA.AperFunction,ComponentPad*%
%ADD14O,1.900000X1.200000*%
%TD*%
%TA.AperFunction,SMDPad,CuDef*%
%ADD15R,1.900000X1.200000*%
%TD*%
%TA.AperFunction,SMDPad,CuDef*%
%ADD16R,1.200000X0.900000*%
%TD*%
%TA.AperFunction,ComponentPad*%
%ADD17C,8.600000*%
%TD*%
%TA.AperFunction,ComponentPad*%
%ADD18C,0.900000*%
%TD*%
%TA.AperFunction,ComponentPad*%
%ADD19C,2.400000*%
%TD*%
%TA.AperFunction,ComponentPad*%
%ADD20R,2.400000X2.400000*%
%TD*%
%TA.AperFunction,SMDPad,CuDef*%
%ADD21R,2.500000X1.900000*%
%TD*%
%TA.AperFunction,SMDPad,CuDef*%
%ADD22R,0.800000X0.900000*%
%TD*%
%TA.AperFunction,SMDPad,CuDef*%
%ADD23R,1.200000X1.400000*%
%TD*%
%TA.AperFunction,SMDPad,CuDef*%
%ADD24C,0.100000*%
%TD*%
%TA.AperFunction,SMDPad,CuDef*%
%ADD25R,1.500000X0.700000*%
%TD*%
%TA.AperFunction,SMDPad,CuDef*%
%ADD26R,0.800000X1.000000*%
%TD*%
%TA.AperFunction,ComponentPad*%
%ADD27R,2.600000X2.600000*%
%TD*%
%TA.AperFunction,ComponentPad*%
%ADD28C,2.600000*%
%TD*%
%TA.AperFunction,SMDPad,CuDef*%
%ADD29R,0.740000X2.400000*%
%TD*%
%TA.AperFunction,ViaPad*%
%ADD30C,0.800000*%
%TD*%
%TA.AperFunction,ViaPad*%
%ADD31C,0.750000*%
%TD*%
%TA.AperFunction,Conductor*%
%ADD32C,0.300000*%
%TD*%
%TA.AperFunction,Conductor*%
%ADD33C,1.000000*%
%TD*%
%TA.AperFunction,Conductor*%
%ADD34C,0.500000*%
%TD*%
%TA.AperFunction,Conductor*%
%ADD35C,0.750000*%
%TD*%
%TA.AperFunction,Conductor*%
%ADD36C,0.400000*%
%TD*%
%TA.AperFunction,Conductor*%
%ADD37C,0.261112*%
%TD*%
G04 APERTURE END LIST*
D10*
%TO.P,U2,1*%
%TO.N,GND*%
X154140000Y-110740000D03*
%TO.P,U2,2*%
%TO.N,BUCK_SW*%
X154140000Y-111690000D03*
%TO.P,U2,3*%
%TO.N,BUCK_EN*%
X154140000Y-112640000D03*
%TO.P,U2,4*%
%TO.N,BUCK_FB*%
X156340000Y-112640000D03*
%TO.P,U2,6*%
%TO.N,BUCK_BST*%
X156340000Y-110740000D03*
%TO.P,U2,5*%
%TO.N,BUCK_EN*%
X156340000Y-111690000D03*
%TD*%
%TO.P,C14,2*%
%TO.N,BUCK_BST*%
%TA.AperFunction,SMDPad,CuDef*%
G36*
G01*
X155910000Y-109470000D02*
X155910000Y-109130000D01*
G75*
G02*
X156050000Y-108990000I140000J0D01*
G01*
X156330000Y-108990000D01*
G75*
G02*
X156470000Y-109130000I0J-140000D01*
G01*
X156470000Y-109470000D01*
G75*
G02*
X156330000Y-109610000I-140000J0D01*
G01*
X156050000Y-109610000D01*
G75*
G02*
X155910000Y-109470000I0J140000D01*
G01*
G37*
%TD.AperFunction*%
%TO.P,C14,1*%
%TO.N,BUCK_SW*%
%TA.AperFunction,SMDPad,CuDef*%
G36*
G01*
X154950000Y-109470000D02*
X154950000Y-109130000D01*
G75*
G02*
X155090000Y-108990000I140000J0D01*
G01*
X155370000Y-108990000D01*
G75*
G02*
X155510000Y-109130000I0J-140000D01*
G01*
X155510000Y-109470000D01*
G75*
G02*
X155370000Y-109610000I-140000J0D01*
G01*
X155090000Y-109610000D01*
G75*
G02*
X154950000Y-109470000I0J140000D01*
G01*
G37*
%TD.AperFunction*%
%TD*%
D11*
%TO.P,J2,6*%
%TO.N,Net-(J2-Pad6)*%
X174487500Y-91500000D03*
D12*
X171787500Y-95000000D03*
D13*
%TO.P,J2,2*%
%TO.N,USB_CONN_D-*%
X171787500Y-93150000D03*
%TO.P,J2,1*%
%TO.N,+5V*%
X171787500Y-93800000D03*
%TO.P,J2,5*%
%TO.N,GND*%
X171787500Y-91200000D03*
%TO.P,J2,4*%
%TO.N,Net-(J2-Pad4)*%
X171787500Y-91850000D03*
%TO.P,J2,3*%
%TO.N,USB_CONN_D+*%
X171787500Y-92500000D03*
D12*
%TO.P,J2,6*%
%TO.N,Net-(J2-Pad6)*%
X171787500Y-90000000D03*
D11*
X174487500Y-93500000D03*
D14*
X174487500Y-96000000D03*
X174487500Y-89000000D03*
D15*
X174487500Y-89600000D03*
X174487500Y-95400000D03*
%TD*%
%TO.P,R1,2*%
%TO.N,BOOT0*%
%TA.AperFunction,SMDPad,CuDef*%
G36*
G01*
X109680000Y-88925000D02*
X109680000Y-88555000D01*
G75*
G02*
X109815000Y-88420000I135000J0D01*
G01*
X110085000Y-88420000D01*
G75*
G02*
X110220000Y-88555000I0J-135000D01*
G01*
X110220000Y-88925000D01*
G75*
G02*
X110085000Y-89060000I-135000J0D01*
G01*
X109815000Y-89060000D01*
G75*
G02*
X109680000Y-88925000I0J135000D01*
G01*
G37*
%TD.AperFunction*%
%TO.P,R1,1*%
%TO.N,Net-(R1-Pad1)*%
%TA.AperFunction,SMDPad,CuDef*%
G36*
G01*
X108660000Y-88925000D02*
X108660000Y-88555000D01*
G75*
G02*
X108795000Y-88420000I135000J0D01*
G01*
X109065000Y-88420000D01*
G75*
G02*
X109200000Y-88555000I0J-135000D01*
G01*
X109200000Y-88925000D01*
G75*
G02*
X109065000Y-89060000I-135000J0D01*
G01*
X108795000Y-89060000D01*
G75*
G02*
X108660000Y-88925000I0J135000D01*
G01*
G37*
%TD.AperFunction*%
%TD*%
%TO.P,D2,1*%
%TO.N,Net-(D2-Pad1)*%
%TA.AperFunction,SMDPad,CuDef*%
G36*
G01*
X159162500Y-73956250D02*
X159162500Y-73443750D01*
G75*
G02*
X159381250Y-73225000I218750J0D01*
G01*
X159818750Y-73225000D01*
G75*
G02*
X160037500Y-73443750I0J-218750D01*
G01*
X160037500Y-73956250D01*
G75*
G02*
X159818750Y-74175000I-218750J0D01*
G01*
X159381250Y-74175000D01*
G75*
G02*
X159162500Y-73956250I0J218750D01*
G01*
G37*
%TD.AperFunction*%
%TO.P,D2,2*%
%TO.N,LED_STATUS*%
%TA.AperFunction,SMDPad,CuDef*%
G36*
G01*
X160737500Y-73956250D02*
X160737500Y-73443750D01*
G75*
G02*
X160956250Y-73225000I218750J0D01*
G01*
X161393750Y-73225000D01*
G75*
G02*
X161612500Y-73443750I0J-218750D01*
G01*
X161612500Y-73956250D01*
G75*
G02*
X161393750Y-74175000I-218750J0D01*
G01*
X160956250Y-74175000D01*
G75*
G02*
X160737500Y-73956250I0J218750D01*
G01*
G37*
%TD.AperFunction*%
%TD*%
%TO.P,L1,1*%
%TO.N,+3V3*%
%TA.AperFunction,SMDPad,CuDef*%
G36*
G01*
X115665000Y-103572500D02*
X115665000Y-103227500D01*
G75*
G02*
X115812500Y-103080000I147500J0D01*
G01*
X116107500Y-103080000D01*
G75*
G02*
X116255000Y-103227500I0J-147500D01*
G01*
X116255000Y-103572500D01*
G75*
G02*
X116107500Y-103720000I-147500J0D01*
G01*
X115812500Y-103720000D01*
G75*
G02*
X115665000Y-103572500I0J147500D01*
G01*
G37*
%TD.AperFunction*%
%TO.P,L1,2*%
%TO.N,+3.3VA*%
%TA.AperFunction,SMDPad,CuDef*%
G36*
G01*
X116635000Y-103572500D02*
X116635000Y-103227500D01*
G75*
G02*
X116782500Y-103080000I147500J0D01*
G01*
X117077500Y-103080000D01*
G75*
G02*
X117225000Y-103227500I0J-147500D01*
G01*
X117225000Y-103572500D01*
G75*
G02*
X117077500Y-103720000I-147500J0D01*
G01*
X116782500Y-103720000D01*
G75*
G02*
X116635000Y-103572500I0J147500D01*
G01*
G37*
%TD.AperFunction*%
%TD*%
D16*
%TO.P,D3,1*%
%TO.N,Net-(D3-Pad1)*%
X169150000Y-99150000D03*
%TO.P,D3,2*%
%TO.N,+5V*%
X169150000Y-95850000D03*
%TD*%
D17*
%TO.P,H2,1*%
%TO.N,GND*%
X106250000Y-121250000D03*
D18*
X109475000Y-121250000D03*
X108530419Y-123530419D03*
X106250000Y-124475000D03*
X103969581Y-123530419D03*
X103025000Y-121250000D03*
X103969581Y-118969581D03*
X106250000Y-118025000D03*
X108530419Y-118969581D03*
%TD*%
D19*
%TO.P,J1,2*%
%TO.N,GND*%
X170800000Y-106900000D03*
D20*
%TO.P,J1,1*%
%TO.N,+12V*%
X170800000Y-110400000D03*
%TD*%
D21*
%TO.P,L2,1*%
%TO.N,BUCK_SW*%
X149760000Y-112270000D03*
%TO.P,L2,2*%
%TO.N,+3V3*%
X149760000Y-116370000D03*
%TD*%
D22*
%TO.P,Q1,3*%
%TO.N,+12V*%
X165230000Y-110190000D03*
%TO.P,Q1,2*%
%TO.N,Net-(D3-Pad1)*%
X164280000Y-108190000D03*
%TO.P,Q1,1*%
%TO.N,GND*%
X166180000Y-108190000D03*
%TD*%
D18*
%TO.P,H3,1*%
%TO.N,GND*%
X173280419Y-118969581D03*
X171000000Y-118025000D03*
X168719581Y-118969581D03*
X167775000Y-121250000D03*
X168719581Y-123530419D03*
X171000000Y-124475000D03*
X173280419Y-123530419D03*
X174225000Y-121250000D03*
D17*
X171000000Y-121250000D03*
%TD*%
D18*
%TO.P,H1,1*%
%TO.N,GND*%
X108530419Y-73469581D03*
X106250000Y-72525000D03*
X103969581Y-73469581D03*
X103025000Y-75750000D03*
X103969581Y-78030419D03*
X106250000Y-78975000D03*
X108530419Y-78030419D03*
X109475000Y-75750000D03*
D17*
X106250000Y-75750000D03*
%TD*%
%TO.P,H4,1*%
%TO.N,GND*%
X170750000Y-75750000D03*
D18*
X173975000Y-75750000D03*
X173030419Y-78030419D03*
X170750000Y-78975000D03*
X168469581Y-78030419D03*
X167525000Y-75750000D03*
X168469581Y-73469581D03*
X170750000Y-72525000D03*
X173030419Y-73469581D03*
%TD*%
%TO.P,F1,1*%
%TO.N,Net-(F1-Pad1)*%
%TA.AperFunction,SMDPad,CuDef*%
G36*
G01*
X160875000Y-104765000D02*
X162125000Y-104765000D01*
G75*
G02*
X162375000Y-105015000I0J-250000D01*
G01*
X162375000Y-105765000D01*
G75*
G02*
X162125000Y-106015000I-250000J0D01*
G01*
X160875000Y-106015000D01*
G75*
G02*
X160625000Y-105765000I0J250000D01*
G01*
X160625000Y-105015000D01*
G75*
G02*
X160875000Y-104765000I250000J0D01*
G01*
G37*
%TD.AperFunction*%
%TO.P,F1,2*%
%TO.N,Net-(D3-Pad1)*%
%TA.AperFunction,SMDPad,CuDef*%
G36*
G01*
X160875000Y-107565000D02*
X162125000Y-107565000D01*
G75*
G02*
X162375000Y-107815000I0J-250000D01*
G01*
X162375000Y-108565000D01*
G75*
G02*
X162125000Y-108815000I-250000J0D01*
G01*
X160875000Y-108815000D01*
G75*
G02*
X160625000Y-108565000I0J250000D01*
G01*
X160625000Y-107815000D01*
G75*
G02*
X160875000Y-107565000I250000J0D01*
G01*
G37*
%TD.AperFunction*%
%TD*%
%TO.P,C1,1*%
%TO.N,+3V3*%
%TA.AperFunction,SMDPad,CuDef*%
G36*
G01*
X120725000Y-91925000D02*
X120725000Y-92425000D01*
G75*
G02*
X120500000Y-92650000I-225000J0D01*
G01*
X120050000Y-92650000D01*
G75*
G02*
X119825000Y-92425000I0J225000D01*
G01*
X119825000Y-91925000D01*
G75*
G02*
X120050000Y-91700000I225000J0D01*
G01*
X120500000Y-91700000D01*
G75*
G02*
X120725000Y-91925000I0J-225000D01*
G01*
G37*
%TD.AperFunction*%
%TO.P,C1,2*%
%TO.N,GND*%
%TA.AperFunction,SMDPad,CuDef*%
G36*
G01*
X119175000Y-91925000D02*
X119175000Y-92425000D01*
G75*
G02*
X118950000Y-92650000I-225000J0D01*
G01*
X118500000Y-92650000D01*
G75*
G02*
X118275000Y-92425000I0J225000D01*
G01*
X118275000Y-91925000D01*
G75*
G02*
X118500000Y-91700000I225000J0D01*
G01*
X118950000Y-91700000D01*
G75*
G02*
X119175000Y-91925000I0J-225000D01*
G01*
G37*
%TD.AperFunction*%
%TD*%
%TO.P,C5,1*%
%TO.N,+3V3*%
%TA.AperFunction,SMDPad,CuDef*%
G36*
G01*
X131870000Y-94990000D02*
X131870000Y-94650000D01*
G75*
G02*
X132010000Y-94510000I140000J0D01*
G01*
X132290000Y-94510000D01*
G75*
G02*
X132430000Y-94650000I0J-140000D01*
G01*
X132430000Y-94990000D01*
G75*
G02*
X132290000Y-95130000I-140000J0D01*
G01*
X132010000Y-95130000D01*
G75*
G02*
X131870000Y-94990000I0J140000D01*
G01*
G37*
%TD.AperFunction*%
%TO.P,C5,2*%
%TO.N,GND*%
%TA.AperFunction,SMDPad,CuDef*%
G36*
G01*
X132830000Y-94990000D02*
X132830000Y-94650000D01*
G75*
G02*
X132970000Y-94510000I140000J0D01*
G01*
X133250000Y-94510000D01*
G75*
G02*
X133390000Y-94650000I0J-140000D01*
G01*
X133390000Y-94990000D01*
G75*
G02*
X133250000Y-95130000I-140000J0D01*
G01*
X132970000Y-95130000D01*
G75*
G02*
X132830000Y-94990000I0J140000D01*
G01*
G37*
%TD.AperFunction*%
%TD*%
%TO.P,C7,1*%
%TO.N,+3.3VA*%
%TA.AperFunction,SMDPad,CuDef*%
G36*
G01*
X117280000Y-102148000D02*
X116940000Y-102148000D01*
G75*
G02*
X116800000Y-102008000I0J140000D01*
G01*
X116800000Y-101728000D01*
G75*
G02*
X116940000Y-101588000I140000J0D01*
G01*
X117280000Y-101588000D01*
G75*
G02*
X117420000Y-101728000I0J-140000D01*
G01*
X117420000Y-102008000D01*
G75*
G02*
X117280000Y-102148000I-140000J0D01*
G01*
G37*
%TD.AperFunction*%
%TO.P,C7,2*%
%TO.N,GND*%
%TA.AperFunction,SMDPad,CuDef*%
G36*
G01*
X117280000Y-101188000D02*
X116940000Y-101188000D01*
G75*
G02*
X116800000Y-101048000I0J140000D01*
G01*
X116800000Y-100768000D01*
G75*
G02*
X116940000Y-100628000I140000J0D01*
G01*
X117280000Y-100628000D01*
G75*
G02*
X117420000Y-100768000I0J-140000D01*
G01*
X117420000Y-101048000D01*
G75*
G02*
X117280000Y-101188000I-140000J0D01*
G01*
G37*
%TD.AperFunction*%
%TD*%
%TO.P,C2,1*%
%TO.N,+3V3*%
%TA.AperFunction,SMDPad,CuDef*%
G36*
G01*
X120100000Y-94620000D02*
X120100000Y-94960000D01*
G75*
G02*
X119960000Y-95100000I-140000J0D01*
G01*
X119680000Y-95100000D01*
G75*
G02*
X119540000Y-94960000I0J140000D01*
G01*
X119540000Y-94620000D01*
G75*
G02*
X119680000Y-94480000I140000J0D01*
G01*
X119960000Y-94480000D01*
G75*
G02*
X120100000Y-94620000I0J-140000D01*
G01*
G37*
%TD.AperFunction*%
%TO.P,C2,2*%
%TO.N,GND*%
%TA.AperFunction,SMDPad,CuDef*%
G36*
G01*
X119140000Y-94620000D02*
X119140000Y-94960000D01*
G75*
G02*
X119000000Y-95100000I-140000J0D01*
G01*
X118720000Y-95100000D01*
G75*
G02*
X118580000Y-94960000I0J140000D01*
G01*
X118580000Y-94620000D01*
G75*
G02*
X118720000Y-94480000I140000J0D01*
G01*
X119000000Y-94480000D01*
G75*
G02*
X119140000Y-94620000I0J-140000D01*
G01*
G37*
%TD.AperFunction*%
%TD*%
%TO.P,C3,2*%
%TO.N,GND*%
%TA.AperFunction,SMDPad,CuDef*%
G36*
G01*
X122770000Y-107050000D02*
X122770000Y-107390000D01*
G75*
G02*
X122630000Y-107530000I-140000J0D01*
G01*
X122350000Y-107530000D01*
G75*
G02*
X122210000Y-107390000I0J140000D01*
G01*
X122210000Y-107050000D01*
G75*
G02*
X122350000Y-106910000I140000J0D01*
G01*
X122630000Y-106910000D01*
G75*
G02*
X122770000Y-107050000I0J-140000D01*
G01*
G37*
%TD.AperFunction*%
%TO.P,C3,1*%
%TO.N,+3V3*%
%TA.AperFunction,SMDPad,CuDef*%
G36*
G01*
X123730000Y-107050000D02*
X123730000Y-107390000D01*
G75*
G02*
X123590000Y-107530000I-140000J0D01*
G01*
X123310000Y-107530000D01*
G75*
G02*
X123170000Y-107390000I0J140000D01*
G01*
X123170000Y-107050000D01*
G75*
G02*
X123310000Y-106910000I140000J0D01*
G01*
X123590000Y-106910000D01*
G75*
G02*
X123730000Y-107050000I0J-140000D01*
G01*
G37*
%TD.AperFunction*%
%TD*%
%TO.P,C6,2*%
%TO.N,GND*%
%TA.AperFunction,SMDPad,CuDef*%
G36*
G01*
X122650000Y-92290000D02*
X122650000Y-91950000D01*
G75*
G02*
X122790000Y-91810000I140000J0D01*
G01*
X123070000Y-91810000D01*
G75*
G02*
X123210000Y-91950000I0J-140000D01*
G01*
X123210000Y-92290000D01*
G75*
G02*
X123070000Y-92430000I-140000J0D01*
G01*
X122790000Y-92430000D01*
G75*
G02*
X122650000Y-92290000I0J140000D01*
G01*
G37*
%TD.AperFunction*%
%TO.P,C6,1*%
%TO.N,+3V3*%
%TA.AperFunction,SMDPad,CuDef*%
G36*
G01*
X121690000Y-92290000D02*
X121690000Y-91950000D01*
G75*
G02*
X121830000Y-91810000I140000J0D01*
G01*
X122110000Y-91810000D01*
G75*
G02*
X122250000Y-91950000I0J-140000D01*
G01*
X122250000Y-92290000D01*
G75*
G02*
X122110000Y-92430000I-140000J0D01*
G01*
X121830000Y-92430000D01*
G75*
G02*
X121690000Y-92290000I0J140000D01*
G01*
G37*
%TD.AperFunction*%
%TD*%
%TO.P,C4,2*%
%TO.N,GND*%
%TA.AperFunction,SMDPad,CuDef*%
G36*
G01*
X131610000Y-105890000D02*
X131610000Y-105550000D01*
G75*
G02*
X131750000Y-105410000I140000J0D01*
G01*
X132030000Y-105410000D01*
G75*
G02*
X132170000Y-105550000I0J-140000D01*
G01*
X132170000Y-105890000D01*
G75*
G02*
X132030000Y-106030000I-140000J0D01*
G01*
X131750000Y-106030000D01*
G75*
G02*
X131610000Y-105890000I0J140000D01*
G01*
G37*
%TD.AperFunction*%
%TO.P,C4,1*%
%TO.N,+3V3*%
%TA.AperFunction,SMDPad,CuDef*%
G36*
G01*
X130650000Y-105890000D02*
X130650000Y-105550000D01*
G75*
G02*
X130790000Y-105410000I140000J0D01*
G01*
X131070000Y-105410000D01*
G75*
G02*
X131210000Y-105550000I0J-140000D01*
G01*
X131210000Y-105890000D01*
G75*
G02*
X131070000Y-106030000I-140000J0D01*
G01*
X130790000Y-106030000D01*
G75*
G02*
X130650000Y-105890000I0J140000D01*
G01*
G37*
%TD.AperFunction*%
%TD*%
%TO.P,C8,2*%
%TO.N,GND*%
%TA.AperFunction,SMDPad,CuDef*%
G36*
G01*
X118570000Y-101188000D02*
X118230000Y-101188000D01*
G75*
G02*
X118090000Y-101048000I0J140000D01*
G01*
X118090000Y-100768000D01*
G75*
G02*
X118230000Y-100628000I140000J0D01*
G01*
X118570000Y-100628000D01*
G75*
G02*
X118710000Y-100768000I0J-140000D01*
G01*
X118710000Y-101048000D01*
G75*
G02*
X118570000Y-101188000I-140000J0D01*
G01*
G37*
%TD.AperFunction*%
%TO.P,C8,1*%
%TO.N,+3.3VA*%
%TA.AperFunction,SMDPad,CuDef*%
G36*
G01*
X118570000Y-102148000D02*
X118230000Y-102148000D01*
G75*
G02*
X118090000Y-102008000I0J140000D01*
G01*
X118090000Y-101728000D01*
G75*
G02*
X118230000Y-101588000I140000J0D01*
G01*
X118570000Y-101588000D01*
G75*
G02*
X118710000Y-101728000I0J-140000D01*
G01*
X118710000Y-102008000D01*
G75*
G02*
X118570000Y-102148000I-140000J0D01*
G01*
G37*
%TD.AperFunction*%
%TD*%
%TO.P,R2,1*%
%TO.N,Net-(D2-Pad1)*%
%TA.AperFunction,SMDPad,CuDef*%
G36*
G01*
X158325000Y-73425000D02*
X158325000Y-73975000D01*
G75*
G02*
X158125000Y-74175000I-200000J0D01*
G01*
X157725000Y-74175000D01*
G75*
G02*
X157525000Y-73975000I0J200000D01*
G01*
X157525000Y-73425000D01*
G75*
G02*
X157725000Y-73225000I200000J0D01*
G01*
X158125000Y-73225000D01*
G75*
G02*
X158325000Y-73425000I0J-200000D01*
G01*
G37*
%TD.AperFunction*%
%TO.P,R2,2*%
%TO.N,GND*%
%TA.AperFunction,SMDPad,CuDef*%
G36*
G01*
X156675000Y-73425000D02*
X156675000Y-73975000D01*
G75*
G02*
X156475000Y-74175000I-200000J0D01*
G01*
X156075000Y-74175000D01*
G75*
G02*
X155875000Y-73975000I0J200000D01*
G01*
X155875000Y-73425000D01*
G75*
G02*
X156075000Y-73225000I200000J0D01*
G01*
X156475000Y-73225000D01*
G75*
G02*
X156675000Y-73425000I0J-200000D01*
G01*
G37*
%TD.AperFunction*%
%TD*%
%TO.P,R11,2*%
%TO.N,GND*%
%TA.AperFunction,SMDPad,CuDef*%
G36*
G01*
X173865000Y-102005000D02*
X173865000Y-101455000D01*
G75*
G02*
X174065000Y-101255000I200000J0D01*
G01*
X174465000Y-101255000D01*
G75*
G02*
X174665000Y-101455000I0J-200000D01*
G01*
X174665000Y-102005000D01*
G75*
G02*
X174465000Y-102205000I-200000J0D01*
G01*
X174065000Y-102205000D01*
G75*
G02*
X173865000Y-102005000I0J200000D01*
G01*
G37*
%TD.AperFunction*%
%TO.P,R11,1*%
%TO.N,Net-(D1-Pad1)*%
%TA.AperFunction,SMDPad,CuDef*%
G36*
G01*
X172215000Y-102005000D02*
X172215000Y-101455000D01*
G75*
G02*
X172415000Y-101255000I200000J0D01*
G01*
X172815000Y-101255000D01*
G75*
G02*
X173015000Y-101455000I0J-200000D01*
G01*
X173015000Y-102005000D01*
G75*
G02*
X172815000Y-102205000I-200000J0D01*
G01*
X172415000Y-102205000D01*
G75*
G02*
X172215000Y-102005000I0J200000D01*
G01*
G37*
%TD.AperFunction*%
%TD*%
D23*
%TO.P,Y1,4*%
%TO.N,GND*%
X115575000Y-96775000D03*
%TO.P,Y1,3*%
%TO.N,Net-(C12-Pad1)*%
X115575000Y-98975000D03*
%TO.P,Y1,2*%
%TO.N,GND*%
X113875000Y-98975000D03*
%TO.P,Y1,1*%
%TO.N,HSE_IN*%
X113875000Y-96775000D03*
%TD*%
%TO.P,R9,1*%
%TO.N,BUCK_FB*%
%TA.AperFunction,SMDPad,CuDef*%
G36*
G01*
X160065000Y-112420000D02*
X160615000Y-112420000D01*
G75*
G02*
X160815000Y-112620000I0J-200000D01*
G01*
X160815000Y-113020000D01*
G75*
G02*
X160615000Y-113220000I-200000J0D01*
G01*
X160065000Y-113220000D01*
G75*
G02*
X159865000Y-113020000I0J200000D01*
G01*
X159865000Y-112620000D01*
G75*
G02*
X160065000Y-112420000I200000J0D01*
G01*
G37*
%TD.AperFunction*%
%TO.P,R9,2*%
%TO.N,GND*%
%TA.AperFunction,SMDPad,CuDef*%
G36*
G01*
X160065000Y-114070000D02*
X160615000Y-114070000D01*
G75*
G02*
X160815000Y-114270000I0J-200000D01*
G01*
X160815000Y-114670000D01*
G75*
G02*
X160615000Y-114870000I-200000J0D01*
G01*
X160065000Y-114870000D01*
G75*
G02*
X159865000Y-114670000I0J200000D01*
G01*
X159865000Y-114270000D01*
G75*
G02*
X160065000Y-114070000I200000J0D01*
G01*
G37*
%TD.AperFunction*%
%TD*%
%TO.P,U1,1*%
%TO.N,+3V3*%
%TA.AperFunction,SMDPad,CuDef*%
G36*
G01*
X119500000Y-95963000D02*
X119500000Y-95813000D01*
G75*
G02*
X119575000Y-95738000I75000J0D01*
G01*
X120975000Y-95738000D01*
G75*
G02*
X121050000Y-95813000I0J-75000D01*
G01*
X121050000Y-95963000D01*
G75*
G02*
X120975000Y-96038000I-75000J0D01*
G01*
X119575000Y-96038000D01*
G75*
G02*
X119500000Y-95963000I0J75000D01*
G01*
G37*
%TD.AperFunction*%
%TO.P,U1,2*%
%TO.N,Net-(U1-Pad2)*%
%TA.AperFunction,SMDPad,CuDef*%
G36*
G01*
X119500000Y-96463000D02*
X119500000Y-96313000D01*
G75*
G02*
X119575000Y-96238000I75000J0D01*
G01*
X120975000Y-96238000D01*
G75*
G02*
X121050000Y-96313000I0J-75000D01*
G01*
X121050000Y-96463000D01*
G75*
G02*
X120975000Y-96538000I-75000J0D01*
G01*
X119575000Y-96538000D01*
G75*
G02*
X119500000Y-96463000I0J75000D01*
G01*
G37*
%TD.AperFunction*%
%TO.P,U1,3*%
%TO.N,Net-(U1-Pad3)*%
%TA.AperFunction,SMDPad,CuDef*%
G36*
G01*
X119500000Y-96963000D02*
X119500000Y-96813000D01*
G75*
G02*
X119575000Y-96738000I75000J0D01*
G01*
X120975000Y-96738000D01*
G75*
G02*
X121050000Y-96813000I0J-75000D01*
G01*
X121050000Y-96963000D01*
G75*
G02*
X120975000Y-97038000I-75000J0D01*
G01*
X119575000Y-97038000D01*
G75*
G02*
X119500000Y-96963000I0J75000D01*
G01*
G37*
%TD.AperFunction*%
%TO.P,U1,4*%
%TO.N,Net-(U1-Pad4)*%
%TA.AperFunction,SMDPad,CuDef*%
G36*
G01*
X119500000Y-97463000D02*
X119500000Y-97313000D01*
G75*
G02*
X119575000Y-97238000I75000J0D01*
G01*
X120975000Y-97238000D01*
G75*
G02*
X121050000Y-97313000I0J-75000D01*
G01*
X121050000Y-97463000D01*
G75*
G02*
X120975000Y-97538000I-75000J0D01*
G01*
X119575000Y-97538000D01*
G75*
G02*
X119500000Y-97463000I0J75000D01*
G01*
G37*
%TD.AperFunction*%
%TO.P,U1,5*%
%TO.N,HSE_IN*%
%TA.AperFunction,SMDPad,CuDef*%
G36*
G01*
X119500000Y-97963000D02*
X119500000Y-97813000D01*
G75*
G02*
X119575000Y-97738000I75000J0D01*
G01*
X120975000Y-97738000D01*
G75*
G02*
X121050000Y-97813000I0J-75000D01*
G01*
X121050000Y-97963000D01*
G75*
G02*
X120975000Y-98038000I-75000J0D01*
G01*
X119575000Y-98038000D01*
G75*
G02*
X119500000Y-97963000I0J75000D01*
G01*
G37*
%TD.AperFunction*%
%TO.P,U1,6*%
%TO.N,HSE_OUT*%
%TA.AperFunction,SMDPad,CuDef*%
G36*
G01*
X119500000Y-98463000D02*
X119500000Y-98313000D01*
G75*
G02*
X119575000Y-98238000I75000J0D01*
G01*
X120975000Y-98238000D01*
G75*
G02*
X121050000Y-98313000I0J-75000D01*
G01*
X121050000Y-98463000D01*
G75*
G02*
X120975000Y-98538000I-75000J0D01*
G01*
X119575000Y-98538000D01*
G75*
G02*
X119500000Y-98463000I0J75000D01*
G01*
G37*
%TD.AperFunction*%
%TO.P,U1,7*%
%TO.N,NRST*%
%TA.AperFunction,SMDPad,CuDef*%
G36*
G01*
X119500000Y-98963000D02*
X119500000Y-98813000D01*
G75*
G02*
X119575000Y-98738000I75000J0D01*
G01*
X120975000Y-98738000D01*
G75*
G02*
X121050000Y-98813000I0J-75000D01*
G01*
X121050000Y-98963000D01*
G75*
G02*
X120975000Y-99038000I-75000J0D01*
G01*
X119575000Y-99038000D01*
G75*
G02*
X119500000Y-98963000I0J75000D01*
G01*
G37*
%TD.AperFunction*%
%TO.P,U1,8*%
%TO.N,Net-(U1-Pad8)*%
%TA.AperFunction,SMDPad,CuDef*%
G36*
G01*
X119500000Y-99463000D02*
X119500000Y-99313000D01*
G75*
G02*
X119575000Y-99238000I75000J0D01*
G01*
X120975000Y-99238000D01*
G75*
G02*
X121050000Y-99313000I0J-75000D01*
G01*
X121050000Y-99463000D01*
G75*
G02*
X120975000Y-99538000I-75000J0D01*
G01*
X119575000Y-99538000D01*
G75*
G02*
X119500000Y-99463000I0J75000D01*
G01*
G37*
%TD.AperFunction*%
%TO.P,U1,9*%
%TO.N,Net-(U1-Pad9)*%
%TA.AperFunction,SMDPad,CuDef*%
G36*
G01*
X119500000Y-99963000D02*
X119500000Y-99813000D01*
G75*
G02*
X119575000Y-99738000I75000J0D01*
G01*
X120975000Y-99738000D01*
G75*
G02*
X121050000Y-99813000I0J-75000D01*
G01*
X121050000Y-99963000D01*
G75*
G02*
X120975000Y-100038000I-75000J0D01*
G01*
X119575000Y-100038000D01*
G75*
G02*
X119500000Y-99963000I0J75000D01*
G01*
G37*
%TD.AperFunction*%
%TO.P,U1,10*%
%TO.N,Net-(U1-Pad10)*%
%TA.AperFunction,SMDPad,CuDef*%
G36*
G01*
X119500000Y-100463000D02*
X119500000Y-100313000D01*
G75*
G02*
X119575000Y-100238000I75000J0D01*
G01*
X120975000Y-100238000D01*
G75*
G02*
X121050000Y-100313000I0J-75000D01*
G01*
X121050000Y-100463000D01*
G75*
G02*
X120975000Y-100538000I-75000J0D01*
G01*
X119575000Y-100538000D01*
G75*
G02*
X119500000Y-100463000I0J75000D01*
G01*
G37*
%TD.AperFunction*%
%TO.P,U1,11*%
%TO.N,Net-(U1-Pad11)*%
%TA.AperFunction,SMDPad,CuDef*%
G36*
G01*
X119500000Y-100963000D02*
X119500000Y-100813000D01*
G75*
G02*
X119575000Y-100738000I75000J0D01*
G01*
X120975000Y-100738000D01*
G75*
G02*
X121050000Y-100813000I0J-75000D01*
G01*
X121050000Y-100963000D01*
G75*
G02*
X120975000Y-101038000I-75000J0D01*
G01*
X119575000Y-101038000D01*
G75*
G02*
X119500000Y-100963000I0J75000D01*
G01*
G37*
%TD.AperFunction*%
%TO.P,U1,12*%
%TO.N,GND*%
%TA.AperFunction,SMDPad,CuDef*%
G36*
G01*
X119500000Y-101463000D02*
X119500000Y-101313000D01*
G75*
G02*
X119575000Y-101238000I75000J0D01*
G01*
X120975000Y-101238000D01*
G75*
G02*
X121050000Y-101313000I0J-75000D01*
G01*
X121050000Y-101463000D01*
G75*
G02*
X120975000Y-101538000I-75000J0D01*
G01*
X119575000Y-101538000D01*
G75*
G02*
X119500000Y-101463000I0J75000D01*
G01*
G37*
%TD.AperFunction*%
%TO.P,U1,13*%
%TO.N,+3.3VA*%
%TA.AperFunction,SMDPad,CuDef*%
G36*
G01*
X119500000Y-101963000D02*
X119500000Y-101813000D01*
G75*
G02*
X119575000Y-101738000I75000J0D01*
G01*
X120975000Y-101738000D01*
G75*
G02*
X121050000Y-101813000I0J-75000D01*
G01*
X121050000Y-101963000D01*
G75*
G02*
X120975000Y-102038000I-75000J0D01*
G01*
X119575000Y-102038000D01*
G75*
G02*
X119500000Y-101963000I0J75000D01*
G01*
G37*
%TD.AperFunction*%
%TO.P,U1,14*%
%TO.N,SYS_TEMP*%
%TA.AperFunction,SMDPad,CuDef*%
G36*
G01*
X119500000Y-102463000D02*
X119500000Y-102313000D01*
G75*
G02*
X119575000Y-102238000I75000J0D01*
G01*
X120975000Y-102238000D01*
G75*
G02*
X121050000Y-102313000I0J-75000D01*
G01*
X121050000Y-102463000D01*
G75*
G02*
X120975000Y-102538000I-75000J0D01*
G01*
X119575000Y-102538000D01*
G75*
G02*
X119500000Y-102463000I0J75000D01*
G01*
G37*
%TD.AperFunction*%
%TO.P,U1,15*%
%TO.N,Net-(U1-Pad15)*%
%TA.AperFunction,SMDPad,CuDef*%
G36*
G01*
X119500000Y-102963000D02*
X119500000Y-102813000D01*
G75*
G02*
X119575000Y-102738000I75000J0D01*
G01*
X120975000Y-102738000D01*
G75*
G02*
X121050000Y-102813000I0J-75000D01*
G01*
X121050000Y-102963000D01*
G75*
G02*
X120975000Y-103038000I-75000J0D01*
G01*
X119575000Y-103038000D01*
G75*
G02*
X119500000Y-102963000I0J75000D01*
G01*
G37*
%TD.AperFunction*%
%TO.P,U1,16*%
%TO.N,LED_STATUS*%
%TA.AperFunction,SMDPad,CuDef*%
G36*
G01*
X119500000Y-103463000D02*
X119500000Y-103313000D01*
G75*
G02*
X119575000Y-103238000I75000J0D01*
G01*
X120975000Y-103238000D01*
G75*
G02*
X121050000Y-103313000I0J-75000D01*
G01*
X121050000Y-103463000D01*
G75*
G02*
X120975000Y-103538000I-75000J0D01*
G01*
X119575000Y-103538000D01*
G75*
G02*
X119500000Y-103463000I0J75000D01*
G01*
G37*
%TD.AperFunction*%
%TO.P,U1,17*%
%TO.N,Net-(U1-Pad17)*%
%TA.AperFunction,SMDPad,CuDef*%
G36*
G01*
X122050000Y-106013000D02*
X122050000Y-104613000D01*
G75*
G02*
X122125000Y-104538000I75000J0D01*
G01*
X122275000Y-104538000D01*
G75*
G02*
X122350000Y-104613000I0J-75000D01*
G01*
X122350000Y-106013000D01*
G75*
G02*
X122275000Y-106088000I-75000J0D01*
G01*
X122125000Y-106088000D01*
G75*
G02*
X122050000Y-106013000I0J75000D01*
G01*
G37*
%TD.AperFunction*%
%TO.P,U1,18*%
%TO.N,GND*%
%TA.AperFunction,SMDPad,CuDef*%
G36*
G01*
X122550000Y-106013000D02*
X122550000Y-104613000D01*
G75*
G02*
X122625000Y-104538000I75000J0D01*
G01*
X122775000Y-104538000D01*
G75*
G02*
X122850000Y-104613000I0J-75000D01*
G01*
X122850000Y-106013000D01*
G75*
G02*
X122775000Y-106088000I-75000J0D01*
G01*
X122625000Y-106088000D01*
G75*
G02*
X122550000Y-106013000I0J75000D01*
G01*
G37*
%TD.AperFunction*%
%TO.P,U1,19*%
%TO.N,+3V3*%
%TA.AperFunction,SMDPad,CuDef*%
G36*
G01*
X123050000Y-106013000D02*
X123050000Y-104613000D01*
G75*
G02*
X123125000Y-104538000I75000J0D01*
G01*
X123275000Y-104538000D01*
G75*
G02*
X123350000Y-104613000I0J-75000D01*
G01*
X123350000Y-106013000D01*
G75*
G02*
X123275000Y-106088000I-75000J0D01*
G01*
X123125000Y-106088000D01*
G75*
G02*
X123050000Y-106013000I0J75000D01*
G01*
G37*
%TD.AperFunction*%
%TO.P,U1,20*%
%TO.N,Net-(U1-Pad20)*%
%TA.AperFunction,SMDPad,CuDef*%
G36*
G01*
X123550000Y-106013000D02*
X123550000Y-104613000D01*
G75*
G02*
X123625000Y-104538000I75000J0D01*
G01*
X123775000Y-104538000D01*
G75*
G02*
X123850000Y-104613000I0J-75000D01*
G01*
X123850000Y-106013000D01*
G75*
G02*
X123775000Y-106088000I-75000J0D01*
G01*
X123625000Y-106088000D01*
G75*
G02*
X123550000Y-106013000I0J75000D01*
G01*
G37*
%TD.AperFunction*%
%TO.P,U1,21*%
%TO.N,Net-(U1-Pad21)*%
%TA.AperFunction,SMDPad,CuDef*%
G36*
G01*
X124050000Y-106013000D02*
X124050000Y-104613000D01*
G75*
G02*
X124125000Y-104538000I75000J0D01*
G01*
X124275000Y-104538000D01*
G75*
G02*
X124350000Y-104613000I0J-75000D01*
G01*
X124350000Y-106013000D01*
G75*
G02*
X124275000Y-106088000I-75000J0D01*
G01*
X124125000Y-106088000D01*
G75*
G02*
X124050000Y-106013000I0J75000D01*
G01*
G37*
%TD.AperFunction*%
%TO.P,U1,22*%
%TO.N,Net-(U1-Pad22)*%
%TA.AperFunction,SMDPad,CuDef*%
G36*
G01*
X124550000Y-106013000D02*
X124550000Y-104613000D01*
G75*
G02*
X124625000Y-104538000I75000J0D01*
G01*
X124775000Y-104538000D01*
G75*
G02*
X124850000Y-104613000I0J-75000D01*
G01*
X124850000Y-106013000D01*
G75*
G02*
X124775000Y-106088000I-75000J0D01*
G01*
X124625000Y-106088000D01*
G75*
G02*
X124550000Y-106013000I0J75000D01*
G01*
G37*
%TD.AperFunction*%
%TO.P,U1,23*%
%TO.N,Net-(U1-Pad23)*%
%TA.AperFunction,SMDPad,CuDef*%
G36*
G01*
X125050000Y-106013000D02*
X125050000Y-104613000D01*
G75*
G02*
X125125000Y-104538000I75000J0D01*
G01*
X125275000Y-104538000D01*
G75*
G02*
X125350000Y-104613000I0J-75000D01*
G01*
X125350000Y-106013000D01*
G75*
G02*
X125275000Y-106088000I-75000J0D01*
G01*
X125125000Y-106088000D01*
G75*
G02*
X125050000Y-106013000I0J75000D01*
G01*
G37*
%TD.AperFunction*%
%TO.P,U1,24*%
%TO.N,Net-(U1-Pad24)*%
%TA.AperFunction,SMDPad,CuDef*%
G36*
G01*
X125550000Y-106013000D02*
X125550000Y-104613000D01*
G75*
G02*
X125625000Y-104538000I75000J0D01*
G01*
X125775000Y-104538000D01*
G75*
G02*
X125850000Y-104613000I0J-75000D01*
G01*
X125850000Y-106013000D01*
G75*
G02*
X125775000Y-106088000I-75000J0D01*
G01*
X125625000Y-106088000D01*
G75*
G02*
X125550000Y-106013000I0J75000D01*
G01*
G37*
%TD.AperFunction*%
%TO.P,U1,25*%
%TO.N,Net-(U1-Pad25)*%
%TA.AperFunction,SMDPad,CuDef*%
G36*
G01*
X126050000Y-106013000D02*
X126050000Y-104613000D01*
G75*
G02*
X126125000Y-104538000I75000J0D01*
G01*
X126275000Y-104538000D01*
G75*
G02*
X126350000Y-104613000I0J-75000D01*
G01*
X126350000Y-106013000D01*
G75*
G02*
X126275000Y-106088000I-75000J0D01*
G01*
X126125000Y-106088000D01*
G75*
G02*
X126050000Y-106013000I0J75000D01*
G01*
G37*
%TD.AperFunction*%
%TO.P,U1,26*%
%TO.N,Net-(U1-Pad26)*%
%TA.AperFunction,SMDPad,CuDef*%
G36*
G01*
X126550000Y-106013000D02*
X126550000Y-104613000D01*
G75*
G02*
X126625000Y-104538000I75000J0D01*
G01*
X126775000Y-104538000D01*
G75*
G02*
X126850000Y-104613000I0J-75000D01*
G01*
X126850000Y-106013000D01*
G75*
G02*
X126775000Y-106088000I-75000J0D01*
G01*
X126625000Y-106088000D01*
G75*
G02*
X126550000Y-106013000I0J75000D01*
G01*
G37*
%TD.AperFunction*%
%TO.P,U1,27*%
%TO.N,Net-(U1-Pad27)*%
%TA.AperFunction,SMDPad,CuDef*%
G36*
G01*
X127050000Y-106013000D02*
X127050000Y-104613000D01*
G75*
G02*
X127125000Y-104538000I75000J0D01*
G01*
X127275000Y-104538000D01*
G75*
G02*
X127350000Y-104613000I0J-75000D01*
G01*
X127350000Y-106013000D01*
G75*
G02*
X127275000Y-106088000I-75000J0D01*
G01*
X127125000Y-106088000D01*
G75*
G02*
X127050000Y-106013000I0J75000D01*
G01*
G37*
%TD.AperFunction*%
%TO.P,U1,28*%
%TO.N,Net-(U1-Pad28)*%
%TA.AperFunction,SMDPad,CuDef*%
G36*
G01*
X127550000Y-106013000D02*
X127550000Y-104613000D01*
G75*
G02*
X127625000Y-104538000I75000J0D01*
G01*
X127775000Y-104538000D01*
G75*
G02*
X127850000Y-104613000I0J-75000D01*
G01*
X127850000Y-106013000D01*
G75*
G02*
X127775000Y-106088000I-75000J0D01*
G01*
X127625000Y-106088000D01*
G75*
G02*
X127550000Y-106013000I0J75000D01*
G01*
G37*
%TD.AperFunction*%
%TO.P,U1,29*%
%TO.N,UART3_TX*%
%TA.AperFunction,SMDPad,CuDef*%
G36*
G01*
X128050000Y-106013000D02*
X128050000Y-104613000D01*
G75*
G02*
X128125000Y-104538000I75000J0D01*
G01*
X128275000Y-104538000D01*
G75*
G02*
X128350000Y-104613000I0J-75000D01*
G01*
X128350000Y-106013000D01*
G75*
G02*
X128275000Y-106088000I-75000J0D01*
G01*
X128125000Y-106088000D01*
G75*
G02*
X128050000Y-106013000I0J75000D01*
G01*
G37*
%TD.AperFunction*%
%TO.P,U1,30*%
%TO.N,UART3_RX*%
%TA.AperFunction,SMDPad,CuDef*%
G36*
G01*
X128550000Y-106013000D02*
X128550000Y-104613000D01*
G75*
G02*
X128625000Y-104538000I75000J0D01*
G01*
X128775000Y-104538000D01*
G75*
G02*
X128850000Y-104613000I0J-75000D01*
G01*
X128850000Y-106013000D01*
G75*
G02*
X128775000Y-106088000I-75000J0D01*
G01*
X128625000Y-106088000D01*
G75*
G02*
X128550000Y-106013000I0J75000D01*
G01*
G37*
%TD.AperFunction*%
%TO.P,U1,31*%
%TO.N,Net-(C9-Pad1)*%
%TA.AperFunction,SMDPad,CuDef*%
G36*
G01*
X129050000Y-106013000D02*
X129050000Y-104613000D01*
G75*
G02*
X129125000Y-104538000I75000J0D01*
G01*
X129275000Y-104538000D01*
G75*
G02*
X129350000Y-104613000I0J-75000D01*
G01*
X129350000Y-106013000D01*
G75*
G02*
X129275000Y-106088000I-75000J0D01*
G01*
X129125000Y-106088000D01*
G75*
G02*
X129050000Y-106013000I0J75000D01*
G01*
G37*
%TD.AperFunction*%
%TO.P,U1,32*%
%TO.N,+3V3*%
%TA.AperFunction,SMDPad,CuDef*%
G36*
G01*
X129550000Y-106013000D02*
X129550000Y-104613000D01*
G75*
G02*
X129625000Y-104538000I75000J0D01*
G01*
X129775000Y-104538000D01*
G75*
G02*
X129850000Y-104613000I0J-75000D01*
G01*
X129850000Y-106013000D01*
G75*
G02*
X129775000Y-106088000I-75000J0D01*
G01*
X129625000Y-106088000D01*
G75*
G02*
X129550000Y-106013000I0J75000D01*
G01*
G37*
%TD.AperFunction*%
%TO.P,U1,33*%
%TO.N,Net-(U1-Pad33)*%
%TA.AperFunction,SMDPad,CuDef*%
G36*
G01*
X130850000Y-103463000D02*
X130850000Y-103313000D01*
G75*
G02*
X130925000Y-103238000I75000J0D01*
G01*
X132325000Y-103238000D01*
G75*
G02*
X132400000Y-103313000I0J-75000D01*
G01*
X132400000Y-103463000D01*
G75*
G02*
X132325000Y-103538000I-75000J0D01*
G01*
X130925000Y-103538000D01*
G75*
G02*
X130850000Y-103463000I0J75000D01*
G01*
G37*
%TD.AperFunction*%
%TO.P,U1,34*%
%TO.N,Net-(U1-Pad34)*%
%TA.AperFunction,SMDPad,CuDef*%
G36*
G01*
X130850000Y-102963000D02*
X130850000Y-102813000D01*
G75*
G02*
X130925000Y-102738000I75000J0D01*
G01*
X132325000Y-102738000D01*
G75*
G02*
X132400000Y-102813000I0J-75000D01*
G01*
X132400000Y-102963000D01*
G75*
G02*
X132325000Y-103038000I-75000J0D01*
G01*
X130925000Y-103038000D01*
G75*
G02*
X130850000Y-102963000I0J75000D01*
G01*
G37*
%TD.AperFunction*%
%TO.P,U1,35*%
%TO.N,IMU_INT2*%
%TA.AperFunction,SMDPad,CuDef*%
G36*
G01*
X130850000Y-102463000D02*
X130850000Y-102313000D01*
G75*
G02*
X130925000Y-102238000I75000J0D01*
G01*
X132325000Y-102238000D01*
G75*
G02*
X132400000Y-102313000I0J-75000D01*
G01*
X132400000Y-102463000D01*
G75*
G02*
X132325000Y-102538000I-75000J0D01*
G01*
X130925000Y-102538000D01*
G75*
G02*
X130850000Y-102463000I0J75000D01*
G01*
G37*
%TD.AperFunction*%
%TO.P,U1,36*%
%TO.N,IMU_INT1*%
%TA.AperFunction,SMDPad,CuDef*%
G36*
G01*
X130850000Y-101963000D02*
X130850000Y-101813000D01*
G75*
G02*
X130925000Y-101738000I75000J0D01*
G01*
X132325000Y-101738000D01*
G75*
G02*
X132400000Y-101813000I0J-75000D01*
G01*
X132400000Y-101963000D01*
G75*
G02*
X132325000Y-102038000I-75000J0D01*
G01*
X130925000Y-102038000D01*
G75*
G02*
X130850000Y-101963000I0J75000D01*
G01*
G37*
%TD.AperFunction*%
%TO.P,U1,37*%
%TO.N,IMU_CS*%
%TA.AperFunction,SMDPad,CuDef*%
G36*
G01*
X130850000Y-101463000D02*
X130850000Y-101313000D01*
G75*
G02*
X130925000Y-101238000I75000J0D01*
G01*
X132325000Y-101238000D01*
G75*
G02*
X132400000Y-101313000I0J-75000D01*
G01*
X132400000Y-101463000D01*
G75*
G02*
X132325000Y-101538000I-75000J0D01*
G01*
X130925000Y-101538000D01*
G75*
G02*
X130850000Y-101463000I0J75000D01*
G01*
G37*
%TD.AperFunction*%
%TO.P,U1,38*%
%TO.N,Net-(U1-Pad38)*%
%TA.AperFunction,SMDPad,CuDef*%
G36*
G01*
X130850000Y-100963000D02*
X130850000Y-100813000D01*
G75*
G02*
X130925000Y-100738000I75000J0D01*
G01*
X132325000Y-100738000D01*
G75*
G02*
X132400000Y-100813000I0J-75000D01*
G01*
X132400000Y-100963000D01*
G75*
G02*
X132325000Y-101038000I-75000J0D01*
G01*
X130925000Y-101038000D01*
G75*
G02*
X130850000Y-100963000I0J75000D01*
G01*
G37*
%TD.AperFunction*%
%TO.P,U1,39*%
%TO.N,Net-(U1-Pad39)*%
%TA.AperFunction,SMDPad,CuDef*%
G36*
G01*
X130850000Y-100463000D02*
X130850000Y-100313000D01*
G75*
G02*
X130925000Y-100238000I75000J0D01*
G01*
X132325000Y-100238000D01*
G75*
G02*
X132400000Y-100313000I0J-75000D01*
G01*
X132400000Y-100463000D01*
G75*
G02*
X132325000Y-100538000I-75000J0D01*
G01*
X130925000Y-100538000D01*
G75*
G02*
X130850000Y-100463000I0J75000D01*
G01*
G37*
%TD.AperFunction*%
%TO.P,U1,40*%
%TO.N,Net-(U1-Pad40)*%
%TA.AperFunction,SMDPad,CuDef*%
G36*
G01*
X130850000Y-99963000D02*
X130850000Y-99813000D01*
G75*
G02*
X130925000Y-99738000I75000J0D01*
G01*
X132325000Y-99738000D01*
G75*
G02*
X132400000Y-99813000I0J-75000D01*
G01*
X132400000Y-99963000D01*
G75*
G02*
X132325000Y-100038000I-75000J0D01*
G01*
X130925000Y-100038000D01*
G75*
G02*
X130850000Y-99963000I0J75000D01*
G01*
G37*
%TD.AperFunction*%
%TO.P,U1,41*%
%TO.N,Net-(U1-Pad41)*%
%TA.AperFunction,SMDPad,CuDef*%
G36*
G01*
X130850000Y-99463000D02*
X130850000Y-99313000D01*
G75*
G02*
X130925000Y-99238000I75000J0D01*
G01*
X132325000Y-99238000D01*
G75*
G02*
X132400000Y-99313000I0J-75000D01*
G01*
X132400000Y-99463000D01*
G75*
G02*
X132325000Y-99538000I-75000J0D01*
G01*
X130925000Y-99538000D01*
G75*
G02*
X130850000Y-99463000I0J75000D01*
G01*
G37*
%TD.AperFunction*%
%TO.P,U1,42*%
%TO.N,Net-(U1-Pad42)*%
%TA.AperFunction,SMDPad,CuDef*%
G36*
G01*
X130850000Y-98963000D02*
X130850000Y-98813000D01*
G75*
G02*
X130925000Y-98738000I75000J0D01*
G01*
X132325000Y-98738000D01*
G75*
G02*
X132400000Y-98813000I0J-75000D01*
G01*
X132400000Y-98963000D01*
G75*
G02*
X132325000Y-99038000I-75000J0D01*
G01*
X130925000Y-99038000D01*
G75*
G02*
X130850000Y-98963000I0J75000D01*
G01*
G37*
%TD.AperFunction*%
%TO.P,U1,43*%
%TO.N,Net-(U1-Pad43)*%
%TA.AperFunction,SMDPad,CuDef*%
G36*
G01*
X130850000Y-98463000D02*
X130850000Y-98313000D01*
G75*
G02*
X130925000Y-98238000I75000J0D01*
G01*
X132325000Y-98238000D01*
G75*
G02*
X132400000Y-98313000I0J-75000D01*
G01*
X132400000Y-98463000D01*
G75*
G02*
X132325000Y-98538000I-75000J0D01*
G01*
X130925000Y-98538000D01*
G75*
G02*
X130850000Y-98463000I0J75000D01*
G01*
G37*
%TD.AperFunction*%
%TO.P,U1,44*%
%TO.N,USB_D-*%
%TA.AperFunction,SMDPad,CuDef*%
G36*
G01*
X130850000Y-97963000D02*
X130850000Y-97813000D01*
G75*
G02*
X130925000Y-97738000I75000J0D01*
G01*
X132325000Y-97738000D01*
G75*
G02*
X132400000Y-97813000I0J-75000D01*
G01*
X132400000Y-97963000D01*
G75*
G02*
X132325000Y-98038000I-75000J0D01*
G01*
X130925000Y-98038000D01*
G75*
G02*
X130850000Y-97963000I0J75000D01*
G01*
G37*
%TD.AperFunction*%
%TO.P,U1,45*%
%TO.N,USB_D+*%
%TA.AperFunction,SMDPad,CuDef*%
G36*
G01*
X130850000Y-97463000D02*
X130850000Y-97313000D01*
G75*
G02*
X130925000Y-97238000I75000J0D01*
G01*
X132325000Y-97238000D01*
G75*
G02*
X132400000Y-97313000I0J-75000D01*
G01*
X132400000Y-97463000D01*
G75*
G02*
X132325000Y-97538000I-75000J0D01*
G01*
X130925000Y-97538000D01*
G75*
G02*
X130850000Y-97463000I0J75000D01*
G01*
G37*
%TD.AperFunction*%
%TO.P,U1,46*%
%TO.N,SWDIO*%
%TA.AperFunction,SMDPad,CuDef*%
G36*
G01*
X130850000Y-96963000D02*
X130850000Y-96813000D01*
G75*
G02*
X130925000Y-96738000I75000J0D01*
G01*
X132325000Y-96738000D01*
G75*
G02*
X132400000Y-96813000I0J-75000D01*
G01*
X132400000Y-96963000D01*
G75*
G02*
X132325000Y-97038000I-75000J0D01*
G01*
X130925000Y-97038000D01*
G75*
G02*
X130850000Y-96963000I0J75000D01*
G01*
G37*
%TD.AperFunction*%
%TO.P,U1,47*%
%TO.N,Net-(C10-Pad1)*%
%TA.AperFunction,SMDPad,CuDef*%
G36*
G01*
X130850000Y-96463000D02*
X130850000Y-96313000D01*
G75*
G02*
X130925000Y-96238000I75000J0D01*
G01*
X132325000Y-96238000D01*
G75*
G02*
X132400000Y-96313000I0J-75000D01*
G01*
X132400000Y-96463000D01*
G75*
G02*
X132325000Y-96538000I-75000J0D01*
G01*
X130925000Y-96538000D01*
G75*
G02*
X130850000Y-96463000I0J75000D01*
G01*
G37*
%TD.AperFunction*%
%TO.P,U1,48*%
%TO.N,+3V3*%
%TA.AperFunction,SMDPad,CuDef*%
G36*
G01*
X130850000Y-95963000D02*
X130850000Y-95813000D01*
G75*
G02*
X130925000Y-95738000I75000J0D01*
G01*
X132325000Y-95738000D01*
G75*
G02*
X132400000Y-95813000I0J-75000D01*
G01*
X132400000Y-95963000D01*
G75*
G02*
X132325000Y-96038000I-75000J0D01*
G01*
X130925000Y-96038000D01*
G75*
G02*
X130850000Y-95963000I0J75000D01*
G01*
G37*
%TD.AperFunction*%
%TO.P,U1,49*%
%TO.N,SWCLK*%
%TA.AperFunction,SMDPad,CuDef*%
G36*
G01*
X129550000Y-94663000D02*
X129550000Y-93263000D01*
G75*
G02*
X129625000Y-93188000I75000J0D01*
G01*
X129775000Y-93188000D01*
G75*
G02*
X129850000Y-93263000I0J-75000D01*
G01*
X129850000Y-94663000D01*
G75*
G02*
X129775000Y-94738000I-75000J0D01*
G01*
X129625000Y-94738000D01*
G75*
G02*
X129550000Y-94663000I0J75000D01*
G01*
G37*
%TD.AperFunction*%
%TO.P,U1,50*%
%TO.N,Net-(U1-Pad50)*%
%TA.AperFunction,SMDPad,CuDef*%
G36*
G01*
X129050000Y-94663000D02*
X129050000Y-93263000D01*
G75*
G02*
X129125000Y-93188000I75000J0D01*
G01*
X129275000Y-93188000D01*
G75*
G02*
X129350000Y-93263000I0J-75000D01*
G01*
X129350000Y-94663000D01*
G75*
G02*
X129275000Y-94738000I-75000J0D01*
G01*
X129125000Y-94738000D01*
G75*
G02*
X129050000Y-94663000I0J75000D01*
G01*
G37*
%TD.AperFunction*%
%TO.P,U1,51*%
%TO.N,Net-(U1-Pad51)*%
%TA.AperFunction,SMDPad,CuDef*%
G36*
G01*
X128550000Y-94663000D02*
X128550000Y-93263000D01*
G75*
G02*
X128625000Y-93188000I75000J0D01*
G01*
X128775000Y-93188000D01*
G75*
G02*
X128850000Y-93263000I0J-75000D01*
G01*
X128850000Y-94663000D01*
G75*
G02*
X128775000Y-94738000I-75000J0D01*
G01*
X128625000Y-94738000D01*
G75*
G02*
X128550000Y-94663000I0J75000D01*
G01*
G37*
%TD.AperFunction*%
%TO.P,U1,52*%
%TO.N,Net-(U1-Pad52)*%
%TA.AperFunction,SMDPad,CuDef*%
G36*
G01*
X128050000Y-94663000D02*
X128050000Y-93263000D01*
G75*
G02*
X128125000Y-93188000I75000J0D01*
G01*
X128275000Y-93188000D01*
G75*
G02*
X128350000Y-93263000I0J-75000D01*
G01*
X128350000Y-94663000D01*
G75*
G02*
X128275000Y-94738000I-75000J0D01*
G01*
X128125000Y-94738000D01*
G75*
G02*
X128050000Y-94663000I0J75000D01*
G01*
G37*
%TD.AperFunction*%
%TO.P,U1,53*%
%TO.N,Net-(U1-Pad53)*%
%TA.AperFunction,SMDPad,CuDef*%
G36*
G01*
X127550000Y-94663000D02*
X127550000Y-93263000D01*
G75*
G02*
X127625000Y-93188000I75000J0D01*
G01*
X127775000Y-93188000D01*
G75*
G02*
X127850000Y-93263000I0J-75000D01*
G01*
X127850000Y-94663000D01*
G75*
G02*
X127775000Y-94738000I-75000J0D01*
G01*
X127625000Y-94738000D01*
G75*
G02*
X127550000Y-94663000I0J75000D01*
G01*
G37*
%TD.AperFunction*%
%TO.P,U1,54*%
%TO.N,Net-(U1-Pad54)*%
%TA.AperFunction,SMDPad,CuDef*%
G36*
G01*
X127050000Y-94663000D02*
X127050000Y-93263000D01*
G75*
G02*
X127125000Y-93188000I75000J0D01*
G01*
X127275000Y-93188000D01*
G75*
G02*
X127350000Y-93263000I0J-75000D01*
G01*
X127350000Y-94663000D01*
G75*
G02*
X127275000Y-94738000I-75000J0D01*
G01*
X127125000Y-94738000D01*
G75*
G02*
X127050000Y-94663000I0J75000D01*
G01*
G37*
%TD.AperFunction*%
%TO.P,U1,55*%
%TO.N,SWO*%
%TA.AperFunction,SMDPad,CuDef*%
G36*
G01*
X126550000Y-94663000D02*
X126550000Y-93263000D01*
G75*
G02*
X126625000Y-93188000I75000J0D01*
G01*
X126775000Y-93188000D01*
G75*
G02*
X126850000Y-93263000I0J-75000D01*
G01*
X126850000Y-94663000D01*
G75*
G02*
X126775000Y-94738000I-75000J0D01*
G01*
X126625000Y-94738000D01*
G75*
G02*
X126550000Y-94663000I0J75000D01*
G01*
G37*
%TD.AperFunction*%
%TO.P,U1,56*%
%TO.N,Net-(U1-Pad56)*%
%TA.AperFunction,SMDPad,CuDef*%
G36*
G01*
X126050000Y-94663000D02*
X126050000Y-93263000D01*
G75*
G02*
X126125000Y-93188000I75000J0D01*
G01*
X126275000Y-93188000D01*
G75*
G02*
X126350000Y-93263000I0J-75000D01*
G01*
X126350000Y-94663000D01*
G75*
G02*
X126275000Y-94738000I-75000J0D01*
G01*
X126125000Y-94738000D01*
G75*
G02*
X126050000Y-94663000I0J75000D01*
G01*
G37*
%TD.AperFunction*%
%TO.P,U1,57*%
%TO.N,Net-(U1-Pad57)*%
%TA.AperFunction,SMDPad,CuDef*%
G36*
G01*
X125550000Y-94663000D02*
X125550000Y-93263000D01*
G75*
G02*
X125625000Y-93188000I75000J0D01*
G01*
X125775000Y-93188000D01*
G75*
G02*
X125850000Y-93263000I0J-75000D01*
G01*
X125850000Y-94663000D01*
G75*
G02*
X125775000Y-94738000I-75000J0D01*
G01*
X125625000Y-94738000D01*
G75*
G02*
X125550000Y-94663000I0J75000D01*
G01*
G37*
%TD.AperFunction*%
%TO.P,U1,58*%
%TO.N,IMU_I2C_SCL*%
%TA.AperFunction,SMDPad,CuDef*%
G36*
G01*
X125050000Y-94663000D02*
X125050000Y-93263000D01*
G75*
G02*
X125125000Y-93188000I75000J0D01*
G01*
X125275000Y-93188000D01*
G75*
G02*
X125350000Y-93263000I0J-75000D01*
G01*
X125350000Y-94663000D01*
G75*
G02*
X125275000Y-94738000I-75000J0D01*
G01*
X125125000Y-94738000D01*
G75*
G02*
X125050000Y-94663000I0J75000D01*
G01*
G37*
%TD.AperFunction*%
%TO.P,U1,59*%
%TO.N,IMU_I2C_SDA*%
%TA.AperFunction,SMDPad,CuDef*%
G36*
G01*
X124550000Y-94663000D02*
X124550000Y-93263000D01*
G75*
G02*
X124625000Y-93188000I75000J0D01*
G01*
X124775000Y-93188000D01*
G75*
G02*
X124850000Y-93263000I0J-75000D01*
G01*
X124850000Y-94663000D01*
G75*
G02*
X124775000Y-94738000I-75000J0D01*
G01*
X124625000Y-94738000D01*
G75*
G02*
X124550000Y-94663000I0J75000D01*
G01*
G37*
%TD.AperFunction*%
%TO.P,U1,60*%
%TO.N,BOOT0*%
%TA.AperFunction,SMDPad,CuDef*%
G36*
G01*
X124050000Y-94663000D02*
X124050000Y-93263000D01*
G75*
G02*
X124125000Y-93188000I75000J0D01*
G01*
X124275000Y-93188000D01*
G75*
G02*
X124350000Y-93263000I0J-75000D01*
G01*
X124350000Y-94663000D01*
G75*
G02*
X124275000Y-94738000I-75000J0D01*
G01*
X124125000Y-94738000D01*
G75*
G02*
X124050000Y-94663000I0J75000D01*
G01*
G37*
%TD.AperFunction*%
%TO.P,U1,61*%
%TO.N,Net-(U1-Pad61)*%
%TA.AperFunction,SMDPad,CuDef*%
G36*
G01*
X123550000Y-94663000D02*
X123550000Y-93263000D01*
G75*
G02*
X123625000Y-93188000I75000J0D01*
G01*
X123775000Y-93188000D01*
G75*
G02*
X123850000Y-93263000I0J-75000D01*
G01*
X123850000Y-94663000D01*
G75*
G02*
X123775000Y-94738000I-75000J0D01*
G01*
X123625000Y-94738000D01*
G75*
G02*
X123550000Y-94663000I0J75000D01*
G01*
G37*
%TD.AperFunction*%
%TO.P,U1,62*%
%TO.N,Net-(U1-Pad62)*%
%TA.AperFunction,SMDPad,CuDef*%
G36*
G01*
X123050000Y-94663000D02*
X123050000Y-93263000D01*
G75*
G02*
X123125000Y-93188000I75000J0D01*
G01*
X123275000Y-93188000D01*
G75*
G02*
X123350000Y-93263000I0J-75000D01*
G01*
X123350000Y-94663000D01*
G75*
G02*
X123275000Y-94738000I-75000J0D01*
G01*
X123125000Y-94738000D01*
G75*
G02*
X123050000Y-94663000I0J75000D01*
G01*
G37*
%TD.AperFunction*%
%TO.P,U1,63*%
%TO.N,GND*%
%TA.AperFunction,SMDPad,CuDef*%
G36*
G01*
X122550000Y-94663000D02*
X122550000Y-93263000D01*
G75*
G02*
X122625000Y-93188000I75000J0D01*
G01*
X122775000Y-93188000D01*
G75*
G02*
X122850000Y-93263000I0J-75000D01*
G01*
X122850000Y-94663000D01*
G75*
G02*
X122775000Y-94738000I-75000J0D01*
G01*
X122625000Y-94738000D01*
G75*
G02*
X122550000Y-94663000I0J75000D01*
G01*
G37*
%TD.AperFunction*%
%TO.P,U1,64*%
%TO.N,+3V3*%
%TA.AperFunction,SMDPad,CuDef*%
G36*
G01*
X122050000Y-94663000D02*
X122050000Y-93263000D01*
G75*
G02*
X122125000Y-93188000I75000J0D01*
G01*
X122275000Y-93188000D01*
G75*
G02*
X122350000Y-93263000I0J-75000D01*
G01*
X122350000Y-94663000D01*
G75*
G02*
X122275000Y-94738000I-75000J0D01*
G01*
X122125000Y-94738000D01*
G75*
G02*
X122050000Y-94663000I0J75000D01*
G01*
G37*
%TD.AperFunction*%
%TD*%
%TO.P,R3,1*%
%TO.N,Net-(C12-Pad1)*%
%TA.AperFunction,SMDPad,CuDef*%
G36*
G01*
X117120000Y-98785000D02*
X117120000Y-98415000D01*
G75*
G02*
X117255000Y-98280000I135000J0D01*
G01*
X117525000Y-98280000D01*
G75*
G02*
X117660000Y-98415000I0J-135000D01*
G01*
X117660000Y-98785000D01*
G75*
G02*
X117525000Y-98920000I-135000J0D01*
G01*
X117255000Y-98920000D01*
G75*
G02*
X117120000Y-98785000I0J135000D01*
G01*
G37*
%TD.AperFunction*%
%TO.P,R3,2*%
%TO.N,HSE_OUT*%
%TA.AperFunction,SMDPad,CuDef*%
G36*
G01*
X118140000Y-98785000D02*
X118140000Y-98415000D01*
G75*
G02*
X118275000Y-98280000I135000J0D01*
G01*
X118545000Y-98280000D01*
G75*
G02*
X118680000Y-98415000I0J-135000D01*
G01*
X118680000Y-98785000D01*
G75*
G02*
X118545000Y-98920000I-135000J0D01*
G01*
X118275000Y-98920000D01*
G75*
G02*
X118140000Y-98785000I0J135000D01*
G01*
G37*
%TD.AperFunction*%
%TD*%
%TO.P,R5,1*%
%TO.N,IMU_I2C_SDA*%
%TA.AperFunction,SMDPad,CuDef*%
G36*
G01*
X124980000Y-89515000D02*
X124980000Y-89885000D01*
G75*
G02*
X124845000Y-90020000I-135000J0D01*
G01*
X124575000Y-90020000D01*
G75*
G02*
X124440000Y-89885000I0J135000D01*
G01*
X124440000Y-89515000D01*
G75*
G02*
X124575000Y-89380000I135000J0D01*
G01*
X124845000Y-89380000D01*
G75*
G02*
X124980000Y-89515000I0J-135000D01*
G01*
G37*
%TD.AperFunction*%
%TO.P,R5,2*%
%TO.N,+3V3*%
%TA.AperFunction,SMDPad,CuDef*%
G36*
G01*
X123960000Y-89515000D02*
X123960000Y-89885000D01*
G75*
G02*
X123825000Y-90020000I-135000J0D01*
G01*
X123555000Y-90020000D01*
G75*
G02*
X123420000Y-89885000I0J135000D01*
G01*
X123420000Y-89515000D01*
G75*
G02*
X123555000Y-89380000I135000J0D01*
G01*
X123825000Y-89380000D01*
G75*
G02*
X123960000Y-89515000I0J-135000D01*
G01*
G37*
%TD.AperFunction*%
%TD*%
%TO.P,R4,2*%
%TO.N,+3V3*%
%TA.AperFunction,SMDPad,CuDef*%
G36*
G01*
X126790000Y-89885000D02*
X126790000Y-89515000D01*
G75*
G02*
X126925000Y-89380000I135000J0D01*
G01*
X127195000Y-89380000D01*
G75*
G02*
X127330000Y-89515000I0J-135000D01*
G01*
X127330000Y-89885000D01*
G75*
G02*
X127195000Y-90020000I-135000J0D01*
G01*
X126925000Y-90020000D01*
G75*
G02*
X126790000Y-89885000I0J135000D01*
G01*
G37*
%TD.AperFunction*%
%TO.P,R4,1*%
%TO.N,IMU_I2C_SCL*%
%TA.AperFunction,SMDPad,CuDef*%
G36*
G01*
X125770000Y-89885000D02*
X125770000Y-89515000D01*
G75*
G02*
X125905000Y-89380000I135000J0D01*
G01*
X126175000Y-89380000D01*
G75*
G02*
X126310000Y-89515000I0J-135000D01*
G01*
X126310000Y-89885000D01*
G75*
G02*
X126175000Y-90020000I-135000J0D01*
G01*
X125905000Y-90020000D01*
G75*
G02*
X125770000Y-89885000I0J135000D01*
G01*
G37*
%TD.AperFunction*%
%TD*%
D10*
%TO.P,U3,1*%
%TO.N,USB_CONN_D-*%
X168130000Y-93840000D03*
%TO.P,U3,2*%
%TO.N,GND*%
X168130000Y-92890000D03*
%TO.P,U3,3*%
%TO.N,USB_CONN_D+*%
X168130000Y-91940000D03*
%TO.P,U3,4*%
%TO.N,USB_D+*%
X165930000Y-91940000D03*
%TO.P,U3,6*%
%TO.N,USB_D-*%
X165930000Y-93840000D03*
%TO.P,U3,5*%
%TO.N,+5V*%
X165930000Y-92890000D03*
%TD*%
%TO.P,R8,2*%
%TO.N,BUCK_FB*%
%TA.AperFunction,SMDPad,CuDef*%
G36*
G01*
X158765000Y-113220000D02*
X158215000Y-113220000D01*
G75*
G02*
X158015000Y-113020000I0J200000D01*
G01*
X158015000Y-112620000D01*
G75*
G02*
X158215000Y-112420000I200000J0D01*
G01*
X158765000Y-112420000D01*
G75*
G02*
X158965000Y-112620000I0J-200000D01*
G01*
X158965000Y-113020000D01*
G75*
G02*
X158765000Y-113220000I-200000J0D01*
G01*
G37*
%TD.AperFunction*%
%TO.P,R8,1*%
%TO.N,+3V3*%
%TA.AperFunction,SMDPad,CuDef*%
G36*
G01*
X158765000Y-114870000D02*
X158215000Y-114870000D01*
G75*
G02*
X158015000Y-114670000I0J200000D01*
G01*
X158015000Y-114270000D01*
G75*
G02*
X158215000Y-114070000I200000J0D01*
G01*
X158765000Y-114070000D01*
G75*
G02*
X158965000Y-114270000I0J-200000D01*
G01*
X158965000Y-114670000D01*
G75*
G02*
X158765000Y-114870000I-200000J0D01*
G01*
G37*
%TD.AperFunction*%
%TD*%
%TO.P,C13,1*%
%TO.N,BUCK_EN*%
%TA.AperFunction,SMDPad,CuDef*%
G36*
G01*
X157990000Y-111445001D02*
X157990000Y-110144999D01*
G75*
G02*
X158239999Y-109895000I249999J0D01*
G01*
X158890001Y-109895000D01*
G75*
G02*
X159140000Y-110144999I0J-249999D01*
G01*
X159140000Y-111445001D01*
G75*
G02*
X158890001Y-111695000I-249999J0D01*
G01*
X158239999Y-111695000D01*
G75*
G02*
X157990000Y-111445001I0J249999D01*
G01*
G37*
%TD.AperFunction*%
%TO.P,C13,2*%
%TO.N,GND*%
%TA.AperFunction,SMDPad,CuDef*%
G36*
G01*
X160940000Y-111445001D02*
X160940000Y-110144999D01*
G75*
G02*
X161189999Y-109895000I249999J0D01*
G01*
X161840001Y-109895000D01*
G75*
G02*
X162090000Y-110144999I0J-249999D01*
G01*
X162090000Y-111445001D01*
G75*
G02*
X161840001Y-111695000I-249999J0D01*
G01*
X161189999Y-111695000D01*
G75*
G02*
X160940000Y-111445001I0J249999D01*
G01*
G37*
%TD.AperFunction*%
%TD*%
%TO.P,D1,2*%
%TO.N,+3V3*%
%TA.AperFunction,SMDPad,CuDef*%
G36*
G01*
X173782500Y-100386250D02*
X173782500Y-99873750D01*
G75*
G02*
X174001250Y-99655000I218750J0D01*
G01*
X174438750Y-99655000D01*
G75*
G02*
X174657500Y-99873750I0J-218750D01*
G01*
X174657500Y-100386250D01*
G75*
G02*
X174438750Y-100605000I-218750J0D01*
G01*
X174001250Y-100605000D01*
G75*
G02*
X173782500Y-100386250I0J218750D01*
G01*
G37*
%TD.AperFunction*%
%TO.P,D1,1*%
%TO.N,Net-(D1-Pad1)*%
%TA.AperFunction,SMDPad,CuDef*%
G36*
G01*
X172207500Y-100386250D02*
X172207500Y-99873750D01*
G75*
G02*
X172426250Y-99655000I218750J0D01*
G01*
X172863750Y-99655000D01*
G75*
G02*
X173082500Y-99873750I0J-218750D01*
G01*
X173082500Y-100386250D01*
G75*
G02*
X172863750Y-100605000I-218750J0D01*
G01*
X172426250Y-100605000D01*
G75*
G02*
X172207500Y-100386250I0J218750D01*
G01*
G37*
%TD.AperFunction*%
%TD*%
%TO.P,C9,2*%
%TO.N,GND*%
%TA.AperFunction,SMDPad,CuDef*%
G36*
G01*
X130750000Y-107975000D02*
X130750000Y-107475000D01*
G75*
G02*
X130975000Y-107250000I225000J0D01*
G01*
X131425000Y-107250000D01*
G75*
G02*
X131650000Y-107475000I0J-225000D01*
G01*
X131650000Y-107975000D01*
G75*
G02*
X131425000Y-108200000I-225000J0D01*
G01*
X130975000Y-108200000D01*
G75*
G02*
X130750000Y-107975000I0J225000D01*
G01*
G37*
%TD.AperFunction*%
%TO.P,C9,1*%
%TO.N,Net-(C9-Pad1)*%
%TA.AperFunction,SMDPad,CuDef*%
G36*
G01*
X129200000Y-107975000D02*
X129200000Y-107475000D01*
G75*
G02*
X129425000Y-107250000I225000J0D01*
G01*
X129875000Y-107250000D01*
G75*
G02*
X130100000Y-107475000I0J-225000D01*
G01*
X130100000Y-107975000D01*
G75*
G02*
X129875000Y-108200000I-225000J0D01*
G01*
X129425000Y-108200000D01*
G75*
G02*
X129200000Y-107975000I0J225000D01*
G01*
G37*
%TD.AperFunction*%
%TD*%
%TO.P,C10,2*%
%TO.N,GND*%
%TA.AperFunction,SMDPad,CuDef*%
G36*
G01*
X134905000Y-96630000D02*
X134905000Y-96130000D01*
G75*
G02*
X135130000Y-95905000I225000J0D01*
G01*
X135580000Y-95905000D01*
G75*
G02*
X135805000Y-96130000I0J-225000D01*
G01*
X135805000Y-96630000D01*
G75*
G02*
X135580000Y-96855000I-225000J0D01*
G01*
X135130000Y-96855000D01*
G75*
G02*
X134905000Y-96630000I0J225000D01*
G01*
G37*
%TD.AperFunction*%
%TO.P,C10,1*%
%TO.N,Net-(C10-Pad1)*%
%TA.AperFunction,SMDPad,CuDef*%
G36*
G01*
X133355000Y-96630000D02*
X133355000Y-96130000D01*
G75*
G02*
X133580000Y-95905000I225000J0D01*
G01*
X134030000Y-95905000D01*
G75*
G02*
X134255000Y-96130000I0J-225000D01*
G01*
X134255000Y-96630000D01*
G75*
G02*
X134030000Y-96855000I-225000J0D01*
G01*
X133580000Y-96855000D01*
G75*
G02*
X133355000Y-96630000I0J225000D01*
G01*
G37*
%TD.AperFunction*%
%TD*%
%TO.P,C11,1*%
%TO.N,HSE_IN*%
%TA.AperFunction,SMDPad,CuDef*%
G36*
G01*
X114120000Y-94908000D02*
X114120000Y-94568000D01*
G75*
G02*
X114260000Y-94428000I140000J0D01*
G01*
X114540000Y-94428000D01*
G75*
G02*
X114680000Y-94568000I0J-140000D01*
G01*
X114680000Y-94908000D01*
G75*
G02*
X114540000Y-95048000I-140000J0D01*
G01*
X114260000Y-95048000D01*
G75*
G02*
X114120000Y-94908000I0J140000D01*
G01*
G37*
%TD.AperFunction*%
%TO.P,C11,2*%
%TO.N,GND*%
%TA.AperFunction,SMDPad,CuDef*%
G36*
G01*
X115080000Y-94908000D02*
X115080000Y-94568000D01*
G75*
G02*
X115220000Y-94428000I140000J0D01*
G01*
X115500000Y-94428000D01*
G75*
G02*
X115640000Y-94568000I0J-140000D01*
G01*
X115640000Y-94908000D01*
G75*
G02*
X115500000Y-95048000I-140000J0D01*
G01*
X115220000Y-95048000D01*
G75*
G02*
X115080000Y-94908000I0J140000D01*
G01*
G37*
%TD.AperFunction*%
%TD*%
%TO.P,C16,2*%
%TO.N,+3V3*%
%TA.AperFunction,SMDPad,CuDef*%
G36*
G01*
X153160001Y-119670000D02*
X151859999Y-119670000D01*
G75*
G02*
X151610000Y-119420001I0J249999D01*
G01*
X151610000Y-118769999D01*
G75*
G02*
X151859999Y-118520000I249999J0D01*
G01*
X153160001Y-118520000D01*
G75*
G02*
X153410000Y-118769999I0J-249999D01*
G01*
X153410000Y-119420001D01*
G75*
G02*
X153160001Y-119670000I-249999J0D01*
G01*
G37*
%TD.AperFunction*%
%TO.P,C16,1*%
%TO.N,GND*%
%TA.AperFunction,SMDPad,CuDef*%
G36*
G01*
X153160001Y-122620000D02*
X151859999Y-122620000D01*
G75*
G02*
X151610000Y-122370001I0J249999D01*
G01*
X151610000Y-121719999D01*
G75*
G02*
X151859999Y-121470000I249999J0D01*
G01*
X153160001Y-121470000D01*
G75*
G02*
X153410000Y-121719999I0J-249999D01*
G01*
X153410000Y-122370001D01*
G75*
G02*
X153160001Y-122620000I-249999J0D01*
G01*
G37*
%TD.AperFunction*%
%TD*%
%TO.P,C12,1*%
%TO.N,Net-(C12-Pad1)*%
%TA.AperFunction,SMDPad,CuDef*%
G36*
G01*
X115640000Y-100818000D02*
X115640000Y-101158000D01*
G75*
G02*
X115500000Y-101298000I-140000J0D01*
G01*
X115220000Y-101298000D01*
G75*
G02*
X115080000Y-101158000I0J140000D01*
G01*
X115080000Y-100818000D01*
G75*
G02*
X115220000Y-100678000I140000J0D01*
G01*
X115500000Y-100678000D01*
G75*
G02*
X115640000Y-100818000I0J-140000D01*
G01*
G37*
%TD.AperFunction*%
%TO.P,C12,2*%
%TO.N,GND*%
%TA.AperFunction,SMDPad,CuDef*%
G36*
G01*
X114680000Y-100818000D02*
X114680000Y-101158000D01*
G75*
G02*
X114540000Y-101298000I-140000J0D01*
G01*
X114260000Y-101298000D01*
G75*
G02*
X114120000Y-101158000I0J140000D01*
G01*
X114120000Y-100818000D01*
G75*
G02*
X114260000Y-100678000I140000J0D01*
G01*
X114540000Y-100678000D01*
G75*
G02*
X114680000Y-100818000I0J-140000D01*
G01*
G37*
%TD.AperFunction*%
%TD*%
%TO.P,C17,1*%
%TO.N,GND*%
%TA.AperFunction,SMDPad,CuDef*%
G36*
G01*
X143436000Y-96411000D02*
X143096000Y-96411000D01*
G75*
G02*
X142956000Y-96271000I0J140000D01*
G01*
X142956000Y-95991000D01*
G75*
G02*
X143096000Y-95851000I140000J0D01*
G01*
X143436000Y-95851000D01*
G75*
G02*
X143576000Y-95991000I0J-140000D01*
G01*
X143576000Y-96271000D01*
G75*
G02*
X143436000Y-96411000I-140000J0D01*
G01*
G37*
%TD.AperFunction*%
%TO.P,C17,2*%
%TO.N,+3V3*%
%TA.AperFunction,SMDPad,CuDef*%
G36*
G01*
X143436000Y-95451000D02*
X143096000Y-95451000D01*
G75*
G02*
X142956000Y-95311000I0J140000D01*
G01*
X142956000Y-95031000D01*
G75*
G02*
X143096000Y-94891000I140000J0D01*
G01*
X143436000Y-94891000D01*
G75*
G02*
X143576000Y-95031000I0J-140000D01*
G01*
X143576000Y-95311000D01*
G75*
G02*
X143436000Y-95451000I-140000J0D01*
G01*
G37*
%TD.AperFunction*%
%TD*%
%TO.P,C18,2*%
%TO.N,GND*%
%TA.AperFunction,SMDPad,CuDef*%
G36*
G01*
X140966000Y-96351000D02*
X140966000Y-96011000D01*
G75*
G02*
X141106000Y-95871000I140000J0D01*
G01*
X141386000Y-95871000D01*
G75*
G02*
X141526000Y-96011000I0J-140000D01*
G01*
X141526000Y-96351000D01*
G75*
G02*
X141386000Y-96491000I-140000J0D01*
G01*
X141106000Y-96491000D01*
G75*
G02*
X140966000Y-96351000I0J140000D01*
G01*
G37*
%TD.AperFunction*%
%TO.P,C18,1*%
%TO.N,+3V3*%
%TA.AperFunction,SMDPad,CuDef*%
G36*
G01*
X140006000Y-96351000D02*
X140006000Y-96011000D01*
G75*
G02*
X140146000Y-95871000I140000J0D01*
G01*
X140426000Y-95871000D01*
G75*
G02*
X140566000Y-96011000I0J-140000D01*
G01*
X140566000Y-96351000D01*
G75*
G02*
X140426000Y-96491000I-140000J0D01*
G01*
X140146000Y-96491000D01*
G75*
G02*
X140006000Y-96351000I0J140000D01*
G01*
G37*
%TD.AperFunction*%
%TD*%
%TO.P,R12,2*%
%TO.N,GND*%
%TA.AperFunction,SMDPad,CuDef*%
G36*
G01*
X139765000Y-106590000D02*
X140135000Y-106590000D01*
G75*
G02*
X140270000Y-106725000I0J-135000D01*
G01*
X140270000Y-106995000D01*
G75*
G02*
X140135000Y-107130000I-135000J0D01*
G01*
X139765000Y-107130000D01*
G75*
G02*
X139630000Y-106995000I0J135000D01*
G01*
X139630000Y-106725000D01*
G75*
G02*
X139765000Y-106590000I135000J0D01*
G01*
G37*
%TD.AperFunction*%
%TO.P,R12,1*%
%TO.N,SYS_TEMP*%
%TA.AperFunction,SMDPad,CuDef*%
G36*
G01*
X139765000Y-105570000D02*
X140135000Y-105570000D01*
G75*
G02*
X140270000Y-105705000I0J-135000D01*
G01*
X140270000Y-105975000D01*
G75*
G02*
X140135000Y-106110000I-135000J0D01*
G01*
X139765000Y-106110000D01*
G75*
G02*
X139630000Y-105975000I0J135000D01*
G01*
X139630000Y-105705000D01*
G75*
G02*
X139765000Y-105570000I135000J0D01*
G01*
G37*
%TD.AperFunction*%
%TD*%
%TA.AperFunction,SMDPad,CuDef*%
D24*
%TO.P,U4,1*%
%TO.N,GND*%
G36*
X139649566Y-92982441D02*
G01*
X139663635Y-92986709D01*
X139676602Y-92993640D01*
X139687967Y-93002967D01*
X139894033Y-93209033D01*
X139903360Y-93220398D01*
X139910291Y-93233365D01*
X139914559Y-93247434D01*
X139916000Y-93262066D01*
X139916000Y-93306000D01*
X139914559Y-93320632D01*
X139910291Y-93334701D01*
X139903360Y-93347668D01*
X139894033Y-93359033D01*
X139882668Y-93368360D01*
X139869701Y-93375291D01*
X139855632Y-93379559D01*
X139841000Y-93381000D01*
X139366000Y-93381000D01*
X139351368Y-93379559D01*
X139337299Y-93375291D01*
X139324332Y-93368360D01*
X139312967Y-93359033D01*
X139303640Y-93347668D01*
X139296709Y-93334701D01*
X139292441Y-93320632D01*
X139291000Y-93306000D01*
X139291000Y-93056000D01*
X139292441Y-93041368D01*
X139296709Y-93027299D01*
X139303640Y-93014332D01*
X139312967Y-93002967D01*
X139324332Y-92993640D01*
X139337299Y-92986709D01*
X139351368Y-92982441D01*
X139366000Y-92981000D01*
X139634934Y-92981000D01*
X139649566Y-92982441D01*
G37*
%TD.AperFunction*%
%TO.P,U4,2*%
%TA.AperFunction,SMDPad,CuDef*%
G36*
G01*
X139291000Y-93781000D02*
X139291000Y-93581000D01*
G75*
G02*
X139391000Y-93481000I100000J0D01*
G01*
X139816000Y-93481000D01*
G75*
G02*
X139916000Y-93581000I0J-100000D01*
G01*
X139916000Y-93781000D01*
G75*
G02*
X139816000Y-93881000I-100000J0D01*
G01*
X139391000Y-93881000D01*
G75*
G02*
X139291000Y-93781000I0J100000D01*
G01*
G37*
%TD.AperFunction*%
%TO.P,U4,3*%
%TA.AperFunction,SMDPad,CuDef*%
G36*
G01*
X139291000Y-94281000D02*
X139291000Y-94081000D01*
G75*
G02*
X139391000Y-93981000I100000J0D01*
G01*
X139816000Y-93981000D01*
G75*
G02*
X139916000Y-94081000I0J-100000D01*
G01*
X139916000Y-94281000D01*
G75*
G02*
X139816000Y-94381000I-100000J0D01*
G01*
X139391000Y-94381000D01*
G75*
G02*
X139291000Y-94281000I0J100000D01*
G01*
G37*
%TD.AperFunction*%
%TA.AperFunction,SMDPad,CuDef*%
%TO.P,U4,4*%
%TO.N,IMU_INT1*%
G36*
X139855632Y-94482441D02*
G01*
X139869701Y-94486709D01*
X139882668Y-94493640D01*
X139894033Y-94502967D01*
X139903360Y-94514332D01*
X139910291Y-94527299D01*
X139914559Y-94541368D01*
X139916000Y-94556000D01*
X139916000Y-94599934D01*
X139914559Y-94614566D01*
X139910291Y-94628635D01*
X139903360Y-94641602D01*
X139894033Y-94652967D01*
X139687967Y-94859033D01*
X139676602Y-94868360D01*
X139663635Y-94875291D01*
X139649566Y-94879559D01*
X139634934Y-94881000D01*
X139366000Y-94881000D01*
X139351368Y-94879559D01*
X139337299Y-94875291D01*
X139324332Y-94868360D01*
X139312967Y-94859033D01*
X139303640Y-94847668D01*
X139296709Y-94834701D01*
X139292441Y-94820632D01*
X139291000Y-94806000D01*
X139291000Y-94556000D01*
X139292441Y-94541368D01*
X139296709Y-94527299D01*
X139303640Y-94514332D01*
X139312967Y-94502967D01*
X139324332Y-94493640D01*
X139337299Y-94486709D01*
X139351368Y-94482441D01*
X139366000Y-94481000D01*
X139841000Y-94481000D01*
X139855632Y-94482441D01*
G37*
%TD.AperFunction*%
%TA.AperFunction,SMDPad,CuDef*%
%TO.P,U4,5*%
%TO.N,+3V3*%
G36*
X140405632Y-94532441D02*
G01*
X140419701Y-94536709D01*
X140432668Y-94543640D01*
X140444033Y-94552967D01*
X140453360Y-94564332D01*
X140460291Y-94577299D01*
X140464559Y-94591368D01*
X140466000Y-94606000D01*
X140466000Y-95081000D01*
X140464559Y-95095632D01*
X140460291Y-95109701D01*
X140453360Y-95122668D01*
X140444033Y-95134033D01*
X140432668Y-95143360D01*
X140419701Y-95150291D01*
X140405632Y-95154559D01*
X140391000Y-95156000D01*
X140141000Y-95156000D01*
X140126368Y-95154559D01*
X140112299Y-95150291D01*
X140099332Y-95143360D01*
X140087967Y-95134033D01*
X140078640Y-95122668D01*
X140071709Y-95109701D01*
X140067441Y-95095632D01*
X140066000Y-95081000D01*
X140066000Y-94812066D01*
X140067441Y-94797434D01*
X140071709Y-94783365D01*
X140078640Y-94770398D01*
X140087967Y-94759033D01*
X140294033Y-94552967D01*
X140305398Y-94543640D01*
X140318365Y-94536709D01*
X140332434Y-94532441D01*
X140347066Y-94531000D01*
X140391000Y-94531000D01*
X140405632Y-94532441D01*
G37*
%TD.AperFunction*%
%TO.P,U4,6*%
%TO.N,GND*%
%TA.AperFunction,SMDPad,CuDef*%
G36*
G01*
X140566000Y-95056000D02*
X140566000Y-94631000D01*
G75*
G02*
X140666000Y-94531000I100000J0D01*
G01*
X140866000Y-94531000D01*
G75*
G02*
X140966000Y-94631000I0J-100000D01*
G01*
X140966000Y-95056000D01*
G75*
G02*
X140866000Y-95156000I-100000J0D01*
G01*
X140666000Y-95156000D01*
G75*
G02*
X140566000Y-95056000I0J100000D01*
G01*
G37*
%TD.AperFunction*%
%TA.AperFunction,SMDPad,CuDef*%
%TO.P,U4,7*%
G36*
X141199566Y-94532441D02*
G01*
X141213635Y-94536709D01*
X141226602Y-94543640D01*
X141237967Y-94552967D01*
X141444033Y-94759033D01*
X141453360Y-94770398D01*
X141460291Y-94783365D01*
X141464559Y-94797434D01*
X141466000Y-94812066D01*
X141466000Y-95081000D01*
X141464559Y-95095632D01*
X141460291Y-95109701D01*
X141453360Y-95122668D01*
X141444033Y-95134033D01*
X141432668Y-95143360D01*
X141419701Y-95150291D01*
X141405632Y-95154559D01*
X141391000Y-95156000D01*
X141141000Y-95156000D01*
X141126368Y-95154559D01*
X141112299Y-95150291D01*
X141099332Y-95143360D01*
X141087967Y-95134033D01*
X141078640Y-95122668D01*
X141071709Y-95109701D01*
X141067441Y-95095632D01*
X141066000Y-95081000D01*
X141066000Y-94606000D01*
X141067441Y-94591368D01*
X141071709Y-94577299D01*
X141078640Y-94564332D01*
X141087967Y-94552967D01*
X141099332Y-94543640D01*
X141112299Y-94536709D01*
X141126368Y-94532441D01*
X141141000Y-94531000D01*
X141184934Y-94531000D01*
X141199566Y-94532441D01*
G37*
%TD.AperFunction*%
%TA.AperFunction,SMDPad,CuDef*%
%TO.P,U4,8*%
%TO.N,+3V3*%
G36*
X142180632Y-94482441D02*
G01*
X142194701Y-94486709D01*
X142207668Y-94493640D01*
X142219033Y-94502967D01*
X142228360Y-94514332D01*
X142235291Y-94527299D01*
X142239559Y-94541368D01*
X142241000Y-94556000D01*
X142241000Y-94806000D01*
X142239559Y-94820632D01*
X142235291Y-94834701D01*
X142228360Y-94847668D01*
X142219033Y-94859033D01*
X142207668Y-94868360D01*
X142194701Y-94875291D01*
X142180632Y-94879559D01*
X142166000Y-94881000D01*
X141897066Y-94881000D01*
X141882434Y-94879559D01*
X141868365Y-94875291D01*
X141855398Y-94868360D01*
X141844033Y-94859033D01*
X141637967Y-94652967D01*
X141628640Y-94641602D01*
X141621709Y-94628635D01*
X141617441Y-94614566D01*
X141616000Y-94599934D01*
X141616000Y-94556000D01*
X141617441Y-94541368D01*
X141621709Y-94527299D01*
X141628640Y-94514332D01*
X141637967Y-94502967D01*
X141649332Y-94493640D01*
X141662299Y-94486709D01*
X141676368Y-94482441D01*
X141691000Y-94481000D01*
X142166000Y-94481000D01*
X142180632Y-94482441D01*
G37*
%TD.AperFunction*%
%TO.P,U4,9*%
%TO.N,IMU_INT2*%
%TA.AperFunction,SMDPad,CuDef*%
G36*
G01*
X141616000Y-94281000D02*
X141616000Y-94081000D01*
G75*
G02*
X141716000Y-93981000I100000J0D01*
G01*
X142141000Y-93981000D01*
G75*
G02*
X142241000Y-94081000I0J-100000D01*
G01*
X142241000Y-94281000D01*
G75*
G02*
X142141000Y-94381000I-100000J0D01*
G01*
X141716000Y-94381000D01*
G75*
G02*
X141616000Y-94281000I0J100000D01*
G01*
G37*
%TD.AperFunction*%
%TO.P,U4,10*%
%TO.N,Net-(U4-Pad10)*%
%TA.AperFunction,SMDPad,CuDef*%
G36*
G01*
X141616000Y-93781000D02*
X141616000Y-93581000D01*
G75*
G02*
X141716000Y-93481000I100000J0D01*
G01*
X142141000Y-93481000D01*
G75*
G02*
X142241000Y-93581000I0J-100000D01*
G01*
X142241000Y-93781000D01*
G75*
G02*
X142141000Y-93881000I-100000J0D01*
G01*
X141716000Y-93881000D01*
G75*
G02*
X141616000Y-93781000I0J100000D01*
G01*
G37*
%TD.AperFunction*%
%TA.AperFunction,SMDPad,CuDef*%
%TO.P,U4,11*%
%TO.N,Net-(U4-Pad11)*%
G36*
X142180632Y-92982441D02*
G01*
X142194701Y-92986709D01*
X142207668Y-92993640D01*
X142219033Y-93002967D01*
X142228360Y-93014332D01*
X142235291Y-93027299D01*
X142239559Y-93041368D01*
X142241000Y-93056000D01*
X142241000Y-93306000D01*
X142239559Y-93320632D01*
X142235291Y-93334701D01*
X142228360Y-93347668D01*
X142219033Y-93359033D01*
X142207668Y-93368360D01*
X142194701Y-93375291D01*
X142180632Y-93379559D01*
X142166000Y-93381000D01*
X141691000Y-93381000D01*
X141676368Y-93379559D01*
X141662299Y-93375291D01*
X141649332Y-93368360D01*
X141637967Y-93359033D01*
X141628640Y-93347668D01*
X141621709Y-93334701D01*
X141617441Y-93320632D01*
X141616000Y-93306000D01*
X141616000Y-93262066D01*
X141617441Y-93247434D01*
X141621709Y-93233365D01*
X141628640Y-93220398D01*
X141637967Y-93209033D01*
X141844033Y-93002967D01*
X141855398Y-92993640D01*
X141868365Y-92986709D01*
X141882434Y-92982441D01*
X141897066Y-92981000D01*
X142166000Y-92981000D01*
X142180632Y-92982441D01*
G37*
%TD.AperFunction*%
%TA.AperFunction,SMDPad,CuDef*%
%TO.P,U4,12*%
%TO.N,IMU_CS*%
G36*
X141405632Y-92707441D02*
G01*
X141419701Y-92711709D01*
X141432668Y-92718640D01*
X141444033Y-92727967D01*
X141453360Y-92739332D01*
X141460291Y-92752299D01*
X141464559Y-92766368D01*
X141466000Y-92781000D01*
X141466000Y-93049934D01*
X141464559Y-93064566D01*
X141460291Y-93078635D01*
X141453360Y-93091602D01*
X141444033Y-93102967D01*
X141237967Y-93309033D01*
X141226602Y-93318360D01*
X141213635Y-93325291D01*
X141199566Y-93329559D01*
X141184934Y-93331000D01*
X141141000Y-93331000D01*
X141126368Y-93329559D01*
X141112299Y-93325291D01*
X141099332Y-93318360D01*
X141087967Y-93309033D01*
X141078640Y-93297668D01*
X141071709Y-93284701D01*
X141067441Y-93270632D01*
X141066000Y-93256000D01*
X141066000Y-92781000D01*
X141067441Y-92766368D01*
X141071709Y-92752299D01*
X141078640Y-92739332D01*
X141087967Y-92727967D01*
X141099332Y-92718640D01*
X141112299Y-92711709D01*
X141126368Y-92707441D01*
X141141000Y-92706000D01*
X141391000Y-92706000D01*
X141405632Y-92707441D01*
G37*
%TD.AperFunction*%
%TO.P,U4,13*%
%TO.N,IMU_I2C_SCL*%
%TA.AperFunction,SMDPad,CuDef*%
G36*
G01*
X140566000Y-93231000D02*
X140566000Y-92806000D01*
G75*
G02*
X140666000Y-92706000I100000J0D01*
G01*
X140866000Y-92706000D01*
G75*
G02*
X140966000Y-92806000I0J-100000D01*
G01*
X140966000Y-93231000D01*
G75*
G02*
X140866000Y-93331000I-100000J0D01*
G01*
X140666000Y-93331000D01*
G75*
G02*
X140566000Y-93231000I0J100000D01*
G01*
G37*
%TD.AperFunction*%
%TA.AperFunction,SMDPad,CuDef*%
%TO.P,U4,14*%
%TO.N,IMU_I2C_SDA*%
G36*
X140405632Y-92707441D02*
G01*
X140419701Y-92711709D01*
X140432668Y-92718640D01*
X140444033Y-92727967D01*
X140453360Y-92739332D01*
X140460291Y-92752299D01*
X140464559Y-92766368D01*
X140466000Y-92781000D01*
X140466000Y-93256000D01*
X140464559Y-93270632D01*
X140460291Y-93284701D01*
X140453360Y-93297668D01*
X140444033Y-93309033D01*
X140432668Y-93318360D01*
X140419701Y-93325291D01*
X140405632Y-93329559D01*
X140391000Y-93331000D01*
X140347066Y-93331000D01*
X140332434Y-93329559D01*
X140318365Y-93325291D01*
X140305398Y-93318360D01*
X140294033Y-93309033D01*
X140087967Y-93102967D01*
X140078640Y-93091602D01*
X140071709Y-93078635D01*
X140067441Y-93064566D01*
X140066000Y-93049934D01*
X140066000Y-92781000D01*
X140067441Y-92766368D01*
X140071709Y-92752299D01*
X140078640Y-92739332D01*
X140087967Y-92727967D01*
X140099332Y-92718640D01*
X140112299Y-92711709D01*
X140126368Y-92707441D01*
X140141000Y-92706000D01*
X140391000Y-92706000D01*
X140405632Y-92707441D01*
G37*
%TD.AperFunction*%
%TD*%
%TO.P,U5,1*%
%TO.N,Net-(U5-Pad1)*%
%TA.AperFunction,SMDPad,CuDef*%
G36*
G01*
X134805000Y-109776000D02*
X134505000Y-109776000D01*
G75*
G02*
X134355000Y-109626000I0J150000D01*
G01*
X134355000Y-107976000D01*
G75*
G02*
X134505000Y-107826000I150000J0D01*
G01*
X134805000Y-107826000D01*
G75*
G02*
X134955000Y-107976000I0J-150000D01*
G01*
X134955000Y-109626000D01*
G75*
G02*
X134805000Y-109776000I-150000J0D01*
G01*
G37*
%TD.AperFunction*%
%TO.P,U5,2*%
%TO.N,Net-(U5-Pad2)*%
%TA.AperFunction,SMDPad,CuDef*%
G36*
G01*
X136075000Y-109776000D02*
X135775000Y-109776000D01*
G75*
G02*
X135625000Y-109626000I0J150000D01*
G01*
X135625000Y-107976000D01*
G75*
G02*
X135775000Y-107826000I150000J0D01*
G01*
X136075000Y-107826000D01*
G75*
G02*
X136225000Y-107976000I0J-150000D01*
G01*
X136225000Y-109626000D01*
G75*
G02*
X136075000Y-109776000I-150000J0D01*
G01*
G37*
%TD.AperFunction*%
%TO.P,U5,3*%
%TO.N,Net-(U5-Pad3)*%
%TA.AperFunction,SMDPad,CuDef*%
G36*
G01*
X137345000Y-109776000D02*
X137045000Y-109776000D01*
G75*
G02*
X136895000Y-109626000I0J150000D01*
G01*
X136895000Y-107976000D01*
G75*
G02*
X137045000Y-107826000I150000J0D01*
G01*
X137345000Y-107826000D01*
G75*
G02*
X137495000Y-107976000I0J-150000D01*
G01*
X137495000Y-109626000D01*
G75*
G02*
X137345000Y-109776000I-150000J0D01*
G01*
G37*
%TD.AperFunction*%
%TO.P,U5,4*%
%TO.N,GND*%
%TA.AperFunction,SMDPad,CuDef*%
G36*
G01*
X138615000Y-109776000D02*
X138315000Y-109776000D01*
G75*
G02*
X138165000Y-109626000I0J150000D01*
G01*
X138165000Y-107976000D01*
G75*
G02*
X138315000Y-107826000I150000J0D01*
G01*
X138615000Y-107826000D01*
G75*
G02*
X138765000Y-107976000I0J-150000D01*
G01*
X138765000Y-109626000D01*
G75*
G02*
X138615000Y-109776000I-150000J0D01*
G01*
G37*
%TD.AperFunction*%
%TO.P,U5,5*%
%TO.N,SYS_TEMP*%
%TA.AperFunction,SMDPad,CuDef*%
G36*
G01*
X138615000Y-104826000D02*
X138315000Y-104826000D01*
G75*
G02*
X138165000Y-104676000I0J150000D01*
G01*
X138165000Y-103026000D01*
G75*
G02*
X138315000Y-102876000I150000J0D01*
G01*
X138615000Y-102876000D01*
G75*
G02*
X138765000Y-103026000I0J-150000D01*
G01*
X138765000Y-104676000D01*
G75*
G02*
X138615000Y-104826000I-150000J0D01*
G01*
G37*
%TD.AperFunction*%
%TO.P,U5,6*%
%TO.N,Net-(U5-Pad6)*%
%TA.AperFunction,SMDPad,CuDef*%
G36*
G01*
X137345000Y-104826000D02*
X137045000Y-104826000D01*
G75*
G02*
X136895000Y-104676000I0J150000D01*
G01*
X136895000Y-103026000D01*
G75*
G02*
X137045000Y-102876000I150000J0D01*
G01*
X137345000Y-102876000D01*
G75*
G02*
X137495000Y-103026000I0J-150000D01*
G01*
X137495000Y-104676000D01*
G75*
G02*
X137345000Y-104826000I-150000J0D01*
G01*
G37*
%TD.AperFunction*%
%TO.P,U5,7*%
%TO.N,Net-(U5-Pad7)*%
%TA.AperFunction,SMDPad,CuDef*%
G36*
G01*
X136075000Y-104826000D02*
X135775000Y-104826000D01*
G75*
G02*
X135625000Y-104676000I0J150000D01*
G01*
X135625000Y-103026000D01*
G75*
G02*
X135775000Y-102876000I150000J0D01*
G01*
X136075000Y-102876000D01*
G75*
G02*
X136225000Y-103026000I0J-150000D01*
G01*
X136225000Y-104676000D01*
G75*
G02*
X136075000Y-104826000I-150000J0D01*
G01*
G37*
%TD.AperFunction*%
%TO.P,U5,8*%
%TO.N,+3V3*%
%TA.AperFunction,SMDPad,CuDef*%
G36*
G01*
X134805000Y-104826000D02*
X134505000Y-104826000D01*
G75*
G02*
X134355000Y-104676000I0J150000D01*
G01*
X134355000Y-103026000D01*
G75*
G02*
X134505000Y-102876000I150000J0D01*
G01*
X134805000Y-102876000D01*
G75*
G02*
X134955000Y-103026000I0J-150000D01*
G01*
X134955000Y-104676000D01*
G75*
G02*
X134805000Y-104826000I-150000J0D01*
G01*
G37*
%TD.AperFunction*%
%TD*%
D25*
%TO.P,SW1,1*%
%TO.N,+3V3*%
X104560000Y-85720000D03*
%TO.P,SW1,2*%
%TO.N,Net-(R1-Pad1)*%
X104560000Y-88720000D03*
%TO.P,SW1,3*%
%TO.N,GND*%
X104560000Y-90220000D03*
D26*
%TO.P,SW1,*%
%TO.N,*%
X101700000Y-84320000D03*
X101700000Y-91620000D03*
X103910000Y-91620000D03*
X103910000Y-84320000D03*
%TD*%
D27*
%TO.P,J4,1*%
%TO.N,+3V3*%
X132900000Y-76100000D03*
D28*
%TO.P,J4,2*%
%TO.N,IMU_I2C_SCL*%
X127820000Y-76100000D03*
%TO.P,J4,3*%
%TO.N,IMU_I2C_SDA*%
X122740000Y-76100000D03*
%TO.P,J4,4*%
%TO.N,GND*%
X117660000Y-76100000D03*
%TD*%
%TO.P,J5,4*%
%TO.N,GND*%
X132840000Y-120800000D03*
%TO.P,J5,3*%
%TO.N,UART3_RX*%
X127760000Y-120800000D03*
%TO.P,J5,2*%
%TO.N,UART3_TX*%
X122680000Y-120800000D03*
D27*
%TO.P,J5,1*%
%TO.N,+3V3*%
X117600000Y-120800000D03*
%TD*%
D29*
%TO.P,J3,1*%
%TO.N,+3V3*%
X146340000Y-76710000D03*
%TO.P,J3,2*%
%TO.N,SWDIO*%
X146340000Y-80610000D03*
%TO.P,J3,3*%
%TO.N,GND*%
X145070000Y-76710000D03*
%TO.P,J3,4*%
%TO.N,SWCLK*%
X145070000Y-80610000D03*
%TO.P,J3,5*%
%TO.N,GND*%
X143800000Y-76710000D03*
%TO.P,J3,6*%
%TO.N,SWO*%
X143800000Y-80610000D03*
%TO.P,J3,7*%
%TO.N,Net-(J3-Pad7)*%
X142530000Y-76710000D03*
%TO.P,J3,8*%
%TO.N,Net-(J3-Pad8)*%
X142530000Y-80610000D03*
%TO.P,J3,9*%
%TO.N,GND*%
X141260000Y-76710000D03*
%TO.P,J3,10*%
%TO.N,NRST*%
X141260000Y-80610000D03*
%TD*%
%TO.P,FB1,1*%
%TO.N,BUCK_EN*%
%TA.AperFunction,SMDPad,CuDef*%
G36*
G01*
X158981250Y-108350000D02*
X158218750Y-108350000D01*
G75*
G02*
X158000000Y-108131250I0J218750D01*
G01*
X158000000Y-107693750D01*
G75*
G02*
X158218750Y-107475000I218750J0D01*
G01*
X158981250Y-107475000D01*
G75*
G02*
X159200000Y-107693750I0J-218750D01*
G01*
X159200000Y-108131250D01*
G75*
G02*
X158981250Y-108350000I-218750J0D01*
G01*
G37*
%TD.AperFunction*%
%TO.P,FB1,2*%
%TO.N,Net-(F1-Pad1)*%
%TA.AperFunction,SMDPad,CuDef*%
G36*
G01*
X158981250Y-106225000D02*
X158218750Y-106225000D01*
G75*
G02*
X158000000Y-106006250I0J218750D01*
G01*
X158000000Y-105568750D01*
G75*
G02*
X158218750Y-105350000I218750J0D01*
G01*
X158981250Y-105350000D01*
G75*
G02*
X159200000Y-105568750I0J-218750D01*
G01*
X159200000Y-106006250D01*
G75*
G02*
X158981250Y-106225000I-218750J0D01*
G01*
G37*
%TD.AperFunction*%
%TD*%
%TO.P,C15,1*%
%TO.N,GND*%
%TA.AperFunction,SMDPad,CuDef*%
G36*
G01*
X150235000Y-122020000D02*
X149285000Y-122020000D01*
G75*
G02*
X149035000Y-121770000I0J250000D01*
G01*
X149035000Y-121270000D01*
G75*
G02*
X149285000Y-121020000I250000J0D01*
G01*
X150235000Y-121020000D01*
G75*
G02*
X150485000Y-121270000I0J-250000D01*
G01*
X150485000Y-121770000D01*
G75*
G02*
X150235000Y-122020000I-250000J0D01*
G01*
G37*
%TD.AperFunction*%
%TO.P,C15,2*%
%TO.N,+3V3*%
%TA.AperFunction,SMDPad,CuDef*%
G36*
G01*
X150235000Y-120120000D02*
X149285000Y-120120000D01*
G75*
G02*
X149035000Y-119870000I0J250000D01*
G01*
X149035000Y-119370000D01*
G75*
G02*
X149285000Y-119120000I250000J0D01*
G01*
X150235000Y-119120000D01*
G75*
G02*
X150485000Y-119370000I0J-250000D01*
G01*
X150485000Y-119870000D01*
G75*
G02*
X150235000Y-120120000I-250000J0D01*
G01*
G37*
%TD.AperFunction*%
%TD*%
D30*
%TO.N,+3V3*%
X175090000Y-100130000D03*
X105740000Y-85740000D03*
X133920000Y-103530000D03*
X123010000Y-89700000D03*
X127750000Y-89710000D03*
X120800000Y-91370000D03*
X120810000Y-92970000D03*
X124140000Y-107230000D03*
X130930000Y-106440000D03*
X143990000Y-95160000D03*
X139590000Y-96190000D03*
X115250000Y-103300000D03*
X115730000Y-104130000D03*
X151430000Y-115660000D03*
X151430000Y-117180000D03*
X148100000Y-117150000D03*
X148090000Y-115620000D03*
X149120000Y-118410000D03*
X152510000Y-120090000D03*
X152500000Y-118080000D03*
X148640000Y-119160000D03*
X157590000Y-114160000D03*
X157710000Y-115050000D03*
X121770000Y-91410000D03*
D31*
X132550000Y-94020000D03*
D30*
X119800000Y-93990000D03*
X146340000Y-75040000D03*
%TO.N,GND*%
X155450000Y-73650000D03*
X175090000Y-101740000D03*
X133790000Y-94830000D03*
X136100000Y-95770000D03*
X105740000Y-90230000D03*
X118700000Y-95520000D03*
X131840000Y-106990000D03*
X132580000Y-105720000D03*
X131870000Y-108420000D03*
X118060000Y-91460000D03*
X123610000Y-92120000D03*
X118080000Y-92910000D03*
X121800000Y-107210000D03*
X138880000Y-93480000D03*
X138810000Y-94320000D03*
X141940000Y-96200000D03*
X140680000Y-106870000D03*
X118550000Y-100220000D03*
X139210000Y-109210000D03*
X170600000Y-91120000D03*
X170350000Y-90230000D03*
X169670000Y-91140000D03*
X169440000Y-90240000D03*
X150200000Y-122510000D03*
X149290000Y-122500000D03*
X152480000Y-123040000D03*
X153840000Y-122330000D03*
X161940000Y-110120000D03*
X161940000Y-111550000D03*
X166610000Y-107260000D03*
X141260000Y-75040000D03*
X167080000Y-90640000D03*
X113710000Y-101130000D03*
X116860000Y-96510000D03*
X112590000Y-98970000D03*
X116220000Y-94390000D03*
D31*
X116410000Y-100790000D03*
X142800000Y-96700000D03*
D30*
X143770000Y-75060000D03*
X145060000Y-75060000D03*
X161400000Y-114250000D03*
X161370000Y-115120000D03*
X154190000Y-109840000D03*
%TO.N,LED_STATUS*%
X162150000Y-74760000D03*
X122340000Y-103340000D03*
%TO.N,NRST*%
X127875000Y-96975000D03*
X135675000Y-92475000D03*
X139190000Y-80640000D03*
D31*
%TO.N,BOOT0*%
X122030000Y-95710000D03*
X111000000Y-88730000D03*
D30*
%TO.N,BUCK_EN*%
X157500000Y-109920000D03*
X154220000Y-113580000D03*
%TO.N,IMU_INT2*%
X143350000Y-98740000D03*
X147430000Y-94190000D03*
%TO.N,IMU_INT1*%
X136163663Y-99366876D03*
X138770000Y-96640000D03*
%TO.N,IMU_CS*%
X135320000Y-98830000D03*
X141290000Y-92090000D03*
%TO.N,IMU_I2C_SCL*%
X125600000Y-95890000D03*
X135770000Y-90730000D03*
%TO.N,IMU_I2C_SDA*%
X124730000Y-96700000D03*
X134950000Y-91620000D03*
%TD*%
D32*
%TO.N,+3V3*%
X122200000Y-93963000D02*
X122200000Y-92875000D01*
X121970000Y-92645000D02*
X121970000Y-92120000D01*
X122200000Y-92875000D02*
X121970000Y-92645000D01*
X120275000Y-95888000D02*
X120275000Y-95500000D01*
X119820000Y-95045000D02*
X119820000Y-94790000D01*
X120275000Y-95500000D02*
X119820000Y-95045000D01*
X123200000Y-105313000D02*
X123200000Y-106499992D01*
X123450000Y-106749992D02*
X123450000Y-107200000D01*
X123200000Y-106499992D02*
X123450000Y-106749992D01*
X129700000Y-105313000D02*
X130013000Y-105313000D01*
X130420000Y-105720000D02*
X130820000Y-105720000D01*
X130013000Y-105313000D02*
X130420000Y-105720000D01*
X131625000Y-95888000D02*
X132150000Y-95363000D01*
X132150000Y-95363000D02*
X132150000Y-94820000D01*
X120330000Y-92120000D02*
X120330000Y-92120000D01*
X120330000Y-92120000D02*
X120275000Y-92175000D01*
X123450000Y-107200000D02*
X123450000Y-107220000D01*
X130820000Y-105720000D02*
X130930000Y-105720000D01*
X140215990Y-95242404D02*
X140215990Y-94843500D01*
X140286000Y-95312414D02*
X140215990Y-95242404D01*
X140286000Y-96181000D02*
X140286000Y-95312414D01*
X142368490Y-95171000D02*
X141928500Y-94731010D01*
X143266000Y-95171000D02*
X142368490Y-95171000D01*
X119820000Y-94790000D02*
X119820000Y-94790000D01*
X119820000Y-94790000D02*
X119820000Y-94790000D01*
X132150000Y-94820000D02*
X132150000Y-94820000D01*
D33*
X152285000Y-119095000D02*
X152510000Y-119095000D01*
X152510000Y-119095000D02*
X152510000Y-119095000D01*
X152500000Y-119085000D02*
X152510000Y-119095000D01*
X152500000Y-118080000D02*
X152500000Y-119085000D01*
X152510000Y-119095000D02*
X152510000Y-120090000D01*
X148980000Y-117150000D02*
X149760000Y-116370000D01*
X148100000Y-117150000D02*
X148980000Y-117150000D01*
X149010000Y-115620000D02*
X149760000Y-116370000D01*
X148090000Y-115620000D02*
X149010000Y-115620000D01*
X150470000Y-115660000D02*
X149760000Y-116370000D01*
X151430000Y-115660000D02*
X150470000Y-115660000D01*
X150570000Y-117180000D02*
X149760000Y-116370000D01*
X151430000Y-117180000D02*
X150570000Y-117180000D01*
X151430000Y-117180000D02*
X151430000Y-115660000D01*
X148100000Y-115630000D02*
X148090000Y-115620000D01*
X148100000Y-117150000D02*
X148100000Y-115630000D01*
X151390000Y-115620000D02*
X151430000Y-115660000D01*
X148090000Y-115620000D02*
X151390000Y-115620000D01*
X148130000Y-117180000D02*
X148100000Y-117150000D01*
X151430000Y-117180000D02*
X148130000Y-117180000D01*
D34*
X120275000Y-91895000D02*
X120800000Y-91370000D01*
X120275000Y-92175000D02*
X120275000Y-91895000D01*
X123010000Y-89700000D02*
X123690000Y-89700000D01*
X127070000Y-89710000D02*
X127060000Y-89700000D01*
X127750000Y-89710000D02*
X127070000Y-89710000D01*
X130930000Y-105720000D02*
X130930000Y-106440000D01*
X123460000Y-107230000D02*
X123450000Y-107220000D01*
X124140000Y-107230000D02*
X123460000Y-107230000D01*
X115860000Y-103300000D02*
X115960000Y-103400000D01*
X115250000Y-103300000D02*
X115860000Y-103300000D01*
X115730000Y-103630000D02*
X115960000Y-103400000D01*
X115730000Y-104130000D02*
X115730000Y-103630000D01*
X104580000Y-85740000D02*
X104560000Y-85720000D01*
X105740000Y-85740000D02*
X104580000Y-85740000D01*
X134334000Y-103530000D02*
X134655000Y-103851000D01*
X133920000Y-103530000D02*
X134334000Y-103530000D01*
X143979000Y-95171000D02*
X143990000Y-95160000D01*
X143266000Y-95171000D02*
X143979000Y-95171000D01*
X139599000Y-96181000D02*
X139590000Y-96190000D01*
X140286000Y-96181000D02*
X139599000Y-96181000D01*
D32*
X121970000Y-92120000D02*
X121970000Y-92120000D01*
D34*
X121770000Y-91920000D02*
X121970000Y-92120000D01*
X121770000Y-91410000D02*
X121770000Y-91920000D01*
X175090000Y-100130000D02*
X174220000Y-100130000D01*
X132150000Y-94420000D02*
X132150000Y-94820000D01*
X132550000Y-94020000D02*
X132150000Y-94420000D01*
X120810000Y-92710000D02*
X120275000Y-92175000D01*
X120810000Y-92970000D02*
X120810000Y-92710000D01*
X121915000Y-92175000D02*
X121970000Y-92120000D01*
X120275000Y-92175000D02*
X121915000Y-92175000D01*
D32*
X119800000Y-94770000D02*
X119820000Y-94790000D01*
X119800000Y-93990000D02*
X119800000Y-94770000D01*
X146350000Y-76850000D02*
X146340000Y-76860000D01*
D34*
X146340000Y-75040000D02*
X146340000Y-76710000D01*
D35*
X157590000Y-114930000D02*
X157710000Y-115050000D01*
X157590000Y-114160000D02*
X157590000Y-114930000D01*
X158180000Y-114160000D02*
X158490000Y-114470000D01*
X157590000Y-114160000D02*
X158180000Y-114160000D01*
X157910000Y-115050000D02*
X158490000Y-114470000D01*
X157710000Y-115050000D02*
X157910000Y-115050000D01*
D33*
X149760000Y-119620000D02*
X149760000Y-116370000D01*
X149120000Y-118980000D02*
X149760000Y-119620000D01*
X149120000Y-118410000D02*
X149120000Y-118980000D01*
X149300000Y-119160000D02*
X149760000Y-119620000D01*
X148640000Y-119160000D02*
X149300000Y-119160000D01*
X148640000Y-118890000D02*
X149120000Y-118410000D01*
X148640000Y-119160000D02*
X148640000Y-118890000D01*
X150285000Y-119095000D02*
X149760000Y-119620000D01*
X152510000Y-119095000D02*
X150285000Y-119095000D01*
D32*
%TO.N,GND*%
X122700000Y-93963000D02*
X122700000Y-92850000D01*
X122930000Y-92620000D02*
X122930000Y-92120000D01*
X122700000Y-92850000D02*
X122930000Y-92620000D01*
X122700000Y-105313000D02*
X122700000Y-106425000D01*
X122490000Y-106635000D02*
X122490000Y-107220000D01*
X122700000Y-106425000D02*
X122490000Y-106635000D01*
X118442980Y-100908000D02*
X118400000Y-100908000D01*
X118922980Y-101388000D02*
X118442980Y-100908000D01*
X120275000Y-101388000D02*
X118922980Y-101388000D01*
D34*
X114400000Y-100988000D02*
X114400000Y-100750000D01*
X113875000Y-100225000D02*
X113875000Y-98975000D01*
X114400000Y-100750000D02*
X113875000Y-100225000D01*
X115575000Y-94953000D02*
X115360000Y-94738000D01*
X115575000Y-96775000D02*
X115575000Y-94953000D01*
D32*
X122930000Y-92120000D02*
X122930000Y-92120000D01*
X122490000Y-107220000D02*
X122490000Y-107220000D01*
X139950000Y-107316000D02*
X138465000Y-108801000D01*
X139950000Y-106860000D02*
X139950000Y-107316000D01*
X141246000Y-94863500D02*
X141266000Y-94843500D01*
X141246000Y-96181000D02*
X141246000Y-96181000D01*
X141266000Y-94843500D02*
X140816010Y-94843500D01*
X141246000Y-96181000D02*
X141246000Y-94863500D01*
D34*
X118060000Y-91510000D02*
X118725000Y-92175000D01*
X118060000Y-91460000D02*
X118060000Y-91510000D01*
X118725000Y-92265000D02*
X118080000Y-92910000D01*
X118725000Y-92175000D02*
X118725000Y-92265000D01*
X123610000Y-92120000D02*
X122930000Y-92120000D01*
X132580000Y-105720000D02*
X131890000Y-105720000D01*
X131840000Y-107085000D02*
X131200000Y-107725000D01*
X131840000Y-106990000D02*
X131840000Y-107085000D01*
X131870000Y-108395000D02*
X131200000Y-107725000D01*
X131870000Y-108420000D02*
X131870000Y-108395000D01*
X122480000Y-107210000D02*
X122490000Y-107220000D01*
X121800000Y-107210000D02*
X122480000Y-107210000D01*
X118700000Y-94950000D02*
X118860000Y-94790000D01*
X118700000Y-95520000D02*
X118700000Y-94950000D01*
X104570000Y-90230000D02*
X104560000Y-90220000D01*
X105740000Y-90230000D02*
X104570000Y-90230000D01*
X140670000Y-106860000D02*
X140680000Y-106870000D01*
X139950000Y-106860000D02*
X140670000Y-106860000D01*
X141921000Y-96181000D02*
X141940000Y-96200000D01*
X141246000Y-96181000D02*
X141921000Y-96181000D01*
D32*
X139402500Y-93480000D02*
X139603500Y-93681000D01*
X138880000Y-93480000D02*
X139402500Y-93480000D01*
X139603500Y-93681000D02*
X139603500Y-93181000D01*
D34*
X135490000Y-96380000D02*
X136100000Y-95770000D01*
X135355000Y-96380000D02*
X135490000Y-96380000D01*
X133780000Y-94820000D02*
X133790000Y-94830000D01*
X133110000Y-94820000D02*
X133780000Y-94820000D01*
D32*
X118400000Y-100908000D02*
X118400000Y-100908000D01*
D34*
X118400000Y-100370000D02*
X118550000Y-100220000D01*
X118400000Y-100908000D02*
X118400000Y-100370000D01*
X138874000Y-109210000D02*
X138465000Y-108801000D01*
X139210000Y-109210000D02*
X138874000Y-109210000D01*
X169670000Y-90470000D02*
X169440000Y-90240000D01*
X169670000Y-91140000D02*
X169670000Y-90470000D01*
X170600000Y-90480000D02*
X170350000Y-90230000D01*
X170600000Y-91120000D02*
X170600000Y-90480000D01*
X170340000Y-90240000D02*
X170350000Y-90230000D01*
X169440000Y-90240000D02*
X170340000Y-90240000D01*
X170580000Y-91140000D02*
X170600000Y-91120000D01*
X169670000Y-91140000D02*
X170580000Y-91140000D01*
X170680000Y-91200000D02*
X171787500Y-91200000D01*
X170600000Y-91120000D02*
X170680000Y-91200000D01*
X170320000Y-91120000D02*
X169440000Y-90240000D01*
X170600000Y-91120000D02*
X170320000Y-91120000D01*
X170350000Y-90460000D02*
X169670000Y-91140000D01*
X170350000Y-90230000D02*
X170350000Y-90460000D01*
X156225000Y-73650000D02*
X156275000Y-73700000D01*
X155450000Y-73650000D02*
X156225000Y-73650000D01*
D33*
X152480000Y-122075000D02*
X152510000Y-122045000D01*
X152480000Y-123040000D02*
X152480000Y-122075000D01*
X152795000Y-122330000D02*
X152510000Y-122045000D01*
X153840000Y-122330000D02*
X152795000Y-122330000D01*
X161630000Y-110120000D02*
X160955000Y-110795000D01*
X161940000Y-110120000D02*
X161630000Y-110120000D01*
X161710000Y-111550000D02*
X160955000Y-110795000D01*
X161940000Y-111550000D02*
X161710000Y-111550000D01*
X161940000Y-110120000D02*
X161940000Y-111550000D01*
D36*
X167504998Y-92890000D02*
X167080000Y-92465002D01*
X167080000Y-92465002D02*
X167080000Y-90640000D01*
X168130000Y-92890000D02*
X167504998Y-92890000D01*
D34*
X115708000Y-94390000D02*
X115360000Y-94738000D01*
X116220000Y-94390000D02*
X115708000Y-94390000D01*
X115840000Y-96510000D02*
X115575000Y-96775000D01*
X116860000Y-96510000D02*
X115840000Y-96510000D01*
X113870000Y-98970000D02*
X113875000Y-98975000D01*
X112590000Y-98970000D02*
X113870000Y-98970000D01*
X116992000Y-100790000D02*
X117110000Y-100908000D01*
X116410000Y-100790000D02*
X116992000Y-100790000D01*
X142800000Y-96597000D02*
X143266000Y-96131000D01*
X142800000Y-96700000D02*
X142800000Y-96597000D01*
X174295000Y-101760000D02*
X174265000Y-101730000D01*
X174275000Y-101740000D02*
X174265000Y-101730000D01*
X175090000Y-101740000D02*
X174275000Y-101740000D01*
D32*
X138949000Y-94181000D02*
X139603500Y-94181000D01*
X138810000Y-94320000D02*
X138949000Y-94181000D01*
X141250000Y-76850000D02*
X141260000Y-76860000D01*
D34*
X141260000Y-75040000D02*
X141260000Y-76710000D01*
X143770000Y-76319990D02*
X143800000Y-76349990D01*
X143770000Y-75060000D02*
X143770000Y-76319990D01*
X145060000Y-76700000D02*
X145070000Y-76710000D01*
X145060000Y-75060000D02*
X145060000Y-76700000D01*
D35*
X166610000Y-107760000D02*
X166180000Y-108190000D01*
X166610000Y-107260000D02*
X166610000Y-107760000D01*
X160560000Y-114250000D02*
X160340000Y-114470000D01*
X161400000Y-114250000D02*
X160560000Y-114250000D01*
X160990000Y-115120000D02*
X160340000Y-114470000D01*
X161370000Y-115120000D02*
X160990000Y-115120000D01*
X161370000Y-114340000D02*
X161400000Y-114310000D01*
X161370000Y-115120000D02*
X161370000Y-114340000D01*
X161400000Y-114250000D02*
X161400000Y-114310000D01*
X154190000Y-110654990D02*
X154140000Y-110704990D01*
X154190000Y-109840000D02*
X154190000Y-110654990D01*
D33*
X150200000Y-121960000D02*
X149760000Y-121520000D01*
X150200000Y-122510000D02*
X150200000Y-121960000D01*
X149290000Y-121990000D02*
X149760000Y-121520000D01*
X149290000Y-122500000D02*
X149290000Y-121990000D01*
X150190000Y-122500000D02*
X150200000Y-122510000D01*
X149290000Y-122500000D02*
X150190000Y-122500000D01*
D32*
%TO.N,+3.3VA*%
X118420000Y-101888000D02*
X118400000Y-101868000D01*
X120275000Y-101888000D02*
X118420000Y-101888000D01*
X116930000Y-102048000D02*
X117110000Y-101868000D01*
X116930000Y-103400000D02*
X116930000Y-102048000D01*
X118400000Y-101868000D02*
X117110000Y-101868000D01*
%TO.N,Net-(C9-Pad1)*%
X129200000Y-107275000D02*
X129650000Y-107725000D01*
X129200000Y-105313000D02*
X129200000Y-107275000D01*
%TO.N,Net-(C10-Pad1)*%
X133797000Y-96388000D02*
X133805000Y-96380000D01*
X131625000Y-96388000D02*
X133797000Y-96388000D01*
%TO.N,HSE_IN*%
X120275000Y-97888000D02*
X114213000Y-97888000D01*
X114213000Y-97888000D02*
X113950000Y-97625000D01*
X113950000Y-97625000D02*
X113950000Y-96738000D01*
D34*
X113875000Y-95263000D02*
X114400000Y-94738000D01*
X113875000Y-96775000D02*
X113875000Y-95263000D01*
%TO.N,Net-(C12-Pad1)*%
X115950000Y-98600000D02*
X115575000Y-98975000D01*
X117390000Y-98600000D02*
X115950000Y-98600000D01*
X115575000Y-100773000D02*
X115360000Y-100988000D01*
X115575000Y-98975000D02*
X115575000Y-100773000D01*
D35*
%TO.N,BUCK_BST*%
X156400000Y-110680000D02*
X156340000Y-110740000D01*
X156340000Y-109450000D02*
X156190000Y-109300000D01*
X156340000Y-110740000D02*
X156340000Y-109450000D01*
%TO.N,BUCK_SW*%
X154918002Y-111690000D02*
X154140000Y-111690000D01*
X155230000Y-111378002D02*
X154918002Y-111690000D01*
X155230000Y-109300000D02*
X155230000Y-111378002D01*
D33*
X150340000Y-111690000D02*
X149760000Y-112270000D01*
X154140000Y-111690000D02*
X150340000Y-111690000D01*
D34*
%TO.N,Net-(D1-Pad1)*%
X172645000Y-101700000D02*
X172615000Y-101730000D01*
X172645000Y-100130000D02*
X172645000Y-101700000D01*
%TO.N,Net-(D2-Pad1)*%
X157925000Y-73700000D02*
X159600000Y-73700000D01*
%TO.N,LED_STATUS*%
X161175000Y-73700000D02*
X161175000Y-73785000D01*
X161175000Y-73785000D02*
X162150000Y-74760000D01*
D32*
X122292000Y-103388000D02*
X120275000Y-103388000D01*
X122340000Y-103340000D02*
X122292000Y-103388000D01*
D34*
%TO.N,Net-(D3-Pad1)*%
X169150000Y-99150000D02*
X169150000Y-100920000D01*
X164280000Y-105790000D02*
X164280000Y-108190000D01*
X169150000Y-100920000D02*
X164280000Y-105790000D01*
D33*
X164280000Y-108190000D02*
X161500000Y-108190000D01*
D34*
%TO.N,+5V*%
X171787500Y-93800000D02*
X171325000Y-93800000D01*
X169275000Y-95850000D02*
X169150000Y-95850000D01*
X171325000Y-93800000D02*
X169275000Y-95850000D01*
D36*
X169150000Y-95850000D02*
X167460000Y-95850000D01*
X167460000Y-95850000D02*
X167010000Y-95400000D01*
X166555002Y-92890000D02*
X165930000Y-92890000D01*
X167010000Y-93344998D02*
X166555002Y-92890000D01*
X167010000Y-95400000D02*
X167010000Y-93344998D01*
D33*
%TO.N,Net-(F1-Pad1)*%
X158997500Y-105390000D02*
X158600000Y-105787500D01*
X161500000Y-105390000D02*
X158997500Y-105390000D01*
%TO.N,+12V*%
X165440000Y-110400000D02*
X165230000Y-110190000D01*
X170800000Y-110400000D02*
X165440000Y-110400000D01*
D32*
%TO.N,Net-(J2-Pad6)*%
X174487500Y-89600000D02*
X174487500Y-95400000D01*
X174087500Y-90000000D02*
X174487500Y-89600000D01*
X171787500Y-90000000D02*
X174087500Y-90000000D01*
X173487500Y-95000000D02*
X174487500Y-96000000D01*
X171787500Y-95000000D02*
X173487500Y-95000000D01*
D36*
%TO.N,USB_CONN_D-*%
X171594252Y-93150000D02*
X171594244Y-93149992D01*
X171787500Y-93150000D02*
X171594252Y-93150000D01*
X169890000Y-93150000D02*
X169200000Y-93840000D01*
X169200000Y-93840000D02*
X168130000Y-93840000D01*
X171787500Y-93150000D02*
X169890000Y-93150000D01*
%TO.N,USB_CONN_D+*%
X171787500Y-92500000D02*
X169900000Y-92500000D01*
X169340000Y-91940000D02*
X168130000Y-91940000D01*
X169900000Y-92500000D02*
X169340000Y-91940000D01*
D32*
%TO.N,SWDIO*%
X130150000Y-96475000D02*
X130200010Y-96424990D01*
X131625000Y-96888000D02*
X130563000Y-96888000D01*
X130563000Y-96888000D02*
X130150000Y-96475000D01*
X130200010Y-95274990D02*
X137800000Y-87675000D01*
X130200010Y-96424990D02*
X130200010Y-95274990D01*
X137800000Y-87675000D02*
X137800000Y-87670000D01*
X146430000Y-80520000D02*
X146340000Y-80610000D01*
X137800000Y-87675000D02*
X137815000Y-87675000D01*
X137815000Y-87675000D02*
X139670000Y-85820000D01*
X146340000Y-82110000D02*
X146340000Y-80610000D01*
X142630000Y-85820000D02*
X146340000Y-82110000D01*
X139670000Y-85820000D02*
X142630000Y-85820000D01*
D34*
%TO.N,SWCLK*%
X145060000Y-80470000D02*
X145070000Y-80460000D01*
D32*
X142220000Y-84960000D02*
X145070000Y-82110000D01*
X137550000Y-84960000D02*
X142220000Y-84960000D01*
X145070000Y-82110000D02*
X145070000Y-80610000D01*
X129700000Y-92810000D02*
X137550000Y-84960000D01*
X129700000Y-93963000D02*
X129700000Y-92810000D01*
D34*
%TO.N,SWO*%
X143780000Y-80480000D02*
X143800000Y-80460000D01*
D32*
X126700000Y-93188000D02*
X135788000Y-84100000D01*
X126700000Y-93963000D02*
X126700000Y-93188000D01*
X135788000Y-84100000D02*
X141820000Y-84100000D01*
X143800000Y-82120000D02*
X143800000Y-80610000D01*
X141820000Y-84100000D02*
X143800000Y-82120000D01*
%TO.N,NRST*%
X125962000Y-98888000D02*
X127875000Y-96975000D01*
X120275000Y-98888000D02*
X125962000Y-98888000D01*
X141230000Y-80640000D02*
X141260000Y-80610000D01*
X139190000Y-80640000D02*
X141230000Y-80640000D01*
%TO.N,UART3_RX*%
X128700000Y-105313000D02*
X128700000Y-107400000D01*
X127760000Y-108340000D02*
X127760000Y-120800000D01*
X128700000Y-107400000D02*
X127760000Y-108340000D01*
%TO.N,UART3_TX*%
X122680000Y-112045000D02*
X122680000Y-120800000D01*
X128200000Y-106525000D02*
X122680000Y-112045000D01*
X128200000Y-105313000D02*
X128200000Y-106525000D01*
%TO.N,BOOT0*%
X124200000Y-93963000D02*
X124200000Y-95240000D01*
X123730000Y-95710000D02*
X122030000Y-95710000D01*
X124200000Y-95240000D02*
X123730000Y-95710000D01*
X109960000Y-88730000D02*
X109950000Y-88740000D01*
X111000000Y-88730000D02*
X109960000Y-88730000D01*
%TO.N,Net-(R1-Pad1)*%
X104580000Y-88740000D02*
X104560000Y-88720000D01*
X108930000Y-88740000D02*
X104580000Y-88740000D01*
%TO.N,HSE_OUT*%
X120275000Y-98388000D02*
X119337000Y-98388000D01*
X120275000Y-98388000D02*
X118900008Y-98388000D01*
X118688008Y-98600000D02*
X118410000Y-98600000D01*
X118900008Y-98388000D02*
X118688008Y-98600000D01*
D33*
%TO.N,BUCK_EN*%
X158542500Y-110772500D02*
X158565000Y-110795000D01*
X158600000Y-110760000D02*
X158565000Y-110795000D01*
X158600000Y-107912500D02*
X158600000Y-110760000D01*
X157655001Y-111704999D02*
X156768015Y-111704999D01*
X158565000Y-110795000D02*
X157655001Y-111704999D01*
X158375000Y-110795000D02*
X157500000Y-109920000D01*
X158565000Y-110795000D02*
X158375000Y-110795000D01*
X154220000Y-112880010D02*
X154140000Y-112800010D01*
X154220000Y-113580000D02*
X154220000Y-112880010D01*
D35*
%TO.N,BUCK_FB*%
X160340000Y-112820000D02*
X158490000Y-112820000D01*
X156520000Y-112820000D02*
X156340000Y-112640000D01*
X158490000Y-112820000D02*
X156520000Y-112820000D01*
D37*
%TO.N,USB_D-*%
X131625000Y-97888000D02*
X131642844Y-97870156D01*
X131642844Y-97870156D02*
X145583164Y-97870156D01*
X165229999Y-93650000D02*
X166025000Y-93650000D01*
X150521164Y-92932156D02*
X164512155Y-92932156D01*
X164512155Y-92932156D02*
X165229999Y-93650000D01*
X145583164Y-97870156D02*
X150521164Y-92932156D01*
%TO.N,USB_D+*%
X131625000Y-97388000D02*
X131642844Y-97405844D01*
X131642844Y-97405844D02*
X145390836Y-97405844D01*
X165229999Y-91750000D02*
X166025000Y-91750000D01*
X164512155Y-92467844D02*
X165229999Y-91750000D01*
X150328836Y-92467844D02*
X164512155Y-92467844D01*
X145390836Y-97405844D02*
X150328836Y-92467844D01*
D32*
%TO.N,SYS_TEMP*%
X139950000Y-105336000D02*
X138465000Y-103851000D01*
X139950000Y-105840000D02*
X139950000Y-105336000D01*
X128628000Y-102388000D02*
X120275000Y-102388000D01*
X130427990Y-104187990D02*
X128628000Y-102388000D01*
X132687990Y-104187990D02*
X130427990Y-104187990D01*
X134110000Y-105610000D02*
X132687990Y-104187990D01*
X137681000Y-105610000D02*
X134110000Y-105610000D01*
X138465000Y-104826000D02*
X137681000Y-105610000D01*
X138465000Y-103851000D02*
X138465000Y-104826000D01*
%TO.N,IMU_INT2*%
X139702000Y-102388000D02*
X143350000Y-98740000D01*
X131625000Y-102388000D02*
X139702000Y-102388000D01*
X143350000Y-98740000D02*
X143350000Y-98740000D01*
X141937500Y-94190000D02*
X141928500Y-94181000D01*
X147430000Y-94190000D02*
X141937500Y-94190000D01*
%TO.N,IMU_INT1*%
X131625000Y-101888000D02*
X133598000Y-101888000D01*
X136119124Y-99366876D02*
X136163663Y-99366876D01*
X133598000Y-101888000D02*
X136119124Y-99366876D01*
X138770000Y-95564510D02*
X139603500Y-94731010D01*
X138770000Y-96640000D02*
X138770000Y-95564510D01*
%TO.N,IMU_CS*%
X131625000Y-101388000D02*
X132762000Y-101388000D01*
X132762000Y-101388000D02*
X135320000Y-98830000D01*
X141316010Y-92619596D02*
X141316010Y-93018500D01*
X141290000Y-92593586D02*
X141316010Y-92619596D01*
X141290000Y-92090000D02*
X141290000Y-92593586D01*
%TO.N,IMU_I2C_SCL*%
X125200000Y-93963000D02*
X125200000Y-92850000D01*
X125200000Y-92850000D02*
X126025000Y-92025000D01*
X126025000Y-89715000D02*
X126040000Y-89700000D01*
X126025000Y-92025000D02*
X126025000Y-89715000D01*
X126040000Y-89700000D02*
X126040000Y-85410000D01*
X127820000Y-83630000D02*
X127820000Y-76100000D01*
X126040000Y-85410000D02*
X127820000Y-83630000D01*
X125200000Y-95490000D02*
X125600000Y-95890000D01*
X125200000Y-93963000D02*
X125200000Y-95490000D01*
X140766000Y-92540315D02*
X140766000Y-93018500D01*
X138955685Y-90730000D02*
X140766000Y-92540315D01*
X135770000Y-90730000D02*
X138955685Y-90730000D01*
%TO.N,IMU_I2C_SDA*%
X124700000Y-89710000D02*
X124710000Y-89700000D01*
X124700000Y-93963000D02*
X124700000Y-89710000D01*
X124710000Y-89700000D02*
X124710000Y-85360000D01*
X122740000Y-83390000D02*
X122740000Y-76100000D01*
X124710000Y-85360000D02*
X122740000Y-83390000D01*
X124700000Y-96670000D02*
X124730000Y-96700000D01*
X124700000Y-93963000D02*
X124700000Y-96670000D01*
X139067500Y-91820000D02*
X140266000Y-93018500D01*
X138867500Y-91620000D02*
X139067500Y-91820000D01*
X134950000Y-91620000D02*
X138867500Y-91620000D01*
%TD*%
M02*
