%TF.GenerationSoftware,KiCad,Pcbnew,(5.1.7)-1*%
%TF.CreationDate,2021-01-30T20:15:53-05:00*%
%TF.ProjectId,STM32F4_Eval,53544d33-3246-4345-9f45-76616c2e6b69,rev?*%
%TF.SameCoordinates,Original*%
%TF.FileFunction,Copper,L4,Bot*%
%TF.FilePolarity,Positive*%
%FSLAX46Y46*%
G04 Gerber Fmt 4.6, Leading zero omitted, Abs format (unit mm)*
G04 Created by KiCad (PCBNEW (5.1.7)-1) date 2021-01-30 20:15:53*
%MOMM*%
%LPD*%
G01*
G04 APERTURE LIST*
%TA.AperFunction,ComponentPad*%
%ADD10C,1.450000*%
%TD*%
%TA.AperFunction,ComponentPad*%
%ADD11O,1.900000X1.200000*%
%TD*%
%TA.AperFunction,ComponentPad*%
%ADD12C,8.600000*%
%TD*%
%TA.AperFunction,ComponentPad*%
%ADD13C,0.900000*%
%TD*%
%TA.AperFunction,ComponentPad*%
%ADD14C,2.400000*%
%TD*%
%TA.AperFunction,ComponentPad*%
%ADD15R,2.400000X2.400000*%
%TD*%
%TA.AperFunction,ComponentPad*%
%ADD16R,2.600000X2.600000*%
%TD*%
%TA.AperFunction,ComponentPad*%
%ADD17C,2.600000*%
%TD*%
%TA.AperFunction,ViaPad*%
%ADD18C,0.800000*%
%TD*%
%TA.AperFunction,ViaPad*%
%ADD19C,0.750000*%
%TD*%
%TA.AperFunction,Conductor*%
%ADD20C,0.500000*%
%TD*%
%TA.AperFunction,Conductor*%
%ADD21C,0.300000*%
%TD*%
%TA.AperFunction,Conductor*%
%ADD22C,1.000000*%
%TD*%
G04 APERTURE END LIST*
D10*
%TO.P,J2,6*%
%TO.N,Net-(J2-Pad6)*%
X171787500Y-95000000D03*
X171787500Y-90000000D03*
D11*
X174487500Y-96000000D03*
X174487500Y-89000000D03*
%TD*%
D12*
%TO.P,H2,1*%
%TO.N,GND*%
X106250000Y-121250000D03*
D13*
X109475000Y-121250000D03*
X108530419Y-123530419D03*
X106250000Y-124475000D03*
X103969581Y-123530419D03*
X103025000Y-121250000D03*
X103969581Y-118969581D03*
X106250000Y-118025000D03*
X108530419Y-118969581D03*
%TD*%
D14*
%TO.P,J1,2*%
%TO.N,GND*%
X170800000Y-106900000D03*
D15*
%TO.P,J1,1*%
%TO.N,+12V*%
X170800000Y-110400000D03*
%TD*%
D13*
%TO.P,H3,1*%
%TO.N,GND*%
X173280419Y-118969581D03*
X171000000Y-118025000D03*
X168719581Y-118969581D03*
X167775000Y-121250000D03*
X168719581Y-123530419D03*
X171000000Y-124475000D03*
X173280419Y-123530419D03*
X174225000Y-121250000D03*
D12*
X171000000Y-121250000D03*
%TD*%
D13*
%TO.P,H1,1*%
%TO.N,GND*%
X108530419Y-73469581D03*
X106250000Y-72525000D03*
X103969581Y-73469581D03*
X103025000Y-75750000D03*
X103969581Y-78030419D03*
X106250000Y-78975000D03*
X108530419Y-78030419D03*
X109475000Y-75750000D03*
D12*
X106250000Y-75750000D03*
%TD*%
%TO.P,H4,1*%
%TO.N,GND*%
X170750000Y-75750000D03*
D13*
X173975000Y-75750000D03*
X173030419Y-78030419D03*
X170750000Y-78975000D03*
X168469581Y-78030419D03*
X167525000Y-75750000D03*
X168469581Y-73469581D03*
X170750000Y-72525000D03*
X173030419Y-73469581D03*
%TD*%
D16*
%TO.P,J4,1*%
%TO.N,+3V3*%
X132900000Y-76100000D03*
D17*
%TO.P,J4,2*%
%TO.N,IMU_I2C_SCL*%
X127820000Y-76100000D03*
%TO.P,J4,3*%
%TO.N,IMU_I2C_SDA*%
X122740000Y-76100000D03*
%TO.P,J4,4*%
%TO.N,GND*%
X117660000Y-76100000D03*
%TD*%
%TO.P,J5,4*%
%TO.N,GND*%
X132840000Y-120800000D03*
%TO.P,J5,3*%
%TO.N,UART3_RX*%
X127760000Y-120800000D03*
%TO.P,J5,2*%
%TO.N,UART3_TX*%
X122680000Y-120800000D03*
D16*
%TO.P,J5,1*%
%TO.N,+3V3*%
X117600000Y-120800000D03*
%TD*%
D18*
%TO.N,+3V3*%
X175090000Y-100130000D03*
X105740000Y-85740000D03*
X133920000Y-103530000D03*
X123010000Y-89700000D03*
X127750000Y-89710000D03*
X120800000Y-91370000D03*
X120810000Y-92970000D03*
X124140000Y-107230000D03*
X130930000Y-106440000D03*
X143990000Y-95160000D03*
X139590000Y-96190000D03*
X115250000Y-103300000D03*
X115730000Y-104130000D03*
X151430000Y-115660000D03*
X151430000Y-117180000D03*
X148100000Y-117150000D03*
X148090000Y-115620000D03*
X149120000Y-118410000D03*
X152510000Y-120090000D03*
X152500000Y-118080000D03*
X148640000Y-119160000D03*
X157590000Y-114160000D03*
X157710000Y-115050000D03*
X121770000Y-91410000D03*
D19*
X132550000Y-94020000D03*
D18*
X119800000Y-93990000D03*
X146340000Y-75040000D03*
%TO.N,GND*%
X155450000Y-73650000D03*
X175090000Y-101740000D03*
X133790000Y-94830000D03*
X136100000Y-95770000D03*
X105740000Y-90230000D03*
X118700000Y-95520000D03*
X131840000Y-106990000D03*
X132580000Y-105720000D03*
X131870000Y-108420000D03*
X118060000Y-91460000D03*
X123610000Y-92120000D03*
X118080000Y-92910000D03*
X121800000Y-107210000D03*
X138880000Y-93480000D03*
X138810000Y-94320000D03*
X141940000Y-96200000D03*
X140680000Y-106870000D03*
X118550000Y-100220000D03*
X139210000Y-109210000D03*
X170600000Y-91120000D03*
X170350000Y-90230000D03*
X169670000Y-91140000D03*
X169440000Y-90240000D03*
X150200000Y-122510000D03*
X149290000Y-122500000D03*
X152480000Y-123040000D03*
X153840000Y-122330000D03*
X161940000Y-110120000D03*
X161940000Y-111550000D03*
X166610000Y-107260000D03*
X141260000Y-75040000D03*
X167080000Y-90640000D03*
X113710000Y-101130000D03*
X116860000Y-96510000D03*
X112590000Y-98970000D03*
X116220000Y-94390000D03*
D19*
X116410000Y-100790000D03*
X142800000Y-96700000D03*
D18*
X143770000Y-75060000D03*
X145060000Y-75060000D03*
X161400000Y-114250000D03*
X161370000Y-115120000D03*
X154190000Y-109840000D03*
%TO.N,LED_STATUS*%
X162150000Y-74760000D03*
X122340000Y-103340000D03*
%TO.N,NRST*%
X127875000Y-96975000D03*
X135675000Y-92475000D03*
X139190000Y-80640000D03*
D19*
%TO.N,BOOT0*%
X122030000Y-95710000D03*
X111000000Y-88730000D03*
D18*
%TO.N,BUCK_EN*%
X157500000Y-109920000D03*
X154220000Y-113580000D03*
%TO.N,IMU_INT2*%
X143350000Y-98740000D03*
X147430000Y-94190000D03*
%TO.N,IMU_INT1*%
X136163663Y-99366876D03*
X138770000Y-96640000D03*
%TO.N,IMU_CS*%
X135320000Y-98830000D03*
X141290000Y-92090000D03*
%TO.N,IMU_I2C_SCL*%
X125600000Y-95890000D03*
X135770000Y-90730000D03*
%TO.N,IMU_I2C_SDA*%
X124730000Y-96700000D03*
X134950000Y-91620000D03*
%TD*%
D20*
%TO.N,LED_STATUS*%
X123000001Y-102679999D02*
X122340000Y-103340000D01*
X134358003Y-102679999D02*
X123000001Y-102679999D01*
X140440001Y-96598001D02*
X134358003Y-102679999D01*
X140440001Y-96469999D02*
X140440001Y-96598001D01*
X162150000Y-74760000D02*
X140440001Y-96469999D01*
D21*
%TO.N,NRST*%
X127875000Y-96975000D02*
X132375000Y-92475000D01*
X132375000Y-92475000D02*
X135675000Y-92475000D01*
X139190000Y-88960000D02*
X139190000Y-80640000D01*
X135675000Y-92475000D02*
X139190000Y-88960000D01*
%TO.N,BOOT0*%
X111000000Y-88750000D02*
X111000000Y-88730000D01*
X118659999Y-94859999D02*
X112640000Y-88840000D01*
X121179999Y-94859999D02*
X118659999Y-94859999D01*
X122030000Y-95710000D02*
X121179999Y-94859999D01*
X111110000Y-88840000D02*
X111000000Y-88730000D01*
X112640000Y-88840000D02*
X111110000Y-88840000D01*
D22*
%TO.N,BUCK_EN*%
X157500000Y-110300000D02*
X154220000Y-113580000D01*
X157500000Y-109920000D02*
X157500000Y-110300000D01*
D21*
%TO.N,IMU_INT2*%
X147430000Y-94660000D02*
X147430000Y-94190000D01*
X143350000Y-98740000D02*
X147430000Y-94660000D01*
%TO.N,IMU_INT1*%
X138770000Y-96760539D02*
X138770000Y-96640000D01*
X136163663Y-99366876D02*
X138770000Y-96760539D01*
%TO.N,IMU_CS*%
X135320000Y-98830000D02*
X141290000Y-92860000D01*
X141290000Y-92860000D02*
X141290000Y-92090000D01*
%TO.N,IMU_I2C_SCL*%
X125600000Y-95890000D02*
X130560000Y-90930000D01*
X135570000Y-90930000D02*
X135770000Y-90730000D01*
X130560000Y-90930000D02*
X135570000Y-90930000D01*
%TO.N,IMU_I2C_SDA*%
X124730000Y-96700000D02*
X126640000Y-96700000D01*
X126640000Y-96700000D02*
X131525001Y-91814999D01*
X134755001Y-91814999D02*
X134950000Y-91620000D01*
X131525001Y-91814999D02*
X134755001Y-91814999D01*
%TD*%
M02*
