%TF.GenerationSoftware,KiCad,Pcbnew,(5.1.7)-1*%
%TF.CreationDate,2021-01-30T20:15:53-05:00*%
%TF.ProjectId,STM32F4_Eval,53544d33-3246-4345-9f45-76616c2e6b69,rev?*%
%TF.SameCoordinates,Original*%
%TF.FileFunction,Legend,Bot*%
%TF.FilePolarity,Positive*%
%FSLAX46Y46*%
G04 Gerber Fmt 4.6, Leading zero omitted, Abs format (unit mm)*
G04 Created by KiCad (PCBNEW (5.1.7)-1) date 2021-01-30 20:15:53*
%MOMM*%
%LPD*%
G01*
G04 APERTURE LIST*
%ADD10C,0.300000*%
G04 APERTURE END LIST*
D10*
X131717142Y-122980000D02*
X131574285Y-122908571D01*
X131360000Y-122908571D01*
X131145714Y-122980000D01*
X131002857Y-123122857D01*
X130931428Y-123265714D01*
X130860000Y-123551428D01*
X130860000Y-123765714D01*
X130931428Y-124051428D01*
X131002857Y-124194285D01*
X131145714Y-124337142D01*
X131360000Y-124408571D01*
X131502857Y-124408571D01*
X131717142Y-124337142D01*
X131788571Y-124265714D01*
X131788571Y-123765714D01*
X131502857Y-123765714D01*
X132431428Y-124408571D02*
X132431428Y-122908571D01*
X133288571Y-124408571D01*
X133288571Y-122908571D01*
X134002857Y-124408571D02*
X134002857Y-122908571D01*
X134360000Y-122908571D01*
X134574285Y-122980000D01*
X134717142Y-123122857D01*
X134788571Y-123265714D01*
X134860000Y-123551428D01*
X134860000Y-123765714D01*
X134788571Y-124051428D01*
X134717142Y-124194285D01*
X134574285Y-124337142D01*
X134360000Y-124408571D01*
X134002857Y-124408571D01*
X115824285Y-122918571D02*
X116752857Y-122918571D01*
X116252857Y-123490000D01*
X116467142Y-123490000D01*
X116610000Y-123561428D01*
X116681428Y-123632857D01*
X116752857Y-123775714D01*
X116752857Y-124132857D01*
X116681428Y-124275714D01*
X116610000Y-124347142D01*
X116467142Y-124418571D01*
X116038571Y-124418571D01*
X115895714Y-124347142D01*
X115824285Y-124275714D01*
X117252857Y-123418571D02*
X117610000Y-124418571D01*
X117967142Y-123418571D01*
X118395714Y-122918571D02*
X119324285Y-122918571D01*
X118824285Y-123490000D01*
X119038571Y-123490000D01*
X119181428Y-123561428D01*
X119252857Y-123632857D01*
X119324285Y-123775714D01*
X119324285Y-124132857D01*
X119252857Y-124275714D01*
X119181428Y-124347142D01*
X119038571Y-124418571D01*
X118610000Y-124418571D01*
X118467142Y-124347142D01*
X118395714Y-124275714D01*
X131154285Y-72368571D02*
X132082857Y-72368571D01*
X131582857Y-72940000D01*
X131797142Y-72940000D01*
X131940000Y-73011428D01*
X132011428Y-73082857D01*
X132082857Y-73225714D01*
X132082857Y-73582857D01*
X132011428Y-73725714D01*
X131940000Y-73797142D01*
X131797142Y-73868571D01*
X131368571Y-73868571D01*
X131225714Y-73797142D01*
X131154285Y-73725714D01*
X132582857Y-72868571D02*
X132940000Y-73868571D01*
X133297142Y-72868571D01*
X133725714Y-72368571D02*
X134654285Y-72368571D01*
X134154285Y-72940000D01*
X134368571Y-72940000D01*
X134511428Y-73011428D01*
X134582857Y-73082857D01*
X134654285Y-73225714D01*
X134654285Y-73582857D01*
X134582857Y-73725714D01*
X134511428Y-73797142D01*
X134368571Y-73868571D01*
X133940000Y-73868571D01*
X133797142Y-73797142D01*
X133725714Y-73725714D01*
X116537142Y-72460000D02*
X116394285Y-72388571D01*
X116180000Y-72388571D01*
X115965714Y-72460000D01*
X115822857Y-72602857D01*
X115751428Y-72745714D01*
X115680000Y-73031428D01*
X115680000Y-73245714D01*
X115751428Y-73531428D01*
X115822857Y-73674285D01*
X115965714Y-73817142D01*
X116180000Y-73888571D01*
X116322857Y-73888571D01*
X116537142Y-73817142D01*
X116608571Y-73745714D01*
X116608571Y-73245714D01*
X116322857Y-73245714D01*
X117251428Y-73888571D02*
X117251428Y-72388571D01*
X118108571Y-73888571D01*
X118108571Y-72388571D01*
X118822857Y-73888571D02*
X118822857Y-72388571D01*
X119180000Y-72388571D01*
X119394285Y-72460000D01*
X119537142Y-72602857D01*
X119608571Y-72745714D01*
X119680000Y-73031428D01*
X119680000Y-73245714D01*
X119608571Y-73531428D01*
X119537142Y-73674285D01*
X119394285Y-73817142D01*
X119180000Y-73888571D01*
X118822857Y-73888571D01*
X123995714Y-97758571D02*
X124852857Y-97758571D01*
X124424285Y-99258571D02*
X124424285Y-97758571D01*
X125352857Y-99258571D02*
X125352857Y-98258571D01*
X125352857Y-97758571D02*
X125281428Y-97830000D01*
X125352857Y-97901428D01*
X125424285Y-97830000D01*
X125352857Y-97758571D01*
X125352857Y-97901428D01*
X126067142Y-99258571D02*
X126067142Y-98258571D01*
X126067142Y-98401428D02*
X126138571Y-98330000D01*
X126281428Y-98258571D01*
X126495714Y-98258571D01*
X126638571Y-98330000D01*
X126709999Y-98472857D01*
X126709999Y-99258571D01*
X126709999Y-98472857D02*
X126781428Y-98330000D01*
X126924285Y-98258571D01*
X127138571Y-98258571D01*
X127281428Y-98330000D01*
X127352857Y-98472857D01*
X127352857Y-99258571D01*
X129209999Y-99258571D02*
X129209999Y-97758571D01*
X129709999Y-98830000D01*
X130209999Y-97758571D01*
X130209999Y-99258571D01*
X131567142Y-99187142D02*
X131424285Y-99258571D01*
X131138571Y-99258571D01*
X130995714Y-99187142D01*
X130924285Y-99115714D01*
X130852857Y-98972857D01*
X130852857Y-98544285D01*
X130924285Y-98401428D01*
X130995714Y-98330000D01*
X131138571Y-98258571D01*
X131424285Y-98258571D01*
X131567142Y-98330000D01*
X133067142Y-99115714D02*
X132995714Y-99187142D01*
X132781428Y-99258571D01*
X132638571Y-99258571D01*
X132424285Y-99187142D01*
X132281428Y-99044285D01*
X132209999Y-98901428D01*
X132138571Y-98615714D01*
X132138571Y-98401428D01*
X132209999Y-98115714D01*
X132281428Y-97972857D01*
X132424285Y-97830000D01*
X132638571Y-97758571D01*
X132781428Y-97758571D01*
X132995714Y-97830000D01*
X133067142Y-97901428D01*
X134352857Y-98258571D02*
X134352857Y-99258571D01*
X133709999Y-98258571D02*
X133709999Y-99044285D01*
X133781428Y-99187142D01*
X133924285Y-99258571D01*
X134138571Y-99258571D01*
X134281428Y-99187142D01*
X134352857Y-99115714D01*
X134995714Y-99187142D02*
X135138571Y-99258571D01*
X135424285Y-99258571D01*
X135567142Y-99187142D01*
X135638571Y-99044285D01*
X135638571Y-98972857D01*
X135567142Y-98830000D01*
X135424285Y-98758571D01*
X135210000Y-98758571D01*
X135067142Y-98687142D01*
X134995714Y-98544285D01*
X134995714Y-98472857D01*
X135067142Y-98330000D01*
X135210000Y-98258571D01*
X135424285Y-98258571D01*
X135567142Y-98330000D01*
X136281428Y-99258571D02*
X136281428Y-97758571D01*
X136424285Y-98687142D02*
X136852857Y-99258571D01*
X136852857Y-98258571D02*
X136281428Y-98830000D01*
X138067142Y-99187142D02*
X137924285Y-99258571D01*
X137638571Y-99258571D01*
X137495714Y-99187142D01*
X137424285Y-99044285D01*
X137424285Y-98472857D01*
X137495714Y-98330000D01*
X137638571Y-98258571D01*
X137924285Y-98258571D01*
X138067142Y-98330000D01*
X138138571Y-98472857D01*
X138138571Y-98615714D01*
X137424285Y-98758571D01*
X138781428Y-99258571D02*
X138781428Y-98258571D01*
X138781428Y-98544285D02*
X138852857Y-98401428D01*
X138924285Y-98330000D01*
X139067142Y-98258571D01*
X139210000Y-98258571D01*
X141138571Y-97758571D02*
X141281428Y-97758571D01*
X141424285Y-97830000D01*
X141495714Y-97901428D01*
X141567142Y-98044285D01*
X141638571Y-98330000D01*
X141638571Y-98687142D01*
X141567142Y-98972857D01*
X141495714Y-99115714D01*
X141424285Y-99187142D01*
X141281428Y-99258571D01*
X141138571Y-99258571D01*
X140995714Y-99187142D01*
X140924285Y-99115714D01*
X140852857Y-98972857D01*
X140781428Y-98687142D01*
X140781428Y-98330000D01*
X140852857Y-98044285D01*
X140924285Y-97901428D01*
X140995714Y-97830000D01*
X141138571Y-97758571D01*
X143067142Y-99258571D02*
X142210000Y-99258571D01*
X142638571Y-99258571D02*
X142638571Y-97758571D01*
X142495714Y-97972857D01*
X142352857Y-98115714D01*
X142210000Y-98187142D01*
X144781428Y-97687142D02*
X143495714Y-99615714D01*
X145138571Y-97758571D02*
X146067142Y-97758571D01*
X145567142Y-98330000D01*
X145781428Y-98330000D01*
X145924285Y-98401428D01*
X145995714Y-98472857D01*
X146067142Y-98615714D01*
X146067142Y-98972857D01*
X145995714Y-99115714D01*
X145924285Y-99187142D01*
X145781428Y-99258571D01*
X145352857Y-99258571D01*
X145210000Y-99187142D01*
X145138571Y-99115714D01*
X146995714Y-97758571D02*
X147138571Y-97758571D01*
X147281428Y-97830000D01*
X147352857Y-97901428D01*
X147424285Y-98044285D01*
X147495714Y-98330000D01*
X147495714Y-98687142D01*
X147424285Y-98972857D01*
X147352857Y-99115714D01*
X147281428Y-99187142D01*
X147138571Y-99258571D01*
X146995714Y-99258571D01*
X146852857Y-99187142D01*
X146781428Y-99115714D01*
X146710000Y-98972857D01*
X146638571Y-98687142D01*
X146638571Y-98330000D01*
X146710000Y-98044285D01*
X146781428Y-97901428D01*
X146852857Y-97830000D01*
X146995714Y-97758571D01*
X149210000Y-97687142D02*
X147924285Y-99615714D01*
X149638571Y-97901428D02*
X149710000Y-97830000D01*
X149852857Y-97758571D01*
X150210000Y-97758571D01*
X150352857Y-97830000D01*
X150424285Y-97901428D01*
X150495714Y-98044285D01*
X150495714Y-98187142D01*
X150424285Y-98401428D01*
X149567142Y-99258571D01*
X150495714Y-99258571D01*
X151424285Y-97758571D02*
X151567142Y-97758571D01*
X151710000Y-97830000D01*
X151781428Y-97901428D01*
X151852857Y-98044285D01*
X151924285Y-98330000D01*
X151924285Y-98687142D01*
X151852857Y-98972857D01*
X151781428Y-99115714D01*
X151710000Y-99187142D01*
X151567142Y-99258571D01*
X151424285Y-99258571D01*
X151281428Y-99187142D01*
X151210000Y-99115714D01*
X151138571Y-98972857D01*
X151067142Y-98687142D01*
X151067142Y-98330000D01*
X151138571Y-98044285D01*
X151210000Y-97901428D01*
X151281428Y-97830000D01*
X151424285Y-97758571D01*
X152495714Y-97901428D02*
X152567142Y-97830000D01*
X152710000Y-97758571D01*
X153067142Y-97758571D01*
X153210000Y-97830000D01*
X153281428Y-97901428D01*
X153352857Y-98044285D01*
X153352857Y-98187142D01*
X153281428Y-98401428D01*
X152424285Y-99258571D01*
X153352857Y-99258571D01*
X154781428Y-99258571D02*
X153924285Y-99258571D01*
X154352857Y-99258571D02*
X154352857Y-97758571D01*
X154210000Y-97972857D01*
X154067142Y-98115714D01*
X153924285Y-98187142D01*
X127520000Y-124418571D02*
X127020000Y-123704285D01*
X126662857Y-124418571D02*
X126662857Y-122918571D01*
X127234285Y-122918571D01*
X127377142Y-122990000D01*
X127448571Y-123061428D01*
X127520000Y-123204285D01*
X127520000Y-123418571D01*
X127448571Y-123561428D01*
X127377142Y-123632857D01*
X127234285Y-123704285D01*
X126662857Y-123704285D01*
X128020000Y-122918571D02*
X129020000Y-124418571D01*
X129020000Y-122918571D02*
X128020000Y-124418571D01*
X121507142Y-122918571D02*
X122364285Y-122918571D01*
X121935714Y-124418571D02*
X121935714Y-122918571D01*
X122721428Y-122918571D02*
X123721428Y-124418571D01*
X123721428Y-122918571D02*
X122721428Y-124418571D01*
X126044285Y-73807142D02*
X126258571Y-73878571D01*
X126615714Y-73878571D01*
X126758571Y-73807142D01*
X126830000Y-73735714D01*
X126901428Y-73592857D01*
X126901428Y-73450000D01*
X126830000Y-73307142D01*
X126758571Y-73235714D01*
X126615714Y-73164285D01*
X126330000Y-73092857D01*
X126187142Y-73021428D01*
X126115714Y-72950000D01*
X126044285Y-72807142D01*
X126044285Y-72664285D01*
X126115714Y-72521428D01*
X126187142Y-72450000D01*
X126330000Y-72378571D01*
X126687142Y-72378571D01*
X126901428Y-72450000D01*
X128401428Y-73735714D02*
X128330000Y-73807142D01*
X128115714Y-73878571D01*
X127972857Y-73878571D01*
X127758571Y-73807142D01*
X127615714Y-73664285D01*
X127544285Y-73521428D01*
X127472857Y-73235714D01*
X127472857Y-73021428D01*
X127544285Y-72735714D01*
X127615714Y-72592857D01*
X127758571Y-72450000D01*
X127972857Y-72378571D01*
X128115714Y-72378571D01*
X128330000Y-72450000D01*
X128401428Y-72521428D01*
X129758571Y-73878571D02*
X129044285Y-73878571D01*
X129044285Y-72378571D01*
X120938571Y-73817142D02*
X121152857Y-73888571D01*
X121510000Y-73888571D01*
X121652857Y-73817142D01*
X121724285Y-73745714D01*
X121795714Y-73602857D01*
X121795714Y-73460000D01*
X121724285Y-73317142D01*
X121652857Y-73245714D01*
X121510000Y-73174285D01*
X121224285Y-73102857D01*
X121081428Y-73031428D01*
X121010000Y-72960000D01*
X120938571Y-72817142D01*
X120938571Y-72674285D01*
X121010000Y-72531428D01*
X121081428Y-72460000D01*
X121224285Y-72388571D01*
X121581428Y-72388571D01*
X121795714Y-72460000D01*
X122438571Y-73888571D02*
X122438571Y-72388571D01*
X122795714Y-72388571D01*
X123010000Y-72460000D01*
X123152857Y-72602857D01*
X123224285Y-72745714D01*
X123295714Y-73031428D01*
X123295714Y-73245714D01*
X123224285Y-73531428D01*
X123152857Y-73674285D01*
X123010000Y-73817142D01*
X122795714Y-73888571D01*
X122438571Y-73888571D01*
X123867142Y-73460000D02*
X124581428Y-73460000D01*
X123724285Y-73888571D02*
X124224285Y-72388571D01*
X124724285Y-73888571D01*
M02*
