%TF.GenerationSoftware,KiCad,Pcbnew,(5.1.7)-1*%
%TF.CreationDate,2021-01-30T20:15:53-05:00*%
%TF.ProjectId,STM32F4_Eval,53544d33-3246-4345-9f45-76616c2e6b69,rev?*%
%TF.SameCoordinates,Original*%
%TF.FileFunction,Soldermask,Bot*%
%TF.FilePolarity,Negative*%
%FSLAX46Y46*%
G04 Gerber Fmt 4.6, Leading zero omitted, Abs format (unit mm)*
G04 Created by KiCad (PCBNEW (5.1.7)-1) date 2021-01-30 20:15:53*
%MOMM*%
%LPD*%
G01*
G04 APERTURE LIST*
%ADD10C,1.450000*%
%ADD11O,1.900000X1.200000*%
%ADD12C,8.600000*%
%ADD13C,0.900000*%
%ADD14C,2.400000*%
%ADD15R,2.400000X2.400000*%
%ADD16R,2.600000X2.600000*%
%ADD17C,2.600000*%
G04 APERTURE END LIST*
D10*
%TO.C,J2*%
X171787500Y-95000000D03*
X171787500Y-90000000D03*
D11*
X174487500Y-96000000D03*
X174487500Y-89000000D03*
%TD*%
D12*
%TO.C,H2*%
X106250000Y-121250000D03*
D13*
X109475000Y-121250000D03*
X108530419Y-123530419D03*
X106250000Y-124475000D03*
X103969581Y-123530419D03*
X103025000Y-121250000D03*
X103969581Y-118969581D03*
X106250000Y-118025000D03*
X108530419Y-118969581D03*
%TD*%
D14*
%TO.C,J1*%
X170800000Y-106900000D03*
D15*
X170800000Y-110400000D03*
%TD*%
D13*
%TO.C,H3*%
X173280419Y-118969581D03*
X171000000Y-118025000D03*
X168719581Y-118969581D03*
X167775000Y-121250000D03*
X168719581Y-123530419D03*
X171000000Y-124475000D03*
X173280419Y-123530419D03*
X174225000Y-121250000D03*
D12*
X171000000Y-121250000D03*
%TD*%
D13*
%TO.C,H1*%
X108530419Y-73469581D03*
X106250000Y-72525000D03*
X103969581Y-73469581D03*
X103025000Y-75750000D03*
X103969581Y-78030419D03*
X106250000Y-78975000D03*
X108530419Y-78030419D03*
X109475000Y-75750000D03*
D12*
X106250000Y-75750000D03*
%TD*%
%TO.C,H4*%
X170750000Y-75750000D03*
D13*
X173975000Y-75750000D03*
X173030419Y-78030419D03*
X170750000Y-78975000D03*
X168469581Y-78030419D03*
X167525000Y-75750000D03*
X168469581Y-73469581D03*
X170750000Y-72525000D03*
X173030419Y-73469581D03*
%TD*%
%TO.C,SW1*%
X102800000Y-86470000D03*
X102800000Y-89470000D03*
%TD*%
D16*
%TO.C,J4*%
X132900000Y-76100000D03*
D17*
X127820000Y-76100000D03*
X122740000Y-76100000D03*
X117660000Y-76100000D03*
%TD*%
%TO.C,J5*%
X132840000Y-120800000D03*
X127760000Y-120800000D03*
X122680000Y-120800000D03*
D16*
X117600000Y-120800000D03*
%TD*%
M02*
