%TF.GenerationSoftware,KiCad,Pcbnew,(5.1.7)-1*%
%TF.CreationDate,2021-01-30T20:15:53-05:00*%
%TF.ProjectId,STM32F4_Eval,53544d33-3246-4345-9f45-76616c2e6b69,rev?*%
%TF.SameCoordinates,Original*%
%TF.FileFunction,Copper,L3,Inr*%
%TF.FilePolarity,Positive*%
%FSLAX46Y46*%
G04 Gerber Fmt 4.6, Leading zero omitted, Abs format (unit mm)*
G04 Created by KiCad (PCBNEW (5.1.7)-1) date 2021-01-30 20:15:53*
%MOMM*%
%LPD*%
G01*
G04 APERTURE LIST*
%TA.AperFunction,ComponentPad*%
%ADD10C,1.450000*%
%TD*%
%TA.AperFunction,ComponentPad*%
%ADD11O,1.900000X1.200000*%
%TD*%
%TA.AperFunction,ComponentPad*%
%ADD12C,8.600000*%
%TD*%
%TA.AperFunction,ComponentPad*%
%ADD13C,0.900000*%
%TD*%
%TA.AperFunction,ComponentPad*%
%ADD14C,2.400000*%
%TD*%
%TA.AperFunction,ComponentPad*%
%ADD15R,2.400000X2.400000*%
%TD*%
%TA.AperFunction,ComponentPad*%
%ADD16R,2.600000X2.600000*%
%TD*%
%TA.AperFunction,ComponentPad*%
%ADD17C,2.600000*%
%TD*%
%TA.AperFunction,ViaPad*%
%ADD18C,0.800000*%
%TD*%
%TA.AperFunction,ViaPad*%
%ADD19C,0.750000*%
%TD*%
%TA.AperFunction,Conductor*%
%ADD20C,0.254000*%
%TD*%
%TA.AperFunction,Conductor*%
%ADD21C,0.100000*%
%TD*%
G04 APERTURE END LIST*
D10*
%TO.N,Net-(J2-Pad6)*%
%TO.C,J2*%
X171787500Y-95000000D03*
X171787500Y-90000000D03*
D11*
X174487500Y-96000000D03*
X174487500Y-89000000D03*
%TD*%
D12*
%TO.N,GND*%
%TO.C,H2*%
X106250000Y-121250000D03*
D13*
X109475000Y-121250000D03*
X108530419Y-123530419D03*
X106250000Y-124475000D03*
X103969581Y-123530419D03*
X103025000Y-121250000D03*
X103969581Y-118969581D03*
X106250000Y-118025000D03*
X108530419Y-118969581D03*
%TD*%
D14*
%TO.N,GND*%
%TO.C,J1*%
X170800000Y-106900000D03*
D15*
%TO.N,+12V*%
X170800000Y-110400000D03*
%TD*%
D13*
%TO.N,GND*%
%TO.C,H3*%
X173280419Y-118969581D03*
X171000000Y-118025000D03*
X168719581Y-118969581D03*
X167775000Y-121250000D03*
X168719581Y-123530419D03*
X171000000Y-124475000D03*
X173280419Y-123530419D03*
X174225000Y-121250000D03*
D12*
X171000000Y-121250000D03*
%TD*%
D13*
%TO.N,GND*%
%TO.C,H1*%
X108530419Y-73469581D03*
X106250000Y-72525000D03*
X103969581Y-73469581D03*
X103025000Y-75750000D03*
X103969581Y-78030419D03*
X106250000Y-78975000D03*
X108530419Y-78030419D03*
X109475000Y-75750000D03*
D12*
X106250000Y-75750000D03*
%TD*%
%TO.N,GND*%
%TO.C,H4*%
X170750000Y-75750000D03*
D13*
X173975000Y-75750000D03*
X173030419Y-78030419D03*
X170750000Y-78975000D03*
X168469581Y-78030419D03*
X167525000Y-75750000D03*
X168469581Y-73469581D03*
X170750000Y-72525000D03*
X173030419Y-73469581D03*
%TD*%
D16*
%TO.N,+3V3*%
%TO.C,J4*%
X132900000Y-76100000D03*
D17*
%TO.N,IMU_I2C_SCL*%
X127820000Y-76100000D03*
%TO.N,IMU_I2C_SDA*%
X122740000Y-76100000D03*
%TO.N,GND*%
X117660000Y-76100000D03*
%TD*%
%TO.N,GND*%
%TO.C,J5*%
X132840000Y-120800000D03*
%TO.N,UART3_RX*%
X127760000Y-120800000D03*
%TO.N,UART3_TX*%
X122680000Y-120800000D03*
D16*
%TO.N,+3V3*%
X117600000Y-120800000D03*
%TD*%
D18*
%TO.N,+3V3*%
X175090000Y-100130000D03*
X105740000Y-85740000D03*
X133920000Y-103530000D03*
X123010000Y-89700000D03*
X127750000Y-89710000D03*
X120800000Y-91370000D03*
X120810000Y-92970000D03*
X124140000Y-107230000D03*
X130930000Y-106440000D03*
X143990000Y-95160000D03*
X139590000Y-96190000D03*
X115250000Y-103300000D03*
X115730000Y-104130000D03*
X151430000Y-115660000D03*
X151430000Y-117180000D03*
X148100000Y-117150000D03*
X148090000Y-115620000D03*
X149120000Y-118410000D03*
X152510000Y-120090000D03*
X152500000Y-118080000D03*
X148640000Y-119160000D03*
X157590000Y-114160000D03*
X157710000Y-115050000D03*
X121770000Y-91410000D03*
D19*
X132550000Y-94020000D03*
D18*
X119800000Y-93990000D03*
X146340000Y-75040000D03*
%TO.N,GND*%
X155450000Y-73650000D03*
X175090000Y-101740000D03*
X133790000Y-94830000D03*
X136100000Y-95770000D03*
X105740000Y-90230000D03*
X118700000Y-95520000D03*
X131840000Y-106990000D03*
X132580000Y-105720000D03*
X131870000Y-108420000D03*
X118060000Y-91460000D03*
X123610000Y-92120000D03*
X118080000Y-92910000D03*
X121800000Y-107210000D03*
X138880000Y-93480000D03*
X138810000Y-94320000D03*
X141940000Y-96200000D03*
X140680000Y-106870000D03*
X118550000Y-100220000D03*
X139210000Y-109210000D03*
X170600000Y-91120000D03*
X170350000Y-90230000D03*
X169670000Y-91140000D03*
X169440000Y-90240000D03*
X150200000Y-122510000D03*
X149290000Y-122500000D03*
X152480000Y-123040000D03*
X153840000Y-122330000D03*
X161940000Y-110120000D03*
X161940000Y-111550000D03*
X166610000Y-107260000D03*
X141260000Y-75040000D03*
X167080000Y-90640000D03*
X113710000Y-101130000D03*
X116860000Y-96510000D03*
X112590000Y-98970000D03*
X116220000Y-94390000D03*
D19*
X116410000Y-100790000D03*
X142800000Y-96700000D03*
D18*
X143770000Y-75060000D03*
X145060000Y-75060000D03*
X161400000Y-114250000D03*
X161370000Y-115120000D03*
X154190000Y-109840000D03*
%TO.N,LED_STATUS*%
X162150000Y-74760000D03*
X122340000Y-103340000D03*
%TO.N,NRST*%
X127875000Y-96975000D03*
X135675000Y-92475000D03*
X139190000Y-80640000D03*
D19*
%TO.N,BOOT0*%
X122030000Y-95710000D03*
X111000000Y-88730000D03*
D18*
%TO.N,BUCK_EN*%
X157500000Y-109920000D03*
X154220000Y-113580000D03*
%TO.N,IMU_INT2*%
X143350000Y-98740000D03*
X147430000Y-94190000D03*
%TO.N,IMU_INT1*%
X136163663Y-99366876D03*
X138770000Y-96640000D03*
%TO.N,IMU_CS*%
X135320000Y-98830000D03*
X141290000Y-92090000D03*
%TO.N,IMU_I2C_SCL*%
X125600000Y-95890000D03*
X135770000Y-90730000D03*
%TO.N,IMU_I2C_SDA*%
X124730000Y-96700000D03*
X134950000Y-91620000D03*
%TD*%
D20*
%TO.N,+3V3*%
X169310514Y-71004650D02*
X168412401Y-71376660D01*
X167604121Y-71916735D01*
X166916735Y-72604121D01*
X166376660Y-73412401D01*
X166004650Y-74310514D01*
X165815000Y-75263945D01*
X165815000Y-76236055D01*
X166004650Y-77189486D01*
X166376660Y-78087599D01*
X166916735Y-78895879D01*
X167604121Y-79583265D01*
X168412401Y-80123340D01*
X169310514Y-80495350D01*
X170263945Y-80685000D01*
X171236055Y-80685000D01*
X172189486Y-80495350D01*
X173087599Y-80123340D01*
X173895879Y-79583265D01*
X174583265Y-78895879D01*
X175123340Y-78087599D01*
X175495350Y-77189486D01*
X175595143Y-76687795D01*
X175657713Y-88075482D01*
X175526949Y-87968167D01*
X175312401Y-87853489D01*
X175079602Y-87782870D01*
X174898165Y-87765000D01*
X174076835Y-87765000D01*
X173895398Y-87782870D01*
X173662599Y-87853489D01*
X173448051Y-87968167D01*
X173259998Y-88122498D01*
X173105667Y-88310551D01*
X172990989Y-88525099D01*
X172920370Y-88757898D01*
X172896525Y-89000000D01*
X172920370Y-89242102D01*
X172923383Y-89252035D01*
X172843881Y-89133051D01*
X172654449Y-88943619D01*
X172431701Y-88794784D01*
X172184197Y-88692264D01*
X171921448Y-88640000D01*
X171653552Y-88640000D01*
X171390803Y-88692264D01*
X171143299Y-88794784D01*
X170920551Y-88943619D01*
X170731119Y-89133051D01*
X170660711Y-89238424D01*
X170651898Y-89234774D01*
X170451939Y-89195000D01*
X170248061Y-89195000D01*
X170048102Y-89234774D01*
X169882929Y-89303191D01*
X169741898Y-89244774D01*
X169541939Y-89205000D01*
X169338061Y-89205000D01*
X169138102Y-89244774D01*
X168949744Y-89322795D01*
X168780226Y-89436063D01*
X168636063Y-89580226D01*
X168522795Y-89749744D01*
X168444774Y-89938102D01*
X168405000Y-90138061D01*
X168405000Y-90341939D01*
X168444774Y-90541898D01*
X168522795Y-90730256D01*
X168636063Y-90899774D01*
X168658119Y-90921830D01*
X168635000Y-91038061D01*
X168635000Y-91241939D01*
X168674774Y-91441898D01*
X168752795Y-91630256D01*
X168866063Y-91799774D01*
X169010226Y-91943937D01*
X169179744Y-92057205D01*
X169368102Y-92135226D01*
X169568061Y-92175000D01*
X169771939Y-92175000D01*
X169971898Y-92135226D01*
X170159142Y-92057666D01*
X170298102Y-92115226D01*
X170498061Y-92155000D01*
X170701939Y-92155000D01*
X170901898Y-92115226D01*
X171090256Y-92037205D01*
X171259774Y-91923937D01*
X171403937Y-91779774D01*
X171517205Y-91610256D01*
X171595226Y-91421898D01*
X171609289Y-91351196D01*
X171653552Y-91360000D01*
X171921448Y-91360000D01*
X172184197Y-91307736D01*
X172431701Y-91205216D01*
X172654449Y-91056381D01*
X172843881Y-90866949D01*
X172992716Y-90644201D01*
X173095236Y-90396697D01*
X173147500Y-90133948D01*
X173147500Y-89866052D01*
X173114516Y-89700232D01*
X173259998Y-89877502D01*
X173448051Y-90031833D01*
X173662599Y-90146511D01*
X173895398Y-90217130D01*
X174076835Y-90235000D01*
X174898165Y-90235000D01*
X175079602Y-90217130D01*
X175312401Y-90146511D01*
X175526949Y-90031833D01*
X175667827Y-89916218D01*
X175696349Y-95107190D01*
X175526949Y-94968167D01*
X175312401Y-94853489D01*
X175079602Y-94782870D01*
X174898165Y-94765000D01*
X174076835Y-94765000D01*
X173895398Y-94782870D01*
X173662599Y-94853489D01*
X173448051Y-94968167D01*
X173259998Y-95122498D01*
X173114516Y-95299768D01*
X173147500Y-95133948D01*
X173147500Y-94866052D01*
X173095236Y-94603303D01*
X172992716Y-94355799D01*
X172843881Y-94133051D01*
X172654449Y-93943619D01*
X172431701Y-93794784D01*
X172184197Y-93692264D01*
X171921448Y-93640000D01*
X171653552Y-93640000D01*
X171390803Y-93692264D01*
X171143299Y-93794784D01*
X170920551Y-93943619D01*
X170731119Y-94133051D01*
X170582284Y-94355799D01*
X170479764Y-94603303D01*
X170427500Y-94866052D01*
X170427500Y-95133948D01*
X170479764Y-95396697D01*
X170582284Y-95644201D01*
X170731119Y-95866949D01*
X170920551Y-96056381D01*
X171143299Y-96205216D01*
X171390803Y-96307736D01*
X171653552Y-96360000D01*
X171921448Y-96360000D01*
X172184197Y-96307736D01*
X172431701Y-96205216D01*
X172654449Y-96056381D01*
X172843881Y-95866949D01*
X172923383Y-95747965D01*
X172920370Y-95757898D01*
X172896525Y-96000000D01*
X172920370Y-96242102D01*
X172990989Y-96474901D01*
X173105667Y-96689449D01*
X173259998Y-96877502D01*
X173448051Y-97031833D01*
X173662599Y-97146511D01*
X173895398Y-97217130D01*
X174076835Y-97235000D01*
X174898165Y-97235000D01*
X175079602Y-97217130D01*
X175312401Y-97146511D01*
X175526949Y-97031833D01*
X175706116Y-96884795D01*
X175728297Y-100921712D01*
X175580256Y-100822795D01*
X175391898Y-100744774D01*
X175191939Y-100705000D01*
X174988061Y-100705000D01*
X174788102Y-100744774D01*
X174599744Y-100822795D01*
X174430226Y-100936063D01*
X174286063Y-101080226D01*
X174172795Y-101249744D01*
X174094774Y-101438102D01*
X174055000Y-101638061D01*
X174055000Y-101841939D01*
X174094774Y-102041898D01*
X174172795Y-102230256D01*
X174286063Y-102399774D01*
X174430226Y-102543937D01*
X174599744Y-102657205D01*
X174788102Y-102735226D01*
X174988061Y-102775000D01*
X175191939Y-102775000D01*
X175391898Y-102735226D01*
X175580256Y-102657205D01*
X175737256Y-102552301D01*
X175834545Y-120258928D01*
X175745350Y-119810514D01*
X175373340Y-118912401D01*
X174833265Y-118104121D01*
X174145879Y-117416735D01*
X173337599Y-116876660D01*
X172439486Y-116504650D01*
X171486055Y-116315000D01*
X170513945Y-116315000D01*
X169560514Y-116504650D01*
X168662401Y-116876660D01*
X167854121Y-117416735D01*
X167166735Y-118104121D01*
X166626660Y-118912401D01*
X166254650Y-119810514D01*
X166065000Y-120763945D01*
X166065000Y-121736055D01*
X166254650Y-122689486D01*
X166626660Y-123587599D01*
X167166735Y-124395879D01*
X167854121Y-125083265D01*
X168662401Y-125623340D01*
X169560514Y-125995350D01*
X170036350Y-126090000D01*
X107213650Y-126090000D01*
X107689486Y-125995350D01*
X108587599Y-125623340D01*
X109395879Y-125083265D01*
X110083265Y-124395879D01*
X110623340Y-123587599D01*
X110995350Y-122689486D01*
X111112606Y-122100000D01*
X115661928Y-122100000D01*
X115674188Y-122224482D01*
X115710498Y-122344180D01*
X115769463Y-122454494D01*
X115848815Y-122551185D01*
X115945506Y-122630537D01*
X116055820Y-122689502D01*
X116175518Y-122725812D01*
X116300000Y-122738072D01*
X117314250Y-122735000D01*
X117473000Y-122576250D01*
X117473000Y-120927000D01*
X117727000Y-120927000D01*
X117727000Y-122576250D01*
X117885750Y-122735000D01*
X118900000Y-122738072D01*
X119024482Y-122725812D01*
X119144180Y-122689502D01*
X119254494Y-122630537D01*
X119351185Y-122551185D01*
X119430537Y-122454494D01*
X119489502Y-122344180D01*
X119525812Y-122224482D01*
X119538072Y-122100000D01*
X119535000Y-121085750D01*
X119376250Y-120927000D01*
X117727000Y-120927000D01*
X117473000Y-120927000D01*
X115823750Y-120927000D01*
X115665000Y-121085750D01*
X115661928Y-122100000D01*
X111112606Y-122100000D01*
X111185000Y-121736055D01*
X111185000Y-120763945D01*
X110995350Y-119810514D01*
X110866732Y-119500000D01*
X115661928Y-119500000D01*
X115665000Y-120514250D01*
X115823750Y-120673000D01*
X117473000Y-120673000D01*
X117473000Y-119023750D01*
X117727000Y-119023750D01*
X117727000Y-120673000D01*
X119376250Y-120673000D01*
X119439831Y-120609419D01*
X120745000Y-120609419D01*
X120745000Y-120990581D01*
X120819361Y-121364419D01*
X120965225Y-121716566D01*
X121176987Y-122033491D01*
X121446509Y-122303013D01*
X121763434Y-122514775D01*
X122115581Y-122660639D01*
X122489419Y-122735000D01*
X122870581Y-122735000D01*
X123244419Y-122660639D01*
X123596566Y-122514775D01*
X123913491Y-122303013D01*
X124183013Y-122033491D01*
X124394775Y-121716566D01*
X124540639Y-121364419D01*
X124615000Y-120990581D01*
X124615000Y-120609419D01*
X125825000Y-120609419D01*
X125825000Y-120990581D01*
X125899361Y-121364419D01*
X126045225Y-121716566D01*
X126256987Y-122033491D01*
X126526509Y-122303013D01*
X126843434Y-122514775D01*
X127195581Y-122660639D01*
X127569419Y-122735000D01*
X127950581Y-122735000D01*
X128324419Y-122660639D01*
X128676566Y-122514775D01*
X128993491Y-122303013D01*
X129263013Y-122033491D01*
X129474775Y-121716566D01*
X129620639Y-121364419D01*
X129695000Y-120990581D01*
X129695000Y-120609419D01*
X130905000Y-120609419D01*
X130905000Y-120990581D01*
X130979361Y-121364419D01*
X131125225Y-121716566D01*
X131336987Y-122033491D01*
X131606509Y-122303013D01*
X131923434Y-122514775D01*
X132275581Y-122660639D01*
X132649419Y-122735000D01*
X133030581Y-122735000D01*
X133404419Y-122660639D01*
X133756566Y-122514775D01*
X133931241Y-122398061D01*
X148255000Y-122398061D01*
X148255000Y-122601939D01*
X148294774Y-122801898D01*
X148372795Y-122990256D01*
X148486063Y-123159774D01*
X148630226Y-123303937D01*
X148799744Y-123417205D01*
X148988102Y-123495226D01*
X149188061Y-123535000D01*
X149391939Y-123535000D01*
X149591898Y-123495226D01*
X149732929Y-123436809D01*
X149898102Y-123505226D01*
X150098061Y-123545000D01*
X150301939Y-123545000D01*
X150501898Y-123505226D01*
X150690256Y-123427205D01*
X150859774Y-123313937D01*
X151003937Y-123169774D01*
X151117205Y-123000256D01*
X151142967Y-122938061D01*
X151445000Y-122938061D01*
X151445000Y-123141939D01*
X151484774Y-123341898D01*
X151562795Y-123530256D01*
X151676063Y-123699774D01*
X151820226Y-123843937D01*
X151989744Y-123957205D01*
X152178102Y-124035226D01*
X152378061Y-124075000D01*
X152581939Y-124075000D01*
X152781898Y-124035226D01*
X152970256Y-123957205D01*
X153139774Y-123843937D01*
X153283937Y-123699774D01*
X153397205Y-123530256D01*
X153475226Y-123341898D01*
X153483076Y-123302433D01*
X153538102Y-123325226D01*
X153738061Y-123365000D01*
X153941939Y-123365000D01*
X154141898Y-123325226D01*
X154330256Y-123247205D01*
X154499774Y-123133937D01*
X154643937Y-122989774D01*
X154757205Y-122820256D01*
X154794221Y-122730890D01*
X163060048Y-122730890D01*
X163060048Y-122977110D01*
X163108083Y-123218598D01*
X163202307Y-123446074D01*
X163339099Y-123650798D01*
X163513202Y-123824901D01*
X163717926Y-123961693D01*
X163945402Y-124055917D01*
X164186890Y-124103952D01*
X164433110Y-124103952D01*
X164674598Y-124055917D01*
X164902074Y-123961693D01*
X165106798Y-123824901D01*
X165280901Y-123650798D01*
X165417693Y-123446074D01*
X165511917Y-123218598D01*
X165559952Y-122977110D01*
X165559952Y-122730890D01*
X165511917Y-122489402D01*
X165417693Y-122261926D01*
X165280901Y-122057202D01*
X165106798Y-121883099D01*
X164902074Y-121746307D01*
X164674598Y-121652083D01*
X164433110Y-121604048D01*
X164186890Y-121604048D01*
X163945402Y-121652083D01*
X163717926Y-121746307D01*
X163513202Y-121883099D01*
X163339099Y-122057202D01*
X163202307Y-122261926D01*
X163108083Y-122489402D01*
X163060048Y-122730890D01*
X154794221Y-122730890D01*
X154835226Y-122631898D01*
X154875000Y-122431939D01*
X154875000Y-122228061D01*
X154835226Y-122028102D01*
X154757205Y-121839744D01*
X154643937Y-121670226D01*
X154499774Y-121526063D01*
X154330256Y-121412795D01*
X154141898Y-121334774D01*
X153941939Y-121295000D01*
X153738061Y-121295000D01*
X153538102Y-121334774D01*
X153349744Y-121412795D01*
X153180226Y-121526063D01*
X153036063Y-121670226D01*
X152922795Y-121839744D01*
X152844774Y-122028102D01*
X152836924Y-122067567D01*
X152781898Y-122044774D01*
X152581939Y-122005000D01*
X152378061Y-122005000D01*
X152178102Y-122044774D01*
X151989744Y-122122795D01*
X151820226Y-122236063D01*
X151676063Y-122380226D01*
X151562795Y-122549744D01*
X151484774Y-122738102D01*
X151445000Y-122938061D01*
X151142967Y-122938061D01*
X151195226Y-122811898D01*
X151235000Y-122611939D01*
X151235000Y-122408061D01*
X151195226Y-122208102D01*
X151117205Y-122019744D01*
X151003937Y-121850226D01*
X150859774Y-121706063D01*
X150690256Y-121592795D01*
X150501898Y-121514774D01*
X150301939Y-121475000D01*
X150098061Y-121475000D01*
X149898102Y-121514774D01*
X149757071Y-121573191D01*
X149591898Y-121504774D01*
X149391939Y-121465000D01*
X149188061Y-121465000D01*
X148988102Y-121504774D01*
X148799744Y-121582795D01*
X148630226Y-121696063D01*
X148486063Y-121840226D01*
X148372795Y-122009744D01*
X148294774Y-122198102D01*
X148255000Y-122398061D01*
X133931241Y-122398061D01*
X134073491Y-122303013D01*
X134343013Y-122033491D01*
X134554775Y-121716566D01*
X134700639Y-121364419D01*
X134775000Y-120990581D01*
X134775000Y-120609419D01*
X134700639Y-120235581D01*
X134554775Y-119883434D01*
X134343013Y-119566509D01*
X134073491Y-119296987D01*
X133756566Y-119085225D01*
X133404419Y-118939361D01*
X133030581Y-118865000D01*
X132649419Y-118865000D01*
X132275581Y-118939361D01*
X131923434Y-119085225D01*
X131606509Y-119296987D01*
X131336987Y-119566509D01*
X131125225Y-119883434D01*
X130979361Y-120235581D01*
X130905000Y-120609419D01*
X129695000Y-120609419D01*
X129620639Y-120235581D01*
X129474775Y-119883434D01*
X129263013Y-119566509D01*
X128993491Y-119296987D01*
X128676566Y-119085225D01*
X128324419Y-118939361D01*
X127950581Y-118865000D01*
X127569419Y-118865000D01*
X127195581Y-118939361D01*
X126843434Y-119085225D01*
X126526509Y-119296987D01*
X126256987Y-119566509D01*
X126045225Y-119883434D01*
X125899361Y-120235581D01*
X125825000Y-120609419D01*
X124615000Y-120609419D01*
X124540639Y-120235581D01*
X124394775Y-119883434D01*
X124183013Y-119566509D01*
X123913491Y-119296987D01*
X123596566Y-119085225D01*
X123244419Y-118939361D01*
X122870581Y-118865000D01*
X122489419Y-118865000D01*
X122115581Y-118939361D01*
X121763434Y-119085225D01*
X121446509Y-119296987D01*
X121176987Y-119566509D01*
X120965225Y-119883434D01*
X120819361Y-120235581D01*
X120745000Y-120609419D01*
X119439831Y-120609419D01*
X119535000Y-120514250D01*
X119538072Y-119500000D01*
X119525812Y-119375518D01*
X119489502Y-119255820D01*
X119430537Y-119145506D01*
X119351185Y-119048815D01*
X119254494Y-118969463D01*
X119144180Y-118910498D01*
X119024482Y-118874188D01*
X118900000Y-118861928D01*
X117885750Y-118865000D01*
X117727000Y-119023750D01*
X117473000Y-119023750D01*
X117314250Y-118865000D01*
X116300000Y-118861928D01*
X116175518Y-118874188D01*
X116055820Y-118910498D01*
X115945506Y-118969463D01*
X115848815Y-119048815D01*
X115769463Y-119145506D01*
X115710498Y-119255820D01*
X115674188Y-119375518D01*
X115661928Y-119500000D01*
X110866732Y-119500000D01*
X110623340Y-118912401D01*
X110083265Y-118104121D01*
X109395879Y-117416735D01*
X108587599Y-116876660D01*
X107689486Y-116504650D01*
X106736055Y-116315000D01*
X105763945Y-116315000D01*
X104810514Y-116504650D01*
X103912401Y-116876660D01*
X103104121Y-117416735D01*
X102416735Y-118104121D01*
X101876660Y-118912401D01*
X101504650Y-119810514D01*
X101410000Y-120286350D01*
X101410000Y-115018061D01*
X160335000Y-115018061D01*
X160335000Y-115221939D01*
X160374774Y-115421898D01*
X160452795Y-115610256D01*
X160566063Y-115779774D01*
X160710226Y-115923937D01*
X160879744Y-116037205D01*
X161068102Y-116115226D01*
X161268061Y-116155000D01*
X161471939Y-116155000D01*
X161671898Y-116115226D01*
X161860256Y-116037205D01*
X162029774Y-115923937D01*
X162173937Y-115779774D01*
X162287205Y-115610256D01*
X162365226Y-115421898D01*
X162405000Y-115221939D01*
X162405000Y-115018061D01*
X162365226Y-114818102D01*
X162325093Y-114721213D01*
X162395226Y-114551898D01*
X162435000Y-114351939D01*
X162435000Y-114148061D01*
X162395226Y-113948102D01*
X162317205Y-113759744D01*
X162203937Y-113590226D01*
X162059774Y-113446063D01*
X161890256Y-113332795D01*
X161701898Y-113254774D01*
X161501939Y-113215000D01*
X161298061Y-113215000D01*
X161098102Y-113254774D01*
X160909744Y-113332795D01*
X160740226Y-113446063D01*
X160596063Y-113590226D01*
X160482795Y-113759744D01*
X160404774Y-113948102D01*
X160365000Y-114148061D01*
X160365000Y-114351939D01*
X160404774Y-114551898D01*
X160444907Y-114648787D01*
X160374774Y-114818102D01*
X160335000Y-115018061D01*
X101410000Y-115018061D01*
X101410000Y-113478061D01*
X153185000Y-113478061D01*
X153185000Y-113681939D01*
X153224774Y-113881898D01*
X153302795Y-114070256D01*
X153416063Y-114239774D01*
X153560226Y-114383937D01*
X153729744Y-114497205D01*
X153918102Y-114575226D01*
X154118061Y-114615000D01*
X154321939Y-114615000D01*
X154521898Y-114575226D01*
X154710256Y-114497205D01*
X154879774Y-114383937D01*
X155023937Y-114239774D01*
X155137205Y-114070256D01*
X155215226Y-113881898D01*
X155255000Y-113681939D01*
X155255000Y-113478061D01*
X155215226Y-113278102D01*
X155137205Y-113089744D01*
X155023937Y-112920226D01*
X154879774Y-112776063D01*
X154710256Y-112662795D01*
X154521898Y-112584774D01*
X154321939Y-112545000D01*
X154118061Y-112545000D01*
X153918102Y-112584774D01*
X153729744Y-112662795D01*
X153560226Y-112776063D01*
X153416063Y-112920226D01*
X153302795Y-113089744D01*
X153224774Y-113278102D01*
X153185000Y-113478061D01*
X101410000Y-113478061D01*
X101410000Y-107108061D01*
X120765000Y-107108061D01*
X120765000Y-107311939D01*
X120804774Y-107511898D01*
X120882795Y-107700256D01*
X120996063Y-107869774D01*
X121140226Y-108013937D01*
X121309744Y-108127205D01*
X121498102Y-108205226D01*
X121698061Y-108245000D01*
X121901939Y-108245000D01*
X122101898Y-108205226D01*
X122290256Y-108127205D01*
X122459774Y-108013937D01*
X122603937Y-107869774D01*
X122717205Y-107700256D01*
X122795226Y-107511898D01*
X122835000Y-107311939D01*
X122835000Y-107108061D01*
X122795226Y-106908102D01*
X122786925Y-106888061D01*
X130805000Y-106888061D01*
X130805000Y-107091939D01*
X130844774Y-107291898D01*
X130922795Y-107480256D01*
X131036063Y-107649774D01*
X131106289Y-107720000D01*
X131066063Y-107760226D01*
X130952795Y-107929744D01*
X130874774Y-108118102D01*
X130835000Y-108318061D01*
X130835000Y-108521939D01*
X130874774Y-108721898D01*
X130952795Y-108910256D01*
X131066063Y-109079774D01*
X131210226Y-109223937D01*
X131379744Y-109337205D01*
X131568102Y-109415226D01*
X131768061Y-109455000D01*
X131971939Y-109455000D01*
X132171898Y-109415226D01*
X132360256Y-109337205D01*
X132529774Y-109223937D01*
X132645650Y-109108061D01*
X138175000Y-109108061D01*
X138175000Y-109311939D01*
X138214774Y-109511898D01*
X138292795Y-109700256D01*
X138406063Y-109869774D01*
X138550226Y-110013937D01*
X138719744Y-110127205D01*
X138908102Y-110205226D01*
X139108061Y-110245000D01*
X139311939Y-110245000D01*
X139511898Y-110205226D01*
X139700256Y-110127205D01*
X139869774Y-110013937D01*
X140013937Y-109869774D01*
X140101944Y-109738061D01*
X153155000Y-109738061D01*
X153155000Y-109941939D01*
X153194774Y-110141898D01*
X153272795Y-110330256D01*
X153386063Y-110499774D01*
X153530226Y-110643937D01*
X153699744Y-110757205D01*
X153888102Y-110835226D01*
X154088061Y-110875000D01*
X154291939Y-110875000D01*
X154491898Y-110835226D01*
X154680256Y-110757205D01*
X154849774Y-110643937D01*
X154993937Y-110499774D01*
X155107205Y-110330256D01*
X155185226Y-110141898D01*
X155225000Y-109941939D01*
X155225000Y-109818061D01*
X156465000Y-109818061D01*
X156465000Y-110021939D01*
X156504774Y-110221898D01*
X156582795Y-110410256D01*
X156696063Y-110579774D01*
X156840226Y-110723937D01*
X157009744Y-110837205D01*
X157198102Y-110915226D01*
X157398061Y-110955000D01*
X157601939Y-110955000D01*
X157801898Y-110915226D01*
X157990256Y-110837205D01*
X158159774Y-110723937D01*
X158303937Y-110579774D01*
X158417205Y-110410256D01*
X158495226Y-110221898D01*
X158535000Y-110021939D01*
X158535000Y-110018061D01*
X160905000Y-110018061D01*
X160905000Y-110221939D01*
X160944774Y-110421898D01*
X161022795Y-110610256D01*
X161136063Y-110779774D01*
X161191289Y-110835000D01*
X161136063Y-110890226D01*
X161022795Y-111059744D01*
X160944774Y-111248102D01*
X160905000Y-111448061D01*
X160905000Y-111651939D01*
X160944774Y-111851898D01*
X161022795Y-112040256D01*
X161136063Y-112209774D01*
X161280226Y-112353937D01*
X161449744Y-112467205D01*
X161638102Y-112545226D01*
X161838061Y-112585000D01*
X162041939Y-112585000D01*
X162241898Y-112545226D01*
X162430256Y-112467205D01*
X162599774Y-112353937D01*
X162743937Y-112209774D01*
X162857205Y-112040256D01*
X162935226Y-111851898D01*
X162975000Y-111651939D01*
X162975000Y-111448061D01*
X162935226Y-111248102D01*
X162857205Y-111059744D01*
X162743937Y-110890226D01*
X162688711Y-110835000D01*
X162743937Y-110779774D01*
X162857205Y-110610256D01*
X162935226Y-110421898D01*
X162975000Y-110221939D01*
X162975000Y-110018061D01*
X162935226Y-109818102D01*
X162857205Y-109629744D01*
X162743937Y-109460226D01*
X162599774Y-109316063D01*
X162430256Y-109202795D01*
X162423509Y-109200000D01*
X168961928Y-109200000D01*
X168961928Y-111600000D01*
X168974188Y-111724482D01*
X169010498Y-111844180D01*
X169069463Y-111954494D01*
X169148815Y-112051185D01*
X169245506Y-112130537D01*
X169355820Y-112189502D01*
X169475518Y-112225812D01*
X169600000Y-112238072D01*
X172000000Y-112238072D01*
X172124482Y-112225812D01*
X172244180Y-112189502D01*
X172354494Y-112130537D01*
X172451185Y-112051185D01*
X172530537Y-111954494D01*
X172589502Y-111844180D01*
X172625812Y-111724482D01*
X172638072Y-111600000D01*
X172638072Y-109200000D01*
X172625812Y-109075518D01*
X172589502Y-108955820D01*
X172530537Y-108845506D01*
X172451185Y-108748815D01*
X172354494Y-108669463D01*
X172244180Y-108610498D01*
X172124482Y-108574188D01*
X172000000Y-108561928D01*
X171582838Y-108561928D01*
X171669199Y-108526156D01*
X171969744Y-108325338D01*
X172225338Y-108069744D01*
X172426156Y-107769199D01*
X172564482Y-107435250D01*
X172635000Y-107080732D01*
X172635000Y-106719268D01*
X172564482Y-106364750D01*
X172426156Y-106030801D01*
X172225338Y-105730256D01*
X171969744Y-105474662D01*
X171669199Y-105273844D01*
X171335250Y-105135518D01*
X170980732Y-105065000D01*
X170619268Y-105065000D01*
X170264750Y-105135518D01*
X169930801Y-105273844D01*
X169630256Y-105474662D01*
X169374662Y-105730256D01*
X169173844Y-106030801D01*
X169035518Y-106364750D01*
X168965000Y-106719268D01*
X168965000Y-107080732D01*
X169035518Y-107435250D01*
X169173844Y-107769199D01*
X169374662Y-108069744D01*
X169630256Y-108325338D01*
X169930801Y-108526156D01*
X170017162Y-108561928D01*
X169600000Y-108561928D01*
X169475518Y-108574188D01*
X169355820Y-108610498D01*
X169245506Y-108669463D01*
X169148815Y-108748815D01*
X169069463Y-108845506D01*
X169010498Y-108955820D01*
X168974188Y-109075518D01*
X168961928Y-109200000D01*
X162423509Y-109200000D01*
X162241898Y-109124774D01*
X162041939Y-109085000D01*
X161838061Y-109085000D01*
X161638102Y-109124774D01*
X161449744Y-109202795D01*
X161280226Y-109316063D01*
X161136063Y-109460226D01*
X161022795Y-109629744D01*
X160944774Y-109818102D01*
X160905000Y-110018061D01*
X158535000Y-110018061D01*
X158535000Y-109818061D01*
X158495226Y-109618102D01*
X158417205Y-109429744D01*
X158303937Y-109260226D01*
X158159774Y-109116063D01*
X157990256Y-109002795D01*
X157801898Y-108924774D01*
X157601939Y-108885000D01*
X157398061Y-108885000D01*
X157198102Y-108924774D01*
X157009744Y-109002795D01*
X156840226Y-109116063D01*
X156696063Y-109260226D01*
X156582795Y-109429744D01*
X156504774Y-109618102D01*
X156465000Y-109818061D01*
X155225000Y-109818061D01*
X155225000Y-109738061D01*
X155185226Y-109538102D01*
X155107205Y-109349744D01*
X154993937Y-109180226D01*
X154849774Y-109036063D01*
X154680256Y-108922795D01*
X154491898Y-108844774D01*
X154291939Y-108805000D01*
X154088061Y-108805000D01*
X153888102Y-108844774D01*
X153699744Y-108922795D01*
X153530226Y-109036063D01*
X153386063Y-109180226D01*
X153272795Y-109349744D01*
X153194774Y-109538102D01*
X153155000Y-109738061D01*
X140101944Y-109738061D01*
X140127205Y-109700256D01*
X140205226Y-109511898D01*
X140245000Y-109311939D01*
X140245000Y-109108061D01*
X140205226Y-108908102D01*
X140127205Y-108719744D01*
X140013937Y-108550226D01*
X139869774Y-108406063D01*
X139700256Y-108292795D01*
X139511898Y-108214774D01*
X139311939Y-108175000D01*
X139108061Y-108175000D01*
X138908102Y-108214774D01*
X138719744Y-108292795D01*
X138550226Y-108406063D01*
X138406063Y-108550226D01*
X138292795Y-108719744D01*
X138214774Y-108908102D01*
X138175000Y-109108061D01*
X132645650Y-109108061D01*
X132673937Y-109079774D01*
X132787205Y-108910256D01*
X132865226Y-108721898D01*
X132905000Y-108521939D01*
X132905000Y-108318061D01*
X132865226Y-108118102D01*
X132787205Y-107929744D01*
X132673937Y-107760226D01*
X132603711Y-107690000D01*
X132643937Y-107649774D01*
X132757205Y-107480256D01*
X132835226Y-107291898D01*
X132875000Y-107091939D01*
X132875000Y-106888061D01*
X132851131Y-106768061D01*
X139645000Y-106768061D01*
X139645000Y-106971939D01*
X139684774Y-107171898D01*
X139762795Y-107360256D01*
X139876063Y-107529774D01*
X140020226Y-107673937D01*
X140189744Y-107787205D01*
X140378102Y-107865226D01*
X140578061Y-107905000D01*
X140781939Y-107905000D01*
X140981898Y-107865226D01*
X141170256Y-107787205D01*
X141339774Y-107673937D01*
X141483937Y-107529774D01*
X141597205Y-107360256D01*
X141675226Y-107171898D01*
X141677978Y-107158061D01*
X165575000Y-107158061D01*
X165575000Y-107361939D01*
X165614774Y-107561898D01*
X165692795Y-107750256D01*
X165806063Y-107919774D01*
X165950226Y-108063937D01*
X166119744Y-108177205D01*
X166308102Y-108255226D01*
X166508061Y-108295000D01*
X166711939Y-108295000D01*
X166911898Y-108255226D01*
X167100256Y-108177205D01*
X167269774Y-108063937D01*
X167413937Y-107919774D01*
X167527205Y-107750256D01*
X167605226Y-107561898D01*
X167645000Y-107361939D01*
X167645000Y-107158061D01*
X167605226Y-106958102D01*
X167527205Y-106769744D01*
X167413937Y-106600226D01*
X167269774Y-106456063D01*
X167100256Y-106342795D01*
X166911898Y-106264774D01*
X166711939Y-106225000D01*
X166508061Y-106225000D01*
X166308102Y-106264774D01*
X166119744Y-106342795D01*
X165950226Y-106456063D01*
X165806063Y-106600226D01*
X165692795Y-106769744D01*
X165614774Y-106958102D01*
X165575000Y-107158061D01*
X141677978Y-107158061D01*
X141715000Y-106971939D01*
X141715000Y-106768061D01*
X141675226Y-106568102D01*
X141597205Y-106379744D01*
X141483937Y-106210226D01*
X141339774Y-106066063D01*
X141170256Y-105952795D01*
X140981898Y-105874774D01*
X140781939Y-105835000D01*
X140578061Y-105835000D01*
X140378102Y-105874774D01*
X140189744Y-105952795D01*
X140020226Y-106066063D01*
X139876063Y-106210226D01*
X139762795Y-106379744D01*
X139684774Y-106568102D01*
X139645000Y-106768061D01*
X132851131Y-106768061D01*
X132842192Y-106723124D01*
X132881898Y-106715226D01*
X133070256Y-106637205D01*
X133239774Y-106523937D01*
X133383937Y-106379774D01*
X133497205Y-106210256D01*
X133575226Y-106021898D01*
X133615000Y-105821939D01*
X133615000Y-105618061D01*
X133575226Y-105418102D01*
X133497205Y-105229744D01*
X133383937Y-105060226D01*
X133239774Y-104916063D01*
X133070256Y-104802795D01*
X132881898Y-104724774D01*
X132681939Y-104685000D01*
X132478061Y-104685000D01*
X132278102Y-104724774D01*
X132089744Y-104802795D01*
X131920226Y-104916063D01*
X131776063Y-105060226D01*
X131662795Y-105229744D01*
X131584774Y-105418102D01*
X131545000Y-105618061D01*
X131545000Y-105821939D01*
X131577808Y-105986876D01*
X131538102Y-105994774D01*
X131349744Y-106072795D01*
X131180226Y-106186063D01*
X131036063Y-106330226D01*
X130922795Y-106499744D01*
X130844774Y-106688102D01*
X130805000Y-106888061D01*
X122786925Y-106888061D01*
X122717205Y-106719744D01*
X122603937Y-106550226D01*
X122459774Y-106406063D01*
X122290256Y-106292795D01*
X122101898Y-106214774D01*
X121901939Y-106175000D01*
X121698061Y-106175000D01*
X121498102Y-106214774D01*
X121309744Y-106292795D01*
X121140226Y-106406063D01*
X120996063Y-106550226D01*
X120882795Y-106719744D01*
X120804774Y-106908102D01*
X120765000Y-107108061D01*
X101410000Y-107108061D01*
X101410000Y-103238061D01*
X121305000Y-103238061D01*
X121305000Y-103441939D01*
X121344774Y-103641898D01*
X121422795Y-103830256D01*
X121536063Y-103999774D01*
X121680226Y-104143937D01*
X121849744Y-104257205D01*
X122038102Y-104335226D01*
X122238061Y-104375000D01*
X122441939Y-104375000D01*
X122641898Y-104335226D01*
X122830256Y-104257205D01*
X122999774Y-104143937D01*
X123143937Y-103999774D01*
X123257205Y-103830256D01*
X123335226Y-103641898D01*
X123375000Y-103441939D01*
X123375000Y-103238061D01*
X123335226Y-103038102D01*
X123257205Y-102849744D01*
X123143937Y-102680226D01*
X122999774Y-102536063D01*
X122830256Y-102422795D01*
X122641898Y-102344774D01*
X122441939Y-102305000D01*
X122238061Y-102305000D01*
X122038102Y-102344774D01*
X121849744Y-102422795D01*
X121680226Y-102536063D01*
X121536063Y-102680226D01*
X121422795Y-102849744D01*
X121344774Y-103038102D01*
X121305000Y-103238061D01*
X101410000Y-103238061D01*
X101410000Y-101028061D01*
X112675000Y-101028061D01*
X112675000Y-101231939D01*
X112714774Y-101431898D01*
X112792795Y-101620256D01*
X112906063Y-101789774D01*
X113050226Y-101933937D01*
X113219744Y-102047205D01*
X113408102Y-102125226D01*
X113608061Y-102165000D01*
X113811939Y-102165000D01*
X114011898Y-102125226D01*
X114200256Y-102047205D01*
X114369774Y-101933937D01*
X114513937Y-101789774D01*
X114627205Y-101620256D01*
X114705226Y-101431898D01*
X114745000Y-101231939D01*
X114745000Y-101028061D01*
X114705226Y-100828102D01*
X114648239Y-100690524D01*
X115400000Y-100690524D01*
X115400000Y-100889476D01*
X115438814Y-101084606D01*
X115514950Y-101268414D01*
X115625482Y-101433837D01*
X115766163Y-101574518D01*
X115931586Y-101685050D01*
X116115394Y-101761186D01*
X116310524Y-101800000D01*
X116509476Y-101800000D01*
X116704606Y-101761186D01*
X116888414Y-101685050D01*
X117053837Y-101574518D01*
X117194518Y-101433837D01*
X117305050Y-101268414D01*
X117381186Y-101084606D01*
X117420000Y-100889476D01*
X117420000Y-100690524D01*
X117381186Y-100495394D01*
X117305050Y-100311586D01*
X117194518Y-100146163D01*
X117166416Y-100118061D01*
X117515000Y-100118061D01*
X117515000Y-100321939D01*
X117554774Y-100521898D01*
X117632795Y-100710256D01*
X117746063Y-100879774D01*
X117890226Y-101023937D01*
X118059744Y-101137205D01*
X118248102Y-101215226D01*
X118448061Y-101255000D01*
X118651939Y-101255000D01*
X118851898Y-101215226D01*
X119040256Y-101137205D01*
X119209774Y-101023937D01*
X119353937Y-100879774D01*
X119467205Y-100710256D01*
X119545226Y-100521898D01*
X119585000Y-100321939D01*
X119585000Y-100118061D01*
X119545226Y-99918102D01*
X119467205Y-99729744D01*
X119353937Y-99560226D01*
X119209774Y-99416063D01*
X119040256Y-99302795D01*
X118851898Y-99224774D01*
X118651939Y-99185000D01*
X118448061Y-99185000D01*
X118248102Y-99224774D01*
X118059744Y-99302795D01*
X117890226Y-99416063D01*
X117746063Y-99560226D01*
X117632795Y-99729744D01*
X117554774Y-99918102D01*
X117515000Y-100118061D01*
X117166416Y-100118061D01*
X117053837Y-100005482D01*
X116888414Y-99894950D01*
X116704606Y-99818814D01*
X116509476Y-99780000D01*
X116310524Y-99780000D01*
X116115394Y-99818814D01*
X115931586Y-99894950D01*
X115766163Y-100005482D01*
X115625482Y-100146163D01*
X115514950Y-100311586D01*
X115438814Y-100495394D01*
X115400000Y-100690524D01*
X114648239Y-100690524D01*
X114627205Y-100639744D01*
X114513937Y-100470226D01*
X114369774Y-100326063D01*
X114200256Y-100212795D01*
X114011898Y-100134774D01*
X113811939Y-100095000D01*
X113608061Y-100095000D01*
X113408102Y-100134774D01*
X113219744Y-100212795D01*
X113050226Y-100326063D01*
X112906063Y-100470226D01*
X112792795Y-100639744D01*
X112714774Y-100828102D01*
X112675000Y-101028061D01*
X101410000Y-101028061D01*
X101410000Y-98868061D01*
X111555000Y-98868061D01*
X111555000Y-99071939D01*
X111594774Y-99271898D01*
X111672795Y-99460256D01*
X111786063Y-99629774D01*
X111930226Y-99773937D01*
X112099744Y-99887205D01*
X112288102Y-99965226D01*
X112488061Y-100005000D01*
X112691939Y-100005000D01*
X112891898Y-99965226D01*
X113080256Y-99887205D01*
X113249774Y-99773937D01*
X113393937Y-99629774D01*
X113507205Y-99460256D01*
X113585226Y-99271898D01*
X113625000Y-99071939D01*
X113625000Y-98868061D01*
X113597153Y-98728061D01*
X134285000Y-98728061D01*
X134285000Y-98931939D01*
X134324774Y-99131898D01*
X134402795Y-99320256D01*
X134516063Y-99489774D01*
X134660226Y-99633937D01*
X134829744Y-99747205D01*
X135018102Y-99825226D01*
X135218061Y-99865000D01*
X135251715Y-99865000D01*
X135359726Y-100026650D01*
X135503889Y-100170813D01*
X135673407Y-100284081D01*
X135861765Y-100362102D01*
X136061724Y-100401876D01*
X136265602Y-100401876D01*
X136465561Y-100362102D01*
X136653919Y-100284081D01*
X136823437Y-100170813D01*
X136967600Y-100026650D01*
X137080868Y-99857132D01*
X137158889Y-99668774D01*
X137198663Y-99468815D01*
X137198663Y-99264937D01*
X137158889Y-99064978D01*
X137080868Y-98876620D01*
X136967600Y-98707102D01*
X136898559Y-98638061D01*
X142315000Y-98638061D01*
X142315000Y-98841939D01*
X142354774Y-99041898D01*
X142432795Y-99230256D01*
X142546063Y-99399774D01*
X142690226Y-99543937D01*
X142859744Y-99657205D01*
X143048102Y-99735226D01*
X143248061Y-99775000D01*
X143451939Y-99775000D01*
X143651898Y-99735226D01*
X143840256Y-99657205D01*
X144009774Y-99543937D01*
X144153937Y-99399774D01*
X144267205Y-99230256D01*
X144345226Y-99041898D01*
X144385000Y-98841939D01*
X144385000Y-98638061D01*
X144345226Y-98438102D01*
X144267205Y-98249744D01*
X144153937Y-98080226D01*
X144009774Y-97936063D01*
X143840256Y-97822795D01*
X143651898Y-97744774D01*
X143451939Y-97705000D01*
X143248061Y-97705000D01*
X143048102Y-97744774D01*
X142859744Y-97822795D01*
X142690226Y-97936063D01*
X142546063Y-98080226D01*
X142432795Y-98249744D01*
X142354774Y-98438102D01*
X142315000Y-98638061D01*
X136898559Y-98638061D01*
X136823437Y-98562939D01*
X136653919Y-98449671D01*
X136465561Y-98371650D01*
X136265602Y-98331876D01*
X136231948Y-98331876D01*
X136123937Y-98170226D01*
X135979774Y-98026063D01*
X135810256Y-97912795D01*
X135621898Y-97834774D01*
X135421939Y-97795000D01*
X135218061Y-97795000D01*
X135018102Y-97834774D01*
X134829744Y-97912795D01*
X134660226Y-98026063D01*
X134516063Y-98170226D01*
X134402795Y-98339744D01*
X134324774Y-98528102D01*
X134285000Y-98728061D01*
X113597153Y-98728061D01*
X113585226Y-98668102D01*
X113507205Y-98479744D01*
X113393937Y-98310226D01*
X113249774Y-98166063D01*
X113080256Y-98052795D01*
X112891898Y-97974774D01*
X112691939Y-97935000D01*
X112488061Y-97935000D01*
X112288102Y-97974774D01*
X112099744Y-98052795D01*
X111930226Y-98166063D01*
X111786063Y-98310226D01*
X111672795Y-98479744D01*
X111594774Y-98668102D01*
X111555000Y-98868061D01*
X101410000Y-98868061D01*
X101410000Y-96408061D01*
X115825000Y-96408061D01*
X115825000Y-96611939D01*
X115864774Y-96811898D01*
X115942795Y-97000256D01*
X116056063Y-97169774D01*
X116200226Y-97313937D01*
X116369744Y-97427205D01*
X116558102Y-97505226D01*
X116758061Y-97545000D01*
X116961939Y-97545000D01*
X117161898Y-97505226D01*
X117350256Y-97427205D01*
X117519774Y-97313937D01*
X117663937Y-97169774D01*
X117777205Y-97000256D01*
X117855226Y-96811898D01*
X117895000Y-96611939D01*
X117895000Y-96408061D01*
X117855226Y-96208102D01*
X117777205Y-96019744D01*
X117663937Y-95850226D01*
X117519774Y-95706063D01*
X117350256Y-95592795D01*
X117161898Y-95514774D01*
X116961939Y-95475000D01*
X116758061Y-95475000D01*
X116558102Y-95514774D01*
X116369744Y-95592795D01*
X116200226Y-95706063D01*
X116056063Y-95850226D01*
X115942795Y-96019744D01*
X115864774Y-96208102D01*
X115825000Y-96408061D01*
X101410000Y-96408061D01*
X101410000Y-94288061D01*
X115185000Y-94288061D01*
X115185000Y-94491939D01*
X115224774Y-94691898D01*
X115302795Y-94880256D01*
X115416063Y-95049774D01*
X115560226Y-95193937D01*
X115729744Y-95307205D01*
X115918102Y-95385226D01*
X116118061Y-95425000D01*
X116321939Y-95425000D01*
X116356823Y-95418061D01*
X117665000Y-95418061D01*
X117665000Y-95621939D01*
X117704774Y-95821898D01*
X117782795Y-96010256D01*
X117896063Y-96179774D01*
X118040226Y-96323937D01*
X118209744Y-96437205D01*
X118398102Y-96515226D01*
X118598061Y-96555000D01*
X118801939Y-96555000D01*
X119001898Y-96515226D01*
X119190256Y-96437205D01*
X119359774Y-96323937D01*
X119503937Y-96179774D01*
X119617205Y-96010256D01*
X119695226Y-95821898D01*
X119735000Y-95621939D01*
X119735000Y-95610524D01*
X121020000Y-95610524D01*
X121020000Y-95809476D01*
X121058814Y-96004606D01*
X121134950Y-96188414D01*
X121245482Y-96353837D01*
X121386163Y-96494518D01*
X121551586Y-96605050D01*
X121735394Y-96681186D01*
X121930524Y-96720000D01*
X122129476Y-96720000D01*
X122324606Y-96681186D01*
X122508414Y-96605050D01*
X122518873Y-96598061D01*
X123695000Y-96598061D01*
X123695000Y-96801939D01*
X123734774Y-97001898D01*
X123812795Y-97190256D01*
X123926063Y-97359774D01*
X124070226Y-97503937D01*
X124239744Y-97617205D01*
X124428102Y-97695226D01*
X124628061Y-97735000D01*
X124831939Y-97735000D01*
X125031898Y-97695226D01*
X125220256Y-97617205D01*
X125389774Y-97503937D01*
X125533937Y-97359774D01*
X125647205Y-97190256D01*
X125725226Y-97001898D01*
X125742111Y-96917009D01*
X125901898Y-96885226D01*
X125931266Y-96873061D01*
X126840000Y-96873061D01*
X126840000Y-97076939D01*
X126879774Y-97276898D01*
X126957795Y-97465256D01*
X127071063Y-97634774D01*
X127215226Y-97778937D01*
X127384744Y-97892205D01*
X127573102Y-97970226D01*
X127773061Y-98010000D01*
X127976939Y-98010000D01*
X128176898Y-97970226D01*
X128365256Y-97892205D01*
X128534774Y-97778937D01*
X128678937Y-97634774D01*
X128792205Y-97465256D01*
X128870226Y-97276898D01*
X128910000Y-97076939D01*
X128910000Y-96873061D01*
X128870226Y-96673102D01*
X128792205Y-96484744D01*
X128678937Y-96315226D01*
X128534774Y-96171063D01*
X128365256Y-96057795D01*
X128176898Y-95979774D01*
X127976939Y-95940000D01*
X127773061Y-95940000D01*
X127573102Y-95979774D01*
X127384744Y-96057795D01*
X127215226Y-96171063D01*
X127071063Y-96315226D01*
X126957795Y-96484744D01*
X126879774Y-96673102D01*
X126840000Y-96873061D01*
X125931266Y-96873061D01*
X126090256Y-96807205D01*
X126259774Y-96693937D01*
X126403937Y-96549774D01*
X126517205Y-96380256D01*
X126595226Y-96191898D01*
X126635000Y-95991939D01*
X126635000Y-95788061D01*
X126595226Y-95588102D01*
X126517205Y-95399744D01*
X126403937Y-95230226D01*
X126259774Y-95086063D01*
X126090256Y-94972795D01*
X125901898Y-94894774D01*
X125701939Y-94855000D01*
X125498061Y-94855000D01*
X125298102Y-94894774D01*
X125109744Y-94972795D01*
X124940226Y-95086063D01*
X124796063Y-95230226D01*
X124682795Y-95399744D01*
X124604774Y-95588102D01*
X124587889Y-95672991D01*
X124428102Y-95704774D01*
X124239744Y-95782795D01*
X124070226Y-95896063D01*
X123926063Y-96040226D01*
X123812795Y-96209744D01*
X123734774Y-96398102D01*
X123695000Y-96598061D01*
X122518873Y-96598061D01*
X122673837Y-96494518D01*
X122814518Y-96353837D01*
X122925050Y-96188414D01*
X123001186Y-96004606D01*
X123040000Y-95809476D01*
X123040000Y-95610524D01*
X123001186Y-95415394D01*
X122925050Y-95231586D01*
X122814518Y-95066163D01*
X122673837Y-94925482D01*
X122508414Y-94814950D01*
X122324606Y-94738814D01*
X122270548Y-94728061D01*
X132755000Y-94728061D01*
X132755000Y-94931939D01*
X132794774Y-95131898D01*
X132872795Y-95320256D01*
X132986063Y-95489774D01*
X133130226Y-95633937D01*
X133299744Y-95747205D01*
X133488102Y-95825226D01*
X133688061Y-95865000D01*
X133891939Y-95865000D01*
X134091898Y-95825226D01*
X134280256Y-95747205D01*
X134398703Y-95668061D01*
X135065000Y-95668061D01*
X135065000Y-95871939D01*
X135104774Y-96071898D01*
X135182795Y-96260256D01*
X135296063Y-96429774D01*
X135440226Y-96573937D01*
X135609744Y-96687205D01*
X135798102Y-96765226D01*
X135998061Y-96805000D01*
X136201939Y-96805000D01*
X136401898Y-96765226D01*
X136590256Y-96687205D01*
X136759774Y-96573937D01*
X136795650Y-96538061D01*
X137735000Y-96538061D01*
X137735000Y-96741939D01*
X137774774Y-96941898D01*
X137852795Y-97130256D01*
X137966063Y-97299774D01*
X138110226Y-97443937D01*
X138279744Y-97557205D01*
X138468102Y-97635226D01*
X138668061Y-97675000D01*
X138871939Y-97675000D01*
X139071898Y-97635226D01*
X139260256Y-97557205D01*
X139429774Y-97443937D01*
X139573937Y-97299774D01*
X139687205Y-97130256D01*
X139765226Y-96941898D01*
X139805000Y-96741939D01*
X139805000Y-96538061D01*
X139765226Y-96338102D01*
X139687205Y-96149744D01*
X139652672Y-96098061D01*
X140905000Y-96098061D01*
X140905000Y-96301939D01*
X140944774Y-96501898D01*
X141022795Y-96690256D01*
X141136063Y-96859774D01*
X141280226Y-97003937D01*
X141449744Y-97117205D01*
X141638102Y-97195226D01*
X141838061Y-97235000D01*
X141942760Y-97235000D01*
X142015482Y-97343837D01*
X142156163Y-97484518D01*
X142321586Y-97595050D01*
X142505394Y-97671186D01*
X142700524Y-97710000D01*
X142899476Y-97710000D01*
X143094606Y-97671186D01*
X143278414Y-97595050D01*
X143443837Y-97484518D01*
X143584518Y-97343837D01*
X143695050Y-97178414D01*
X143771186Y-96994606D01*
X143810000Y-96799476D01*
X143810000Y-96600524D01*
X143771186Y-96405394D01*
X143695050Y-96221586D01*
X143584518Y-96056163D01*
X143443837Y-95915482D01*
X143278414Y-95804950D01*
X143094606Y-95728814D01*
X142899476Y-95690000D01*
X142844013Y-95690000D01*
X142743937Y-95540226D01*
X142599774Y-95396063D01*
X142430256Y-95282795D01*
X142241898Y-95204774D01*
X142041939Y-95165000D01*
X141838061Y-95165000D01*
X141638102Y-95204774D01*
X141449744Y-95282795D01*
X141280226Y-95396063D01*
X141136063Y-95540226D01*
X141022795Y-95709744D01*
X140944774Y-95898102D01*
X140905000Y-96098061D01*
X139652672Y-96098061D01*
X139573937Y-95980226D01*
X139429774Y-95836063D01*
X139260256Y-95722795D01*
X139071898Y-95644774D01*
X138871939Y-95605000D01*
X138668061Y-95605000D01*
X138468102Y-95644774D01*
X138279744Y-95722795D01*
X138110226Y-95836063D01*
X137966063Y-95980226D01*
X137852795Y-96149744D01*
X137774774Y-96338102D01*
X137735000Y-96538061D01*
X136795650Y-96538061D01*
X136903937Y-96429774D01*
X137017205Y-96260256D01*
X137095226Y-96071898D01*
X137135000Y-95871939D01*
X137135000Y-95668061D01*
X137095226Y-95468102D01*
X137017205Y-95279744D01*
X136903937Y-95110226D01*
X136759774Y-94966063D01*
X136590256Y-94852795D01*
X136401898Y-94774774D01*
X136201939Y-94735000D01*
X135998061Y-94735000D01*
X135798102Y-94774774D01*
X135609744Y-94852795D01*
X135440226Y-94966063D01*
X135296063Y-95110226D01*
X135182795Y-95279744D01*
X135104774Y-95468102D01*
X135065000Y-95668061D01*
X134398703Y-95668061D01*
X134449774Y-95633937D01*
X134593937Y-95489774D01*
X134707205Y-95320256D01*
X134785226Y-95131898D01*
X134825000Y-94931939D01*
X134825000Y-94728061D01*
X134785226Y-94528102D01*
X134707205Y-94339744D01*
X134625900Y-94218061D01*
X137775000Y-94218061D01*
X137775000Y-94421939D01*
X137814774Y-94621898D01*
X137892795Y-94810256D01*
X138006063Y-94979774D01*
X138150226Y-95123937D01*
X138319744Y-95237205D01*
X138508102Y-95315226D01*
X138708061Y-95355000D01*
X138911939Y-95355000D01*
X139111898Y-95315226D01*
X139300256Y-95237205D01*
X139469774Y-95123937D01*
X139613937Y-94979774D01*
X139727205Y-94810256D01*
X139805226Y-94621898D01*
X139845000Y-94421939D01*
X139845000Y-94218061D01*
X139819142Y-94088061D01*
X146395000Y-94088061D01*
X146395000Y-94291939D01*
X146434774Y-94491898D01*
X146512795Y-94680256D01*
X146626063Y-94849774D01*
X146770226Y-94993937D01*
X146939744Y-95107205D01*
X147128102Y-95185226D01*
X147328061Y-95225000D01*
X147531939Y-95225000D01*
X147731898Y-95185226D01*
X147920256Y-95107205D01*
X148089774Y-94993937D01*
X148233937Y-94849774D01*
X148347205Y-94680256D01*
X148425226Y-94491898D01*
X148465000Y-94291939D01*
X148465000Y-94088061D01*
X148425226Y-93888102D01*
X148347205Y-93699744D01*
X148233937Y-93530226D01*
X148089774Y-93386063D01*
X147920256Y-93272795D01*
X147731898Y-93194774D01*
X147531939Y-93155000D01*
X147328061Y-93155000D01*
X147128102Y-93194774D01*
X146939744Y-93272795D01*
X146770226Y-93386063D01*
X146626063Y-93530226D01*
X146512795Y-93699744D01*
X146434774Y-93888102D01*
X146395000Y-94088061D01*
X139819142Y-94088061D01*
X139805226Y-94018102D01*
X139789922Y-93981156D01*
X139797205Y-93970256D01*
X139875226Y-93781898D01*
X139915000Y-93581939D01*
X139915000Y-93378061D01*
X139875226Y-93178102D01*
X139797205Y-92989744D01*
X139683937Y-92820226D01*
X139539774Y-92676063D01*
X139370256Y-92562795D01*
X139181898Y-92484774D01*
X138981939Y-92445000D01*
X138778061Y-92445000D01*
X138578102Y-92484774D01*
X138389744Y-92562795D01*
X138220226Y-92676063D01*
X138076063Y-92820226D01*
X137962795Y-92989744D01*
X137884774Y-93178102D01*
X137845000Y-93378061D01*
X137845000Y-93581939D01*
X137884774Y-93781898D01*
X137900078Y-93818844D01*
X137892795Y-93829744D01*
X137814774Y-94018102D01*
X137775000Y-94218061D01*
X134625900Y-94218061D01*
X134593937Y-94170226D01*
X134449774Y-94026063D01*
X134280256Y-93912795D01*
X134091898Y-93834774D01*
X133891939Y-93795000D01*
X133688061Y-93795000D01*
X133488102Y-93834774D01*
X133299744Y-93912795D01*
X133130226Y-94026063D01*
X132986063Y-94170226D01*
X132872795Y-94339744D01*
X132794774Y-94528102D01*
X132755000Y-94728061D01*
X122270548Y-94728061D01*
X122129476Y-94700000D01*
X121930524Y-94700000D01*
X121735394Y-94738814D01*
X121551586Y-94814950D01*
X121386163Y-94925482D01*
X121245482Y-95066163D01*
X121134950Y-95231586D01*
X121058814Y-95415394D01*
X121020000Y-95610524D01*
X119735000Y-95610524D01*
X119735000Y-95418061D01*
X119695226Y-95218102D01*
X119617205Y-95029744D01*
X119503937Y-94860226D01*
X119359774Y-94716063D01*
X119190256Y-94602795D01*
X119001898Y-94524774D01*
X118801939Y-94485000D01*
X118598061Y-94485000D01*
X118398102Y-94524774D01*
X118209744Y-94602795D01*
X118040226Y-94716063D01*
X117896063Y-94860226D01*
X117782795Y-95029744D01*
X117704774Y-95218102D01*
X117665000Y-95418061D01*
X116356823Y-95418061D01*
X116521898Y-95385226D01*
X116710256Y-95307205D01*
X116879774Y-95193937D01*
X117023937Y-95049774D01*
X117137205Y-94880256D01*
X117215226Y-94691898D01*
X117255000Y-94491939D01*
X117255000Y-94288061D01*
X117215226Y-94088102D01*
X117137205Y-93899744D01*
X117023937Y-93730226D01*
X116879774Y-93586063D01*
X116710256Y-93472795D01*
X116521898Y-93394774D01*
X116321939Y-93355000D01*
X116118061Y-93355000D01*
X115918102Y-93394774D01*
X115729744Y-93472795D01*
X115560226Y-93586063D01*
X115416063Y-93730226D01*
X115302795Y-93899744D01*
X115224774Y-94088102D01*
X115185000Y-94288061D01*
X101410000Y-94288061D01*
X101410000Y-91358061D01*
X117025000Y-91358061D01*
X117025000Y-91561939D01*
X117064774Y-91761898D01*
X117142795Y-91950256D01*
X117256063Y-92119774D01*
X117331289Y-92195000D01*
X117276063Y-92250226D01*
X117162795Y-92419744D01*
X117084774Y-92608102D01*
X117045000Y-92808061D01*
X117045000Y-93011939D01*
X117084774Y-93211898D01*
X117162795Y-93400256D01*
X117276063Y-93569774D01*
X117420226Y-93713937D01*
X117589744Y-93827205D01*
X117778102Y-93905226D01*
X117978061Y-93945000D01*
X118181939Y-93945000D01*
X118381898Y-93905226D01*
X118570256Y-93827205D01*
X118739774Y-93713937D01*
X118883937Y-93569774D01*
X118997205Y-93400256D01*
X119075226Y-93211898D01*
X119115000Y-93011939D01*
X119115000Y-92808061D01*
X119075226Y-92608102D01*
X118997205Y-92419744D01*
X118883937Y-92250226D01*
X118808711Y-92175000D01*
X118863937Y-92119774D01*
X118931899Y-92018061D01*
X122575000Y-92018061D01*
X122575000Y-92221939D01*
X122614774Y-92421898D01*
X122692795Y-92610256D01*
X122806063Y-92779774D01*
X122950226Y-92923937D01*
X123119744Y-93037205D01*
X123308102Y-93115226D01*
X123508061Y-93155000D01*
X123711939Y-93155000D01*
X123911898Y-93115226D01*
X124100256Y-93037205D01*
X124269774Y-92923937D01*
X124413937Y-92779774D01*
X124527205Y-92610256D01*
X124605226Y-92421898D01*
X124645000Y-92221939D01*
X124645000Y-92018061D01*
X124605226Y-91818102D01*
X124527205Y-91629744D01*
X124452582Y-91518061D01*
X133915000Y-91518061D01*
X133915000Y-91721939D01*
X133954774Y-91921898D01*
X134032795Y-92110256D01*
X134146063Y-92279774D01*
X134290226Y-92423937D01*
X134459744Y-92537205D01*
X134647572Y-92615006D01*
X134679774Y-92776898D01*
X134757795Y-92965256D01*
X134871063Y-93134774D01*
X135015226Y-93278937D01*
X135184744Y-93392205D01*
X135373102Y-93470226D01*
X135573061Y-93510000D01*
X135776939Y-93510000D01*
X135976898Y-93470226D01*
X136165256Y-93392205D01*
X136334774Y-93278937D01*
X136478937Y-93134774D01*
X136592205Y-92965256D01*
X136670226Y-92776898D01*
X136710000Y-92576939D01*
X136710000Y-92373061D01*
X136670226Y-92173102D01*
X136593579Y-91988061D01*
X140255000Y-91988061D01*
X140255000Y-92191939D01*
X140294774Y-92391898D01*
X140372795Y-92580256D01*
X140486063Y-92749774D01*
X140630226Y-92893937D01*
X140799744Y-93007205D01*
X140988102Y-93085226D01*
X141188061Y-93125000D01*
X141391939Y-93125000D01*
X141591898Y-93085226D01*
X141780256Y-93007205D01*
X141949774Y-92893937D01*
X142093937Y-92749774D01*
X142207205Y-92580256D01*
X142285226Y-92391898D01*
X142325000Y-92191939D01*
X142325000Y-91988061D01*
X142285226Y-91788102D01*
X142207205Y-91599744D01*
X142093937Y-91430226D01*
X141949774Y-91286063D01*
X141780256Y-91172795D01*
X141591898Y-91094774D01*
X141391939Y-91055000D01*
X141188061Y-91055000D01*
X140988102Y-91094774D01*
X140799744Y-91172795D01*
X140630226Y-91286063D01*
X140486063Y-91430226D01*
X140372795Y-91599744D01*
X140294774Y-91788102D01*
X140255000Y-91988061D01*
X136593579Y-91988061D01*
X136592205Y-91984744D01*
X136478937Y-91815226D01*
X136334774Y-91671063D01*
X136279662Y-91634238D01*
X136429774Y-91533937D01*
X136573937Y-91389774D01*
X136687205Y-91220256D01*
X136765226Y-91031898D01*
X136805000Y-90831939D01*
X136805000Y-90628061D01*
X136787099Y-90538061D01*
X166045000Y-90538061D01*
X166045000Y-90741939D01*
X166084774Y-90941898D01*
X166162795Y-91130256D01*
X166276063Y-91299774D01*
X166420226Y-91443937D01*
X166589744Y-91557205D01*
X166778102Y-91635226D01*
X166978061Y-91675000D01*
X167181939Y-91675000D01*
X167381898Y-91635226D01*
X167570256Y-91557205D01*
X167739774Y-91443937D01*
X167883937Y-91299774D01*
X167997205Y-91130256D01*
X168075226Y-90941898D01*
X168115000Y-90741939D01*
X168115000Y-90538061D01*
X168075226Y-90338102D01*
X167997205Y-90149744D01*
X167883937Y-89980226D01*
X167739774Y-89836063D01*
X167570256Y-89722795D01*
X167381898Y-89644774D01*
X167181939Y-89605000D01*
X166978061Y-89605000D01*
X166778102Y-89644774D01*
X166589744Y-89722795D01*
X166420226Y-89836063D01*
X166276063Y-89980226D01*
X166162795Y-90149744D01*
X166084774Y-90338102D01*
X166045000Y-90538061D01*
X136787099Y-90538061D01*
X136765226Y-90428102D01*
X136687205Y-90239744D01*
X136573937Y-90070226D01*
X136429774Y-89926063D01*
X136260256Y-89812795D01*
X136071898Y-89734774D01*
X135871939Y-89695000D01*
X135668061Y-89695000D01*
X135468102Y-89734774D01*
X135279744Y-89812795D01*
X135110226Y-89926063D01*
X134966063Y-90070226D01*
X134852795Y-90239744D01*
X134774774Y-90428102D01*
X134739261Y-90606642D01*
X134648102Y-90624774D01*
X134459744Y-90702795D01*
X134290226Y-90816063D01*
X134146063Y-90960226D01*
X134032795Y-91129744D01*
X133954774Y-91318102D01*
X133915000Y-91518061D01*
X124452582Y-91518061D01*
X124413937Y-91460226D01*
X124269774Y-91316063D01*
X124100256Y-91202795D01*
X123911898Y-91124774D01*
X123711939Y-91085000D01*
X123508061Y-91085000D01*
X123308102Y-91124774D01*
X123119744Y-91202795D01*
X122950226Y-91316063D01*
X122806063Y-91460226D01*
X122692795Y-91629744D01*
X122614774Y-91818102D01*
X122575000Y-92018061D01*
X118931899Y-92018061D01*
X118977205Y-91950256D01*
X119055226Y-91761898D01*
X119095000Y-91561939D01*
X119095000Y-91358061D01*
X119055226Y-91158102D01*
X118977205Y-90969744D01*
X118863937Y-90800226D01*
X118719774Y-90656063D01*
X118550256Y-90542795D01*
X118361898Y-90464774D01*
X118161939Y-90425000D01*
X117958061Y-90425000D01*
X117758102Y-90464774D01*
X117569744Y-90542795D01*
X117400226Y-90656063D01*
X117256063Y-90800226D01*
X117142795Y-90969744D01*
X117064774Y-91158102D01*
X117025000Y-91358061D01*
X101410000Y-91358061D01*
X101410000Y-89363137D01*
X101715000Y-89363137D01*
X101715000Y-89576863D01*
X101756696Y-89786483D01*
X101838485Y-89983940D01*
X101957225Y-90161647D01*
X102108353Y-90312775D01*
X102286060Y-90431515D01*
X102483517Y-90513304D01*
X102693137Y-90555000D01*
X102906863Y-90555000D01*
X103116483Y-90513304D01*
X103313940Y-90431515D01*
X103491647Y-90312775D01*
X103642775Y-90161647D01*
X103665216Y-90128061D01*
X104705000Y-90128061D01*
X104705000Y-90331939D01*
X104744774Y-90531898D01*
X104822795Y-90720256D01*
X104936063Y-90889774D01*
X105080226Y-91033937D01*
X105249744Y-91147205D01*
X105438102Y-91225226D01*
X105638061Y-91265000D01*
X105841939Y-91265000D01*
X106041898Y-91225226D01*
X106230256Y-91147205D01*
X106399774Y-91033937D01*
X106543937Y-90889774D01*
X106657205Y-90720256D01*
X106735226Y-90531898D01*
X106775000Y-90331939D01*
X106775000Y-90128061D01*
X106735226Y-89928102D01*
X106657205Y-89739744D01*
X106543937Y-89570226D01*
X106399774Y-89426063D01*
X106230256Y-89312795D01*
X106041898Y-89234774D01*
X105841939Y-89195000D01*
X105638061Y-89195000D01*
X105438102Y-89234774D01*
X105249744Y-89312795D01*
X105080226Y-89426063D01*
X104936063Y-89570226D01*
X104822795Y-89739744D01*
X104744774Y-89928102D01*
X104705000Y-90128061D01*
X103665216Y-90128061D01*
X103761515Y-89983940D01*
X103843304Y-89786483D01*
X103885000Y-89576863D01*
X103885000Y-89363137D01*
X103843304Y-89153517D01*
X103761515Y-88956060D01*
X103642775Y-88778353D01*
X103494946Y-88630524D01*
X109990000Y-88630524D01*
X109990000Y-88829476D01*
X110028814Y-89024606D01*
X110104950Y-89208414D01*
X110215482Y-89373837D01*
X110356163Y-89514518D01*
X110521586Y-89625050D01*
X110705394Y-89701186D01*
X110900524Y-89740000D01*
X111099476Y-89740000D01*
X111294606Y-89701186D01*
X111478414Y-89625050D01*
X111643837Y-89514518D01*
X111784518Y-89373837D01*
X111895050Y-89208414D01*
X111971186Y-89024606D01*
X112010000Y-88829476D01*
X112010000Y-88630524D01*
X111971186Y-88435394D01*
X111895050Y-88251586D01*
X111784518Y-88086163D01*
X111643837Y-87945482D01*
X111478414Y-87834950D01*
X111294606Y-87758814D01*
X111099476Y-87720000D01*
X110900524Y-87720000D01*
X110705394Y-87758814D01*
X110521586Y-87834950D01*
X110356163Y-87945482D01*
X110215482Y-88086163D01*
X110104950Y-88251586D01*
X110028814Y-88435394D01*
X109990000Y-88630524D01*
X103494946Y-88630524D01*
X103491647Y-88627225D01*
X103313940Y-88508485D01*
X103116483Y-88426696D01*
X102906863Y-88385000D01*
X102693137Y-88385000D01*
X102483517Y-88426696D01*
X102286060Y-88508485D01*
X102108353Y-88627225D01*
X101957225Y-88778353D01*
X101838485Y-88956060D01*
X101756696Y-89153517D01*
X101715000Y-89363137D01*
X101410000Y-89363137D01*
X101410000Y-86363137D01*
X101715000Y-86363137D01*
X101715000Y-86576863D01*
X101756696Y-86786483D01*
X101838485Y-86983940D01*
X101957225Y-87161647D01*
X102108353Y-87312775D01*
X102286060Y-87431515D01*
X102483517Y-87513304D01*
X102693137Y-87555000D01*
X102906863Y-87555000D01*
X103116483Y-87513304D01*
X103313940Y-87431515D01*
X103491647Y-87312775D01*
X103642775Y-87161647D01*
X103761515Y-86983940D01*
X103843304Y-86786483D01*
X103885000Y-86576863D01*
X103885000Y-86363137D01*
X103843304Y-86153517D01*
X103761515Y-85956060D01*
X103642775Y-85778353D01*
X103491647Y-85627225D01*
X103313940Y-85508485D01*
X103116483Y-85426696D01*
X102906863Y-85385000D01*
X102693137Y-85385000D01*
X102483517Y-85426696D01*
X102286060Y-85508485D01*
X102108353Y-85627225D01*
X101957225Y-85778353D01*
X101838485Y-85956060D01*
X101756696Y-86153517D01*
X101715000Y-86363137D01*
X101410000Y-86363137D01*
X101410000Y-76713650D01*
X101504650Y-77189486D01*
X101876660Y-78087599D01*
X102416735Y-78895879D01*
X103104121Y-79583265D01*
X103912401Y-80123340D01*
X104810514Y-80495350D01*
X105763945Y-80685000D01*
X106736055Y-80685000D01*
X107474764Y-80538061D01*
X138155000Y-80538061D01*
X138155000Y-80741939D01*
X138194774Y-80941898D01*
X138272795Y-81130256D01*
X138386063Y-81299774D01*
X138530226Y-81443937D01*
X138699744Y-81557205D01*
X138888102Y-81635226D01*
X139088061Y-81675000D01*
X139291939Y-81675000D01*
X139491898Y-81635226D01*
X139680256Y-81557205D01*
X139849774Y-81443937D01*
X139993937Y-81299774D01*
X140107205Y-81130256D01*
X140185226Y-80941898D01*
X140225000Y-80741939D01*
X140225000Y-80538061D01*
X140185226Y-80338102D01*
X140107205Y-80149744D01*
X139993937Y-79980226D01*
X139849774Y-79836063D01*
X139680256Y-79722795D01*
X139491898Y-79644774D01*
X139291939Y-79605000D01*
X139088061Y-79605000D01*
X138888102Y-79644774D01*
X138699744Y-79722795D01*
X138530226Y-79836063D01*
X138386063Y-79980226D01*
X138272795Y-80149744D01*
X138194774Y-80338102D01*
X138155000Y-80538061D01*
X107474764Y-80538061D01*
X107689486Y-80495350D01*
X108587599Y-80123340D01*
X109395879Y-79583265D01*
X110083265Y-78895879D01*
X110623340Y-78087599D01*
X110995350Y-77189486D01*
X111185000Y-76236055D01*
X111185000Y-75496890D01*
X111340048Y-75496890D01*
X111340048Y-75743110D01*
X111388083Y-75984598D01*
X111482307Y-76212074D01*
X111619099Y-76416798D01*
X111793202Y-76590901D01*
X111997926Y-76727693D01*
X112225402Y-76821917D01*
X112466890Y-76869952D01*
X112713110Y-76869952D01*
X112954598Y-76821917D01*
X113182074Y-76727693D01*
X113386798Y-76590901D01*
X113560901Y-76416798D01*
X113697693Y-76212074D01*
X113791917Y-75984598D01*
X113806871Y-75909419D01*
X115725000Y-75909419D01*
X115725000Y-76290581D01*
X115799361Y-76664419D01*
X115945225Y-77016566D01*
X116156987Y-77333491D01*
X116426509Y-77603013D01*
X116743434Y-77814775D01*
X117095581Y-77960639D01*
X117469419Y-78035000D01*
X117850581Y-78035000D01*
X118224419Y-77960639D01*
X118576566Y-77814775D01*
X118893491Y-77603013D01*
X119163013Y-77333491D01*
X119374775Y-77016566D01*
X119520639Y-76664419D01*
X119595000Y-76290581D01*
X119595000Y-75909419D01*
X120805000Y-75909419D01*
X120805000Y-76290581D01*
X120879361Y-76664419D01*
X121025225Y-77016566D01*
X121236987Y-77333491D01*
X121506509Y-77603013D01*
X121823434Y-77814775D01*
X122175581Y-77960639D01*
X122549419Y-78035000D01*
X122930581Y-78035000D01*
X123304419Y-77960639D01*
X123656566Y-77814775D01*
X123973491Y-77603013D01*
X124243013Y-77333491D01*
X124454775Y-77016566D01*
X124600639Y-76664419D01*
X124675000Y-76290581D01*
X124675000Y-75909419D01*
X125885000Y-75909419D01*
X125885000Y-76290581D01*
X125959361Y-76664419D01*
X126105225Y-77016566D01*
X126316987Y-77333491D01*
X126586509Y-77603013D01*
X126903434Y-77814775D01*
X127255581Y-77960639D01*
X127629419Y-78035000D01*
X128010581Y-78035000D01*
X128384419Y-77960639D01*
X128736566Y-77814775D01*
X129053491Y-77603013D01*
X129256504Y-77400000D01*
X130961928Y-77400000D01*
X130974188Y-77524482D01*
X131010498Y-77644180D01*
X131069463Y-77754494D01*
X131148815Y-77851185D01*
X131245506Y-77930537D01*
X131355820Y-77989502D01*
X131475518Y-78025812D01*
X131600000Y-78038072D01*
X132614250Y-78035000D01*
X132773000Y-77876250D01*
X132773000Y-76227000D01*
X133027000Y-76227000D01*
X133027000Y-77876250D01*
X133185750Y-78035000D01*
X134200000Y-78038072D01*
X134324482Y-78025812D01*
X134444180Y-77989502D01*
X134554494Y-77930537D01*
X134651185Y-77851185D01*
X134730537Y-77754494D01*
X134789502Y-77644180D01*
X134825812Y-77524482D01*
X134838072Y-77400000D01*
X134835000Y-76385750D01*
X134676250Y-76227000D01*
X133027000Y-76227000D01*
X132773000Y-76227000D01*
X131123750Y-76227000D01*
X130965000Y-76385750D01*
X130961928Y-77400000D01*
X129256504Y-77400000D01*
X129323013Y-77333491D01*
X129534775Y-77016566D01*
X129680639Y-76664419D01*
X129755000Y-76290581D01*
X129755000Y-75909419D01*
X129680639Y-75535581D01*
X129534775Y-75183434D01*
X129323013Y-74866509D01*
X129256504Y-74800000D01*
X130961928Y-74800000D01*
X130965000Y-75814250D01*
X131123750Y-75973000D01*
X132773000Y-75973000D01*
X132773000Y-74323750D01*
X133027000Y-74323750D01*
X133027000Y-75973000D01*
X134676250Y-75973000D01*
X134835000Y-75814250D01*
X134837653Y-74938061D01*
X140225000Y-74938061D01*
X140225000Y-75141939D01*
X140264774Y-75341898D01*
X140342795Y-75530256D01*
X140456063Y-75699774D01*
X140600226Y-75843937D01*
X140769744Y-75957205D01*
X140958102Y-76035226D01*
X141158061Y-76075000D01*
X141361939Y-76075000D01*
X141561898Y-76035226D01*
X141750256Y-75957205D01*
X141919774Y-75843937D01*
X142063937Y-75699774D01*
X142177205Y-75530256D01*
X142255226Y-75341898D01*
X142295000Y-75141939D01*
X142295000Y-74958061D01*
X142735000Y-74958061D01*
X142735000Y-75161939D01*
X142774774Y-75361898D01*
X142852795Y-75550256D01*
X142966063Y-75719774D01*
X143110226Y-75863937D01*
X143279744Y-75977205D01*
X143468102Y-76055226D01*
X143668061Y-76095000D01*
X143871939Y-76095000D01*
X144071898Y-76055226D01*
X144260256Y-75977205D01*
X144415000Y-75873809D01*
X144569744Y-75977205D01*
X144758102Y-76055226D01*
X144958061Y-76095000D01*
X145161939Y-76095000D01*
X145361898Y-76055226D01*
X145550256Y-75977205D01*
X145719774Y-75863937D01*
X145863937Y-75719774D01*
X145977205Y-75550256D01*
X146055226Y-75361898D01*
X146095000Y-75161939D01*
X146095000Y-74958061D01*
X146055226Y-74758102D01*
X145977205Y-74569744D01*
X145863937Y-74400226D01*
X145719774Y-74256063D01*
X145550256Y-74142795D01*
X145361898Y-74064774D01*
X145161939Y-74025000D01*
X144958061Y-74025000D01*
X144758102Y-74064774D01*
X144569744Y-74142795D01*
X144415000Y-74246191D01*
X144260256Y-74142795D01*
X144071898Y-74064774D01*
X143871939Y-74025000D01*
X143668061Y-74025000D01*
X143468102Y-74064774D01*
X143279744Y-74142795D01*
X143110226Y-74256063D01*
X142966063Y-74400226D01*
X142852795Y-74569744D01*
X142774774Y-74758102D01*
X142735000Y-74958061D01*
X142295000Y-74958061D01*
X142295000Y-74938061D01*
X142255226Y-74738102D01*
X142177205Y-74549744D01*
X142063937Y-74380226D01*
X141919774Y-74236063D01*
X141750256Y-74122795D01*
X141561898Y-74044774D01*
X141361939Y-74005000D01*
X141158061Y-74005000D01*
X140958102Y-74044774D01*
X140769744Y-74122795D01*
X140600226Y-74236063D01*
X140456063Y-74380226D01*
X140342795Y-74549744D01*
X140264774Y-74738102D01*
X140225000Y-74938061D01*
X134837653Y-74938061D01*
X134838072Y-74800000D01*
X134825812Y-74675518D01*
X134789502Y-74555820D01*
X134730537Y-74445506D01*
X134651185Y-74348815D01*
X134554494Y-74269463D01*
X134444180Y-74210498D01*
X134324482Y-74174188D01*
X134200000Y-74161928D01*
X133185750Y-74165000D01*
X133027000Y-74323750D01*
X132773000Y-74323750D01*
X132614250Y-74165000D01*
X131600000Y-74161928D01*
X131475518Y-74174188D01*
X131355820Y-74210498D01*
X131245506Y-74269463D01*
X131148815Y-74348815D01*
X131069463Y-74445506D01*
X131010498Y-74555820D01*
X130974188Y-74675518D01*
X130961928Y-74800000D01*
X129256504Y-74800000D01*
X129053491Y-74596987D01*
X128736566Y-74385225D01*
X128384419Y-74239361D01*
X128010581Y-74165000D01*
X127629419Y-74165000D01*
X127255581Y-74239361D01*
X126903434Y-74385225D01*
X126586509Y-74596987D01*
X126316987Y-74866509D01*
X126105225Y-75183434D01*
X125959361Y-75535581D01*
X125885000Y-75909419D01*
X124675000Y-75909419D01*
X124600639Y-75535581D01*
X124454775Y-75183434D01*
X124243013Y-74866509D01*
X123973491Y-74596987D01*
X123656566Y-74385225D01*
X123304419Y-74239361D01*
X122930581Y-74165000D01*
X122549419Y-74165000D01*
X122175581Y-74239361D01*
X121823434Y-74385225D01*
X121506509Y-74596987D01*
X121236987Y-74866509D01*
X121025225Y-75183434D01*
X120879361Y-75535581D01*
X120805000Y-75909419D01*
X119595000Y-75909419D01*
X119520639Y-75535581D01*
X119374775Y-75183434D01*
X119163013Y-74866509D01*
X118893491Y-74596987D01*
X118576566Y-74385225D01*
X118224419Y-74239361D01*
X117850581Y-74165000D01*
X117469419Y-74165000D01*
X117095581Y-74239361D01*
X116743434Y-74385225D01*
X116426509Y-74596987D01*
X116156987Y-74866509D01*
X115945225Y-75183434D01*
X115799361Y-75535581D01*
X115725000Y-75909419D01*
X113806871Y-75909419D01*
X113839952Y-75743110D01*
X113839952Y-75496890D01*
X113791917Y-75255402D01*
X113697693Y-75027926D01*
X113560901Y-74823202D01*
X113386798Y-74649099D01*
X113182074Y-74512307D01*
X112954598Y-74418083D01*
X112713110Y-74370048D01*
X112466890Y-74370048D01*
X112225402Y-74418083D01*
X111997926Y-74512307D01*
X111793202Y-74649099D01*
X111619099Y-74823202D01*
X111482307Y-75027926D01*
X111388083Y-75255402D01*
X111340048Y-75496890D01*
X111185000Y-75496890D01*
X111185000Y-75263945D01*
X110995350Y-74310514D01*
X110679533Y-73548061D01*
X154415000Y-73548061D01*
X154415000Y-73751939D01*
X154454774Y-73951898D01*
X154532795Y-74140256D01*
X154646063Y-74309774D01*
X154790226Y-74453937D01*
X154959744Y-74567205D01*
X155148102Y-74645226D01*
X155348061Y-74685000D01*
X155551939Y-74685000D01*
X155687371Y-74658061D01*
X161115000Y-74658061D01*
X161115000Y-74861939D01*
X161154774Y-75061898D01*
X161232795Y-75250256D01*
X161346063Y-75419774D01*
X161490226Y-75563937D01*
X161659744Y-75677205D01*
X161848102Y-75755226D01*
X162048061Y-75795000D01*
X162251939Y-75795000D01*
X162451898Y-75755226D01*
X162640256Y-75677205D01*
X162775422Y-75586890D01*
X163290048Y-75586890D01*
X163290048Y-75833110D01*
X163338083Y-76074598D01*
X163432307Y-76302074D01*
X163569099Y-76506798D01*
X163743202Y-76680901D01*
X163947926Y-76817693D01*
X164175402Y-76911917D01*
X164416890Y-76959952D01*
X164663110Y-76959952D01*
X164904598Y-76911917D01*
X165132074Y-76817693D01*
X165336798Y-76680901D01*
X165510901Y-76506798D01*
X165647693Y-76302074D01*
X165741917Y-76074598D01*
X165789952Y-75833110D01*
X165789952Y-75586890D01*
X165741917Y-75345402D01*
X165647693Y-75117926D01*
X165510901Y-74913202D01*
X165336798Y-74739099D01*
X165132074Y-74602307D01*
X164904598Y-74508083D01*
X164663110Y-74460048D01*
X164416890Y-74460048D01*
X164175402Y-74508083D01*
X163947926Y-74602307D01*
X163743202Y-74739099D01*
X163569099Y-74913202D01*
X163432307Y-75117926D01*
X163338083Y-75345402D01*
X163290048Y-75586890D01*
X162775422Y-75586890D01*
X162809774Y-75563937D01*
X162953937Y-75419774D01*
X163067205Y-75250256D01*
X163145226Y-75061898D01*
X163185000Y-74861939D01*
X163185000Y-74658061D01*
X163145226Y-74458102D01*
X163067205Y-74269744D01*
X162953937Y-74100226D01*
X162809774Y-73956063D01*
X162640256Y-73842795D01*
X162451898Y-73764774D01*
X162251939Y-73725000D01*
X162048061Y-73725000D01*
X161848102Y-73764774D01*
X161659744Y-73842795D01*
X161490226Y-73956063D01*
X161346063Y-74100226D01*
X161232795Y-74269744D01*
X161154774Y-74458102D01*
X161115000Y-74658061D01*
X155687371Y-74658061D01*
X155751898Y-74645226D01*
X155940256Y-74567205D01*
X156109774Y-74453937D01*
X156253937Y-74309774D01*
X156367205Y-74140256D01*
X156445226Y-73951898D01*
X156485000Y-73751939D01*
X156485000Y-73548061D01*
X156445226Y-73348102D01*
X156367205Y-73159744D01*
X156253937Y-72990226D01*
X156109774Y-72846063D01*
X155940256Y-72732795D01*
X155751898Y-72654774D01*
X155551939Y-72615000D01*
X155348061Y-72615000D01*
X155148102Y-72654774D01*
X154959744Y-72732795D01*
X154790226Y-72846063D01*
X154646063Y-72990226D01*
X154532795Y-73159744D01*
X154454774Y-73348102D01*
X154415000Y-73548061D01*
X110679533Y-73548061D01*
X110623340Y-73412401D01*
X110083265Y-72604121D01*
X109395879Y-71916735D01*
X108587599Y-71376660D01*
X107689486Y-71004650D01*
X107213650Y-70910000D01*
X169786350Y-70910000D01*
X169310514Y-71004650D01*
%TA.AperFunction,Conductor*%
D21*
G36*
X169310514Y-71004650D02*
G01*
X168412401Y-71376660D01*
X167604121Y-71916735D01*
X166916735Y-72604121D01*
X166376660Y-73412401D01*
X166004650Y-74310514D01*
X165815000Y-75263945D01*
X165815000Y-76236055D01*
X166004650Y-77189486D01*
X166376660Y-78087599D01*
X166916735Y-78895879D01*
X167604121Y-79583265D01*
X168412401Y-80123340D01*
X169310514Y-80495350D01*
X170263945Y-80685000D01*
X171236055Y-80685000D01*
X172189486Y-80495350D01*
X173087599Y-80123340D01*
X173895879Y-79583265D01*
X174583265Y-78895879D01*
X175123340Y-78087599D01*
X175495350Y-77189486D01*
X175595143Y-76687795D01*
X175657713Y-88075482D01*
X175526949Y-87968167D01*
X175312401Y-87853489D01*
X175079602Y-87782870D01*
X174898165Y-87765000D01*
X174076835Y-87765000D01*
X173895398Y-87782870D01*
X173662599Y-87853489D01*
X173448051Y-87968167D01*
X173259998Y-88122498D01*
X173105667Y-88310551D01*
X172990989Y-88525099D01*
X172920370Y-88757898D01*
X172896525Y-89000000D01*
X172920370Y-89242102D01*
X172923383Y-89252035D01*
X172843881Y-89133051D01*
X172654449Y-88943619D01*
X172431701Y-88794784D01*
X172184197Y-88692264D01*
X171921448Y-88640000D01*
X171653552Y-88640000D01*
X171390803Y-88692264D01*
X171143299Y-88794784D01*
X170920551Y-88943619D01*
X170731119Y-89133051D01*
X170660711Y-89238424D01*
X170651898Y-89234774D01*
X170451939Y-89195000D01*
X170248061Y-89195000D01*
X170048102Y-89234774D01*
X169882929Y-89303191D01*
X169741898Y-89244774D01*
X169541939Y-89205000D01*
X169338061Y-89205000D01*
X169138102Y-89244774D01*
X168949744Y-89322795D01*
X168780226Y-89436063D01*
X168636063Y-89580226D01*
X168522795Y-89749744D01*
X168444774Y-89938102D01*
X168405000Y-90138061D01*
X168405000Y-90341939D01*
X168444774Y-90541898D01*
X168522795Y-90730256D01*
X168636063Y-90899774D01*
X168658119Y-90921830D01*
X168635000Y-91038061D01*
X168635000Y-91241939D01*
X168674774Y-91441898D01*
X168752795Y-91630256D01*
X168866063Y-91799774D01*
X169010226Y-91943937D01*
X169179744Y-92057205D01*
X169368102Y-92135226D01*
X169568061Y-92175000D01*
X169771939Y-92175000D01*
X169971898Y-92135226D01*
X170159142Y-92057666D01*
X170298102Y-92115226D01*
X170498061Y-92155000D01*
X170701939Y-92155000D01*
X170901898Y-92115226D01*
X171090256Y-92037205D01*
X171259774Y-91923937D01*
X171403937Y-91779774D01*
X171517205Y-91610256D01*
X171595226Y-91421898D01*
X171609289Y-91351196D01*
X171653552Y-91360000D01*
X171921448Y-91360000D01*
X172184197Y-91307736D01*
X172431701Y-91205216D01*
X172654449Y-91056381D01*
X172843881Y-90866949D01*
X172992716Y-90644201D01*
X173095236Y-90396697D01*
X173147500Y-90133948D01*
X173147500Y-89866052D01*
X173114516Y-89700232D01*
X173259998Y-89877502D01*
X173448051Y-90031833D01*
X173662599Y-90146511D01*
X173895398Y-90217130D01*
X174076835Y-90235000D01*
X174898165Y-90235000D01*
X175079602Y-90217130D01*
X175312401Y-90146511D01*
X175526949Y-90031833D01*
X175667827Y-89916218D01*
X175696349Y-95107190D01*
X175526949Y-94968167D01*
X175312401Y-94853489D01*
X175079602Y-94782870D01*
X174898165Y-94765000D01*
X174076835Y-94765000D01*
X173895398Y-94782870D01*
X173662599Y-94853489D01*
X173448051Y-94968167D01*
X173259998Y-95122498D01*
X173114516Y-95299768D01*
X173147500Y-95133948D01*
X173147500Y-94866052D01*
X173095236Y-94603303D01*
X172992716Y-94355799D01*
X172843881Y-94133051D01*
X172654449Y-93943619D01*
X172431701Y-93794784D01*
X172184197Y-93692264D01*
X171921448Y-93640000D01*
X171653552Y-93640000D01*
X171390803Y-93692264D01*
X171143299Y-93794784D01*
X170920551Y-93943619D01*
X170731119Y-94133051D01*
X170582284Y-94355799D01*
X170479764Y-94603303D01*
X170427500Y-94866052D01*
X170427500Y-95133948D01*
X170479764Y-95396697D01*
X170582284Y-95644201D01*
X170731119Y-95866949D01*
X170920551Y-96056381D01*
X171143299Y-96205216D01*
X171390803Y-96307736D01*
X171653552Y-96360000D01*
X171921448Y-96360000D01*
X172184197Y-96307736D01*
X172431701Y-96205216D01*
X172654449Y-96056381D01*
X172843881Y-95866949D01*
X172923383Y-95747965D01*
X172920370Y-95757898D01*
X172896525Y-96000000D01*
X172920370Y-96242102D01*
X172990989Y-96474901D01*
X173105667Y-96689449D01*
X173259998Y-96877502D01*
X173448051Y-97031833D01*
X173662599Y-97146511D01*
X173895398Y-97217130D01*
X174076835Y-97235000D01*
X174898165Y-97235000D01*
X175079602Y-97217130D01*
X175312401Y-97146511D01*
X175526949Y-97031833D01*
X175706116Y-96884795D01*
X175728297Y-100921712D01*
X175580256Y-100822795D01*
X175391898Y-100744774D01*
X175191939Y-100705000D01*
X174988061Y-100705000D01*
X174788102Y-100744774D01*
X174599744Y-100822795D01*
X174430226Y-100936063D01*
X174286063Y-101080226D01*
X174172795Y-101249744D01*
X174094774Y-101438102D01*
X174055000Y-101638061D01*
X174055000Y-101841939D01*
X174094774Y-102041898D01*
X174172795Y-102230256D01*
X174286063Y-102399774D01*
X174430226Y-102543937D01*
X174599744Y-102657205D01*
X174788102Y-102735226D01*
X174988061Y-102775000D01*
X175191939Y-102775000D01*
X175391898Y-102735226D01*
X175580256Y-102657205D01*
X175737256Y-102552301D01*
X175834545Y-120258928D01*
X175745350Y-119810514D01*
X175373340Y-118912401D01*
X174833265Y-118104121D01*
X174145879Y-117416735D01*
X173337599Y-116876660D01*
X172439486Y-116504650D01*
X171486055Y-116315000D01*
X170513945Y-116315000D01*
X169560514Y-116504650D01*
X168662401Y-116876660D01*
X167854121Y-117416735D01*
X167166735Y-118104121D01*
X166626660Y-118912401D01*
X166254650Y-119810514D01*
X166065000Y-120763945D01*
X166065000Y-121736055D01*
X166254650Y-122689486D01*
X166626660Y-123587599D01*
X167166735Y-124395879D01*
X167854121Y-125083265D01*
X168662401Y-125623340D01*
X169560514Y-125995350D01*
X170036350Y-126090000D01*
X107213650Y-126090000D01*
X107689486Y-125995350D01*
X108587599Y-125623340D01*
X109395879Y-125083265D01*
X110083265Y-124395879D01*
X110623340Y-123587599D01*
X110995350Y-122689486D01*
X111112606Y-122100000D01*
X115661928Y-122100000D01*
X115674188Y-122224482D01*
X115710498Y-122344180D01*
X115769463Y-122454494D01*
X115848815Y-122551185D01*
X115945506Y-122630537D01*
X116055820Y-122689502D01*
X116175518Y-122725812D01*
X116300000Y-122738072D01*
X117314250Y-122735000D01*
X117473000Y-122576250D01*
X117473000Y-120927000D01*
X117727000Y-120927000D01*
X117727000Y-122576250D01*
X117885750Y-122735000D01*
X118900000Y-122738072D01*
X119024482Y-122725812D01*
X119144180Y-122689502D01*
X119254494Y-122630537D01*
X119351185Y-122551185D01*
X119430537Y-122454494D01*
X119489502Y-122344180D01*
X119525812Y-122224482D01*
X119538072Y-122100000D01*
X119535000Y-121085750D01*
X119376250Y-120927000D01*
X117727000Y-120927000D01*
X117473000Y-120927000D01*
X115823750Y-120927000D01*
X115665000Y-121085750D01*
X115661928Y-122100000D01*
X111112606Y-122100000D01*
X111185000Y-121736055D01*
X111185000Y-120763945D01*
X110995350Y-119810514D01*
X110866732Y-119500000D01*
X115661928Y-119500000D01*
X115665000Y-120514250D01*
X115823750Y-120673000D01*
X117473000Y-120673000D01*
X117473000Y-119023750D01*
X117727000Y-119023750D01*
X117727000Y-120673000D01*
X119376250Y-120673000D01*
X119439831Y-120609419D01*
X120745000Y-120609419D01*
X120745000Y-120990581D01*
X120819361Y-121364419D01*
X120965225Y-121716566D01*
X121176987Y-122033491D01*
X121446509Y-122303013D01*
X121763434Y-122514775D01*
X122115581Y-122660639D01*
X122489419Y-122735000D01*
X122870581Y-122735000D01*
X123244419Y-122660639D01*
X123596566Y-122514775D01*
X123913491Y-122303013D01*
X124183013Y-122033491D01*
X124394775Y-121716566D01*
X124540639Y-121364419D01*
X124615000Y-120990581D01*
X124615000Y-120609419D01*
X125825000Y-120609419D01*
X125825000Y-120990581D01*
X125899361Y-121364419D01*
X126045225Y-121716566D01*
X126256987Y-122033491D01*
X126526509Y-122303013D01*
X126843434Y-122514775D01*
X127195581Y-122660639D01*
X127569419Y-122735000D01*
X127950581Y-122735000D01*
X128324419Y-122660639D01*
X128676566Y-122514775D01*
X128993491Y-122303013D01*
X129263013Y-122033491D01*
X129474775Y-121716566D01*
X129620639Y-121364419D01*
X129695000Y-120990581D01*
X129695000Y-120609419D01*
X130905000Y-120609419D01*
X130905000Y-120990581D01*
X130979361Y-121364419D01*
X131125225Y-121716566D01*
X131336987Y-122033491D01*
X131606509Y-122303013D01*
X131923434Y-122514775D01*
X132275581Y-122660639D01*
X132649419Y-122735000D01*
X133030581Y-122735000D01*
X133404419Y-122660639D01*
X133756566Y-122514775D01*
X133931241Y-122398061D01*
X148255000Y-122398061D01*
X148255000Y-122601939D01*
X148294774Y-122801898D01*
X148372795Y-122990256D01*
X148486063Y-123159774D01*
X148630226Y-123303937D01*
X148799744Y-123417205D01*
X148988102Y-123495226D01*
X149188061Y-123535000D01*
X149391939Y-123535000D01*
X149591898Y-123495226D01*
X149732929Y-123436809D01*
X149898102Y-123505226D01*
X150098061Y-123545000D01*
X150301939Y-123545000D01*
X150501898Y-123505226D01*
X150690256Y-123427205D01*
X150859774Y-123313937D01*
X151003937Y-123169774D01*
X151117205Y-123000256D01*
X151142967Y-122938061D01*
X151445000Y-122938061D01*
X151445000Y-123141939D01*
X151484774Y-123341898D01*
X151562795Y-123530256D01*
X151676063Y-123699774D01*
X151820226Y-123843937D01*
X151989744Y-123957205D01*
X152178102Y-124035226D01*
X152378061Y-124075000D01*
X152581939Y-124075000D01*
X152781898Y-124035226D01*
X152970256Y-123957205D01*
X153139774Y-123843937D01*
X153283937Y-123699774D01*
X153397205Y-123530256D01*
X153475226Y-123341898D01*
X153483076Y-123302433D01*
X153538102Y-123325226D01*
X153738061Y-123365000D01*
X153941939Y-123365000D01*
X154141898Y-123325226D01*
X154330256Y-123247205D01*
X154499774Y-123133937D01*
X154643937Y-122989774D01*
X154757205Y-122820256D01*
X154794221Y-122730890D01*
X163060048Y-122730890D01*
X163060048Y-122977110D01*
X163108083Y-123218598D01*
X163202307Y-123446074D01*
X163339099Y-123650798D01*
X163513202Y-123824901D01*
X163717926Y-123961693D01*
X163945402Y-124055917D01*
X164186890Y-124103952D01*
X164433110Y-124103952D01*
X164674598Y-124055917D01*
X164902074Y-123961693D01*
X165106798Y-123824901D01*
X165280901Y-123650798D01*
X165417693Y-123446074D01*
X165511917Y-123218598D01*
X165559952Y-122977110D01*
X165559952Y-122730890D01*
X165511917Y-122489402D01*
X165417693Y-122261926D01*
X165280901Y-122057202D01*
X165106798Y-121883099D01*
X164902074Y-121746307D01*
X164674598Y-121652083D01*
X164433110Y-121604048D01*
X164186890Y-121604048D01*
X163945402Y-121652083D01*
X163717926Y-121746307D01*
X163513202Y-121883099D01*
X163339099Y-122057202D01*
X163202307Y-122261926D01*
X163108083Y-122489402D01*
X163060048Y-122730890D01*
X154794221Y-122730890D01*
X154835226Y-122631898D01*
X154875000Y-122431939D01*
X154875000Y-122228061D01*
X154835226Y-122028102D01*
X154757205Y-121839744D01*
X154643937Y-121670226D01*
X154499774Y-121526063D01*
X154330256Y-121412795D01*
X154141898Y-121334774D01*
X153941939Y-121295000D01*
X153738061Y-121295000D01*
X153538102Y-121334774D01*
X153349744Y-121412795D01*
X153180226Y-121526063D01*
X153036063Y-121670226D01*
X152922795Y-121839744D01*
X152844774Y-122028102D01*
X152836924Y-122067567D01*
X152781898Y-122044774D01*
X152581939Y-122005000D01*
X152378061Y-122005000D01*
X152178102Y-122044774D01*
X151989744Y-122122795D01*
X151820226Y-122236063D01*
X151676063Y-122380226D01*
X151562795Y-122549744D01*
X151484774Y-122738102D01*
X151445000Y-122938061D01*
X151142967Y-122938061D01*
X151195226Y-122811898D01*
X151235000Y-122611939D01*
X151235000Y-122408061D01*
X151195226Y-122208102D01*
X151117205Y-122019744D01*
X151003937Y-121850226D01*
X150859774Y-121706063D01*
X150690256Y-121592795D01*
X150501898Y-121514774D01*
X150301939Y-121475000D01*
X150098061Y-121475000D01*
X149898102Y-121514774D01*
X149757071Y-121573191D01*
X149591898Y-121504774D01*
X149391939Y-121465000D01*
X149188061Y-121465000D01*
X148988102Y-121504774D01*
X148799744Y-121582795D01*
X148630226Y-121696063D01*
X148486063Y-121840226D01*
X148372795Y-122009744D01*
X148294774Y-122198102D01*
X148255000Y-122398061D01*
X133931241Y-122398061D01*
X134073491Y-122303013D01*
X134343013Y-122033491D01*
X134554775Y-121716566D01*
X134700639Y-121364419D01*
X134775000Y-120990581D01*
X134775000Y-120609419D01*
X134700639Y-120235581D01*
X134554775Y-119883434D01*
X134343013Y-119566509D01*
X134073491Y-119296987D01*
X133756566Y-119085225D01*
X133404419Y-118939361D01*
X133030581Y-118865000D01*
X132649419Y-118865000D01*
X132275581Y-118939361D01*
X131923434Y-119085225D01*
X131606509Y-119296987D01*
X131336987Y-119566509D01*
X131125225Y-119883434D01*
X130979361Y-120235581D01*
X130905000Y-120609419D01*
X129695000Y-120609419D01*
X129620639Y-120235581D01*
X129474775Y-119883434D01*
X129263013Y-119566509D01*
X128993491Y-119296987D01*
X128676566Y-119085225D01*
X128324419Y-118939361D01*
X127950581Y-118865000D01*
X127569419Y-118865000D01*
X127195581Y-118939361D01*
X126843434Y-119085225D01*
X126526509Y-119296987D01*
X126256987Y-119566509D01*
X126045225Y-119883434D01*
X125899361Y-120235581D01*
X125825000Y-120609419D01*
X124615000Y-120609419D01*
X124540639Y-120235581D01*
X124394775Y-119883434D01*
X124183013Y-119566509D01*
X123913491Y-119296987D01*
X123596566Y-119085225D01*
X123244419Y-118939361D01*
X122870581Y-118865000D01*
X122489419Y-118865000D01*
X122115581Y-118939361D01*
X121763434Y-119085225D01*
X121446509Y-119296987D01*
X121176987Y-119566509D01*
X120965225Y-119883434D01*
X120819361Y-120235581D01*
X120745000Y-120609419D01*
X119439831Y-120609419D01*
X119535000Y-120514250D01*
X119538072Y-119500000D01*
X119525812Y-119375518D01*
X119489502Y-119255820D01*
X119430537Y-119145506D01*
X119351185Y-119048815D01*
X119254494Y-118969463D01*
X119144180Y-118910498D01*
X119024482Y-118874188D01*
X118900000Y-118861928D01*
X117885750Y-118865000D01*
X117727000Y-119023750D01*
X117473000Y-119023750D01*
X117314250Y-118865000D01*
X116300000Y-118861928D01*
X116175518Y-118874188D01*
X116055820Y-118910498D01*
X115945506Y-118969463D01*
X115848815Y-119048815D01*
X115769463Y-119145506D01*
X115710498Y-119255820D01*
X115674188Y-119375518D01*
X115661928Y-119500000D01*
X110866732Y-119500000D01*
X110623340Y-118912401D01*
X110083265Y-118104121D01*
X109395879Y-117416735D01*
X108587599Y-116876660D01*
X107689486Y-116504650D01*
X106736055Y-116315000D01*
X105763945Y-116315000D01*
X104810514Y-116504650D01*
X103912401Y-116876660D01*
X103104121Y-117416735D01*
X102416735Y-118104121D01*
X101876660Y-118912401D01*
X101504650Y-119810514D01*
X101410000Y-120286350D01*
X101410000Y-115018061D01*
X160335000Y-115018061D01*
X160335000Y-115221939D01*
X160374774Y-115421898D01*
X160452795Y-115610256D01*
X160566063Y-115779774D01*
X160710226Y-115923937D01*
X160879744Y-116037205D01*
X161068102Y-116115226D01*
X161268061Y-116155000D01*
X161471939Y-116155000D01*
X161671898Y-116115226D01*
X161860256Y-116037205D01*
X162029774Y-115923937D01*
X162173937Y-115779774D01*
X162287205Y-115610256D01*
X162365226Y-115421898D01*
X162405000Y-115221939D01*
X162405000Y-115018061D01*
X162365226Y-114818102D01*
X162325093Y-114721213D01*
X162395226Y-114551898D01*
X162435000Y-114351939D01*
X162435000Y-114148061D01*
X162395226Y-113948102D01*
X162317205Y-113759744D01*
X162203937Y-113590226D01*
X162059774Y-113446063D01*
X161890256Y-113332795D01*
X161701898Y-113254774D01*
X161501939Y-113215000D01*
X161298061Y-113215000D01*
X161098102Y-113254774D01*
X160909744Y-113332795D01*
X160740226Y-113446063D01*
X160596063Y-113590226D01*
X160482795Y-113759744D01*
X160404774Y-113948102D01*
X160365000Y-114148061D01*
X160365000Y-114351939D01*
X160404774Y-114551898D01*
X160444907Y-114648787D01*
X160374774Y-114818102D01*
X160335000Y-115018061D01*
X101410000Y-115018061D01*
X101410000Y-113478061D01*
X153185000Y-113478061D01*
X153185000Y-113681939D01*
X153224774Y-113881898D01*
X153302795Y-114070256D01*
X153416063Y-114239774D01*
X153560226Y-114383937D01*
X153729744Y-114497205D01*
X153918102Y-114575226D01*
X154118061Y-114615000D01*
X154321939Y-114615000D01*
X154521898Y-114575226D01*
X154710256Y-114497205D01*
X154879774Y-114383937D01*
X155023937Y-114239774D01*
X155137205Y-114070256D01*
X155215226Y-113881898D01*
X155255000Y-113681939D01*
X155255000Y-113478061D01*
X155215226Y-113278102D01*
X155137205Y-113089744D01*
X155023937Y-112920226D01*
X154879774Y-112776063D01*
X154710256Y-112662795D01*
X154521898Y-112584774D01*
X154321939Y-112545000D01*
X154118061Y-112545000D01*
X153918102Y-112584774D01*
X153729744Y-112662795D01*
X153560226Y-112776063D01*
X153416063Y-112920226D01*
X153302795Y-113089744D01*
X153224774Y-113278102D01*
X153185000Y-113478061D01*
X101410000Y-113478061D01*
X101410000Y-107108061D01*
X120765000Y-107108061D01*
X120765000Y-107311939D01*
X120804774Y-107511898D01*
X120882795Y-107700256D01*
X120996063Y-107869774D01*
X121140226Y-108013937D01*
X121309744Y-108127205D01*
X121498102Y-108205226D01*
X121698061Y-108245000D01*
X121901939Y-108245000D01*
X122101898Y-108205226D01*
X122290256Y-108127205D01*
X122459774Y-108013937D01*
X122603937Y-107869774D01*
X122717205Y-107700256D01*
X122795226Y-107511898D01*
X122835000Y-107311939D01*
X122835000Y-107108061D01*
X122795226Y-106908102D01*
X122786925Y-106888061D01*
X130805000Y-106888061D01*
X130805000Y-107091939D01*
X130844774Y-107291898D01*
X130922795Y-107480256D01*
X131036063Y-107649774D01*
X131106289Y-107720000D01*
X131066063Y-107760226D01*
X130952795Y-107929744D01*
X130874774Y-108118102D01*
X130835000Y-108318061D01*
X130835000Y-108521939D01*
X130874774Y-108721898D01*
X130952795Y-108910256D01*
X131066063Y-109079774D01*
X131210226Y-109223937D01*
X131379744Y-109337205D01*
X131568102Y-109415226D01*
X131768061Y-109455000D01*
X131971939Y-109455000D01*
X132171898Y-109415226D01*
X132360256Y-109337205D01*
X132529774Y-109223937D01*
X132645650Y-109108061D01*
X138175000Y-109108061D01*
X138175000Y-109311939D01*
X138214774Y-109511898D01*
X138292795Y-109700256D01*
X138406063Y-109869774D01*
X138550226Y-110013937D01*
X138719744Y-110127205D01*
X138908102Y-110205226D01*
X139108061Y-110245000D01*
X139311939Y-110245000D01*
X139511898Y-110205226D01*
X139700256Y-110127205D01*
X139869774Y-110013937D01*
X140013937Y-109869774D01*
X140101944Y-109738061D01*
X153155000Y-109738061D01*
X153155000Y-109941939D01*
X153194774Y-110141898D01*
X153272795Y-110330256D01*
X153386063Y-110499774D01*
X153530226Y-110643937D01*
X153699744Y-110757205D01*
X153888102Y-110835226D01*
X154088061Y-110875000D01*
X154291939Y-110875000D01*
X154491898Y-110835226D01*
X154680256Y-110757205D01*
X154849774Y-110643937D01*
X154993937Y-110499774D01*
X155107205Y-110330256D01*
X155185226Y-110141898D01*
X155225000Y-109941939D01*
X155225000Y-109818061D01*
X156465000Y-109818061D01*
X156465000Y-110021939D01*
X156504774Y-110221898D01*
X156582795Y-110410256D01*
X156696063Y-110579774D01*
X156840226Y-110723937D01*
X157009744Y-110837205D01*
X157198102Y-110915226D01*
X157398061Y-110955000D01*
X157601939Y-110955000D01*
X157801898Y-110915226D01*
X157990256Y-110837205D01*
X158159774Y-110723937D01*
X158303937Y-110579774D01*
X158417205Y-110410256D01*
X158495226Y-110221898D01*
X158535000Y-110021939D01*
X158535000Y-110018061D01*
X160905000Y-110018061D01*
X160905000Y-110221939D01*
X160944774Y-110421898D01*
X161022795Y-110610256D01*
X161136063Y-110779774D01*
X161191289Y-110835000D01*
X161136063Y-110890226D01*
X161022795Y-111059744D01*
X160944774Y-111248102D01*
X160905000Y-111448061D01*
X160905000Y-111651939D01*
X160944774Y-111851898D01*
X161022795Y-112040256D01*
X161136063Y-112209774D01*
X161280226Y-112353937D01*
X161449744Y-112467205D01*
X161638102Y-112545226D01*
X161838061Y-112585000D01*
X162041939Y-112585000D01*
X162241898Y-112545226D01*
X162430256Y-112467205D01*
X162599774Y-112353937D01*
X162743937Y-112209774D01*
X162857205Y-112040256D01*
X162935226Y-111851898D01*
X162975000Y-111651939D01*
X162975000Y-111448061D01*
X162935226Y-111248102D01*
X162857205Y-111059744D01*
X162743937Y-110890226D01*
X162688711Y-110835000D01*
X162743937Y-110779774D01*
X162857205Y-110610256D01*
X162935226Y-110421898D01*
X162975000Y-110221939D01*
X162975000Y-110018061D01*
X162935226Y-109818102D01*
X162857205Y-109629744D01*
X162743937Y-109460226D01*
X162599774Y-109316063D01*
X162430256Y-109202795D01*
X162423509Y-109200000D01*
X168961928Y-109200000D01*
X168961928Y-111600000D01*
X168974188Y-111724482D01*
X169010498Y-111844180D01*
X169069463Y-111954494D01*
X169148815Y-112051185D01*
X169245506Y-112130537D01*
X169355820Y-112189502D01*
X169475518Y-112225812D01*
X169600000Y-112238072D01*
X172000000Y-112238072D01*
X172124482Y-112225812D01*
X172244180Y-112189502D01*
X172354494Y-112130537D01*
X172451185Y-112051185D01*
X172530537Y-111954494D01*
X172589502Y-111844180D01*
X172625812Y-111724482D01*
X172638072Y-111600000D01*
X172638072Y-109200000D01*
X172625812Y-109075518D01*
X172589502Y-108955820D01*
X172530537Y-108845506D01*
X172451185Y-108748815D01*
X172354494Y-108669463D01*
X172244180Y-108610498D01*
X172124482Y-108574188D01*
X172000000Y-108561928D01*
X171582838Y-108561928D01*
X171669199Y-108526156D01*
X171969744Y-108325338D01*
X172225338Y-108069744D01*
X172426156Y-107769199D01*
X172564482Y-107435250D01*
X172635000Y-107080732D01*
X172635000Y-106719268D01*
X172564482Y-106364750D01*
X172426156Y-106030801D01*
X172225338Y-105730256D01*
X171969744Y-105474662D01*
X171669199Y-105273844D01*
X171335250Y-105135518D01*
X170980732Y-105065000D01*
X170619268Y-105065000D01*
X170264750Y-105135518D01*
X169930801Y-105273844D01*
X169630256Y-105474662D01*
X169374662Y-105730256D01*
X169173844Y-106030801D01*
X169035518Y-106364750D01*
X168965000Y-106719268D01*
X168965000Y-107080732D01*
X169035518Y-107435250D01*
X169173844Y-107769199D01*
X169374662Y-108069744D01*
X169630256Y-108325338D01*
X169930801Y-108526156D01*
X170017162Y-108561928D01*
X169600000Y-108561928D01*
X169475518Y-108574188D01*
X169355820Y-108610498D01*
X169245506Y-108669463D01*
X169148815Y-108748815D01*
X169069463Y-108845506D01*
X169010498Y-108955820D01*
X168974188Y-109075518D01*
X168961928Y-109200000D01*
X162423509Y-109200000D01*
X162241898Y-109124774D01*
X162041939Y-109085000D01*
X161838061Y-109085000D01*
X161638102Y-109124774D01*
X161449744Y-109202795D01*
X161280226Y-109316063D01*
X161136063Y-109460226D01*
X161022795Y-109629744D01*
X160944774Y-109818102D01*
X160905000Y-110018061D01*
X158535000Y-110018061D01*
X158535000Y-109818061D01*
X158495226Y-109618102D01*
X158417205Y-109429744D01*
X158303937Y-109260226D01*
X158159774Y-109116063D01*
X157990256Y-109002795D01*
X157801898Y-108924774D01*
X157601939Y-108885000D01*
X157398061Y-108885000D01*
X157198102Y-108924774D01*
X157009744Y-109002795D01*
X156840226Y-109116063D01*
X156696063Y-109260226D01*
X156582795Y-109429744D01*
X156504774Y-109618102D01*
X156465000Y-109818061D01*
X155225000Y-109818061D01*
X155225000Y-109738061D01*
X155185226Y-109538102D01*
X155107205Y-109349744D01*
X154993937Y-109180226D01*
X154849774Y-109036063D01*
X154680256Y-108922795D01*
X154491898Y-108844774D01*
X154291939Y-108805000D01*
X154088061Y-108805000D01*
X153888102Y-108844774D01*
X153699744Y-108922795D01*
X153530226Y-109036063D01*
X153386063Y-109180226D01*
X153272795Y-109349744D01*
X153194774Y-109538102D01*
X153155000Y-109738061D01*
X140101944Y-109738061D01*
X140127205Y-109700256D01*
X140205226Y-109511898D01*
X140245000Y-109311939D01*
X140245000Y-109108061D01*
X140205226Y-108908102D01*
X140127205Y-108719744D01*
X140013937Y-108550226D01*
X139869774Y-108406063D01*
X139700256Y-108292795D01*
X139511898Y-108214774D01*
X139311939Y-108175000D01*
X139108061Y-108175000D01*
X138908102Y-108214774D01*
X138719744Y-108292795D01*
X138550226Y-108406063D01*
X138406063Y-108550226D01*
X138292795Y-108719744D01*
X138214774Y-108908102D01*
X138175000Y-109108061D01*
X132645650Y-109108061D01*
X132673937Y-109079774D01*
X132787205Y-108910256D01*
X132865226Y-108721898D01*
X132905000Y-108521939D01*
X132905000Y-108318061D01*
X132865226Y-108118102D01*
X132787205Y-107929744D01*
X132673937Y-107760226D01*
X132603711Y-107690000D01*
X132643937Y-107649774D01*
X132757205Y-107480256D01*
X132835226Y-107291898D01*
X132875000Y-107091939D01*
X132875000Y-106888061D01*
X132851131Y-106768061D01*
X139645000Y-106768061D01*
X139645000Y-106971939D01*
X139684774Y-107171898D01*
X139762795Y-107360256D01*
X139876063Y-107529774D01*
X140020226Y-107673937D01*
X140189744Y-107787205D01*
X140378102Y-107865226D01*
X140578061Y-107905000D01*
X140781939Y-107905000D01*
X140981898Y-107865226D01*
X141170256Y-107787205D01*
X141339774Y-107673937D01*
X141483937Y-107529774D01*
X141597205Y-107360256D01*
X141675226Y-107171898D01*
X141677978Y-107158061D01*
X165575000Y-107158061D01*
X165575000Y-107361939D01*
X165614774Y-107561898D01*
X165692795Y-107750256D01*
X165806063Y-107919774D01*
X165950226Y-108063937D01*
X166119744Y-108177205D01*
X166308102Y-108255226D01*
X166508061Y-108295000D01*
X166711939Y-108295000D01*
X166911898Y-108255226D01*
X167100256Y-108177205D01*
X167269774Y-108063937D01*
X167413937Y-107919774D01*
X167527205Y-107750256D01*
X167605226Y-107561898D01*
X167645000Y-107361939D01*
X167645000Y-107158061D01*
X167605226Y-106958102D01*
X167527205Y-106769744D01*
X167413937Y-106600226D01*
X167269774Y-106456063D01*
X167100256Y-106342795D01*
X166911898Y-106264774D01*
X166711939Y-106225000D01*
X166508061Y-106225000D01*
X166308102Y-106264774D01*
X166119744Y-106342795D01*
X165950226Y-106456063D01*
X165806063Y-106600226D01*
X165692795Y-106769744D01*
X165614774Y-106958102D01*
X165575000Y-107158061D01*
X141677978Y-107158061D01*
X141715000Y-106971939D01*
X141715000Y-106768061D01*
X141675226Y-106568102D01*
X141597205Y-106379744D01*
X141483937Y-106210226D01*
X141339774Y-106066063D01*
X141170256Y-105952795D01*
X140981898Y-105874774D01*
X140781939Y-105835000D01*
X140578061Y-105835000D01*
X140378102Y-105874774D01*
X140189744Y-105952795D01*
X140020226Y-106066063D01*
X139876063Y-106210226D01*
X139762795Y-106379744D01*
X139684774Y-106568102D01*
X139645000Y-106768061D01*
X132851131Y-106768061D01*
X132842192Y-106723124D01*
X132881898Y-106715226D01*
X133070256Y-106637205D01*
X133239774Y-106523937D01*
X133383937Y-106379774D01*
X133497205Y-106210256D01*
X133575226Y-106021898D01*
X133615000Y-105821939D01*
X133615000Y-105618061D01*
X133575226Y-105418102D01*
X133497205Y-105229744D01*
X133383937Y-105060226D01*
X133239774Y-104916063D01*
X133070256Y-104802795D01*
X132881898Y-104724774D01*
X132681939Y-104685000D01*
X132478061Y-104685000D01*
X132278102Y-104724774D01*
X132089744Y-104802795D01*
X131920226Y-104916063D01*
X131776063Y-105060226D01*
X131662795Y-105229744D01*
X131584774Y-105418102D01*
X131545000Y-105618061D01*
X131545000Y-105821939D01*
X131577808Y-105986876D01*
X131538102Y-105994774D01*
X131349744Y-106072795D01*
X131180226Y-106186063D01*
X131036063Y-106330226D01*
X130922795Y-106499744D01*
X130844774Y-106688102D01*
X130805000Y-106888061D01*
X122786925Y-106888061D01*
X122717205Y-106719744D01*
X122603937Y-106550226D01*
X122459774Y-106406063D01*
X122290256Y-106292795D01*
X122101898Y-106214774D01*
X121901939Y-106175000D01*
X121698061Y-106175000D01*
X121498102Y-106214774D01*
X121309744Y-106292795D01*
X121140226Y-106406063D01*
X120996063Y-106550226D01*
X120882795Y-106719744D01*
X120804774Y-106908102D01*
X120765000Y-107108061D01*
X101410000Y-107108061D01*
X101410000Y-103238061D01*
X121305000Y-103238061D01*
X121305000Y-103441939D01*
X121344774Y-103641898D01*
X121422795Y-103830256D01*
X121536063Y-103999774D01*
X121680226Y-104143937D01*
X121849744Y-104257205D01*
X122038102Y-104335226D01*
X122238061Y-104375000D01*
X122441939Y-104375000D01*
X122641898Y-104335226D01*
X122830256Y-104257205D01*
X122999774Y-104143937D01*
X123143937Y-103999774D01*
X123257205Y-103830256D01*
X123335226Y-103641898D01*
X123375000Y-103441939D01*
X123375000Y-103238061D01*
X123335226Y-103038102D01*
X123257205Y-102849744D01*
X123143937Y-102680226D01*
X122999774Y-102536063D01*
X122830256Y-102422795D01*
X122641898Y-102344774D01*
X122441939Y-102305000D01*
X122238061Y-102305000D01*
X122038102Y-102344774D01*
X121849744Y-102422795D01*
X121680226Y-102536063D01*
X121536063Y-102680226D01*
X121422795Y-102849744D01*
X121344774Y-103038102D01*
X121305000Y-103238061D01*
X101410000Y-103238061D01*
X101410000Y-101028061D01*
X112675000Y-101028061D01*
X112675000Y-101231939D01*
X112714774Y-101431898D01*
X112792795Y-101620256D01*
X112906063Y-101789774D01*
X113050226Y-101933937D01*
X113219744Y-102047205D01*
X113408102Y-102125226D01*
X113608061Y-102165000D01*
X113811939Y-102165000D01*
X114011898Y-102125226D01*
X114200256Y-102047205D01*
X114369774Y-101933937D01*
X114513937Y-101789774D01*
X114627205Y-101620256D01*
X114705226Y-101431898D01*
X114745000Y-101231939D01*
X114745000Y-101028061D01*
X114705226Y-100828102D01*
X114648239Y-100690524D01*
X115400000Y-100690524D01*
X115400000Y-100889476D01*
X115438814Y-101084606D01*
X115514950Y-101268414D01*
X115625482Y-101433837D01*
X115766163Y-101574518D01*
X115931586Y-101685050D01*
X116115394Y-101761186D01*
X116310524Y-101800000D01*
X116509476Y-101800000D01*
X116704606Y-101761186D01*
X116888414Y-101685050D01*
X117053837Y-101574518D01*
X117194518Y-101433837D01*
X117305050Y-101268414D01*
X117381186Y-101084606D01*
X117420000Y-100889476D01*
X117420000Y-100690524D01*
X117381186Y-100495394D01*
X117305050Y-100311586D01*
X117194518Y-100146163D01*
X117166416Y-100118061D01*
X117515000Y-100118061D01*
X117515000Y-100321939D01*
X117554774Y-100521898D01*
X117632795Y-100710256D01*
X117746063Y-100879774D01*
X117890226Y-101023937D01*
X118059744Y-101137205D01*
X118248102Y-101215226D01*
X118448061Y-101255000D01*
X118651939Y-101255000D01*
X118851898Y-101215226D01*
X119040256Y-101137205D01*
X119209774Y-101023937D01*
X119353937Y-100879774D01*
X119467205Y-100710256D01*
X119545226Y-100521898D01*
X119585000Y-100321939D01*
X119585000Y-100118061D01*
X119545226Y-99918102D01*
X119467205Y-99729744D01*
X119353937Y-99560226D01*
X119209774Y-99416063D01*
X119040256Y-99302795D01*
X118851898Y-99224774D01*
X118651939Y-99185000D01*
X118448061Y-99185000D01*
X118248102Y-99224774D01*
X118059744Y-99302795D01*
X117890226Y-99416063D01*
X117746063Y-99560226D01*
X117632795Y-99729744D01*
X117554774Y-99918102D01*
X117515000Y-100118061D01*
X117166416Y-100118061D01*
X117053837Y-100005482D01*
X116888414Y-99894950D01*
X116704606Y-99818814D01*
X116509476Y-99780000D01*
X116310524Y-99780000D01*
X116115394Y-99818814D01*
X115931586Y-99894950D01*
X115766163Y-100005482D01*
X115625482Y-100146163D01*
X115514950Y-100311586D01*
X115438814Y-100495394D01*
X115400000Y-100690524D01*
X114648239Y-100690524D01*
X114627205Y-100639744D01*
X114513937Y-100470226D01*
X114369774Y-100326063D01*
X114200256Y-100212795D01*
X114011898Y-100134774D01*
X113811939Y-100095000D01*
X113608061Y-100095000D01*
X113408102Y-100134774D01*
X113219744Y-100212795D01*
X113050226Y-100326063D01*
X112906063Y-100470226D01*
X112792795Y-100639744D01*
X112714774Y-100828102D01*
X112675000Y-101028061D01*
X101410000Y-101028061D01*
X101410000Y-98868061D01*
X111555000Y-98868061D01*
X111555000Y-99071939D01*
X111594774Y-99271898D01*
X111672795Y-99460256D01*
X111786063Y-99629774D01*
X111930226Y-99773937D01*
X112099744Y-99887205D01*
X112288102Y-99965226D01*
X112488061Y-100005000D01*
X112691939Y-100005000D01*
X112891898Y-99965226D01*
X113080256Y-99887205D01*
X113249774Y-99773937D01*
X113393937Y-99629774D01*
X113507205Y-99460256D01*
X113585226Y-99271898D01*
X113625000Y-99071939D01*
X113625000Y-98868061D01*
X113597153Y-98728061D01*
X134285000Y-98728061D01*
X134285000Y-98931939D01*
X134324774Y-99131898D01*
X134402795Y-99320256D01*
X134516063Y-99489774D01*
X134660226Y-99633937D01*
X134829744Y-99747205D01*
X135018102Y-99825226D01*
X135218061Y-99865000D01*
X135251715Y-99865000D01*
X135359726Y-100026650D01*
X135503889Y-100170813D01*
X135673407Y-100284081D01*
X135861765Y-100362102D01*
X136061724Y-100401876D01*
X136265602Y-100401876D01*
X136465561Y-100362102D01*
X136653919Y-100284081D01*
X136823437Y-100170813D01*
X136967600Y-100026650D01*
X137080868Y-99857132D01*
X137158889Y-99668774D01*
X137198663Y-99468815D01*
X137198663Y-99264937D01*
X137158889Y-99064978D01*
X137080868Y-98876620D01*
X136967600Y-98707102D01*
X136898559Y-98638061D01*
X142315000Y-98638061D01*
X142315000Y-98841939D01*
X142354774Y-99041898D01*
X142432795Y-99230256D01*
X142546063Y-99399774D01*
X142690226Y-99543937D01*
X142859744Y-99657205D01*
X143048102Y-99735226D01*
X143248061Y-99775000D01*
X143451939Y-99775000D01*
X143651898Y-99735226D01*
X143840256Y-99657205D01*
X144009774Y-99543937D01*
X144153937Y-99399774D01*
X144267205Y-99230256D01*
X144345226Y-99041898D01*
X144385000Y-98841939D01*
X144385000Y-98638061D01*
X144345226Y-98438102D01*
X144267205Y-98249744D01*
X144153937Y-98080226D01*
X144009774Y-97936063D01*
X143840256Y-97822795D01*
X143651898Y-97744774D01*
X143451939Y-97705000D01*
X143248061Y-97705000D01*
X143048102Y-97744774D01*
X142859744Y-97822795D01*
X142690226Y-97936063D01*
X142546063Y-98080226D01*
X142432795Y-98249744D01*
X142354774Y-98438102D01*
X142315000Y-98638061D01*
X136898559Y-98638061D01*
X136823437Y-98562939D01*
X136653919Y-98449671D01*
X136465561Y-98371650D01*
X136265602Y-98331876D01*
X136231948Y-98331876D01*
X136123937Y-98170226D01*
X135979774Y-98026063D01*
X135810256Y-97912795D01*
X135621898Y-97834774D01*
X135421939Y-97795000D01*
X135218061Y-97795000D01*
X135018102Y-97834774D01*
X134829744Y-97912795D01*
X134660226Y-98026063D01*
X134516063Y-98170226D01*
X134402795Y-98339744D01*
X134324774Y-98528102D01*
X134285000Y-98728061D01*
X113597153Y-98728061D01*
X113585226Y-98668102D01*
X113507205Y-98479744D01*
X113393937Y-98310226D01*
X113249774Y-98166063D01*
X113080256Y-98052795D01*
X112891898Y-97974774D01*
X112691939Y-97935000D01*
X112488061Y-97935000D01*
X112288102Y-97974774D01*
X112099744Y-98052795D01*
X111930226Y-98166063D01*
X111786063Y-98310226D01*
X111672795Y-98479744D01*
X111594774Y-98668102D01*
X111555000Y-98868061D01*
X101410000Y-98868061D01*
X101410000Y-96408061D01*
X115825000Y-96408061D01*
X115825000Y-96611939D01*
X115864774Y-96811898D01*
X115942795Y-97000256D01*
X116056063Y-97169774D01*
X116200226Y-97313937D01*
X116369744Y-97427205D01*
X116558102Y-97505226D01*
X116758061Y-97545000D01*
X116961939Y-97545000D01*
X117161898Y-97505226D01*
X117350256Y-97427205D01*
X117519774Y-97313937D01*
X117663937Y-97169774D01*
X117777205Y-97000256D01*
X117855226Y-96811898D01*
X117895000Y-96611939D01*
X117895000Y-96408061D01*
X117855226Y-96208102D01*
X117777205Y-96019744D01*
X117663937Y-95850226D01*
X117519774Y-95706063D01*
X117350256Y-95592795D01*
X117161898Y-95514774D01*
X116961939Y-95475000D01*
X116758061Y-95475000D01*
X116558102Y-95514774D01*
X116369744Y-95592795D01*
X116200226Y-95706063D01*
X116056063Y-95850226D01*
X115942795Y-96019744D01*
X115864774Y-96208102D01*
X115825000Y-96408061D01*
X101410000Y-96408061D01*
X101410000Y-94288061D01*
X115185000Y-94288061D01*
X115185000Y-94491939D01*
X115224774Y-94691898D01*
X115302795Y-94880256D01*
X115416063Y-95049774D01*
X115560226Y-95193937D01*
X115729744Y-95307205D01*
X115918102Y-95385226D01*
X116118061Y-95425000D01*
X116321939Y-95425000D01*
X116356823Y-95418061D01*
X117665000Y-95418061D01*
X117665000Y-95621939D01*
X117704774Y-95821898D01*
X117782795Y-96010256D01*
X117896063Y-96179774D01*
X118040226Y-96323937D01*
X118209744Y-96437205D01*
X118398102Y-96515226D01*
X118598061Y-96555000D01*
X118801939Y-96555000D01*
X119001898Y-96515226D01*
X119190256Y-96437205D01*
X119359774Y-96323937D01*
X119503937Y-96179774D01*
X119617205Y-96010256D01*
X119695226Y-95821898D01*
X119735000Y-95621939D01*
X119735000Y-95610524D01*
X121020000Y-95610524D01*
X121020000Y-95809476D01*
X121058814Y-96004606D01*
X121134950Y-96188414D01*
X121245482Y-96353837D01*
X121386163Y-96494518D01*
X121551586Y-96605050D01*
X121735394Y-96681186D01*
X121930524Y-96720000D01*
X122129476Y-96720000D01*
X122324606Y-96681186D01*
X122508414Y-96605050D01*
X122518873Y-96598061D01*
X123695000Y-96598061D01*
X123695000Y-96801939D01*
X123734774Y-97001898D01*
X123812795Y-97190256D01*
X123926063Y-97359774D01*
X124070226Y-97503937D01*
X124239744Y-97617205D01*
X124428102Y-97695226D01*
X124628061Y-97735000D01*
X124831939Y-97735000D01*
X125031898Y-97695226D01*
X125220256Y-97617205D01*
X125389774Y-97503937D01*
X125533937Y-97359774D01*
X125647205Y-97190256D01*
X125725226Y-97001898D01*
X125742111Y-96917009D01*
X125901898Y-96885226D01*
X125931266Y-96873061D01*
X126840000Y-96873061D01*
X126840000Y-97076939D01*
X126879774Y-97276898D01*
X126957795Y-97465256D01*
X127071063Y-97634774D01*
X127215226Y-97778937D01*
X127384744Y-97892205D01*
X127573102Y-97970226D01*
X127773061Y-98010000D01*
X127976939Y-98010000D01*
X128176898Y-97970226D01*
X128365256Y-97892205D01*
X128534774Y-97778937D01*
X128678937Y-97634774D01*
X128792205Y-97465256D01*
X128870226Y-97276898D01*
X128910000Y-97076939D01*
X128910000Y-96873061D01*
X128870226Y-96673102D01*
X128792205Y-96484744D01*
X128678937Y-96315226D01*
X128534774Y-96171063D01*
X128365256Y-96057795D01*
X128176898Y-95979774D01*
X127976939Y-95940000D01*
X127773061Y-95940000D01*
X127573102Y-95979774D01*
X127384744Y-96057795D01*
X127215226Y-96171063D01*
X127071063Y-96315226D01*
X126957795Y-96484744D01*
X126879774Y-96673102D01*
X126840000Y-96873061D01*
X125931266Y-96873061D01*
X126090256Y-96807205D01*
X126259774Y-96693937D01*
X126403937Y-96549774D01*
X126517205Y-96380256D01*
X126595226Y-96191898D01*
X126635000Y-95991939D01*
X126635000Y-95788061D01*
X126595226Y-95588102D01*
X126517205Y-95399744D01*
X126403937Y-95230226D01*
X126259774Y-95086063D01*
X126090256Y-94972795D01*
X125901898Y-94894774D01*
X125701939Y-94855000D01*
X125498061Y-94855000D01*
X125298102Y-94894774D01*
X125109744Y-94972795D01*
X124940226Y-95086063D01*
X124796063Y-95230226D01*
X124682795Y-95399744D01*
X124604774Y-95588102D01*
X124587889Y-95672991D01*
X124428102Y-95704774D01*
X124239744Y-95782795D01*
X124070226Y-95896063D01*
X123926063Y-96040226D01*
X123812795Y-96209744D01*
X123734774Y-96398102D01*
X123695000Y-96598061D01*
X122518873Y-96598061D01*
X122673837Y-96494518D01*
X122814518Y-96353837D01*
X122925050Y-96188414D01*
X123001186Y-96004606D01*
X123040000Y-95809476D01*
X123040000Y-95610524D01*
X123001186Y-95415394D01*
X122925050Y-95231586D01*
X122814518Y-95066163D01*
X122673837Y-94925482D01*
X122508414Y-94814950D01*
X122324606Y-94738814D01*
X122270548Y-94728061D01*
X132755000Y-94728061D01*
X132755000Y-94931939D01*
X132794774Y-95131898D01*
X132872795Y-95320256D01*
X132986063Y-95489774D01*
X133130226Y-95633937D01*
X133299744Y-95747205D01*
X133488102Y-95825226D01*
X133688061Y-95865000D01*
X133891939Y-95865000D01*
X134091898Y-95825226D01*
X134280256Y-95747205D01*
X134398703Y-95668061D01*
X135065000Y-95668061D01*
X135065000Y-95871939D01*
X135104774Y-96071898D01*
X135182795Y-96260256D01*
X135296063Y-96429774D01*
X135440226Y-96573937D01*
X135609744Y-96687205D01*
X135798102Y-96765226D01*
X135998061Y-96805000D01*
X136201939Y-96805000D01*
X136401898Y-96765226D01*
X136590256Y-96687205D01*
X136759774Y-96573937D01*
X136795650Y-96538061D01*
X137735000Y-96538061D01*
X137735000Y-96741939D01*
X137774774Y-96941898D01*
X137852795Y-97130256D01*
X137966063Y-97299774D01*
X138110226Y-97443937D01*
X138279744Y-97557205D01*
X138468102Y-97635226D01*
X138668061Y-97675000D01*
X138871939Y-97675000D01*
X139071898Y-97635226D01*
X139260256Y-97557205D01*
X139429774Y-97443937D01*
X139573937Y-97299774D01*
X139687205Y-97130256D01*
X139765226Y-96941898D01*
X139805000Y-96741939D01*
X139805000Y-96538061D01*
X139765226Y-96338102D01*
X139687205Y-96149744D01*
X139652672Y-96098061D01*
X140905000Y-96098061D01*
X140905000Y-96301939D01*
X140944774Y-96501898D01*
X141022795Y-96690256D01*
X141136063Y-96859774D01*
X141280226Y-97003937D01*
X141449744Y-97117205D01*
X141638102Y-97195226D01*
X141838061Y-97235000D01*
X141942760Y-97235000D01*
X142015482Y-97343837D01*
X142156163Y-97484518D01*
X142321586Y-97595050D01*
X142505394Y-97671186D01*
X142700524Y-97710000D01*
X142899476Y-97710000D01*
X143094606Y-97671186D01*
X143278414Y-97595050D01*
X143443837Y-97484518D01*
X143584518Y-97343837D01*
X143695050Y-97178414D01*
X143771186Y-96994606D01*
X143810000Y-96799476D01*
X143810000Y-96600524D01*
X143771186Y-96405394D01*
X143695050Y-96221586D01*
X143584518Y-96056163D01*
X143443837Y-95915482D01*
X143278414Y-95804950D01*
X143094606Y-95728814D01*
X142899476Y-95690000D01*
X142844013Y-95690000D01*
X142743937Y-95540226D01*
X142599774Y-95396063D01*
X142430256Y-95282795D01*
X142241898Y-95204774D01*
X142041939Y-95165000D01*
X141838061Y-95165000D01*
X141638102Y-95204774D01*
X141449744Y-95282795D01*
X141280226Y-95396063D01*
X141136063Y-95540226D01*
X141022795Y-95709744D01*
X140944774Y-95898102D01*
X140905000Y-96098061D01*
X139652672Y-96098061D01*
X139573937Y-95980226D01*
X139429774Y-95836063D01*
X139260256Y-95722795D01*
X139071898Y-95644774D01*
X138871939Y-95605000D01*
X138668061Y-95605000D01*
X138468102Y-95644774D01*
X138279744Y-95722795D01*
X138110226Y-95836063D01*
X137966063Y-95980226D01*
X137852795Y-96149744D01*
X137774774Y-96338102D01*
X137735000Y-96538061D01*
X136795650Y-96538061D01*
X136903937Y-96429774D01*
X137017205Y-96260256D01*
X137095226Y-96071898D01*
X137135000Y-95871939D01*
X137135000Y-95668061D01*
X137095226Y-95468102D01*
X137017205Y-95279744D01*
X136903937Y-95110226D01*
X136759774Y-94966063D01*
X136590256Y-94852795D01*
X136401898Y-94774774D01*
X136201939Y-94735000D01*
X135998061Y-94735000D01*
X135798102Y-94774774D01*
X135609744Y-94852795D01*
X135440226Y-94966063D01*
X135296063Y-95110226D01*
X135182795Y-95279744D01*
X135104774Y-95468102D01*
X135065000Y-95668061D01*
X134398703Y-95668061D01*
X134449774Y-95633937D01*
X134593937Y-95489774D01*
X134707205Y-95320256D01*
X134785226Y-95131898D01*
X134825000Y-94931939D01*
X134825000Y-94728061D01*
X134785226Y-94528102D01*
X134707205Y-94339744D01*
X134625900Y-94218061D01*
X137775000Y-94218061D01*
X137775000Y-94421939D01*
X137814774Y-94621898D01*
X137892795Y-94810256D01*
X138006063Y-94979774D01*
X138150226Y-95123937D01*
X138319744Y-95237205D01*
X138508102Y-95315226D01*
X138708061Y-95355000D01*
X138911939Y-95355000D01*
X139111898Y-95315226D01*
X139300256Y-95237205D01*
X139469774Y-95123937D01*
X139613937Y-94979774D01*
X139727205Y-94810256D01*
X139805226Y-94621898D01*
X139845000Y-94421939D01*
X139845000Y-94218061D01*
X139819142Y-94088061D01*
X146395000Y-94088061D01*
X146395000Y-94291939D01*
X146434774Y-94491898D01*
X146512795Y-94680256D01*
X146626063Y-94849774D01*
X146770226Y-94993937D01*
X146939744Y-95107205D01*
X147128102Y-95185226D01*
X147328061Y-95225000D01*
X147531939Y-95225000D01*
X147731898Y-95185226D01*
X147920256Y-95107205D01*
X148089774Y-94993937D01*
X148233937Y-94849774D01*
X148347205Y-94680256D01*
X148425226Y-94491898D01*
X148465000Y-94291939D01*
X148465000Y-94088061D01*
X148425226Y-93888102D01*
X148347205Y-93699744D01*
X148233937Y-93530226D01*
X148089774Y-93386063D01*
X147920256Y-93272795D01*
X147731898Y-93194774D01*
X147531939Y-93155000D01*
X147328061Y-93155000D01*
X147128102Y-93194774D01*
X146939744Y-93272795D01*
X146770226Y-93386063D01*
X146626063Y-93530226D01*
X146512795Y-93699744D01*
X146434774Y-93888102D01*
X146395000Y-94088061D01*
X139819142Y-94088061D01*
X139805226Y-94018102D01*
X139789922Y-93981156D01*
X139797205Y-93970256D01*
X139875226Y-93781898D01*
X139915000Y-93581939D01*
X139915000Y-93378061D01*
X139875226Y-93178102D01*
X139797205Y-92989744D01*
X139683937Y-92820226D01*
X139539774Y-92676063D01*
X139370256Y-92562795D01*
X139181898Y-92484774D01*
X138981939Y-92445000D01*
X138778061Y-92445000D01*
X138578102Y-92484774D01*
X138389744Y-92562795D01*
X138220226Y-92676063D01*
X138076063Y-92820226D01*
X137962795Y-92989744D01*
X137884774Y-93178102D01*
X137845000Y-93378061D01*
X137845000Y-93581939D01*
X137884774Y-93781898D01*
X137900078Y-93818844D01*
X137892795Y-93829744D01*
X137814774Y-94018102D01*
X137775000Y-94218061D01*
X134625900Y-94218061D01*
X134593937Y-94170226D01*
X134449774Y-94026063D01*
X134280256Y-93912795D01*
X134091898Y-93834774D01*
X133891939Y-93795000D01*
X133688061Y-93795000D01*
X133488102Y-93834774D01*
X133299744Y-93912795D01*
X133130226Y-94026063D01*
X132986063Y-94170226D01*
X132872795Y-94339744D01*
X132794774Y-94528102D01*
X132755000Y-94728061D01*
X122270548Y-94728061D01*
X122129476Y-94700000D01*
X121930524Y-94700000D01*
X121735394Y-94738814D01*
X121551586Y-94814950D01*
X121386163Y-94925482D01*
X121245482Y-95066163D01*
X121134950Y-95231586D01*
X121058814Y-95415394D01*
X121020000Y-95610524D01*
X119735000Y-95610524D01*
X119735000Y-95418061D01*
X119695226Y-95218102D01*
X119617205Y-95029744D01*
X119503937Y-94860226D01*
X119359774Y-94716063D01*
X119190256Y-94602795D01*
X119001898Y-94524774D01*
X118801939Y-94485000D01*
X118598061Y-94485000D01*
X118398102Y-94524774D01*
X118209744Y-94602795D01*
X118040226Y-94716063D01*
X117896063Y-94860226D01*
X117782795Y-95029744D01*
X117704774Y-95218102D01*
X117665000Y-95418061D01*
X116356823Y-95418061D01*
X116521898Y-95385226D01*
X116710256Y-95307205D01*
X116879774Y-95193937D01*
X117023937Y-95049774D01*
X117137205Y-94880256D01*
X117215226Y-94691898D01*
X117255000Y-94491939D01*
X117255000Y-94288061D01*
X117215226Y-94088102D01*
X117137205Y-93899744D01*
X117023937Y-93730226D01*
X116879774Y-93586063D01*
X116710256Y-93472795D01*
X116521898Y-93394774D01*
X116321939Y-93355000D01*
X116118061Y-93355000D01*
X115918102Y-93394774D01*
X115729744Y-93472795D01*
X115560226Y-93586063D01*
X115416063Y-93730226D01*
X115302795Y-93899744D01*
X115224774Y-94088102D01*
X115185000Y-94288061D01*
X101410000Y-94288061D01*
X101410000Y-91358061D01*
X117025000Y-91358061D01*
X117025000Y-91561939D01*
X117064774Y-91761898D01*
X117142795Y-91950256D01*
X117256063Y-92119774D01*
X117331289Y-92195000D01*
X117276063Y-92250226D01*
X117162795Y-92419744D01*
X117084774Y-92608102D01*
X117045000Y-92808061D01*
X117045000Y-93011939D01*
X117084774Y-93211898D01*
X117162795Y-93400256D01*
X117276063Y-93569774D01*
X117420226Y-93713937D01*
X117589744Y-93827205D01*
X117778102Y-93905226D01*
X117978061Y-93945000D01*
X118181939Y-93945000D01*
X118381898Y-93905226D01*
X118570256Y-93827205D01*
X118739774Y-93713937D01*
X118883937Y-93569774D01*
X118997205Y-93400256D01*
X119075226Y-93211898D01*
X119115000Y-93011939D01*
X119115000Y-92808061D01*
X119075226Y-92608102D01*
X118997205Y-92419744D01*
X118883937Y-92250226D01*
X118808711Y-92175000D01*
X118863937Y-92119774D01*
X118931899Y-92018061D01*
X122575000Y-92018061D01*
X122575000Y-92221939D01*
X122614774Y-92421898D01*
X122692795Y-92610256D01*
X122806063Y-92779774D01*
X122950226Y-92923937D01*
X123119744Y-93037205D01*
X123308102Y-93115226D01*
X123508061Y-93155000D01*
X123711939Y-93155000D01*
X123911898Y-93115226D01*
X124100256Y-93037205D01*
X124269774Y-92923937D01*
X124413937Y-92779774D01*
X124527205Y-92610256D01*
X124605226Y-92421898D01*
X124645000Y-92221939D01*
X124645000Y-92018061D01*
X124605226Y-91818102D01*
X124527205Y-91629744D01*
X124452582Y-91518061D01*
X133915000Y-91518061D01*
X133915000Y-91721939D01*
X133954774Y-91921898D01*
X134032795Y-92110256D01*
X134146063Y-92279774D01*
X134290226Y-92423937D01*
X134459744Y-92537205D01*
X134647572Y-92615006D01*
X134679774Y-92776898D01*
X134757795Y-92965256D01*
X134871063Y-93134774D01*
X135015226Y-93278937D01*
X135184744Y-93392205D01*
X135373102Y-93470226D01*
X135573061Y-93510000D01*
X135776939Y-93510000D01*
X135976898Y-93470226D01*
X136165256Y-93392205D01*
X136334774Y-93278937D01*
X136478937Y-93134774D01*
X136592205Y-92965256D01*
X136670226Y-92776898D01*
X136710000Y-92576939D01*
X136710000Y-92373061D01*
X136670226Y-92173102D01*
X136593579Y-91988061D01*
X140255000Y-91988061D01*
X140255000Y-92191939D01*
X140294774Y-92391898D01*
X140372795Y-92580256D01*
X140486063Y-92749774D01*
X140630226Y-92893937D01*
X140799744Y-93007205D01*
X140988102Y-93085226D01*
X141188061Y-93125000D01*
X141391939Y-93125000D01*
X141591898Y-93085226D01*
X141780256Y-93007205D01*
X141949774Y-92893937D01*
X142093937Y-92749774D01*
X142207205Y-92580256D01*
X142285226Y-92391898D01*
X142325000Y-92191939D01*
X142325000Y-91988061D01*
X142285226Y-91788102D01*
X142207205Y-91599744D01*
X142093937Y-91430226D01*
X141949774Y-91286063D01*
X141780256Y-91172795D01*
X141591898Y-91094774D01*
X141391939Y-91055000D01*
X141188061Y-91055000D01*
X140988102Y-91094774D01*
X140799744Y-91172795D01*
X140630226Y-91286063D01*
X140486063Y-91430226D01*
X140372795Y-91599744D01*
X140294774Y-91788102D01*
X140255000Y-91988061D01*
X136593579Y-91988061D01*
X136592205Y-91984744D01*
X136478937Y-91815226D01*
X136334774Y-91671063D01*
X136279662Y-91634238D01*
X136429774Y-91533937D01*
X136573937Y-91389774D01*
X136687205Y-91220256D01*
X136765226Y-91031898D01*
X136805000Y-90831939D01*
X136805000Y-90628061D01*
X136787099Y-90538061D01*
X166045000Y-90538061D01*
X166045000Y-90741939D01*
X166084774Y-90941898D01*
X166162795Y-91130256D01*
X166276063Y-91299774D01*
X166420226Y-91443937D01*
X166589744Y-91557205D01*
X166778102Y-91635226D01*
X166978061Y-91675000D01*
X167181939Y-91675000D01*
X167381898Y-91635226D01*
X167570256Y-91557205D01*
X167739774Y-91443937D01*
X167883937Y-91299774D01*
X167997205Y-91130256D01*
X168075226Y-90941898D01*
X168115000Y-90741939D01*
X168115000Y-90538061D01*
X168075226Y-90338102D01*
X167997205Y-90149744D01*
X167883937Y-89980226D01*
X167739774Y-89836063D01*
X167570256Y-89722795D01*
X167381898Y-89644774D01*
X167181939Y-89605000D01*
X166978061Y-89605000D01*
X166778102Y-89644774D01*
X166589744Y-89722795D01*
X166420226Y-89836063D01*
X166276063Y-89980226D01*
X166162795Y-90149744D01*
X166084774Y-90338102D01*
X166045000Y-90538061D01*
X136787099Y-90538061D01*
X136765226Y-90428102D01*
X136687205Y-90239744D01*
X136573937Y-90070226D01*
X136429774Y-89926063D01*
X136260256Y-89812795D01*
X136071898Y-89734774D01*
X135871939Y-89695000D01*
X135668061Y-89695000D01*
X135468102Y-89734774D01*
X135279744Y-89812795D01*
X135110226Y-89926063D01*
X134966063Y-90070226D01*
X134852795Y-90239744D01*
X134774774Y-90428102D01*
X134739261Y-90606642D01*
X134648102Y-90624774D01*
X134459744Y-90702795D01*
X134290226Y-90816063D01*
X134146063Y-90960226D01*
X134032795Y-91129744D01*
X133954774Y-91318102D01*
X133915000Y-91518061D01*
X124452582Y-91518061D01*
X124413937Y-91460226D01*
X124269774Y-91316063D01*
X124100256Y-91202795D01*
X123911898Y-91124774D01*
X123711939Y-91085000D01*
X123508061Y-91085000D01*
X123308102Y-91124774D01*
X123119744Y-91202795D01*
X122950226Y-91316063D01*
X122806063Y-91460226D01*
X122692795Y-91629744D01*
X122614774Y-91818102D01*
X122575000Y-92018061D01*
X118931899Y-92018061D01*
X118977205Y-91950256D01*
X119055226Y-91761898D01*
X119095000Y-91561939D01*
X119095000Y-91358061D01*
X119055226Y-91158102D01*
X118977205Y-90969744D01*
X118863937Y-90800226D01*
X118719774Y-90656063D01*
X118550256Y-90542795D01*
X118361898Y-90464774D01*
X118161939Y-90425000D01*
X117958061Y-90425000D01*
X117758102Y-90464774D01*
X117569744Y-90542795D01*
X117400226Y-90656063D01*
X117256063Y-90800226D01*
X117142795Y-90969744D01*
X117064774Y-91158102D01*
X117025000Y-91358061D01*
X101410000Y-91358061D01*
X101410000Y-89363137D01*
X101715000Y-89363137D01*
X101715000Y-89576863D01*
X101756696Y-89786483D01*
X101838485Y-89983940D01*
X101957225Y-90161647D01*
X102108353Y-90312775D01*
X102286060Y-90431515D01*
X102483517Y-90513304D01*
X102693137Y-90555000D01*
X102906863Y-90555000D01*
X103116483Y-90513304D01*
X103313940Y-90431515D01*
X103491647Y-90312775D01*
X103642775Y-90161647D01*
X103665216Y-90128061D01*
X104705000Y-90128061D01*
X104705000Y-90331939D01*
X104744774Y-90531898D01*
X104822795Y-90720256D01*
X104936063Y-90889774D01*
X105080226Y-91033937D01*
X105249744Y-91147205D01*
X105438102Y-91225226D01*
X105638061Y-91265000D01*
X105841939Y-91265000D01*
X106041898Y-91225226D01*
X106230256Y-91147205D01*
X106399774Y-91033937D01*
X106543937Y-90889774D01*
X106657205Y-90720256D01*
X106735226Y-90531898D01*
X106775000Y-90331939D01*
X106775000Y-90128061D01*
X106735226Y-89928102D01*
X106657205Y-89739744D01*
X106543937Y-89570226D01*
X106399774Y-89426063D01*
X106230256Y-89312795D01*
X106041898Y-89234774D01*
X105841939Y-89195000D01*
X105638061Y-89195000D01*
X105438102Y-89234774D01*
X105249744Y-89312795D01*
X105080226Y-89426063D01*
X104936063Y-89570226D01*
X104822795Y-89739744D01*
X104744774Y-89928102D01*
X104705000Y-90128061D01*
X103665216Y-90128061D01*
X103761515Y-89983940D01*
X103843304Y-89786483D01*
X103885000Y-89576863D01*
X103885000Y-89363137D01*
X103843304Y-89153517D01*
X103761515Y-88956060D01*
X103642775Y-88778353D01*
X103494946Y-88630524D01*
X109990000Y-88630524D01*
X109990000Y-88829476D01*
X110028814Y-89024606D01*
X110104950Y-89208414D01*
X110215482Y-89373837D01*
X110356163Y-89514518D01*
X110521586Y-89625050D01*
X110705394Y-89701186D01*
X110900524Y-89740000D01*
X111099476Y-89740000D01*
X111294606Y-89701186D01*
X111478414Y-89625050D01*
X111643837Y-89514518D01*
X111784518Y-89373837D01*
X111895050Y-89208414D01*
X111971186Y-89024606D01*
X112010000Y-88829476D01*
X112010000Y-88630524D01*
X111971186Y-88435394D01*
X111895050Y-88251586D01*
X111784518Y-88086163D01*
X111643837Y-87945482D01*
X111478414Y-87834950D01*
X111294606Y-87758814D01*
X111099476Y-87720000D01*
X110900524Y-87720000D01*
X110705394Y-87758814D01*
X110521586Y-87834950D01*
X110356163Y-87945482D01*
X110215482Y-88086163D01*
X110104950Y-88251586D01*
X110028814Y-88435394D01*
X109990000Y-88630524D01*
X103494946Y-88630524D01*
X103491647Y-88627225D01*
X103313940Y-88508485D01*
X103116483Y-88426696D01*
X102906863Y-88385000D01*
X102693137Y-88385000D01*
X102483517Y-88426696D01*
X102286060Y-88508485D01*
X102108353Y-88627225D01*
X101957225Y-88778353D01*
X101838485Y-88956060D01*
X101756696Y-89153517D01*
X101715000Y-89363137D01*
X101410000Y-89363137D01*
X101410000Y-86363137D01*
X101715000Y-86363137D01*
X101715000Y-86576863D01*
X101756696Y-86786483D01*
X101838485Y-86983940D01*
X101957225Y-87161647D01*
X102108353Y-87312775D01*
X102286060Y-87431515D01*
X102483517Y-87513304D01*
X102693137Y-87555000D01*
X102906863Y-87555000D01*
X103116483Y-87513304D01*
X103313940Y-87431515D01*
X103491647Y-87312775D01*
X103642775Y-87161647D01*
X103761515Y-86983940D01*
X103843304Y-86786483D01*
X103885000Y-86576863D01*
X103885000Y-86363137D01*
X103843304Y-86153517D01*
X103761515Y-85956060D01*
X103642775Y-85778353D01*
X103491647Y-85627225D01*
X103313940Y-85508485D01*
X103116483Y-85426696D01*
X102906863Y-85385000D01*
X102693137Y-85385000D01*
X102483517Y-85426696D01*
X102286060Y-85508485D01*
X102108353Y-85627225D01*
X101957225Y-85778353D01*
X101838485Y-85956060D01*
X101756696Y-86153517D01*
X101715000Y-86363137D01*
X101410000Y-86363137D01*
X101410000Y-76713650D01*
X101504650Y-77189486D01*
X101876660Y-78087599D01*
X102416735Y-78895879D01*
X103104121Y-79583265D01*
X103912401Y-80123340D01*
X104810514Y-80495350D01*
X105763945Y-80685000D01*
X106736055Y-80685000D01*
X107474764Y-80538061D01*
X138155000Y-80538061D01*
X138155000Y-80741939D01*
X138194774Y-80941898D01*
X138272795Y-81130256D01*
X138386063Y-81299774D01*
X138530226Y-81443937D01*
X138699744Y-81557205D01*
X138888102Y-81635226D01*
X139088061Y-81675000D01*
X139291939Y-81675000D01*
X139491898Y-81635226D01*
X139680256Y-81557205D01*
X139849774Y-81443937D01*
X139993937Y-81299774D01*
X140107205Y-81130256D01*
X140185226Y-80941898D01*
X140225000Y-80741939D01*
X140225000Y-80538061D01*
X140185226Y-80338102D01*
X140107205Y-80149744D01*
X139993937Y-79980226D01*
X139849774Y-79836063D01*
X139680256Y-79722795D01*
X139491898Y-79644774D01*
X139291939Y-79605000D01*
X139088061Y-79605000D01*
X138888102Y-79644774D01*
X138699744Y-79722795D01*
X138530226Y-79836063D01*
X138386063Y-79980226D01*
X138272795Y-80149744D01*
X138194774Y-80338102D01*
X138155000Y-80538061D01*
X107474764Y-80538061D01*
X107689486Y-80495350D01*
X108587599Y-80123340D01*
X109395879Y-79583265D01*
X110083265Y-78895879D01*
X110623340Y-78087599D01*
X110995350Y-77189486D01*
X111185000Y-76236055D01*
X111185000Y-75496890D01*
X111340048Y-75496890D01*
X111340048Y-75743110D01*
X111388083Y-75984598D01*
X111482307Y-76212074D01*
X111619099Y-76416798D01*
X111793202Y-76590901D01*
X111997926Y-76727693D01*
X112225402Y-76821917D01*
X112466890Y-76869952D01*
X112713110Y-76869952D01*
X112954598Y-76821917D01*
X113182074Y-76727693D01*
X113386798Y-76590901D01*
X113560901Y-76416798D01*
X113697693Y-76212074D01*
X113791917Y-75984598D01*
X113806871Y-75909419D01*
X115725000Y-75909419D01*
X115725000Y-76290581D01*
X115799361Y-76664419D01*
X115945225Y-77016566D01*
X116156987Y-77333491D01*
X116426509Y-77603013D01*
X116743434Y-77814775D01*
X117095581Y-77960639D01*
X117469419Y-78035000D01*
X117850581Y-78035000D01*
X118224419Y-77960639D01*
X118576566Y-77814775D01*
X118893491Y-77603013D01*
X119163013Y-77333491D01*
X119374775Y-77016566D01*
X119520639Y-76664419D01*
X119595000Y-76290581D01*
X119595000Y-75909419D01*
X120805000Y-75909419D01*
X120805000Y-76290581D01*
X120879361Y-76664419D01*
X121025225Y-77016566D01*
X121236987Y-77333491D01*
X121506509Y-77603013D01*
X121823434Y-77814775D01*
X122175581Y-77960639D01*
X122549419Y-78035000D01*
X122930581Y-78035000D01*
X123304419Y-77960639D01*
X123656566Y-77814775D01*
X123973491Y-77603013D01*
X124243013Y-77333491D01*
X124454775Y-77016566D01*
X124600639Y-76664419D01*
X124675000Y-76290581D01*
X124675000Y-75909419D01*
X125885000Y-75909419D01*
X125885000Y-76290581D01*
X125959361Y-76664419D01*
X126105225Y-77016566D01*
X126316987Y-77333491D01*
X126586509Y-77603013D01*
X126903434Y-77814775D01*
X127255581Y-77960639D01*
X127629419Y-78035000D01*
X128010581Y-78035000D01*
X128384419Y-77960639D01*
X128736566Y-77814775D01*
X129053491Y-77603013D01*
X129256504Y-77400000D01*
X130961928Y-77400000D01*
X130974188Y-77524482D01*
X131010498Y-77644180D01*
X131069463Y-77754494D01*
X131148815Y-77851185D01*
X131245506Y-77930537D01*
X131355820Y-77989502D01*
X131475518Y-78025812D01*
X131600000Y-78038072D01*
X132614250Y-78035000D01*
X132773000Y-77876250D01*
X132773000Y-76227000D01*
X133027000Y-76227000D01*
X133027000Y-77876250D01*
X133185750Y-78035000D01*
X134200000Y-78038072D01*
X134324482Y-78025812D01*
X134444180Y-77989502D01*
X134554494Y-77930537D01*
X134651185Y-77851185D01*
X134730537Y-77754494D01*
X134789502Y-77644180D01*
X134825812Y-77524482D01*
X134838072Y-77400000D01*
X134835000Y-76385750D01*
X134676250Y-76227000D01*
X133027000Y-76227000D01*
X132773000Y-76227000D01*
X131123750Y-76227000D01*
X130965000Y-76385750D01*
X130961928Y-77400000D01*
X129256504Y-77400000D01*
X129323013Y-77333491D01*
X129534775Y-77016566D01*
X129680639Y-76664419D01*
X129755000Y-76290581D01*
X129755000Y-75909419D01*
X129680639Y-75535581D01*
X129534775Y-75183434D01*
X129323013Y-74866509D01*
X129256504Y-74800000D01*
X130961928Y-74800000D01*
X130965000Y-75814250D01*
X131123750Y-75973000D01*
X132773000Y-75973000D01*
X132773000Y-74323750D01*
X133027000Y-74323750D01*
X133027000Y-75973000D01*
X134676250Y-75973000D01*
X134835000Y-75814250D01*
X134837653Y-74938061D01*
X140225000Y-74938061D01*
X140225000Y-75141939D01*
X140264774Y-75341898D01*
X140342795Y-75530256D01*
X140456063Y-75699774D01*
X140600226Y-75843937D01*
X140769744Y-75957205D01*
X140958102Y-76035226D01*
X141158061Y-76075000D01*
X141361939Y-76075000D01*
X141561898Y-76035226D01*
X141750256Y-75957205D01*
X141919774Y-75843937D01*
X142063937Y-75699774D01*
X142177205Y-75530256D01*
X142255226Y-75341898D01*
X142295000Y-75141939D01*
X142295000Y-74958061D01*
X142735000Y-74958061D01*
X142735000Y-75161939D01*
X142774774Y-75361898D01*
X142852795Y-75550256D01*
X142966063Y-75719774D01*
X143110226Y-75863937D01*
X143279744Y-75977205D01*
X143468102Y-76055226D01*
X143668061Y-76095000D01*
X143871939Y-76095000D01*
X144071898Y-76055226D01*
X144260256Y-75977205D01*
X144415000Y-75873809D01*
X144569744Y-75977205D01*
X144758102Y-76055226D01*
X144958061Y-76095000D01*
X145161939Y-76095000D01*
X145361898Y-76055226D01*
X145550256Y-75977205D01*
X145719774Y-75863937D01*
X145863937Y-75719774D01*
X145977205Y-75550256D01*
X146055226Y-75361898D01*
X146095000Y-75161939D01*
X146095000Y-74958061D01*
X146055226Y-74758102D01*
X145977205Y-74569744D01*
X145863937Y-74400226D01*
X145719774Y-74256063D01*
X145550256Y-74142795D01*
X145361898Y-74064774D01*
X145161939Y-74025000D01*
X144958061Y-74025000D01*
X144758102Y-74064774D01*
X144569744Y-74142795D01*
X144415000Y-74246191D01*
X144260256Y-74142795D01*
X144071898Y-74064774D01*
X143871939Y-74025000D01*
X143668061Y-74025000D01*
X143468102Y-74064774D01*
X143279744Y-74142795D01*
X143110226Y-74256063D01*
X142966063Y-74400226D01*
X142852795Y-74569744D01*
X142774774Y-74758102D01*
X142735000Y-74958061D01*
X142295000Y-74958061D01*
X142295000Y-74938061D01*
X142255226Y-74738102D01*
X142177205Y-74549744D01*
X142063937Y-74380226D01*
X141919774Y-74236063D01*
X141750256Y-74122795D01*
X141561898Y-74044774D01*
X141361939Y-74005000D01*
X141158061Y-74005000D01*
X140958102Y-74044774D01*
X140769744Y-74122795D01*
X140600226Y-74236063D01*
X140456063Y-74380226D01*
X140342795Y-74549744D01*
X140264774Y-74738102D01*
X140225000Y-74938061D01*
X134837653Y-74938061D01*
X134838072Y-74800000D01*
X134825812Y-74675518D01*
X134789502Y-74555820D01*
X134730537Y-74445506D01*
X134651185Y-74348815D01*
X134554494Y-74269463D01*
X134444180Y-74210498D01*
X134324482Y-74174188D01*
X134200000Y-74161928D01*
X133185750Y-74165000D01*
X133027000Y-74323750D01*
X132773000Y-74323750D01*
X132614250Y-74165000D01*
X131600000Y-74161928D01*
X131475518Y-74174188D01*
X131355820Y-74210498D01*
X131245506Y-74269463D01*
X131148815Y-74348815D01*
X131069463Y-74445506D01*
X131010498Y-74555820D01*
X130974188Y-74675518D01*
X130961928Y-74800000D01*
X129256504Y-74800000D01*
X129053491Y-74596987D01*
X128736566Y-74385225D01*
X128384419Y-74239361D01*
X128010581Y-74165000D01*
X127629419Y-74165000D01*
X127255581Y-74239361D01*
X126903434Y-74385225D01*
X126586509Y-74596987D01*
X126316987Y-74866509D01*
X126105225Y-75183434D01*
X125959361Y-75535581D01*
X125885000Y-75909419D01*
X124675000Y-75909419D01*
X124600639Y-75535581D01*
X124454775Y-75183434D01*
X124243013Y-74866509D01*
X123973491Y-74596987D01*
X123656566Y-74385225D01*
X123304419Y-74239361D01*
X122930581Y-74165000D01*
X122549419Y-74165000D01*
X122175581Y-74239361D01*
X121823434Y-74385225D01*
X121506509Y-74596987D01*
X121236987Y-74866509D01*
X121025225Y-75183434D01*
X120879361Y-75535581D01*
X120805000Y-75909419D01*
X119595000Y-75909419D01*
X119520639Y-75535581D01*
X119374775Y-75183434D01*
X119163013Y-74866509D01*
X118893491Y-74596987D01*
X118576566Y-74385225D01*
X118224419Y-74239361D01*
X117850581Y-74165000D01*
X117469419Y-74165000D01*
X117095581Y-74239361D01*
X116743434Y-74385225D01*
X116426509Y-74596987D01*
X116156987Y-74866509D01*
X115945225Y-75183434D01*
X115799361Y-75535581D01*
X115725000Y-75909419D01*
X113806871Y-75909419D01*
X113839952Y-75743110D01*
X113839952Y-75496890D01*
X113791917Y-75255402D01*
X113697693Y-75027926D01*
X113560901Y-74823202D01*
X113386798Y-74649099D01*
X113182074Y-74512307D01*
X112954598Y-74418083D01*
X112713110Y-74370048D01*
X112466890Y-74370048D01*
X112225402Y-74418083D01*
X111997926Y-74512307D01*
X111793202Y-74649099D01*
X111619099Y-74823202D01*
X111482307Y-75027926D01*
X111388083Y-75255402D01*
X111340048Y-75496890D01*
X111185000Y-75496890D01*
X111185000Y-75263945D01*
X110995350Y-74310514D01*
X110679533Y-73548061D01*
X154415000Y-73548061D01*
X154415000Y-73751939D01*
X154454774Y-73951898D01*
X154532795Y-74140256D01*
X154646063Y-74309774D01*
X154790226Y-74453937D01*
X154959744Y-74567205D01*
X155148102Y-74645226D01*
X155348061Y-74685000D01*
X155551939Y-74685000D01*
X155687371Y-74658061D01*
X161115000Y-74658061D01*
X161115000Y-74861939D01*
X161154774Y-75061898D01*
X161232795Y-75250256D01*
X161346063Y-75419774D01*
X161490226Y-75563937D01*
X161659744Y-75677205D01*
X161848102Y-75755226D01*
X162048061Y-75795000D01*
X162251939Y-75795000D01*
X162451898Y-75755226D01*
X162640256Y-75677205D01*
X162775422Y-75586890D01*
X163290048Y-75586890D01*
X163290048Y-75833110D01*
X163338083Y-76074598D01*
X163432307Y-76302074D01*
X163569099Y-76506798D01*
X163743202Y-76680901D01*
X163947926Y-76817693D01*
X164175402Y-76911917D01*
X164416890Y-76959952D01*
X164663110Y-76959952D01*
X164904598Y-76911917D01*
X165132074Y-76817693D01*
X165336798Y-76680901D01*
X165510901Y-76506798D01*
X165647693Y-76302074D01*
X165741917Y-76074598D01*
X165789952Y-75833110D01*
X165789952Y-75586890D01*
X165741917Y-75345402D01*
X165647693Y-75117926D01*
X165510901Y-74913202D01*
X165336798Y-74739099D01*
X165132074Y-74602307D01*
X164904598Y-74508083D01*
X164663110Y-74460048D01*
X164416890Y-74460048D01*
X164175402Y-74508083D01*
X163947926Y-74602307D01*
X163743202Y-74739099D01*
X163569099Y-74913202D01*
X163432307Y-75117926D01*
X163338083Y-75345402D01*
X163290048Y-75586890D01*
X162775422Y-75586890D01*
X162809774Y-75563937D01*
X162953937Y-75419774D01*
X163067205Y-75250256D01*
X163145226Y-75061898D01*
X163185000Y-74861939D01*
X163185000Y-74658061D01*
X163145226Y-74458102D01*
X163067205Y-74269744D01*
X162953937Y-74100226D01*
X162809774Y-73956063D01*
X162640256Y-73842795D01*
X162451898Y-73764774D01*
X162251939Y-73725000D01*
X162048061Y-73725000D01*
X161848102Y-73764774D01*
X161659744Y-73842795D01*
X161490226Y-73956063D01*
X161346063Y-74100226D01*
X161232795Y-74269744D01*
X161154774Y-74458102D01*
X161115000Y-74658061D01*
X155687371Y-74658061D01*
X155751898Y-74645226D01*
X155940256Y-74567205D01*
X156109774Y-74453937D01*
X156253937Y-74309774D01*
X156367205Y-74140256D01*
X156445226Y-73951898D01*
X156485000Y-73751939D01*
X156485000Y-73548061D01*
X156445226Y-73348102D01*
X156367205Y-73159744D01*
X156253937Y-72990226D01*
X156109774Y-72846063D01*
X155940256Y-72732795D01*
X155751898Y-72654774D01*
X155551939Y-72615000D01*
X155348061Y-72615000D01*
X155148102Y-72654774D01*
X154959744Y-72732795D01*
X154790226Y-72846063D01*
X154646063Y-72990226D01*
X154532795Y-73159744D01*
X154454774Y-73348102D01*
X154415000Y-73548061D01*
X110679533Y-73548061D01*
X110623340Y-73412401D01*
X110083265Y-72604121D01*
X109395879Y-71916735D01*
X108587599Y-71376660D01*
X107689486Y-71004650D01*
X107213650Y-70910000D01*
X169786350Y-70910000D01*
X169310514Y-71004650D01*
G37*
%TD.AperFunction*%
%TD*%
M02*
