%TF.GenerationSoftware,KiCad,Pcbnew,(5.1.7)-1*%
%TF.CreationDate,2021-01-30T20:15:53-05:00*%
%TF.ProjectId,STM32F4_Eval,53544d33-3246-4345-9f45-76616c2e6b69,rev?*%
%TF.SameCoordinates,Original*%
%TF.FileFunction,Copper,L2,Inr*%
%TF.FilePolarity,Positive*%
%FSLAX46Y46*%
G04 Gerber Fmt 4.6, Leading zero omitted, Abs format (unit mm)*
G04 Created by KiCad (PCBNEW (5.1.7)-1) date 2021-01-30 20:15:53*
%MOMM*%
%LPD*%
G01*
G04 APERTURE LIST*
%TA.AperFunction,ComponentPad*%
%ADD10C,1.450000*%
%TD*%
%TA.AperFunction,ComponentPad*%
%ADD11O,1.900000X1.200000*%
%TD*%
%TA.AperFunction,ComponentPad*%
%ADD12C,8.600000*%
%TD*%
%TA.AperFunction,ComponentPad*%
%ADD13C,0.900000*%
%TD*%
%TA.AperFunction,ComponentPad*%
%ADD14C,2.400000*%
%TD*%
%TA.AperFunction,ComponentPad*%
%ADD15R,2.400000X2.400000*%
%TD*%
%TA.AperFunction,ComponentPad*%
%ADD16R,2.600000X2.600000*%
%TD*%
%TA.AperFunction,ComponentPad*%
%ADD17C,2.600000*%
%TD*%
%TA.AperFunction,ViaPad*%
%ADD18C,0.800000*%
%TD*%
%TA.AperFunction,ViaPad*%
%ADD19C,0.750000*%
%TD*%
%TA.AperFunction,Conductor*%
%ADD20C,0.254000*%
%TD*%
%TA.AperFunction,Conductor*%
%ADD21C,0.100000*%
%TD*%
G04 APERTURE END LIST*
D10*
%TO.N,Net-(J2-Pad6)*%
%TO.C,J2*%
X171787500Y-95000000D03*
X171787500Y-90000000D03*
D11*
X174487500Y-96000000D03*
X174487500Y-89000000D03*
%TD*%
D12*
%TO.N,GND*%
%TO.C,H2*%
X106250000Y-121250000D03*
D13*
X109475000Y-121250000D03*
X108530419Y-123530419D03*
X106250000Y-124475000D03*
X103969581Y-123530419D03*
X103025000Y-121250000D03*
X103969581Y-118969581D03*
X106250000Y-118025000D03*
X108530419Y-118969581D03*
%TD*%
D14*
%TO.N,GND*%
%TO.C,J1*%
X170800000Y-106900000D03*
D15*
%TO.N,+12V*%
X170800000Y-110400000D03*
%TD*%
D13*
%TO.N,GND*%
%TO.C,H3*%
X173280419Y-118969581D03*
X171000000Y-118025000D03*
X168719581Y-118969581D03*
X167775000Y-121250000D03*
X168719581Y-123530419D03*
X171000000Y-124475000D03*
X173280419Y-123530419D03*
X174225000Y-121250000D03*
D12*
X171000000Y-121250000D03*
%TD*%
D13*
%TO.N,GND*%
%TO.C,H1*%
X108530419Y-73469581D03*
X106250000Y-72525000D03*
X103969581Y-73469581D03*
X103025000Y-75750000D03*
X103969581Y-78030419D03*
X106250000Y-78975000D03*
X108530419Y-78030419D03*
X109475000Y-75750000D03*
D12*
X106250000Y-75750000D03*
%TD*%
%TO.N,GND*%
%TO.C,H4*%
X170750000Y-75750000D03*
D13*
X173975000Y-75750000D03*
X173030419Y-78030419D03*
X170750000Y-78975000D03*
X168469581Y-78030419D03*
X167525000Y-75750000D03*
X168469581Y-73469581D03*
X170750000Y-72525000D03*
X173030419Y-73469581D03*
%TD*%
D16*
%TO.N,+3V3*%
%TO.C,J4*%
X132900000Y-76100000D03*
D17*
%TO.N,IMU_I2C_SCL*%
X127820000Y-76100000D03*
%TO.N,IMU_I2C_SDA*%
X122740000Y-76100000D03*
%TO.N,GND*%
X117660000Y-76100000D03*
%TD*%
%TO.N,GND*%
%TO.C,J5*%
X132840000Y-120800000D03*
%TO.N,UART3_RX*%
X127760000Y-120800000D03*
%TO.N,UART3_TX*%
X122680000Y-120800000D03*
D16*
%TO.N,+3V3*%
X117600000Y-120800000D03*
%TD*%
D18*
%TO.N,+3V3*%
X175090000Y-100130000D03*
X105740000Y-85740000D03*
X133920000Y-103530000D03*
X123010000Y-89700000D03*
X127750000Y-89710000D03*
X120800000Y-91370000D03*
X120810000Y-92970000D03*
X124140000Y-107230000D03*
X130930000Y-106440000D03*
X143990000Y-95160000D03*
X139590000Y-96190000D03*
X115250000Y-103300000D03*
X115730000Y-104130000D03*
X151430000Y-115660000D03*
X151430000Y-117180000D03*
X148100000Y-117150000D03*
X148090000Y-115620000D03*
X149120000Y-118410000D03*
X152510000Y-120090000D03*
X152500000Y-118080000D03*
X148640000Y-119160000D03*
X157590000Y-114160000D03*
X157710000Y-115050000D03*
X121770000Y-91410000D03*
D19*
X132550000Y-94020000D03*
D18*
X119800000Y-93990000D03*
X146340000Y-75040000D03*
%TO.N,GND*%
X155450000Y-73650000D03*
X175090000Y-101740000D03*
X133790000Y-94830000D03*
X136100000Y-95770000D03*
X105740000Y-90230000D03*
X118700000Y-95520000D03*
X131840000Y-106990000D03*
X132580000Y-105720000D03*
X131870000Y-108420000D03*
X118060000Y-91460000D03*
X123610000Y-92120000D03*
X118080000Y-92910000D03*
X121800000Y-107210000D03*
X138880000Y-93480000D03*
X138810000Y-94320000D03*
X141940000Y-96200000D03*
X140680000Y-106870000D03*
X118550000Y-100220000D03*
X139210000Y-109210000D03*
X170600000Y-91120000D03*
X170350000Y-90230000D03*
X169670000Y-91140000D03*
X169440000Y-90240000D03*
X150200000Y-122510000D03*
X149290000Y-122500000D03*
X152480000Y-123040000D03*
X153840000Y-122330000D03*
X161940000Y-110120000D03*
X161940000Y-111550000D03*
X166610000Y-107260000D03*
X141260000Y-75040000D03*
X167080000Y-90640000D03*
X113710000Y-101130000D03*
X116860000Y-96510000D03*
X112590000Y-98970000D03*
X116220000Y-94390000D03*
D19*
X116410000Y-100790000D03*
X142800000Y-96700000D03*
D18*
X143770000Y-75060000D03*
X145060000Y-75060000D03*
X161400000Y-114250000D03*
X161370000Y-115120000D03*
X154190000Y-109840000D03*
%TO.N,LED_STATUS*%
X162150000Y-74760000D03*
X122340000Y-103340000D03*
%TO.N,NRST*%
X127875000Y-96975000D03*
X135675000Y-92475000D03*
X139190000Y-80640000D03*
D19*
%TO.N,BOOT0*%
X122030000Y-95710000D03*
X111000000Y-88730000D03*
D18*
%TO.N,BUCK_EN*%
X157500000Y-109920000D03*
X154220000Y-113580000D03*
%TO.N,IMU_INT2*%
X143350000Y-98740000D03*
X147430000Y-94190000D03*
%TO.N,IMU_INT1*%
X136163663Y-99366876D03*
X138770000Y-96640000D03*
%TO.N,IMU_CS*%
X135320000Y-98830000D03*
X141290000Y-92090000D03*
%TO.N,IMU_I2C_SCL*%
X125600000Y-95890000D03*
X135770000Y-90730000D03*
%TO.N,IMU_I2C_SDA*%
X124730000Y-96700000D03*
X134950000Y-91620000D03*
%TD*%
D20*
%TO.N,GND*%
X168915062Y-71143107D02*
X168051560Y-71589606D01*
X167938946Y-71664851D01*
X167446787Y-72267182D01*
X170750000Y-75570395D01*
X170764143Y-75556253D01*
X170943748Y-75735858D01*
X170929605Y-75750000D01*
X174232818Y-79053213D01*
X174835149Y-78561054D01*
X175305063Y-77710067D01*
X175595742Y-76796909D01*
X175657713Y-88075482D01*
X175526949Y-87968167D01*
X175312401Y-87853489D01*
X175079602Y-87782870D01*
X174898165Y-87765000D01*
X174076835Y-87765000D01*
X173895398Y-87782870D01*
X173662599Y-87853489D01*
X173448051Y-87968167D01*
X173259998Y-88122498D01*
X173105667Y-88310551D01*
X172990989Y-88525099D01*
X172920370Y-88757898D01*
X172896525Y-89000000D01*
X172920370Y-89242102D01*
X172923383Y-89252035D01*
X172843881Y-89133051D01*
X172654449Y-88943619D01*
X172431701Y-88794784D01*
X172184197Y-88692264D01*
X171921448Y-88640000D01*
X171653552Y-88640000D01*
X171390803Y-88692264D01*
X171143299Y-88794784D01*
X170920551Y-88943619D01*
X170731119Y-89133051D01*
X170582284Y-89355799D01*
X170479764Y-89603303D01*
X170427500Y-89866052D01*
X170427500Y-90133948D01*
X170479764Y-90396697D01*
X170582284Y-90644201D01*
X170731119Y-90866949D01*
X170920551Y-91056381D01*
X171143299Y-91205216D01*
X171390803Y-91307736D01*
X171653552Y-91360000D01*
X171921448Y-91360000D01*
X172184197Y-91307736D01*
X172431701Y-91205216D01*
X172654449Y-91056381D01*
X172843881Y-90866949D01*
X172992716Y-90644201D01*
X173095236Y-90396697D01*
X173147500Y-90133948D01*
X173147500Y-89866052D01*
X173114516Y-89700232D01*
X173259998Y-89877502D01*
X173448051Y-90031833D01*
X173662599Y-90146511D01*
X173895398Y-90217130D01*
X174076835Y-90235000D01*
X174898165Y-90235000D01*
X175079602Y-90217130D01*
X175312401Y-90146511D01*
X175526949Y-90031833D01*
X175667827Y-89916218D01*
X175696349Y-95107190D01*
X175526949Y-94968167D01*
X175312401Y-94853489D01*
X175079602Y-94782870D01*
X174898165Y-94765000D01*
X174076835Y-94765000D01*
X173895398Y-94782870D01*
X173662599Y-94853489D01*
X173448051Y-94968167D01*
X173259998Y-95122498D01*
X173114516Y-95299768D01*
X173147500Y-95133948D01*
X173147500Y-94866052D01*
X173095236Y-94603303D01*
X172992716Y-94355799D01*
X172843881Y-94133051D01*
X172654449Y-93943619D01*
X172431701Y-93794784D01*
X172184197Y-93692264D01*
X171921448Y-93640000D01*
X171653552Y-93640000D01*
X171390803Y-93692264D01*
X171143299Y-93794784D01*
X170920551Y-93943619D01*
X170731119Y-94133051D01*
X170582284Y-94355799D01*
X170479764Y-94603303D01*
X170427500Y-94866052D01*
X170427500Y-95133948D01*
X170479764Y-95396697D01*
X170582284Y-95644201D01*
X170731119Y-95866949D01*
X170920551Y-96056381D01*
X171143299Y-96205216D01*
X171390803Y-96307736D01*
X171653552Y-96360000D01*
X171921448Y-96360000D01*
X172184197Y-96307736D01*
X172431701Y-96205216D01*
X172654449Y-96056381D01*
X172843881Y-95866949D01*
X172923383Y-95747965D01*
X172920370Y-95757898D01*
X172896525Y-96000000D01*
X172920370Y-96242102D01*
X172990989Y-96474901D01*
X173105667Y-96689449D01*
X173259998Y-96877502D01*
X173448051Y-97031833D01*
X173662599Y-97146511D01*
X173895398Y-97217130D01*
X174076835Y-97235000D01*
X174898165Y-97235000D01*
X175079602Y-97217130D01*
X175312401Y-97146511D01*
X175526949Y-97031833D01*
X175706116Y-96884795D01*
X175719418Y-99305780D01*
X175580256Y-99212795D01*
X175391898Y-99134774D01*
X175191939Y-99095000D01*
X174988061Y-99095000D01*
X174788102Y-99134774D01*
X174599744Y-99212795D01*
X174430226Y-99326063D01*
X174286063Y-99470226D01*
X174172795Y-99639744D01*
X174094774Y-99828102D01*
X174055000Y-100028061D01*
X174055000Y-100231939D01*
X174094774Y-100431898D01*
X174172795Y-100620256D01*
X174286063Y-100789774D01*
X174430226Y-100933937D01*
X174599744Y-101047205D01*
X174788102Y-101125226D01*
X174988061Y-101165000D01*
X175191939Y-101165000D01*
X175391898Y-101125226D01*
X175580256Y-101047205D01*
X175728442Y-100948190D01*
X175834239Y-120203106D01*
X175606893Y-119415062D01*
X175160394Y-118551560D01*
X175085149Y-118438946D01*
X174482818Y-117946787D01*
X171179605Y-121250000D01*
X171193748Y-121264143D01*
X171014143Y-121443748D01*
X171000000Y-121429605D01*
X167696787Y-124732818D01*
X168188946Y-125335149D01*
X169039933Y-125805063D01*
X169935051Y-126090000D01*
X107276924Y-126090000D01*
X108084938Y-125856893D01*
X108948440Y-125410394D01*
X109061054Y-125335149D01*
X109553213Y-124732818D01*
X106250000Y-121429605D01*
X106235858Y-121443748D01*
X106056253Y-121264143D01*
X106070395Y-121250000D01*
X106429605Y-121250000D01*
X109732818Y-124553213D01*
X110335149Y-124061054D01*
X110805063Y-123210067D01*
X111099929Y-122283757D01*
X111208414Y-121317719D01*
X111126351Y-120349079D01*
X110881398Y-119500000D01*
X115661928Y-119500000D01*
X115661928Y-122100000D01*
X115674188Y-122224482D01*
X115710498Y-122344180D01*
X115769463Y-122454494D01*
X115848815Y-122551185D01*
X115945506Y-122630537D01*
X116055820Y-122689502D01*
X116175518Y-122725812D01*
X116300000Y-122738072D01*
X118900000Y-122738072D01*
X119024482Y-122725812D01*
X119144180Y-122689502D01*
X119254494Y-122630537D01*
X119351185Y-122551185D01*
X119430537Y-122454494D01*
X119489502Y-122344180D01*
X119525812Y-122224482D01*
X119538072Y-122100000D01*
X119538072Y-120609419D01*
X120745000Y-120609419D01*
X120745000Y-120990581D01*
X120819361Y-121364419D01*
X120965225Y-121716566D01*
X121176987Y-122033491D01*
X121446509Y-122303013D01*
X121763434Y-122514775D01*
X122115581Y-122660639D01*
X122489419Y-122735000D01*
X122870581Y-122735000D01*
X123244419Y-122660639D01*
X123596566Y-122514775D01*
X123913491Y-122303013D01*
X124183013Y-122033491D01*
X124394775Y-121716566D01*
X124540639Y-121364419D01*
X124615000Y-120990581D01*
X124615000Y-120609419D01*
X125825000Y-120609419D01*
X125825000Y-120990581D01*
X125899361Y-121364419D01*
X126045225Y-121716566D01*
X126256987Y-122033491D01*
X126526509Y-122303013D01*
X126843434Y-122514775D01*
X127195581Y-122660639D01*
X127569419Y-122735000D01*
X127950581Y-122735000D01*
X128324419Y-122660639D01*
X128676566Y-122514775D01*
X128993491Y-122303013D01*
X129147280Y-122149224D01*
X131670381Y-122149224D01*
X131802317Y-122444312D01*
X132143045Y-122615159D01*
X132510557Y-122716250D01*
X132890729Y-122743701D01*
X132993290Y-122730890D01*
X163060048Y-122730890D01*
X163060048Y-122977110D01*
X163108083Y-123218598D01*
X163202307Y-123446074D01*
X163339099Y-123650798D01*
X163513202Y-123824901D01*
X163717926Y-123961693D01*
X163945402Y-124055917D01*
X164186890Y-124103952D01*
X164433110Y-124103952D01*
X164674598Y-124055917D01*
X164902074Y-123961693D01*
X165106798Y-123824901D01*
X165280901Y-123650798D01*
X165417693Y-123446074D01*
X165511917Y-123218598D01*
X165559952Y-122977110D01*
X165559952Y-122730890D01*
X165511917Y-122489402D01*
X165417693Y-122261926D01*
X165280901Y-122057202D01*
X165106798Y-121883099D01*
X164902074Y-121746307D01*
X164674598Y-121652083D01*
X164433110Y-121604048D01*
X164186890Y-121604048D01*
X163945402Y-121652083D01*
X163717926Y-121746307D01*
X163513202Y-121883099D01*
X163339099Y-122057202D01*
X163202307Y-122261926D01*
X163108083Y-122489402D01*
X163060048Y-122730890D01*
X132993290Y-122730890D01*
X133268951Y-122696457D01*
X133630690Y-122576333D01*
X133877683Y-122444312D01*
X134009619Y-122149224D01*
X132840000Y-120979605D01*
X131670381Y-122149224D01*
X129147280Y-122149224D01*
X129263013Y-122033491D01*
X129474775Y-121716566D01*
X129620639Y-121364419D01*
X129695000Y-120990581D01*
X129695000Y-120850729D01*
X130896299Y-120850729D01*
X130943543Y-121228951D01*
X131063667Y-121590690D01*
X131195688Y-121837683D01*
X131490776Y-121969619D01*
X132660395Y-120800000D01*
X133019605Y-120800000D01*
X134189224Y-121969619D01*
X134484312Y-121837683D01*
X134655159Y-121496955D01*
X134741715Y-121182281D01*
X166041586Y-121182281D01*
X166123649Y-122150921D01*
X166393107Y-123084938D01*
X166839606Y-123948440D01*
X166914851Y-124061054D01*
X167517182Y-124553213D01*
X170820395Y-121250000D01*
X167517182Y-117946787D01*
X166914851Y-118438946D01*
X166444937Y-119289933D01*
X166150071Y-120216243D01*
X166041586Y-121182281D01*
X134741715Y-121182281D01*
X134756250Y-121129443D01*
X134783701Y-120749271D01*
X134736457Y-120371049D01*
X134616333Y-120009310D01*
X134484312Y-119762317D01*
X134189224Y-119630381D01*
X133019605Y-120800000D01*
X132660395Y-120800000D01*
X131490776Y-119630381D01*
X131195688Y-119762317D01*
X131024841Y-120103045D01*
X130923750Y-120470557D01*
X130896299Y-120850729D01*
X129695000Y-120850729D01*
X129695000Y-120609419D01*
X129620639Y-120235581D01*
X129474775Y-119883434D01*
X129263013Y-119566509D01*
X129147280Y-119450776D01*
X131670381Y-119450776D01*
X132840000Y-120620395D01*
X134009619Y-119450776D01*
X133877683Y-119155688D01*
X133536955Y-118984841D01*
X133169443Y-118883750D01*
X132789271Y-118856299D01*
X132411049Y-118903543D01*
X132049310Y-119023667D01*
X131802317Y-119155688D01*
X131670381Y-119450776D01*
X129147280Y-119450776D01*
X128993491Y-119296987D01*
X128676566Y-119085225D01*
X128324419Y-118939361D01*
X127950581Y-118865000D01*
X127569419Y-118865000D01*
X127195581Y-118939361D01*
X126843434Y-119085225D01*
X126526509Y-119296987D01*
X126256987Y-119566509D01*
X126045225Y-119883434D01*
X125899361Y-120235581D01*
X125825000Y-120609419D01*
X124615000Y-120609419D01*
X124540639Y-120235581D01*
X124394775Y-119883434D01*
X124183013Y-119566509D01*
X123913491Y-119296987D01*
X123596566Y-119085225D01*
X123244419Y-118939361D01*
X122870581Y-118865000D01*
X122489419Y-118865000D01*
X122115581Y-118939361D01*
X121763434Y-119085225D01*
X121446509Y-119296987D01*
X121176987Y-119566509D01*
X120965225Y-119883434D01*
X120819361Y-120235581D01*
X120745000Y-120609419D01*
X119538072Y-120609419D01*
X119538072Y-119500000D01*
X119525812Y-119375518D01*
X119489502Y-119255820D01*
X119430537Y-119145506D01*
X119351185Y-119048815D01*
X119254494Y-118969463D01*
X119144180Y-118910498D01*
X119024482Y-118874188D01*
X118900000Y-118861928D01*
X116300000Y-118861928D01*
X116175518Y-118874188D01*
X116055820Y-118910498D01*
X115945506Y-118969463D01*
X115848815Y-119048815D01*
X115769463Y-119145506D01*
X115710498Y-119255820D01*
X115674188Y-119375518D01*
X115661928Y-119500000D01*
X110881398Y-119500000D01*
X110856893Y-119415062D01*
X110410394Y-118551560D01*
X110335149Y-118438946D01*
X109732818Y-117946787D01*
X106429605Y-121250000D01*
X106070395Y-121250000D01*
X102767182Y-117946787D01*
X102164851Y-118438946D01*
X101694937Y-119289933D01*
X101410000Y-120185051D01*
X101410000Y-117767182D01*
X102946787Y-117767182D01*
X106250000Y-121070395D01*
X109553213Y-117767182D01*
X109061054Y-117164851D01*
X108210067Y-116694937D01*
X107283757Y-116400071D01*
X106317719Y-116291586D01*
X105349079Y-116373649D01*
X104415062Y-116643107D01*
X103551560Y-117089606D01*
X103438946Y-117164851D01*
X102946787Y-117767182D01*
X101410000Y-117767182D01*
X101410000Y-115518061D01*
X147055000Y-115518061D01*
X147055000Y-115721939D01*
X147094774Y-115921898D01*
X147172795Y-116110256D01*
X147286063Y-116279774D01*
X147396289Y-116390000D01*
X147296063Y-116490226D01*
X147182795Y-116659744D01*
X147104774Y-116848102D01*
X147065000Y-117048061D01*
X147065000Y-117251939D01*
X147104774Y-117451898D01*
X147182795Y-117640256D01*
X147296063Y-117809774D01*
X147440226Y-117953937D01*
X147609744Y-118067205D01*
X147798102Y-118145226D01*
X147998061Y-118185000D01*
X148109478Y-118185000D01*
X148090048Y-118282682D01*
X147980226Y-118356063D01*
X147836063Y-118500226D01*
X147722795Y-118669744D01*
X147644774Y-118858102D01*
X147605000Y-119058061D01*
X147605000Y-119261939D01*
X147644774Y-119461898D01*
X147722795Y-119650256D01*
X147836063Y-119819774D01*
X147980226Y-119963937D01*
X148149744Y-120077205D01*
X148338102Y-120155226D01*
X148538061Y-120195000D01*
X148741939Y-120195000D01*
X148941898Y-120155226D01*
X149130256Y-120077205D01*
X149299774Y-119963937D01*
X149443937Y-119819774D01*
X149557205Y-119650256D01*
X149635226Y-119461898D01*
X149669952Y-119287318D01*
X149779774Y-119213937D01*
X149923937Y-119069774D01*
X150037205Y-118900256D01*
X150115226Y-118711898D01*
X150155000Y-118511939D01*
X150155000Y-118308061D01*
X150115226Y-118108102D01*
X150037205Y-117919744D01*
X149923937Y-117750226D01*
X149779774Y-117606063D01*
X149610256Y-117492795D01*
X149421898Y-117414774D01*
X149221939Y-117375000D01*
X149110522Y-117375000D01*
X149135000Y-117251939D01*
X149135000Y-117048061D01*
X149095226Y-116848102D01*
X149017205Y-116659744D01*
X148903937Y-116490226D01*
X148793711Y-116380000D01*
X148893937Y-116279774D01*
X149007205Y-116110256D01*
X149085226Y-115921898D01*
X149125000Y-115721939D01*
X149125000Y-115558061D01*
X150395000Y-115558061D01*
X150395000Y-115761939D01*
X150434774Y-115961898D01*
X150512795Y-116150256D01*
X150626063Y-116319774D01*
X150726289Y-116420000D01*
X150626063Y-116520226D01*
X150512795Y-116689744D01*
X150434774Y-116878102D01*
X150395000Y-117078061D01*
X150395000Y-117281939D01*
X150434774Y-117481898D01*
X150512795Y-117670256D01*
X150626063Y-117839774D01*
X150770226Y-117983937D01*
X150939744Y-118097205D01*
X151128102Y-118175226D01*
X151328061Y-118215000D01*
X151471576Y-118215000D01*
X151504774Y-118381898D01*
X151582795Y-118570256D01*
X151696063Y-118739774D01*
X151840226Y-118883937D01*
X152009744Y-118997205D01*
X152198102Y-119075226D01*
X152252240Y-119085995D01*
X152208102Y-119094774D01*
X152019744Y-119172795D01*
X151850226Y-119286063D01*
X151706063Y-119430226D01*
X151592795Y-119599744D01*
X151514774Y-119788102D01*
X151475000Y-119988061D01*
X151475000Y-120191939D01*
X151514774Y-120391898D01*
X151592795Y-120580256D01*
X151706063Y-120749774D01*
X151850226Y-120893937D01*
X152019744Y-121007205D01*
X152208102Y-121085226D01*
X152408061Y-121125000D01*
X152611939Y-121125000D01*
X152811898Y-121085226D01*
X153000256Y-121007205D01*
X153169774Y-120893937D01*
X153313937Y-120749774D01*
X153427205Y-120580256D01*
X153505226Y-120391898D01*
X153545000Y-120191939D01*
X153545000Y-119988061D01*
X153505226Y-119788102D01*
X153427205Y-119599744D01*
X153313937Y-119430226D01*
X153169774Y-119286063D01*
X153000256Y-119172795D01*
X152811898Y-119094774D01*
X152757760Y-119084005D01*
X152801898Y-119075226D01*
X152990256Y-118997205D01*
X153159774Y-118883937D01*
X153303937Y-118739774D01*
X153417205Y-118570256D01*
X153495226Y-118381898D01*
X153535000Y-118181939D01*
X153535000Y-117978061D01*
X153495226Y-117778102D01*
X153490703Y-117767182D01*
X167696787Y-117767182D01*
X171000000Y-121070395D01*
X174303213Y-117767182D01*
X173811054Y-117164851D01*
X172960067Y-116694937D01*
X172033757Y-116400071D01*
X171067719Y-116291586D01*
X170099079Y-116373649D01*
X169165062Y-116643107D01*
X168301560Y-117089606D01*
X168188946Y-117164851D01*
X167696787Y-117767182D01*
X153490703Y-117767182D01*
X153417205Y-117589744D01*
X153303937Y-117420226D01*
X153159774Y-117276063D01*
X152990256Y-117162795D01*
X152801898Y-117084774D01*
X152601939Y-117045000D01*
X152458424Y-117045000D01*
X152425226Y-116878102D01*
X152347205Y-116689744D01*
X152233937Y-116520226D01*
X152133711Y-116420000D01*
X152233937Y-116319774D01*
X152347205Y-116150256D01*
X152425226Y-115961898D01*
X152465000Y-115761939D01*
X152465000Y-115558061D01*
X152425226Y-115358102D01*
X152347205Y-115169744D01*
X152233937Y-115000226D01*
X152089774Y-114856063D01*
X151920256Y-114742795D01*
X151731898Y-114664774D01*
X151531939Y-114625000D01*
X151328061Y-114625000D01*
X151128102Y-114664774D01*
X150939744Y-114742795D01*
X150770226Y-114856063D01*
X150626063Y-115000226D01*
X150512795Y-115169744D01*
X150434774Y-115358102D01*
X150395000Y-115558061D01*
X149125000Y-115558061D01*
X149125000Y-115518061D01*
X149085226Y-115318102D01*
X149007205Y-115129744D01*
X148893937Y-114960226D01*
X148749774Y-114816063D01*
X148580256Y-114702795D01*
X148391898Y-114624774D01*
X148191939Y-114585000D01*
X147988061Y-114585000D01*
X147788102Y-114624774D01*
X147599744Y-114702795D01*
X147430226Y-114816063D01*
X147286063Y-114960226D01*
X147172795Y-115129744D01*
X147094774Y-115318102D01*
X147055000Y-115518061D01*
X101410000Y-115518061D01*
X101410000Y-113478061D01*
X153185000Y-113478061D01*
X153185000Y-113681939D01*
X153224774Y-113881898D01*
X153302795Y-114070256D01*
X153416063Y-114239774D01*
X153560226Y-114383937D01*
X153729744Y-114497205D01*
X153918102Y-114575226D01*
X154118061Y-114615000D01*
X154321939Y-114615000D01*
X154521898Y-114575226D01*
X154710256Y-114497205D01*
X154879774Y-114383937D01*
X155023937Y-114239774D01*
X155137205Y-114070256D01*
X155142256Y-114058061D01*
X156555000Y-114058061D01*
X156555000Y-114261939D01*
X156594774Y-114461898D01*
X156672795Y-114650256D01*
X156723729Y-114726484D01*
X156714774Y-114748102D01*
X156675000Y-114948061D01*
X156675000Y-115151939D01*
X156714774Y-115351898D01*
X156792795Y-115540256D01*
X156906063Y-115709774D01*
X157050226Y-115853937D01*
X157219744Y-115967205D01*
X157408102Y-116045226D01*
X157608061Y-116085000D01*
X157811939Y-116085000D01*
X158011898Y-116045226D01*
X158200256Y-115967205D01*
X158369774Y-115853937D01*
X158513937Y-115709774D01*
X158627205Y-115540256D01*
X158705226Y-115351898D01*
X158745000Y-115151939D01*
X158745000Y-114948061D01*
X158705226Y-114748102D01*
X158627205Y-114559744D01*
X158576271Y-114483516D01*
X158585226Y-114461898D01*
X158625000Y-114261939D01*
X158625000Y-114058061D01*
X158585226Y-113858102D01*
X158507205Y-113669744D01*
X158393937Y-113500226D01*
X158249774Y-113356063D01*
X158080256Y-113242795D01*
X157891898Y-113164774D01*
X157691939Y-113125000D01*
X157488061Y-113125000D01*
X157288102Y-113164774D01*
X157099744Y-113242795D01*
X156930226Y-113356063D01*
X156786063Y-113500226D01*
X156672795Y-113669744D01*
X156594774Y-113858102D01*
X156555000Y-114058061D01*
X155142256Y-114058061D01*
X155215226Y-113881898D01*
X155255000Y-113681939D01*
X155255000Y-113478061D01*
X155215226Y-113278102D01*
X155137205Y-113089744D01*
X155023937Y-112920226D01*
X154879774Y-112776063D01*
X154710256Y-112662795D01*
X154521898Y-112584774D01*
X154321939Y-112545000D01*
X154118061Y-112545000D01*
X153918102Y-112584774D01*
X153729744Y-112662795D01*
X153560226Y-112776063D01*
X153416063Y-112920226D01*
X153302795Y-113089744D01*
X153224774Y-113278102D01*
X153185000Y-113478061D01*
X101410000Y-113478061D01*
X101410000Y-109818061D01*
X156465000Y-109818061D01*
X156465000Y-110021939D01*
X156504774Y-110221898D01*
X156582795Y-110410256D01*
X156696063Y-110579774D01*
X156840226Y-110723937D01*
X157009744Y-110837205D01*
X157198102Y-110915226D01*
X157398061Y-110955000D01*
X157601939Y-110955000D01*
X157801898Y-110915226D01*
X157990256Y-110837205D01*
X158159774Y-110723937D01*
X158303937Y-110579774D01*
X158417205Y-110410256D01*
X158495226Y-110221898D01*
X158535000Y-110021939D01*
X158535000Y-109818061D01*
X158495226Y-109618102D01*
X158417205Y-109429744D01*
X158303937Y-109260226D01*
X158243711Y-109200000D01*
X168961928Y-109200000D01*
X168961928Y-111600000D01*
X168974188Y-111724482D01*
X169010498Y-111844180D01*
X169069463Y-111954494D01*
X169148815Y-112051185D01*
X169245506Y-112130537D01*
X169355820Y-112189502D01*
X169475518Y-112225812D01*
X169600000Y-112238072D01*
X172000000Y-112238072D01*
X172124482Y-112225812D01*
X172244180Y-112189502D01*
X172354494Y-112130537D01*
X172451185Y-112051185D01*
X172530537Y-111954494D01*
X172589502Y-111844180D01*
X172625812Y-111724482D01*
X172638072Y-111600000D01*
X172638072Y-109200000D01*
X172625812Y-109075518D01*
X172589502Y-108955820D01*
X172530537Y-108845506D01*
X172451185Y-108748815D01*
X172354494Y-108669463D01*
X172244180Y-108610498D01*
X172124482Y-108574188D01*
X172000000Y-108561928D01*
X171593097Y-108561928D01*
X171778486Y-108462836D01*
X171898374Y-108177980D01*
X170800000Y-107079605D01*
X169701626Y-108177980D01*
X169821514Y-108462836D01*
X170020912Y-108561928D01*
X169600000Y-108561928D01*
X169475518Y-108574188D01*
X169355820Y-108610498D01*
X169245506Y-108669463D01*
X169148815Y-108748815D01*
X169069463Y-108845506D01*
X169010498Y-108955820D01*
X168974188Y-109075518D01*
X168961928Y-109200000D01*
X158243711Y-109200000D01*
X158159774Y-109116063D01*
X157990256Y-109002795D01*
X157801898Y-108924774D01*
X157601939Y-108885000D01*
X157398061Y-108885000D01*
X157198102Y-108924774D01*
X157009744Y-109002795D01*
X156840226Y-109116063D01*
X156696063Y-109260226D01*
X156582795Y-109429744D01*
X156504774Y-109618102D01*
X156465000Y-109818061D01*
X101410000Y-109818061D01*
X101410000Y-107128061D01*
X123105000Y-107128061D01*
X123105000Y-107331939D01*
X123144774Y-107531898D01*
X123222795Y-107720256D01*
X123336063Y-107889774D01*
X123480226Y-108033937D01*
X123649744Y-108147205D01*
X123838102Y-108225226D01*
X124038061Y-108265000D01*
X124241939Y-108265000D01*
X124441898Y-108225226D01*
X124630256Y-108147205D01*
X124799774Y-108033937D01*
X124943937Y-107889774D01*
X125057205Y-107720256D01*
X125135226Y-107531898D01*
X125175000Y-107331939D01*
X125175000Y-107128061D01*
X125135226Y-106928102D01*
X125057205Y-106739744D01*
X124943937Y-106570226D01*
X124799774Y-106426063D01*
X124668070Y-106338061D01*
X129895000Y-106338061D01*
X129895000Y-106541939D01*
X129934774Y-106741898D01*
X130012795Y-106930256D01*
X130126063Y-107099774D01*
X130270226Y-107243937D01*
X130439744Y-107357205D01*
X130628102Y-107435226D01*
X130828061Y-107475000D01*
X131031939Y-107475000D01*
X131231898Y-107435226D01*
X131420256Y-107357205D01*
X131589774Y-107243937D01*
X131733937Y-107099774D01*
X131830882Y-106954684D01*
X168956933Y-106954684D01*
X169003015Y-107313198D01*
X169118154Y-107655833D01*
X169237164Y-107878486D01*
X169522020Y-107998374D01*
X170620395Y-106900000D01*
X170979605Y-106900000D01*
X172077980Y-107998374D01*
X172362836Y-107878486D01*
X172523699Y-107554790D01*
X172618322Y-107205931D01*
X172643067Y-106845316D01*
X172596985Y-106486802D01*
X172481846Y-106144167D01*
X172362836Y-105921514D01*
X172077980Y-105801626D01*
X170979605Y-106900000D01*
X170620395Y-106900000D01*
X169522020Y-105801626D01*
X169237164Y-105921514D01*
X169076301Y-106245210D01*
X168981678Y-106594069D01*
X168956933Y-106954684D01*
X131830882Y-106954684D01*
X131847205Y-106930256D01*
X131925226Y-106741898D01*
X131965000Y-106541939D01*
X131965000Y-106338061D01*
X131925226Y-106138102D01*
X131847205Y-105949744D01*
X131733937Y-105780226D01*
X131589774Y-105636063D01*
X131568758Y-105622020D01*
X169701626Y-105622020D01*
X170800000Y-106720395D01*
X171898374Y-105622020D01*
X171778486Y-105337164D01*
X171454790Y-105176301D01*
X171105931Y-105081678D01*
X170745316Y-105056933D01*
X170386802Y-105103015D01*
X170044167Y-105218154D01*
X169821514Y-105337164D01*
X169701626Y-105622020D01*
X131568758Y-105622020D01*
X131420256Y-105522795D01*
X131231898Y-105444774D01*
X131031939Y-105405000D01*
X130828061Y-105405000D01*
X130628102Y-105444774D01*
X130439744Y-105522795D01*
X130270226Y-105636063D01*
X130126063Y-105780226D01*
X130012795Y-105949744D01*
X129934774Y-106138102D01*
X129895000Y-106338061D01*
X124668070Y-106338061D01*
X124630256Y-106312795D01*
X124441898Y-106234774D01*
X124241939Y-106195000D01*
X124038061Y-106195000D01*
X123838102Y-106234774D01*
X123649744Y-106312795D01*
X123480226Y-106426063D01*
X123336063Y-106570226D01*
X123222795Y-106739744D01*
X123144774Y-106928102D01*
X123105000Y-107128061D01*
X101410000Y-107128061D01*
X101410000Y-103198061D01*
X114215000Y-103198061D01*
X114215000Y-103401939D01*
X114254774Y-103601898D01*
X114332795Y-103790256D01*
X114446063Y-103959774D01*
X114590226Y-104103937D01*
X114695000Y-104173945D01*
X114695000Y-104231939D01*
X114734774Y-104431898D01*
X114812795Y-104620256D01*
X114926063Y-104789774D01*
X115070226Y-104933937D01*
X115239744Y-105047205D01*
X115428102Y-105125226D01*
X115628061Y-105165000D01*
X115831939Y-105165000D01*
X116031898Y-105125226D01*
X116220256Y-105047205D01*
X116389774Y-104933937D01*
X116533937Y-104789774D01*
X116647205Y-104620256D01*
X116725226Y-104431898D01*
X116765000Y-104231939D01*
X116765000Y-104028061D01*
X116725226Y-103828102D01*
X116647205Y-103639744D01*
X116533937Y-103470226D01*
X116389774Y-103326063D01*
X116285000Y-103256055D01*
X116285000Y-103238061D01*
X121305000Y-103238061D01*
X121305000Y-103441939D01*
X121344774Y-103641898D01*
X121422795Y-103830256D01*
X121536063Y-103999774D01*
X121680226Y-104143937D01*
X121849744Y-104257205D01*
X122038102Y-104335226D01*
X122238061Y-104375000D01*
X122441939Y-104375000D01*
X122641898Y-104335226D01*
X122830256Y-104257205D01*
X122999774Y-104143937D01*
X123143937Y-103999774D01*
X123257205Y-103830256D01*
X123335226Y-103641898D01*
X123375000Y-103441939D01*
X123375000Y-103428061D01*
X132885000Y-103428061D01*
X132885000Y-103631939D01*
X132924774Y-103831898D01*
X133002795Y-104020256D01*
X133116063Y-104189774D01*
X133260226Y-104333937D01*
X133429744Y-104447205D01*
X133618102Y-104525226D01*
X133818061Y-104565000D01*
X134021939Y-104565000D01*
X134221898Y-104525226D01*
X134410256Y-104447205D01*
X134579774Y-104333937D01*
X134723937Y-104189774D01*
X134837205Y-104020256D01*
X134915226Y-103831898D01*
X134955000Y-103631939D01*
X134955000Y-103428061D01*
X134915226Y-103228102D01*
X134837205Y-103039744D01*
X134723937Y-102870226D01*
X134579774Y-102726063D01*
X134410256Y-102612795D01*
X134221898Y-102534774D01*
X134021939Y-102495000D01*
X133818061Y-102495000D01*
X133618102Y-102534774D01*
X133429744Y-102612795D01*
X133260226Y-102726063D01*
X133116063Y-102870226D01*
X133002795Y-103039744D01*
X132924774Y-103228102D01*
X132885000Y-103428061D01*
X123375000Y-103428061D01*
X123375000Y-103238061D01*
X123335226Y-103038102D01*
X123257205Y-102849744D01*
X123143937Y-102680226D01*
X122999774Y-102536063D01*
X122830256Y-102422795D01*
X122641898Y-102344774D01*
X122441939Y-102305000D01*
X122238061Y-102305000D01*
X122038102Y-102344774D01*
X121849744Y-102422795D01*
X121680226Y-102536063D01*
X121536063Y-102680226D01*
X121422795Y-102849744D01*
X121344774Y-103038102D01*
X121305000Y-103238061D01*
X116285000Y-103238061D01*
X116285000Y-103198061D01*
X116245226Y-102998102D01*
X116167205Y-102809744D01*
X116053937Y-102640226D01*
X115909774Y-102496063D01*
X115740256Y-102382795D01*
X115551898Y-102304774D01*
X115351939Y-102265000D01*
X115148061Y-102265000D01*
X114948102Y-102304774D01*
X114759744Y-102382795D01*
X114590226Y-102496063D01*
X114446063Y-102640226D01*
X114332795Y-102809744D01*
X114254774Y-102998102D01*
X114215000Y-103198061D01*
X101410000Y-103198061D01*
X101410000Y-98728061D01*
X134285000Y-98728061D01*
X134285000Y-98931939D01*
X134324774Y-99131898D01*
X134402795Y-99320256D01*
X134516063Y-99489774D01*
X134660226Y-99633937D01*
X134829744Y-99747205D01*
X135018102Y-99825226D01*
X135218061Y-99865000D01*
X135251715Y-99865000D01*
X135359726Y-100026650D01*
X135503889Y-100170813D01*
X135673407Y-100284081D01*
X135861765Y-100362102D01*
X136061724Y-100401876D01*
X136265602Y-100401876D01*
X136465561Y-100362102D01*
X136653919Y-100284081D01*
X136823437Y-100170813D01*
X136967600Y-100026650D01*
X137080868Y-99857132D01*
X137158889Y-99668774D01*
X137198663Y-99468815D01*
X137198663Y-99264937D01*
X137158889Y-99064978D01*
X137080868Y-98876620D01*
X136967600Y-98707102D01*
X136898559Y-98638061D01*
X142315000Y-98638061D01*
X142315000Y-98841939D01*
X142354774Y-99041898D01*
X142432795Y-99230256D01*
X142546063Y-99399774D01*
X142690226Y-99543937D01*
X142859744Y-99657205D01*
X143048102Y-99735226D01*
X143248061Y-99775000D01*
X143451939Y-99775000D01*
X143651898Y-99735226D01*
X143840256Y-99657205D01*
X144009774Y-99543937D01*
X144153937Y-99399774D01*
X144267205Y-99230256D01*
X144345226Y-99041898D01*
X144385000Y-98841939D01*
X144385000Y-98638061D01*
X144345226Y-98438102D01*
X144267205Y-98249744D01*
X144153937Y-98080226D01*
X144009774Y-97936063D01*
X143840256Y-97822795D01*
X143651898Y-97744774D01*
X143451939Y-97705000D01*
X143248061Y-97705000D01*
X143048102Y-97744774D01*
X142859744Y-97822795D01*
X142690226Y-97936063D01*
X142546063Y-98080226D01*
X142432795Y-98249744D01*
X142354774Y-98438102D01*
X142315000Y-98638061D01*
X136898559Y-98638061D01*
X136823437Y-98562939D01*
X136653919Y-98449671D01*
X136465561Y-98371650D01*
X136265602Y-98331876D01*
X136231948Y-98331876D01*
X136123937Y-98170226D01*
X135979774Y-98026063D01*
X135810256Y-97912795D01*
X135621898Y-97834774D01*
X135421939Y-97795000D01*
X135218061Y-97795000D01*
X135018102Y-97834774D01*
X134829744Y-97912795D01*
X134660226Y-98026063D01*
X134516063Y-98170226D01*
X134402795Y-98339744D01*
X134324774Y-98528102D01*
X134285000Y-98728061D01*
X101410000Y-98728061D01*
X101410000Y-95610524D01*
X121020000Y-95610524D01*
X121020000Y-95809476D01*
X121058814Y-96004606D01*
X121134950Y-96188414D01*
X121245482Y-96353837D01*
X121386163Y-96494518D01*
X121551586Y-96605050D01*
X121735394Y-96681186D01*
X121930524Y-96720000D01*
X122129476Y-96720000D01*
X122324606Y-96681186D01*
X122508414Y-96605050D01*
X122518873Y-96598061D01*
X123695000Y-96598061D01*
X123695000Y-96801939D01*
X123734774Y-97001898D01*
X123812795Y-97190256D01*
X123926063Y-97359774D01*
X124070226Y-97503937D01*
X124239744Y-97617205D01*
X124428102Y-97695226D01*
X124628061Y-97735000D01*
X124831939Y-97735000D01*
X125031898Y-97695226D01*
X125220256Y-97617205D01*
X125389774Y-97503937D01*
X125533937Y-97359774D01*
X125647205Y-97190256D01*
X125725226Y-97001898D01*
X125742111Y-96917009D01*
X125901898Y-96885226D01*
X125931266Y-96873061D01*
X126840000Y-96873061D01*
X126840000Y-97076939D01*
X126879774Y-97276898D01*
X126957795Y-97465256D01*
X127071063Y-97634774D01*
X127215226Y-97778937D01*
X127384744Y-97892205D01*
X127573102Y-97970226D01*
X127773061Y-98010000D01*
X127976939Y-98010000D01*
X128176898Y-97970226D01*
X128365256Y-97892205D01*
X128534774Y-97778937D01*
X128678937Y-97634774D01*
X128792205Y-97465256D01*
X128870226Y-97276898D01*
X128910000Y-97076939D01*
X128910000Y-96873061D01*
X128870226Y-96673102D01*
X128814290Y-96538061D01*
X137735000Y-96538061D01*
X137735000Y-96741939D01*
X137774774Y-96941898D01*
X137852795Y-97130256D01*
X137966063Y-97299774D01*
X138110226Y-97443937D01*
X138279744Y-97557205D01*
X138468102Y-97635226D01*
X138668061Y-97675000D01*
X138871939Y-97675000D01*
X139071898Y-97635226D01*
X139260256Y-97557205D01*
X139429774Y-97443937D01*
X139573937Y-97299774D01*
X139623899Y-97225000D01*
X139691939Y-97225000D01*
X139891898Y-97185226D01*
X140080256Y-97107205D01*
X140249774Y-96993937D01*
X140393937Y-96849774D01*
X140507205Y-96680256D01*
X140585226Y-96491898D01*
X140625000Y-96291939D01*
X140625000Y-96088061D01*
X140585226Y-95888102D01*
X140507205Y-95699744D01*
X140393937Y-95530226D01*
X140249774Y-95386063D01*
X140080256Y-95272795D01*
X139891898Y-95194774D01*
X139691939Y-95155000D01*
X139488061Y-95155000D01*
X139288102Y-95194774D01*
X139099744Y-95272795D01*
X138930226Y-95386063D01*
X138786063Y-95530226D01*
X138736101Y-95605000D01*
X138668061Y-95605000D01*
X138468102Y-95644774D01*
X138279744Y-95722795D01*
X138110226Y-95836063D01*
X137966063Y-95980226D01*
X137852795Y-96149744D01*
X137774774Y-96338102D01*
X137735000Y-96538061D01*
X128814290Y-96538061D01*
X128792205Y-96484744D01*
X128678937Y-96315226D01*
X128534774Y-96171063D01*
X128365256Y-96057795D01*
X128176898Y-95979774D01*
X127976939Y-95940000D01*
X127773061Y-95940000D01*
X127573102Y-95979774D01*
X127384744Y-96057795D01*
X127215226Y-96171063D01*
X127071063Y-96315226D01*
X126957795Y-96484744D01*
X126879774Y-96673102D01*
X126840000Y-96873061D01*
X125931266Y-96873061D01*
X126090256Y-96807205D01*
X126259774Y-96693937D01*
X126403937Y-96549774D01*
X126517205Y-96380256D01*
X126595226Y-96191898D01*
X126635000Y-95991939D01*
X126635000Y-95788061D01*
X126595226Y-95588102D01*
X126517205Y-95399744D01*
X126403937Y-95230226D01*
X126259774Y-95086063D01*
X126217866Y-95058061D01*
X142955000Y-95058061D01*
X142955000Y-95261939D01*
X142994774Y-95461898D01*
X143072795Y-95650256D01*
X143186063Y-95819774D01*
X143330226Y-95963937D01*
X143499744Y-96077205D01*
X143688102Y-96155226D01*
X143888061Y-96195000D01*
X144091939Y-96195000D01*
X144291898Y-96155226D01*
X144480256Y-96077205D01*
X144649774Y-95963937D01*
X144793937Y-95819774D01*
X144907205Y-95650256D01*
X144985226Y-95461898D01*
X145025000Y-95261939D01*
X145025000Y-95058061D01*
X144985226Y-94858102D01*
X144907205Y-94669744D01*
X144793937Y-94500226D01*
X144649774Y-94356063D01*
X144480256Y-94242795D01*
X144291898Y-94164774D01*
X144091939Y-94125000D01*
X143888061Y-94125000D01*
X143688102Y-94164774D01*
X143499744Y-94242795D01*
X143330226Y-94356063D01*
X143186063Y-94500226D01*
X143072795Y-94669744D01*
X142994774Y-94858102D01*
X142955000Y-95058061D01*
X126217866Y-95058061D01*
X126090256Y-94972795D01*
X125901898Y-94894774D01*
X125701939Y-94855000D01*
X125498061Y-94855000D01*
X125298102Y-94894774D01*
X125109744Y-94972795D01*
X124940226Y-95086063D01*
X124796063Y-95230226D01*
X124682795Y-95399744D01*
X124604774Y-95588102D01*
X124587889Y-95672991D01*
X124428102Y-95704774D01*
X124239744Y-95782795D01*
X124070226Y-95896063D01*
X123926063Y-96040226D01*
X123812795Y-96209744D01*
X123734774Y-96398102D01*
X123695000Y-96598061D01*
X122518873Y-96598061D01*
X122673837Y-96494518D01*
X122814518Y-96353837D01*
X122925050Y-96188414D01*
X123001186Y-96004606D01*
X123040000Y-95809476D01*
X123040000Y-95610524D01*
X123001186Y-95415394D01*
X122925050Y-95231586D01*
X122814518Y-95066163D01*
X122673837Y-94925482D01*
X122508414Y-94814950D01*
X122324606Y-94738814D01*
X122129476Y-94700000D01*
X121930524Y-94700000D01*
X121735394Y-94738814D01*
X121551586Y-94814950D01*
X121386163Y-94925482D01*
X121245482Y-95066163D01*
X121134950Y-95231586D01*
X121058814Y-95415394D01*
X121020000Y-95610524D01*
X101410000Y-95610524D01*
X101410000Y-93888061D01*
X118765000Y-93888061D01*
X118765000Y-94091939D01*
X118804774Y-94291898D01*
X118882795Y-94480256D01*
X118996063Y-94649774D01*
X119140226Y-94793937D01*
X119309744Y-94907205D01*
X119498102Y-94985226D01*
X119698061Y-95025000D01*
X119901939Y-95025000D01*
X120101898Y-94985226D01*
X120290256Y-94907205D01*
X120459774Y-94793937D01*
X120603937Y-94649774D01*
X120717205Y-94480256D01*
X120795226Y-94291898D01*
X120835000Y-94091939D01*
X120835000Y-94005000D01*
X120911939Y-94005000D01*
X121111898Y-93965226D01*
X121219817Y-93920524D01*
X131540000Y-93920524D01*
X131540000Y-94119476D01*
X131578814Y-94314606D01*
X131654950Y-94498414D01*
X131765482Y-94663837D01*
X131906163Y-94804518D01*
X132071586Y-94915050D01*
X132255394Y-94991186D01*
X132450524Y-95030000D01*
X132649476Y-95030000D01*
X132844606Y-94991186D01*
X133028414Y-94915050D01*
X133193837Y-94804518D01*
X133334518Y-94663837D01*
X133445050Y-94498414D01*
X133521186Y-94314606D01*
X133560000Y-94119476D01*
X133560000Y-94088061D01*
X146395000Y-94088061D01*
X146395000Y-94291939D01*
X146434774Y-94491898D01*
X146512795Y-94680256D01*
X146626063Y-94849774D01*
X146770226Y-94993937D01*
X146939744Y-95107205D01*
X147128102Y-95185226D01*
X147328061Y-95225000D01*
X147531939Y-95225000D01*
X147731898Y-95185226D01*
X147920256Y-95107205D01*
X148089774Y-94993937D01*
X148233937Y-94849774D01*
X148347205Y-94680256D01*
X148425226Y-94491898D01*
X148465000Y-94291939D01*
X148465000Y-94088061D01*
X148425226Y-93888102D01*
X148347205Y-93699744D01*
X148233937Y-93530226D01*
X148089774Y-93386063D01*
X147920256Y-93272795D01*
X147731898Y-93194774D01*
X147531939Y-93155000D01*
X147328061Y-93155000D01*
X147128102Y-93194774D01*
X146939744Y-93272795D01*
X146770226Y-93386063D01*
X146626063Y-93530226D01*
X146512795Y-93699744D01*
X146434774Y-93888102D01*
X146395000Y-94088061D01*
X133560000Y-94088061D01*
X133560000Y-93920524D01*
X133521186Y-93725394D01*
X133445050Y-93541586D01*
X133334518Y-93376163D01*
X133193837Y-93235482D01*
X133028414Y-93124950D01*
X132844606Y-93048814D01*
X132649476Y-93010000D01*
X132450524Y-93010000D01*
X132255394Y-93048814D01*
X132071586Y-93124950D01*
X131906163Y-93235482D01*
X131765482Y-93376163D01*
X131654950Y-93541586D01*
X131578814Y-93725394D01*
X131540000Y-93920524D01*
X121219817Y-93920524D01*
X121300256Y-93887205D01*
X121469774Y-93773937D01*
X121613937Y-93629774D01*
X121727205Y-93460256D01*
X121805226Y-93271898D01*
X121845000Y-93071939D01*
X121845000Y-92868061D01*
X121805226Y-92668102D01*
X121727205Y-92479744D01*
X121703990Y-92445000D01*
X121871939Y-92445000D01*
X122071898Y-92405226D01*
X122260256Y-92327205D01*
X122429774Y-92213937D01*
X122573937Y-92069774D01*
X122687205Y-91900256D01*
X122765226Y-91711898D01*
X122803782Y-91518061D01*
X133915000Y-91518061D01*
X133915000Y-91721939D01*
X133954774Y-91921898D01*
X134032795Y-92110256D01*
X134146063Y-92279774D01*
X134290226Y-92423937D01*
X134459744Y-92537205D01*
X134647572Y-92615006D01*
X134679774Y-92776898D01*
X134757795Y-92965256D01*
X134871063Y-93134774D01*
X135015226Y-93278937D01*
X135184744Y-93392205D01*
X135373102Y-93470226D01*
X135573061Y-93510000D01*
X135776939Y-93510000D01*
X135976898Y-93470226D01*
X136165256Y-93392205D01*
X136334774Y-93278937D01*
X136478937Y-93134774D01*
X136592205Y-92965256D01*
X136670226Y-92776898D01*
X136710000Y-92576939D01*
X136710000Y-92373061D01*
X136670226Y-92173102D01*
X136593579Y-91988061D01*
X140255000Y-91988061D01*
X140255000Y-92191939D01*
X140294774Y-92391898D01*
X140372795Y-92580256D01*
X140486063Y-92749774D01*
X140630226Y-92893937D01*
X140799744Y-93007205D01*
X140988102Y-93085226D01*
X141188061Y-93125000D01*
X141391939Y-93125000D01*
X141591898Y-93085226D01*
X141780256Y-93007205D01*
X141949774Y-92893937D01*
X142093937Y-92749774D01*
X142207205Y-92580256D01*
X142285226Y-92391898D01*
X142325000Y-92191939D01*
X142325000Y-91988061D01*
X142285226Y-91788102D01*
X142207205Y-91599744D01*
X142093937Y-91430226D01*
X141949774Y-91286063D01*
X141780256Y-91172795D01*
X141591898Y-91094774D01*
X141391939Y-91055000D01*
X141188061Y-91055000D01*
X140988102Y-91094774D01*
X140799744Y-91172795D01*
X140630226Y-91286063D01*
X140486063Y-91430226D01*
X140372795Y-91599744D01*
X140294774Y-91788102D01*
X140255000Y-91988061D01*
X136593579Y-91988061D01*
X136592205Y-91984744D01*
X136478937Y-91815226D01*
X136334774Y-91671063D01*
X136279662Y-91634238D01*
X136429774Y-91533937D01*
X136573937Y-91389774D01*
X136687205Y-91220256D01*
X136765226Y-91031898D01*
X136805000Y-90831939D01*
X136805000Y-90628061D01*
X136765226Y-90428102D01*
X136687205Y-90239744D01*
X136573937Y-90070226D01*
X136429774Y-89926063D01*
X136260256Y-89812795D01*
X136071898Y-89734774D01*
X135871939Y-89695000D01*
X135668061Y-89695000D01*
X135468102Y-89734774D01*
X135279744Y-89812795D01*
X135110226Y-89926063D01*
X134966063Y-90070226D01*
X134852795Y-90239744D01*
X134774774Y-90428102D01*
X134739261Y-90606642D01*
X134648102Y-90624774D01*
X134459744Y-90702795D01*
X134290226Y-90816063D01*
X134146063Y-90960226D01*
X134032795Y-91129744D01*
X133954774Y-91318102D01*
X133915000Y-91518061D01*
X122803782Y-91518061D01*
X122805000Y-91511939D01*
X122805000Y-91308061D01*
X122765226Y-91108102D01*
X122687205Y-90919744D01*
X122573937Y-90750226D01*
X122429774Y-90606063D01*
X122260256Y-90492795D01*
X122071898Y-90414774D01*
X121871939Y-90375000D01*
X121668061Y-90375000D01*
X121468102Y-90414774D01*
X121323188Y-90474800D01*
X121290256Y-90452795D01*
X121101898Y-90374774D01*
X120901939Y-90335000D01*
X120698061Y-90335000D01*
X120498102Y-90374774D01*
X120309744Y-90452795D01*
X120140226Y-90566063D01*
X119996063Y-90710226D01*
X119882795Y-90879744D01*
X119804774Y-91068102D01*
X119765000Y-91268061D01*
X119765000Y-91471939D01*
X119804774Y-91671898D01*
X119882795Y-91860256D01*
X119996063Y-92029774D01*
X120140226Y-92173937D01*
X120141500Y-92174789D01*
X120006063Y-92310226D01*
X119892795Y-92479744D01*
X119814774Y-92668102D01*
X119775000Y-92868061D01*
X119775000Y-92955000D01*
X119698061Y-92955000D01*
X119498102Y-92994774D01*
X119309744Y-93072795D01*
X119140226Y-93186063D01*
X118996063Y-93330226D01*
X118882795Y-93499744D01*
X118804774Y-93688102D01*
X118765000Y-93888061D01*
X101410000Y-93888061D01*
X101410000Y-89363137D01*
X101715000Y-89363137D01*
X101715000Y-89576863D01*
X101756696Y-89786483D01*
X101838485Y-89983940D01*
X101957225Y-90161647D01*
X102108353Y-90312775D01*
X102286060Y-90431515D01*
X102483517Y-90513304D01*
X102693137Y-90555000D01*
X102906863Y-90555000D01*
X103116483Y-90513304D01*
X103313940Y-90431515D01*
X103491647Y-90312775D01*
X103642775Y-90161647D01*
X103761515Y-89983940D01*
X103843304Y-89786483D01*
X103885000Y-89576863D01*
X103885000Y-89363137D01*
X103843304Y-89153517D01*
X103761515Y-88956060D01*
X103642775Y-88778353D01*
X103494946Y-88630524D01*
X109990000Y-88630524D01*
X109990000Y-88829476D01*
X110028814Y-89024606D01*
X110104950Y-89208414D01*
X110215482Y-89373837D01*
X110356163Y-89514518D01*
X110521586Y-89625050D01*
X110705394Y-89701186D01*
X110900524Y-89740000D01*
X111099476Y-89740000D01*
X111294606Y-89701186D01*
X111478414Y-89625050D01*
X111518805Y-89598061D01*
X121975000Y-89598061D01*
X121975000Y-89801939D01*
X122014774Y-90001898D01*
X122092795Y-90190256D01*
X122206063Y-90359774D01*
X122350226Y-90503937D01*
X122519744Y-90617205D01*
X122708102Y-90695226D01*
X122908061Y-90735000D01*
X123111939Y-90735000D01*
X123311898Y-90695226D01*
X123500256Y-90617205D01*
X123669774Y-90503937D01*
X123813937Y-90359774D01*
X123927205Y-90190256D01*
X124005226Y-90001898D01*
X124045000Y-89801939D01*
X124045000Y-89608061D01*
X126715000Y-89608061D01*
X126715000Y-89811939D01*
X126754774Y-90011898D01*
X126832795Y-90200256D01*
X126946063Y-90369774D01*
X127090226Y-90513937D01*
X127259744Y-90627205D01*
X127448102Y-90705226D01*
X127648061Y-90745000D01*
X127851939Y-90745000D01*
X128051898Y-90705226D01*
X128240256Y-90627205D01*
X128409774Y-90513937D01*
X128553937Y-90369774D01*
X128667205Y-90200256D01*
X128745226Y-90011898D01*
X128785000Y-89811939D01*
X128785000Y-89608061D01*
X128745226Y-89408102D01*
X128667205Y-89219744D01*
X128553937Y-89050226D01*
X128409774Y-88906063D01*
X128240256Y-88792795D01*
X128051898Y-88714774D01*
X127851939Y-88675000D01*
X127648061Y-88675000D01*
X127448102Y-88714774D01*
X127259744Y-88792795D01*
X127090226Y-88906063D01*
X126946063Y-89050226D01*
X126832795Y-89219744D01*
X126754774Y-89408102D01*
X126715000Y-89608061D01*
X124045000Y-89608061D01*
X124045000Y-89598061D01*
X124005226Y-89398102D01*
X123927205Y-89209744D01*
X123813937Y-89040226D01*
X123669774Y-88896063D01*
X123500256Y-88782795D01*
X123311898Y-88704774D01*
X123111939Y-88665000D01*
X122908061Y-88665000D01*
X122708102Y-88704774D01*
X122519744Y-88782795D01*
X122350226Y-88896063D01*
X122206063Y-89040226D01*
X122092795Y-89209744D01*
X122014774Y-89398102D01*
X121975000Y-89598061D01*
X111518805Y-89598061D01*
X111643837Y-89514518D01*
X111784518Y-89373837D01*
X111895050Y-89208414D01*
X111971186Y-89024606D01*
X112010000Y-88829476D01*
X112010000Y-88630524D01*
X111971186Y-88435394D01*
X111895050Y-88251586D01*
X111784518Y-88086163D01*
X111643837Y-87945482D01*
X111478414Y-87834950D01*
X111294606Y-87758814D01*
X111099476Y-87720000D01*
X110900524Y-87720000D01*
X110705394Y-87758814D01*
X110521586Y-87834950D01*
X110356163Y-87945482D01*
X110215482Y-88086163D01*
X110104950Y-88251586D01*
X110028814Y-88435394D01*
X109990000Y-88630524D01*
X103494946Y-88630524D01*
X103491647Y-88627225D01*
X103313940Y-88508485D01*
X103116483Y-88426696D01*
X102906863Y-88385000D01*
X102693137Y-88385000D01*
X102483517Y-88426696D01*
X102286060Y-88508485D01*
X102108353Y-88627225D01*
X101957225Y-88778353D01*
X101838485Y-88956060D01*
X101756696Y-89153517D01*
X101715000Y-89363137D01*
X101410000Y-89363137D01*
X101410000Y-86363137D01*
X101715000Y-86363137D01*
X101715000Y-86576863D01*
X101756696Y-86786483D01*
X101838485Y-86983940D01*
X101957225Y-87161647D01*
X102108353Y-87312775D01*
X102286060Y-87431515D01*
X102483517Y-87513304D01*
X102693137Y-87555000D01*
X102906863Y-87555000D01*
X103116483Y-87513304D01*
X103313940Y-87431515D01*
X103491647Y-87312775D01*
X103642775Y-87161647D01*
X103761515Y-86983940D01*
X103843304Y-86786483D01*
X103885000Y-86576863D01*
X103885000Y-86363137D01*
X103843304Y-86153517D01*
X103761515Y-85956060D01*
X103642775Y-85778353D01*
X103502483Y-85638061D01*
X104705000Y-85638061D01*
X104705000Y-85841939D01*
X104744774Y-86041898D01*
X104822795Y-86230256D01*
X104936063Y-86399774D01*
X105080226Y-86543937D01*
X105249744Y-86657205D01*
X105438102Y-86735226D01*
X105638061Y-86775000D01*
X105841939Y-86775000D01*
X106041898Y-86735226D01*
X106230256Y-86657205D01*
X106399774Y-86543937D01*
X106543937Y-86399774D01*
X106657205Y-86230256D01*
X106735226Y-86041898D01*
X106775000Y-85841939D01*
X106775000Y-85638061D01*
X106735226Y-85438102D01*
X106657205Y-85249744D01*
X106543937Y-85080226D01*
X106399774Y-84936063D01*
X106230256Y-84822795D01*
X106041898Y-84744774D01*
X105841939Y-84705000D01*
X105638061Y-84705000D01*
X105438102Y-84744774D01*
X105249744Y-84822795D01*
X105080226Y-84936063D01*
X104936063Y-85080226D01*
X104822795Y-85249744D01*
X104744774Y-85438102D01*
X104705000Y-85638061D01*
X103502483Y-85638061D01*
X103491647Y-85627225D01*
X103313940Y-85508485D01*
X103116483Y-85426696D01*
X102906863Y-85385000D01*
X102693137Y-85385000D01*
X102483517Y-85426696D01*
X102286060Y-85508485D01*
X102108353Y-85627225D01*
X101957225Y-85778353D01*
X101838485Y-85956060D01*
X101756696Y-86153517D01*
X101715000Y-86363137D01*
X101410000Y-86363137D01*
X101410000Y-79232818D01*
X102946787Y-79232818D01*
X103438946Y-79835149D01*
X104289933Y-80305063D01*
X105216243Y-80599929D01*
X106182281Y-80708414D01*
X107150921Y-80626351D01*
X107456958Y-80538061D01*
X138155000Y-80538061D01*
X138155000Y-80741939D01*
X138194774Y-80941898D01*
X138272795Y-81130256D01*
X138386063Y-81299774D01*
X138530226Y-81443937D01*
X138699744Y-81557205D01*
X138888102Y-81635226D01*
X139088061Y-81675000D01*
X139291939Y-81675000D01*
X139491898Y-81635226D01*
X139680256Y-81557205D01*
X139849774Y-81443937D01*
X139993937Y-81299774D01*
X140107205Y-81130256D01*
X140185226Y-80941898D01*
X140225000Y-80741939D01*
X140225000Y-80538061D01*
X140185226Y-80338102D01*
X140107205Y-80149744D01*
X139993937Y-79980226D01*
X139849774Y-79836063D01*
X139680256Y-79722795D01*
X139491898Y-79644774D01*
X139291939Y-79605000D01*
X139088061Y-79605000D01*
X138888102Y-79644774D01*
X138699744Y-79722795D01*
X138530226Y-79836063D01*
X138386063Y-79980226D01*
X138272795Y-80149744D01*
X138194774Y-80338102D01*
X138155000Y-80538061D01*
X107456958Y-80538061D01*
X108084938Y-80356893D01*
X108948440Y-79910394D01*
X109061054Y-79835149D01*
X109553213Y-79232818D01*
X167446787Y-79232818D01*
X167938946Y-79835149D01*
X168789933Y-80305063D01*
X169716243Y-80599929D01*
X170682281Y-80708414D01*
X171650921Y-80626351D01*
X172584938Y-80356893D01*
X173448440Y-79910394D01*
X173561054Y-79835149D01*
X174053213Y-79232818D01*
X170750000Y-75929605D01*
X167446787Y-79232818D01*
X109553213Y-79232818D01*
X106250000Y-75929605D01*
X102946787Y-79232818D01*
X101410000Y-79232818D01*
X101410000Y-76776924D01*
X101643107Y-77584938D01*
X102089606Y-78448440D01*
X102164851Y-78561054D01*
X102767182Y-79053213D01*
X106070395Y-75750000D01*
X106429605Y-75750000D01*
X109732818Y-79053213D01*
X110335149Y-78561054D01*
X110805063Y-77710067D01*
X110888095Y-77449224D01*
X116490381Y-77449224D01*
X116622317Y-77744312D01*
X116963045Y-77915159D01*
X117330557Y-78016250D01*
X117710729Y-78043701D01*
X118088951Y-77996457D01*
X118450690Y-77876333D01*
X118697683Y-77744312D01*
X118829619Y-77449224D01*
X117660000Y-76279605D01*
X116490381Y-77449224D01*
X110888095Y-77449224D01*
X111099929Y-76783757D01*
X111208414Y-75817719D01*
X111181234Y-75496890D01*
X111340048Y-75496890D01*
X111340048Y-75743110D01*
X111388083Y-75984598D01*
X111482307Y-76212074D01*
X111619099Y-76416798D01*
X111793202Y-76590901D01*
X111997926Y-76727693D01*
X112225402Y-76821917D01*
X112466890Y-76869952D01*
X112713110Y-76869952D01*
X112954598Y-76821917D01*
X113182074Y-76727693D01*
X113386798Y-76590901D01*
X113560901Y-76416798D01*
X113697693Y-76212074D01*
X113723103Y-76150729D01*
X115716299Y-76150729D01*
X115763543Y-76528951D01*
X115883667Y-76890690D01*
X116015688Y-77137683D01*
X116310776Y-77269619D01*
X117480395Y-76100000D01*
X117839605Y-76100000D01*
X119009224Y-77269619D01*
X119304312Y-77137683D01*
X119475159Y-76796955D01*
X119576250Y-76429443D01*
X119603701Y-76049271D01*
X119586232Y-75909419D01*
X120805000Y-75909419D01*
X120805000Y-76290581D01*
X120879361Y-76664419D01*
X121025225Y-77016566D01*
X121236987Y-77333491D01*
X121506509Y-77603013D01*
X121823434Y-77814775D01*
X122175581Y-77960639D01*
X122549419Y-78035000D01*
X122930581Y-78035000D01*
X123304419Y-77960639D01*
X123656566Y-77814775D01*
X123973491Y-77603013D01*
X124243013Y-77333491D01*
X124454775Y-77016566D01*
X124600639Y-76664419D01*
X124675000Y-76290581D01*
X124675000Y-75909419D01*
X125885000Y-75909419D01*
X125885000Y-76290581D01*
X125959361Y-76664419D01*
X126105225Y-77016566D01*
X126316987Y-77333491D01*
X126586509Y-77603013D01*
X126903434Y-77814775D01*
X127255581Y-77960639D01*
X127629419Y-78035000D01*
X128010581Y-78035000D01*
X128384419Y-77960639D01*
X128736566Y-77814775D01*
X129053491Y-77603013D01*
X129323013Y-77333491D01*
X129534775Y-77016566D01*
X129680639Y-76664419D01*
X129755000Y-76290581D01*
X129755000Y-75909419D01*
X129680639Y-75535581D01*
X129534775Y-75183434D01*
X129323013Y-74866509D01*
X129256504Y-74800000D01*
X130961928Y-74800000D01*
X130961928Y-77400000D01*
X130974188Y-77524482D01*
X131010498Y-77644180D01*
X131069463Y-77754494D01*
X131148815Y-77851185D01*
X131245506Y-77930537D01*
X131355820Y-77989502D01*
X131475518Y-78025812D01*
X131600000Y-78038072D01*
X134200000Y-78038072D01*
X134324482Y-78025812D01*
X134444180Y-77989502D01*
X134554494Y-77930537D01*
X134651185Y-77851185D01*
X134730537Y-77754494D01*
X134789502Y-77644180D01*
X134825812Y-77524482D01*
X134838072Y-77400000D01*
X134838072Y-74938061D01*
X145305000Y-74938061D01*
X145305000Y-75141939D01*
X145344774Y-75341898D01*
X145422795Y-75530256D01*
X145536063Y-75699774D01*
X145680226Y-75843937D01*
X145849744Y-75957205D01*
X146038102Y-76035226D01*
X146238061Y-76075000D01*
X146441939Y-76075000D01*
X146641898Y-76035226D01*
X146830256Y-75957205D01*
X146999774Y-75843937D01*
X147143937Y-75699774D01*
X147257205Y-75530256D01*
X147335226Y-75341898D01*
X147375000Y-75141939D01*
X147375000Y-74938061D01*
X147335226Y-74738102D01*
X147302072Y-74658061D01*
X161115000Y-74658061D01*
X161115000Y-74861939D01*
X161154774Y-75061898D01*
X161232795Y-75250256D01*
X161346063Y-75419774D01*
X161490226Y-75563937D01*
X161659744Y-75677205D01*
X161848102Y-75755226D01*
X162048061Y-75795000D01*
X162251939Y-75795000D01*
X162451898Y-75755226D01*
X162640256Y-75677205D01*
X162775422Y-75586890D01*
X163290048Y-75586890D01*
X163290048Y-75833110D01*
X163338083Y-76074598D01*
X163432307Y-76302074D01*
X163569099Y-76506798D01*
X163743202Y-76680901D01*
X163947926Y-76817693D01*
X164175402Y-76911917D01*
X164416890Y-76959952D01*
X164663110Y-76959952D01*
X164904598Y-76911917D01*
X165132074Y-76817693D01*
X165336798Y-76680901D01*
X165510901Y-76506798D01*
X165647693Y-76302074D01*
X165741917Y-76074598D01*
X165789952Y-75833110D01*
X165789952Y-75682281D01*
X165791586Y-75682281D01*
X165873649Y-76650921D01*
X166143107Y-77584938D01*
X166589606Y-78448440D01*
X166664851Y-78561054D01*
X167267182Y-79053213D01*
X170570395Y-75750000D01*
X167267182Y-72446787D01*
X166664851Y-72938946D01*
X166194937Y-73789933D01*
X165900071Y-74716243D01*
X165791586Y-75682281D01*
X165789952Y-75682281D01*
X165789952Y-75586890D01*
X165741917Y-75345402D01*
X165647693Y-75117926D01*
X165510901Y-74913202D01*
X165336798Y-74739099D01*
X165132074Y-74602307D01*
X164904598Y-74508083D01*
X164663110Y-74460048D01*
X164416890Y-74460048D01*
X164175402Y-74508083D01*
X163947926Y-74602307D01*
X163743202Y-74739099D01*
X163569099Y-74913202D01*
X163432307Y-75117926D01*
X163338083Y-75345402D01*
X163290048Y-75586890D01*
X162775422Y-75586890D01*
X162809774Y-75563937D01*
X162953937Y-75419774D01*
X163067205Y-75250256D01*
X163145226Y-75061898D01*
X163185000Y-74861939D01*
X163185000Y-74658061D01*
X163145226Y-74458102D01*
X163067205Y-74269744D01*
X162953937Y-74100226D01*
X162809774Y-73956063D01*
X162640256Y-73842795D01*
X162451898Y-73764774D01*
X162251939Y-73725000D01*
X162048061Y-73725000D01*
X161848102Y-73764774D01*
X161659744Y-73842795D01*
X161490226Y-73956063D01*
X161346063Y-74100226D01*
X161232795Y-74269744D01*
X161154774Y-74458102D01*
X161115000Y-74658061D01*
X147302072Y-74658061D01*
X147257205Y-74549744D01*
X147143937Y-74380226D01*
X146999774Y-74236063D01*
X146830256Y-74122795D01*
X146641898Y-74044774D01*
X146441939Y-74005000D01*
X146238061Y-74005000D01*
X146038102Y-74044774D01*
X145849744Y-74122795D01*
X145680226Y-74236063D01*
X145536063Y-74380226D01*
X145422795Y-74549744D01*
X145344774Y-74738102D01*
X145305000Y-74938061D01*
X134838072Y-74938061D01*
X134838072Y-74800000D01*
X134825812Y-74675518D01*
X134789502Y-74555820D01*
X134730537Y-74445506D01*
X134651185Y-74348815D01*
X134554494Y-74269463D01*
X134444180Y-74210498D01*
X134324482Y-74174188D01*
X134200000Y-74161928D01*
X131600000Y-74161928D01*
X131475518Y-74174188D01*
X131355820Y-74210498D01*
X131245506Y-74269463D01*
X131148815Y-74348815D01*
X131069463Y-74445506D01*
X131010498Y-74555820D01*
X130974188Y-74675518D01*
X130961928Y-74800000D01*
X129256504Y-74800000D01*
X129053491Y-74596987D01*
X128736566Y-74385225D01*
X128384419Y-74239361D01*
X128010581Y-74165000D01*
X127629419Y-74165000D01*
X127255581Y-74239361D01*
X126903434Y-74385225D01*
X126586509Y-74596987D01*
X126316987Y-74866509D01*
X126105225Y-75183434D01*
X125959361Y-75535581D01*
X125885000Y-75909419D01*
X124675000Y-75909419D01*
X124600639Y-75535581D01*
X124454775Y-75183434D01*
X124243013Y-74866509D01*
X123973491Y-74596987D01*
X123656566Y-74385225D01*
X123304419Y-74239361D01*
X122930581Y-74165000D01*
X122549419Y-74165000D01*
X122175581Y-74239361D01*
X121823434Y-74385225D01*
X121506509Y-74596987D01*
X121236987Y-74866509D01*
X121025225Y-75183434D01*
X120879361Y-75535581D01*
X120805000Y-75909419D01*
X119586232Y-75909419D01*
X119556457Y-75671049D01*
X119436333Y-75309310D01*
X119304312Y-75062317D01*
X119009224Y-74930381D01*
X117839605Y-76100000D01*
X117480395Y-76100000D01*
X116310776Y-74930381D01*
X116015688Y-75062317D01*
X115844841Y-75403045D01*
X115743750Y-75770557D01*
X115716299Y-76150729D01*
X113723103Y-76150729D01*
X113791917Y-75984598D01*
X113839952Y-75743110D01*
X113839952Y-75496890D01*
X113791917Y-75255402D01*
X113697693Y-75027926D01*
X113560901Y-74823202D01*
X113488475Y-74750776D01*
X116490381Y-74750776D01*
X117660000Y-75920395D01*
X118829619Y-74750776D01*
X118697683Y-74455688D01*
X118356955Y-74284841D01*
X117989443Y-74183750D01*
X117609271Y-74156299D01*
X117231049Y-74203543D01*
X116869310Y-74323667D01*
X116622317Y-74455688D01*
X116490381Y-74750776D01*
X113488475Y-74750776D01*
X113386798Y-74649099D01*
X113182074Y-74512307D01*
X112954598Y-74418083D01*
X112713110Y-74370048D01*
X112466890Y-74370048D01*
X112225402Y-74418083D01*
X111997926Y-74512307D01*
X111793202Y-74649099D01*
X111619099Y-74823202D01*
X111482307Y-75027926D01*
X111388083Y-75255402D01*
X111340048Y-75496890D01*
X111181234Y-75496890D01*
X111126351Y-74849079D01*
X110856893Y-73915062D01*
X110410394Y-73051560D01*
X110335149Y-72938946D01*
X109732818Y-72446787D01*
X106429605Y-75750000D01*
X106070395Y-75750000D01*
X106056253Y-75735858D01*
X106235858Y-75556253D01*
X106250000Y-75570395D01*
X109553213Y-72267182D01*
X109061054Y-71664851D01*
X108210067Y-71194937D01*
X107314949Y-70910000D01*
X169723076Y-70910000D01*
X168915062Y-71143107D01*
%TA.AperFunction,Conductor*%
D21*
G36*
X168915062Y-71143107D02*
G01*
X168051560Y-71589606D01*
X167938946Y-71664851D01*
X167446787Y-72267182D01*
X170750000Y-75570395D01*
X170764143Y-75556253D01*
X170943748Y-75735858D01*
X170929605Y-75750000D01*
X174232818Y-79053213D01*
X174835149Y-78561054D01*
X175305063Y-77710067D01*
X175595742Y-76796909D01*
X175657713Y-88075482D01*
X175526949Y-87968167D01*
X175312401Y-87853489D01*
X175079602Y-87782870D01*
X174898165Y-87765000D01*
X174076835Y-87765000D01*
X173895398Y-87782870D01*
X173662599Y-87853489D01*
X173448051Y-87968167D01*
X173259998Y-88122498D01*
X173105667Y-88310551D01*
X172990989Y-88525099D01*
X172920370Y-88757898D01*
X172896525Y-89000000D01*
X172920370Y-89242102D01*
X172923383Y-89252035D01*
X172843881Y-89133051D01*
X172654449Y-88943619D01*
X172431701Y-88794784D01*
X172184197Y-88692264D01*
X171921448Y-88640000D01*
X171653552Y-88640000D01*
X171390803Y-88692264D01*
X171143299Y-88794784D01*
X170920551Y-88943619D01*
X170731119Y-89133051D01*
X170582284Y-89355799D01*
X170479764Y-89603303D01*
X170427500Y-89866052D01*
X170427500Y-90133948D01*
X170479764Y-90396697D01*
X170582284Y-90644201D01*
X170731119Y-90866949D01*
X170920551Y-91056381D01*
X171143299Y-91205216D01*
X171390803Y-91307736D01*
X171653552Y-91360000D01*
X171921448Y-91360000D01*
X172184197Y-91307736D01*
X172431701Y-91205216D01*
X172654449Y-91056381D01*
X172843881Y-90866949D01*
X172992716Y-90644201D01*
X173095236Y-90396697D01*
X173147500Y-90133948D01*
X173147500Y-89866052D01*
X173114516Y-89700232D01*
X173259998Y-89877502D01*
X173448051Y-90031833D01*
X173662599Y-90146511D01*
X173895398Y-90217130D01*
X174076835Y-90235000D01*
X174898165Y-90235000D01*
X175079602Y-90217130D01*
X175312401Y-90146511D01*
X175526949Y-90031833D01*
X175667827Y-89916218D01*
X175696349Y-95107190D01*
X175526949Y-94968167D01*
X175312401Y-94853489D01*
X175079602Y-94782870D01*
X174898165Y-94765000D01*
X174076835Y-94765000D01*
X173895398Y-94782870D01*
X173662599Y-94853489D01*
X173448051Y-94968167D01*
X173259998Y-95122498D01*
X173114516Y-95299768D01*
X173147500Y-95133948D01*
X173147500Y-94866052D01*
X173095236Y-94603303D01*
X172992716Y-94355799D01*
X172843881Y-94133051D01*
X172654449Y-93943619D01*
X172431701Y-93794784D01*
X172184197Y-93692264D01*
X171921448Y-93640000D01*
X171653552Y-93640000D01*
X171390803Y-93692264D01*
X171143299Y-93794784D01*
X170920551Y-93943619D01*
X170731119Y-94133051D01*
X170582284Y-94355799D01*
X170479764Y-94603303D01*
X170427500Y-94866052D01*
X170427500Y-95133948D01*
X170479764Y-95396697D01*
X170582284Y-95644201D01*
X170731119Y-95866949D01*
X170920551Y-96056381D01*
X171143299Y-96205216D01*
X171390803Y-96307736D01*
X171653552Y-96360000D01*
X171921448Y-96360000D01*
X172184197Y-96307736D01*
X172431701Y-96205216D01*
X172654449Y-96056381D01*
X172843881Y-95866949D01*
X172923383Y-95747965D01*
X172920370Y-95757898D01*
X172896525Y-96000000D01*
X172920370Y-96242102D01*
X172990989Y-96474901D01*
X173105667Y-96689449D01*
X173259998Y-96877502D01*
X173448051Y-97031833D01*
X173662599Y-97146511D01*
X173895398Y-97217130D01*
X174076835Y-97235000D01*
X174898165Y-97235000D01*
X175079602Y-97217130D01*
X175312401Y-97146511D01*
X175526949Y-97031833D01*
X175706116Y-96884795D01*
X175719418Y-99305780D01*
X175580256Y-99212795D01*
X175391898Y-99134774D01*
X175191939Y-99095000D01*
X174988061Y-99095000D01*
X174788102Y-99134774D01*
X174599744Y-99212795D01*
X174430226Y-99326063D01*
X174286063Y-99470226D01*
X174172795Y-99639744D01*
X174094774Y-99828102D01*
X174055000Y-100028061D01*
X174055000Y-100231939D01*
X174094774Y-100431898D01*
X174172795Y-100620256D01*
X174286063Y-100789774D01*
X174430226Y-100933937D01*
X174599744Y-101047205D01*
X174788102Y-101125226D01*
X174988061Y-101165000D01*
X175191939Y-101165000D01*
X175391898Y-101125226D01*
X175580256Y-101047205D01*
X175728442Y-100948190D01*
X175834239Y-120203106D01*
X175606893Y-119415062D01*
X175160394Y-118551560D01*
X175085149Y-118438946D01*
X174482818Y-117946787D01*
X171179605Y-121250000D01*
X171193748Y-121264143D01*
X171014143Y-121443748D01*
X171000000Y-121429605D01*
X167696787Y-124732818D01*
X168188946Y-125335149D01*
X169039933Y-125805063D01*
X169935051Y-126090000D01*
X107276924Y-126090000D01*
X108084938Y-125856893D01*
X108948440Y-125410394D01*
X109061054Y-125335149D01*
X109553213Y-124732818D01*
X106250000Y-121429605D01*
X106235858Y-121443748D01*
X106056253Y-121264143D01*
X106070395Y-121250000D01*
X106429605Y-121250000D01*
X109732818Y-124553213D01*
X110335149Y-124061054D01*
X110805063Y-123210067D01*
X111099929Y-122283757D01*
X111208414Y-121317719D01*
X111126351Y-120349079D01*
X110881398Y-119500000D01*
X115661928Y-119500000D01*
X115661928Y-122100000D01*
X115674188Y-122224482D01*
X115710498Y-122344180D01*
X115769463Y-122454494D01*
X115848815Y-122551185D01*
X115945506Y-122630537D01*
X116055820Y-122689502D01*
X116175518Y-122725812D01*
X116300000Y-122738072D01*
X118900000Y-122738072D01*
X119024482Y-122725812D01*
X119144180Y-122689502D01*
X119254494Y-122630537D01*
X119351185Y-122551185D01*
X119430537Y-122454494D01*
X119489502Y-122344180D01*
X119525812Y-122224482D01*
X119538072Y-122100000D01*
X119538072Y-120609419D01*
X120745000Y-120609419D01*
X120745000Y-120990581D01*
X120819361Y-121364419D01*
X120965225Y-121716566D01*
X121176987Y-122033491D01*
X121446509Y-122303013D01*
X121763434Y-122514775D01*
X122115581Y-122660639D01*
X122489419Y-122735000D01*
X122870581Y-122735000D01*
X123244419Y-122660639D01*
X123596566Y-122514775D01*
X123913491Y-122303013D01*
X124183013Y-122033491D01*
X124394775Y-121716566D01*
X124540639Y-121364419D01*
X124615000Y-120990581D01*
X124615000Y-120609419D01*
X125825000Y-120609419D01*
X125825000Y-120990581D01*
X125899361Y-121364419D01*
X126045225Y-121716566D01*
X126256987Y-122033491D01*
X126526509Y-122303013D01*
X126843434Y-122514775D01*
X127195581Y-122660639D01*
X127569419Y-122735000D01*
X127950581Y-122735000D01*
X128324419Y-122660639D01*
X128676566Y-122514775D01*
X128993491Y-122303013D01*
X129147280Y-122149224D01*
X131670381Y-122149224D01*
X131802317Y-122444312D01*
X132143045Y-122615159D01*
X132510557Y-122716250D01*
X132890729Y-122743701D01*
X132993290Y-122730890D01*
X163060048Y-122730890D01*
X163060048Y-122977110D01*
X163108083Y-123218598D01*
X163202307Y-123446074D01*
X163339099Y-123650798D01*
X163513202Y-123824901D01*
X163717926Y-123961693D01*
X163945402Y-124055917D01*
X164186890Y-124103952D01*
X164433110Y-124103952D01*
X164674598Y-124055917D01*
X164902074Y-123961693D01*
X165106798Y-123824901D01*
X165280901Y-123650798D01*
X165417693Y-123446074D01*
X165511917Y-123218598D01*
X165559952Y-122977110D01*
X165559952Y-122730890D01*
X165511917Y-122489402D01*
X165417693Y-122261926D01*
X165280901Y-122057202D01*
X165106798Y-121883099D01*
X164902074Y-121746307D01*
X164674598Y-121652083D01*
X164433110Y-121604048D01*
X164186890Y-121604048D01*
X163945402Y-121652083D01*
X163717926Y-121746307D01*
X163513202Y-121883099D01*
X163339099Y-122057202D01*
X163202307Y-122261926D01*
X163108083Y-122489402D01*
X163060048Y-122730890D01*
X132993290Y-122730890D01*
X133268951Y-122696457D01*
X133630690Y-122576333D01*
X133877683Y-122444312D01*
X134009619Y-122149224D01*
X132840000Y-120979605D01*
X131670381Y-122149224D01*
X129147280Y-122149224D01*
X129263013Y-122033491D01*
X129474775Y-121716566D01*
X129620639Y-121364419D01*
X129695000Y-120990581D01*
X129695000Y-120850729D01*
X130896299Y-120850729D01*
X130943543Y-121228951D01*
X131063667Y-121590690D01*
X131195688Y-121837683D01*
X131490776Y-121969619D01*
X132660395Y-120800000D01*
X133019605Y-120800000D01*
X134189224Y-121969619D01*
X134484312Y-121837683D01*
X134655159Y-121496955D01*
X134741715Y-121182281D01*
X166041586Y-121182281D01*
X166123649Y-122150921D01*
X166393107Y-123084938D01*
X166839606Y-123948440D01*
X166914851Y-124061054D01*
X167517182Y-124553213D01*
X170820395Y-121250000D01*
X167517182Y-117946787D01*
X166914851Y-118438946D01*
X166444937Y-119289933D01*
X166150071Y-120216243D01*
X166041586Y-121182281D01*
X134741715Y-121182281D01*
X134756250Y-121129443D01*
X134783701Y-120749271D01*
X134736457Y-120371049D01*
X134616333Y-120009310D01*
X134484312Y-119762317D01*
X134189224Y-119630381D01*
X133019605Y-120800000D01*
X132660395Y-120800000D01*
X131490776Y-119630381D01*
X131195688Y-119762317D01*
X131024841Y-120103045D01*
X130923750Y-120470557D01*
X130896299Y-120850729D01*
X129695000Y-120850729D01*
X129695000Y-120609419D01*
X129620639Y-120235581D01*
X129474775Y-119883434D01*
X129263013Y-119566509D01*
X129147280Y-119450776D01*
X131670381Y-119450776D01*
X132840000Y-120620395D01*
X134009619Y-119450776D01*
X133877683Y-119155688D01*
X133536955Y-118984841D01*
X133169443Y-118883750D01*
X132789271Y-118856299D01*
X132411049Y-118903543D01*
X132049310Y-119023667D01*
X131802317Y-119155688D01*
X131670381Y-119450776D01*
X129147280Y-119450776D01*
X128993491Y-119296987D01*
X128676566Y-119085225D01*
X128324419Y-118939361D01*
X127950581Y-118865000D01*
X127569419Y-118865000D01*
X127195581Y-118939361D01*
X126843434Y-119085225D01*
X126526509Y-119296987D01*
X126256987Y-119566509D01*
X126045225Y-119883434D01*
X125899361Y-120235581D01*
X125825000Y-120609419D01*
X124615000Y-120609419D01*
X124540639Y-120235581D01*
X124394775Y-119883434D01*
X124183013Y-119566509D01*
X123913491Y-119296987D01*
X123596566Y-119085225D01*
X123244419Y-118939361D01*
X122870581Y-118865000D01*
X122489419Y-118865000D01*
X122115581Y-118939361D01*
X121763434Y-119085225D01*
X121446509Y-119296987D01*
X121176987Y-119566509D01*
X120965225Y-119883434D01*
X120819361Y-120235581D01*
X120745000Y-120609419D01*
X119538072Y-120609419D01*
X119538072Y-119500000D01*
X119525812Y-119375518D01*
X119489502Y-119255820D01*
X119430537Y-119145506D01*
X119351185Y-119048815D01*
X119254494Y-118969463D01*
X119144180Y-118910498D01*
X119024482Y-118874188D01*
X118900000Y-118861928D01*
X116300000Y-118861928D01*
X116175518Y-118874188D01*
X116055820Y-118910498D01*
X115945506Y-118969463D01*
X115848815Y-119048815D01*
X115769463Y-119145506D01*
X115710498Y-119255820D01*
X115674188Y-119375518D01*
X115661928Y-119500000D01*
X110881398Y-119500000D01*
X110856893Y-119415062D01*
X110410394Y-118551560D01*
X110335149Y-118438946D01*
X109732818Y-117946787D01*
X106429605Y-121250000D01*
X106070395Y-121250000D01*
X102767182Y-117946787D01*
X102164851Y-118438946D01*
X101694937Y-119289933D01*
X101410000Y-120185051D01*
X101410000Y-117767182D01*
X102946787Y-117767182D01*
X106250000Y-121070395D01*
X109553213Y-117767182D01*
X109061054Y-117164851D01*
X108210067Y-116694937D01*
X107283757Y-116400071D01*
X106317719Y-116291586D01*
X105349079Y-116373649D01*
X104415062Y-116643107D01*
X103551560Y-117089606D01*
X103438946Y-117164851D01*
X102946787Y-117767182D01*
X101410000Y-117767182D01*
X101410000Y-115518061D01*
X147055000Y-115518061D01*
X147055000Y-115721939D01*
X147094774Y-115921898D01*
X147172795Y-116110256D01*
X147286063Y-116279774D01*
X147396289Y-116390000D01*
X147296063Y-116490226D01*
X147182795Y-116659744D01*
X147104774Y-116848102D01*
X147065000Y-117048061D01*
X147065000Y-117251939D01*
X147104774Y-117451898D01*
X147182795Y-117640256D01*
X147296063Y-117809774D01*
X147440226Y-117953937D01*
X147609744Y-118067205D01*
X147798102Y-118145226D01*
X147998061Y-118185000D01*
X148109478Y-118185000D01*
X148090048Y-118282682D01*
X147980226Y-118356063D01*
X147836063Y-118500226D01*
X147722795Y-118669744D01*
X147644774Y-118858102D01*
X147605000Y-119058061D01*
X147605000Y-119261939D01*
X147644774Y-119461898D01*
X147722795Y-119650256D01*
X147836063Y-119819774D01*
X147980226Y-119963937D01*
X148149744Y-120077205D01*
X148338102Y-120155226D01*
X148538061Y-120195000D01*
X148741939Y-120195000D01*
X148941898Y-120155226D01*
X149130256Y-120077205D01*
X149299774Y-119963937D01*
X149443937Y-119819774D01*
X149557205Y-119650256D01*
X149635226Y-119461898D01*
X149669952Y-119287318D01*
X149779774Y-119213937D01*
X149923937Y-119069774D01*
X150037205Y-118900256D01*
X150115226Y-118711898D01*
X150155000Y-118511939D01*
X150155000Y-118308061D01*
X150115226Y-118108102D01*
X150037205Y-117919744D01*
X149923937Y-117750226D01*
X149779774Y-117606063D01*
X149610256Y-117492795D01*
X149421898Y-117414774D01*
X149221939Y-117375000D01*
X149110522Y-117375000D01*
X149135000Y-117251939D01*
X149135000Y-117048061D01*
X149095226Y-116848102D01*
X149017205Y-116659744D01*
X148903937Y-116490226D01*
X148793711Y-116380000D01*
X148893937Y-116279774D01*
X149007205Y-116110256D01*
X149085226Y-115921898D01*
X149125000Y-115721939D01*
X149125000Y-115558061D01*
X150395000Y-115558061D01*
X150395000Y-115761939D01*
X150434774Y-115961898D01*
X150512795Y-116150256D01*
X150626063Y-116319774D01*
X150726289Y-116420000D01*
X150626063Y-116520226D01*
X150512795Y-116689744D01*
X150434774Y-116878102D01*
X150395000Y-117078061D01*
X150395000Y-117281939D01*
X150434774Y-117481898D01*
X150512795Y-117670256D01*
X150626063Y-117839774D01*
X150770226Y-117983937D01*
X150939744Y-118097205D01*
X151128102Y-118175226D01*
X151328061Y-118215000D01*
X151471576Y-118215000D01*
X151504774Y-118381898D01*
X151582795Y-118570256D01*
X151696063Y-118739774D01*
X151840226Y-118883937D01*
X152009744Y-118997205D01*
X152198102Y-119075226D01*
X152252240Y-119085995D01*
X152208102Y-119094774D01*
X152019744Y-119172795D01*
X151850226Y-119286063D01*
X151706063Y-119430226D01*
X151592795Y-119599744D01*
X151514774Y-119788102D01*
X151475000Y-119988061D01*
X151475000Y-120191939D01*
X151514774Y-120391898D01*
X151592795Y-120580256D01*
X151706063Y-120749774D01*
X151850226Y-120893937D01*
X152019744Y-121007205D01*
X152208102Y-121085226D01*
X152408061Y-121125000D01*
X152611939Y-121125000D01*
X152811898Y-121085226D01*
X153000256Y-121007205D01*
X153169774Y-120893937D01*
X153313937Y-120749774D01*
X153427205Y-120580256D01*
X153505226Y-120391898D01*
X153545000Y-120191939D01*
X153545000Y-119988061D01*
X153505226Y-119788102D01*
X153427205Y-119599744D01*
X153313937Y-119430226D01*
X153169774Y-119286063D01*
X153000256Y-119172795D01*
X152811898Y-119094774D01*
X152757760Y-119084005D01*
X152801898Y-119075226D01*
X152990256Y-118997205D01*
X153159774Y-118883937D01*
X153303937Y-118739774D01*
X153417205Y-118570256D01*
X153495226Y-118381898D01*
X153535000Y-118181939D01*
X153535000Y-117978061D01*
X153495226Y-117778102D01*
X153490703Y-117767182D01*
X167696787Y-117767182D01*
X171000000Y-121070395D01*
X174303213Y-117767182D01*
X173811054Y-117164851D01*
X172960067Y-116694937D01*
X172033757Y-116400071D01*
X171067719Y-116291586D01*
X170099079Y-116373649D01*
X169165062Y-116643107D01*
X168301560Y-117089606D01*
X168188946Y-117164851D01*
X167696787Y-117767182D01*
X153490703Y-117767182D01*
X153417205Y-117589744D01*
X153303937Y-117420226D01*
X153159774Y-117276063D01*
X152990256Y-117162795D01*
X152801898Y-117084774D01*
X152601939Y-117045000D01*
X152458424Y-117045000D01*
X152425226Y-116878102D01*
X152347205Y-116689744D01*
X152233937Y-116520226D01*
X152133711Y-116420000D01*
X152233937Y-116319774D01*
X152347205Y-116150256D01*
X152425226Y-115961898D01*
X152465000Y-115761939D01*
X152465000Y-115558061D01*
X152425226Y-115358102D01*
X152347205Y-115169744D01*
X152233937Y-115000226D01*
X152089774Y-114856063D01*
X151920256Y-114742795D01*
X151731898Y-114664774D01*
X151531939Y-114625000D01*
X151328061Y-114625000D01*
X151128102Y-114664774D01*
X150939744Y-114742795D01*
X150770226Y-114856063D01*
X150626063Y-115000226D01*
X150512795Y-115169744D01*
X150434774Y-115358102D01*
X150395000Y-115558061D01*
X149125000Y-115558061D01*
X149125000Y-115518061D01*
X149085226Y-115318102D01*
X149007205Y-115129744D01*
X148893937Y-114960226D01*
X148749774Y-114816063D01*
X148580256Y-114702795D01*
X148391898Y-114624774D01*
X148191939Y-114585000D01*
X147988061Y-114585000D01*
X147788102Y-114624774D01*
X147599744Y-114702795D01*
X147430226Y-114816063D01*
X147286063Y-114960226D01*
X147172795Y-115129744D01*
X147094774Y-115318102D01*
X147055000Y-115518061D01*
X101410000Y-115518061D01*
X101410000Y-113478061D01*
X153185000Y-113478061D01*
X153185000Y-113681939D01*
X153224774Y-113881898D01*
X153302795Y-114070256D01*
X153416063Y-114239774D01*
X153560226Y-114383937D01*
X153729744Y-114497205D01*
X153918102Y-114575226D01*
X154118061Y-114615000D01*
X154321939Y-114615000D01*
X154521898Y-114575226D01*
X154710256Y-114497205D01*
X154879774Y-114383937D01*
X155023937Y-114239774D01*
X155137205Y-114070256D01*
X155142256Y-114058061D01*
X156555000Y-114058061D01*
X156555000Y-114261939D01*
X156594774Y-114461898D01*
X156672795Y-114650256D01*
X156723729Y-114726484D01*
X156714774Y-114748102D01*
X156675000Y-114948061D01*
X156675000Y-115151939D01*
X156714774Y-115351898D01*
X156792795Y-115540256D01*
X156906063Y-115709774D01*
X157050226Y-115853937D01*
X157219744Y-115967205D01*
X157408102Y-116045226D01*
X157608061Y-116085000D01*
X157811939Y-116085000D01*
X158011898Y-116045226D01*
X158200256Y-115967205D01*
X158369774Y-115853937D01*
X158513937Y-115709774D01*
X158627205Y-115540256D01*
X158705226Y-115351898D01*
X158745000Y-115151939D01*
X158745000Y-114948061D01*
X158705226Y-114748102D01*
X158627205Y-114559744D01*
X158576271Y-114483516D01*
X158585226Y-114461898D01*
X158625000Y-114261939D01*
X158625000Y-114058061D01*
X158585226Y-113858102D01*
X158507205Y-113669744D01*
X158393937Y-113500226D01*
X158249774Y-113356063D01*
X158080256Y-113242795D01*
X157891898Y-113164774D01*
X157691939Y-113125000D01*
X157488061Y-113125000D01*
X157288102Y-113164774D01*
X157099744Y-113242795D01*
X156930226Y-113356063D01*
X156786063Y-113500226D01*
X156672795Y-113669744D01*
X156594774Y-113858102D01*
X156555000Y-114058061D01*
X155142256Y-114058061D01*
X155215226Y-113881898D01*
X155255000Y-113681939D01*
X155255000Y-113478061D01*
X155215226Y-113278102D01*
X155137205Y-113089744D01*
X155023937Y-112920226D01*
X154879774Y-112776063D01*
X154710256Y-112662795D01*
X154521898Y-112584774D01*
X154321939Y-112545000D01*
X154118061Y-112545000D01*
X153918102Y-112584774D01*
X153729744Y-112662795D01*
X153560226Y-112776063D01*
X153416063Y-112920226D01*
X153302795Y-113089744D01*
X153224774Y-113278102D01*
X153185000Y-113478061D01*
X101410000Y-113478061D01*
X101410000Y-109818061D01*
X156465000Y-109818061D01*
X156465000Y-110021939D01*
X156504774Y-110221898D01*
X156582795Y-110410256D01*
X156696063Y-110579774D01*
X156840226Y-110723937D01*
X157009744Y-110837205D01*
X157198102Y-110915226D01*
X157398061Y-110955000D01*
X157601939Y-110955000D01*
X157801898Y-110915226D01*
X157990256Y-110837205D01*
X158159774Y-110723937D01*
X158303937Y-110579774D01*
X158417205Y-110410256D01*
X158495226Y-110221898D01*
X158535000Y-110021939D01*
X158535000Y-109818061D01*
X158495226Y-109618102D01*
X158417205Y-109429744D01*
X158303937Y-109260226D01*
X158243711Y-109200000D01*
X168961928Y-109200000D01*
X168961928Y-111600000D01*
X168974188Y-111724482D01*
X169010498Y-111844180D01*
X169069463Y-111954494D01*
X169148815Y-112051185D01*
X169245506Y-112130537D01*
X169355820Y-112189502D01*
X169475518Y-112225812D01*
X169600000Y-112238072D01*
X172000000Y-112238072D01*
X172124482Y-112225812D01*
X172244180Y-112189502D01*
X172354494Y-112130537D01*
X172451185Y-112051185D01*
X172530537Y-111954494D01*
X172589502Y-111844180D01*
X172625812Y-111724482D01*
X172638072Y-111600000D01*
X172638072Y-109200000D01*
X172625812Y-109075518D01*
X172589502Y-108955820D01*
X172530537Y-108845506D01*
X172451185Y-108748815D01*
X172354494Y-108669463D01*
X172244180Y-108610498D01*
X172124482Y-108574188D01*
X172000000Y-108561928D01*
X171593097Y-108561928D01*
X171778486Y-108462836D01*
X171898374Y-108177980D01*
X170800000Y-107079605D01*
X169701626Y-108177980D01*
X169821514Y-108462836D01*
X170020912Y-108561928D01*
X169600000Y-108561928D01*
X169475518Y-108574188D01*
X169355820Y-108610498D01*
X169245506Y-108669463D01*
X169148815Y-108748815D01*
X169069463Y-108845506D01*
X169010498Y-108955820D01*
X168974188Y-109075518D01*
X168961928Y-109200000D01*
X158243711Y-109200000D01*
X158159774Y-109116063D01*
X157990256Y-109002795D01*
X157801898Y-108924774D01*
X157601939Y-108885000D01*
X157398061Y-108885000D01*
X157198102Y-108924774D01*
X157009744Y-109002795D01*
X156840226Y-109116063D01*
X156696063Y-109260226D01*
X156582795Y-109429744D01*
X156504774Y-109618102D01*
X156465000Y-109818061D01*
X101410000Y-109818061D01*
X101410000Y-107128061D01*
X123105000Y-107128061D01*
X123105000Y-107331939D01*
X123144774Y-107531898D01*
X123222795Y-107720256D01*
X123336063Y-107889774D01*
X123480226Y-108033937D01*
X123649744Y-108147205D01*
X123838102Y-108225226D01*
X124038061Y-108265000D01*
X124241939Y-108265000D01*
X124441898Y-108225226D01*
X124630256Y-108147205D01*
X124799774Y-108033937D01*
X124943937Y-107889774D01*
X125057205Y-107720256D01*
X125135226Y-107531898D01*
X125175000Y-107331939D01*
X125175000Y-107128061D01*
X125135226Y-106928102D01*
X125057205Y-106739744D01*
X124943937Y-106570226D01*
X124799774Y-106426063D01*
X124668070Y-106338061D01*
X129895000Y-106338061D01*
X129895000Y-106541939D01*
X129934774Y-106741898D01*
X130012795Y-106930256D01*
X130126063Y-107099774D01*
X130270226Y-107243937D01*
X130439744Y-107357205D01*
X130628102Y-107435226D01*
X130828061Y-107475000D01*
X131031939Y-107475000D01*
X131231898Y-107435226D01*
X131420256Y-107357205D01*
X131589774Y-107243937D01*
X131733937Y-107099774D01*
X131830882Y-106954684D01*
X168956933Y-106954684D01*
X169003015Y-107313198D01*
X169118154Y-107655833D01*
X169237164Y-107878486D01*
X169522020Y-107998374D01*
X170620395Y-106900000D01*
X170979605Y-106900000D01*
X172077980Y-107998374D01*
X172362836Y-107878486D01*
X172523699Y-107554790D01*
X172618322Y-107205931D01*
X172643067Y-106845316D01*
X172596985Y-106486802D01*
X172481846Y-106144167D01*
X172362836Y-105921514D01*
X172077980Y-105801626D01*
X170979605Y-106900000D01*
X170620395Y-106900000D01*
X169522020Y-105801626D01*
X169237164Y-105921514D01*
X169076301Y-106245210D01*
X168981678Y-106594069D01*
X168956933Y-106954684D01*
X131830882Y-106954684D01*
X131847205Y-106930256D01*
X131925226Y-106741898D01*
X131965000Y-106541939D01*
X131965000Y-106338061D01*
X131925226Y-106138102D01*
X131847205Y-105949744D01*
X131733937Y-105780226D01*
X131589774Y-105636063D01*
X131568758Y-105622020D01*
X169701626Y-105622020D01*
X170800000Y-106720395D01*
X171898374Y-105622020D01*
X171778486Y-105337164D01*
X171454790Y-105176301D01*
X171105931Y-105081678D01*
X170745316Y-105056933D01*
X170386802Y-105103015D01*
X170044167Y-105218154D01*
X169821514Y-105337164D01*
X169701626Y-105622020D01*
X131568758Y-105622020D01*
X131420256Y-105522795D01*
X131231898Y-105444774D01*
X131031939Y-105405000D01*
X130828061Y-105405000D01*
X130628102Y-105444774D01*
X130439744Y-105522795D01*
X130270226Y-105636063D01*
X130126063Y-105780226D01*
X130012795Y-105949744D01*
X129934774Y-106138102D01*
X129895000Y-106338061D01*
X124668070Y-106338061D01*
X124630256Y-106312795D01*
X124441898Y-106234774D01*
X124241939Y-106195000D01*
X124038061Y-106195000D01*
X123838102Y-106234774D01*
X123649744Y-106312795D01*
X123480226Y-106426063D01*
X123336063Y-106570226D01*
X123222795Y-106739744D01*
X123144774Y-106928102D01*
X123105000Y-107128061D01*
X101410000Y-107128061D01*
X101410000Y-103198061D01*
X114215000Y-103198061D01*
X114215000Y-103401939D01*
X114254774Y-103601898D01*
X114332795Y-103790256D01*
X114446063Y-103959774D01*
X114590226Y-104103937D01*
X114695000Y-104173945D01*
X114695000Y-104231939D01*
X114734774Y-104431898D01*
X114812795Y-104620256D01*
X114926063Y-104789774D01*
X115070226Y-104933937D01*
X115239744Y-105047205D01*
X115428102Y-105125226D01*
X115628061Y-105165000D01*
X115831939Y-105165000D01*
X116031898Y-105125226D01*
X116220256Y-105047205D01*
X116389774Y-104933937D01*
X116533937Y-104789774D01*
X116647205Y-104620256D01*
X116725226Y-104431898D01*
X116765000Y-104231939D01*
X116765000Y-104028061D01*
X116725226Y-103828102D01*
X116647205Y-103639744D01*
X116533937Y-103470226D01*
X116389774Y-103326063D01*
X116285000Y-103256055D01*
X116285000Y-103238061D01*
X121305000Y-103238061D01*
X121305000Y-103441939D01*
X121344774Y-103641898D01*
X121422795Y-103830256D01*
X121536063Y-103999774D01*
X121680226Y-104143937D01*
X121849744Y-104257205D01*
X122038102Y-104335226D01*
X122238061Y-104375000D01*
X122441939Y-104375000D01*
X122641898Y-104335226D01*
X122830256Y-104257205D01*
X122999774Y-104143937D01*
X123143937Y-103999774D01*
X123257205Y-103830256D01*
X123335226Y-103641898D01*
X123375000Y-103441939D01*
X123375000Y-103428061D01*
X132885000Y-103428061D01*
X132885000Y-103631939D01*
X132924774Y-103831898D01*
X133002795Y-104020256D01*
X133116063Y-104189774D01*
X133260226Y-104333937D01*
X133429744Y-104447205D01*
X133618102Y-104525226D01*
X133818061Y-104565000D01*
X134021939Y-104565000D01*
X134221898Y-104525226D01*
X134410256Y-104447205D01*
X134579774Y-104333937D01*
X134723937Y-104189774D01*
X134837205Y-104020256D01*
X134915226Y-103831898D01*
X134955000Y-103631939D01*
X134955000Y-103428061D01*
X134915226Y-103228102D01*
X134837205Y-103039744D01*
X134723937Y-102870226D01*
X134579774Y-102726063D01*
X134410256Y-102612795D01*
X134221898Y-102534774D01*
X134021939Y-102495000D01*
X133818061Y-102495000D01*
X133618102Y-102534774D01*
X133429744Y-102612795D01*
X133260226Y-102726063D01*
X133116063Y-102870226D01*
X133002795Y-103039744D01*
X132924774Y-103228102D01*
X132885000Y-103428061D01*
X123375000Y-103428061D01*
X123375000Y-103238061D01*
X123335226Y-103038102D01*
X123257205Y-102849744D01*
X123143937Y-102680226D01*
X122999774Y-102536063D01*
X122830256Y-102422795D01*
X122641898Y-102344774D01*
X122441939Y-102305000D01*
X122238061Y-102305000D01*
X122038102Y-102344774D01*
X121849744Y-102422795D01*
X121680226Y-102536063D01*
X121536063Y-102680226D01*
X121422795Y-102849744D01*
X121344774Y-103038102D01*
X121305000Y-103238061D01*
X116285000Y-103238061D01*
X116285000Y-103198061D01*
X116245226Y-102998102D01*
X116167205Y-102809744D01*
X116053937Y-102640226D01*
X115909774Y-102496063D01*
X115740256Y-102382795D01*
X115551898Y-102304774D01*
X115351939Y-102265000D01*
X115148061Y-102265000D01*
X114948102Y-102304774D01*
X114759744Y-102382795D01*
X114590226Y-102496063D01*
X114446063Y-102640226D01*
X114332795Y-102809744D01*
X114254774Y-102998102D01*
X114215000Y-103198061D01*
X101410000Y-103198061D01*
X101410000Y-98728061D01*
X134285000Y-98728061D01*
X134285000Y-98931939D01*
X134324774Y-99131898D01*
X134402795Y-99320256D01*
X134516063Y-99489774D01*
X134660226Y-99633937D01*
X134829744Y-99747205D01*
X135018102Y-99825226D01*
X135218061Y-99865000D01*
X135251715Y-99865000D01*
X135359726Y-100026650D01*
X135503889Y-100170813D01*
X135673407Y-100284081D01*
X135861765Y-100362102D01*
X136061724Y-100401876D01*
X136265602Y-100401876D01*
X136465561Y-100362102D01*
X136653919Y-100284081D01*
X136823437Y-100170813D01*
X136967600Y-100026650D01*
X137080868Y-99857132D01*
X137158889Y-99668774D01*
X137198663Y-99468815D01*
X137198663Y-99264937D01*
X137158889Y-99064978D01*
X137080868Y-98876620D01*
X136967600Y-98707102D01*
X136898559Y-98638061D01*
X142315000Y-98638061D01*
X142315000Y-98841939D01*
X142354774Y-99041898D01*
X142432795Y-99230256D01*
X142546063Y-99399774D01*
X142690226Y-99543937D01*
X142859744Y-99657205D01*
X143048102Y-99735226D01*
X143248061Y-99775000D01*
X143451939Y-99775000D01*
X143651898Y-99735226D01*
X143840256Y-99657205D01*
X144009774Y-99543937D01*
X144153937Y-99399774D01*
X144267205Y-99230256D01*
X144345226Y-99041898D01*
X144385000Y-98841939D01*
X144385000Y-98638061D01*
X144345226Y-98438102D01*
X144267205Y-98249744D01*
X144153937Y-98080226D01*
X144009774Y-97936063D01*
X143840256Y-97822795D01*
X143651898Y-97744774D01*
X143451939Y-97705000D01*
X143248061Y-97705000D01*
X143048102Y-97744774D01*
X142859744Y-97822795D01*
X142690226Y-97936063D01*
X142546063Y-98080226D01*
X142432795Y-98249744D01*
X142354774Y-98438102D01*
X142315000Y-98638061D01*
X136898559Y-98638061D01*
X136823437Y-98562939D01*
X136653919Y-98449671D01*
X136465561Y-98371650D01*
X136265602Y-98331876D01*
X136231948Y-98331876D01*
X136123937Y-98170226D01*
X135979774Y-98026063D01*
X135810256Y-97912795D01*
X135621898Y-97834774D01*
X135421939Y-97795000D01*
X135218061Y-97795000D01*
X135018102Y-97834774D01*
X134829744Y-97912795D01*
X134660226Y-98026063D01*
X134516063Y-98170226D01*
X134402795Y-98339744D01*
X134324774Y-98528102D01*
X134285000Y-98728061D01*
X101410000Y-98728061D01*
X101410000Y-95610524D01*
X121020000Y-95610524D01*
X121020000Y-95809476D01*
X121058814Y-96004606D01*
X121134950Y-96188414D01*
X121245482Y-96353837D01*
X121386163Y-96494518D01*
X121551586Y-96605050D01*
X121735394Y-96681186D01*
X121930524Y-96720000D01*
X122129476Y-96720000D01*
X122324606Y-96681186D01*
X122508414Y-96605050D01*
X122518873Y-96598061D01*
X123695000Y-96598061D01*
X123695000Y-96801939D01*
X123734774Y-97001898D01*
X123812795Y-97190256D01*
X123926063Y-97359774D01*
X124070226Y-97503937D01*
X124239744Y-97617205D01*
X124428102Y-97695226D01*
X124628061Y-97735000D01*
X124831939Y-97735000D01*
X125031898Y-97695226D01*
X125220256Y-97617205D01*
X125389774Y-97503937D01*
X125533937Y-97359774D01*
X125647205Y-97190256D01*
X125725226Y-97001898D01*
X125742111Y-96917009D01*
X125901898Y-96885226D01*
X125931266Y-96873061D01*
X126840000Y-96873061D01*
X126840000Y-97076939D01*
X126879774Y-97276898D01*
X126957795Y-97465256D01*
X127071063Y-97634774D01*
X127215226Y-97778937D01*
X127384744Y-97892205D01*
X127573102Y-97970226D01*
X127773061Y-98010000D01*
X127976939Y-98010000D01*
X128176898Y-97970226D01*
X128365256Y-97892205D01*
X128534774Y-97778937D01*
X128678937Y-97634774D01*
X128792205Y-97465256D01*
X128870226Y-97276898D01*
X128910000Y-97076939D01*
X128910000Y-96873061D01*
X128870226Y-96673102D01*
X128814290Y-96538061D01*
X137735000Y-96538061D01*
X137735000Y-96741939D01*
X137774774Y-96941898D01*
X137852795Y-97130256D01*
X137966063Y-97299774D01*
X138110226Y-97443937D01*
X138279744Y-97557205D01*
X138468102Y-97635226D01*
X138668061Y-97675000D01*
X138871939Y-97675000D01*
X139071898Y-97635226D01*
X139260256Y-97557205D01*
X139429774Y-97443937D01*
X139573937Y-97299774D01*
X139623899Y-97225000D01*
X139691939Y-97225000D01*
X139891898Y-97185226D01*
X140080256Y-97107205D01*
X140249774Y-96993937D01*
X140393937Y-96849774D01*
X140507205Y-96680256D01*
X140585226Y-96491898D01*
X140625000Y-96291939D01*
X140625000Y-96088061D01*
X140585226Y-95888102D01*
X140507205Y-95699744D01*
X140393937Y-95530226D01*
X140249774Y-95386063D01*
X140080256Y-95272795D01*
X139891898Y-95194774D01*
X139691939Y-95155000D01*
X139488061Y-95155000D01*
X139288102Y-95194774D01*
X139099744Y-95272795D01*
X138930226Y-95386063D01*
X138786063Y-95530226D01*
X138736101Y-95605000D01*
X138668061Y-95605000D01*
X138468102Y-95644774D01*
X138279744Y-95722795D01*
X138110226Y-95836063D01*
X137966063Y-95980226D01*
X137852795Y-96149744D01*
X137774774Y-96338102D01*
X137735000Y-96538061D01*
X128814290Y-96538061D01*
X128792205Y-96484744D01*
X128678937Y-96315226D01*
X128534774Y-96171063D01*
X128365256Y-96057795D01*
X128176898Y-95979774D01*
X127976939Y-95940000D01*
X127773061Y-95940000D01*
X127573102Y-95979774D01*
X127384744Y-96057795D01*
X127215226Y-96171063D01*
X127071063Y-96315226D01*
X126957795Y-96484744D01*
X126879774Y-96673102D01*
X126840000Y-96873061D01*
X125931266Y-96873061D01*
X126090256Y-96807205D01*
X126259774Y-96693937D01*
X126403937Y-96549774D01*
X126517205Y-96380256D01*
X126595226Y-96191898D01*
X126635000Y-95991939D01*
X126635000Y-95788061D01*
X126595226Y-95588102D01*
X126517205Y-95399744D01*
X126403937Y-95230226D01*
X126259774Y-95086063D01*
X126217866Y-95058061D01*
X142955000Y-95058061D01*
X142955000Y-95261939D01*
X142994774Y-95461898D01*
X143072795Y-95650256D01*
X143186063Y-95819774D01*
X143330226Y-95963937D01*
X143499744Y-96077205D01*
X143688102Y-96155226D01*
X143888061Y-96195000D01*
X144091939Y-96195000D01*
X144291898Y-96155226D01*
X144480256Y-96077205D01*
X144649774Y-95963937D01*
X144793937Y-95819774D01*
X144907205Y-95650256D01*
X144985226Y-95461898D01*
X145025000Y-95261939D01*
X145025000Y-95058061D01*
X144985226Y-94858102D01*
X144907205Y-94669744D01*
X144793937Y-94500226D01*
X144649774Y-94356063D01*
X144480256Y-94242795D01*
X144291898Y-94164774D01*
X144091939Y-94125000D01*
X143888061Y-94125000D01*
X143688102Y-94164774D01*
X143499744Y-94242795D01*
X143330226Y-94356063D01*
X143186063Y-94500226D01*
X143072795Y-94669744D01*
X142994774Y-94858102D01*
X142955000Y-95058061D01*
X126217866Y-95058061D01*
X126090256Y-94972795D01*
X125901898Y-94894774D01*
X125701939Y-94855000D01*
X125498061Y-94855000D01*
X125298102Y-94894774D01*
X125109744Y-94972795D01*
X124940226Y-95086063D01*
X124796063Y-95230226D01*
X124682795Y-95399744D01*
X124604774Y-95588102D01*
X124587889Y-95672991D01*
X124428102Y-95704774D01*
X124239744Y-95782795D01*
X124070226Y-95896063D01*
X123926063Y-96040226D01*
X123812795Y-96209744D01*
X123734774Y-96398102D01*
X123695000Y-96598061D01*
X122518873Y-96598061D01*
X122673837Y-96494518D01*
X122814518Y-96353837D01*
X122925050Y-96188414D01*
X123001186Y-96004606D01*
X123040000Y-95809476D01*
X123040000Y-95610524D01*
X123001186Y-95415394D01*
X122925050Y-95231586D01*
X122814518Y-95066163D01*
X122673837Y-94925482D01*
X122508414Y-94814950D01*
X122324606Y-94738814D01*
X122129476Y-94700000D01*
X121930524Y-94700000D01*
X121735394Y-94738814D01*
X121551586Y-94814950D01*
X121386163Y-94925482D01*
X121245482Y-95066163D01*
X121134950Y-95231586D01*
X121058814Y-95415394D01*
X121020000Y-95610524D01*
X101410000Y-95610524D01*
X101410000Y-93888061D01*
X118765000Y-93888061D01*
X118765000Y-94091939D01*
X118804774Y-94291898D01*
X118882795Y-94480256D01*
X118996063Y-94649774D01*
X119140226Y-94793937D01*
X119309744Y-94907205D01*
X119498102Y-94985226D01*
X119698061Y-95025000D01*
X119901939Y-95025000D01*
X120101898Y-94985226D01*
X120290256Y-94907205D01*
X120459774Y-94793937D01*
X120603937Y-94649774D01*
X120717205Y-94480256D01*
X120795226Y-94291898D01*
X120835000Y-94091939D01*
X120835000Y-94005000D01*
X120911939Y-94005000D01*
X121111898Y-93965226D01*
X121219817Y-93920524D01*
X131540000Y-93920524D01*
X131540000Y-94119476D01*
X131578814Y-94314606D01*
X131654950Y-94498414D01*
X131765482Y-94663837D01*
X131906163Y-94804518D01*
X132071586Y-94915050D01*
X132255394Y-94991186D01*
X132450524Y-95030000D01*
X132649476Y-95030000D01*
X132844606Y-94991186D01*
X133028414Y-94915050D01*
X133193837Y-94804518D01*
X133334518Y-94663837D01*
X133445050Y-94498414D01*
X133521186Y-94314606D01*
X133560000Y-94119476D01*
X133560000Y-94088061D01*
X146395000Y-94088061D01*
X146395000Y-94291939D01*
X146434774Y-94491898D01*
X146512795Y-94680256D01*
X146626063Y-94849774D01*
X146770226Y-94993937D01*
X146939744Y-95107205D01*
X147128102Y-95185226D01*
X147328061Y-95225000D01*
X147531939Y-95225000D01*
X147731898Y-95185226D01*
X147920256Y-95107205D01*
X148089774Y-94993937D01*
X148233937Y-94849774D01*
X148347205Y-94680256D01*
X148425226Y-94491898D01*
X148465000Y-94291939D01*
X148465000Y-94088061D01*
X148425226Y-93888102D01*
X148347205Y-93699744D01*
X148233937Y-93530226D01*
X148089774Y-93386063D01*
X147920256Y-93272795D01*
X147731898Y-93194774D01*
X147531939Y-93155000D01*
X147328061Y-93155000D01*
X147128102Y-93194774D01*
X146939744Y-93272795D01*
X146770226Y-93386063D01*
X146626063Y-93530226D01*
X146512795Y-93699744D01*
X146434774Y-93888102D01*
X146395000Y-94088061D01*
X133560000Y-94088061D01*
X133560000Y-93920524D01*
X133521186Y-93725394D01*
X133445050Y-93541586D01*
X133334518Y-93376163D01*
X133193837Y-93235482D01*
X133028414Y-93124950D01*
X132844606Y-93048814D01*
X132649476Y-93010000D01*
X132450524Y-93010000D01*
X132255394Y-93048814D01*
X132071586Y-93124950D01*
X131906163Y-93235482D01*
X131765482Y-93376163D01*
X131654950Y-93541586D01*
X131578814Y-93725394D01*
X131540000Y-93920524D01*
X121219817Y-93920524D01*
X121300256Y-93887205D01*
X121469774Y-93773937D01*
X121613937Y-93629774D01*
X121727205Y-93460256D01*
X121805226Y-93271898D01*
X121845000Y-93071939D01*
X121845000Y-92868061D01*
X121805226Y-92668102D01*
X121727205Y-92479744D01*
X121703990Y-92445000D01*
X121871939Y-92445000D01*
X122071898Y-92405226D01*
X122260256Y-92327205D01*
X122429774Y-92213937D01*
X122573937Y-92069774D01*
X122687205Y-91900256D01*
X122765226Y-91711898D01*
X122803782Y-91518061D01*
X133915000Y-91518061D01*
X133915000Y-91721939D01*
X133954774Y-91921898D01*
X134032795Y-92110256D01*
X134146063Y-92279774D01*
X134290226Y-92423937D01*
X134459744Y-92537205D01*
X134647572Y-92615006D01*
X134679774Y-92776898D01*
X134757795Y-92965256D01*
X134871063Y-93134774D01*
X135015226Y-93278937D01*
X135184744Y-93392205D01*
X135373102Y-93470226D01*
X135573061Y-93510000D01*
X135776939Y-93510000D01*
X135976898Y-93470226D01*
X136165256Y-93392205D01*
X136334774Y-93278937D01*
X136478937Y-93134774D01*
X136592205Y-92965256D01*
X136670226Y-92776898D01*
X136710000Y-92576939D01*
X136710000Y-92373061D01*
X136670226Y-92173102D01*
X136593579Y-91988061D01*
X140255000Y-91988061D01*
X140255000Y-92191939D01*
X140294774Y-92391898D01*
X140372795Y-92580256D01*
X140486063Y-92749774D01*
X140630226Y-92893937D01*
X140799744Y-93007205D01*
X140988102Y-93085226D01*
X141188061Y-93125000D01*
X141391939Y-93125000D01*
X141591898Y-93085226D01*
X141780256Y-93007205D01*
X141949774Y-92893937D01*
X142093937Y-92749774D01*
X142207205Y-92580256D01*
X142285226Y-92391898D01*
X142325000Y-92191939D01*
X142325000Y-91988061D01*
X142285226Y-91788102D01*
X142207205Y-91599744D01*
X142093937Y-91430226D01*
X141949774Y-91286063D01*
X141780256Y-91172795D01*
X141591898Y-91094774D01*
X141391939Y-91055000D01*
X141188061Y-91055000D01*
X140988102Y-91094774D01*
X140799744Y-91172795D01*
X140630226Y-91286063D01*
X140486063Y-91430226D01*
X140372795Y-91599744D01*
X140294774Y-91788102D01*
X140255000Y-91988061D01*
X136593579Y-91988061D01*
X136592205Y-91984744D01*
X136478937Y-91815226D01*
X136334774Y-91671063D01*
X136279662Y-91634238D01*
X136429774Y-91533937D01*
X136573937Y-91389774D01*
X136687205Y-91220256D01*
X136765226Y-91031898D01*
X136805000Y-90831939D01*
X136805000Y-90628061D01*
X136765226Y-90428102D01*
X136687205Y-90239744D01*
X136573937Y-90070226D01*
X136429774Y-89926063D01*
X136260256Y-89812795D01*
X136071898Y-89734774D01*
X135871939Y-89695000D01*
X135668061Y-89695000D01*
X135468102Y-89734774D01*
X135279744Y-89812795D01*
X135110226Y-89926063D01*
X134966063Y-90070226D01*
X134852795Y-90239744D01*
X134774774Y-90428102D01*
X134739261Y-90606642D01*
X134648102Y-90624774D01*
X134459744Y-90702795D01*
X134290226Y-90816063D01*
X134146063Y-90960226D01*
X134032795Y-91129744D01*
X133954774Y-91318102D01*
X133915000Y-91518061D01*
X122803782Y-91518061D01*
X122805000Y-91511939D01*
X122805000Y-91308061D01*
X122765226Y-91108102D01*
X122687205Y-90919744D01*
X122573937Y-90750226D01*
X122429774Y-90606063D01*
X122260256Y-90492795D01*
X122071898Y-90414774D01*
X121871939Y-90375000D01*
X121668061Y-90375000D01*
X121468102Y-90414774D01*
X121323188Y-90474800D01*
X121290256Y-90452795D01*
X121101898Y-90374774D01*
X120901939Y-90335000D01*
X120698061Y-90335000D01*
X120498102Y-90374774D01*
X120309744Y-90452795D01*
X120140226Y-90566063D01*
X119996063Y-90710226D01*
X119882795Y-90879744D01*
X119804774Y-91068102D01*
X119765000Y-91268061D01*
X119765000Y-91471939D01*
X119804774Y-91671898D01*
X119882795Y-91860256D01*
X119996063Y-92029774D01*
X120140226Y-92173937D01*
X120141500Y-92174789D01*
X120006063Y-92310226D01*
X119892795Y-92479744D01*
X119814774Y-92668102D01*
X119775000Y-92868061D01*
X119775000Y-92955000D01*
X119698061Y-92955000D01*
X119498102Y-92994774D01*
X119309744Y-93072795D01*
X119140226Y-93186063D01*
X118996063Y-93330226D01*
X118882795Y-93499744D01*
X118804774Y-93688102D01*
X118765000Y-93888061D01*
X101410000Y-93888061D01*
X101410000Y-89363137D01*
X101715000Y-89363137D01*
X101715000Y-89576863D01*
X101756696Y-89786483D01*
X101838485Y-89983940D01*
X101957225Y-90161647D01*
X102108353Y-90312775D01*
X102286060Y-90431515D01*
X102483517Y-90513304D01*
X102693137Y-90555000D01*
X102906863Y-90555000D01*
X103116483Y-90513304D01*
X103313940Y-90431515D01*
X103491647Y-90312775D01*
X103642775Y-90161647D01*
X103761515Y-89983940D01*
X103843304Y-89786483D01*
X103885000Y-89576863D01*
X103885000Y-89363137D01*
X103843304Y-89153517D01*
X103761515Y-88956060D01*
X103642775Y-88778353D01*
X103494946Y-88630524D01*
X109990000Y-88630524D01*
X109990000Y-88829476D01*
X110028814Y-89024606D01*
X110104950Y-89208414D01*
X110215482Y-89373837D01*
X110356163Y-89514518D01*
X110521586Y-89625050D01*
X110705394Y-89701186D01*
X110900524Y-89740000D01*
X111099476Y-89740000D01*
X111294606Y-89701186D01*
X111478414Y-89625050D01*
X111518805Y-89598061D01*
X121975000Y-89598061D01*
X121975000Y-89801939D01*
X122014774Y-90001898D01*
X122092795Y-90190256D01*
X122206063Y-90359774D01*
X122350226Y-90503937D01*
X122519744Y-90617205D01*
X122708102Y-90695226D01*
X122908061Y-90735000D01*
X123111939Y-90735000D01*
X123311898Y-90695226D01*
X123500256Y-90617205D01*
X123669774Y-90503937D01*
X123813937Y-90359774D01*
X123927205Y-90190256D01*
X124005226Y-90001898D01*
X124045000Y-89801939D01*
X124045000Y-89608061D01*
X126715000Y-89608061D01*
X126715000Y-89811939D01*
X126754774Y-90011898D01*
X126832795Y-90200256D01*
X126946063Y-90369774D01*
X127090226Y-90513937D01*
X127259744Y-90627205D01*
X127448102Y-90705226D01*
X127648061Y-90745000D01*
X127851939Y-90745000D01*
X128051898Y-90705226D01*
X128240256Y-90627205D01*
X128409774Y-90513937D01*
X128553937Y-90369774D01*
X128667205Y-90200256D01*
X128745226Y-90011898D01*
X128785000Y-89811939D01*
X128785000Y-89608061D01*
X128745226Y-89408102D01*
X128667205Y-89219744D01*
X128553937Y-89050226D01*
X128409774Y-88906063D01*
X128240256Y-88792795D01*
X128051898Y-88714774D01*
X127851939Y-88675000D01*
X127648061Y-88675000D01*
X127448102Y-88714774D01*
X127259744Y-88792795D01*
X127090226Y-88906063D01*
X126946063Y-89050226D01*
X126832795Y-89219744D01*
X126754774Y-89408102D01*
X126715000Y-89608061D01*
X124045000Y-89608061D01*
X124045000Y-89598061D01*
X124005226Y-89398102D01*
X123927205Y-89209744D01*
X123813937Y-89040226D01*
X123669774Y-88896063D01*
X123500256Y-88782795D01*
X123311898Y-88704774D01*
X123111939Y-88665000D01*
X122908061Y-88665000D01*
X122708102Y-88704774D01*
X122519744Y-88782795D01*
X122350226Y-88896063D01*
X122206063Y-89040226D01*
X122092795Y-89209744D01*
X122014774Y-89398102D01*
X121975000Y-89598061D01*
X111518805Y-89598061D01*
X111643837Y-89514518D01*
X111784518Y-89373837D01*
X111895050Y-89208414D01*
X111971186Y-89024606D01*
X112010000Y-88829476D01*
X112010000Y-88630524D01*
X111971186Y-88435394D01*
X111895050Y-88251586D01*
X111784518Y-88086163D01*
X111643837Y-87945482D01*
X111478414Y-87834950D01*
X111294606Y-87758814D01*
X111099476Y-87720000D01*
X110900524Y-87720000D01*
X110705394Y-87758814D01*
X110521586Y-87834950D01*
X110356163Y-87945482D01*
X110215482Y-88086163D01*
X110104950Y-88251586D01*
X110028814Y-88435394D01*
X109990000Y-88630524D01*
X103494946Y-88630524D01*
X103491647Y-88627225D01*
X103313940Y-88508485D01*
X103116483Y-88426696D01*
X102906863Y-88385000D01*
X102693137Y-88385000D01*
X102483517Y-88426696D01*
X102286060Y-88508485D01*
X102108353Y-88627225D01*
X101957225Y-88778353D01*
X101838485Y-88956060D01*
X101756696Y-89153517D01*
X101715000Y-89363137D01*
X101410000Y-89363137D01*
X101410000Y-86363137D01*
X101715000Y-86363137D01*
X101715000Y-86576863D01*
X101756696Y-86786483D01*
X101838485Y-86983940D01*
X101957225Y-87161647D01*
X102108353Y-87312775D01*
X102286060Y-87431515D01*
X102483517Y-87513304D01*
X102693137Y-87555000D01*
X102906863Y-87555000D01*
X103116483Y-87513304D01*
X103313940Y-87431515D01*
X103491647Y-87312775D01*
X103642775Y-87161647D01*
X103761515Y-86983940D01*
X103843304Y-86786483D01*
X103885000Y-86576863D01*
X103885000Y-86363137D01*
X103843304Y-86153517D01*
X103761515Y-85956060D01*
X103642775Y-85778353D01*
X103502483Y-85638061D01*
X104705000Y-85638061D01*
X104705000Y-85841939D01*
X104744774Y-86041898D01*
X104822795Y-86230256D01*
X104936063Y-86399774D01*
X105080226Y-86543937D01*
X105249744Y-86657205D01*
X105438102Y-86735226D01*
X105638061Y-86775000D01*
X105841939Y-86775000D01*
X106041898Y-86735226D01*
X106230256Y-86657205D01*
X106399774Y-86543937D01*
X106543937Y-86399774D01*
X106657205Y-86230256D01*
X106735226Y-86041898D01*
X106775000Y-85841939D01*
X106775000Y-85638061D01*
X106735226Y-85438102D01*
X106657205Y-85249744D01*
X106543937Y-85080226D01*
X106399774Y-84936063D01*
X106230256Y-84822795D01*
X106041898Y-84744774D01*
X105841939Y-84705000D01*
X105638061Y-84705000D01*
X105438102Y-84744774D01*
X105249744Y-84822795D01*
X105080226Y-84936063D01*
X104936063Y-85080226D01*
X104822795Y-85249744D01*
X104744774Y-85438102D01*
X104705000Y-85638061D01*
X103502483Y-85638061D01*
X103491647Y-85627225D01*
X103313940Y-85508485D01*
X103116483Y-85426696D01*
X102906863Y-85385000D01*
X102693137Y-85385000D01*
X102483517Y-85426696D01*
X102286060Y-85508485D01*
X102108353Y-85627225D01*
X101957225Y-85778353D01*
X101838485Y-85956060D01*
X101756696Y-86153517D01*
X101715000Y-86363137D01*
X101410000Y-86363137D01*
X101410000Y-79232818D01*
X102946787Y-79232818D01*
X103438946Y-79835149D01*
X104289933Y-80305063D01*
X105216243Y-80599929D01*
X106182281Y-80708414D01*
X107150921Y-80626351D01*
X107456958Y-80538061D01*
X138155000Y-80538061D01*
X138155000Y-80741939D01*
X138194774Y-80941898D01*
X138272795Y-81130256D01*
X138386063Y-81299774D01*
X138530226Y-81443937D01*
X138699744Y-81557205D01*
X138888102Y-81635226D01*
X139088061Y-81675000D01*
X139291939Y-81675000D01*
X139491898Y-81635226D01*
X139680256Y-81557205D01*
X139849774Y-81443937D01*
X139993937Y-81299774D01*
X140107205Y-81130256D01*
X140185226Y-80941898D01*
X140225000Y-80741939D01*
X140225000Y-80538061D01*
X140185226Y-80338102D01*
X140107205Y-80149744D01*
X139993937Y-79980226D01*
X139849774Y-79836063D01*
X139680256Y-79722795D01*
X139491898Y-79644774D01*
X139291939Y-79605000D01*
X139088061Y-79605000D01*
X138888102Y-79644774D01*
X138699744Y-79722795D01*
X138530226Y-79836063D01*
X138386063Y-79980226D01*
X138272795Y-80149744D01*
X138194774Y-80338102D01*
X138155000Y-80538061D01*
X107456958Y-80538061D01*
X108084938Y-80356893D01*
X108948440Y-79910394D01*
X109061054Y-79835149D01*
X109553213Y-79232818D01*
X167446787Y-79232818D01*
X167938946Y-79835149D01*
X168789933Y-80305063D01*
X169716243Y-80599929D01*
X170682281Y-80708414D01*
X171650921Y-80626351D01*
X172584938Y-80356893D01*
X173448440Y-79910394D01*
X173561054Y-79835149D01*
X174053213Y-79232818D01*
X170750000Y-75929605D01*
X167446787Y-79232818D01*
X109553213Y-79232818D01*
X106250000Y-75929605D01*
X102946787Y-79232818D01*
X101410000Y-79232818D01*
X101410000Y-76776924D01*
X101643107Y-77584938D01*
X102089606Y-78448440D01*
X102164851Y-78561054D01*
X102767182Y-79053213D01*
X106070395Y-75750000D01*
X106429605Y-75750000D01*
X109732818Y-79053213D01*
X110335149Y-78561054D01*
X110805063Y-77710067D01*
X110888095Y-77449224D01*
X116490381Y-77449224D01*
X116622317Y-77744312D01*
X116963045Y-77915159D01*
X117330557Y-78016250D01*
X117710729Y-78043701D01*
X118088951Y-77996457D01*
X118450690Y-77876333D01*
X118697683Y-77744312D01*
X118829619Y-77449224D01*
X117660000Y-76279605D01*
X116490381Y-77449224D01*
X110888095Y-77449224D01*
X111099929Y-76783757D01*
X111208414Y-75817719D01*
X111181234Y-75496890D01*
X111340048Y-75496890D01*
X111340048Y-75743110D01*
X111388083Y-75984598D01*
X111482307Y-76212074D01*
X111619099Y-76416798D01*
X111793202Y-76590901D01*
X111997926Y-76727693D01*
X112225402Y-76821917D01*
X112466890Y-76869952D01*
X112713110Y-76869952D01*
X112954598Y-76821917D01*
X113182074Y-76727693D01*
X113386798Y-76590901D01*
X113560901Y-76416798D01*
X113697693Y-76212074D01*
X113723103Y-76150729D01*
X115716299Y-76150729D01*
X115763543Y-76528951D01*
X115883667Y-76890690D01*
X116015688Y-77137683D01*
X116310776Y-77269619D01*
X117480395Y-76100000D01*
X117839605Y-76100000D01*
X119009224Y-77269619D01*
X119304312Y-77137683D01*
X119475159Y-76796955D01*
X119576250Y-76429443D01*
X119603701Y-76049271D01*
X119586232Y-75909419D01*
X120805000Y-75909419D01*
X120805000Y-76290581D01*
X120879361Y-76664419D01*
X121025225Y-77016566D01*
X121236987Y-77333491D01*
X121506509Y-77603013D01*
X121823434Y-77814775D01*
X122175581Y-77960639D01*
X122549419Y-78035000D01*
X122930581Y-78035000D01*
X123304419Y-77960639D01*
X123656566Y-77814775D01*
X123973491Y-77603013D01*
X124243013Y-77333491D01*
X124454775Y-77016566D01*
X124600639Y-76664419D01*
X124675000Y-76290581D01*
X124675000Y-75909419D01*
X125885000Y-75909419D01*
X125885000Y-76290581D01*
X125959361Y-76664419D01*
X126105225Y-77016566D01*
X126316987Y-77333491D01*
X126586509Y-77603013D01*
X126903434Y-77814775D01*
X127255581Y-77960639D01*
X127629419Y-78035000D01*
X128010581Y-78035000D01*
X128384419Y-77960639D01*
X128736566Y-77814775D01*
X129053491Y-77603013D01*
X129323013Y-77333491D01*
X129534775Y-77016566D01*
X129680639Y-76664419D01*
X129755000Y-76290581D01*
X129755000Y-75909419D01*
X129680639Y-75535581D01*
X129534775Y-75183434D01*
X129323013Y-74866509D01*
X129256504Y-74800000D01*
X130961928Y-74800000D01*
X130961928Y-77400000D01*
X130974188Y-77524482D01*
X131010498Y-77644180D01*
X131069463Y-77754494D01*
X131148815Y-77851185D01*
X131245506Y-77930537D01*
X131355820Y-77989502D01*
X131475518Y-78025812D01*
X131600000Y-78038072D01*
X134200000Y-78038072D01*
X134324482Y-78025812D01*
X134444180Y-77989502D01*
X134554494Y-77930537D01*
X134651185Y-77851185D01*
X134730537Y-77754494D01*
X134789502Y-77644180D01*
X134825812Y-77524482D01*
X134838072Y-77400000D01*
X134838072Y-74938061D01*
X145305000Y-74938061D01*
X145305000Y-75141939D01*
X145344774Y-75341898D01*
X145422795Y-75530256D01*
X145536063Y-75699774D01*
X145680226Y-75843937D01*
X145849744Y-75957205D01*
X146038102Y-76035226D01*
X146238061Y-76075000D01*
X146441939Y-76075000D01*
X146641898Y-76035226D01*
X146830256Y-75957205D01*
X146999774Y-75843937D01*
X147143937Y-75699774D01*
X147257205Y-75530256D01*
X147335226Y-75341898D01*
X147375000Y-75141939D01*
X147375000Y-74938061D01*
X147335226Y-74738102D01*
X147302072Y-74658061D01*
X161115000Y-74658061D01*
X161115000Y-74861939D01*
X161154774Y-75061898D01*
X161232795Y-75250256D01*
X161346063Y-75419774D01*
X161490226Y-75563937D01*
X161659744Y-75677205D01*
X161848102Y-75755226D01*
X162048061Y-75795000D01*
X162251939Y-75795000D01*
X162451898Y-75755226D01*
X162640256Y-75677205D01*
X162775422Y-75586890D01*
X163290048Y-75586890D01*
X163290048Y-75833110D01*
X163338083Y-76074598D01*
X163432307Y-76302074D01*
X163569099Y-76506798D01*
X163743202Y-76680901D01*
X163947926Y-76817693D01*
X164175402Y-76911917D01*
X164416890Y-76959952D01*
X164663110Y-76959952D01*
X164904598Y-76911917D01*
X165132074Y-76817693D01*
X165336798Y-76680901D01*
X165510901Y-76506798D01*
X165647693Y-76302074D01*
X165741917Y-76074598D01*
X165789952Y-75833110D01*
X165789952Y-75682281D01*
X165791586Y-75682281D01*
X165873649Y-76650921D01*
X166143107Y-77584938D01*
X166589606Y-78448440D01*
X166664851Y-78561054D01*
X167267182Y-79053213D01*
X170570395Y-75750000D01*
X167267182Y-72446787D01*
X166664851Y-72938946D01*
X166194937Y-73789933D01*
X165900071Y-74716243D01*
X165791586Y-75682281D01*
X165789952Y-75682281D01*
X165789952Y-75586890D01*
X165741917Y-75345402D01*
X165647693Y-75117926D01*
X165510901Y-74913202D01*
X165336798Y-74739099D01*
X165132074Y-74602307D01*
X164904598Y-74508083D01*
X164663110Y-74460048D01*
X164416890Y-74460048D01*
X164175402Y-74508083D01*
X163947926Y-74602307D01*
X163743202Y-74739099D01*
X163569099Y-74913202D01*
X163432307Y-75117926D01*
X163338083Y-75345402D01*
X163290048Y-75586890D01*
X162775422Y-75586890D01*
X162809774Y-75563937D01*
X162953937Y-75419774D01*
X163067205Y-75250256D01*
X163145226Y-75061898D01*
X163185000Y-74861939D01*
X163185000Y-74658061D01*
X163145226Y-74458102D01*
X163067205Y-74269744D01*
X162953937Y-74100226D01*
X162809774Y-73956063D01*
X162640256Y-73842795D01*
X162451898Y-73764774D01*
X162251939Y-73725000D01*
X162048061Y-73725000D01*
X161848102Y-73764774D01*
X161659744Y-73842795D01*
X161490226Y-73956063D01*
X161346063Y-74100226D01*
X161232795Y-74269744D01*
X161154774Y-74458102D01*
X161115000Y-74658061D01*
X147302072Y-74658061D01*
X147257205Y-74549744D01*
X147143937Y-74380226D01*
X146999774Y-74236063D01*
X146830256Y-74122795D01*
X146641898Y-74044774D01*
X146441939Y-74005000D01*
X146238061Y-74005000D01*
X146038102Y-74044774D01*
X145849744Y-74122795D01*
X145680226Y-74236063D01*
X145536063Y-74380226D01*
X145422795Y-74549744D01*
X145344774Y-74738102D01*
X145305000Y-74938061D01*
X134838072Y-74938061D01*
X134838072Y-74800000D01*
X134825812Y-74675518D01*
X134789502Y-74555820D01*
X134730537Y-74445506D01*
X134651185Y-74348815D01*
X134554494Y-74269463D01*
X134444180Y-74210498D01*
X134324482Y-74174188D01*
X134200000Y-74161928D01*
X131600000Y-74161928D01*
X131475518Y-74174188D01*
X131355820Y-74210498D01*
X131245506Y-74269463D01*
X131148815Y-74348815D01*
X131069463Y-74445506D01*
X131010498Y-74555820D01*
X130974188Y-74675518D01*
X130961928Y-74800000D01*
X129256504Y-74800000D01*
X129053491Y-74596987D01*
X128736566Y-74385225D01*
X128384419Y-74239361D01*
X128010581Y-74165000D01*
X127629419Y-74165000D01*
X127255581Y-74239361D01*
X126903434Y-74385225D01*
X126586509Y-74596987D01*
X126316987Y-74866509D01*
X126105225Y-75183434D01*
X125959361Y-75535581D01*
X125885000Y-75909419D01*
X124675000Y-75909419D01*
X124600639Y-75535581D01*
X124454775Y-75183434D01*
X124243013Y-74866509D01*
X123973491Y-74596987D01*
X123656566Y-74385225D01*
X123304419Y-74239361D01*
X122930581Y-74165000D01*
X122549419Y-74165000D01*
X122175581Y-74239361D01*
X121823434Y-74385225D01*
X121506509Y-74596987D01*
X121236987Y-74866509D01*
X121025225Y-75183434D01*
X120879361Y-75535581D01*
X120805000Y-75909419D01*
X119586232Y-75909419D01*
X119556457Y-75671049D01*
X119436333Y-75309310D01*
X119304312Y-75062317D01*
X119009224Y-74930381D01*
X117839605Y-76100000D01*
X117480395Y-76100000D01*
X116310776Y-74930381D01*
X116015688Y-75062317D01*
X115844841Y-75403045D01*
X115743750Y-75770557D01*
X115716299Y-76150729D01*
X113723103Y-76150729D01*
X113791917Y-75984598D01*
X113839952Y-75743110D01*
X113839952Y-75496890D01*
X113791917Y-75255402D01*
X113697693Y-75027926D01*
X113560901Y-74823202D01*
X113488475Y-74750776D01*
X116490381Y-74750776D01*
X117660000Y-75920395D01*
X118829619Y-74750776D01*
X118697683Y-74455688D01*
X118356955Y-74284841D01*
X117989443Y-74183750D01*
X117609271Y-74156299D01*
X117231049Y-74203543D01*
X116869310Y-74323667D01*
X116622317Y-74455688D01*
X116490381Y-74750776D01*
X113488475Y-74750776D01*
X113386798Y-74649099D01*
X113182074Y-74512307D01*
X112954598Y-74418083D01*
X112713110Y-74370048D01*
X112466890Y-74370048D01*
X112225402Y-74418083D01*
X111997926Y-74512307D01*
X111793202Y-74649099D01*
X111619099Y-74823202D01*
X111482307Y-75027926D01*
X111388083Y-75255402D01*
X111340048Y-75496890D01*
X111181234Y-75496890D01*
X111126351Y-74849079D01*
X110856893Y-73915062D01*
X110410394Y-73051560D01*
X110335149Y-72938946D01*
X109732818Y-72446787D01*
X106429605Y-75750000D01*
X106070395Y-75750000D01*
X106056253Y-75735858D01*
X106235858Y-75556253D01*
X106250000Y-75570395D01*
X109553213Y-72267182D01*
X109061054Y-71664851D01*
X108210067Y-71194937D01*
X107314949Y-70910000D01*
X169723076Y-70910000D01*
X168915062Y-71143107D01*
G37*
%TD.AperFunction*%
%TD*%
M02*
