M48
; DRILL file {KiCad (5.1.7)-1} date 01/30/21 20:15:51
; FORMAT={-:-/ absolute / inch / decimal}
; #@! TF.CreationDate,2021-01-30T20:15:51-05:00
; #@! TF.GenerationSoftware,Kicad,Pcbnew,(5.1.7)-1
; #@! TF.FileFunction,Plated,1,4,PTH
FMAT,2
INCH
T1C0.0138
T2C0.0157
T3C0.0236
T4C0.0335
T5C0.0472
T6C0.0512
T7C0.1693
%
G90
G05
T1
X4.3701Y-3.4933
X4.5831Y-3.9681
X4.8043Y-3.7681
X5.2185Y-3.7016
X5.622Y-3.8071
T2
X4.163Y-3.3756
X4.163Y-3.5524
X4.4327Y-3.8965
X4.4768Y-3.9815
X4.5374Y-4.0669
X4.5563Y-4.0996
X4.5756Y-3.7161
X4.6008Y-3.7996
X4.648Y-3.6008
X4.6488Y-3.6579
X4.6673Y-3.9457
X4.6732Y-3.7606
X4.7165Y-3.7004
X4.7559Y-3.5972
X4.7563Y-3.6602
X4.7941Y-3.5988
X4.7953Y-4.2209
X4.8165Y-4.0685
X4.8429Y-3.5315
X4.8665Y-3.6268
X4.8874Y-4.2217
X4.9106Y-3.8071
X4.9449Y-3.7752
X5.0295Y-3.5319
X5.0344Y-3.8179
X5.1547Y-4.1906
X5.1906Y-4.2122
X5.1917Y-4.2685
X5.2197Y-4.1622
X5.2673Y-3.7335
X5.2724Y-4.076
X5.313Y-3.6071
X5.3276Y-3.8909
X5.3415Y-3.6407
X5.3453Y-3.572
X5.3583Y-3.7705
X5.3608Y-3.9121
X5.4634Y-3.8047
X5.465Y-3.7134
X5.4677Y-3.6803
X5.4799Y-3.1748
X5.4807Y-4.2996
X5.4957Y-3.787
X5.5386Y-4.2075
X5.5614Y-2.9543
X5.5626Y-3.6256
X5.5882Y-3.7874
X5.6437Y-3.8874
X5.6602Y-2.9551
X5.6689Y-3.7465
X5.711Y-2.9551
X5.7614Y-2.9543
X5.8043Y-3.7083
X5.8303Y-4.552
X5.8307Y-4.6122
X5.852Y-4.6913
X5.8709Y-4.6618
X5.8776Y-4.8228
X5.9134Y-4.8232
X5.9618Y-4.5535
X5.9618Y-4.6134
X6.0031Y-4.8441
X6.0039Y-4.6488
X6.0043Y-4.728
X6.0567Y-4.8161
X6.0705Y-4.3244
X6.0717Y-4.4717
X6.1201Y-2.8996
X6.2008Y-4.3276
X6.2043Y-4.4945
X6.2091Y-4.5295
X6.3531Y-4.5323
X6.3543Y-4.498
X6.3756Y-4.3354
X6.3756Y-4.3917
X6.3839Y-2.9433
X6.5594Y-4.2228
X6.578Y-3.5685
X6.6709Y-3.5528
X6.6799Y-3.5882
X6.7067Y-3.5524
X6.7165Y-3.5874
X6.8933Y-3.9421
X6.8933Y-4.0055
T3
X4.0561Y-4.7736
X4.0933Y-4.6838
X4.0933Y-4.8634
X4.1831Y-4.6467
X4.1831Y-4.9006
X4.2729Y-4.6838
X4.2729Y-4.8634
X4.31Y-4.7736
X4.0561Y-2.9823
X4.0933Y-2.8925
X4.0933Y-3.0721
X4.1831Y-2.8553
X4.1831Y-3.1093
X4.2729Y-2.8925
X4.2729Y-3.0721
X4.31Y-2.9823
X6.6053Y-4.7736
X6.6425Y-4.6838
X6.6425Y-4.8634
X6.7323Y-4.6467
X6.7323Y-4.9006
X6.8221Y-4.6838
X6.8221Y-4.8634
X6.8593Y-4.7736
X6.5955Y-2.9823
X6.6327Y-2.8925
X6.6327Y-3.0721
X6.7224Y-2.8553
X6.7224Y-3.1093
X6.8122Y-2.8925
X6.8122Y-3.0721
X6.8494Y-2.9823
T4
X6.7633Y-3.5433
X6.7633Y-3.7402
T5
X6.7244Y-4.2087
X6.7244Y-4.3465
T6
X4.6299Y-4.7559
X4.8299Y-4.7559
X5.0299Y-4.7559
X5.2299Y-4.7559
X4.6323Y-2.9961
X4.8323Y-2.9961
X5.0323Y-2.9961
X5.2323Y-2.9961
T7
X6.7224Y-2.9823
X4.1831Y-4.7736
X4.1831Y-2.9823
X6.7323Y-4.7736
T3
G00X6.8558Y-3.5039
M15
G01X6.8834Y-3.5039
M16
G05
G00X6.8834Y-3.7795
M15
G01X6.8558Y-3.7795
M16
G05
T0
M30
