%TF.GenerationSoftware,KiCad,Pcbnew,(5.1.7)-1*%
%TF.CreationDate,2021-01-30T20:15:53-05:00*%
%TF.ProjectId,STM32F4_Eval,53544d33-3246-4345-9f45-76616c2e6b69,rev?*%
%TF.SameCoordinates,Original*%
%TF.FileFunction,Legend,Top*%
%TF.FilePolarity,Positive*%
%FSLAX46Y46*%
G04 Gerber Fmt 4.6, Leading zero omitted, Abs format (unit mm)*
G04 Created by KiCad (PCBNEW (5.1.7)-1) date 2021-01-30 20:15:53*
%MOMM*%
%LPD*%
G01*
G04 APERTURE LIST*
%ADD10C,0.100000*%
%ADD11C,0.200000*%
%ADD12C,0.300000*%
%ADD13C,0.150000*%
%ADD14C,0.070000*%
%ADD15C,0.120000*%
G04 APERTURE END LIST*
D10*
X167264285Y-95563571D02*
X167835714Y-95563571D01*
X167550000Y-95849285D02*
X167550000Y-95277857D01*
X175074285Y-99363571D02*
X175645714Y-99363571D01*
X175360000Y-99649285D02*
X175360000Y-99077857D01*
X162064285Y-72973571D02*
X162635714Y-72973571D01*
X162350000Y-73259285D02*
X162350000Y-72687857D01*
D11*
X148100000Y-75920000D02*
G75*
G03*
X148100000Y-75920000I-100000J0D01*
G01*
D12*
X137574285Y-72787142D02*
X137788571Y-72858571D01*
X138145714Y-72858571D01*
X138288571Y-72787142D01*
X138360000Y-72715714D01*
X138431428Y-72572857D01*
X138431428Y-72430000D01*
X138360000Y-72287142D01*
X138288571Y-72215714D01*
X138145714Y-72144285D01*
X137860000Y-72072857D01*
X137717142Y-72001428D01*
X137645714Y-71930000D01*
X137574285Y-71787142D01*
X137574285Y-71644285D01*
X137645714Y-71501428D01*
X137717142Y-71430000D01*
X137860000Y-71358571D01*
X138217142Y-71358571D01*
X138431428Y-71430000D01*
X138860000Y-71358571D02*
X139717142Y-71358571D01*
X139288571Y-72858571D02*
X139288571Y-71358571D01*
X140217142Y-72858571D02*
X140217142Y-71358571D01*
X140717142Y-72430000D01*
X141217142Y-71358571D01*
X141217142Y-72858571D01*
X141788571Y-71358571D02*
X142717142Y-71358571D01*
X142217142Y-71930000D01*
X142431428Y-71930000D01*
X142574285Y-72001428D01*
X142645714Y-72072857D01*
X142717142Y-72215714D01*
X142717142Y-72572857D01*
X142645714Y-72715714D01*
X142574285Y-72787142D01*
X142431428Y-72858571D01*
X142002857Y-72858571D01*
X141860000Y-72787142D01*
X141788571Y-72715714D01*
X143288571Y-71501428D02*
X143360000Y-71430000D01*
X143502857Y-71358571D01*
X143860000Y-71358571D01*
X144002857Y-71430000D01*
X144074285Y-71501428D01*
X144145714Y-71644285D01*
X144145714Y-71787142D01*
X144074285Y-72001428D01*
X143217142Y-72858571D01*
X144145714Y-72858571D01*
X145288571Y-72072857D02*
X144788571Y-72072857D01*
X144788571Y-72858571D02*
X144788571Y-71358571D01*
X145502857Y-71358571D01*
X146717142Y-71858571D02*
X146717142Y-72858571D01*
X146360000Y-71287142D02*
X146002857Y-72358571D01*
X146931428Y-72358571D01*
X148645714Y-72072857D02*
X149145714Y-72072857D01*
X149360000Y-72858571D02*
X148645714Y-72858571D01*
X148645714Y-71358571D01*
X149360000Y-71358571D01*
X149860000Y-71858571D02*
X150217142Y-72858571D01*
X150574285Y-71858571D01*
X151788571Y-72858571D02*
X151788571Y-72072857D01*
X151717142Y-71930000D01*
X151574285Y-71858571D01*
X151288571Y-71858571D01*
X151145714Y-71930000D01*
X151788571Y-72787142D02*
X151645714Y-72858571D01*
X151288571Y-72858571D01*
X151145714Y-72787142D01*
X151074285Y-72644285D01*
X151074285Y-72501428D01*
X151145714Y-72358571D01*
X151288571Y-72287142D01*
X151645714Y-72287142D01*
X151788571Y-72215714D01*
X152717142Y-72858571D02*
X152574285Y-72787142D01*
X152502857Y-72644285D01*
X152502857Y-71358571D01*
D13*
X149097142Y-74377142D02*
X148797142Y-73948571D01*
X148582857Y-74377142D02*
X148582857Y-73477142D01*
X148925714Y-73477142D01*
X149011428Y-73520000D01*
X149054285Y-73562857D01*
X149097142Y-73648571D01*
X149097142Y-73777142D01*
X149054285Y-73862857D01*
X149011428Y-73905714D01*
X148925714Y-73948571D01*
X148582857Y-73948571D01*
X149825714Y-74334285D02*
X149740000Y-74377142D01*
X149568571Y-74377142D01*
X149482857Y-74334285D01*
X149440000Y-74248571D01*
X149440000Y-73905714D01*
X149482857Y-73820000D01*
X149568571Y-73777142D01*
X149740000Y-73777142D01*
X149825714Y-73820000D01*
X149868571Y-73905714D01*
X149868571Y-73991428D01*
X149440000Y-74077142D01*
X150168571Y-73777142D02*
X150382857Y-74377142D01*
X150597142Y-73777142D01*
X151797142Y-73477142D02*
X151882857Y-73477142D01*
X151968571Y-73520000D01*
X152011428Y-73562857D01*
X152054285Y-73648571D01*
X152097142Y-73820000D01*
X152097142Y-74034285D01*
X152054285Y-74205714D01*
X152011428Y-74291428D01*
X151968571Y-74334285D01*
X151882857Y-74377142D01*
X151797142Y-74377142D01*
X151711428Y-74334285D01*
X151668571Y-74291428D01*
X151625714Y-74205714D01*
X151582857Y-74034285D01*
X151582857Y-73820000D01*
X151625714Y-73648571D01*
X151668571Y-73562857D01*
X151711428Y-73520000D01*
X151797142Y-73477142D01*
X152482857Y-74291428D02*
X152525714Y-74334285D01*
X152482857Y-74377142D01*
X152440000Y-74334285D01*
X152482857Y-74291428D01*
X152482857Y-74377142D01*
X153082857Y-73477142D02*
X153168571Y-73477142D01*
X153254285Y-73520000D01*
X153297142Y-73562857D01*
X153340000Y-73648571D01*
X153382857Y-73820000D01*
X153382857Y-74034285D01*
X153340000Y-74205714D01*
X153297142Y-74291428D01*
X153254285Y-74334285D01*
X153168571Y-74377142D01*
X153082857Y-74377142D01*
X152997142Y-74334285D01*
X152954285Y-74291428D01*
X152911428Y-74205714D01*
X152868571Y-74034285D01*
X152868571Y-73820000D01*
X152911428Y-73648571D01*
X152954285Y-73562857D01*
X152997142Y-73520000D01*
X153082857Y-73477142D01*
X153940000Y-73477142D02*
X154025714Y-73477142D01*
X154111428Y-73520000D01*
X154154285Y-73562857D01*
X154197142Y-73648571D01*
X154240000Y-73820000D01*
X154240000Y-74034285D01*
X154197142Y-74205714D01*
X154154285Y-74291428D01*
X154111428Y-74334285D01*
X154025714Y-74377142D01*
X153940000Y-74377142D01*
X153854285Y-74334285D01*
X153811428Y-74291428D01*
X153768571Y-74205714D01*
X153725714Y-74034285D01*
X153725714Y-73820000D01*
X153768571Y-73648571D01*
X153811428Y-73562857D01*
X153854285Y-73520000D01*
X153940000Y-73477142D01*
D11*
X169390000Y-93840000D02*
G75*
G03*
X169390000Y-93840000I-100000J0D01*
G01*
X153060000Y-110260000D02*
G75*
G03*
X153060000Y-110260000I-100000J0D01*
G01*
X138820000Y-92780000D02*
G75*
G03*
X138820000Y-92780000I-100000J0D01*
G01*
X133560000Y-109830000D02*
G75*
G03*
X133560000Y-109830000I-100000J0D01*
G01*
D12*
X170882857Y-104161904D02*
X170882857Y-102638095D01*
D13*
X121792857Y-99167142D02*
X121792857Y-99810000D01*
X121750000Y-99938571D01*
X121664285Y-100024285D01*
X121535714Y-100067142D01*
X121450000Y-100067142D01*
X122650000Y-100067142D02*
X122221428Y-100067142D01*
X122221428Y-99167142D01*
X123464285Y-99981428D02*
X123421428Y-100024285D01*
X123292857Y-100067142D01*
X123207142Y-100067142D01*
X123078571Y-100024285D01*
X122992857Y-99938571D01*
X122950000Y-99852857D01*
X122907142Y-99681428D01*
X122907142Y-99552857D01*
X122950000Y-99381428D01*
X122992857Y-99295714D01*
X123078571Y-99210000D01*
X123207142Y-99167142D01*
X123292857Y-99167142D01*
X123421428Y-99210000D01*
X123464285Y-99252857D01*
X124107142Y-99167142D02*
X124107142Y-99810000D01*
X124064285Y-99938571D01*
X123978571Y-100024285D01*
X123850000Y-100067142D01*
X123764285Y-100067142D01*
X124964285Y-100067142D02*
X124535714Y-100067142D01*
X124535714Y-99167142D01*
X125778571Y-99981428D02*
X125735714Y-100024285D01*
X125607142Y-100067142D01*
X125521428Y-100067142D01*
X125392857Y-100024285D01*
X125307142Y-99938571D01*
X125264285Y-99852857D01*
X125221428Y-99681428D01*
X125221428Y-99552857D01*
X125264285Y-99381428D01*
X125307142Y-99295714D01*
X125392857Y-99210000D01*
X125521428Y-99167142D01*
X125607142Y-99167142D01*
X125735714Y-99210000D01*
X125778571Y-99252857D01*
X126421428Y-99167142D02*
X126421428Y-99810000D01*
X126378571Y-99938571D01*
X126292857Y-100024285D01*
X126164285Y-100067142D01*
X126078571Y-100067142D01*
X127278571Y-100067142D02*
X126850000Y-100067142D01*
X126850000Y-99167142D01*
X128092857Y-99981428D02*
X128050000Y-100024285D01*
X127921428Y-100067142D01*
X127835714Y-100067142D01*
X127707142Y-100024285D01*
X127621428Y-99938571D01*
X127578571Y-99852857D01*
X127535714Y-99681428D01*
X127535714Y-99552857D01*
X127578571Y-99381428D01*
X127621428Y-99295714D01*
X127707142Y-99210000D01*
X127835714Y-99167142D01*
X127921428Y-99167142D01*
X128050000Y-99210000D01*
X128092857Y-99252857D01*
X128735714Y-99167142D02*
X128735714Y-99810000D01*
X128692857Y-99938571D01*
X128607142Y-100024285D01*
X128478571Y-100067142D01*
X128392857Y-100067142D01*
X129592857Y-100067142D02*
X129164285Y-100067142D01*
X129164285Y-99167142D01*
X130407142Y-99981428D02*
X130364285Y-100024285D01*
X130235714Y-100067142D01*
X130150000Y-100067142D01*
X130021428Y-100024285D01*
X129935714Y-99938571D01*
X129892857Y-99852857D01*
X129850000Y-99681428D01*
X129850000Y-99552857D01*
X129892857Y-99381428D01*
X129935714Y-99295714D01*
X130021428Y-99210000D01*
X130150000Y-99167142D01*
X130235714Y-99167142D01*
X130364285Y-99210000D01*
X130407142Y-99252857D01*
D12*
X106862857Y-92638571D02*
X106362857Y-91924285D01*
X106005714Y-92638571D02*
X106005714Y-91138571D01*
X106577142Y-91138571D01*
X106720000Y-91210000D01*
X106791428Y-91281428D01*
X106862857Y-91424285D01*
X106862857Y-91638571D01*
X106791428Y-91781428D01*
X106720000Y-91852857D01*
X106577142Y-91924285D01*
X106005714Y-91924285D01*
X107505714Y-91138571D02*
X107505714Y-92352857D01*
X107577142Y-92495714D01*
X107648571Y-92567142D01*
X107791428Y-92638571D01*
X108077142Y-92638571D01*
X108220000Y-92567142D01*
X108291428Y-92495714D01*
X108362857Y-92352857D01*
X108362857Y-91138571D01*
X109077142Y-92638571D02*
X109077142Y-91138571D01*
X109934285Y-92638571D01*
X109934285Y-91138571D01*
X106524285Y-84252857D02*
X106738571Y-84324285D01*
X106810000Y-84395714D01*
X106881428Y-84538571D01*
X106881428Y-84752857D01*
X106810000Y-84895714D01*
X106738571Y-84967142D01*
X106595714Y-85038571D01*
X106024285Y-85038571D01*
X106024285Y-83538571D01*
X106524285Y-83538571D01*
X106667142Y-83610000D01*
X106738571Y-83681428D01*
X106810000Y-83824285D01*
X106810000Y-83967142D01*
X106738571Y-84110000D01*
X106667142Y-84181428D01*
X106524285Y-84252857D01*
X106024285Y-84252857D01*
X107810000Y-83538571D02*
X108095714Y-83538571D01*
X108238571Y-83610000D01*
X108381428Y-83752857D01*
X108452857Y-84038571D01*
X108452857Y-84538571D01*
X108381428Y-84824285D01*
X108238571Y-84967142D01*
X108095714Y-85038571D01*
X107810000Y-85038571D01*
X107667142Y-84967142D01*
X107524285Y-84824285D01*
X107452857Y-84538571D01*
X107452857Y-84038571D01*
X107524285Y-83752857D01*
X107667142Y-83610000D01*
X107810000Y-83538571D01*
X109381428Y-83538571D02*
X109667142Y-83538571D01*
X109810000Y-83610000D01*
X109952857Y-83752857D01*
X110024285Y-84038571D01*
X110024285Y-84538571D01*
X109952857Y-84824285D01*
X109810000Y-84967142D01*
X109667142Y-85038571D01*
X109381428Y-85038571D01*
X109238571Y-84967142D01*
X109095714Y-84824285D01*
X109024285Y-84538571D01*
X109024285Y-84038571D01*
X109095714Y-83752857D01*
X109238571Y-83610000D01*
X109381428Y-83538571D01*
X110452857Y-83538571D02*
X111310000Y-83538571D01*
X110881428Y-85038571D02*
X110881428Y-83538571D01*
D11*
X119180000Y-95950000D02*
G75*
G03*
X119180000Y-95950000I-100000J0D01*
G01*
D12*
X112708095Y-120992857D02*
X114231904Y-120992857D01*
X113470000Y-121754761D02*
X113470000Y-120230952D01*
X136458095Y-76062857D02*
X137981904Y-76062857D01*
X137220000Y-76824761D02*
X137220000Y-75300952D01*
X114687142Y-113228571D02*
X114687142Y-114442857D01*
X114758571Y-114585714D01*
X114830000Y-114657142D01*
X114972857Y-114728571D01*
X115258571Y-114728571D01*
X115401428Y-114657142D01*
X115472857Y-114585714D01*
X115544285Y-114442857D01*
X115544285Y-113228571D01*
X116187142Y-114300000D02*
X116901428Y-114300000D01*
X116044285Y-114728571D02*
X116544285Y-113228571D01*
X117044285Y-114728571D01*
X118401428Y-114728571D02*
X117901428Y-114014285D01*
X117544285Y-114728571D02*
X117544285Y-113228571D01*
X118115714Y-113228571D01*
X118258571Y-113300000D01*
X118330000Y-113371428D01*
X118401428Y-113514285D01*
X118401428Y-113728571D01*
X118330000Y-113871428D01*
X118258571Y-113942857D01*
X118115714Y-114014285D01*
X117544285Y-114014285D01*
X118830000Y-113228571D02*
X119687142Y-113228571D01*
X119258571Y-114728571D02*
X119258571Y-113228571D01*
X114915714Y-83688571D02*
X114915714Y-82188571D01*
X115558571Y-82331428D02*
X115630000Y-82260000D01*
X115772857Y-82188571D01*
X116130000Y-82188571D01*
X116272857Y-82260000D01*
X116344285Y-82331428D01*
X116415714Y-82474285D01*
X116415714Y-82617142D01*
X116344285Y-82831428D01*
X115487142Y-83688571D01*
X116415714Y-83688571D01*
X117915714Y-83545714D02*
X117844285Y-83617142D01*
X117630000Y-83688571D01*
X117487142Y-83688571D01*
X117272857Y-83617142D01*
X117130000Y-83474285D01*
X117058571Y-83331428D01*
X116987142Y-83045714D01*
X116987142Y-82831428D01*
X117058571Y-82545714D01*
X117130000Y-82402857D01*
X117272857Y-82260000D01*
X117487142Y-82188571D01*
X117630000Y-82188571D01*
X117844285Y-82260000D01*
X117915714Y-82331428D01*
X170078095Y-113672857D02*
X171601904Y-113672857D01*
X170840000Y-114434761D02*
X170840000Y-112910952D01*
D14*
X159299767Y-88211139D02*
G75*
G02*
X159354435Y-88178593I66198J-49007D01*
G01*
X159274674Y-88279850D02*
G75*
G02*
X159299767Y-88211139I128892J-8133D01*
G01*
X159269312Y-88730000D02*
X159269312Y-88450000D01*
X158779312Y-88730000D02*
X159269312Y-88730000D01*
X158289312Y-88730000D02*
X158779312Y-88730000D01*
X163544557Y-87868260D02*
G75*
G02*
X163567580Y-87795941I157133J-10201D01*
G01*
X163013152Y-88318571D02*
G75*
G02*
X163186477Y-88310000I173325J-1748162D01*
G01*
X162869150Y-88344864D02*
G75*
G02*
X163013152Y-88318572I232412J-865416D01*
G01*
X162013782Y-88598358D02*
G75*
G02*
X162051520Y-88574370I59056J-51228D01*
G01*
X163858037Y-88723156D02*
X163049312Y-88730000D01*
X158906659Y-88440129D02*
G75*
G02*
X158779312Y-88450000I-127347J816488D01*
G01*
X158289312Y-88450000D02*
X158289312Y-88730000D01*
X163567579Y-87795942D02*
G75*
G02*
X163616464Y-87760827I66404J-40858D01*
G01*
X163186477Y-88310000D02*
X163539312Y-88310000D01*
X162511314Y-88726166D02*
X162214655Y-88710953D01*
X158569312Y-88100000D02*
X158573667Y-87876001D01*
X163926374Y-87913975D02*
X163991600Y-88112706D01*
X162038728Y-88685363D02*
G75*
G02*
X161999312Y-88637124I9811J48239D01*
G01*
X158779312Y-87750001D02*
G75*
G02*
X158906659Y-87759872I0J-826359D01*
G01*
X161999311Y-88637124D02*
G75*
G02*
X162013782Y-88598358I59161J0D01*
G01*
X162529400Y-88523317D02*
G75*
G02*
X162427543Y-88563789I-243880J465377D01*
G01*
X163806364Y-87766907D02*
G75*
G02*
X163872265Y-87815283I-51120J-138713D01*
G01*
X162632367Y-88458810D02*
G75*
G02*
X162745095Y-88390879I415455J-561934D01*
G01*
X158961311Y-87796667D02*
G75*
G02*
X158984956Y-87876001I-143030J-85819D01*
G01*
X158906659Y-87759871D02*
G75*
G02*
X158961312Y-87796667I-11974J-76772D01*
G01*
X158779311Y-88450000D02*
G75*
G02*
X158651964Y-88440129I0J826359D01*
G01*
X163872265Y-87815283D02*
G75*
G02*
X163926374Y-87913975I-286877J-221462D01*
G01*
X162051520Y-88574370D02*
G75*
G02*
X162117225Y-88566669I56788J-200359D01*
G01*
X164041034Y-88666861D02*
G75*
G02*
X163858037Y-88723156I-188829J288244D01*
G01*
X158573667Y-88324000D02*
X158569312Y-88100000D01*
X163711600Y-87750000D02*
G75*
G02*
X163806364Y-87766906I0J-274049D01*
G01*
X162632367Y-88458810D02*
G75*
G02*
X162529400Y-88523318I-469701J635304D01*
G01*
X158984956Y-87876001D02*
X158989312Y-88100000D01*
X158651964Y-88440129D02*
G75*
G02*
X158597312Y-88403334I11974J76771D01*
G01*
X158961311Y-88403334D02*
G75*
G02*
X158906659Y-88440129I-66626J39976D01*
G01*
X163049312Y-88730000D02*
X162511314Y-88726166D01*
X162745095Y-88390879D02*
G75*
G02*
X162869150Y-88344864I309165J-643262D01*
G01*
X163616464Y-87760826D02*
G75*
G02*
X163711600Y-87750000I95136J-412582D01*
G01*
X163539312Y-88030000D02*
X163544556Y-87868260D01*
X162427543Y-88563789D02*
G75*
G02*
X162323782Y-88580931I-129493J461222D01*
G01*
X162214655Y-88710953D02*
G75*
G02*
X162038728Y-88685364I139399J1575965D01*
G01*
X164096956Y-88532243D02*
G75*
G02*
X164041034Y-88666861I-126957J-26185D01*
G01*
X158651965Y-87759871D02*
G75*
G02*
X158779312Y-87750000I127346J-816489D01*
G01*
X158984957Y-88324000D02*
G75*
G02*
X158961312Y-88403334I-166676J6485D01*
G01*
X158597312Y-88403334D02*
G75*
G02*
X158573667Y-88324000I143030J85819D01*
G01*
X163539312Y-88310000D02*
X163539312Y-88030000D01*
X162117226Y-88566669D02*
G75*
G02*
X162215202Y-88575933I-40972J-955967D01*
G01*
X163991600Y-88112706D02*
X164096956Y-88532243D01*
X158597312Y-87796667D02*
G75*
G02*
X158651964Y-87759872I66626J-39976D01*
G01*
X159269312Y-88450000D02*
X159274674Y-88279850D01*
X158573667Y-87876001D02*
G75*
G02*
X158597312Y-87796667I166675J-6485D01*
G01*
X162323782Y-88580930D02*
G75*
G02*
X162215202Y-88575933I-29319J545044D01*
G01*
X154014067Y-87868256D02*
X154019312Y-88030000D01*
X155342319Y-88710965D02*
X155043288Y-88726171D01*
X153441812Y-88730000D02*
X153486549Y-88506314D01*
X153991043Y-87795939D02*
G75*
G02*
X154014067Y-87868256I-134094J-82517D01*
G01*
X153942156Y-87760826D02*
G75*
G02*
X153991043Y-87795939I-17515J-75974D01*
G01*
X153847009Y-87750001D02*
G75*
G02*
X153942155Y-87760826I0J-423541D01*
G01*
X155519770Y-88685412D02*
G75*
G02*
X155342319Y-88710965I-318617J1583675D01*
G01*
X154813528Y-88390879D02*
G75*
G02*
X154926256Y-88458810I-302727J-629865D01*
G01*
X154019312Y-88310000D02*
X154372146Y-88310000D01*
X162843667Y-87904000D02*
X162839312Y-87680000D01*
X159506379Y-87195521D02*
G75*
G02*
X159536729Y-87212355I-65415J-153713D01*
G01*
X163254957Y-87904000D02*
G75*
G02*
X163231312Y-87983334I-166676J6485D01*
G01*
X154714957Y-87904000D02*
G75*
G02*
X154691312Y-87983334I-166676J6485D01*
G01*
X153732333Y-87787303D02*
G75*
G02*
X153847010Y-87750000I114676J-157618D01*
G01*
X155559312Y-88637124D02*
G75*
G02*
X155519771Y-88685412I-49256J0D01*
G01*
X154019312Y-88030000D02*
X154019312Y-88310000D01*
X154372146Y-88310001D02*
G75*
G02*
X154545471Y-88318572I0J-1756732D01*
G01*
X163176659Y-88020129D02*
G75*
G02*
X163049312Y-88030000I-127347J816488D01*
G01*
X154327312Y-87983334D02*
G75*
G02*
X154303667Y-87904000I143030J85819D01*
G01*
X153486549Y-88506314D02*
X153576719Y-88092214D01*
X155029223Y-88523317D02*
G75*
G02*
X154926256Y-88458810I366734J699811D01*
G01*
X162921964Y-88020129D02*
G75*
G02*
X162867312Y-87983334I11974J76771D01*
G01*
X154327312Y-87376667D02*
G75*
G02*
X154381964Y-87339872I66626J-39976D01*
G01*
X162867312Y-87983334D02*
G75*
G02*
X162843667Y-87904000I143030J85819D01*
G01*
X153648407Y-87888314D02*
G75*
G02*
X153732333Y-87787304I240979J-114851D01*
G01*
X153576720Y-88092214D02*
G75*
G02*
X153648407Y-87888314I987942J-232790D01*
G01*
X154500562Y-88730000D02*
X153441812Y-88730000D01*
X163049312Y-87330001D02*
G75*
G02*
X163176659Y-87339872I0J-826359D01*
G01*
X155343421Y-88575934D02*
G75*
G02*
X155234841Y-88580931I-79261J540048D01*
G01*
X154509312Y-87330001D02*
G75*
G02*
X154636659Y-87339872I0J-826359D01*
G01*
X154381965Y-87339871D02*
G75*
G02*
X154509312Y-87330000I127346J-816489D01*
G01*
X154691311Y-87983334D02*
G75*
G02*
X154636659Y-88020129I-66626J39976D01*
G01*
X163231311Y-87376667D02*
G75*
G02*
X163254956Y-87456001I-143030J-85819D01*
G01*
X162839312Y-87680000D02*
X162843667Y-87456001D01*
X163259312Y-87680000D02*
X163254956Y-87904000D01*
X154381964Y-88020129D02*
G75*
G02*
X154327312Y-87983334I11974J76771D01*
G01*
X155544841Y-88598358D02*
G75*
G02*
X155559312Y-88637124I-44690J-38766D01*
G01*
X155343422Y-88575933D02*
G75*
G02*
X155441398Y-88566669I138947J-946703D01*
G01*
X163176659Y-87339871D02*
G75*
G02*
X163231312Y-87376667I-11974J-76772D01*
G01*
X154636659Y-87339871D02*
G75*
G02*
X154691312Y-87376667I-11974J-76772D01*
G01*
X154636659Y-88020129D02*
G75*
G02*
X154509312Y-88030000I-127347J816488D01*
G01*
X154719312Y-87680000D02*
X154714956Y-87904000D01*
X159536730Y-87212354D02*
G75*
G02*
X159565512Y-87236990I-111627J-159549D01*
G01*
X163231311Y-87983334D02*
G75*
G02*
X163176659Y-88020129I-66626J39976D01*
G01*
X155043288Y-88726171D02*
X154500562Y-88730000D01*
X155507103Y-88574370D02*
G75*
G02*
X155544841Y-88598358I-21318J-75216D01*
G01*
X155441397Y-88566669D02*
G75*
G02*
X155507103Y-88574370I8918J-208060D01*
G01*
X163254956Y-87456001D02*
X163259312Y-87680000D01*
X155131080Y-88563790D02*
G75*
G02*
X155029223Y-88523318I142023J505850D01*
G01*
X163049311Y-88030000D02*
G75*
G02*
X162921964Y-88020129I0J826359D01*
G01*
X162921965Y-87339871D02*
G75*
G02*
X163049312Y-87330000I127346J-816489D01*
G01*
X154714956Y-87456001D02*
X154719312Y-87680000D01*
X154303667Y-87456001D02*
G75*
G02*
X154327312Y-87376667I166675J-6485D01*
G01*
X159565512Y-87236990D02*
G75*
G02*
X159588081Y-87266100I-125597J-120682D01*
G01*
X154509311Y-88030000D02*
G75*
G02*
X154381964Y-88020129I0J826359D01*
G01*
X155234841Y-88580930D02*
G75*
G02*
X155131080Y-88563789I25732J478363D01*
G01*
X154689473Y-88344863D02*
G75*
G02*
X154813528Y-88390879I-185110J-689278D01*
G01*
X162843667Y-87456001D02*
G75*
G02*
X162867312Y-87376667I166675J-6485D01*
G01*
X154691311Y-87376667D02*
G75*
G02*
X154714956Y-87456001I-143030J-85819D01*
G01*
X154299312Y-87680000D02*
X154303667Y-87456001D01*
X154545471Y-88318572D02*
G75*
G02*
X154689473Y-88344864I-88410J-891708D01*
G01*
X162867312Y-87376667D02*
G75*
G02*
X162921964Y-87339872I66626J-39976D01*
G01*
X154303667Y-87904000D02*
X154299312Y-87680000D01*
X158989312Y-88100000D02*
X158984956Y-88324000D01*
X159602789Y-87348484D02*
G75*
G02*
X159558009Y-87423082I-127705J25920D01*
G01*
X158929870Y-87195237D02*
G75*
G02*
X159006812Y-87216250I-14155J-203205D01*
G01*
X158077208Y-87451799D02*
G75*
G02*
X158001411Y-87420100I738J108234D01*
G01*
X158136730Y-87212354D02*
G75*
G02*
X158165512Y-87236990I-111627J-159549D01*
G01*
X159558009Y-87423081D02*
G75*
G02*
X159477208Y-87451799I-79945J96904D01*
G01*
X159045607Y-87258489D02*
G75*
G02*
X159059312Y-87330000I-179718J-71512D01*
G01*
X158499311Y-87330000D02*
G75*
G02*
X158513016Y-87258489I193423J-1D01*
G01*
X163601410Y-86720100D02*
G75*
G02*
X163564956Y-86652985I95129J95128D01*
G01*
X162925010Y-86498451D02*
G75*
G02*
X163049312Y-86490000I124301J-909887D01*
G01*
X163736730Y-86512354D02*
G75*
G02*
X163765512Y-86536990I-111627J-159549D01*
G01*
X158202789Y-87348484D02*
G75*
G02*
X158158009Y-87423082I-127705J25920D01*
G01*
X158079312Y-87190000D02*
G75*
G02*
X158106380Y-87195521I-1J-69125D01*
G01*
X158001410Y-87420100D02*
G75*
G02*
X157964956Y-87352985I95129J95128D01*
G01*
X163706379Y-86495521D02*
G75*
G02*
X163736729Y-86512355I-65415J-153713D01*
G01*
X162869936Y-86530834D02*
G75*
G02*
X162925010Y-86498452I66290J-49717D01*
G01*
X163368280Y-86894425D02*
G75*
G02*
X163430045Y-86992999I-929504J-651050D01*
G01*
X157969524Y-87274759D02*
G75*
G02*
X158012642Y-87213330I126179J-42719D01*
G01*
X158188081Y-87266099D02*
G75*
G02*
X158202789Y-87348483I-96710J-59771D01*
G01*
X163765512Y-86536990D02*
G75*
G02*
X163788081Y-86566100I-125597J-120682D01*
G01*
X163212275Y-86517869D02*
G75*
G02*
X163246865Y-86556539I-43873J-74048D01*
G01*
X163370385Y-87047645D02*
X163158281Y-87050000D01*
X163802789Y-86648484D02*
G75*
G02*
X163758009Y-86723082I-127705J25920D01*
G01*
X163149560Y-86496343D02*
G75*
G02*
X163212276Y-86517869I-20601J-162146D01*
G01*
X163430046Y-86992998D02*
G75*
G02*
X163422080Y-87029943I-25010J-13939D01*
G01*
X158513017Y-87401511D02*
G75*
G02*
X158499312Y-87330000I179717J71511D01*
G01*
X163422079Y-87029943D02*
G75*
G02*
X163370385Y-87047645I-53697J72482D01*
G01*
X159006812Y-87216250D02*
G75*
G02*
X159045607Y-87258489I-36001J-72001D01*
G01*
X158628753Y-87195238D02*
X158779312Y-87190000D01*
X163612642Y-86513330D02*
G75*
G02*
X163679312Y-86490000I66670J-83595D01*
G01*
X158012642Y-87213330D02*
G75*
G02*
X158079312Y-87190000I66670J-83595D01*
G01*
X159369524Y-87274759D02*
G75*
G02*
X159412642Y-87213330I126179J-42719D01*
G01*
X159477208Y-87451799D02*
G75*
G02*
X159401411Y-87420100I738J108234D01*
G01*
X158158009Y-87423081D02*
G75*
G02*
X158077208Y-87451799I-79945J96904D01*
G01*
X163564956Y-86652985D02*
G75*
G02*
X163569525Y-86574760I144660J30797D01*
G01*
X163758009Y-86723081D02*
G75*
G02*
X163677208Y-86751799I-79945J96904D01*
G01*
X163158281Y-87050000D02*
X162839312Y-87050000D01*
X163049312Y-86490000D02*
G75*
G02*
X163149560Y-86496343I-1J-795383D01*
G01*
X163246865Y-86556539D02*
G75*
G02*
X163259312Y-86614425I-128382J-57886D01*
G01*
X163368281Y-86894425D02*
G75*
G02*
X163326569Y-86825727I504149J353120D01*
G01*
X163679312Y-86490000D02*
G75*
G02*
X163706380Y-86495521I-1J-69125D01*
G01*
X159045607Y-87401511D02*
G75*
G02*
X159006812Y-87443750I-74796J29761D01*
G01*
X158165512Y-87236990D02*
G75*
G02*
X158188081Y-87266100I-125597J-120682D01*
G01*
X158779312Y-87190000D02*
X158929870Y-87195238D01*
X158628753Y-87464763D02*
G75*
G02*
X158551812Y-87443750I14155J203204D01*
G01*
X159479312Y-87190000D02*
G75*
G02*
X159506380Y-87195521I-1J-69125D01*
G01*
X159412642Y-87213330D02*
G75*
G02*
X159479312Y-87190000I66670J-83595D01*
G01*
X159401410Y-87420100D02*
G75*
G02*
X159364956Y-87352985I95129J95128D01*
G01*
X157964956Y-87352985D02*
G75*
G02*
X157969525Y-87274760I144660J30797D01*
G01*
X158551812Y-87216251D02*
G75*
G02*
X158628753Y-87195238I91096J-182191D01*
G01*
X162839312Y-87050000D02*
X162839312Y-86770000D01*
X163569524Y-86574759D02*
G75*
G02*
X163612642Y-86513330I126179J-42719D01*
G01*
X158779312Y-87470000D02*
X158628753Y-87464763D01*
X158551811Y-87443751D02*
G75*
G02*
X158513016Y-87401512I36001J72001D01*
G01*
X159364956Y-87352985D02*
G75*
G02*
X159369525Y-87274760I144660J30797D01*
G01*
X159588081Y-87266099D02*
G75*
G02*
X159602789Y-87348483I-96710J-59771D01*
G01*
X158929870Y-87464763D02*
X158779312Y-87470000D01*
X158513017Y-87258489D02*
G75*
G02*
X158551812Y-87216250I74795J-29762D01*
G01*
X162844688Y-86599315D02*
G75*
G02*
X162869937Y-86530834I127256J-8024D01*
G01*
X163788081Y-86566099D02*
G75*
G02*
X163802789Y-86648483I-96710J-59771D01*
G01*
X159059312Y-87330001D02*
G75*
G02*
X159045607Y-87401512I-193423J1D01*
G01*
X158106379Y-87195521D02*
G75*
G02*
X158136729Y-87212355I-65415J-153713D01*
G01*
X159006811Y-87443750D02*
G75*
G02*
X158929870Y-87464763I-91096J182191D01*
G01*
X163677208Y-86751799D02*
G75*
G02*
X163601411Y-86720100I738J108234D01*
G01*
X162839312Y-86770000D02*
X162844687Y-86599315D01*
X163291321Y-86748000D02*
G75*
G02*
X163266938Y-86673119I651549J253567D01*
G01*
X163266939Y-86673118D02*
G75*
G02*
X163259312Y-86614425I222028J58693D01*
G01*
X154409064Y-86496343D02*
G75*
G02*
X154509312Y-86490000I100248J-789040D01*
G01*
X154299312Y-86614425D02*
G75*
G02*
X154291685Y-86673119I-229656J0D01*
G01*
X162443142Y-86550251D02*
G75*
G02*
X162483183Y-86587617I-126055J-175213D01*
G01*
X162389878Y-86518675D02*
G75*
G02*
X162443143Y-86550250I-151191J-315763D01*
G01*
X162049556Y-86671325D02*
G75*
G02*
X162135955Y-86540434I246940J-69039D01*
G01*
X162029654Y-87845412D02*
X162014368Y-87437662D01*
X162528970Y-87845412D02*
G75*
G02*
X162505065Y-88063352I-1801739J87343D01*
G01*
X154311758Y-86556540D02*
G75*
G02*
X154346347Y-86517869I78463J-35377D01*
G01*
X155548099Y-87103469D02*
X155544255Y-87437662D01*
X155443142Y-86550251D02*
G75*
G02*
X155483183Y-86587617I-126055J-175213D01*
G01*
X155466125Y-88192666D02*
G75*
G02*
X155401812Y-88267188I-153873J67781D01*
G01*
X162332289Y-86497158D02*
G75*
G02*
X162389878Y-86518675I-91794J-333505D01*
G01*
X162053559Y-88063352D02*
G75*
G02*
X162029654Y-87845412I1777833J305283D01*
G01*
X154713936Y-86599315D02*
X154719312Y-86770000D01*
X162279311Y-86490000D02*
G75*
G02*
X162332289Y-86497158I1J-199634D01*
G01*
X162518553Y-86667039D02*
X162538608Y-86851210D01*
X155156812Y-88267187D02*
G75*
G02*
X155092499Y-88192666I89559J142302D01*
G01*
X162011757Y-86931277D02*
G75*
G02*
X162049557Y-86671325I1027067J-16624D01*
G01*
X162548099Y-87103469D02*
X162544255Y-87437662D01*
X155014368Y-87437662D02*
X155011757Y-86931278D01*
X154509311Y-86490001D02*
G75*
G02*
X154633613Y-86498452I1J-918337D01*
G01*
X162544255Y-87437662D02*
X162528969Y-87845412D01*
X162135955Y-86540434D02*
G75*
G02*
X162279312Y-86490000I143357J-178529D01*
G01*
X162156812Y-88267187D02*
G75*
G02*
X162092499Y-88192666I89559J142302D01*
G01*
X154299311Y-86614425D02*
G75*
G02*
X154311758Y-86556539I140829J0D01*
G01*
X162279312Y-88309284D02*
G75*
G02*
X162220893Y-88298805I-1J168078D01*
G01*
X155049556Y-86671325D02*
G75*
G02*
X155135955Y-86540434I246940J-69039D01*
G01*
X154267302Y-86748000D02*
G75*
G02*
X154232054Y-86825727I-728645J283571D01*
G01*
X155011757Y-86931277D02*
G75*
G02*
X155049557Y-86671325I1027067J-16624D01*
G01*
X155401811Y-88267188D02*
G75*
G02*
X155337730Y-88298805I-184420J293028D01*
G01*
X162220893Y-88298805D02*
G75*
G02*
X162156812Y-88267188I120339J324645D01*
G01*
X162505064Y-88063352D02*
G75*
G02*
X162466124Y-88192666I-544922J93572D01*
G01*
X155389878Y-86518675D02*
G75*
G02*
X155443143Y-86550250I-151191J-315763D01*
G01*
X155220893Y-88298805D02*
G75*
G02*
X155156812Y-88267188I120339J324645D01*
G01*
X162483183Y-86587617D02*
G75*
G02*
X162518553Y-86667039I-123732J-102689D01*
G01*
X155483183Y-86587617D02*
G75*
G02*
X155518553Y-86667039I-123732J-102689D01*
G01*
X155135955Y-86540434D02*
G75*
G02*
X155279312Y-86490000I143357J-178529D01*
G01*
X155337731Y-88298805D02*
G75*
G02*
X155279312Y-88309284I-58419J157599D01*
G01*
X155505064Y-88063352D02*
G75*
G02*
X155466124Y-88192666I-544922J93572D01*
G01*
X155544255Y-87437662D02*
X155528969Y-87845412D01*
X154633613Y-86498452D02*
G75*
G02*
X154688687Y-86530834I-11216J-82099D01*
G01*
X154291685Y-86673118D02*
G75*
G02*
X154267302Y-86748000I-675932J178685D01*
G01*
X162014368Y-87437662D02*
X162011757Y-86931278D01*
X162092498Y-88192666D02*
G75*
G02*
X162053558Y-88063352I505983J222886D01*
G01*
X154688687Y-86530833D02*
G75*
G02*
X154713936Y-86599315I-102008J-76506D01*
G01*
X162337731Y-88298805D02*
G75*
G02*
X162279312Y-88309284I-58419J157599D01*
G01*
X162538608Y-86851210D02*
X162548099Y-87103469D01*
X155332289Y-86497158D02*
G75*
G02*
X155389878Y-86518675I-91794J-333505D01*
G01*
X154232054Y-86825727D02*
G75*
G02*
X154190342Y-86894425I-545861J284422D01*
G01*
X155538608Y-86851210D02*
X155548099Y-87103469D01*
X155029654Y-87845412D02*
X155014368Y-87437662D01*
X155528970Y-87845412D02*
G75*
G02*
X155505065Y-88063352I-1801739J87343D01*
G01*
X155279312Y-88309284D02*
G75*
G02*
X155220893Y-88298805I-1J168078D01*
G01*
X162401811Y-88267188D02*
G75*
G02*
X162337730Y-88298805I-184420J293028D01*
G01*
X162466125Y-88192666D02*
G75*
G02*
X162401812Y-88267188I-153873J67781D01*
G01*
X155279311Y-86490000D02*
G75*
G02*
X155332289Y-86497158I1J-199634D01*
G01*
X154128577Y-86992999D02*
G75*
G02*
X154190342Y-86894425I991270J-552476D01*
G01*
X155053559Y-88063352D02*
G75*
G02*
X155029654Y-87845412I1777833J305283D01*
G01*
X155092498Y-88192666D02*
G75*
G02*
X155053558Y-88063352I505983J222886D01*
G01*
X155518553Y-86667039D02*
X155538608Y-86851210D01*
X154346347Y-86517869D02*
G75*
G02*
X154409063Y-86496343I83317J-140620D01*
G01*
X163326569Y-86825727D02*
G75*
G02*
X163291321Y-86748000I693397J361298D01*
G01*
X158779312Y-85930000D02*
X159199312Y-85930000D01*
X156797533Y-85949141D02*
G75*
G02*
X156975277Y-85933362I198891J-1231474D01*
G01*
X161573401Y-85930000D02*
X161372326Y-86402500D01*
X161254760Y-85944777D02*
G75*
G02*
X161371323Y-85930000I116563J-452340D01*
G01*
X161183567Y-85990244D02*
G75*
G02*
X161254761Y-85944777I105093J-86087D01*
G01*
X161129284Y-86087634D02*
G75*
G02*
X161183568Y-85990244I298100J-102332D01*
G01*
X161058078Y-86312405D02*
X161129284Y-86087634D01*
X160901903Y-86893182D02*
G75*
G02*
X160889676Y-86863114I20899J26019D01*
G01*
X160583347Y-85933362D02*
G75*
G02*
X160761091Y-85949141I-21148J-1247253D01*
G01*
X159199312Y-86420000D02*
X159199312Y-86910000D01*
X161012316Y-86467151D02*
X161058078Y-86312405D01*
X161100946Y-86861520D02*
G75*
G02*
X161015428Y-86898660I-112840J142802D01*
G01*
X156720792Y-85982724D02*
G75*
G02*
X156797532Y-85949141I103482J-131992D01*
G01*
X160186801Y-85930000D02*
X160583346Y-85933362D01*
X156705621Y-86037597D02*
G75*
G02*
X156720793Y-85982724I44734J17166D01*
G01*
X160791186Y-86225917D02*
X160746134Y-86373301D01*
X161372326Y-86402500D02*
X161266552Y-86634540D01*
X159199312Y-85930000D02*
X159199312Y-86420000D01*
X160837830Y-85982723D02*
G75*
G02*
X160853002Y-86037596I-29562J-37708D01*
G01*
X160589377Y-86910000D02*
X160034344Y-86910000D01*
X158359312Y-86420000D02*
X158359312Y-85930000D01*
X158779312Y-86910000D02*
X158359312Y-86910000D01*
X160746134Y-86373301D02*
X160700545Y-86527596D01*
X158079312Y-85930000D02*
X158079312Y-86420000D01*
X154188237Y-87047645D02*
G75*
G02*
X154136543Y-87029943I2004J90184D01*
G01*
X160700545Y-86527596D02*
X160589377Y-86910000D01*
X154136544Y-87029943D02*
G75*
G02*
X154128578Y-86992999I17043J23006D01*
G01*
X154400342Y-87050000D02*
X154188238Y-87047645D01*
X160926653Y-86742255D02*
X160966743Y-86615893D01*
X153877208Y-86751799D02*
G75*
G02*
X153801411Y-86720100I738J108234D01*
G01*
X161371323Y-85930000D02*
X161573401Y-85930000D01*
X160889676Y-86863114D02*
G75*
G02*
X160903258Y-86808564I228534J-27935D01*
G01*
X161015428Y-86898661D02*
G75*
G02*
X160939113Y-86905624I-96420J635014D01*
G01*
X161266552Y-86634539D02*
G75*
G02*
X161181060Y-86777706I-880355J428594D01*
G01*
X159199312Y-86910000D02*
X158779312Y-86910000D01*
X160034344Y-86910000D02*
X159479312Y-86910000D01*
X160761090Y-85949141D02*
G75*
G02*
X160837830Y-85982724I-26741J-165575D01*
G01*
X160830633Y-86101126D02*
X160791186Y-86225917D01*
X158359312Y-86910000D02*
X158359312Y-86420000D01*
X160966743Y-86615893D02*
X161012316Y-86467151D01*
X153906379Y-86495521D02*
G75*
G02*
X153936729Y-86512355I-65415J-153713D01*
G01*
X153812642Y-86513330D02*
G75*
G02*
X153879312Y-86490000I66670J-83595D01*
G01*
X154719312Y-87050000D02*
X154400342Y-87050000D01*
X156727990Y-86101126D02*
X156705621Y-86037596D01*
X154719312Y-86770000D02*
X154719312Y-87050000D01*
X153965512Y-86536990D02*
G75*
G02*
X153988081Y-86566100I-125597J-120682D01*
G01*
X154002789Y-86648484D02*
G75*
G02*
X153958009Y-86723082I-127705J25920D01*
G01*
X159479312Y-86910000D02*
X159479312Y-86420000D01*
X156975277Y-85933362D02*
X157371822Y-85930000D01*
X158359312Y-85930000D02*
X158779312Y-85930000D01*
X160903258Y-86808564D02*
X160926653Y-86742255D01*
X153936730Y-86512354D02*
G75*
G02*
X153965512Y-86536990I-111627J-159549D01*
G01*
X153879312Y-86490000D02*
G75*
G02*
X153906380Y-86495521I-1J-69125D01*
G01*
X153769524Y-86574759D02*
G75*
G02*
X153812642Y-86513330I126179J-42719D01*
G01*
X153764956Y-86652985D02*
G75*
G02*
X153769525Y-86574760I144660J30797D01*
G01*
X153801410Y-86720100D02*
G75*
G02*
X153764956Y-86652985I95129J95128D01*
G01*
X161181060Y-86777706D02*
G75*
G02*
X161100947Y-86861521I-339067J243897D01*
G01*
X159479312Y-85930000D02*
X160186801Y-85930000D01*
X157371822Y-85930000D02*
X158079312Y-85930000D01*
X153958009Y-86723081D02*
G75*
G02*
X153877208Y-86751799I-79945J96904D01*
G01*
X153988081Y-86566099D02*
G75*
G02*
X154002789Y-86648483I-96710J-59771D01*
G01*
X160939114Y-86905624D02*
G75*
G02*
X160901903Y-86893182I-1772J56564D01*
G01*
X159479312Y-86420000D02*
X159479312Y-85930000D01*
X160853002Y-86037596D02*
X160830633Y-86101126D01*
X163520000Y-84810000D02*
X163170000Y-84810000D01*
X156969246Y-86910000D02*
X156858078Y-86527596D01*
X158079312Y-86420000D02*
X158079312Y-86910000D01*
X156429209Y-86087174D02*
X156500545Y-86312405D01*
X156186077Y-85930000D02*
G75*
G02*
X156303535Y-85944673I0J-477463D01*
G01*
X156059860Y-85947338D02*
G75*
G02*
X156186077Y-85930000I126217J-450744D01*
G01*
X156023465Y-86000582D02*
G75*
G02*
X156059860Y-85947339I49922J4936D01*
G01*
X163665363Y-85893128D02*
X163561364Y-86089811D01*
X154171661Y-86201841D02*
G75*
G02*
X154071356Y-86167982I16572J214593D01*
G01*
X163539312Y-82850000D02*
X163539312Y-83830000D01*
X156250096Y-86577500D02*
X156053406Y-86118212D01*
X156395597Y-86836872D02*
G75*
G02*
X156327242Y-86738098I378789J335176D01*
G01*
X163487267Y-86167983D02*
G75*
G02*
X163386962Y-86201842I-116877J180735D01*
G01*
X156465331Y-86890962D02*
G75*
G02*
X156395598Y-86836872I108327J211649D01*
G01*
X162839312Y-82850000D02*
X163189312Y-82850000D01*
X153739312Y-85090000D02*
X154229312Y-85090000D01*
X156544313Y-86910000D02*
G75*
G02*
X156465331Y-86890962I0J173353D01*
G01*
X156662800Y-86851375D02*
G75*
G02*
X156649428Y-86884763I-45148J-1290D01*
G01*
X163774089Y-85597918D02*
X163724309Y-85753993D01*
X156653002Y-86802404D02*
G75*
G02*
X156662800Y-86851375I-138669J-53213D01*
G01*
X156546134Y-86466700D02*
X156591186Y-86614084D01*
X163561364Y-86089810D02*
G75*
G02*
X163487267Y-86167982I-198083J113555D01*
G01*
X154383260Y-86210000D02*
X154171661Y-86201842D01*
X162839312Y-84810000D02*
X162839312Y-83830000D01*
X154719312Y-86210000D02*
X154383260Y-86210000D01*
X154719312Y-85650000D02*
X154719312Y-86210000D01*
X163539312Y-83830000D02*
X163539312Y-84810000D01*
X162839312Y-85090000D02*
X163329312Y-85090000D01*
X163724309Y-85753994D02*
G75*
G02*
X163665363Y-85893128I-1378663J502033D01*
G01*
X154229312Y-85090000D02*
X154719312Y-85090000D01*
X156858078Y-86527596D02*
X156812489Y-86373301D01*
X153750071Y-85448694D02*
G75*
G02*
X153739312Y-85333128I615286J115566D01*
G01*
X158079312Y-86910000D02*
X157524279Y-86910000D01*
X156053405Y-86118212D02*
G75*
G02*
X156023465Y-86000582I372370J157406D01*
G01*
X163189312Y-82850000D02*
X163539312Y-82850000D01*
X156327242Y-86738098D02*
X156250096Y-86577500D01*
X156630633Y-86738875D02*
X156653002Y-86802405D01*
X156591186Y-86614084D02*
X156630633Y-86738875D01*
X162839312Y-85650000D02*
X162839312Y-85090000D01*
X162839312Y-86210000D02*
X162839312Y-85650000D01*
X162839312Y-83830000D02*
X162839312Y-82850000D01*
X153834314Y-85753993D02*
X153784534Y-85597918D01*
X163819312Y-85090000D02*
X163819312Y-85333128D01*
X153997259Y-86089811D02*
X153893260Y-85893128D01*
X156500545Y-86312405D02*
X156546134Y-86466700D01*
X154719312Y-82850000D02*
X154719312Y-83830000D01*
X163819311Y-85333127D02*
G75*
G02*
X163808552Y-85448694I-626045J-1D01*
G01*
X153739312Y-85333128D02*
X153739312Y-85090000D01*
X156649429Y-86884763D02*
G75*
G02*
X156611592Y-86904246I-49878J50383D01*
G01*
X163808552Y-85448694D02*
X163774089Y-85597918D01*
X156812489Y-86373301D02*
X156767437Y-86225917D01*
X154719312Y-85090000D02*
X154719312Y-85650000D01*
X163329312Y-85090000D02*
X163819312Y-85090000D01*
X163175363Y-86210000D02*
X162839312Y-86210000D01*
X153784534Y-85597918D02*
X153750071Y-85448694D01*
X157524279Y-86910000D02*
X156969246Y-86910000D01*
X156374925Y-85989987D02*
G75*
G02*
X156429209Y-86087174I-241679J-198744D01*
G01*
X156611591Y-86904245D02*
G75*
G02*
X156544313Y-86910000I-67278J390389D01*
G01*
X163386962Y-86201842D02*
X163175363Y-86210000D01*
X163189312Y-84810000D02*
X162839312Y-84810000D01*
X156303535Y-85944673D02*
G75*
G02*
X156374925Y-85989987I-33365J-131458D01*
G01*
X154071357Y-86167983D02*
G75*
G02*
X153997259Y-86089811I123985J191728D01*
G01*
X156767437Y-86225917D02*
X156727990Y-86101126D01*
X153893259Y-85893128D02*
G75*
G02*
X153834314Y-85753993I1319718J641167D01*
G01*
X153677165Y-82888756D02*
G75*
G02*
X153719312Y-82990000I-175079J-132277D01*
G01*
X153599312Y-82850001D02*
G75*
G02*
X153677165Y-82888756I0J-97575D01*
G01*
X153599312Y-82850001D02*
G75*
G02*
X153517682Y-82794022I0J87507D01*
G01*
X153459312Y-81170000D02*
X153462002Y-82253457D01*
X153459312Y-79490000D02*
X153459312Y-81170000D01*
X155284971Y-78924787D02*
X155279312Y-79178446D01*
X154705339Y-79493207D02*
G75*
G02*
X154885562Y-79510682I-14680J-1089441D01*
G01*
X155275793Y-79535538D02*
G75*
G02*
X155257670Y-79678556I-678971J13381D01*
G01*
X155279312Y-79178446D02*
X155275793Y-79535538D01*
X157068282Y-75892615D02*
G75*
G02*
X157963663Y-75529387I1670733J-2833266D01*
G01*
X155326906Y-78399294D02*
X155302035Y-78651695D01*
X155034312Y-79735001D02*
G75*
G02*
X155008190Y-79691122I73423J73424D01*
G01*
X155302035Y-78651695D02*
X155284971Y-78924787D01*
X156283461Y-76510078D02*
G75*
G02*
X157068282Y-75892615I2685793J-2606250D01*
G01*
X153719311Y-82990000D02*
G75*
G02*
X153736316Y-83213874I-1682838J-240404D01*
G01*
X153517682Y-82794021D02*
G75*
G02*
X153478270Y-82622500I577121J222899D01*
G01*
X154705338Y-79493207D02*
X154229312Y-79490000D01*
X154967327Y-79553283D02*
G75*
G02*
X154999312Y-79630000I-76013J-76717D01*
G01*
X155078191Y-79761121D02*
G75*
G02*
X155034312Y-79735000I29544J99544D01*
G01*
X155139311Y-79770001D02*
G75*
G02*
X155078190Y-79761122I1J214816D01*
G01*
X153462002Y-82253457D02*
X153478270Y-82622500D01*
X154229312Y-79490000D02*
X153459312Y-79490000D01*
X154885561Y-79510683D02*
G75*
G02*
X154967327Y-79553284I-27862J-153245D01*
G01*
X155356667Y-78215946D02*
G75*
G02*
X155690627Y-77312328I3188700J-664961D01*
G01*
X155008191Y-79691121D02*
G75*
G02*
X154999312Y-79630000I205936J61121D01*
G01*
X155326906Y-78399294D02*
G75*
G02*
X155356667Y-78215946I2065645J-241210D01*
G01*
X155214995Y-79744380D02*
G75*
G02*
X155139312Y-79770000I-75683J98978D01*
G01*
X155690627Y-77312328D02*
G75*
G02*
X156283461Y-76510078I3272639J-1798197D01*
G01*
X155257670Y-79678556D02*
G75*
G02*
X155214995Y-79744381I-113557J26875D01*
G01*
X153736317Y-84446126D02*
G75*
G02*
X153719312Y-84670000I-1699844J16529D01*
G01*
X153739312Y-83830000D02*
X153736316Y-84446127D01*
X153736316Y-83213874D02*
X153739312Y-83830000D01*
X154001913Y-87427085D02*
G75*
G02*
X153938521Y-87449438I-155854J340931D01*
G01*
X155001917Y-82753018D02*
X155017967Y-82292618D01*
X155835723Y-87782072D02*
X155835151Y-86970211D01*
X153817293Y-87259230D02*
G75*
G02*
X153809312Y-87215527I115667J43703D01*
G01*
X153488770Y-87520759D02*
G75*
G02*
X153570681Y-87480446I98458J-96679D01*
G01*
X153195412Y-88642500D02*
X153161975Y-89010000D01*
X153494081Y-85619433D02*
G75*
G02*
X153467962Y-85436597I1587440J320055D01*
G01*
X153797451Y-87160451D02*
G75*
G02*
X153809312Y-87215527I-121948J-55077D01*
G01*
X155559929Y-86287774D02*
G75*
G02*
X155660556Y-86374882I-554490J-742226D01*
G01*
X153677165Y-84771245D02*
G75*
G02*
X153599312Y-84810000I-77853J58820D01*
G01*
X153719312Y-84670001D02*
G75*
G02*
X153677165Y-84771245I-217226J31033D01*
G01*
X153701282Y-87009377D02*
G75*
G02*
X153757905Y-87087039I-559375J-467313D01*
G01*
X153482606Y-84880349D02*
G75*
G02*
X153525032Y-84829195I86645J-28691D01*
G01*
X155766022Y-86520007D02*
G75*
G02*
X155816829Y-86685628I-446222J-227491D01*
G01*
X155055510Y-82073527D02*
G75*
G02*
X155139312Y-82010000I83802J-23510D01*
G01*
X153849679Y-87464931D02*
G75*
G02*
X153744279Y-87470000I-105401J1093383D01*
G01*
X153463407Y-84987926D02*
X153459312Y-85232789D01*
X153538030Y-85783744D02*
G75*
G02*
X153494081Y-85619433I1292873J433839D01*
G01*
X154011222Y-87373305D02*
G75*
G02*
X154019312Y-87400000I-40000J-26696D01*
G01*
X153600254Y-85931847D02*
G75*
G02*
X153538029Y-85783744I967836J493753D01*
G01*
X155279312Y-85930000D02*
X155479719Y-85930000D01*
X155240303Y-86223754D02*
G75*
G02*
X155368195Y-86218969I94236J-807208D01*
G01*
X153634311Y-86938870D02*
G75*
G02*
X153513512Y-86790962I470007J507146D01*
G01*
X155279312Y-83970000D02*
X155279312Y-85930000D01*
X155276680Y-82699559D02*
X155279312Y-83970000D01*
X153432447Y-87612028D02*
G75*
G02*
X153488772Y-87520759I229053J-78340D01*
G01*
X155222348Y-82071006D02*
G75*
G02*
X155260562Y-82272500I-844623J-264555D01*
G01*
X153600254Y-85931847D02*
X153741196Y-86208116D01*
X155017967Y-82292619D02*
G75*
G02*
X155055511Y-82073527I1070328J-70651D01*
G01*
X153432447Y-87612028D02*
X153349047Y-87872500D01*
X153634311Y-86938870D02*
G75*
G02*
X153701282Y-87009378I-519110J-560130D01*
G01*
X155240303Y-86223754D02*
X154999312Y-86251888D01*
X155368195Y-86218969D02*
G75*
G02*
X155468500Y-86238605I-13987J-337457D01*
G01*
X155468500Y-86238605D02*
G75*
G02*
X155559929Y-86287774I-118952J-330780D01*
G01*
X153988468Y-87350563D02*
G75*
G02*
X154011222Y-87373306I-45554J-68330D01*
G01*
X155660557Y-86374881D02*
G75*
G02*
X155766022Y-86520007I-405751J-405752D01*
G01*
X153525033Y-84829195D02*
G75*
G02*
X153599312Y-84810000I74279J-134124D01*
G01*
X153161975Y-89010000D02*
X154496801Y-89010000D01*
X153840155Y-87296374D02*
G75*
G02*
X153817292Y-87259230I84874J77850D01*
G01*
X153254335Y-88264719D02*
X153216792Y-88472845D01*
X154496801Y-89010000D02*
X155831627Y-89010000D01*
X153300562Y-88053349D02*
X153254335Y-88264719D01*
X153914311Y-87330001D02*
G75*
G02*
X153954453Y-87335229I1J-156705D01*
G01*
X153757905Y-87087040D02*
G75*
G02*
X153797451Y-87160452I-504501J-319122D01*
G01*
X153466928Y-86641429D02*
G75*
G02*
X153496986Y-86493214I296136J17100D01*
G01*
X153216792Y-88472845D02*
X153195412Y-88642500D01*
X153914311Y-87330000D02*
G75*
G02*
X153874252Y-87321227I0J95846D01*
G01*
X153874252Y-87321228D02*
G75*
G02*
X153840155Y-87296374I44676J97108D01*
G01*
X154019311Y-87400001D02*
G75*
G02*
X154001912Y-87427085I-29780J0D01*
G01*
X153349047Y-87872500D02*
X153300562Y-88053349D01*
X153954454Y-87335229D02*
G75*
G02*
X153988468Y-87350563I-29186J-110133D01*
G01*
X153463407Y-84987926D02*
G75*
G02*
X153482606Y-84880349I382750J-12807D01*
G01*
X155816829Y-86685628D02*
G75*
G02*
X155835151Y-86970211I-2377523J-295951D01*
G01*
X154999312Y-86251888D02*
X154999312Y-84130944D01*
X153513513Y-86790962D02*
G75*
G02*
X153466929Y-86641429I276617J168196D01*
G01*
X155260562Y-82272500D02*
X155276680Y-82699559D01*
X154999312Y-84130944D02*
X155001917Y-82753018D01*
X153938520Y-87449438D02*
G75*
G02*
X153849679Y-87464932I-145410J571323D01*
G01*
X153496986Y-86493213D02*
G75*
G02*
X153600254Y-86349058I487789J-240367D01*
G01*
X155831627Y-89010000D02*
X155835723Y-87782072D01*
X153459312Y-85232789D02*
X153467962Y-85436597D01*
X153741196Y-86208116D02*
X153600254Y-86349058D01*
X155139312Y-82010001D02*
G75*
G02*
X155222348Y-82071006I0J-87014D01*
G01*
X153570682Y-87480446D02*
G75*
G02*
X153744279Y-87470000I173595J-1437228D01*
G01*
X158715609Y-77119993D02*
G75*
G02*
X158779312Y-77110000I63703J-198057D01*
G01*
X158843015Y-77119993D02*
G75*
G02*
X158919312Y-77151125I-165659J-515042D01*
G01*
X158701410Y-77620100D02*
G75*
G02*
X158664956Y-77552985I95129J95128D01*
G01*
X158858009Y-77623081D02*
G75*
G02*
X158777208Y-77651799I-79945J96904D01*
G01*
X158995413Y-77196422D02*
G75*
G02*
X159059312Y-77250000I-272987J-390465D01*
G01*
X159158186Y-77670001D02*
G75*
G02*
X159112889Y-77746102I-541189J270595D01*
G01*
X158400436Y-77670001D02*
G75*
G02*
X158369304Y-77593704I483910J241956D01*
G01*
X159158187Y-77390000D02*
G75*
G02*
X159189319Y-77466297I-483910J-241956D01*
G01*
X159059311Y-77250001D02*
G75*
G02*
X159112889Y-77313899I-336886J-336885D01*
G01*
X159112890Y-77746102D02*
G75*
G02*
X159059312Y-77810000I-390465J272987D01*
G01*
X158563210Y-77863578D02*
G75*
G02*
X158499312Y-77810000I272987J390464D01*
G01*
X158779311Y-77950001D02*
G75*
G02*
X158715608Y-77940008I1J208050D01*
G01*
X158359311Y-77530000D02*
G75*
G02*
X158369304Y-77466297I208050J-1D01*
G01*
X158639311Y-77908875D02*
G75*
G02*
X158563210Y-77863578I270595J541189D01*
G01*
X158715609Y-77940007D02*
G75*
G02*
X158639312Y-77908875I165658J515041D01*
G01*
X158865512Y-77436990D02*
G75*
G02*
X158888081Y-77466100I-125597J-120682D01*
G01*
X158369305Y-77593703D02*
G75*
G02*
X158359312Y-77530000I198056J63703D01*
G01*
X158669524Y-77474759D02*
G75*
G02*
X158712642Y-77413330I126179J-42719D01*
G01*
X158499312Y-77250001D02*
G75*
G02*
X158563210Y-77196423I336885J-336886D01*
G01*
X159112890Y-77313898D02*
G75*
G02*
X159158187Y-77390000I-495893J-346697D01*
G01*
X158639311Y-77151125D02*
G75*
G02*
X158715608Y-77119993I241956J-483910D01*
G01*
X158902789Y-77548484D02*
G75*
G02*
X158858009Y-77623082I-127705J25920D01*
G01*
X158843015Y-77940007D02*
G75*
G02*
X158779312Y-77950000I-63704J198056D01*
G01*
X158712642Y-77413330D02*
G75*
G02*
X158779312Y-77390000I66670J-83595D01*
G01*
X158499312Y-77810000D02*
G75*
G02*
X158445734Y-77746102I336886J336885D01*
G01*
X158779312Y-77110000D02*
G75*
G02*
X158843015Y-77119993I-1J-208050D01*
G01*
X158836730Y-77412354D02*
G75*
G02*
X158865512Y-77436990I-111627J-159549D01*
G01*
X159189319Y-77593703D02*
G75*
G02*
X159158187Y-77670000I-515042J165658D01*
G01*
X158919312Y-77151126D02*
G75*
G02*
X158995413Y-77196423I-270595J-541189D01*
G01*
X158919312Y-77908876D02*
G75*
G02*
X158843015Y-77940008I-241956J483910D01*
G01*
X158777208Y-77651799D02*
G75*
G02*
X158701411Y-77620100I738J108234D01*
G01*
X159199312Y-77530001D02*
G75*
G02*
X159189319Y-77593704I-208050J1D01*
G01*
X158779312Y-77390000D02*
G75*
G02*
X158806380Y-77395521I-1J-69125D01*
G01*
X158664956Y-77552985D02*
G75*
G02*
X158669525Y-77474760I144660J30797D01*
G01*
X158888081Y-77466099D02*
G75*
G02*
X158902789Y-77548483I-96710J-59771D01*
G01*
X159059311Y-77810000D02*
G75*
G02*
X158995413Y-77863578I-336885J336886D01*
G01*
X159189319Y-77466297D02*
G75*
G02*
X159199312Y-77530000I-198057J-63704D01*
G01*
X158563211Y-77196422D02*
G75*
G02*
X158639312Y-77151125I346695J-495893D01*
G01*
X158806379Y-77395521D02*
G75*
G02*
X158836729Y-77412355I-65415J-153713D01*
G01*
X158995414Y-77863578D02*
G75*
G02*
X158919312Y-77908875I-346697J495892D01*
G01*
X158445734Y-77746101D02*
G75*
G02*
X158400437Y-77670000I495892J346695D01*
G01*
X158230742Y-84847701D02*
G75*
G02*
X158264606Y-84745380I542235J-122696D01*
G01*
X156560699Y-84244748D02*
X156801812Y-84235994D01*
X156462233Y-84230727D02*
G75*
G02*
X156416032Y-84189417I22392J71533D01*
G01*
X158522731Y-84871334D02*
G75*
G02*
X158615591Y-84726415I253066J-59946D01*
G01*
X156998507Y-83999193D02*
X156801812Y-83984007D01*
X157116229Y-84023385D02*
G75*
G02*
X157180997Y-84059287I-54918J-175442D01*
G01*
X156399312Y-83690001D02*
G75*
G02*
X156416032Y-83610584I196958J1D01*
G01*
X158538285Y-85048726D02*
G75*
G02*
X158522731Y-84871334I259824J112160D01*
G01*
X158318960Y-84648369D02*
G75*
G02*
X158391130Y-84561819I513757J-355037D01*
G01*
X158827763Y-85217088D02*
G75*
G02*
X158656812Y-85187140I-48899J223759D01*
G01*
X156801812Y-83564007D02*
X156560699Y-83555253D01*
X158219311Y-84950000D02*
G75*
G02*
X158230741Y-84847700I463530J-1D01*
G01*
X156416032Y-83610584D02*
G75*
G02*
X156462233Y-83569274I68593J-30223D01*
G01*
X158656812Y-85187140D02*
G75*
G02*
X158538286Y-85048726I163961J260358D01*
G01*
X158779312Y-84390000D02*
G75*
G02*
X158881612Y-84401430I-1J-463530D01*
G01*
X158391130Y-85338183D02*
G75*
G02*
X158318959Y-85251633I441587J441588D01*
G01*
X158264605Y-85154622D02*
G75*
G02*
X158230741Y-85052301I508372J225018D01*
G01*
X156399312Y-84110001D02*
G75*
G02*
X156416032Y-84030584I196958J1D01*
G01*
X158982351Y-85120689D02*
G75*
G02*
X158827762Y-85217089I-212505J168627D01*
G01*
X159046365Y-84943328D02*
G75*
G02*
X158982352Y-85120689I-295707J6493D01*
G01*
X158881611Y-84401431D02*
G75*
G02*
X158983932Y-84435295I-122696J-542235D01*
G01*
X158477680Y-84489649D02*
G75*
G02*
X158574691Y-84435295I336772J-487327D01*
G01*
X158318960Y-85251632D02*
G75*
G02*
X158264606Y-85154621I487327J336772D01*
G01*
X158264605Y-84745380D02*
G75*
G02*
X158318959Y-84648368I541682J-239761D01*
G01*
X156462233Y-83989274D02*
G75*
G02*
X156560699Y-83975253I92150J-294382D01*
G01*
X157180997Y-84160715D02*
G75*
G02*
X157116229Y-84196617I-119686J139541D01*
G01*
X156462233Y-83569274D02*
G75*
G02*
X156560699Y-83555253I92150J-294382D01*
G01*
X156801812Y-84235994D02*
X156998507Y-84220808D01*
X157180997Y-84059286D02*
G75*
G02*
X157204312Y-84110000I-43498J-50714D01*
G01*
X156416032Y-84030584D02*
G75*
G02*
X156462233Y-83989274I68593J-30223D01*
G01*
X159327882Y-84847700D02*
G75*
G02*
X159339312Y-84950000I-452100J-102301D01*
G01*
X159245374Y-85255221D02*
G75*
G02*
X158995426Y-85457807I-461296J313656D01*
G01*
X156560699Y-84244748D02*
G75*
G02*
X156462233Y-84230727I-6316J308403D01*
G01*
X158391129Y-84561819D02*
G75*
G02*
X158477679Y-84489648I441588J-441587D01*
G01*
X159080943Y-84489649D02*
G75*
G02*
X159167493Y-84561819I-355037J-513757D01*
G01*
X158574690Y-84435294D02*
G75*
G02*
X158677011Y-84401430I225018J-508372D01*
G01*
X158677012Y-84401430D02*
G75*
G02*
X158779312Y-84390000I102300J-452100D01*
G01*
X158230742Y-85052300D02*
G75*
G02*
X158219312Y-84950000I452099J102300D01*
G01*
X156416032Y-84189417D02*
G75*
G02*
X156399312Y-84110000I180238J79416D01*
G01*
X158983932Y-84435294D02*
G75*
G02*
X159080944Y-84489648I-239761J-541682D01*
G01*
X159167493Y-84561818D02*
G75*
G02*
X159239664Y-84648368I-441587J-441588D01*
G01*
X159239663Y-84648369D02*
G75*
G02*
X159294017Y-84745380I-487327J-336772D01*
G01*
X159294018Y-84745379D02*
G75*
G02*
X159327882Y-84847700I-508372J-225018D01*
G01*
X156998506Y-83999192D02*
G75*
G02*
X157116229Y-84023384I-60865J-594717D01*
G01*
X159339311Y-84950000D02*
G75*
G02*
X159245373Y-85255221I-542827J0D01*
G01*
X156801812Y-83984007D02*
X156560699Y-83975253D01*
X157204311Y-84110001D02*
G75*
G02*
X157180997Y-84160714I-66812J0D01*
G01*
X156998507Y-83579193D02*
X156801812Y-83564007D01*
X157116230Y-84196617D02*
G75*
G02*
X156998507Y-84220808I-178589J570525D01*
G01*
X158674314Y-85489134D02*
G75*
G02*
X158391130Y-85338182I106204J540340D01*
G01*
X158986521Y-84771638D02*
G75*
G02*
X159046364Y-84943328I-200000J-165985D01*
G01*
X158995425Y-85457806D02*
G75*
G02*
X158674314Y-85489134I-212792J519772D01*
G01*
X156560699Y-83404748D02*
G75*
G02*
X156462233Y-83390727I-6316J308403D01*
G01*
X156560699Y-83824748D02*
X156801812Y-83815994D01*
X156462233Y-83810727D02*
G75*
G02*
X156416032Y-83769417I22392J71533D01*
G01*
X157116229Y-82763385D02*
G75*
G02*
X157180997Y-82799287I-54918J-175442D01*
G01*
X157180997Y-83320715D02*
G75*
G02*
X157116229Y-83356617I-119686J139541D01*
G01*
X156462233Y-83149274D02*
G75*
G02*
X156560699Y-83135253I92150J-294382D01*
G01*
X158499312Y-83340000D02*
X158499312Y-82710000D01*
X157180997Y-82799286D02*
G75*
G02*
X157204312Y-82850000I-43498J-50714D01*
G01*
X157180997Y-82900715D02*
G75*
G02*
X157116229Y-82936617I-119686J139541D01*
G01*
X158779312Y-82430000D02*
X158219312Y-82430000D01*
X159339312Y-82430000D02*
X158779312Y-82430000D01*
X159339312Y-83340000D02*
X159339312Y-82430000D01*
X159059312Y-83340000D02*
X159059312Y-83970000D01*
X156801812Y-83395994D02*
X156998507Y-83380808D01*
X156416032Y-83349417D02*
G75*
G02*
X156399312Y-83270000I180238J79416D01*
G01*
X158779312Y-82710000D02*
X159059312Y-82710000D01*
X158779312Y-83970000D02*
X158499312Y-83970000D01*
X158499312Y-82710000D02*
X158779312Y-82710000D01*
X158219312Y-83340000D02*
X158219312Y-84250000D01*
X160161737Y-81912901D02*
G75*
G02*
X160179312Y-81940000I-12106J-27100D01*
G01*
X160097062Y-81890563D02*
G75*
G02*
X160161738Y-81912902I-94863J-379448D01*
G01*
X157180997Y-83639286D02*
G75*
G02*
X157204312Y-83690000I-43498J-50714D01*
G01*
X156801812Y-82975994D02*
X156998507Y-82960808D01*
X158779312Y-84250000D02*
X159339312Y-84250000D01*
X157204311Y-83690001D02*
G75*
G02*
X157180997Y-83740714I-66812J0D01*
G01*
X157204311Y-83270001D02*
G75*
G02*
X157180997Y-83320714I-66812J0D01*
G01*
X157180997Y-83740715D02*
G75*
G02*
X157116229Y-83776617I-119686J139541D01*
G01*
X159059312Y-82710000D02*
X159059312Y-83340000D01*
X159792006Y-81875067D02*
G75*
G02*
X159899312Y-81870000I107306J-1133647D01*
G01*
X157180997Y-83219286D02*
G75*
G02*
X157204312Y-83270000I-43498J-50714D01*
G01*
X157116230Y-82936617D02*
G75*
G02*
X156998507Y-82960808I-178589J570525D01*
G01*
X156801812Y-83815994D02*
X156998507Y-83800808D01*
X156399312Y-83270001D02*
G75*
G02*
X156416032Y-83190584I196958J1D01*
G01*
X156416032Y-83190584D02*
G75*
G02*
X156462233Y-83149274I68593J-30223D01*
G01*
X156399312Y-82850001D02*
G75*
G02*
X156416032Y-82770584I196958J1D01*
G01*
X156801812Y-83144007D02*
X156560699Y-83135253D01*
X158219312Y-82430000D02*
X158219312Y-83340000D01*
X156998507Y-83159193D02*
X156801812Y-83144007D01*
X156998506Y-82739192D02*
G75*
G02*
X157116229Y-82763384I-60865J-594717D01*
G01*
X156998506Y-83159192D02*
G75*
G02*
X157116229Y-83183384I-60865J-594717D01*
G01*
X157116229Y-83183385D02*
G75*
G02*
X157180997Y-83219287I-54918J-175442D01*
G01*
X156462233Y-83390727D02*
G75*
G02*
X156416032Y-83349417I22392J71533D01*
G01*
X156462233Y-82729274D02*
G75*
G02*
X156560699Y-82715253I92150J-294382D01*
G01*
X157204311Y-82850001D02*
G75*
G02*
X157180997Y-82900714I-66812J0D01*
G01*
X156560699Y-82984748D02*
G75*
G02*
X156462233Y-82970727I-6316J308403D01*
G01*
X158219312Y-84250000D02*
X158779312Y-84250000D01*
X156801812Y-82724007D02*
X156560699Y-82715253D01*
X156998507Y-82739193D02*
X156801812Y-82724007D01*
X159339312Y-84250000D02*
X159339312Y-83340000D01*
X159899312Y-81870001D02*
G75*
G02*
X160006618Y-81875068I-1J-1138713D01*
G01*
X156416032Y-82770584D02*
G75*
G02*
X156462233Y-82729274I68593J-30223D01*
G01*
X159059312Y-83970000D02*
X158779312Y-83970000D01*
X156560699Y-83824748D02*
G75*
G02*
X156462233Y-83810727I-6316J308403D01*
G01*
X156998506Y-83579192D02*
G75*
G02*
X157116229Y-83603384I-60865J-594717D01*
G01*
X156560699Y-82984748D02*
X156801812Y-82975994D01*
X157116229Y-83603385D02*
G75*
G02*
X157180997Y-83639287I-54918J-175442D01*
G01*
X156560699Y-83404748D02*
X156801812Y-83395994D01*
X160006618Y-81875068D02*
G75*
G02*
X160097062Y-81890563I-57470J-607150D01*
G01*
X156462233Y-82970727D02*
G75*
G02*
X156416032Y-82929417I22392J71533D01*
G01*
X156416032Y-83769417D02*
G75*
G02*
X156399312Y-83690000I180238J79416D01*
G01*
X158499312Y-83970000D02*
X158499312Y-83340000D01*
X156416032Y-82929417D02*
G75*
G02*
X156399312Y-82850000I180238J79416D01*
G01*
X157116230Y-83776617D02*
G75*
G02*
X156998507Y-83800808I-178589J570525D01*
G01*
X157116230Y-83356617D02*
G75*
G02*
X156998507Y-83380808I-178589J570525D01*
G01*
X160231811Y-82240602D02*
G75*
G02*
X159834668Y-82275432I-446069J2804694D01*
G01*
X159701561Y-81890563D02*
G75*
G02*
X159792005Y-81875068I147914J-591655D01*
G01*
X159762508Y-81149789D02*
X159518059Y-81165041D01*
X159636886Y-81912902D02*
G75*
G02*
X159701562Y-81890563I159538J-357109D01*
G01*
X160006618Y-82004933D02*
G75*
G02*
X159899312Y-82010000I-107307J1133646D01*
G01*
X160097062Y-81989438D02*
G75*
G02*
X160006618Y-82004933I-147914J591655D01*
G01*
X160161738Y-81967099D02*
G75*
G02*
X160097062Y-81989438I-159539J357109D01*
G01*
X158285180Y-81870000D02*
X158603656Y-81874545D01*
X159896912Y-81610886D02*
X158803017Y-81606758D01*
X160424331Y-81710607D02*
G75*
G02*
X160452459Y-81783696I-113137J-85498D01*
G01*
X158710344Y-81049083D02*
X158954967Y-81034545D01*
X158848279Y-81889083D02*
X159032851Y-81909764D01*
X159836168Y-81048105D02*
X159990283Y-81068818D01*
X158040564Y-82005041D02*
X157796115Y-81989789D01*
X160459312Y-81940001D02*
G75*
G02*
X160452472Y-82096366I-1790825J0D01*
G01*
X158699529Y-81150824D02*
X158525345Y-81130027D01*
X159619311Y-81940002D02*
G75*
G02*
X159636885Y-81912902I29681J1D01*
G01*
X157722455Y-81888105D02*
X157953791Y-81874148D01*
X157105883Y-81776765D02*
X157099312Y-81936370D01*
X159636886Y-81967099D02*
G75*
G02*
X159619312Y-81940000I12106J27099D01*
G01*
X158603656Y-81874545D02*
X158848279Y-81889083D01*
X159896912Y-81610885D02*
G75*
G02*
X160231812Y-81638957I-16895J-2213329D01*
G01*
X159518059Y-81165041D02*
X159230180Y-81170000D01*
X160424360Y-82169356D02*
G75*
G02*
X160363679Y-82211107I-93275J70593D01*
G01*
X160231812Y-81638958D02*
G75*
G02*
X160363621Y-81668712I-172192J-1069606D01*
G01*
X160363621Y-81668712D02*
G75*
G02*
X160424331Y-81710607I-32938J-112665D01*
G01*
X158877102Y-82285264D02*
X159834668Y-82275432D01*
X159701561Y-81989438D02*
G75*
G02*
X159636885Y-81967099I94863J379448D01*
G01*
X157953791Y-81874148D02*
X158285180Y-81870000D01*
X157796115Y-81989789D02*
X157598480Y-81968395D01*
X158627794Y-82005423D02*
X158328443Y-82010000D01*
X159990283Y-81068817D02*
G75*
G02*
X160004312Y-81100000I-3526J-20334D01*
G01*
X159792006Y-82004933D02*
G75*
G02*
X159701562Y-81989438I57469J607150D01*
G01*
X159899311Y-82010000D02*
G75*
G02*
X159792005Y-82004933I1J1138713D01*
G01*
X160452460Y-81783695D02*
G75*
G02*
X160459312Y-81940000I-1779369J-156307D01*
G01*
X157105883Y-81776765D02*
G75*
G02*
X157133635Y-81704754I136521J-11261D01*
G01*
X159033278Y-81970027D02*
X158859094Y-81990824D01*
X158525345Y-81130027D02*
G75*
G02*
X158499312Y-81100000I4299J30026D01*
G01*
X157326811Y-81639210D02*
G75*
G02*
X157722461Y-81611719I425590J-3264277D01*
G01*
X160452472Y-82096366D02*
G75*
G02*
X160424360Y-82169355I-140869J12347D01*
G01*
X157193792Y-81664925D02*
G75*
G02*
X157326812Y-81639210I275948J-1070550D01*
G01*
X159604832Y-81034148D02*
X159836168Y-81048105D01*
X158954967Y-81034545D02*
X159273443Y-81030000D01*
X159230180Y-81170000D02*
X158930829Y-81165423D01*
X157554312Y-81940000D02*
G75*
G02*
X157568340Y-81908818I17554J10849D01*
G01*
X157924575Y-82281015D02*
X158877102Y-82285264D01*
X158930829Y-81165423D02*
X158699529Y-81150824D01*
X158328443Y-82010000D02*
X158040564Y-82005041D01*
X160179312Y-81939999D02*
G75*
G02*
X160161738Y-81967099I-29681J-1D01*
G01*
X157568340Y-81908818D02*
X157722455Y-81888105D01*
X157598480Y-81968394D02*
G75*
G02*
X157554312Y-81940000I7619J60400D01*
G01*
X158525772Y-81069764D02*
X158710344Y-81049083D01*
X158859094Y-81990824D02*
X158627794Y-82005423D01*
X159273443Y-81030000D02*
X159604832Y-81034148D01*
X157133635Y-81704755D02*
G75*
G02*
X157193791Y-81664925I87737J-67169D01*
G01*
X159032850Y-81909764D02*
G75*
G02*
X159059312Y-81940000I-4044J-30237D01*
G01*
X158803017Y-81606758D02*
X157722461Y-81611719D01*
X160363680Y-82211107D02*
G75*
G02*
X160231812Y-82240602I-302241J1041737D01*
G01*
X157924576Y-82281015D02*
G75*
G02*
X157466812Y-82249744I50135J4100048D01*
G01*
X157099312Y-82203869D02*
X157466812Y-82249744D01*
X157099312Y-81936370D02*
X157099312Y-82203869D01*
X158499311Y-81100001D02*
G75*
G02*
X158525772Y-81069764I30506J0D01*
G01*
X159960143Y-81128395D02*
X159762508Y-81149789D01*
X159059311Y-81940000D02*
G75*
G02*
X159033278Y-81970027I-30332J-1D01*
G01*
X160459312Y-80610000D02*
X160459312Y-80260000D01*
X160488682Y-78154823D02*
G75*
G02*
X160529312Y-78195000I-183398J-226103D01*
G01*
X160091812Y-81409744D02*
X160459312Y-81363869D01*
X157256811Y-80804378D02*
G75*
G02*
X157617409Y-80772906I396688J-2463626D01*
G01*
X159668425Y-80764146D02*
X158648057Y-80763075D01*
X160459312Y-80836132D02*
X160091812Y-80791301D01*
X160459312Y-81363869D02*
X160459312Y-81100000D01*
X157128781Y-80875015D02*
G75*
G02*
X157175640Y-80830037I93103J-50098D01*
G01*
X157379311Y-80260002D02*
G75*
G02*
X157409300Y-80227964I32107J1D01*
G01*
X157326811Y-81400602D02*
G75*
G02*
X157194671Y-81371020I170226J1070303D01*
G01*
X158681521Y-81445264D02*
X159634048Y-81441015D01*
X157723955Y-81435432D02*
X158681521Y-81445264D01*
X157723955Y-81435432D02*
G75*
G02*
X157326812Y-81400602I48926J2839524D01*
G01*
X157194671Y-81371020D02*
G75*
G02*
X157134072Y-81329100I32440J111655D01*
G01*
X157409301Y-80292036D02*
G75*
G02*
X157379312Y-80260000I2117J32036D01*
G01*
X157099312Y-79910000D02*
X157099312Y-80260000D01*
X159811812Y-80208375D02*
X160149323Y-80227964D01*
X160459312Y-80260000D02*
X160459312Y-79910000D01*
X158183891Y-80194298D02*
X158779312Y-80190000D01*
X159811812Y-80311625D02*
X159374732Y-80325703D01*
X157099312Y-80610000D02*
X158779312Y-80610000D01*
X160438796Y-78120844D02*
G75*
G02*
X160488681Y-78154824I-178014J-314947D01*
G01*
X157746812Y-80208375D02*
X158183891Y-80194298D01*
X160179312Y-80259999D02*
G75*
G02*
X160149323Y-80292037I-32107J-1D01*
G01*
X157379311Y-81100002D02*
G75*
G02*
X157396885Y-81072902I29681J1D01*
G01*
X160149323Y-80292037D02*
X159811812Y-80311625D01*
X157921737Y-81072901D02*
G75*
G02*
X157939312Y-81100000I-12106J-27100D01*
G01*
X157659312Y-81030001D02*
G75*
G02*
X157766618Y-81035068I-1J-1138713D01*
G01*
X157099312Y-81097079D02*
X157106070Y-81255644D01*
X159668425Y-80764146D02*
G75*
G02*
X160091812Y-80791301I-24844J-3701539D01*
G01*
X157857062Y-81149438D02*
G75*
G02*
X157766618Y-81164933I-147914J591655D01*
G01*
X157099312Y-80260000D02*
X157099312Y-80610000D01*
X160091812Y-81409744D02*
G75*
G02*
X159634048Y-81441015I-507900J4068777D01*
G01*
X157105463Y-80953274D02*
G75*
G02*
X157128781Y-80875015I200733J-17206D01*
G01*
X160149321Y-80227964D02*
G75*
G02*
X160179312Y-80260000I-2116J-32037D01*
G01*
X159374732Y-80325703D02*
X158779312Y-80330000D01*
X157409300Y-80227964D02*
X157746812Y-80208375D01*
X158779312Y-80190000D02*
X159374732Y-80194298D01*
X158779312Y-79910000D02*
X157099312Y-79910000D01*
X157134071Y-81329100D02*
G75*
G02*
X157106070Y-81255644I114207J85601D01*
G01*
X160387630Y-78097561D02*
G75*
G02*
X160438796Y-78120844I-107285J-303618D01*
G01*
X157939312Y-81099999D02*
G75*
G02*
X157921738Y-81127099I-29681J-1D01*
G01*
X157766618Y-81035068D02*
G75*
G02*
X157857062Y-81050563I-57470J-607150D01*
G01*
X157461561Y-81149438D02*
G75*
G02*
X157396885Y-81127099I94863J379448D01*
G01*
X160004312Y-81100000D02*
G75*
G02*
X159960143Y-81128395I-51788J32006D01*
G01*
X157857062Y-81050563D02*
G75*
G02*
X157921738Y-81072902I-94863J-379448D01*
G01*
X157552006Y-81035067D02*
G75*
G02*
X157659312Y-81030000I107306J-1133647D01*
G01*
X160459312Y-81100000D02*
X160459312Y-80836132D01*
X158779312Y-80330000D02*
X158183891Y-80325703D01*
X158779312Y-80610000D02*
X160459312Y-80610000D01*
X157105464Y-80953274D02*
X157099312Y-81097079D01*
X157552006Y-81164933D02*
G75*
G02*
X157461562Y-81149438I57469J607150D01*
G01*
X157396886Y-81127099D02*
G75*
G02*
X157379312Y-81100000I12106J27099D01*
G01*
X157461561Y-81050563D02*
G75*
G02*
X157552005Y-81035068I147914J-591655D01*
G01*
X157396886Y-81072902D02*
G75*
G02*
X157461562Y-81050563I159538J-357109D01*
G01*
X157659311Y-81170000D02*
G75*
G02*
X157552005Y-81164933I1J1138713D01*
G01*
X157766618Y-81164933D02*
G75*
G02*
X157659312Y-81170000I-107307J1133646D01*
G01*
X157746812Y-80311625D02*
X157409300Y-80292037D01*
X159374732Y-80194298D02*
X159811812Y-80208375D01*
X157921738Y-81127099D02*
G75*
G02*
X157857062Y-81149438I-159539J357109D01*
G01*
X158648057Y-80763075D02*
X157617409Y-80772906D01*
X157175640Y-80830037D02*
G75*
G02*
X157256812Y-80804377I127517J-262170D01*
G01*
X158183891Y-80325703D02*
X157746812Y-80311625D01*
X160459312Y-79910000D02*
X158779312Y-79910000D01*
X159895350Y-88951972D02*
G75*
G02*
X159835403Y-89087939I-126879J-25258D01*
G01*
X159596231Y-88183813D02*
G75*
G02*
X159668180Y-88227215I-31104J-132900D01*
G01*
X160343543Y-78090001D02*
G75*
G02*
X160387630Y-78097561I1J-132326D01*
G01*
X160204625Y-78195001D02*
G75*
G02*
X160227400Y-78154861I144467J-55437D01*
G01*
X160187736Y-78359758D02*
G75*
G02*
X160204625Y-78195000I312891J51171D01*
G01*
X160039311Y-77950001D02*
G75*
G02*
X160105982Y-77896403I279872J-279871D01*
G01*
X160105982Y-77896402D02*
G75*
G02*
X160190527Y-77851125I335053J-524061D01*
G01*
X160357493Y-77810001D02*
G75*
G02*
X160523687Y-77852266I1J-347881D01*
G01*
X157939312Y-77530000D02*
X157939312Y-78370000D01*
X160523688Y-77852266D02*
G75*
G02*
X160699178Y-77979151I-405395J-745488D01*
G01*
X159912626Y-78193108D02*
G75*
G02*
X160039312Y-77950000I449438J-79644D01*
G01*
X158779312Y-78090000D02*
X158219312Y-78090000D01*
X160699177Y-77979150D02*
G75*
G02*
X160834566Y-78143966I-566850J-603659D01*
G01*
X159339312Y-76970000D02*
X159339312Y-77530000D01*
X158283949Y-88279847D02*
X158289312Y-88450000D01*
X157641812Y-89150000D02*
X157686549Y-88926314D01*
X158779312Y-76970000D02*
X159339312Y-76970000D01*
X159835403Y-89087939D02*
G75*
G02*
X159641950Y-89143444I-199248J329566D01*
G01*
X158219312Y-77530000D02*
X158219312Y-76970000D01*
X157853296Y-88296012D02*
G75*
G02*
X157945205Y-88203826I193850J-101359D01*
G01*
X159722357Y-88320091D02*
X159791600Y-88532706D01*
X159476600Y-88170000D02*
G75*
G02*
X159596232Y-88183813I-1J-524972D01*
G01*
X159619312Y-78370000D02*
X159619312Y-77530000D01*
X157686549Y-88926314D02*
X157781091Y-88490344D01*
X160302828Y-78097835D02*
G75*
G02*
X160343543Y-78090000I40715J-101866D01*
G01*
X157781091Y-88490343D02*
G75*
G02*
X157853296Y-88296011I802927J-187748D01*
G01*
X160262053Y-78120845D02*
G75*
G02*
X160302829Y-78097836I106053J-140310D01*
G01*
X160699177Y-78620850D02*
G75*
G02*
X160523687Y-78747735I-580884J618603D01*
G01*
X160581453Y-78300001D02*
G75*
G02*
X160569147Y-78347048I-96082J0D01*
G01*
X159619312Y-76690000D02*
X158779312Y-76690000D01*
X159619312Y-77530000D02*
X159619312Y-76690000D01*
X159668181Y-88227215D02*
G75*
G02*
X159722357Y-88320091I-218266J-189557D01*
G01*
X160879311Y-78300001D02*
G75*
G02*
X160834566Y-78456035I-294432J0D01*
G01*
X159939381Y-78478888D02*
G75*
G02*
X159912626Y-78193108I505470J191466D01*
G01*
X159339312Y-78090000D02*
X158779312Y-78090000D01*
X157945205Y-88203825D02*
G75*
G02*
X158082010Y-88170000I136805J-259739D01*
G01*
X160227400Y-78154860D02*
G75*
G02*
X160262053Y-78120844I148546J-116668D01*
G01*
X160569147Y-78347047D02*
G75*
G02*
X160529312Y-78405000I-339166J190469D01*
G01*
X158770562Y-89150000D02*
X157641812Y-89150000D01*
X160834567Y-78456034D02*
G75*
G02*
X160699178Y-78620850I-702240J438842D01*
G01*
X159354435Y-88178593D02*
G75*
G02*
X159476600Y-88170000I122165J-864129D01*
G01*
X158779312Y-76690000D02*
X157939312Y-76690000D01*
X160264027Y-78476356D02*
G75*
G02*
X160187736Y-78359758I93358J144343D01*
G01*
X158219312Y-78090000D02*
X158219312Y-77530000D01*
X160397301Y-78494102D02*
G75*
G02*
X160264027Y-78476356I-47874J149784D01*
G01*
X160529311Y-78195000D02*
G75*
G02*
X160569147Y-78252953I-299330J-248423D01*
G01*
X160834567Y-78143965D02*
G75*
G02*
X160879312Y-78300000I-249688J-156035D01*
G01*
X158219312Y-76970000D02*
X158779312Y-76970000D01*
X158082010Y-88170000D02*
G75*
G02*
X158204185Y-88178592I0J-872947D01*
G01*
X159791600Y-88532706D02*
G75*
G02*
X159895351Y-88951972I-4493462J-1334418D01*
G01*
X160529312Y-78405000D02*
G75*
G02*
X160397301Y-78494101I-218431J181281D01*
G01*
X159339312Y-77530000D02*
X159339312Y-78090000D01*
X160523687Y-78747735D02*
G75*
G02*
X160357493Y-78790000I-166193J305616D01*
G01*
X158779312Y-78370000D02*
X159619312Y-78370000D01*
X160569147Y-78252952D02*
G75*
G02*
X160581454Y-78300000I-83776J-47048D01*
G01*
X160190527Y-77851126D02*
G75*
G02*
X160279051Y-77820180I241703J-549324D01*
G01*
X160107148Y-78704862D02*
G75*
G02*
X159939381Y-78478888I314219J408544D01*
G01*
X158258855Y-88211137D02*
G75*
G02*
X158283949Y-88279847I-103790J-76843D01*
G01*
X157939312Y-76690000D02*
X157939312Y-77530000D01*
X157939312Y-78370000D02*
X158779312Y-78370000D01*
X160279051Y-77820179D02*
G75*
G02*
X160357493Y-77810000I78442J-297155D01*
G01*
X160357493Y-78790001D02*
G75*
G02*
X160107148Y-78704862I1J410635D01*
G01*
X158204185Y-88178593D02*
G75*
G02*
X158258855Y-88211138I-11528J-81555D01*
G01*
X159641950Y-89143444D02*
X158770562Y-89150000D01*
X158400437Y-77390000D02*
G75*
G02*
X158445734Y-77313899I541189J-270595D01*
G01*
X162258144Y-86992620D02*
G75*
G02*
X162321312Y-87024733I-24239J-125862D01*
G01*
X158445734Y-77313898D02*
G75*
G02*
X158499312Y-77250000I390464J-272988D01*
G01*
X162144446Y-87140395D02*
X162153144Y-87376662D01*
X162144446Y-87140395D02*
G75*
G02*
X162156698Y-87040916I348322J7595D01*
G01*
X162156699Y-87040916D02*
G75*
G02*
X162193135Y-86999380I60860J-16639D01*
G01*
X162321312Y-87024734D02*
G75*
G02*
X162359955Y-87086366I-96351J-103342D01*
G01*
X162153144Y-87376662D02*
X162168410Y-87576659D01*
X155193135Y-86999380D02*
G75*
G02*
X155258144Y-86992620I43673J-104027D01*
G01*
X155228498Y-87761444D02*
G75*
G02*
X155192601Y-87695916I142460J120636D01*
G01*
X161020000Y-84831177D02*
G75*
G02*
X161128281Y-84545576I616621J-70455D01*
G01*
X161311276Y-85026926D02*
G75*
G02*
X161310016Y-84824337I721472J105785D01*
G01*
X161580423Y-85466414D02*
G75*
G02*
X161414560Y-85510000I-165862J293793D01*
G01*
X162359954Y-87086366D02*
G75*
G02*
X162379386Y-87196929I-427747J-132165D01*
G01*
X155258144Y-86992620D02*
G75*
G02*
X155321312Y-87024733I-24239J-125862D01*
G01*
X158779311Y-84670001D02*
G75*
G02*
X158832529Y-84677440I1J-194059D01*
G01*
X155156699Y-87040916D02*
G75*
G02*
X155193135Y-86999380I60860J-16639D01*
G01*
X161377102Y-84694583D02*
G75*
G02*
X161467430Y-84693028I46028J-49446D01*
G01*
X161582151Y-84438359D02*
G75*
G02*
X161781801Y-84645742I-239747J-430603D01*
G01*
X162193135Y-86999380D02*
G75*
G02*
X162258144Y-86992620I43673J-104027D01*
G01*
X162192600Y-87695916D02*
G75*
G02*
X162168410Y-87576659I584921J180727D01*
G01*
X155153144Y-87376662D02*
X155168410Y-87576659D01*
X161564587Y-84948553D02*
G75*
G02*
X161541021Y-85091495I-495568J8288D01*
G01*
X155192600Y-87695916D02*
G75*
G02*
X155168410Y-87576659I584921J180727D01*
G01*
X162384312Y-87400959D02*
X162379386Y-87196929D01*
X162379644Y-87592763D02*
X162384312Y-87400959D01*
X162379644Y-87592763D02*
G75*
G02*
X162362027Y-87703494I-514214J25043D01*
G01*
X155379644Y-87592763D02*
X155384312Y-87400959D01*
X162329384Y-87762868D02*
G75*
G02*
X162279312Y-87785000I-50073J45578D01*
G01*
X161485917Y-85191038D02*
G75*
G02*
X161415871Y-85210871I-49712J41964D01*
G01*
X161541020Y-85091496D02*
G75*
G02*
X161485917Y-85191038I-278875J89353D01*
G01*
X161723729Y-85343404D02*
G75*
G02*
X161580424Y-85466414I-382423J300539D01*
G01*
X155359954Y-87086366D02*
G75*
G02*
X155379386Y-87196929I-427747J-132165D01*
G01*
X155279312Y-87785001D02*
G75*
G02*
X155228497Y-87761445I0J66586D01*
G01*
X161326127Y-85089019D02*
G75*
G02*
X161311276Y-85026927I339758J114086D01*
G01*
X161781801Y-84645742D02*
G75*
G02*
X161854654Y-84950000I-598919J-304259D01*
G01*
X162362027Y-87703494D02*
G75*
G02*
X162329384Y-87762869I-139892J38248D01*
G01*
X158832529Y-84677440D02*
G75*
G02*
X158890858Y-84699856I-96274J-337609D01*
G01*
X155384312Y-87400959D02*
X155379386Y-87196929D01*
X161415871Y-85210871D02*
G75*
G02*
X161382936Y-85189374I23873J72553D01*
G01*
X161821029Y-85161344D02*
G75*
G02*
X161723729Y-85343404I-562734J183715D01*
G01*
X161414560Y-85510000D02*
G75*
G02*
X161195517Y-85415025I0J300080D01*
G01*
X161048720Y-85158967D02*
G75*
G02*
X161020000Y-84831177I789366J234315D01*
G01*
X161310016Y-84824337D02*
G75*
G02*
X161377101Y-84694582I214631J-28748D01*
G01*
X162279312Y-87785001D02*
G75*
G02*
X162228497Y-87761445I0J66586D01*
G01*
X162228498Y-87761444D02*
G75*
G02*
X162192601Y-87695916I142460J120636D01*
G01*
X158615591Y-84726414D02*
G75*
G02*
X158779312Y-84670000I163721J-209361D01*
G01*
X155321312Y-87024734D02*
G75*
G02*
X155359955Y-87086366I-96351J-103342D01*
G01*
X155379644Y-87592763D02*
G75*
G02*
X155362027Y-87703494I-514214J25043D01*
G01*
X161467430Y-84693027D02*
G75*
G02*
X161544312Y-84810000I-169540J-195185D01*
G01*
X161351503Y-85145767D02*
G75*
G02*
X161326127Y-85089018I280316J159395D01*
G01*
X158945195Y-84732736D02*
G75*
G02*
X158986521Y-84771638I-136831J-186759D01*
G01*
X161544312Y-84810000D02*
G75*
G02*
X161564587Y-84948553I-413677J-131296D01*
G01*
X161195517Y-85415026D02*
G75*
G02*
X161048720Y-85158967I468521J438710D01*
G01*
X161854654Y-84950001D02*
G75*
G02*
X161821029Y-85161344I-680987J0D01*
G01*
X155144446Y-87140395D02*
X155153144Y-87376662D01*
X155144446Y-87140395D02*
G75*
G02*
X155156698Y-87040916I348322J7595D01*
G01*
X155329384Y-87762868D02*
G75*
G02*
X155279312Y-87785000I-50073J45578D01*
G01*
X161382936Y-85189374D02*
G75*
G02*
X161351503Y-85145767I186239J167381D01*
G01*
X161128281Y-84545576D02*
G75*
G02*
X161335797Y-84404465I289733J-202937D01*
G01*
X155362027Y-87703494D02*
G75*
G02*
X155329384Y-87762869I-139892J38248D01*
G01*
X161335797Y-84404465D02*
G75*
G02*
X161582151Y-84438360I79650J-333305D01*
G01*
X158890858Y-84699857D02*
G75*
G02*
X158945194Y-84732736I-158860J-323870D01*
G01*
X158369305Y-77466297D02*
G75*
G02*
X158400437Y-77390000I515041J-165659D01*
G01*
X154719312Y-79770000D02*
X154719312Y-81170000D01*
X153739312Y-79770000D02*
X154229312Y-79770000D01*
X153739312Y-82570000D02*
X153739312Y-81170000D01*
X156667332Y-79212498D02*
X158779312Y-79210000D01*
X156667332Y-79487503D02*
X155979312Y-79471740D01*
X158779312Y-79490000D02*
X156667332Y-79487503D01*
X160891291Y-79487503D02*
X158779312Y-79490000D01*
X161869225Y-78119821D02*
G75*
G02*
X161915359Y-78176247I-49135J-87245D01*
G01*
X161353438Y-78094446D02*
X161571367Y-78090000D01*
X155635018Y-79438118D02*
G75*
G02*
X155559312Y-79350000I13429J88118D01*
G01*
X155635018Y-79261882D02*
G75*
G02*
X155979312Y-79228261I483772J-3174339D01*
G01*
X161275316Y-78118244D02*
G75*
G02*
X161353438Y-78094446I84726J-138005D01*
G01*
X158779312Y-79210000D02*
X160891291Y-79212498D01*
X160891291Y-79212498D02*
X161579312Y-79228261D01*
X161783430Y-78095102D02*
G75*
G02*
X161869225Y-78119821I-9322J-193609D01*
G01*
X161571367Y-78090000D02*
X161783431Y-78095103D01*
X161923606Y-79438119D02*
G75*
G02*
X161579312Y-79471740I-483773J3174339D01*
G01*
X161999312Y-85650000D02*
X158779312Y-85650000D01*
X153739312Y-81170000D02*
X153739312Y-79770000D01*
X161579312Y-79228262D02*
G75*
G02*
X161923606Y-79261883I-139479J-3207959D01*
G01*
X155979311Y-79471739D02*
G75*
G02*
X155635017Y-79438118I139479J3207959D01*
G01*
X161229312Y-78300001D02*
G75*
G02*
X161239013Y-78172904I837410J1D01*
G01*
X161915359Y-78176247D02*
G75*
G02*
X161944243Y-78300000I-724255J-234291D01*
G01*
X161277884Y-78482645D02*
G75*
G02*
X161239685Y-78427968I37777J67075D01*
G01*
X161239012Y-78172904D02*
G75*
G02*
X161275316Y-78118244I77133J-11844D01*
G01*
X155559312Y-82710000D02*
X155559312Y-79770000D01*
X154229312Y-79770000D02*
X154719312Y-79770000D01*
X154719312Y-82570000D02*
X154229312Y-82570000D01*
X161999312Y-79350000D02*
G75*
G02*
X161923606Y-79438118I-89136J0D01*
G01*
X155559312Y-85650000D02*
X155559312Y-82710000D01*
X158779312Y-85650000D02*
X155559312Y-85650000D01*
X161579312Y-79471740D02*
X160891291Y-79487503D01*
X161239685Y-78427968D02*
G75*
G02*
X161229312Y-78300000I784166J127968D01*
G01*
X155559311Y-79350001D02*
G75*
G02*
X155635017Y-79261883I89136J0D01*
G01*
X155559312Y-79770000D02*
X158779312Y-79770000D01*
X154229312Y-82570000D02*
X153739312Y-82570000D01*
X154719312Y-81170000D02*
X154719312Y-82570000D01*
X161923605Y-79261882D02*
G75*
G02*
X161999312Y-79350000I-13429J-88119D01*
G01*
X155979312Y-79228261D02*
X156667332Y-79212498D01*
X161999312Y-82710000D02*
X161999312Y-85650000D01*
X163329312Y-79770000D02*
X163819312Y-79770000D01*
X162839312Y-82570000D02*
X162839312Y-81170000D01*
X161999312Y-79770000D02*
X161999312Y-82710000D01*
X155258895Y-81607501D02*
G75*
G02*
X155216408Y-81695670I-172336J28723D01*
G01*
X155276188Y-81412716D02*
G75*
G02*
X155258895Y-81607500I-1277620J15269D01*
G01*
X155279312Y-80890000D02*
X155276188Y-81412716D01*
X158779312Y-79770000D02*
X161999312Y-79770000D01*
X163819312Y-79770000D02*
X163819312Y-81170000D01*
X163819312Y-81170000D02*
X163819312Y-82570000D01*
X163329312Y-82570000D02*
X162839312Y-82570000D01*
X162839312Y-79770000D02*
X163329312Y-79770000D01*
X162839312Y-81170000D02*
X162839312Y-79770000D01*
X163819312Y-82570000D02*
X163329312Y-82570000D01*
X155139312Y-81730001D02*
G75*
G02*
X155062215Y-81695670I0J103735D01*
G01*
X162559312Y-80890000D02*
X162556188Y-81412716D01*
X155139311Y-80050000D02*
G75*
G02*
X155216408Y-80084331I0J-103735D01*
G01*
X155019728Y-80172500D02*
G75*
G02*
X155062215Y-80084331I172336J-28723D01*
G01*
X155276188Y-80367285D02*
X155279312Y-80890000D01*
X155258895Y-80172501D02*
G75*
G02*
X155276188Y-80367285I-1260327J-210053D01*
G01*
X155216408Y-80084331D02*
G75*
G02*
X155258895Y-80172500I-129849J-116892D01*
G01*
X155062215Y-80084331D02*
G75*
G02*
X155139312Y-80050000I77097J-69404D01*
G01*
X155062214Y-81695670D02*
G75*
G02*
X155019728Y-81607500I129850J116892D01*
G01*
X155002434Y-80367284D02*
G75*
G02*
X155019728Y-80172500I1277621J-15270D01*
G01*
X155019728Y-81607500D02*
G75*
G02*
X155002435Y-81412716I1260327J210053D01*
G01*
X155216408Y-81695669D02*
G75*
G02*
X155139312Y-81730000I-77097J69403D01*
G01*
X155002435Y-81412716D02*
X154999312Y-80890000D01*
X154999312Y-80890000D02*
X155002435Y-80367285D01*
X161897724Y-86375224D02*
G75*
G02*
X161998547Y-86287905I658683J-658683D01*
G01*
X163556782Y-87427090D02*
G75*
G02*
X163539312Y-87400000I12269J27090D01*
G01*
X164093383Y-87470000D02*
X163816347Y-87470000D01*
X161718120Y-86554829D02*
X161724676Y-87782415D01*
X164369620Y-88575846D02*
X164337316Y-88374254D01*
X163749312Y-87215528D02*
G75*
G02*
X163761172Y-87160452I133808J0D01*
G01*
X163817427Y-86208116D02*
X163958369Y-85931847D01*
X163958369Y-86349058D02*
X163817427Y-86208116D01*
X163055272Y-89010000D02*
X164379312Y-89010000D01*
X164061636Y-86493214D02*
G75*
G02*
X164091694Y-86641429I-266077J-131115D01*
G01*
X163800718Y-87087040D02*
G75*
G02*
X163857341Y-87009378I615998J-389650D01*
G01*
X163761172Y-87160451D02*
G75*
G02*
X163800718Y-87087039I544047J-245711D01*
G01*
X161897724Y-86375224D02*
X161718120Y-86554829D01*
X164091695Y-86641429D02*
G75*
G02*
X164045111Y-86790962I-323202J18663D01*
G01*
X163539311Y-87400001D02*
G75*
G02*
X163547401Y-87373306I48090J0D01*
G01*
X164045111Y-86790962D02*
G75*
G02*
X163924312Y-86938870I-590806J359238D01*
G01*
X163604170Y-87335228D02*
G75*
G02*
X163644312Y-87330000I40141J-151478D01*
G01*
X163857341Y-87009378D02*
G75*
G02*
X163924312Y-86938870I586081J-489622D01*
G01*
X164337316Y-88374254D02*
X164291082Y-88155098D01*
X163547401Y-87373306D02*
G75*
G02*
X163570155Y-87350563I68308J-45587D01*
G01*
X163620691Y-87449438D02*
G75*
G02*
X163556782Y-87427091I93424J369737D01*
G01*
X163816347Y-87470001D02*
G75*
G02*
X163710178Y-87464933I0J1114597D01*
G01*
X164369621Y-88575845D02*
G75*
G02*
X164379312Y-88720047I-1067962J-144202D01*
G01*
X164379312Y-89010000D02*
X164379312Y-88720047D01*
X161998547Y-86287905D02*
G75*
G02*
X162090043Y-86238645I210714J-281780D01*
G01*
X163749312Y-87215527D02*
G75*
G02*
X163741331Y-87259230I-123649J0D01*
G01*
X163741331Y-87259230D02*
G75*
G02*
X163718468Y-87296374I-107737J40706D01*
G01*
X163570156Y-87350563D02*
G75*
G02*
X163604170Y-87335229I63199J-94799D01*
G01*
X164236347Y-87950047D02*
X164093383Y-87470000D01*
X163710179Y-87464932D02*
G75*
G02*
X163620691Y-87449438I56933J594980D01*
G01*
X163718468Y-87296374D02*
G75*
G02*
X163684371Y-87321227I-78773J72254D01*
G01*
X163958370Y-86349058D02*
G75*
G02*
X164061637Y-86493214I-384522J-384522D01*
G01*
X163684371Y-87321227D02*
G75*
G02*
X163644312Y-87330000I-40059J87073D01*
G01*
X164291082Y-88155098D02*
X164236347Y-87950047D01*
X161724676Y-87782415D02*
X161731233Y-89010000D01*
X161731233Y-89010000D02*
X163055272Y-89010000D01*
X163822306Y-83213874D02*
G75*
G02*
X163839311Y-82990000I1699844J-16530D01*
G01*
X162673062Y-79510682D02*
G75*
G02*
X162853285Y-79493207I194902J-1071966D01*
G01*
X163329312Y-79490000D02*
X162853285Y-79493207D01*
X163839311Y-82990000D02*
G75*
G02*
X163881458Y-82888756I217226J-31033D01*
G01*
X163819312Y-83830000D02*
X163822307Y-83213874D01*
X164099312Y-79490000D02*
X163329312Y-79490000D01*
X164080353Y-82622500D02*
X164096621Y-82253457D01*
X164099312Y-81170000D02*
X164099312Y-79490000D01*
X164096621Y-82253457D02*
X164099312Y-81170000D01*
X164080353Y-82622501D02*
G75*
G02*
X164040941Y-82794022I-616533J51379D01*
G01*
X163959311Y-84810000D02*
G75*
G02*
X163881458Y-84771245I0J97575D01*
G01*
X164040941Y-82794021D02*
G75*
G02*
X163959312Y-82850000I-81630J31527D01*
G01*
X163839312Y-84670001D02*
G75*
G02*
X163822307Y-84446127I1682838J240404D01*
G01*
X164099312Y-85232789D02*
X164095216Y-84987926D01*
X163881458Y-82888755D02*
G75*
G02*
X163959312Y-82850000I77853J-58821D01*
G01*
X163822307Y-84446127D02*
X163819312Y-83830000D01*
X163881457Y-84771244D02*
G75*
G02*
X163839311Y-84670000I175080J132276D01*
G01*
X163959312Y-84810000D02*
G75*
G02*
X164033591Y-84829195I-1J-153319D01*
G01*
X164090661Y-85436597D02*
X164099312Y-85232789D01*
X164090661Y-85436597D02*
G75*
G02*
X164064542Y-85619433I-1613559J137219D01*
G01*
X164033591Y-84829195D02*
G75*
G02*
X164076017Y-84880349I-44219J-79845D01*
G01*
X164076017Y-84880349D02*
G75*
G02*
X164095216Y-84987926I-363551J-120384D01*
G01*
X164064543Y-85619433D02*
G75*
G02*
X164020594Y-85783744I-1336823J269528D01*
G01*
X164020594Y-85783744D02*
G75*
G02*
X163958369Y-85931847I-1030061J345650D01*
G01*
X157697264Y-87473407D02*
G75*
G02*
X157659312Y-87330000I251958J143406D01*
G01*
X157416792Y-88892845D02*
X157395412Y-89062500D01*
X157669246Y-87890000D02*
X157549047Y-88292500D01*
X155944312Y-86560000D02*
X156208497Y-87190000D01*
X158114311Y-87750001D02*
G75*
G02*
X158181326Y-87755119I1J-441293D01*
G01*
X157628867Y-87253528D02*
G75*
G02*
X157659312Y-87330000I-80820J-76473D01*
G01*
X157551135Y-87210878D02*
G75*
G02*
X157628867Y-87253529I-27436J-142161D01*
G01*
X157454335Y-88684719D02*
X157416792Y-88892845D01*
X158289311Y-87820000D02*
G75*
G02*
X158270767Y-87847183I-29194J-1D01*
G01*
X158237905Y-87770563D02*
G75*
G02*
X158276513Y-87793195I-55719J-139299D01*
G01*
X158114312Y-87750001D02*
G75*
G02*
X157958958Y-87714910I-1J361435D01*
G01*
X157500562Y-88473349D02*
X157454335Y-88684719D01*
X157549047Y-88292500D02*
X157500562Y-88473349D01*
X155601155Y-85955117D02*
G75*
G02*
X155689802Y-86025583I-86154J-199373D01*
G01*
X158181326Y-87755119D02*
G75*
G02*
X158237905Y-87770563I-39138J-254737D01*
G01*
X155779658Y-86179722D02*
X155944312Y-86560000D01*
X157979279Y-87890000D02*
X157669246Y-87890000D01*
X158276513Y-87793195D02*
G75*
G02*
X158289312Y-87820000I-21672J-26806D01*
G01*
X158098106Y-87884940D02*
X157979279Y-87890000D01*
X157380196Y-87193269D02*
G75*
G02*
X157551136Y-87210878I-14320J-977531D01*
G01*
X158270767Y-87847183D02*
G75*
G02*
X158198239Y-87869438I-183037J467195D01*
G01*
X157807987Y-87612761D02*
G75*
G02*
X157697264Y-87473407I393601J426399D01*
G01*
X157958958Y-87714910D02*
G75*
G02*
X157807988Y-87612761I261175J548639D01*
G01*
X156208497Y-87190000D02*
X156933904Y-87190000D01*
X156933904Y-87190000D02*
X157380196Y-87193269D01*
X155689802Y-86025582D02*
G75*
G02*
X155779658Y-86179722I-668355J-492878D01*
G01*
X155479719Y-85930000D02*
G75*
G02*
X155601156Y-85955116I0J-306140D01*
G01*
X158198239Y-87869438D02*
G75*
G02*
X158098106Y-87884940I-163095J722355D01*
G01*
X162078904Y-85930000D02*
X162279312Y-85930000D01*
X161868820Y-86025583D02*
G75*
G02*
X161957467Y-85955116I174802J-128907D01*
G01*
X160178427Y-87193269D02*
X160624719Y-87190000D01*
X160624719Y-87190000D02*
X161350126Y-87190000D01*
X159929756Y-87253530D02*
G75*
G02*
X160007487Y-87210878I105168J-99509D01*
G01*
X159269311Y-87820000D02*
G75*
G02*
X159282110Y-87793195I34471J-1D01*
G01*
X160169620Y-88995846D02*
X160137316Y-88794254D01*
X159861359Y-87473408D02*
G75*
G02*
X159750635Y-87612761I-504324J287046D01*
G01*
X159750635Y-87612761D02*
G75*
G02*
X159599665Y-87714910I-412145J446490D01*
G01*
X160169621Y-88995845D02*
G75*
G02*
X160179312Y-89140047I-1067962J-144202D01*
G01*
X161614312Y-86560000D02*
X161778965Y-86179722D01*
X159899311Y-87330001D02*
G75*
G02*
X159929756Y-87253529I111265J0D01*
G01*
X159899312Y-87330000D02*
G75*
G02*
X159861359Y-87473407I-289911J-1D01*
G01*
X160036347Y-88370047D02*
X159893383Y-87890000D01*
X159461751Y-87884940D02*
G75*
G02*
X159360972Y-87869438I63332J747048D01*
G01*
X160091082Y-88575098D02*
X160036347Y-88370047D01*
X162556706Y-82753018D02*
X162559312Y-84130944D01*
X162281943Y-82699559D02*
X162298061Y-82272500D01*
X162279312Y-85930000D02*
X162279312Y-83970000D01*
X161778966Y-86179723D02*
G75*
G02*
X161868821Y-86025583I758210J-338737D01*
G01*
X159377297Y-87755118D02*
G75*
G02*
X159444312Y-87750000I67014J-436176D01*
G01*
X160007487Y-87210878D02*
G75*
G02*
X160178427Y-87193269I185260J-959922D01*
G01*
X159282110Y-87793195D02*
G75*
G02*
X159320718Y-87770563I94327J-116667D01*
G01*
X160137316Y-88794254D02*
X160091082Y-88575098D01*
X157395412Y-89062500D02*
X157361975Y-89430000D01*
X159360972Y-87869438D02*
G75*
G02*
X159287916Y-87847188I111619J497559D01*
G01*
X159893383Y-87890000D02*
X159581347Y-87890000D01*
X159599666Y-87714909D02*
G75*
G02*
X159444312Y-87750000I-155354J326343D01*
G01*
X162090043Y-86238646D02*
G75*
G02*
X162190372Y-86218975I114345J-317507D01*
G01*
X162503111Y-82073526D02*
G75*
G02*
X162540656Y-82292618I-1032783J-289744D01*
G01*
X161350126Y-87190000D02*
X161614312Y-86560000D01*
X162190372Y-86218975D02*
G75*
G02*
X162318320Y-86223754I33742J-811726D01*
G01*
X157361975Y-89430000D02*
X158770643Y-89430000D01*
X159320718Y-87770563D02*
G75*
G02*
X159377297Y-87755119I95717J-239293D01*
G01*
X162419311Y-82010001D02*
G75*
G02*
X162503112Y-82073527I0J-87036D01*
G01*
X162540656Y-82292618D02*
X162556706Y-82753018D01*
X162559312Y-86251888D02*
X162318320Y-86223754D01*
X162336274Y-82071005D02*
G75*
G02*
X162419312Y-82010000I83037J-26010D01*
G01*
X162559312Y-84130944D02*
X162559312Y-86251888D01*
X160179312Y-89430000D02*
X160179312Y-89140047D01*
X159581347Y-87890000D02*
X159461751Y-87884940D01*
X162279312Y-83970000D02*
X162281943Y-82699559D01*
X161957467Y-85955116D02*
G75*
G02*
X162078904Y-85930000I121437J-281024D01*
G01*
X162298061Y-82272500D02*
G75*
G02*
X162336275Y-82071006I882837J-63061D01*
G01*
X159287915Y-87847188D02*
G75*
G02*
X159269312Y-87820000I10564J27187D01*
G01*
X158770643Y-89430000D02*
X160179312Y-89430000D01*
X157377861Y-78925877D02*
X156381812Y-78912120D01*
X160514707Y-76246818D02*
X160333968Y-76258582D01*
X158705065Y-75729087D02*
G75*
G02*
X158779312Y-75710000I74247J-134865D01*
G01*
X161944243Y-78300000D02*
X161975064Y-78510000D01*
X155645201Y-78090000D02*
X156477256Y-78090000D01*
X155614380Y-78300000D02*
X155645201Y-78090000D01*
X156446435Y-78510000D02*
X155583559Y-78510000D01*
X157309312Y-78510000D02*
X156446435Y-78510000D01*
X159496812Y-75791073D02*
X159636863Y-75828244D01*
X158915202Y-75886988D02*
X158919312Y-76130000D01*
X156679312Y-77810000D02*
X156330427Y-77806227D01*
X155769969Y-77757501D02*
G75*
G02*
X155803629Y-77637184I242716J-3036D01*
G01*
X159199312Y-75997441D02*
X159199312Y-75724882D01*
X158662644Y-75780000D02*
G75*
G02*
X158705065Y-75729087I86283J-28761D01*
G01*
X159199312Y-76270000D02*
X159199312Y-75997441D01*
X158643422Y-75886987D02*
G75*
G02*
X158662645Y-75780000I378614J-12810D01*
G01*
X157589312Y-77810000D02*
X156679312Y-77810000D01*
X160333968Y-76258582D02*
X160119298Y-76267206D01*
X160517443Y-76210191D02*
G75*
G02*
X160529312Y-76231128I-12532J-20937D01*
G01*
X156330427Y-77806227D02*
X156036817Y-77794579D01*
X160302670Y-76091768D02*
X160421358Y-76154472D01*
X155803629Y-77637184D02*
X156003293Y-77310398D01*
X158895979Y-75780001D02*
G75*
G02*
X158915202Y-75886988I-359392J-119796D01*
G01*
X159199312Y-75724882D02*
X159496812Y-75791073D01*
X161360694Y-78505877D02*
G75*
G02*
X161277885Y-78482645I6191J181261D01*
G01*
X156149296Y-78794414D02*
X156574312Y-78790000D01*
X156389659Y-76777500D02*
X156601420Y-76550000D01*
X161975064Y-78510000D02*
X161602188Y-78510000D01*
X156477256Y-78090000D02*
X157309312Y-78090000D01*
X157589312Y-78790000D02*
X157589312Y-78300000D01*
X155592063Y-78893588D02*
G75*
G02*
X155559312Y-78860000I847J33587D01*
G01*
X160161812Y-76024760D02*
X160302670Y-76091768D01*
X159636863Y-75828244D02*
X159814874Y-75887022D01*
X155583559Y-78510000D02*
X155614380Y-78300000D01*
X159864312Y-76270000D02*
X159199312Y-76270000D01*
X160421358Y-76154472D02*
X160517442Y-76210191D01*
X156601420Y-76550000D02*
X157620366Y-76550000D01*
X156574312Y-78790000D02*
X157589312Y-78790000D01*
X161602188Y-78510000D02*
X161360694Y-78505878D01*
X157309312Y-78090000D02*
X157309312Y-78300000D01*
X158639312Y-76130000D02*
X158643421Y-75886988D01*
X156381812Y-78912120D02*
X155592064Y-78893588D01*
X159814874Y-75887022D02*
X159999372Y-75955779D01*
X158779311Y-75710000D02*
G75*
G02*
X158853558Y-75729087I0J-153952D01*
G01*
X157589312Y-78300000D02*
X157589312Y-77810000D01*
X156003293Y-77310398D02*
X156217551Y-76989592D01*
X160529311Y-76231127D02*
G75*
G02*
X160514707Y-76246818I-15730J-1D01*
G01*
X157309312Y-78300000D02*
X157309312Y-78510000D01*
X158853558Y-75729088D02*
G75*
G02*
X158895978Y-75780000I-43862J-79673D01*
G01*
X158639312Y-76550000D02*
X158639312Y-76130000D01*
X155830562Y-78808707D02*
X156149296Y-78794414D01*
X157620366Y-76550000D02*
X158639312Y-76550000D01*
X156217551Y-76989592D02*
G75*
G02*
X156389659Y-76777500I1645865J-1159707D01*
G01*
X155789472Y-77778697D02*
G75*
G02*
X155769968Y-77757500I1480J20934D01*
G01*
X156036817Y-77794579D02*
X155789472Y-77778696D01*
X155559312Y-78860000D02*
G75*
G02*
X155587578Y-78828861I31285J0D01*
G01*
X159999372Y-75955779D02*
X160161812Y-76024760D01*
X155587578Y-78828861D02*
X155830562Y-78808707D01*
X160119298Y-76267206D02*
X159864312Y-76270000D01*
X154369312Y-82850000D02*
X154719312Y-82850000D01*
X154019312Y-82850000D02*
X154369312Y-82850000D01*
X154019312Y-84810000D02*
X154019312Y-83830000D01*
X154019312Y-83830000D02*
X154019312Y-82850000D01*
X154369312Y-84810000D02*
X154019312Y-84810000D01*
X162299728Y-81607500D02*
G75*
G02*
X162282435Y-81412716I1260327J210053D01*
G01*
X162496408Y-81695669D02*
G75*
G02*
X162419312Y-81730000I-77097J69403D01*
G01*
X162342214Y-81695670D02*
G75*
G02*
X162299728Y-81607500I129850J116892D01*
G01*
X154719312Y-84810000D02*
X154369312Y-84810000D01*
X154719312Y-83830000D02*
X154719312Y-84810000D01*
X162556188Y-80367285D02*
X162559312Y-80890000D01*
X162496408Y-80084331D02*
G75*
G02*
X162538895Y-80172500I-129849J-116892D01*
G01*
X162342215Y-80084331D02*
G75*
G02*
X162419312Y-80050000I77097J-69404D01*
G01*
X162419312Y-81730001D02*
G75*
G02*
X162342215Y-81695670I0J103735D01*
G01*
X162282434Y-80367284D02*
G75*
G02*
X162299728Y-80172500I1277621J-15270D01*
G01*
X162538895Y-80172501D02*
G75*
G02*
X162556188Y-80367285I-1260327J-210053D01*
G01*
X162419311Y-80050000D02*
G75*
G02*
X162496408Y-80084331I0J-103735D01*
G01*
X162299728Y-80172500D02*
G75*
G02*
X162342215Y-80084331I172336J-28723D01*
G01*
X162282435Y-81412716D02*
X162279312Y-80890000D01*
X162556188Y-81412716D02*
G75*
G02*
X162538895Y-81607500I-1277620J15269D01*
G01*
X162538895Y-81607501D02*
G75*
G02*
X162496408Y-81695670I-172336J28723D01*
G01*
X162279312Y-80890000D02*
X162282435Y-80367285D01*
X162343628Y-79744381D02*
G75*
G02*
X162300953Y-79678556I70882J92700D01*
G01*
X162591296Y-79553283D02*
G75*
G02*
X162673062Y-79510682I109628J-110645D01*
G01*
X157609941Y-75936032D02*
X157794505Y-75870309D01*
X157432205Y-76008332D02*
X157609941Y-75936032D01*
X156994312Y-76235000D02*
X157291859Y-76076054D01*
X157963664Y-75529388D02*
G75*
G02*
X158842198Y-75433038I811416J-3345165D01*
G01*
X162559312Y-79630001D02*
G75*
G02*
X162591296Y-79553284I107997J1D01*
G01*
X158842198Y-75433037D02*
G75*
G02*
X159711441Y-75564636I-65740J-3370815D01*
G01*
X162480433Y-79761121D02*
G75*
G02*
X162419312Y-79770000I-61122J205936D01*
G01*
X162550433Y-79691121D02*
G75*
G02*
X162524312Y-79735000I-99545J29544D01*
G01*
X158123356Y-76260519D02*
X157904552Y-76260785D01*
X157904552Y-76260785D02*
X157650733Y-76255245D01*
X162524312Y-79735000D02*
G75*
G02*
X162480433Y-79761122I-73424J73423D01*
G01*
X158310147Y-76256677D02*
X158123356Y-76260519D01*
X159711441Y-75564637D02*
G75*
G02*
X160523869Y-75918305I-950871J-3294256D01*
G01*
X160523869Y-75918305D02*
G75*
G02*
X161235519Y-76473793I-1897853J-3164986D01*
G01*
X162218322Y-78358588D02*
G75*
G02*
X162279312Y-79178446I-5479995J-819859D01*
G01*
X162300953Y-79678556D02*
G75*
G02*
X162282830Y-79535538I660848J156399D01*
G01*
X161235519Y-76473793D02*
G75*
G02*
X161711561Y-77047992I-2833900J-2833894D01*
G01*
X162559312Y-79630001D02*
G75*
G02*
X162550433Y-79691122I-214816J1D01*
G01*
X161711561Y-77047992D02*
G75*
G02*
X162034311Y-77662425I-2490100J-1699984D01*
G01*
X158337878Y-76244767D02*
G75*
G02*
X158310147Y-76256677I-28785J28784D01*
G01*
X157291859Y-76076054D02*
X157432205Y-76008332D01*
X157650733Y-76255245D02*
X156994312Y-76235000D01*
X162282830Y-79535538D02*
X162279312Y-79178446D01*
X162419311Y-79770000D02*
G75*
G02*
X162343628Y-79744381I0J124598D01*
G01*
X162034311Y-77662425D02*
G75*
G02*
X162218322Y-78358588I-3062398J-1181857D01*
G01*
X160949312Y-78790000D02*
X161474312Y-78790000D01*
X158919312Y-76130000D02*
X158919312Y-76550000D01*
X160949312Y-77810000D02*
X160949312Y-78300000D01*
X161175114Y-76798995D02*
G75*
G02*
X161354877Y-77019534I-1741518J-1603057D01*
G01*
X161771610Y-77778280D02*
X161665769Y-77794579D01*
X158346456Y-75971054D02*
X158352701Y-76066372D01*
X157794505Y-75870309D02*
X157956859Y-75822584D01*
X160949312Y-78300000D02*
X160949312Y-78790000D01*
X161788740Y-77757501D02*
G75*
G02*
X161771610Y-77778280I-20892J-227D01*
G01*
X161354877Y-77019534D02*
X161564585Y-77328312D01*
X158779312Y-78930000D02*
X157377861Y-78925877D01*
X158352701Y-76066372D02*
X158353070Y-76151691D01*
X161966559Y-78893588D02*
X161176812Y-78912120D01*
X161474312Y-78790000D02*
X161682738Y-78794804D01*
X161564585Y-77328312D02*
X161755196Y-77637665D01*
X160945916Y-76550000D02*
X161175114Y-76798995D01*
X158919312Y-76550000D02*
X159932614Y-76550000D01*
X157956859Y-75822584D02*
X158324312Y-75728062D01*
X160180762Y-78925877D02*
X158779312Y-78930000D01*
X158324312Y-75728062D02*
X158346456Y-75971054D01*
X161176812Y-78912120D02*
X160180762Y-78925877D01*
X161850562Y-78809834D02*
X161976012Y-78831312D01*
X161369312Y-77810000D02*
X160949312Y-77810000D01*
X158348909Y-76221145D02*
G75*
G02*
X158337878Y-76244768I-38023J3369D01*
G01*
X161755196Y-77637664D02*
G75*
G02*
X161788740Y-77757500I-206617J-122449D01*
G01*
X159932614Y-76550000D02*
X160945916Y-76550000D01*
X161999311Y-78860001D02*
G75*
G02*
X161966559Y-78893588I-33598J0D01*
G01*
X161682738Y-78794804D02*
X161850562Y-78809834D01*
X161530298Y-77806221D02*
X161369312Y-77810000D01*
X161665769Y-77794579D02*
X161530298Y-77806221D01*
X158353070Y-76151691D02*
X158348909Y-76221144D01*
X161976012Y-78831311D02*
G75*
G02*
X161999312Y-78860000I-6012J-28689D01*
G01*
D15*
%TO.C,U2*%
X154340000Y-113300000D02*
X156140000Y-113300000D01*
X156140000Y-110080000D02*
X153690000Y-110080000D01*
%TO.C,C14*%
X155602164Y-109660000D02*
X155817836Y-109660000D01*
X155602164Y-108940000D02*
X155817836Y-108940000D01*
%TO.C,J2*%
X171487500Y-96400000D02*
X171487500Y-95950000D01*
X173337500Y-96400000D02*
X171487500Y-96400000D01*
X175887500Y-88600000D02*
X175637500Y-88600000D01*
X175887500Y-96400000D02*
X175637500Y-96400000D01*
X173337500Y-88600000D02*
X171487500Y-88600000D01*
X171487500Y-88600000D02*
X171487500Y-89050000D01*
X170937500Y-94200000D02*
X170937500Y-93750000D01*
X170937500Y-94200000D02*
X171387500Y-94200000D01*
%TO.C,R1*%
X109286359Y-89120000D02*
X109593641Y-89120000D01*
X109286359Y-88360000D02*
X109593641Y-88360000D01*
%TO.C,D2*%
X161187500Y-72965000D02*
X158902500Y-72965000D01*
X158902500Y-72965000D02*
X158902500Y-74435000D01*
X158902500Y-74435000D02*
X161187500Y-74435000D01*
%TO.C,D3*%
X168150000Y-99750000D02*
X170150000Y-99750000D01*
X170150000Y-99750000D02*
X170150000Y-95850000D01*
X168150000Y-99750000D02*
X168150000Y-95850000D01*
%TO.C,J1*%
X175600000Y-112450000D02*
X175600000Y-112050000D01*
X174960000Y-112450000D02*
X175600000Y-112450000D01*
X171741000Y-108045000D02*
X171869000Y-108174000D01*
X169525000Y-105830000D02*
X169619000Y-105924000D01*
X171981000Y-107875000D02*
X172074000Y-107969000D01*
X169731000Y-105625000D02*
X169859000Y-105754000D01*
X167640000Y-105090000D02*
X175360000Y-105090000D01*
X167640000Y-112210000D02*
X175360000Y-112210000D01*
X175360000Y-112210000D02*
X175360000Y-105090000D01*
X167640000Y-112210000D02*
X167640000Y-105090000D01*
X173800000Y-112210000D02*
X173800000Y-105090000D01*
X174900000Y-112210000D02*
X174900000Y-105090000D01*
X172480000Y-106900000D02*
G75*
G03*
X172480000Y-106900000I-1680000J0D01*
G01*
X172480099Y-110371326D02*
G75*
G02*
X172240000Y-111266000I-1680099J-28674D01*
G01*
X171689894Y-111825358D02*
G75*
G02*
X169934000Y-111840000I-889894J1425358D01*
G01*
X169374642Y-111289894D02*
G75*
G02*
X169360000Y-109534000I1425358J889894D01*
G01*
X169909807Y-108974495D02*
G75*
G02*
X171691000Y-108975000I890193J-1425505D01*
G01*
X172224721Y-109509736D02*
G75*
G02*
X172480000Y-110400000I-1424721J-890264D01*
G01*
%TO.C,L2*%
X152460000Y-111520000D02*
X152460000Y-117120000D01*
X147060000Y-111520000D02*
X147060000Y-117120000D01*
X152460000Y-111520000D02*
X151310000Y-111520000D01*
X147060000Y-111520000D02*
X148210000Y-111520000D01*
X152460000Y-117120000D02*
X151310000Y-117120000D01*
X147060000Y-117120000D02*
X148210000Y-117120000D01*
%TO.C,Q1*%
X163650000Y-109950000D02*
X163650000Y-108490000D01*
X166810000Y-109950000D02*
X166810000Y-107790000D01*
X166810000Y-109950000D02*
X165880000Y-109950000D01*
X163650000Y-109950000D02*
X164580000Y-109950000D01*
%TO.C,F1*%
X162410000Y-106187936D02*
X162410000Y-107392064D01*
X160590000Y-106187936D02*
X160590000Y-107392064D01*
%TO.C,C1*%
X119640580Y-92685000D02*
X119359420Y-92685000D01*
X119640580Y-91665000D02*
X119359420Y-91665000D01*
%TO.C,C5*%
X132522164Y-94460000D02*
X132737836Y-94460000D01*
X132522164Y-95180000D02*
X132737836Y-95180000D01*
%TO.C,C7*%
X116750000Y-101495836D02*
X116750000Y-101280164D01*
X117470000Y-101495836D02*
X117470000Y-101280164D01*
%TO.C,C2*%
X119447836Y-95150000D02*
X119232164Y-95150000D01*
X119447836Y-94430000D02*
X119232164Y-94430000D01*
%TO.C,C3*%
X123077836Y-106860000D02*
X122862164Y-106860000D01*
X123077836Y-107580000D02*
X122862164Y-107580000D01*
%TO.C,C6*%
X122342164Y-92480000D02*
X122557836Y-92480000D01*
X122342164Y-91760000D02*
X122557836Y-91760000D01*
%TO.C,C4*%
X131302164Y-106080000D02*
X131517836Y-106080000D01*
X131302164Y-105360000D02*
X131517836Y-105360000D01*
%TO.C,C8*%
X118760000Y-101495836D02*
X118760000Y-101280164D01*
X118040000Y-101495836D02*
X118040000Y-101280164D01*
%TO.C,R2*%
X157337258Y-74222500D02*
X156862742Y-74222500D01*
X157337258Y-73177500D02*
X156862742Y-73177500D01*
%TO.C,R11*%
X173202742Y-102252500D02*
X173677258Y-102252500D01*
X173202742Y-101207500D02*
X173677258Y-101207500D01*
%TO.C,Y1*%
X113075000Y-95875000D02*
X113075000Y-99875000D01*
X116375000Y-95875000D02*
X113075000Y-95875000D01*
%TO.C,R9*%
X160862500Y-113407742D02*
X160862500Y-113882258D01*
X159817500Y-113407742D02*
X159817500Y-113882258D01*
%TO.C,U1*%
X130110000Y-104748000D02*
X131060000Y-104748000D01*
X131060000Y-104748000D02*
X131060000Y-103798000D01*
X121790000Y-104748000D02*
X120840000Y-104748000D01*
X120840000Y-104748000D02*
X120840000Y-103798000D01*
X130110000Y-94528000D02*
X131060000Y-94528000D01*
X131060000Y-94528000D02*
X131060000Y-95478000D01*
X121790000Y-94528000D02*
X120840000Y-94528000D01*
X120840000Y-94528000D02*
X120840000Y-95478000D01*
X120840000Y-95478000D02*
X119500000Y-95478000D01*
%TO.C,R3*%
X117746359Y-98220000D02*
X118053641Y-98220000D01*
X117746359Y-98980000D02*
X118053641Y-98980000D01*
%TO.C,R5*%
X124353641Y-90080000D02*
X124046359Y-90080000D01*
X124353641Y-89320000D02*
X124046359Y-89320000D01*
%TO.C,R4*%
X126396359Y-90080000D02*
X126703641Y-90080000D01*
X126396359Y-89320000D02*
X126703641Y-89320000D01*
%TO.C,U3*%
X167930000Y-91280000D02*
X166130000Y-91280000D01*
X166130000Y-94500000D02*
X168580000Y-94500000D01*
%TO.C,R8*%
X159012500Y-113882258D02*
X159012500Y-113407742D01*
X157967500Y-113882258D02*
X157967500Y-113407742D01*
%TO.C,C13*%
X159328748Y-109885000D02*
X160751252Y-109885000D01*
X159328748Y-111705000D02*
X160751252Y-111705000D01*
%TO.C,D1*%
X171947500Y-100865000D02*
X174232500Y-100865000D01*
X171947500Y-99395000D02*
X171947500Y-100865000D01*
X174232500Y-99395000D02*
X171947500Y-99395000D01*
%TO.C,C9*%
X130284420Y-108235000D02*
X130565580Y-108235000D01*
X130284420Y-107215000D02*
X130565580Y-107215000D01*
%TO.C,C10*%
X134439420Y-96890000D02*
X134720580Y-96890000D01*
X134439420Y-95870000D02*
X134720580Y-95870000D01*
%TO.C,C11*%
X114772164Y-94378000D02*
X114987836Y-94378000D01*
X114772164Y-95098000D02*
X114987836Y-95098000D01*
%TO.C,C16*%
X153420000Y-121281252D02*
X153420000Y-119858748D01*
X151600000Y-121281252D02*
X151600000Y-119858748D01*
%TO.C,C12*%
X114987836Y-101348000D02*
X114772164Y-101348000D01*
X114987836Y-100628000D02*
X114772164Y-100628000D01*
%TO.C,C17*%
X142906000Y-95758836D02*
X142906000Y-95543164D01*
X143626000Y-95758836D02*
X143626000Y-95543164D01*
%TO.C,C18*%
X140658164Y-96541000D02*
X140873836Y-96541000D01*
X140658164Y-95821000D02*
X140873836Y-95821000D01*
%TO.C,R12*%
X139570000Y-106196359D02*
X139570000Y-106503641D01*
X140330000Y-106196359D02*
X140330000Y-106503641D01*
%TO.C,U4*%
X141726000Y-92571000D02*
X142376000Y-92571000D01*
X142376000Y-92571000D02*
X142376000Y-92721000D01*
X139806000Y-95291000D02*
X139156000Y-95291000D01*
X139156000Y-95291000D02*
X139156000Y-95141000D01*
X141726000Y-95291000D02*
X142376000Y-95291000D01*
X142376000Y-95291000D02*
X142376000Y-95141000D01*
X139806000Y-92571000D02*
X139156000Y-92571000D01*
%TO.C,U5*%
X139120000Y-106326000D02*
X139120000Y-104376000D01*
X139120000Y-106326000D02*
X139120000Y-108276000D01*
X134000000Y-106326000D02*
X134000000Y-104376000D01*
X134000000Y-106326000D02*
X134000000Y-109776000D01*
%TO.C,SW1*%
X104250000Y-89370000D02*
X104250000Y-89570000D01*
X100110000Y-86570000D02*
X99900000Y-86770000D01*
X100110000Y-87870000D02*
X99900000Y-87670000D01*
X101400000Y-86570000D02*
X100110000Y-86570000D01*
X99900000Y-86770000D02*
X99900000Y-87670000D01*
X100110000Y-87870000D02*
X101400000Y-87870000D01*
X101400000Y-85120000D02*
X101400000Y-90820000D01*
X104250000Y-86370000D02*
X104250000Y-88070000D01*
X103200000Y-84520000D02*
X102410000Y-84520000D01*
X102410000Y-91420000D02*
X103200000Y-91420000D01*
%TO.C,J4*%
X129500000Y-76100000D02*
G75*
G03*
X129500000Y-76100000I-1680000J0D01*
G01*
X124420000Y-76100000D02*
G75*
G03*
X124420000Y-76100000I-1680000J0D01*
G01*
X119340000Y-76100000D02*
G75*
G03*
X119340000Y-76100000I-1680000J0D01*
G01*
X135500000Y-72000000D02*
X115060000Y-72000000D01*
X135500000Y-73500000D02*
X115060000Y-73500000D01*
X135500000Y-78401000D02*
X115060000Y-78401000D01*
X135500000Y-81361000D02*
X115060000Y-81361000D01*
X135500000Y-71440000D02*
X115060000Y-71440000D01*
X135500000Y-81361000D02*
X135500000Y-71440000D01*
X115060000Y-81361000D02*
X115060000Y-71440000D01*
X126545000Y-77169000D02*
X126592000Y-77123000D01*
X128854000Y-74861000D02*
X128889000Y-74826000D01*
X126750000Y-77375000D02*
X126785000Y-77339000D01*
X129047000Y-75077000D02*
X129094000Y-75031000D01*
X121465000Y-77169000D02*
X121512000Y-77123000D01*
X123774000Y-74861000D02*
X123809000Y-74826000D01*
X121670000Y-77375000D02*
X121705000Y-77339000D01*
X123967000Y-75077000D02*
X124014000Y-75031000D01*
X116385000Y-77169000D02*
X116432000Y-77123000D01*
X118694000Y-74861000D02*
X118729000Y-74826000D01*
X116590000Y-77375000D02*
X116625000Y-77339000D01*
X118887000Y-75077000D02*
X118934000Y-75031000D01*
X135740000Y-71940000D02*
X135740000Y-71200000D01*
X135740000Y-71200000D02*
X135240000Y-71200000D01*
X132216682Y-74565244D02*
G75*
G02*
X132900000Y-74420000I683318J-1534756D01*
G01*
X131364574Y-76783042D02*
G75*
G02*
X131365000Y-75416000I1535426J683042D01*
G01*
X133583042Y-77635426D02*
G75*
G02*
X132216000Y-77635000I-683042J1535426D01*
G01*
X134435426Y-75416958D02*
G75*
G02*
X134435000Y-76784000I-1535426J-683042D01*
G01*
X132871195Y-74419747D02*
G75*
G02*
X133584000Y-74565000I28805J-1680253D01*
G01*
%TO.C,J5*%
X114760000Y-125700000D02*
X115260000Y-125700000D01*
X114760000Y-124960000D02*
X114760000Y-125700000D01*
X131613000Y-121823000D02*
X131566000Y-121869000D01*
X133910000Y-119525000D02*
X133875000Y-119561000D01*
X131806000Y-122039000D02*
X131771000Y-122074000D01*
X134115000Y-119731000D02*
X134068000Y-119777000D01*
X126533000Y-121823000D02*
X126486000Y-121869000D01*
X128830000Y-119525000D02*
X128795000Y-119561000D01*
X126726000Y-122039000D02*
X126691000Y-122074000D01*
X129035000Y-119731000D02*
X128988000Y-119777000D01*
X121453000Y-121823000D02*
X121406000Y-121869000D01*
X123750000Y-119525000D02*
X123715000Y-119561000D01*
X121646000Y-122039000D02*
X121611000Y-122074000D01*
X123955000Y-119731000D02*
X123908000Y-119777000D01*
X135440000Y-115539000D02*
X135440000Y-125460000D01*
X115000000Y-115539000D02*
X115000000Y-125460000D01*
X115000000Y-125460000D02*
X135440000Y-125460000D01*
X115000000Y-115539000D02*
X135440000Y-115539000D01*
X115000000Y-118499000D02*
X135440000Y-118499000D01*
X115000000Y-123400000D02*
X135440000Y-123400000D01*
X115000000Y-124900000D02*
X135440000Y-124900000D01*
X134520000Y-120800000D02*
G75*
G03*
X134520000Y-120800000I-1680000J0D01*
G01*
X129440000Y-120800000D02*
G75*
G03*
X129440000Y-120800000I-1680000J0D01*
G01*
X124360000Y-120800000D02*
G75*
G03*
X124360000Y-120800000I-1680000J0D01*
G01*
X117628805Y-122480253D02*
G75*
G02*
X116916000Y-122335000I-28805J1680253D01*
G01*
X116064574Y-121483042D02*
G75*
G02*
X116065000Y-120116000I1535426J683042D01*
G01*
X116916958Y-119264574D02*
G75*
G02*
X118284000Y-119265000I683042J-1535426D01*
G01*
X119135426Y-120116958D02*
G75*
G02*
X119135000Y-121484000I-1535426J-683042D01*
G01*
X118283318Y-122334756D02*
G75*
G02*
X117600000Y-122480000I-683318J1534756D01*
G01*
%TO.C,J3*%
X147035000Y-76895000D02*
X147035000Y-80425000D01*
X140565000Y-76895000D02*
X140565000Y-80425000D01*
X146970000Y-75570000D02*
X146970000Y-76895000D01*
X147035000Y-76895000D02*
X146970000Y-76895000D01*
X147035000Y-80425000D02*
X146970000Y-80425000D01*
X140630000Y-76895000D02*
X140565000Y-76895000D01*
X140630000Y-80425000D02*
X140565000Y-80425000D01*
%TO.C,FB1*%
X158040000Y-107249622D02*
X158040000Y-106450378D01*
X159160000Y-107249622D02*
X159160000Y-106450378D01*
%TO.C,C15*%
X149025000Y-120831252D02*
X149025000Y-120308748D01*
X150495000Y-120831252D02*
X150495000Y-120308748D01*
%TO.C,U2*%
D13*
X151958095Y-108672380D02*
X151958095Y-109481904D01*
X152005714Y-109577142D01*
X152053333Y-109624761D01*
X152148571Y-109672380D01*
X152339047Y-109672380D01*
X152434285Y-109624761D01*
X152481904Y-109577142D01*
X152529523Y-109481904D01*
X152529523Y-108672380D01*
X152958095Y-108767619D02*
X153005714Y-108720000D01*
X153100952Y-108672380D01*
X153339047Y-108672380D01*
X153434285Y-108720000D01*
X153481904Y-108767619D01*
X153529523Y-108862857D01*
X153529523Y-108958095D01*
X153481904Y-109100952D01*
X152910476Y-109672380D01*
X153529523Y-109672380D01*
%TO.C,C14*%
X155127142Y-108487142D02*
X155079523Y-108534761D01*
X154936666Y-108582380D01*
X154841428Y-108582380D01*
X154698571Y-108534761D01*
X154603333Y-108439523D01*
X154555714Y-108344285D01*
X154508095Y-108153809D01*
X154508095Y-108010952D01*
X154555714Y-107820476D01*
X154603333Y-107725238D01*
X154698571Y-107630000D01*
X154841428Y-107582380D01*
X154936666Y-107582380D01*
X155079523Y-107630000D01*
X155127142Y-107677619D01*
X156079523Y-108582380D02*
X155508095Y-108582380D01*
X155793809Y-108582380D02*
X155793809Y-107582380D01*
X155698571Y-107725238D01*
X155603333Y-107820476D01*
X155508095Y-107868095D01*
X156936666Y-107915714D02*
X156936666Y-108582380D01*
X156698571Y-107534761D02*
X156460476Y-108249047D01*
X157079523Y-108249047D01*
%TO.C,J2*%
X171336666Y-86762380D02*
X171336666Y-87476666D01*
X171289047Y-87619523D01*
X171193809Y-87714761D01*
X171050952Y-87762380D01*
X170955714Y-87762380D01*
X171765238Y-86857619D02*
X171812857Y-86810000D01*
X171908095Y-86762380D01*
X172146190Y-86762380D01*
X172241428Y-86810000D01*
X172289047Y-86857619D01*
X172336666Y-86952857D01*
X172336666Y-87048095D01*
X172289047Y-87190952D01*
X171717619Y-87762380D01*
X172336666Y-87762380D01*
%TO.C,R1*%
X109273333Y-88022380D02*
X108940000Y-87546190D01*
X108701904Y-88022380D02*
X108701904Y-87022380D01*
X109082857Y-87022380D01*
X109178095Y-87070000D01*
X109225714Y-87117619D01*
X109273333Y-87212857D01*
X109273333Y-87355714D01*
X109225714Y-87450952D01*
X109178095Y-87498571D01*
X109082857Y-87546190D01*
X108701904Y-87546190D01*
X110225714Y-88022380D02*
X109654285Y-88022380D01*
X109940000Y-88022380D02*
X109940000Y-87022380D01*
X109844761Y-87165238D01*
X109749523Y-87260476D01*
X109654285Y-87308095D01*
%TO.C,D2*%
X158899404Y-72652380D02*
X158899404Y-71652380D01*
X159137500Y-71652380D01*
X159280357Y-71700000D01*
X159375595Y-71795238D01*
X159423214Y-71890476D01*
X159470833Y-72080952D01*
X159470833Y-72223809D01*
X159423214Y-72414285D01*
X159375595Y-72509523D01*
X159280357Y-72604761D01*
X159137500Y-72652380D01*
X158899404Y-72652380D01*
X159851785Y-71747619D02*
X159899404Y-71700000D01*
X159994642Y-71652380D01*
X160232738Y-71652380D01*
X160327976Y-71700000D01*
X160375595Y-71747619D01*
X160423214Y-71842857D01*
X160423214Y-71938095D01*
X160375595Y-72080952D01*
X159804166Y-72652380D01*
X160423214Y-72652380D01*
%TO.C,L1*%
X116953333Y-105082380D02*
X116477142Y-105082380D01*
X116477142Y-104082380D01*
X117810476Y-105082380D02*
X117239047Y-105082380D01*
X117524761Y-105082380D02*
X117524761Y-104082380D01*
X117429523Y-104225238D01*
X117334285Y-104320476D01*
X117239047Y-104368095D01*
%TO.C,D3*%
X167832380Y-98378095D02*
X166832380Y-98378095D01*
X166832380Y-98140000D01*
X166880000Y-97997142D01*
X166975238Y-97901904D01*
X167070476Y-97854285D01*
X167260952Y-97806666D01*
X167403809Y-97806666D01*
X167594285Y-97854285D01*
X167689523Y-97901904D01*
X167784761Y-97997142D01*
X167832380Y-98140000D01*
X167832380Y-98378095D01*
X166832380Y-97473333D02*
X166832380Y-96854285D01*
X167213333Y-97187619D01*
X167213333Y-97044761D01*
X167260952Y-96949523D01*
X167308571Y-96901904D01*
X167403809Y-96854285D01*
X167641904Y-96854285D01*
X167737142Y-96901904D01*
X167784761Y-96949523D01*
X167832380Y-97044761D01*
X167832380Y-97330476D01*
X167784761Y-97425714D01*
X167737142Y-97473333D01*
%TO.C,J1*%
X167886666Y-103382380D02*
X167886666Y-104096666D01*
X167839047Y-104239523D01*
X167743809Y-104334761D01*
X167600952Y-104382380D01*
X167505714Y-104382380D01*
X168886666Y-104382380D02*
X168315238Y-104382380D01*
X168600952Y-104382380D02*
X168600952Y-103382380D01*
X168505714Y-103525238D01*
X168410476Y-103620476D01*
X168315238Y-103668095D01*
%TO.C,L2*%
X147733333Y-110752380D02*
X147257142Y-110752380D01*
X147257142Y-109752380D01*
X148019047Y-109847619D02*
X148066666Y-109800000D01*
X148161904Y-109752380D01*
X148400000Y-109752380D01*
X148495238Y-109800000D01*
X148542857Y-109847619D01*
X148590476Y-109942857D01*
X148590476Y-110038095D01*
X148542857Y-110180952D01*
X147971428Y-110752380D01*
X148590476Y-110752380D01*
%TO.C,Q1*%
X165134761Y-107237619D02*
X165039523Y-107190000D01*
X164944285Y-107094761D01*
X164801428Y-106951904D01*
X164706190Y-106904285D01*
X164610952Y-106904285D01*
X164658571Y-107142380D02*
X164563333Y-107094761D01*
X164468095Y-106999523D01*
X164420476Y-106809047D01*
X164420476Y-106475714D01*
X164468095Y-106285238D01*
X164563333Y-106190000D01*
X164658571Y-106142380D01*
X164849047Y-106142380D01*
X164944285Y-106190000D01*
X165039523Y-106285238D01*
X165087142Y-106475714D01*
X165087142Y-106809047D01*
X165039523Y-106999523D01*
X164944285Y-107094761D01*
X164849047Y-107142380D01*
X164658571Y-107142380D01*
X166039523Y-107142380D02*
X165468095Y-107142380D01*
X165753809Y-107142380D02*
X165753809Y-106142380D01*
X165658571Y-106285238D01*
X165563333Y-106380476D01*
X165468095Y-106428095D01*
%TO.C,F1*%
X161206666Y-103728571D02*
X160873333Y-103728571D01*
X160873333Y-104252380D02*
X160873333Y-103252380D01*
X161349523Y-103252380D01*
X162254285Y-104252380D02*
X161682857Y-104252380D01*
X161968571Y-104252380D02*
X161968571Y-103252380D01*
X161873333Y-103395238D01*
X161778095Y-103490476D01*
X161682857Y-103538095D01*
%TO.C,C1*%
X119243333Y-91102142D02*
X119195714Y-91149761D01*
X119052857Y-91197380D01*
X118957619Y-91197380D01*
X118814761Y-91149761D01*
X118719523Y-91054523D01*
X118671904Y-90959285D01*
X118624285Y-90768809D01*
X118624285Y-90625952D01*
X118671904Y-90435476D01*
X118719523Y-90340238D01*
X118814761Y-90245000D01*
X118957619Y-90197380D01*
X119052857Y-90197380D01*
X119195714Y-90245000D01*
X119243333Y-90292619D01*
X120195714Y-91197380D02*
X119624285Y-91197380D01*
X119910000Y-91197380D02*
X119910000Y-90197380D01*
X119814761Y-90340238D01*
X119719523Y-90435476D01*
X119624285Y-90483095D01*
%TO.C,C5*%
X133613333Y-94147142D02*
X133565714Y-94194761D01*
X133422857Y-94242380D01*
X133327619Y-94242380D01*
X133184761Y-94194761D01*
X133089523Y-94099523D01*
X133041904Y-94004285D01*
X132994285Y-93813809D01*
X132994285Y-93670952D01*
X133041904Y-93480476D01*
X133089523Y-93385238D01*
X133184761Y-93290000D01*
X133327619Y-93242380D01*
X133422857Y-93242380D01*
X133565714Y-93290000D01*
X133613333Y-93337619D01*
X134518095Y-93242380D02*
X134041904Y-93242380D01*
X133994285Y-93718571D01*
X134041904Y-93670952D01*
X134137142Y-93623333D01*
X134375238Y-93623333D01*
X134470476Y-93670952D01*
X134518095Y-93718571D01*
X134565714Y-93813809D01*
X134565714Y-94051904D01*
X134518095Y-94147142D01*
X134470476Y-94194761D01*
X134375238Y-94242380D01*
X134137142Y-94242380D01*
X134041904Y-94194761D01*
X133994285Y-94147142D01*
%TO.C,C7*%
X117143333Y-100177142D02*
X117095714Y-100224761D01*
X116952857Y-100272380D01*
X116857619Y-100272380D01*
X116714761Y-100224761D01*
X116619523Y-100129523D01*
X116571904Y-100034285D01*
X116524285Y-99843809D01*
X116524285Y-99700952D01*
X116571904Y-99510476D01*
X116619523Y-99415238D01*
X116714761Y-99320000D01*
X116857619Y-99272380D01*
X116952857Y-99272380D01*
X117095714Y-99320000D01*
X117143333Y-99367619D01*
X117476666Y-99272380D02*
X118143333Y-99272380D01*
X117714761Y-100272380D01*
%TO.C,C2*%
X117283333Y-95137142D02*
X117235714Y-95184761D01*
X117092857Y-95232380D01*
X116997619Y-95232380D01*
X116854761Y-95184761D01*
X116759523Y-95089523D01*
X116711904Y-94994285D01*
X116664285Y-94803809D01*
X116664285Y-94660952D01*
X116711904Y-94470476D01*
X116759523Y-94375238D01*
X116854761Y-94280000D01*
X116997619Y-94232380D01*
X117092857Y-94232380D01*
X117235714Y-94280000D01*
X117283333Y-94327619D01*
X117664285Y-94327619D02*
X117711904Y-94280000D01*
X117807142Y-94232380D01*
X118045238Y-94232380D01*
X118140476Y-94280000D01*
X118188095Y-94327619D01*
X118235714Y-94422857D01*
X118235714Y-94518095D01*
X118188095Y-94660952D01*
X117616666Y-95232380D01*
X118235714Y-95232380D01*
%TO.C,C3*%
X122803333Y-108737142D02*
X122755714Y-108784761D01*
X122612857Y-108832380D01*
X122517619Y-108832380D01*
X122374761Y-108784761D01*
X122279523Y-108689523D01*
X122231904Y-108594285D01*
X122184285Y-108403809D01*
X122184285Y-108260952D01*
X122231904Y-108070476D01*
X122279523Y-107975238D01*
X122374761Y-107880000D01*
X122517619Y-107832380D01*
X122612857Y-107832380D01*
X122755714Y-107880000D01*
X122803333Y-107927619D01*
X123136666Y-107832380D02*
X123755714Y-107832380D01*
X123422380Y-108213333D01*
X123565238Y-108213333D01*
X123660476Y-108260952D01*
X123708095Y-108308571D01*
X123755714Y-108403809D01*
X123755714Y-108641904D01*
X123708095Y-108737142D01*
X123660476Y-108784761D01*
X123565238Y-108832380D01*
X123279523Y-108832380D01*
X123184285Y-108784761D01*
X123136666Y-108737142D01*
%TO.C,C6*%
X122843333Y-91387142D02*
X122795714Y-91434761D01*
X122652857Y-91482380D01*
X122557619Y-91482380D01*
X122414761Y-91434761D01*
X122319523Y-91339523D01*
X122271904Y-91244285D01*
X122224285Y-91053809D01*
X122224285Y-90910952D01*
X122271904Y-90720476D01*
X122319523Y-90625238D01*
X122414761Y-90530000D01*
X122557619Y-90482380D01*
X122652857Y-90482380D01*
X122795714Y-90530000D01*
X122843333Y-90577619D01*
X123700476Y-90482380D02*
X123510000Y-90482380D01*
X123414761Y-90530000D01*
X123367142Y-90577619D01*
X123271904Y-90720476D01*
X123224285Y-90910952D01*
X123224285Y-91291904D01*
X123271904Y-91387142D01*
X123319523Y-91434761D01*
X123414761Y-91482380D01*
X123605238Y-91482380D01*
X123700476Y-91434761D01*
X123748095Y-91387142D01*
X123795714Y-91291904D01*
X123795714Y-91053809D01*
X123748095Y-90958571D01*
X123700476Y-90910952D01*
X123605238Y-90863333D01*
X123414761Y-90863333D01*
X123319523Y-90910952D01*
X123271904Y-90958571D01*
X123224285Y-91053809D01*
%TO.C,C4*%
X132008333Y-104957142D02*
X131960714Y-105004761D01*
X131817857Y-105052380D01*
X131722619Y-105052380D01*
X131579761Y-105004761D01*
X131484523Y-104909523D01*
X131436904Y-104814285D01*
X131389285Y-104623809D01*
X131389285Y-104480952D01*
X131436904Y-104290476D01*
X131484523Y-104195238D01*
X131579761Y-104100000D01*
X131722619Y-104052380D01*
X131817857Y-104052380D01*
X131960714Y-104100000D01*
X132008333Y-104147619D01*
X132865476Y-104385714D02*
X132865476Y-105052380D01*
X132627380Y-104004761D02*
X132389285Y-104719047D01*
X133008333Y-104719047D01*
%TO.C,C8*%
X118143333Y-103377142D02*
X118095714Y-103424761D01*
X117952857Y-103472380D01*
X117857619Y-103472380D01*
X117714761Y-103424761D01*
X117619523Y-103329523D01*
X117571904Y-103234285D01*
X117524285Y-103043809D01*
X117524285Y-102900952D01*
X117571904Y-102710476D01*
X117619523Y-102615238D01*
X117714761Y-102520000D01*
X117857619Y-102472380D01*
X117952857Y-102472380D01*
X118095714Y-102520000D01*
X118143333Y-102567619D01*
X118714761Y-102900952D02*
X118619523Y-102853333D01*
X118571904Y-102805714D01*
X118524285Y-102710476D01*
X118524285Y-102662857D01*
X118571904Y-102567619D01*
X118619523Y-102520000D01*
X118714761Y-102472380D01*
X118905238Y-102472380D01*
X119000476Y-102520000D01*
X119048095Y-102567619D01*
X119095714Y-102662857D01*
X119095714Y-102710476D01*
X119048095Y-102805714D01*
X119000476Y-102853333D01*
X118905238Y-102900952D01*
X118714761Y-102900952D01*
X118619523Y-102948571D01*
X118571904Y-102996190D01*
X118524285Y-103091428D01*
X118524285Y-103281904D01*
X118571904Y-103377142D01*
X118619523Y-103424761D01*
X118714761Y-103472380D01*
X118905238Y-103472380D01*
X119000476Y-103424761D01*
X119048095Y-103377142D01*
X119095714Y-103281904D01*
X119095714Y-103091428D01*
X119048095Y-102996190D01*
X119000476Y-102948571D01*
X118905238Y-102900952D01*
%TO.C,R2*%
X157433333Y-72652380D02*
X157100000Y-72176190D01*
X156861904Y-72652380D02*
X156861904Y-71652380D01*
X157242857Y-71652380D01*
X157338095Y-71700000D01*
X157385714Y-71747619D01*
X157433333Y-71842857D01*
X157433333Y-71985714D01*
X157385714Y-72080952D01*
X157338095Y-72128571D01*
X157242857Y-72176190D01*
X156861904Y-72176190D01*
X157814285Y-71747619D02*
X157861904Y-71700000D01*
X157957142Y-71652380D01*
X158195238Y-71652380D01*
X158290476Y-71700000D01*
X158338095Y-71747619D01*
X158385714Y-71842857D01*
X158385714Y-71938095D01*
X158338095Y-72080952D01*
X157766666Y-72652380D01*
X158385714Y-72652380D01*
%TO.C,R11*%
X172797142Y-103682380D02*
X172463809Y-103206190D01*
X172225714Y-103682380D02*
X172225714Y-102682380D01*
X172606666Y-102682380D01*
X172701904Y-102730000D01*
X172749523Y-102777619D01*
X172797142Y-102872857D01*
X172797142Y-103015714D01*
X172749523Y-103110952D01*
X172701904Y-103158571D01*
X172606666Y-103206190D01*
X172225714Y-103206190D01*
X173749523Y-103682380D02*
X173178095Y-103682380D01*
X173463809Y-103682380D02*
X173463809Y-102682380D01*
X173368571Y-102825238D01*
X173273333Y-102920476D01*
X173178095Y-102968095D01*
X174701904Y-103682380D02*
X174130476Y-103682380D01*
X174416190Y-103682380D02*
X174416190Y-102682380D01*
X174320952Y-102825238D01*
X174225714Y-102920476D01*
X174130476Y-102968095D01*
%TO.C,Y1*%
X112301190Y-98251190D02*
X112777380Y-98251190D01*
X111777380Y-98584523D02*
X112301190Y-98251190D01*
X111777380Y-97917857D01*
X112777380Y-97060714D02*
X112777380Y-97632142D01*
X112777380Y-97346428D02*
X111777380Y-97346428D01*
X111920238Y-97441666D01*
X112015476Y-97536904D01*
X112063095Y-97632142D01*
%TO.C,R9*%
X160195000Y-116089285D02*
X159945000Y-115732142D01*
X159766428Y-116089285D02*
X159766428Y-115339285D01*
X160052142Y-115339285D01*
X160123571Y-115375000D01*
X160159285Y-115410714D01*
X160195000Y-115482142D01*
X160195000Y-115589285D01*
X160159285Y-115660714D01*
X160123571Y-115696428D01*
X160052142Y-115732142D01*
X159766428Y-115732142D01*
X160552142Y-116089285D02*
X160695000Y-116089285D01*
X160766428Y-116053571D01*
X160802142Y-116017857D01*
X160873571Y-115910714D01*
X160909285Y-115767857D01*
X160909285Y-115482142D01*
X160873571Y-115410714D01*
X160837857Y-115375000D01*
X160766428Y-115339285D01*
X160623571Y-115339285D01*
X160552142Y-115375000D01*
X160516428Y-115410714D01*
X160480714Y-115482142D01*
X160480714Y-115660714D01*
X160516428Y-115732142D01*
X160552142Y-115767857D01*
X160623571Y-115803571D01*
X160766428Y-115803571D01*
X160837857Y-115767857D01*
X160873571Y-115732142D01*
X160909285Y-115660714D01*
%TO.C,U1*%
X130278095Y-93162380D02*
X130278095Y-93971904D01*
X130325714Y-94067142D01*
X130373333Y-94114761D01*
X130468571Y-94162380D01*
X130659047Y-94162380D01*
X130754285Y-94114761D01*
X130801904Y-94067142D01*
X130849523Y-93971904D01*
X130849523Y-93162380D01*
X131849523Y-94162380D02*
X131278095Y-94162380D01*
X131563809Y-94162380D02*
X131563809Y-93162380D01*
X131468571Y-93305238D01*
X131373333Y-93400476D01*
X131278095Y-93448095D01*
%TO.C,R3*%
X117733333Y-97882380D02*
X117400000Y-97406190D01*
X117161904Y-97882380D02*
X117161904Y-96882380D01*
X117542857Y-96882380D01*
X117638095Y-96930000D01*
X117685714Y-96977619D01*
X117733333Y-97072857D01*
X117733333Y-97215714D01*
X117685714Y-97310952D01*
X117638095Y-97358571D01*
X117542857Y-97406190D01*
X117161904Y-97406190D01*
X118066666Y-96882380D02*
X118685714Y-96882380D01*
X118352380Y-97263333D01*
X118495238Y-97263333D01*
X118590476Y-97310952D01*
X118638095Y-97358571D01*
X118685714Y-97453809D01*
X118685714Y-97691904D01*
X118638095Y-97787142D01*
X118590476Y-97834761D01*
X118495238Y-97882380D01*
X118209523Y-97882380D01*
X118114285Y-97834761D01*
X118066666Y-97787142D01*
%TO.C,R5*%
X124058333Y-89027380D02*
X123725000Y-88551190D01*
X123486904Y-89027380D02*
X123486904Y-88027380D01*
X123867857Y-88027380D01*
X123963095Y-88075000D01*
X124010714Y-88122619D01*
X124058333Y-88217857D01*
X124058333Y-88360714D01*
X124010714Y-88455952D01*
X123963095Y-88503571D01*
X123867857Y-88551190D01*
X123486904Y-88551190D01*
X124963095Y-88027380D02*
X124486904Y-88027380D01*
X124439285Y-88503571D01*
X124486904Y-88455952D01*
X124582142Y-88408333D01*
X124820238Y-88408333D01*
X124915476Y-88455952D01*
X124963095Y-88503571D01*
X125010714Y-88598809D01*
X125010714Y-88836904D01*
X124963095Y-88932142D01*
X124915476Y-88979761D01*
X124820238Y-89027380D01*
X124582142Y-89027380D01*
X124486904Y-88979761D01*
X124439285Y-88932142D01*
%TO.C,R4*%
X126408333Y-89002380D02*
X126075000Y-88526190D01*
X125836904Y-89002380D02*
X125836904Y-88002380D01*
X126217857Y-88002380D01*
X126313095Y-88050000D01*
X126360714Y-88097619D01*
X126408333Y-88192857D01*
X126408333Y-88335714D01*
X126360714Y-88430952D01*
X126313095Y-88478571D01*
X126217857Y-88526190D01*
X125836904Y-88526190D01*
X127265476Y-88335714D02*
X127265476Y-89002380D01*
X127027380Y-87954761D02*
X126789285Y-88669047D01*
X127408333Y-88669047D01*
%TO.C,U3*%
X164838095Y-89902380D02*
X164838095Y-90711904D01*
X164885714Y-90807142D01*
X164933333Y-90854761D01*
X165028571Y-90902380D01*
X165219047Y-90902380D01*
X165314285Y-90854761D01*
X165361904Y-90807142D01*
X165409523Y-90711904D01*
X165409523Y-89902380D01*
X165790476Y-89902380D02*
X166409523Y-89902380D01*
X166076190Y-90283333D01*
X166219047Y-90283333D01*
X166314285Y-90330952D01*
X166361904Y-90378571D01*
X166409523Y-90473809D01*
X166409523Y-90711904D01*
X166361904Y-90807142D01*
X166314285Y-90854761D01*
X166219047Y-90902380D01*
X165933333Y-90902380D01*
X165838095Y-90854761D01*
X165790476Y-90807142D01*
%TO.C,R8*%
X158585000Y-116079285D02*
X158335000Y-115722142D01*
X158156428Y-116079285D02*
X158156428Y-115329285D01*
X158442142Y-115329285D01*
X158513571Y-115365000D01*
X158549285Y-115400714D01*
X158585000Y-115472142D01*
X158585000Y-115579285D01*
X158549285Y-115650714D01*
X158513571Y-115686428D01*
X158442142Y-115722142D01*
X158156428Y-115722142D01*
X159013571Y-115650714D02*
X158942142Y-115615000D01*
X158906428Y-115579285D01*
X158870714Y-115507857D01*
X158870714Y-115472142D01*
X158906428Y-115400714D01*
X158942142Y-115365000D01*
X159013571Y-115329285D01*
X159156428Y-115329285D01*
X159227857Y-115365000D01*
X159263571Y-115400714D01*
X159299285Y-115472142D01*
X159299285Y-115507857D01*
X159263571Y-115579285D01*
X159227857Y-115615000D01*
X159156428Y-115650714D01*
X159013571Y-115650714D01*
X158942142Y-115686428D01*
X158906428Y-115722142D01*
X158870714Y-115793571D01*
X158870714Y-115936428D01*
X158906428Y-116007857D01*
X158942142Y-116043571D01*
X159013571Y-116079285D01*
X159156428Y-116079285D01*
X159227857Y-116043571D01*
X159263571Y-116007857D01*
X159299285Y-115936428D01*
X159299285Y-115793571D01*
X159263571Y-115722142D01*
X159227857Y-115686428D01*
X159156428Y-115650714D01*
%TO.C,C13*%
X163267142Y-111917142D02*
X163219523Y-111964761D01*
X163076666Y-112012380D01*
X162981428Y-112012380D01*
X162838571Y-111964761D01*
X162743333Y-111869523D01*
X162695714Y-111774285D01*
X162648095Y-111583809D01*
X162648095Y-111440952D01*
X162695714Y-111250476D01*
X162743333Y-111155238D01*
X162838571Y-111060000D01*
X162981428Y-111012380D01*
X163076666Y-111012380D01*
X163219523Y-111060000D01*
X163267142Y-111107619D01*
X164219523Y-112012380D02*
X163648095Y-112012380D01*
X163933809Y-112012380D02*
X163933809Y-111012380D01*
X163838571Y-111155238D01*
X163743333Y-111250476D01*
X163648095Y-111298095D01*
X164552857Y-111012380D02*
X165171904Y-111012380D01*
X164838571Y-111393333D01*
X164981428Y-111393333D01*
X165076666Y-111440952D01*
X165124285Y-111488571D01*
X165171904Y-111583809D01*
X165171904Y-111821904D01*
X165124285Y-111917142D01*
X165076666Y-111964761D01*
X164981428Y-112012380D01*
X164695714Y-112012380D01*
X164600476Y-111964761D01*
X164552857Y-111917142D01*
%TO.C,D1*%
X172694404Y-99152380D02*
X172694404Y-98152380D01*
X172932500Y-98152380D01*
X173075357Y-98200000D01*
X173170595Y-98295238D01*
X173218214Y-98390476D01*
X173265833Y-98580952D01*
X173265833Y-98723809D01*
X173218214Y-98914285D01*
X173170595Y-99009523D01*
X173075357Y-99104761D01*
X172932500Y-99152380D01*
X172694404Y-99152380D01*
X174218214Y-99152380D02*
X173646785Y-99152380D01*
X173932500Y-99152380D02*
X173932500Y-98152380D01*
X173837261Y-98295238D01*
X173742023Y-98390476D01*
X173646785Y-98438095D01*
%TO.C,C9*%
X130258333Y-109582142D02*
X130210714Y-109629761D01*
X130067857Y-109677380D01*
X129972619Y-109677380D01*
X129829761Y-109629761D01*
X129734523Y-109534523D01*
X129686904Y-109439285D01*
X129639285Y-109248809D01*
X129639285Y-109105952D01*
X129686904Y-108915476D01*
X129734523Y-108820238D01*
X129829761Y-108725000D01*
X129972619Y-108677380D01*
X130067857Y-108677380D01*
X130210714Y-108725000D01*
X130258333Y-108772619D01*
X130734523Y-109677380D02*
X130925000Y-109677380D01*
X131020238Y-109629761D01*
X131067857Y-109582142D01*
X131163095Y-109439285D01*
X131210714Y-109248809D01*
X131210714Y-108867857D01*
X131163095Y-108772619D01*
X131115476Y-108725000D01*
X131020238Y-108677380D01*
X130829761Y-108677380D01*
X130734523Y-108725000D01*
X130686904Y-108772619D01*
X130639285Y-108867857D01*
X130639285Y-109105952D01*
X130686904Y-109201190D01*
X130734523Y-109248809D01*
X130829761Y-109296428D01*
X131020238Y-109296428D01*
X131115476Y-109248809D01*
X131163095Y-109201190D01*
X131210714Y-109105952D01*
%TO.C,C10*%
X133957142Y-98277142D02*
X133909523Y-98324761D01*
X133766666Y-98372380D01*
X133671428Y-98372380D01*
X133528571Y-98324761D01*
X133433333Y-98229523D01*
X133385714Y-98134285D01*
X133338095Y-97943809D01*
X133338095Y-97800952D01*
X133385714Y-97610476D01*
X133433333Y-97515238D01*
X133528571Y-97420000D01*
X133671428Y-97372380D01*
X133766666Y-97372380D01*
X133909523Y-97420000D01*
X133957142Y-97467619D01*
X134909523Y-98372380D02*
X134338095Y-98372380D01*
X134623809Y-98372380D02*
X134623809Y-97372380D01*
X134528571Y-97515238D01*
X134433333Y-97610476D01*
X134338095Y-97658095D01*
X135528571Y-97372380D02*
X135623809Y-97372380D01*
X135719047Y-97420000D01*
X135766666Y-97467619D01*
X135814285Y-97562857D01*
X135861904Y-97753333D01*
X135861904Y-97991428D01*
X135814285Y-98181904D01*
X135766666Y-98277142D01*
X135719047Y-98324761D01*
X135623809Y-98372380D01*
X135528571Y-98372380D01*
X135433333Y-98324761D01*
X135385714Y-98277142D01*
X135338095Y-98181904D01*
X135290476Y-97991428D01*
X135290476Y-97753333D01*
X135338095Y-97562857D01*
X135385714Y-97467619D01*
X135433333Y-97420000D01*
X135528571Y-97372380D01*
%TO.C,C11*%
X113857142Y-94037142D02*
X113809523Y-94084761D01*
X113666666Y-94132380D01*
X113571428Y-94132380D01*
X113428571Y-94084761D01*
X113333333Y-93989523D01*
X113285714Y-93894285D01*
X113238095Y-93703809D01*
X113238095Y-93560952D01*
X113285714Y-93370476D01*
X113333333Y-93275238D01*
X113428571Y-93180000D01*
X113571428Y-93132380D01*
X113666666Y-93132380D01*
X113809523Y-93180000D01*
X113857142Y-93227619D01*
X114809523Y-94132380D02*
X114238095Y-94132380D01*
X114523809Y-94132380D02*
X114523809Y-93132380D01*
X114428571Y-93275238D01*
X114333333Y-93370476D01*
X114238095Y-93418095D01*
X115761904Y-94132380D02*
X115190476Y-94132380D01*
X115476190Y-94132380D02*
X115476190Y-93132380D01*
X115380952Y-93275238D01*
X115285714Y-93370476D01*
X115190476Y-93418095D01*
%TO.C,C16*%
X154867142Y-121212857D02*
X154914761Y-121260476D01*
X154962380Y-121403333D01*
X154962380Y-121498571D01*
X154914761Y-121641428D01*
X154819523Y-121736666D01*
X154724285Y-121784285D01*
X154533809Y-121831904D01*
X154390952Y-121831904D01*
X154200476Y-121784285D01*
X154105238Y-121736666D01*
X154010000Y-121641428D01*
X153962380Y-121498571D01*
X153962380Y-121403333D01*
X154010000Y-121260476D01*
X154057619Y-121212857D01*
X154962380Y-120260476D02*
X154962380Y-120831904D01*
X154962380Y-120546190D02*
X153962380Y-120546190D01*
X154105238Y-120641428D01*
X154200476Y-120736666D01*
X154248095Y-120831904D01*
X153962380Y-119403333D02*
X153962380Y-119593809D01*
X154010000Y-119689047D01*
X154057619Y-119736666D01*
X154200476Y-119831904D01*
X154390952Y-119879523D01*
X154771904Y-119879523D01*
X154867142Y-119831904D01*
X154914761Y-119784285D01*
X154962380Y-119689047D01*
X154962380Y-119498571D01*
X154914761Y-119403333D01*
X154867142Y-119355714D01*
X154771904Y-119308095D01*
X154533809Y-119308095D01*
X154438571Y-119355714D01*
X154390952Y-119403333D01*
X154343333Y-119498571D01*
X154343333Y-119689047D01*
X154390952Y-119784285D01*
X154438571Y-119831904D01*
X154533809Y-119879523D01*
%TO.C,C12*%
X114237142Y-102505142D02*
X114189523Y-102552761D01*
X114046666Y-102600380D01*
X113951428Y-102600380D01*
X113808571Y-102552761D01*
X113713333Y-102457523D01*
X113665714Y-102362285D01*
X113618095Y-102171809D01*
X113618095Y-102028952D01*
X113665714Y-101838476D01*
X113713333Y-101743238D01*
X113808571Y-101648000D01*
X113951428Y-101600380D01*
X114046666Y-101600380D01*
X114189523Y-101648000D01*
X114237142Y-101695619D01*
X115189523Y-102600380D02*
X114618095Y-102600380D01*
X114903809Y-102600380D02*
X114903809Y-101600380D01*
X114808571Y-101743238D01*
X114713333Y-101838476D01*
X114618095Y-101886095D01*
X115570476Y-101695619D02*
X115618095Y-101648000D01*
X115713333Y-101600380D01*
X115951428Y-101600380D01*
X116046666Y-101648000D01*
X116094285Y-101695619D01*
X116141904Y-101790857D01*
X116141904Y-101886095D01*
X116094285Y-102028952D01*
X115522857Y-102600380D01*
X116141904Y-102600380D01*
%TO.C,C17*%
X144477142Y-96997142D02*
X144429523Y-97044761D01*
X144286666Y-97092380D01*
X144191428Y-97092380D01*
X144048571Y-97044761D01*
X143953333Y-96949523D01*
X143905714Y-96854285D01*
X143858095Y-96663809D01*
X143858095Y-96520952D01*
X143905714Y-96330476D01*
X143953333Y-96235238D01*
X144048571Y-96140000D01*
X144191428Y-96092380D01*
X144286666Y-96092380D01*
X144429523Y-96140000D01*
X144477142Y-96187619D01*
X145429523Y-97092380D02*
X144858095Y-97092380D01*
X145143809Y-97092380D02*
X145143809Y-96092380D01*
X145048571Y-96235238D01*
X144953333Y-96330476D01*
X144858095Y-96378095D01*
X145762857Y-96092380D02*
X146429523Y-96092380D01*
X146000952Y-97092380D01*
%TO.C,C18*%
X140123142Y-97788142D02*
X140075523Y-97835761D01*
X139932666Y-97883380D01*
X139837428Y-97883380D01*
X139694571Y-97835761D01*
X139599333Y-97740523D01*
X139551714Y-97645285D01*
X139504095Y-97454809D01*
X139504095Y-97311952D01*
X139551714Y-97121476D01*
X139599333Y-97026238D01*
X139694571Y-96931000D01*
X139837428Y-96883380D01*
X139932666Y-96883380D01*
X140075523Y-96931000D01*
X140123142Y-96978619D01*
X141075523Y-97883380D02*
X140504095Y-97883380D01*
X140789809Y-97883380D02*
X140789809Y-96883380D01*
X140694571Y-97026238D01*
X140599333Y-97121476D01*
X140504095Y-97169095D01*
X141646952Y-97311952D02*
X141551714Y-97264333D01*
X141504095Y-97216714D01*
X141456476Y-97121476D01*
X141456476Y-97073857D01*
X141504095Y-96978619D01*
X141551714Y-96931000D01*
X141646952Y-96883380D01*
X141837428Y-96883380D01*
X141932666Y-96931000D01*
X141980285Y-96978619D01*
X142027904Y-97073857D01*
X142027904Y-97121476D01*
X141980285Y-97216714D01*
X141932666Y-97264333D01*
X141837428Y-97311952D01*
X141646952Y-97311952D01*
X141551714Y-97359571D01*
X141504095Y-97407190D01*
X141456476Y-97502428D01*
X141456476Y-97692904D01*
X141504095Y-97788142D01*
X141551714Y-97835761D01*
X141646952Y-97883380D01*
X141837428Y-97883380D01*
X141932666Y-97835761D01*
X141980285Y-97788142D01*
X142027904Y-97692904D01*
X142027904Y-97502428D01*
X141980285Y-97407190D01*
X141932666Y-97359571D01*
X141837428Y-97311952D01*
%TO.C,R12*%
X141137142Y-106272380D02*
X140803809Y-105796190D01*
X140565714Y-106272380D02*
X140565714Y-105272380D01*
X140946666Y-105272380D01*
X141041904Y-105320000D01*
X141089523Y-105367619D01*
X141137142Y-105462857D01*
X141137142Y-105605714D01*
X141089523Y-105700952D01*
X141041904Y-105748571D01*
X140946666Y-105796190D01*
X140565714Y-105796190D01*
X142089523Y-106272380D02*
X141518095Y-106272380D01*
X141803809Y-106272380D02*
X141803809Y-105272380D01*
X141708571Y-105415238D01*
X141613333Y-105510476D01*
X141518095Y-105558095D01*
X142470476Y-105367619D02*
X142518095Y-105320000D01*
X142613333Y-105272380D01*
X142851428Y-105272380D01*
X142946666Y-105320000D01*
X142994285Y-105367619D01*
X143041904Y-105462857D01*
X143041904Y-105558095D01*
X142994285Y-105700952D01*
X142422857Y-106272380D01*
X143041904Y-106272380D01*
%TO.C,U4*%
X139148095Y-91142380D02*
X139148095Y-91951904D01*
X139195714Y-92047142D01*
X139243333Y-92094761D01*
X139338571Y-92142380D01*
X139529047Y-92142380D01*
X139624285Y-92094761D01*
X139671904Y-92047142D01*
X139719523Y-91951904D01*
X139719523Y-91142380D01*
X140624285Y-91475714D02*
X140624285Y-92142380D01*
X140386190Y-91094761D02*
X140148095Y-91809047D01*
X140767142Y-91809047D01*
%TO.C,U5*%
X135798095Y-110278380D02*
X135798095Y-111087904D01*
X135845714Y-111183142D01*
X135893333Y-111230761D01*
X135988571Y-111278380D01*
X136179047Y-111278380D01*
X136274285Y-111230761D01*
X136321904Y-111183142D01*
X136369523Y-111087904D01*
X136369523Y-110278380D01*
X137321904Y-110278380D02*
X136845714Y-110278380D01*
X136798095Y-110754571D01*
X136845714Y-110706952D01*
X136940952Y-110659333D01*
X137179047Y-110659333D01*
X137274285Y-110706952D01*
X137321904Y-110754571D01*
X137369523Y-110849809D01*
X137369523Y-111087904D01*
X137321904Y-111183142D01*
X137274285Y-111230761D01*
X137179047Y-111278380D01*
X136940952Y-111278380D01*
X136845714Y-111230761D01*
X136798095Y-111183142D01*
%TO.C,SW1*%
X106734761Y-89303333D02*
X106782380Y-89160476D01*
X106782380Y-88922380D01*
X106734761Y-88827142D01*
X106687142Y-88779523D01*
X106591904Y-88731904D01*
X106496666Y-88731904D01*
X106401428Y-88779523D01*
X106353809Y-88827142D01*
X106306190Y-88922380D01*
X106258571Y-89112857D01*
X106210952Y-89208095D01*
X106163333Y-89255714D01*
X106068095Y-89303333D01*
X105972857Y-89303333D01*
X105877619Y-89255714D01*
X105830000Y-89208095D01*
X105782380Y-89112857D01*
X105782380Y-88874761D01*
X105830000Y-88731904D01*
X105782380Y-88398571D02*
X106782380Y-88160476D01*
X106068095Y-87970000D01*
X106782380Y-87779523D01*
X105782380Y-87541428D01*
X106782380Y-86636666D02*
X106782380Y-87208095D01*
X106782380Y-86922380D02*
X105782380Y-86922380D01*
X105925238Y-87017619D01*
X106020476Y-87112857D01*
X106068095Y-87208095D01*
%TO.C,J4*%
X124946666Y-81812380D02*
X124946666Y-82526666D01*
X124899047Y-82669523D01*
X124803809Y-82764761D01*
X124660952Y-82812380D01*
X124565714Y-82812380D01*
X125851428Y-82145714D02*
X125851428Y-82812380D01*
X125613333Y-81764761D02*
X125375238Y-82479047D01*
X125994285Y-82479047D01*
%TO.C,J5*%
X124886666Y-113992380D02*
X124886666Y-114706666D01*
X124839047Y-114849523D01*
X124743809Y-114944761D01*
X124600952Y-114992380D01*
X124505714Y-114992380D01*
X125839047Y-113992380D02*
X125362857Y-113992380D01*
X125315238Y-114468571D01*
X125362857Y-114420952D01*
X125458095Y-114373333D01*
X125696190Y-114373333D01*
X125791428Y-114420952D01*
X125839047Y-114468571D01*
X125886666Y-114563809D01*
X125886666Y-114801904D01*
X125839047Y-114897142D01*
X125791428Y-114944761D01*
X125696190Y-114992380D01*
X125458095Y-114992380D01*
X125362857Y-114944761D01*
X125315238Y-114897142D01*
%TO.C,J3*%
X147912380Y-78973333D02*
X148626666Y-78973333D01*
X148769523Y-79020952D01*
X148864761Y-79116190D01*
X148912380Y-79259047D01*
X148912380Y-79354285D01*
X147912380Y-78592380D02*
X147912380Y-77973333D01*
X148293333Y-78306666D01*
X148293333Y-78163809D01*
X148340952Y-78068571D01*
X148388571Y-78020952D01*
X148483809Y-77973333D01*
X148721904Y-77973333D01*
X148817142Y-78020952D01*
X148864761Y-78068571D01*
X148912380Y-78163809D01*
X148912380Y-78449523D01*
X148864761Y-78544761D01*
X148817142Y-78592380D01*
%TO.C,FB1*%
X157716666Y-104318571D02*
X157383333Y-104318571D01*
X157383333Y-104842380D02*
X157383333Y-103842380D01*
X157859523Y-103842380D01*
X158573809Y-104318571D02*
X158716666Y-104366190D01*
X158764285Y-104413809D01*
X158811904Y-104509047D01*
X158811904Y-104651904D01*
X158764285Y-104747142D01*
X158716666Y-104794761D01*
X158621428Y-104842380D01*
X158240476Y-104842380D01*
X158240476Y-103842380D01*
X158573809Y-103842380D01*
X158669047Y-103890000D01*
X158716666Y-103937619D01*
X158764285Y-104032857D01*
X158764285Y-104128095D01*
X158716666Y-104223333D01*
X158669047Y-104270952D01*
X158573809Y-104318571D01*
X158240476Y-104318571D01*
X159764285Y-104842380D02*
X159192857Y-104842380D01*
X159478571Y-104842380D02*
X159478571Y-103842380D01*
X159383333Y-103985238D01*
X159288095Y-104080476D01*
X159192857Y-104128095D01*
%TO.C,C15*%
X148427142Y-121722857D02*
X148474761Y-121770476D01*
X148522380Y-121913333D01*
X148522380Y-122008571D01*
X148474761Y-122151428D01*
X148379523Y-122246666D01*
X148284285Y-122294285D01*
X148093809Y-122341904D01*
X147950952Y-122341904D01*
X147760476Y-122294285D01*
X147665238Y-122246666D01*
X147570000Y-122151428D01*
X147522380Y-122008571D01*
X147522380Y-121913333D01*
X147570000Y-121770476D01*
X147617619Y-121722857D01*
X148522380Y-120770476D02*
X148522380Y-121341904D01*
X148522380Y-121056190D02*
X147522380Y-121056190D01*
X147665238Y-121151428D01*
X147760476Y-121246666D01*
X147808095Y-121341904D01*
X147522380Y-119865714D02*
X147522380Y-120341904D01*
X147998571Y-120389523D01*
X147950952Y-120341904D01*
X147903333Y-120246666D01*
X147903333Y-120008571D01*
X147950952Y-119913333D01*
X147998571Y-119865714D01*
X148093809Y-119818095D01*
X148331904Y-119818095D01*
X148427142Y-119865714D01*
X148474761Y-119913333D01*
X148522380Y-120008571D01*
X148522380Y-120246666D01*
X148474761Y-120341904D01*
X148427142Y-120389523D01*
%TD*%
M02*
